999
FreeCAD v1.1 20260414 (Git shallow)
  0
SECTION
  2
HEADER
  9
$ACADVER
  1
AC1014
  9
$ACADMAINTVER
 70
     9
  9
$DWGCODEPAGE
  3
ANSI_1252
  9
$TEXTSTYLE
  7
STANDARD
  9
$DIMSTYLE
  2
STANDARD
  9
$DIMTXSTY
  7
STANDARD
  9
$CMLSTYLE
  2
STANDARD
  9
$LUNITS
 70
2
  9
$INSUNITS
 70
4
  9
$PEXTMAX
 10
50
 20
50
 30
50
  9
$PEXTMIN
 10
0
 20
0
 30
0
  9
$HANDSEED
  5
FFFF
  0
ENDSEC
  0
SECTION
  2
CLASSES
  0
CLASS
  1
ACDBDICTIONARYWDFLT
  2
AcDbDictionaryWithDefault
  3
ObjectDBX Classes
 90
        0
280
     0
281
     0
  0
CLASS
  1
XRECORD
  2
AcDbXrecord
  3
ObjectDBX Classes
 90
        0
280
     0
281
     0
  0
CLASS
  1
LWPOLYLINE
  2
AcDbPolyline
  3
ObjectDBX Classes
 90
        0
280
     0
281
     1
  0
ENDSEC
  0
SECTION
  2
TABLES
  0
TABLE
  2
VPORT
  5
20
330
0
100
AcDbSymbolTable
 70
     1
  0
VPORT
  5
21
330
20
100
AcDbSymbolTableRecord
100
AcDbViewportTableRecord
  2
*ACTIVE
 70
     0
  0
ENDTAB
  0
TABLE
  2
LTYPE
  5
22
330
0
100
AcDbSymbolTable
 70
     1
  0
LTYPE
  5
23
330
21
100
AcDbSymbolTableRecord
100
AcDbLinetypeTableRecord
  2
BYBLOCK
 70
     0
  3

 72
    65
 73
     0
 40
0.0
  0
LTYPE
  5
24
330
21
100
AcDbSymbolTableRecord
100
AcDbLinetypeTableRecord
  2
BYLAYER
 70
     0
  3

 72
    65
 73
     0
 40
0.0
  0
LTYPE
  5
25
330
21
100
AcDbSymbolTableRecord
100
AcDbLinetypeTableRecord
  2
CONTINUOUS
 70
     0
  3
Solid line
 72
    65
 73
     0
 40
0.0
  0
ENDTAB
  0
TABLE
  2
LAYER
  5
AE4
330
0
100
AcDbSymbolTable
 70
3
  0
LAYER
  5
AE5
330
AE4
100
AcDbSymbolTableRecord
100
AcDbLayerTableRecord
  2
0
 70
   0
 62
   7
  6
CONTINUOUS
  0
LAYER
  5
AE6
330
AE4
100
AcDbSymbolTableRecord
100
AcDbLayerTableRecord
  2
none
 70
    0
 62
    7
  6
CONTINUOUS
  0
LAYER
  5
AE7
330
AE4
100
AcDbSymbolTableRecord
100
AcDbLayerTableRecord
  2
Arm_8mm
 70
    0
 62
    7
  6
CONTINUOUS
  0
ENDTAB
  0
TABLE
  2
STYLE
  5
70
330
0
100
AcDbSymbolTable
 70
     2
  0
STYLE
  5
71
330
70
100
AcDbSymbolTableRecord
100
AcDbTextStyleTableRecord
  2
STANDARD
 70
     0
 40
0.0
 41
1.0
 50
0.0
 71
     0
 42
2.5
  3
arial.ttf
  4

  0
STYLE
  5
72
330
70
100
AcDbSymbolTableRecord
100
AcDbTextStyleTableRecord
  2
ANNOTATIVE
 70
     0
 40
0.0
 41
1.0
 50
0.0
 71
     0
 42
2.5
  3
arial.ttf
  4

  0
ENDTAB
  0
TABLE
  2
VIEW
  5
73
330
0
100
AcDbSymbolTable
 70
     0
  0
ENDTAB
  0
TABLE
  2
UCS
  5
74
330
0
100
AcDbSymbolTable
 70
     0
  0
ENDTAB
  0
TABLE
  2
APPID
  5
75
330
0
100
AcDbSymbolTable
 70
     2
  0
APPID
  5
76
330
75
100
AcDbSymbolTableRecord
100
AcDbRegAppTableRecord
  2
ACAD
 70
     0
  0
APPID
  5
77
330
75
100
AcDbSymbolTableRecord
100
AcDbRegAppTableRecord
  2
ACADANNOTATIVE
 70
     0
  0
ENDTAB
  0
TABLE
  2
DIMSTYLE
  5
78
330
0
100
AcDbSymbolTable
 70
     2
  0
DIMSTYLE
105
79
330
78
100
AcDbSymbolTableRecord
100
AcDbDimStyleTableRecord
  2
STANDARD
 70
     0
  3

  4

  5

  6

  7

 40
0.0
 41
2.5
 42
0.625
 43
3.75
 44
1.25
 45
0.0
 46
0.0
 47
0.0
 48
0.0
140
2.5
141
2.5
142
0.0
143
0.03937007874016
144
1.0
145
0.0
146
1.0
147
0.625
 71
     0
 72
     0
 73
     0
 74
     0
 75
     0
 76
     0
 77
     1
 78
     8
170
     0
171
     3
172
     1
173
     0
174
     0
175
     0
176
     0
177
     0
178
     0
270
     2
271
     2
272
     2
273
     2
274
     3
340
71
275
     0
280
     0
281
     0
282
     0
283
     0
284
     8
285
     0
286
     0
287
     3
288
     0
  0
ENDTAB
  0
TABLE
  2
BLOCK_RECORD
  5
A01
330
0
100
AcDbSymbolTable
  70
5
  0
BLOCK_RECORD
  5
A02
330
A01
100
AcDbSymbolTableRecord
100
AcDbBlockTableRecord
  2
*MODEL_SPACE
  0
BLOCK_RECORD
  5
A03
330
A01
100
AcDbSymbolTableRecord
100
AcDbBlockTableRecord
  2
*PAPER_SPACE
  0
ENDTAB
  0
ENDSEC
  0
SECTION
  2
BLOCKS
  0
BLOCK
  5
A04
330
A02
100
AcDbEntity
  8
0
100
AcDbBlockBegin
  2
*MODEL_SPACE
 70
   0
 10
0
 20
0
 30
0
  3
*MODEL_SPACE
  1
 
  0
ENDBLK
  5
A05
330
A02
100
AcDbEntity
  8
0
100
AcDbBlockEnd
  0
BLOCK
  5
A06
330
A03
100
AcDbEntity
 67
1
  8
0
100
AcDbBlockBegin
  2
*PAPER_SPACE
 70
   0
 10
0
 20
0
 30
0
  3
*PAPER_SPACE
  1
 
  0
ENDBLK
  5
A07
330
A03
100
AcDbEntity
 67
    1
  8
0
100
AcDbBlockEnd
  0
ENDSEC
  0
SECTION
  2
ENTITIES
  0
LINE
  5
A08
330
A02
100
AcDbEntity
  8
Arm_8mm
100
AcDbLine
 10
38.192973243
 20
99.520989770
 30
0.000000000
 11
37.831596337
 21
100.065660205
 31
0.000000000
  0
LINE
  5
A09
330
A02
100
AcDbEntity
  8
Arm_8mm
100
AcDbLine
 10
37.831596337
 20
100.065660205
 30
0.000000000
 11
37.360828907
 21
100.519132563
 31
0.000000000
  0
LINE
  5
A0A
330
A02
100
AcDbEntity
  8
Arm_8mm
100
AcDbLine
 10
42.090809657
 20
91.972007483
 30
0.000000000
 11
38.192973243
 21
99.520989770
 31
0.000000000
  0
LINE
  5
A0B
330
A02
100
AcDbEntity
  8
Arm_8mm
100
AcDbLine
 10
37.360828907
 20
100.519132563
 30
0.000000000
 11
23.110991172
 21
111.522192854
 31
0.000000000
  0
LINE
  5
A0C
330
A02
100
AcDbEntity
  8
Arm_8mm
100
AcDbLine
 10
23.110991172
 20
111.522192854
 30
0.000000000
 11
22.026771125
 21
112.159537277
 31
0.000000000
  0
LINE
  5
A0D
330
A02
100
AcDbEntity
  8
Arm_8mm
100
AcDbLine
 10
22.026771125
 20
112.159537277
 30
0.000000000
 11
20.817808958
 21
112.506166048
 31
0.000000000
  0
LINE
  5
A0E
330
A02
100
AcDbEntity
  8
Arm_8mm
100
AcDbLine
 10
20.817808958
 20
112.506166048
 30
0.000000000
 11
19.560595274
 21
112.540148089
 31
0.000000000
  0
LINE
  5
A0F
330
A02
100
AcDbEntity
  8
Arm_8mm
100
AcDbLine
 10
19.560595274
 20
112.540148089
 30
0.000000000
 11
7.666513371
 21
111.357833146
 31
0.000000000
  0
LINE
  5
A10
330
A02
100
AcDbEntity
  8
Arm_8mm
100
AcDbLine
 10
7.666513371
 20
111.357833146
 30
0.000000000
 11
6.726972480
 21
111.105966536
 31
0.000000000
  0
LINE
  5
A11
330
A02
100
AcDbEntity
  8
Arm_8mm
100
AcDbLine
 10
6.726972480
 20
111.105966536
 30
0.000000000
 11
5.917403215
 21
110.566734231
 31
0.000000000
  0
LINE
  5
A12
330
A02
100
AcDbEntity
  8
Arm_8mm
100
AcDbLine
 10
5.917403215
 20
110.566734231
 30
0.000000000
 11
5.322915941
 21
109.796825954
 31
0.000000000
  0
LINE
  5
A13
330
A02
100
AcDbEntity
  8
Arm_8mm
100
AcDbLine
 10
5.322915941
 20
109.796825954
 30
0.000000000
 11
5.006009361
 21
108.877182494
 31
0.000000000
  0
LINE
  5
A14
330
A02
100
AcDbEntity
  8
Arm_8mm
100
AcDbLine
 10
5.006009361
 20
108.877182494
 30
0.000000000
 11
5.000000000
 21
107.904486363
 31
0.000000000
  0
LINE
  5
A15
330
A02
100
AcDbEntity
  8
Arm_8mm
100
AcDbLine
 10
5.000000000
 20
107.904486363
 30
0.000000000
 11
6.864858214
 21
96.098159382
 31
0.000000000
  0
LINE
  5
A16
330
A02
100
AcDbEntity
  8
Arm_8mm
100
AcDbLine
 10
6.864858214
 20
96.098159382
 30
0.000000000
 11
7.215759152
 21
94.890430291
 31
0.000000000
  0
LINE
  5
A17
330
A02
100
AcDbEntity
  8
Arm_8mm
100
AcDbLine
 10
7.215759152
 20
94.890430291
 30
0.000000000
 11
7.856932895
 21
93.808470376
 31
0.000000000
  0
LINE
  5
A18
330
A02
100
AcDbEntity
  8
Arm_8mm
100
AcDbLine
 10
7.856932895
 20
93.808470376
 30
0.000000000
 11
8.747812610
 21
92.920734853
 31
0.000000000
  0
LINE
  5
A19
330
A02
100
AcDbEntity
  8
Arm_8mm
100
AcDbLine
 10
8.747812610
 20
92.920734853
 30
0.000000000
 11
22.997650345
 21
81.917674563
 31
0.000000000
  0
LINE
  5
A1A
330
A02
100
AcDbEntity
  8
Arm_8mm
100
AcDbLine
 10
22.997650345
 20
81.917674563
 30
0.000000000
 11
23.555459442
 21
81.576928084
 31
0.000000000
  0
LINE
  5
A1B
330
A02
100
AcDbEntity
  8
Arm_8mm
100
AcDbLine
 10
23.555459442
 20
81.576928084
 30
0.000000000
 11
24.173829203
 21
81.365083824
 31
0.000000000
  0
LINE
  5
A1C
330
A02
100
AcDbEntity
  8
Arm_8mm
100
AcDbLine
 10
24.173829203
 20
81.365083824
 30
0.000000000
 11
32.463289629
 21
79.503603733
 31
0.000000000
  0
LINE
  5
A1D
330
A02
100
AcDbEntity
  8
Arm_8mm
100
AcDbLine
 10
40.304482020
 20
75.819665477
 30
0.000000000
 11
38.507172238
 21
77.057070564
 31
0.000000000
  0
LINE
  5
A1E
330
A02
100
AcDbEntity
  8
Arm_8mm
100
AcDbLine
 10
38.507172238
 20
77.057070564
 30
0.000000000
 11
36.585754703
 21
78.091308666
 31
0.000000000
  0
LINE
  5
A1F
330
A02
100
AcDbEntity
  8
Arm_8mm
100
AcDbLine
 10
36.585754703
 20
78.091308666
 30
0.000000000
 11
34.563101457
 21
78.910068489
 31
0.000000000
  0
LINE
  5
A20
330
A02
100
AcDbEntity
  8
Arm_8mm
100
AcDbLine
 10
34.563101457
 20
78.910068489
 30
0.000000000
 11
32.463289629
 21
79.503603733
 31
0.000000000
  0
LINE
  5
A21
330
A02
100
AcDbEntity
  8
Arm_8mm
100
AcDbLine
 10
40.304482020
 20
75.819665477
 30
0.000000000
 11
67.388605755
 21
54.906567944
 31
0.000000000
  0
LINE
  5
A22
330
A02
100
AcDbEntity
  8
Arm_8mm
100
AcDbLine
 10
67.644564809
 20
54.694995608
 30
0.000000000
 11
67.388605755
 21
54.906567944
 31
0.000000000
  0
LINE
  5
A23
330
A02
100
AcDbEntity
  8
Arm_8mm
100
AcDbLine
 10
67.644564809
 20
54.694995608
 30
0.000000000
 11
98.347870387
 21
27.550377397
 31
0.000000000
  0
LINE
  5
A24
330
A02
100
AcDbEntity
  8
Arm_8mm
100
AcDbLine
 10
98.347870387
 20
27.550377397
 30
0.000000000
 11
98.966222772
 21
27.083790445
 31
0.000000000
  0
LINE
  5
A25
330
A02
100
AcDbEntity
  8
Arm_8mm
100
AcDbLine
 10
42.090809657
 20
91.972007483
 30
0.000000000
 11
43.196208556
 21
90.090628448
 31
0.000000000
  0
LINE
  5
A26
330
A02
100
AcDbEntity
  8
Arm_8mm
100
AcDbLine
 10
43.196208556
 20
90.090628448
 30
0.000000000
 11
44.499989034
 21
88.340871247
 31
0.000000000
  0
LINE
  5
A27
330
A02
100
AcDbEntity
  8
Arm_8mm
100
AcDbLine
 10
44.499989034
 20
88.340871247
 30
0.000000000
 11
45.986631235
 21
86.743564524
 31
0.000000000
  0
LINE
  5
A28
330
A02
100
AcDbEntity
  8
Arm_8mm
100
AcDbLine
 10
45.986631235
 20
86.743564524
 30
0.000000000
 11
47.638438564
 21
85.317722195
 31
0.000000000
  0
LINE
  5
A29
330
A02
100
AcDbEntity
  8
Arm_8mm
100
AcDbLine
 10
74.722562299
 20
64.404624662
 30
0.000000000
 11
47.638438564
 21
85.317722195
 31
0.000000000
  0
LINE
  5
A2A
330
A02
100
AcDbEntity
  8
Arm_8mm
100
AcDbLine
 10
74.722562299
 20
64.404624662
 30
0.000000000
 11
74.992000908
 21
64.210509420
 31
0.000000000
  0
LINE
  5
A2B
330
A02
100
AcDbEntity
  8
Arm_8mm
100
AcDbLine
 10
109.020483114
 20
41.372259268
 30
0.000000000
 11
74.992000908
 21
64.210509420
 31
0.000000000
  0
LINE
  5
A2C
330
A02
100
AcDbEntity
  8
Arm_8mm
100
AcDbLine
 10
109.628313289
 20
40.892045218
 30
0.000000000
 11
109.020483114
 21
41.372259268
 31
0.000000000
  0
LINE
  5
A2D
330
A02
100
AcDbEntity
  8
Arm_8mm
100
AcDbLine
 10
137.931859162
 20
14.725613312
 30
0.000000000
 11
109.628313289
 21
40.892045218
 31
0.000000000
  0
LINE
  5
A2E
330
A02
100
AcDbEntity
  8
Arm_8mm
100
AcDbLine
 10
139.240782657
 20
12.751411364
 30
0.000000000
 11
138.704915893
 21
13.817142471
 31
0.000000000
  0
LINE
  5
A2F
330
A02
100
AcDbEntity
  8
Arm_8mm
100
AcDbLine
 10
138.704915893
 20
13.817142471
 30
0.000000000
 11
137.931859162
 21
14.725613312
 31
0.000000000
  0
LINE
  5
A30
330
A02
100
AcDbEntity
  8
Arm_8mm
100
AcDbLine
 10
141.315211148
 20
7.003016382
 30
0.000000000
 11
139.240782657
 21
12.751411364
 31
0.000000000
  0
LINE
  5
A31
330
A02
100
AcDbEntity
  8
Arm_8mm
100
AcDbLine
 10
139.768575289
 20
5.000000000
 30
0.000000000
 11
140.504028101
 21
5.118970363
 31
0.000000000
  0
LINE
  5
A32
330
A02
100
AcDbEntity
  8
Arm_8mm
100
AcDbLine
 10
140.504028101
 20
5.118970363
 30
0.000000000
 11
141.091529151
 21
5.577104951
 31
0.000000000
  0
LINE
  5
A33
330
A02
100
AcDbEntity
  8
Arm_8mm
100
AcDbLine
 10
141.091529151
 20
5.577104951
 30
0.000000000
 11
141.386149821
 21
6.261388113
 31
0.000000000
  0
LINE
  5
A34
330
A02
100
AcDbEntity
  8
Arm_8mm
100
AcDbLine
 10
141.386149821
 20
6.261388113
 30
0.000000000
 11
141.315211148
 21
7.003016382
 31
0.000000000
  0
LINE
  5
A35
330
A02
100
AcDbEntity
  8
Arm_8mm
100
AcDbLine
 10
133.682389739
 20
5.552850687
 30
0.000000000
 11
139.768575289
 21
5.000000000
 31
0.000000000
  0
LINE
  5
A36
330
A02
100
AcDbEntity
  8
Arm_8mm
100
AcDbLine
 10
131.441290416
 20
6.319810836
 30
0.000000000
 11
132.515766966
 21
5.801702620
 31
0.000000000
  0
LINE
  5
A37
330
A02
100
AcDbEntity
  8
Arm_8mm
100
AcDbLine
 10
132.515766966
 20
5.801702620
 30
0.000000000
 11
133.682389739
 21
5.552850687
 31
0.000000000
  0
LINE
  5
A38
330
A02
100
AcDbEntity
  8
Arm_8mm
100
AcDbLine
 10
98.966222772
 20
27.083790445
 30
0.000000000
 11
131.441290416
 21
6.319810836
 31
0.000000000
  0
LINE
  5
A39
330
A02
100
AcDbEntity
  8
Arm_8mm
100
AcDbLine
 10
102.490987087
 20
34.224413695
 30
0.000000000
 11
102.662803049
 21
33.527328937
 31
0.000000000
  0
LINE
  5
A3A
330
A02
100
AcDbEntity
  8
Arm_8mm
100
AcDbLine
 10
102.662803049
 20
33.527328937
 30
0.000000000
 11
103.138889967
 21
32.989937896
 31
0.000000000
  0
LINE
  5
A3B
330
A02
100
AcDbEntity
  8
Arm_8mm
100
AcDbLine
 10
103.138889967
 20
32.989937896
 30
0.000000000
 11
103.810182067
 21
32.735350384
 31
0.000000000
  0
LINE
  5
A3C
330
A02
100
AcDbEntity
  8
Arm_8mm
100
AcDbLine
 10
103.810182067
 20
32.735350384
 30
0.000000000
 11
104.522894418
 21
32.821889331
 31
0.000000000
  0
LINE
  5
A3D
330
A02
100
AcDbEntity
  8
Arm_8mm
100
AcDbLine
 10
104.522894418
 20
32.821889331
 30
0.000000000
 11
105.113753210
 21
33.229729708
 31
0.000000000
  0
LINE
  5
A3E
330
A02
100
AcDbEntity
  8
Arm_8mm
100
AcDbLine
 10
105.113753210
 20
33.229729708
 30
0.000000000
 11
105.447399814
 21
33.865440199
 31
0.000000000
  0
LINE
  5
A3F
330
A02
100
AcDbEntity
  8
Arm_8mm
100
AcDbLine
 10
105.447399814
 20
33.865440199
 30
0.000000000
 11
105.447399814
 21
34.583387192
 31
0.000000000
  0
LINE
  5
A40
330
A02
100
AcDbEntity
  8
Arm_8mm
100
AcDbLine
 10
105.447399814
 20
34.583387192
 30
0.000000000
 11
105.113753210
 21
35.219097683
 31
0.000000000
  0
LINE
  5
A41
330
A02
100
AcDbEntity
  8
Arm_8mm
100
AcDbLine
 10
105.113753210
 20
35.219097683
 30
0.000000000
 11
104.522894418
 21
35.626938059
 31
0.000000000
  0
LINE
  5
A42
330
A02
100
AcDbEntity
  8
Arm_8mm
100
AcDbLine
 10
104.522894418
 20
35.626938059
 30
0.000000000
 11
103.810182067
 21
35.713477006
 31
0.000000000
  0
LINE
  5
A43
330
A02
100
AcDbEntity
  8
Arm_8mm
100
AcDbLine
 10
103.810182067
 20
35.713477006
 30
0.000000000
 11
103.138889967
 21
35.458889494
 31
0.000000000
  0
LINE
  5
A44
330
A02
100
AcDbEntity
  8
Arm_8mm
100
AcDbLine
 10
103.138889967
 20
35.458889494
 30
0.000000000
 11
102.662803049
 21
34.921498453
 31
0.000000000
  0
LINE
  5
A45
330
A02
100
AcDbEntity
  8
Arm_8mm
100
AcDbLine
 10
102.662803049
 20
34.921498453
 30
0.000000000
 11
102.490987087
 21
34.224413695
 31
0.000000000
  0
LINE
  5
A46
330
A02
100
AcDbEntity
  8
Arm_8mm
100
AcDbLine
 10
15.535453099
 20
95.378690684
 30
0.000000000
 11
14.908883698
 21
95.148362918
 31
0.000000000
  0
LINE
  5
A47
330
A02
100
AcDbEntity
  8
Arm_8mm
100
AcDbLine
 10
14.908883698
 20
95.148362918
 30
0.000000000
 11
14.444299646
 21
94.668986496
 31
0.000000000
  0
LINE
  5
A48
330
A02
100
AcDbEntity
  8
Arm_8mm
100
AcDbLine
 10
14.444299646
 20
94.668986496
 30
0.000000000
 11
14.233717513
 21
94.035507799
 31
0.000000000
  0
LINE
  5
A49
330
A02
100
AcDbEntity
  8
Arm_8mm
100
AcDbLine
 10
14.233717513
 20
94.035507799
 30
0.000000000
 11
14.318845673
 21
93.373395051
 31
0.000000000
  0
LINE
  5
A4A
330
A02
100
AcDbEntity
  8
Arm_8mm
100
AcDbLine
 10
14.318845673
 20
93.373395051
 30
0.000000000
 11
14.682823449
 21
92.813787803
 31
0.000000000
  0
LINE
  5
A4B
330
A02
100
AcDbEntity
  8
Arm_8mm
100
AcDbLine
 10
14.682823449
 20
92.813787803
 30
0.000000000
 11
15.253560580
 21
92.467523132
 31
0.000000000
  0
LINE
  5
A4C
330
A02
100
AcDbEntity
  8
Arm_8mm
100
AcDbLine
 10
15.253560580
 20
92.467523132
 30
0.000000000
 11
15.918015576
 21
92.403183004
 31
0.000000000
  0
LINE
  5
A4D
330
A02
100
AcDbEntity
  8
Arm_8mm
100
AcDbLine
 10
15.535453099
 20
95.378690684
 30
0.000000000
 11
17.023206939
 21
95.569971922
 31
0.000000000
  0
LINE
  5
A4E
330
A02
100
AcDbEntity
  8
Arm_8mm
100
AcDbLine
 10
17.405769416
 20
92.594464242
 30
0.000000000
 11
15.918015576
 21
92.403183004
 31
0.000000000
  0
LINE
  5
A4F
330
A02
100
AcDbEntity
  8
Arm_8mm
100
AcDbLine
 10
17.405769416
 20
92.594464242
 30
0.000000000
 11
18.032338817
 21
92.824792009
 31
0.000000000
  0
LINE
  5
A50
330
A02
100
AcDbEntity
  8
Arm_8mm
100
AcDbLine
 10
18.032338817
 20
92.824792009
 30
0.000000000
 11
18.496922869
 21
93.304168430
 31
0.000000000
  0
LINE
  5
A51
330
A02
100
AcDbEntity
  8
Arm_8mm
100
AcDbLine
 10
18.496922869
 20
93.304168430
 30
0.000000000
 11
18.707505002
 21
93.937647127
 31
0.000000000
  0
LINE
  5
A52
330
A02
100
AcDbEntity
  8
Arm_8mm
100
AcDbLine
 10
18.707505002
 20
93.937647127
 30
0.000000000
 11
18.622376842
 21
94.599759875
 31
0.000000000
  0
LINE
  5
A53
330
A02
100
AcDbEntity
  8
Arm_8mm
100
AcDbLine
 10
18.622376842
 20
94.599759875
 30
0.000000000
 11
18.258399066
 21
95.159367123
 31
0.000000000
  0
LINE
  5
A54
330
A02
100
AcDbEntity
  8
Arm_8mm
100
AcDbLine
 10
18.258399066
 20
95.159367123
 30
0.000000000
 11
17.687661935
 21
95.505631794
 31
0.000000000
  0
LINE
  5
A55
330
A02
100
AcDbEntity
  8
Arm_8mm
100
AcDbLine
 10
17.687661935
 20
95.505631794
 30
0.000000000
 11
17.023206939
 21
95.569971922
 31
0.000000000
  0
LINE
  5
A56
330
A02
100
AcDbEntity
  8
Arm_8mm
100
AcDbLine
 10
21.649175323
 20
95.102384688
 30
0.000000000
 11
21.838814977
 21
93.965936545
 31
0.000000000
  0
LINE
  5
A57
330
A02
100
AcDbEntity
  8
Arm_8mm
100
AcDbLine
 10
21.838814977
 20
93.965936545
 30
0.000000000
 11
22.387183540
 21
92.952640193
 31
0.000000000
  0
LINE
  5
A58
330
A02
100
AcDbEntity
  8
Arm_8mm
100
AcDbLine
 10
22.387183540
 20
92.952640193
 30
0.000000000
 11
23.234856769
 21
92.172302014
 31
0.000000000
  0
LINE
  5
A59
330
A02
100
AcDbEntity
  8
Arm_8mm
100
AcDbLine
 10
23.234856769
 20
92.172302014
 30
0.000000000
 11
24.289976118
 21
91.709483757
 31
0.000000000
  0
LINE
  5
A5A
330
A02
100
AcDbEntity
  8
Arm_8mm
100
AcDbLine
 10
24.289976118
 20
91.709483757
 30
0.000000000
 11
25.438203032
 21
91.614338962
 31
0.000000000
  0
LINE
  5
A5B
330
A02
100
AcDbEntity
  8
Arm_8mm
100
AcDbLine
 10
25.438203032
 20
91.614338962
 30
0.000000000
 11
26.555109309
 21
91.897178044
 31
0.000000000
  0
LINE
  5
A5C
330
A02
100
AcDbEntity
  8
Arm_8mm
100
AcDbLine
 10
26.555109309
 20
91.897178044
 30
0.000000000
 11
27.519660824
 21
92.527351000
 31
0.000000000
  0
LINE
  5
A5D
330
A02
100
AcDbEntity
  8
Arm_8mm
100
AcDbLine
 10
27.519660824
 20
92.527351000
 30
0.000000000
 11
28.227333452
 21
93.436568812
 31
0.000000000
  0
LINE
  5
A5E
330
A02
100
AcDbEntity
  8
Arm_8mm
100
AcDbLine
 10
28.227333452
 20
93.436568812
 30
0.000000000
 11
28.601439885
 21
94.526303622
 31
0.000000000
  0
LINE
  5
A5F
330
A02
100
AcDbEntity
  8
Arm_8mm
100
AcDbLine
 10
28.601439885
 20
94.526303622
 30
0.000000000
 11
28.601439885
 21
95.678465754
 31
0.000000000
  0
LINE
  5
A60
330
A02
100
AcDbEntity
  8
Arm_8mm
100
AcDbLine
 10
28.601439885
 20
95.678465754
 30
0.000000000
 11
28.227333452
 21
96.768200563
 31
0.000000000
  0
LINE
  5
A61
330
A02
100
AcDbEntity
  8
Arm_8mm
100
AcDbLine
 10
28.227333452
 20
96.768200563
 30
0.000000000
 11
27.519660824
 21
97.677418375
 31
0.000000000
  0
LINE
  5
A62
330
A02
100
AcDbEntity
  8
Arm_8mm
100
AcDbLine
 10
27.519660824
 20
97.677418375
 30
0.000000000
 11
26.555109309
 21
98.307591331
 31
0.000000000
  0
LINE
  5
A63
330
A02
100
AcDbEntity
  8
Arm_8mm
100
AcDbLine
 10
26.555109309
 20
98.307591331
 30
0.000000000
 11
25.438203032
 21
98.590430413
 31
0.000000000
  0
LINE
  5
A64
330
A02
100
AcDbEntity
  8
Arm_8mm
100
AcDbLine
 10
25.438203032
 20
98.590430413
 30
0.000000000
 11
24.289976118
 21
98.495285618
 31
0.000000000
  0
LINE
  5
A65
330
A02
100
AcDbEntity
  8
Arm_8mm
100
AcDbLine
 10
24.289976118
 20
98.495285618
 30
0.000000000
 11
23.234856769
 21
98.032467361
 31
0.000000000
  0
LINE
  5
A66
330
A02
100
AcDbEntity
  8
Arm_8mm
100
AcDbLine
 10
23.234856769
 20
98.032467361
 30
0.000000000
 11
22.387183540
 21
97.252129182
 31
0.000000000
  0
LINE
  5
A67
330
A02
100
AcDbEntity
  8
Arm_8mm
100
AcDbLine
 10
22.387183540
 20
97.252129182
 30
0.000000000
 11
21.838814977
 21
96.238832830
 31
0.000000000
  0
LINE
  5
A68
330
A02
100
AcDbEntity
  8
Arm_8mm
100
AcDbLine
 10
21.838814977
 20
96.238832830
 30
0.000000000
 11
21.649175323
 21
95.102384688
 31
0.000000000
  0
LINE
  5
A69
330
A02
100
AcDbEntity
  8
Arm_8mm
100
AcDbLine
 10
19.407605291
 20
109.235979642
 30
0.000000000
 11
19.839341748
 21
108.902612880
 31
0.000000000
  0
LINE
  5
A6A
330
A02
100
AcDbEntity
  8
Arm_8mm
100
AcDbLine
 10
19.407605291
 20
109.235979642
 30
0.000000000
 11
19.072053481
 21
109.405744101
 31
0.000000000
  0
LINE
  5
A6B
330
A02
100
AcDbEntity
  8
Arm_8mm
100
AcDbLine
 10
19.072053481
 20
109.405744101
 30
0.000000000
 11
18.697526111
 21
109.439570689
 31
0.000000000
  0
LINE
  5
A6C
330
A02
100
AcDbEntity
  8
Arm_8mm
100
AcDbLine
 10
20.210010611
 20
107.921355408
 30
0.000000000
 11
20.163659749
 21
108.464485025
 31
0.000000000
  0
LINE
  5
A6D
330
A02
100
AcDbEntity
  8
Arm_8mm
100
AcDbLine
 10
20.163659749
 20
108.464485025
 30
0.000000000
 11
19.839341748
 21
108.902612880
 31
0.000000000
  0
LINE
  5
A6E
330
A02
100
AcDbEntity
  8
Arm_8mm
100
AcDbLine
 10
9.017372222
 20
108.477328233
 30
0.000000000
 11
18.697526111
 21
109.439570689
 31
0.000000000
  0
LINE
  5
A6F
330
A02
100
AcDbEntity
  8
Arm_8mm
100
AcDbLine
 10
9.017372222
 20
108.477328233
 30
0.000000000
 11
8.517593381
 21
108.283209567
 31
0.000000000
  0
LINE
  5
A70
330
A02
100
AcDbEntity
  8
Arm_8mm
100
AcDbLine
 10
8.517593381
 20
108.283209567
 30
0.000000000
 11
8.189915964
 21
107.858841264
 31
0.000000000
  0
LINE
  5
A71
330
A02
100
AcDbEntity
  8
Arm_8mm
100
AcDbLine
 10
8.189915964
 20
107.858841264
 30
0.000000000
 11
8.128534431
 21
107.326212638
 31
0.000000000
  0
LINE
  5
A72
330
A02
100
AcDbEntity
  8
Arm_8mm
100
AcDbLine
 10
9.646273643
 20
97.717479238
 30
0.000000000
 11
8.128534431
 21
107.326212638
 31
0.000000000
  0
LINE
  5
A73
330
A02
100
AcDbEntity
  8
Arm_8mm
100
AcDbLine
 10
9.646273643
 20
97.717479238
 30
0.000000000
 11
9.773740328
 21
97.363689423
 31
0.000000000
  0
LINE
  5
A74
330
A02
100
AcDbEntity
  8
Arm_8mm
100
AcDbLine
 10
9.773740328
 20
97.363689423
 30
0.000000000
 11
10.022864522
 21
97.081994332
 31
0.000000000
  0
LINE
  5
A75
330
A02
100
AcDbEntity
  8
Arm_8mm
100
AcDbLine
 10
10.454600979
 20
96.748627570
 30
0.000000000
 11
10.022864522
 21
97.081994332
 31
0.000000000
  0
LINE
  5
A76
330
A02
100
AcDbEntity
  8
Arm_8mm
100
AcDbLine
 10
10.454600979
 20
96.748627570
 30
0.000000000
 11
10.960518857
 21
96.545685991
 31
0.000000000
  0
LINE
  5
A77
330
A02
100
AcDbEntity
  8
Arm_8mm
100
AcDbLine
 10
10.960518857
 20
96.545685991
 30
0.000000000
 11
11.497709092
 21
96.638232381
 31
0.000000000
  0
LINE
  5
A78
330
A02
100
AcDbEntity
  8
Arm_8mm
100
AcDbLine
 10
18.241320289
 20
99.867936187
 30
0.000000000
 11
11.497709092
 21
96.638232381
 31
0.000000000
  0
LINE
  5
A79
330
A02
100
AcDbEntity
  8
Arm_8mm
100
AcDbLine
 10
18.241320289
 20
99.867936187
 30
0.000000000
 11
18.600879948
 21
100.158673057
 31
0.000000000
  0
LINE
  5
A7A
330
A02
100
AcDbEntity
  8
Arm_8mm
100
AcDbLine
 10
18.600879948
 20
100.158673057
 30
0.000000000
 11
18.791207129
 21
100.580083357
 31
0.000000000
  0
LINE
  5
A7B
330
A02
100
AcDbEntity
  8
Arm_8mm
100
AcDbLine
 10
20.210010611
 20
107.921355408
 30
0.000000000
 11
18.791207129
 21
100.580083357
 31
0.000000000
  0
LINE
  5
A7C
330
A02
100
AcDbEntity
  8
Arm_8mm
100
AcDbLine
 10
25.425481319
 20
104.716106911
 30
0.000000000
 11
25.616762557
 21
103.228353072
 31
0.000000000
  0
LINE
  5
A7D
330
A02
100
AcDbEntity
  8
Arm_8mm
100
AcDbLine
 10
25.425481319
 20
104.716106911
 30
0.000000000
 11
25.195153551
 21
105.342676315
 31
0.000000000
  0
LINE
  5
A7E
330
A02
100
AcDbEntity
  8
Arm_8mm
100
AcDbLine
 10
25.195153551
 20
105.342676315
 30
0.000000000
 11
24.715777126
 21
105.807260368
 31
0.000000000
  0
LINE
  5
A7F
330
A02
100
AcDbEntity
  8
Arm_8mm
100
AcDbLine
 10
24.715777126
 20
105.807260368
 30
0.000000000
 11
24.082298425
 21
106.017842498
 31
0.000000000
  0
LINE
  5
A80
330
A02
100
AcDbEntity
  8
Arm_8mm
100
AcDbLine
 10
24.082298425
 20
106.017842498
 30
0.000000000
 11
23.420185675
 21
105.932714333
 31
0.000000000
  0
LINE
  5
A81
330
A02
100
AcDbEntity
  8
Arm_8mm
100
AcDbLine
 10
23.420185675
 20
105.932714333
 30
0.000000000
 11
22.860578427
 21
105.568736550
 31
0.000000000
  0
LINE
  5
A82
330
A02
100
AcDbEntity
  8
Arm_8mm
100
AcDbLine
 10
22.860578427
 20
105.568736550
 30
0.000000000
 11
22.514313761
 21
104.997999413
 31
0.000000000
  0
LINE
  5
A83
330
A02
100
AcDbEntity
  8
Arm_8mm
100
AcDbLine
 10
22.514313761
 20
104.997999413
 30
0.000000000
 11
22.449973642
 21
104.333544412
 31
0.000000000
  0
LINE
  5
A84
330
A02
100
AcDbEntity
  8
Arm_8mm
100
AcDbLine
 10
22.641254878
 20
102.845790595
 30
0.000000000
 11
22.871582644
 21
102.219221193
 31
0.000000000
  0
LINE
  5
A85
330
A02
100
AcDbEntity
  8
Arm_8mm
100
AcDbLine
 10
22.871582644
 20
102.219221193
 30
0.000000000
 11
23.350959065
 21
101.754637141
 31
0.000000000
  0
LINE
  5
A86
330
A02
100
AcDbEntity
  8
Arm_8mm
100
AcDbLine
 10
23.350959065
 20
101.754637141
 30
0.000000000
 11
23.984437762
 21
101.544055008
 31
0.000000000
  0
LINE
  5
A87
330
A02
100
AcDbEntity
  8
Arm_8mm
100
AcDbLine
 10
23.984437762
 20
101.544055008
 30
0.000000000
 11
24.646550510
 21
101.629183168
 31
0.000000000
  0
LINE
  5
A88
330
A02
100
AcDbEntity
  8
Arm_8mm
100
AcDbLine
 10
24.646550510
 20
101.629183168
 30
0.000000000
 11
25.206157759
 21
101.993160944
 31
0.000000000
  0
LINE
  5
A89
330
A02
100
AcDbEntity
  8
Arm_8mm
100
AcDbLine
 10
25.206157759
 20
101.993160944
 30
0.000000000
 11
25.552422429
 21
102.563898075
 31
0.000000000
  0
LINE
  5
A8A
330
A02
100
AcDbEntity
  8
Arm_8mm
100
AcDbLine
 10
25.552422429
 20
102.563898075
 30
0.000000000
 11
25.616762557
 21
103.228353072
 31
0.000000000
  0
LINE
  5
A8B
330
A02
100
AcDbEntity
  8
Arm_8mm
100
AcDbLine
 10
22.641254878
 20
102.845790595
 30
0.000000000
 11
22.449973642
 21
104.333544412
 31
0.000000000
  0
LINE
  5
A8C
330
A02
100
AcDbEntity
  8
Arm_8mm
100
AcDbLine
 10
24.872869327
 20
85.488662464
 30
0.000000000
 11
24.681588088
 21
86.976416304
 31
0.000000000
  0
LINE
  5
A8D
330
A02
100
AcDbEntity
  8
Arm_8mm
100
AcDbLine
 10
24.872869327
 20
85.488662464
 30
0.000000000
 11
25.103197095
 21
84.862093060
 31
0.000000000
  0
LINE
  5
A8E
330
A02
100
AcDbEntity
  8
Arm_8mm
100
AcDbLine
 10
25.103197095
 20
84.862093060
 30
0.000000000
 11
25.582573520
 21
84.397509007
 31
0.000000000
  0
LINE
  5
A8F
330
A02
100
AcDbEntity
  8
Arm_8mm
100
AcDbLine
 10
25.582573520
 20
84.397509007
 30
0.000000000
 11
26.216052221
 21
84.186926877
 31
0.000000000
  0
LINE
  5
A90
330
A02
100
AcDbEntity
  8
Arm_8mm
100
AcDbLine
 10
26.216052221
 20
84.186926877
 30
0.000000000
 11
26.878164971
 21
84.272055042
 31
0.000000000
  0
LINE
  5
A91
330
A02
100
AcDbEntity
  8
Arm_8mm
100
AcDbLine
 10
26.878164971
 20
84.272055042
 30
0.000000000
 11
27.437772219
 21
84.636032825
 31
0.000000000
  0
LINE
  5
A92
330
A02
100
AcDbEntity
  8
Arm_8mm
100
AcDbLine
 10
27.437772219
 20
84.636032825
 30
0.000000000
 11
27.784036884
 21
85.206769962
 31
0.000000000
  0
LINE
  5
A93
330
A02
100
AcDbEntity
  8
Arm_8mm
100
AcDbLine
 10
27.784036884
 20
85.206769962
 30
0.000000000
 11
27.848377004
 21
85.871224963
 31
0.000000000
  0
LINE
  5
A94
330
A02
100
AcDbEntity
  8
Arm_8mm
100
AcDbLine
 10
27.657095768
 20
87.358978780
 30
0.000000000
 11
27.426768002
 21
87.985548182
 31
0.000000000
  0
LINE
  5
A95
330
A02
100
AcDbEntity
  8
Arm_8mm
100
AcDbLine
 10
27.426768002
 20
87.985548182
 30
0.000000000
 11
26.947391581
 21
88.450132234
 31
0.000000000
  0
LINE
  5
A96
330
A02
100
AcDbEntity
  8
Arm_8mm
100
AcDbLine
 10
26.947391581
 20
88.450132234
 30
0.000000000
 11
26.313912884
 21
88.660714367
 31
0.000000000
  0
LINE
  5
A97
330
A02
100
AcDbEntity
  8
Arm_8mm
100
AcDbLine
 10
26.313912884
 20
88.660714367
 30
0.000000000
 11
25.651800136
 21
88.575586207
 31
0.000000000
  0
LINE
  5
A98
330
A02
100
AcDbEntity
  8
Arm_8mm
100
AcDbLine
 10
25.651800136
 20
88.575586207
 30
0.000000000
 11
25.092192887
 21
88.211608431
 31
0.000000000
  0
LINE
  5
A99
330
A02
100
AcDbEntity
  8
Arm_8mm
100
AcDbLine
 10
25.092192887
 20
88.211608431
 30
0.000000000
 11
24.745928216
 21
87.640871300
 31
0.000000000
  0
LINE
  5
A9A
330
A02
100
AcDbEntity
  8
Arm_8mm
100
AcDbLine
 10
24.745928216
 20
87.640871300
 30
0.000000000
 11
24.681588088
 21
86.976416304
 31
0.000000000
  0
LINE
  5
A9B
330
A02
100
AcDbEntity
  8
Arm_8mm
100
AcDbLine
 10
27.657095768
 20
87.358978780
 30
0.000000000
 11
27.848377004
 21
85.871224963
 31
0.000000000
  0
LINE
  5
A9C
330
A02
100
AcDbEntity
  8
Arm_8mm
100
AcDbLine
 10
34.762897547
 20
94.826078691
 30
0.000000000
 11
33.275143707
 21
94.634797453
 31
0.000000000
  0
LINE
  5
A9D
330
A02
100
AcDbEntity
  8
Arm_8mm
100
AcDbLine
 10
34.762897547
 20
94.826078691
 30
0.000000000
 11
35.389466948
 21
95.056406457
 31
0.000000000
  0
LINE
  5
A9E
330
A02
100
AcDbEntity
  8
Arm_8mm
100
AcDbLine
 10
35.389466948
 20
95.056406457
 30
0.000000000
 11
35.854051000
 21
95.535782879
 31
0.000000000
  0
LINE
  5
A9F
330
A02
100
AcDbEntity
  8
Arm_8mm
100
AcDbLine
 10
35.854051000
 20
95.535782879
 30
0.000000000
 11
36.064633133
 21
96.169261576
 31
0.000000000
  0
LINE
  5
AA0
330
A02
100
AcDbEntity
  8
Arm_8mm
100
AcDbLine
 10
36.064633133
 20
96.169261576
 30
0.000000000
 11
35.979504973
 21
96.831374324
 31
0.000000000
  0
LINE
  5
AA1
330
A02
100
AcDbEntity
  8
Arm_8mm
100
AcDbLine
 10
35.979504973
 20
96.831374324
 30
0.000000000
 11
35.615527197
 21
97.390981572
 31
0.000000000
  0
LINE
  5
AA2
330
A02
100
AcDbEntity
  8
Arm_8mm
100
AcDbLine
 10
35.615527197
 20
97.390981572
 30
0.000000000
 11
35.044790066
 21
97.737246243
 31
0.000000000
  0
LINE
  5
AA3
330
A02
100
AcDbEntity
  8
Arm_8mm
100
AcDbLine
 10
35.044790066
 20
97.737246243
 30
0.000000000
 11
34.380335070
 21
97.801586371
 31
0.000000000
  0
LINE
  5
AA4
330
A02
100
AcDbEntity
  8
Arm_8mm
100
AcDbLine
 10
32.892581230
 20
97.610305133
 30
0.000000000
 11
32.266011829
 21
97.379977367
 31
0.000000000
  0
LINE
  5
AA5
330
A02
100
AcDbEntity
  8
Arm_8mm
100
AcDbLine
 10
32.266011829
 20
97.379977367
 30
0.000000000
 11
31.801427777
 21
96.900600945
 31
0.000000000
  0
LINE
  5
AA6
330
A02
100
AcDbEntity
  8
Arm_8mm
100
AcDbLine
 10
31.801427777
 20
96.900600945
 30
0.000000000
 11
31.590845644
 21
96.267122248
 31
0.000000000
  0
LINE
  5
AA7
330
A02
100
AcDbEntity
  8
Arm_8mm
100
AcDbLine
 10
31.590845644
 20
96.267122248
 30
0.000000000
 11
31.675973803
 21
95.605009500
 31
0.000000000
  0
LINE
  5
AA8
330
A02
100
AcDbEntity
  8
Arm_8mm
100
AcDbLine
 10
31.675973803
 20
95.605009500
 30
0.000000000
 11
32.039951580
 21
95.045402252
 31
0.000000000
  0
LINE
  5
AA9
330
A02
100
AcDbEntity
  8
Arm_8mm
100
AcDbLine
 10
32.039951580
 20
95.045402252
 30
0.000000000
 11
32.610688710
 21
94.699137581
 31
0.000000000
  0
LINE
  5
AAA
330
A02
100
AcDbEntity
  8
Arm_8mm
100
AcDbLine
 10
32.610688710
 20
94.699137581
 30
0.000000000
 11
33.275143707
 21
94.634797453
 31
0.000000000
  0
LINE
  5
AAB
330
A02
100
AcDbEntity
  8
Arm_8mm
100
AcDbLine
 10
32.892581230
 20
97.610305133
 30
0.000000000
 11
34.380335070
 21
97.801586371
 31
0.000000000
  0
LINE
  5
AAC
330
A02
100
AcDbEntity
  8
Arm_8mm
100
AcDbLine
 10
116.734442831
 20
22.724381587
 30
0.000000000
 11
116.920320097
 21
23.598865370
 31
0.000000000
  0
LINE
  5
AAD
330
A02
100
AcDbEntity
  8
Arm_8mm
100
AcDbLine
 10
116.920320097
 20
23.598865370
 30
0.000000000
 11
117.445812027
 21
24.322142962
 31
0.000000000
  0
LINE
  5
AAE
330
A02
100
AcDbEntity
  8
Arm_8mm
100
AcDbLine
 10
117.445812027
 20
24.322142962
 30
0.000000000
 11
118.220056293
 21
24.769153097
 31
0.000000000
  0
LINE
  5
AAF
330
A02
100
AcDbEntity
  8
Arm_8mm
100
AcDbLine
 10
118.220056293
 20
24.769153097
 30
0.000000000
 11
119.109179027
 21
24.862603662
 31
0.000000000
  0
LINE
  5
AB0
330
A02
100
AcDbEntity
  8
Arm_8mm
100
AcDbLine
 10
119.109179027
 20
24.862603662
 30
0.000000000
 11
119.959442831
 21
24.586336205
 31
0.000000000
  0
LINE
  5
AB1
330
A02
100
AcDbEntity
  8
Arm_8mm
100
AcDbLine
 10
119.959442831
 20
24.586336205
 30
0.000000000
 11
120.623829369
 21
23.988119880
 31
0.000000000
  0
LINE
  5
AB2
330
A02
100
AcDbEntity
  8
Arm_8mm
100
AcDbLine
 10
120.623829369
 20
23.988119880
 30
0.000000000
 11
120.987460173
 21
23.171391723
 31
0.000000000
  0
LINE
  5
AB3
330
A02
100
AcDbEntity
  8
Arm_8mm
100
AcDbLine
 10
120.987460173
 20
23.171391723
 30
0.000000000
 11
120.987460173
 21
22.277371452
 31
0.000000000
  0
LINE
  5
AB4
330
A02
100
AcDbEntity
  8
Arm_8mm
100
AcDbLine
 10
120.987460173
 20
22.277371452
 30
0.000000000
 11
120.623829369
 21
21.460643295
 31
0.000000000
  0
LINE
  5
AB5
330
A02
100
AcDbEntity
  8
Arm_8mm
100
AcDbLine
 10
120.623829369
 20
21.460643295
 30
0.000000000
 11
119.959442831
 21
20.862426969
 31
0.000000000
  0
LINE
  5
AB6
330
A02
100
AcDbEntity
  8
Arm_8mm
100
AcDbLine
 10
119.959442831
 20
20.862426969
 30
0.000000000
 11
119.109179027
 21
20.586159512
 31
0.000000000
  0
LINE
  5
AB7
330
A02
100
AcDbEntity
  8
Arm_8mm
100
AcDbLine
 10
119.109179027
 20
20.586159512
 30
0.000000000
 11
118.220056293
 21
20.679610077
 31
0.000000000
  0
LINE
  5
AB8
330
A02
100
AcDbEntity
  8
Arm_8mm
100
AcDbLine
 10
118.220056293
 20
20.679610077
 30
0.000000000
 11
117.445812027
 21
21.126620212
 31
0.000000000
  0
LINE
  5
AB9
330
A02
100
AcDbEntity
  8
Arm_8mm
100
AcDbLine
 10
117.445812027
 20
21.126620212
 30
0.000000000
 11
116.920320097
 21
21.849897805
 31
0.000000000
  0
LINE
  5
ABA
330
A02
100
AcDbEntity
  8
Arm_8mm
100
AcDbLine
 10
116.920320097
 20
21.849897805
 30
0.000000000
 11
116.734442831
 21
22.724381587
 31
0.000000000
  0
LINE
  5
ABB
330
A02
100
AcDbEntity
  8
Arm_8mm
100
AcDbLine
 10
117.384442831
 20
22.724381587
 30
0.000000000
 11
117.556258793
 21
22.027296829
 31
0.000000000
  0
LINE
  5
ABC
330
A02
100
AcDbEntity
  8
Arm_8mm
100
AcDbLine
 10
117.556258793
 20
22.027296829
 30
0.000000000
 11
118.032345711
 21
21.489905788
 31
0.000000000
  0
LINE
  5
ABD
330
A02
100
AcDbEntity
  8
Arm_8mm
100
AcDbLine
 10
118.032345711
 20
21.489905788
 30
0.000000000
 11
118.703637811
 21
21.235318276
 31
0.000000000
  0
LINE
  5
ABE
330
A02
100
AcDbEntity
  8
Arm_8mm
100
AcDbLine
 10
118.703637811
 20
21.235318276
 30
0.000000000
 11
119.416350162
 21
21.321857223
 31
0.000000000
  0
LINE
  5
ABF
330
A02
100
AcDbEntity
  8
Arm_8mm
100
AcDbLine
 10
119.416350162
 20
21.321857223
 30
0.000000000
 11
120.007208953
 21
21.729697600
 31
0.000000000
  0
LINE
  5
AC0
330
A02
100
AcDbEntity
  8
Arm_8mm
100
AcDbLine
 10
120.007208953
 20
21.729697600
 30
0.000000000
 11
120.340855557
 21
22.365408091
 31
0.000000000
  0
LINE
  5
AC1
330
A02
100
AcDbEntity
  8
Arm_8mm
100
AcDbLine
 10
120.340855557
 20
22.365408091
 30
0.000000000
 11
120.340855557
 21
23.083355084
 31
0.000000000
  0
LINE
  5
AC2
330
A02
100
AcDbEntity
  8
Arm_8mm
100
AcDbLine
 10
120.340855557
 20
23.083355084
 30
0.000000000
 11
120.007208953
 21
23.719065575
 31
0.000000000
  0
LINE
  5
AC3
330
A02
100
AcDbEntity
  8
Arm_8mm
100
AcDbLine
 10
120.007208953
 20
23.719065575
 30
0.000000000
 11
119.416350162
 21
24.126905951
 31
0.000000000
  0
LINE
  5
AC4
330
A02
100
AcDbEntity
  8
Arm_8mm
100
AcDbLine
 10
119.416350162
 20
24.126905951
 30
0.000000000
 11
118.703637811
 21
24.213444898
 31
0.000000000
  0
LINE
  5
AC5
330
A02
100
AcDbEntity
  8
Arm_8mm
100
AcDbLine
 10
118.703637811
 20
24.213444898
 30
0.000000000
 11
118.032345711
 21
23.958857386
 31
0.000000000
  0
LINE
  5
AC6
330
A02
100
AcDbEntity
  8
Arm_8mm
100
AcDbLine
 10
118.032345711
 20
23.958857386
 30
0.000000000
 11
117.556258793
 21
23.421466345
 31
0.000000000
  0
LINE
  5
AC7
330
A02
100
AcDbEntity
  8
Arm_8mm
100
AcDbLine
 10
117.556258793
 20
23.421466345
 30
0.000000000
 11
117.384442831
 21
22.724381587
 31
0.000000000
  0
LINE
  5
AC8
330
A02
100
AcDbEntity
  8
Arm_8mm
100
AcDbLine
 10
131.627898575
 20
11.224349479
 30
0.000000000
 11
131.813775841
 21
12.098833262
 31
0.000000000
  0
LINE
  5
AC9
330
A02
100
AcDbEntity
  8
Arm_8mm
100
AcDbLine
 10
131.813775841
 20
12.098833262
 30
0.000000000
 11
132.339267771
 21
12.822110854
 31
0.000000000
  0
LINE
  5
ACA
330
A02
100
AcDbEntity
  8
Arm_8mm
100
AcDbLine
 10
132.339267771
 20
12.822110854
 30
0.000000000
 11
133.113512037
 21
13.269120989
 31
0.000000000
  0
LINE
  5
ACB
330
A02
100
AcDbEntity
  8
Arm_8mm
100
AcDbLine
 10
133.113512037
 20
13.269120989
 30
0.000000000
 11
134.002634771
 21
13.362571554
 31
0.000000000
  0
LINE
  5
ACC
330
A02
100
AcDbEntity
  8
Arm_8mm
100
AcDbLine
 10
134.002634771
 20
13.362571554
 30
0.000000000
 11
134.852898575
 21
13.086304097
 31
0.000000000
  0
LINE
  5
ACD
330
A02
100
AcDbEntity
  8
Arm_8mm
100
AcDbLine
 10
134.852898575
 20
13.086304097
 30
0.000000000
 11
135.517285113
 21
12.488087772
 31
0.000000000
  0
LINE
  5
ACE
330
A02
100
AcDbEntity
  8
Arm_8mm
100
AcDbLine
 10
135.517285113
 20
12.488087772
 30
0.000000000
 11
135.880915916
 21
11.671359615
 31
0.000000000
  0
LINE
  5
ACF
330
A02
100
AcDbEntity
  8
Arm_8mm
100
AcDbLine
 10
135.880915916
 20
11.671359615
 30
0.000000000
 11
135.880915916
 21
10.777339344
 31
0.000000000
  0
LINE
  5
AD0
330
A02
100
AcDbEntity
  8
Arm_8mm
100
AcDbLine
 10
135.880915916
 20
10.777339344
 30
0.000000000
 11
135.517285113
 21
9.960611187
 31
0.000000000
  0
LINE
  5
AD1
330
A02
100
AcDbEntity
  8
Arm_8mm
100
AcDbLine
 10
135.517285113
 20
9.960611187
 30
0.000000000
 11
134.852898575
 21
9.362394861
 31
0.000000000
  0
LINE
  5
AD2
330
A02
100
AcDbEntity
  8
Arm_8mm
100
AcDbLine
 10
134.852898575
 20
9.362394861
 30
0.000000000
 11
134.002634771
 21
9.086127404
 31
0.000000000
  0
LINE
  5
AD3
330
A02
100
AcDbEntity
  8
Arm_8mm
100
AcDbLine
 10
134.002634771
 20
9.086127404
 30
0.000000000
 11
133.113512037
 21
9.179577969
 31
0.000000000
  0
LINE
  5
AD4
330
A02
100
AcDbEntity
  8
Arm_8mm
100
AcDbLine
 10
133.113512037
 20
9.179577969
 30
0.000000000
 11
132.339267771
 21
9.626588105
 31
0.000000000
  0
LINE
  5
AD5
330
A02
100
AcDbEntity
  8
Arm_8mm
100
AcDbLine
 10
132.339267771
 20
9.626588105
 30
0.000000000
 11
131.813775841
 21
10.349865697
 31
0.000000000
  0
LINE
  5
AD6
330
A02
100
AcDbEntity
  8
Arm_8mm
100
AcDbLine
 10
131.813775841
 20
10.349865697
 30
0.000000000
 11
131.627898575
 21
11.224349479
 31
0.000000000
  0
LINE
  5
AD7
330
A02
100
AcDbEntity
  8
Arm_8mm
100
AcDbLine
 10
132.277898575
 20
11.224349479
 30
0.000000000
 11
132.449714536
 21
10.527264721
 31
0.000000000
  0
LINE
  5
AD8
330
A02
100
AcDbEntity
  8
Arm_8mm
100
AcDbLine
 10
132.449714536
 20
10.527264721
 30
0.000000000
 11
132.925801455
 21
9.989873680
 31
0.000000000
  0
LINE
  5
AD9
330
A02
100
AcDbEntity
  8
Arm_8mm
100
AcDbLine
 10
132.925801455
 20
9.989873680
 30
0.000000000
 11
133.597093554
 21
9.735286168
 31
0.000000000
  0
LINE
  5
ADA
330
A02
100
AcDbEntity
  8
Arm_8mm
100
AcDbLine
 10
133.597093554
 20
9.735286168
 30
0.000000000
 11
134.309805905
 21
9.821825115
 31
0.000000000
  0
LINE
  5
ADB
330
A02
100
AcDbEntity
  8
Arm_8mm
100
AcDbLine
 10
134.309805905
 20
9.821825115
 30
0.000000000
 11
134.900664697
 21
10.229665492
 31
0.000000000
  0
LINE
  5
ADC
330
A02
100
AcDbEntity
  8
Arm_8mm
100
AcDbLine
 10
134.900664697
 20
10.229665492
 30
0.000000000
 11
135.234311301
 21
10.865375983
 31
0.000000000
  0
LINE
  5
ADD
330
A02
100
AcDbEntity
  8
Arm_8mm
100
AcDbLine
 10
135.234311301
 20
10.865375983
 30
0.000000000
 11
135.234311301
 21
11.583322976
 31
0.000000000
  0
LINE
  5
ADE
330
A02
100
AcDbEntity
  8
Arm_8mm
100
AcDbLine
 10
135.234311301
 20
11.583322976
 30
0.000000000
 11
134.900664697
 21
12.219033467
 31
0.000000000
  0
LINE
  5
ADF
330
A02
100
AcDbEntity
  8
Arm_8mm
100
AcDbLine
 10
134.900664697
 20
12.219033467
 30
0.000000000
 11
134.309805905
 21
12.626873843
 31
0.000000000
  0
LINE
  5
AE0
330
A02
100
AcDbEntity
  8
Arm_8mm
100
AcDbLine
 10
134.309805905
 20
12.626873843
 30
0.000000000
 11
133.597093554
 21
12.713412790
 31
0.000000000
  0
LINE
  5
AE1
330
A02
100
AcDbEntity
  8
Arm_8mm
100
AcDbLine
 10
133.597093554
 20
12.713412790
 30
0.000000000
 11
132.925801455
 21
12.458825278
 31
0.000000000
  0
LINE
  5
AE2
330
A02
100
AcDbEntity
  8
Arm_8mm
100
AcDbLine
 10
132.925801455
 20
12.458825278
 30
0.000000000
 11
132.449714536
 21
11.921434237
 31
0.000000000
  0
LINE
  5
AE3
330
A02
100
AcDbEntity
  8
Arm_8mm
100
AcDbLine
 10
132.449714536
 20
11.921434237
 30
0.000000000
 11
132.277898575
 21
11.224349479
 31
0.000000000
  0
ENDSEC
  0
SECTION
  2
OBJECTS
  0
DICTIONARY
  5
F000
330
0
100
AcDbDictionary
  3
ACAD_GROUP
350
F001
  0
DICTIONARY
  5
F001
330
F000
100
AcDbDictionary
  0
ENDSEC
  0
EOF