999
FreeCAD v1.1 20260414 (Git shallow)
  0
SECTION
  2
HEADER
  9
$ACADVER
  1
AC1014
  9
$ACADMAINTVER
 70
     9
  9
$DWGCODEPAGE
  3
ANSI_1252
  9
$TEXTSTYLE
  7
STANDARD
  9
$DIMSTYLE
  2
STANDARD
  9
$DIMTXSTY
  7
STANDARD
  9
$CMLSTYLE
  2
STANDARD
  9
$LUNITS
 70
2
  9
$INSUNITS
 70
4
  9
$PEXTMAX
 10
50
 20
50
 30
50
  9
$PEXTMIN
 10
0
 20
0
 30
0
  9
$HANDSEED
  5
FFFF
  0
ENDSEC
  0
SECTION
  2
CLASSES
  0
CLASS
  1
ACDBDICTIONARYWDFLT
  2
AcDbDictionaryWithDefault
  3
ObjectDBX Classes
 90
        0
280
     0
281
     0
  0
CLASS
  1
XRECORD
  2
AcDbXrecord
  3
ObjectDBX Classes
 90
        0
280
     0
281
     0
  0
CLASS
  1
LWPOLYLINE
  2
AcDbPolyline
  3
ObjectDBX Classes
 90
        0
280
     0
281
     1
  0
ENDSEC
  0
SECTION
  2
TABLES
  0
TABLE
  2
VPORT
  5
20
330
0
100
AcDbSymbolTable
 70
     1
  0
VPORT
  5
21
330
20
100
AcDbSymbolTableRecord
100
AcDbViewportTableRecord
  2
*ACTIVE
 70
     0
  0
ENDTAB
  0
TABLE
  2
LTYPE
  5
22
330
0
100
AcDbSymbolTable
 70
     1
  0
LTYPE
  5
23
330
21
100
AcDbSymbolTableRecord
100
AcDbLinetypeTableRecord
  2
BYBLOCK
 70
     0
  3

 72
    65
 73
     0
 40
0.0
  0
LTYPE
  5
24
330
21
100
AcDbSymbolTableRecord
100
AcDbLinetypeTableRecord
  2
BYLAYER
 70
     0
  3

 72
    65
 73
     0
 40
0.0
  0
LTYPE
  5
25
330
21
100
AcDbSymbolTableRecord
100
AcDbLinetypeTableRecord
  2
CONTINUOUS
 70
     0
  3
Solid line
 72
    65
 73
     0
 40
0.0
  0
ENDTAB
  0
TABLE
  2
LAYER
  5
DBE
330
0
100
AcDbSymbolTable
 70
3
  0
LAYER
  5
DBF
330
DBE
100
AcDbSymbolTableRecord
100
AcDbLayerTableRecord
  2
0
 70
   0
 62
   7
  6
CONTINUOUS
  0
LAYER
  5
DC0
330
DBE
100
AcDbSymbolTableRecord
100
AcDbLayerTableRecord
  2
none
 70
    0
 62
    7
  6
CONTINUOUS
  0
LAYER
  5
DC1
330
DBE
100
AcDbSymbolTableRecord
100
AcDbLayerTableRecord
  2
Bottom_plate_3mm
 70
    0
 62
    7
  6
CONTINUOUS
  0
ENDTAB
  0
TABLE
  2
STYLE
  5
70
330
0
100
AcDbSymbolTable
 70
     2
  0
STYLE
  5
71
330
70
100
AcDbSymbolTableRecord
100
AcDbTextStyleTableRecord
  2
STANDARD
 70
     0
 40
0.0
 41
1.0
 50
0.0
 71
     0
 42
2.5
  3
arial.ttf
  4

  0
STYLE
  5
72
330
70
100
AcDbSymbolTableRecord
100
AcDbTextStyleTableRecord
  2
ANNOTATIVE
 70
     0
 40
0.0
 41
1.0
 50
0.0
 71
     0
 42
2.5
  3
arial.ttf
  4

  0
ENDTAB
  0
TABLE
  2
VIEW
  5
73
330
0
100
AcDbSymbolTable
 70
     0
  0
ENDTAB
  0
TABLE
  2
UCS
  5
74
330
0
100
AcDbSymbolTable
 70
     0
  0
ENDTAB
  0
TABLE
  2
APPID
  5
75
330
0
100
AcDbSymbolTable
 70
     2
  0
APPID
  5
76
330
75
100
AcDbSymbolTableRecord
100
AcDbRegAppTableRecord
  2
ACAD
 70
     0
  0
APPID
  5
77
330
75
100
AcDbSymbolTableRecord
100
AcDbRegAppTableRecord
  2
ACADANNOTATIVE
 70
     0
  0
ENDTAB
  0
TABLE
  2
DIMSTYLE
  5
78
330
0
100
AcDbSymbolTable
 70
     2
  0
DIMSTYLE
105
79
330
78
100
AcDbSymbolTableRecord
100
AcDbDimStyleTableRecord
  2
STANDARD
 70
     0
  3

  4

  5

  6

  7

 40
0.0
 41
2.5
 42
0.625
 43
3.75
 44
1.25
 45
0.0
 46
0.0
 47
0.0
 48
0.0
140
2.5
141
2.5
142
0.0
143
0.03937007874016
144
1.0
145
0.0
146
1.0
147
0.625
 71
     0
 72
     0
 73
     0
 74
     0
 75
     0
 76
     0
 77
     1
 78
     8
170
     0
171
     3
172
     1
173
     0
174
     0
175
     0
176
     0
177
     0
178
     0
270
     2
271
     2
272
     2
273
     2
274
     3
340
71
275
     0
280
     0
281
     0
282
     0
283
     0
284
     8
285
     0
286
     0
287
     3
288
     0
  0
ENDTAB
  0
TABLE
  2
BLOCK_RECORD
  5
A01
330
0
100
AcDbSymbolTable
  70
5
  0
BLOCK_RECORD
  5
A02
330
A01
100
AcDbSymbolTableRecord
100
AcDbBlockTableRecord
  2
*MODEL_SPACE
  0
BLOCK_RECORD
  5
A03
330
A01
100
AcDbSymbolTableRecord
100
AcDbBlockTableRecord
  2
*PAPER_SPACE
  0
ENDTAB
  0
ENDSEC
  0
SECTION
  2
BLOCKS
  0
BLOCK
  5
A04
330
A02
100
AcDbEntity
  8
0
100
AcDbBlockBegin
  2
*MODEL_SPACE
 70
   0
 10
0
 20
0
 30
0
  3
*MODEL_SPACE
  1
 
  0
ENDBLK
  5
A05
330
A02
100
AcDbEntity
  8
0
100
AcDbBlockEnd
  0
BLOCK
  5
A06
330
A03
100
AcDbEntity
 67
1
  8
0
100
AcDbBlockBegin
  2
*PAPER_SPACE
 70
   0
 10
0
 20
0
 30
0
  3
*PAPER_SPACE
  1
 
  0
ENDBLK
  5
A07
330
A03
100
AcDbEntity
 67
    1
  8
0
100
AcDbBlockEnd
  0
ENDSEC
  0
SECTION
  2
ENTITIES
  0
LINE
  5
A08
330
A02
100
AcDbEntity
  8
Bottom_plate_3mm
100
AcDbLine
 10
63.350049253
 20
218.716693313
 30
0.000000000
 11
62.879821046
 21
218.869479722
 31
0.000000000
  0
LINE
  5
A09
330
A02
100
AcDbEntity
  8
Bottom_plate_3mm
100
AcDbLine
 10
62.879821046
 20
218.869479722
 30
0.000000000
 11
62.589204036
 21
219.269479731
 31
0.000000000
  0
LINE
  5
A0A
330
A02
100
AcDbEntity
  8
Bottom_plate_3mm
100
AcDbLine
 10
62.589204036
 20
219.269479731
 30
0.000000000
 11
62.589204047
 21
219.763906929
 31
0.000000000
  0
LINE
  5
A0B
330
A02
100
AcDbEntity
  8
Bottom_plate_3mm
100
AcDbLine
 10
62.589204047
 20
219.763906929
 30
0.000000000
 11
62.879821075
 21
220.163906926
 31
0.000000000
  0
LINE
  5
A0C
330
A02
100
AcDbEntity
  8
Bottom_plate_3mm
100
AcDbLine
 10
62.879821075
 20
220.163906926
 30
0.000000000
 11
63.350049290
 21
220.316693313
 31
0.000000000
  0
LINE
  5
A0D
330
A02
100
AcDbEntity
  8
Bottom_plate_3mm
100
AcDbLine
 10
63.350049253
 20
218.716693313
 30
0.000000000
 11
66.470049290
 21
218.716693313
 31
0.000000000
  0
LINE
  5
A0E
330
A02
100
AcDbEntity
  8
Bottom_plate_3mm
100
AcDbLine
 10
63.350049290
 20
220.899335216
 30
0.000000000
 11
63.350049290
 21
220.316693313
 31
0.000000000
  0
LINE
  5
A0F
330
A02
100
AcDbEntity
  8
Bottom_plate_3mm
100
AcDbLine
 10
59.469779467
 20
221.998300747
 30
0.000000000
 11
63.350049290
 21
220.899335216
 31
0.000000000
  0
LINE
  5
A10
330
A02
100
AcDbEntity
  8
Bottom_plate_3mm
100
AcDbLine
 10
58.924778268
 20
222.073989521
 30
0.000000000
 11
59.469779467
 21
221.998300747
 31
0.000000000
  0
LINE
  5
A11
330
A02
100
AcDbEntity
  8
Bottom_plate_3mm
100
AcDbLine
 10
48.015320314
 20
222.073989521
 30
0.000000000
 11
58.924778268
 21
222.073989521
 31
0.000000000
  0
LINE
  5
A12
330
A02
100
AcDbEntity
  8
Bottom_plate_3mm
100
AcDbLine
 10
47.470319115
 20
221.998300747
 30
0.000000000
 11
48.015320314
 21
222.073989521
 31
0.000000000
  0
LINE
  5
A13
330
A02
100
AcDbEntity
  8
Bottom_plate_3mm
100
AcDbLine
 10
43.590049292
 20
220.899335216
 30
0.000000000
 11
47.470319115
 21
221.998300747
 31
0.000000000
  0
LINE
  5
A14
330
A02
100
AcDbEntity
  8
Bottom_plate_3mm
100
AcDbLine
 10
43.590049292
 20
220.316693313
 30
0.000000000
 11
43.590049292
 21
220.899335216
 31
0.000000000
  0
LINE
  5
A15
330
A02
100
AcDbEntity
  8
Bottom_plate_3mm
100
AcDbLine
 10
67.270049290
 20
220.239210197
 30
0.000000000
 11
71.103897517
 21
218.961282373
 31
0.000000000
  0
LINE
  5
A16
330
A02
100
AcDbEntity
  8
Bottom_plate_3mm
100
AcDbLine
 10
67.270049290
 20
219.516693313
 30
0.000000000
 11
67.270049290
 21
220.239210197
 31
0.000000000
  0
LINE
  5
A17
330
A02
100
AcDbEntity
  8
Bottom_plate_3mm
100
AcDbLine
 10
71.103897517
 20
218.961282373
 30
0.000000000
 11
71.598915262
 21
218.597309813
 31
0.000000000
  0
LINE
  5
A18
330
A02
100
AcDbEntity
  8
Bottom_plate_3mm
100
AcDbLine
 10
71.598915262
 20
218.597309813
 30
0.000000000
 11
71.787674558
 21
218.012597473
 31
0.000000000
  0
LINE
  5
A19
330
A02
100
AcDbEntity
  8
Bottom_plate_3mm
100
AcDbLine
 10
67.270049290
 20
219.516693313
 30
0.000000000
 11
67.162869613
 21
219.116693313
 31
0.000000000
  0
LINE
  5
A1A
330
A02
100
AcDbEntity
  8
Bottom_plate_3mm
100
AcDbLine
 10
67.162869613
 20
219.116693313
 30
0.000000000
 11
66.870049290
 21
218.823872990
 31
0.000000000
  0
LINE
  5
A1B
330
A02
100
AcDbEntity
  8
Bottom_plate_3mm
100
AcDbLine
 10
66.870049290
 20
218.823872990
 30
0.000000000
 11
66.470049290
 21
218.716693313
 31
0.000000000
  0
LINE
  5
A1C
330
A02
100
AcDbEntity
  8
Bottom_plate_3mm
100
AcDbLine
 10
40.470049292
 20
218.716693313
 30
0.000000000
 11
40.070049292
 21
218.823872990
 31
0.000000000
  0
LINE
  5
A1D
330
A02
100
AcDbEntity
  8
Bottom_plate_3mm
100
AcDbLine
 10
40.070049292
 20
218.823872990
 30
0.000000000
 11
39.777228968
 21
219.116693313
 31
0.000000000
  0
LINE
  5
A1E
330
A02
100
AcDbEntity
  8
Bottom_plate_3mm
100
AcDbLine
 10
39.777228968
 20
219.116693313
 30
0.000000000
 11
39.670049292
 21
219.516693313
 31
0.000000000
  0
LINE
  5
A1F
330
A02
100
AcDbEntity
  8
Bottom_plate_3mm
100
AcDbLine
 10
40.470049292
 20
218.716693313
 30
0.000000000
 11
43.590049327
 21
218.716693313
 31
0.000000000
  0
LINE
  5
A20
330
A02
100
AcDbEntity
  8
Bottom_plate_3mm
100
AcDbLine
 10
39.670049292
 20
220.239210197
 30
0.000000000
 11
39.670049292
 21
219.516693313
 31
0.000000000
  0
LINE
  5
A21
330
A02
100
AcDbEntity
  8
Bottom_plate_3mm
100
AcDbLine
 10
67.070049291
 20
45.484104954
 30
0.000000000
 11
66.907713736
 21
44.984487490
 31
0.000000000
  0
LINE
  5
A22
330
A02
100
AcDbEntity
  8
Bottom_plate_3mm
100
AcDbLine
 10
66.907713736
 20
44.984487490
 30
0.000000000
 11
66.482713736
 21
44.675706915
 31
0.000000000
  0
LINE
  5
A23
330
A02
100
AcDbEntity
  8
Bottom_plate_3mm
100
AcDbLine
 10
66.482713736
 20
44.675706915
 30
0.000000000
 11
65.957384846
 21
44.675706915
 31
0.000000000
  0
LINE
  5
A24
330
A02
100
AcDbEntity
  8
Bottom_plate_3mm
100
AcDbLine
 10
65.957384846
 20
44.675706915
 30
0.000000000
 11
65.532384846
 21
44.984487490
 31
0.000000000
  0
LINE
  5
A25
330
A02
100
AcDbEntity
  8
Bottom_plate_3mm
100
AcDbLine
 10
65.532384846
 20
44.984487490
 30
0.000000000
 11
65.370049291
 21
45.484104954
 31
0.000000000
  0
LINE
  5
A26
330
A02
100
AcDbEntity
  8
Bottom_plate_3mm
100
AcDbLine
 10
65.370049291
 20
45.484104954
 30
0.000000000
 11
65.532384846
 21
45.983722419
 31
0.000000000
  0
LINE
  5
A27
330
A02
100
AcDbEntity
  8
Bottom_plate_3mm
100
AcDbLine
 10
65.532384846
 20
45.983722419
 30
0.000000000
 11
65.957384846
 21
46.292502993
 31
0.000000000
  0
LINE
  5
A28
330
A02
100
AcDbEntity
  8
Bottom_plate_3mm
100
AcDbLine
 10
65.957384846
 20
46.292502993
 30
0.000000000
 11
66.482713736
 21
46.292502993
 31
0.000000000
  0
LINE
  5
A29
330
A02
100
AcDbEntity
  8
Bottom_plate_3mm
100
AcDbLine
 10
66.482713736
 20
46.292502993
 30
0.000000000
 11
66.907713736
 21
45.983722419
 31
0.000000000
  0
LINE
  5
A2A
330
A02
100
AcDbEntity
  8
Bottom_plate_3mm
100
AcDbLine
 10
66.907713736
 20
45.983722419
 30
0.000000000
 11
67.070049291
 21
45.484104954
 31
0.000000000
  0
LINE
  5
A2B
330
A02
100
AcDbEntity
  8
Bottom_plate_3mm
100
AcDbLine
 10
41.570049291
 20
45.484104954
 30
0.000000000
 11
41.407713736
 21
44.984487490
 31
0.000000000
  0
LINE
  5
A2C
330
A02
100
AcDbEntity
  8
Bottom_plate_3mm
100
AcDbLine
 10
41.407713736
 20
44.984487490
 30
0.000000000
 11
40.982713736
 21
44.675706915
 31
0.000000000
  0
LINE
  5
A2D
330
A02
100
AcDbEntity
  8
Bottom_plate_3mm
100
AcDbLine
 10
40.982713736
 20
44.675706915
 30
0.000000000
 11
40.457384846
 21
44.675706915
 31
0.000000000
  0
LINE
  5
A2E
330
A02
100
AcDbEntity
  8
Bottom_plate_3mm
100
AcDbLine
 10
40.457384846
 20
44.675706915
 30
0.000000000
 11
40.032384846
 21
44.984487490
 31
0.000000000
  0
LINE
  5
A2F
330
A02
100
AcDbEntity
  8
Bottom_plate_3mm
100
AcDbLine
 10
40.032384846
 20
44.984487490
 30
0.000000000
 11
39.870049291
 21
45.484104954
 31
0.000000000
  0
LINE
  5
A30
330
A02
100
AcDbEntity
  8
Bottom_plate_3mm
100
AcDbLine
 10
39.870049291
 20
45.484104954
 30
0.000000000
 11
40.032384846
 21
45.983722419
 31
0.000000000
  0
LINE
  5
A31
330
A02
100
AcDbEntity
  8
Bottom_plate_3mm
100
AcDbLine
 10
40.032384846
 20
45.983722419
 30
0.000000000
 11
40.457384846
 21
46.292502993
 31
0.000000000
  0
LINE
  5
A32
330
A02
100
AcDbEntity
  8
Bottom_plate_3mm
100
AcDbLine
 10
40.457384846
 20
46.292502993
 30
0.000000000
 11
40.982713736
 21
46.292502993
 31
0.000000000
  0
LINE
  5
A33
330
A02
100
AcDbEntity
  8
Bottom_plate_3mm
100
AcDbLine
 10
40.982713736
 20
46.292502993
 30
0.000000000
 11
41.407713736
 21
45.983722419
 31
0.000000000
  0
LINE
  5
A34
330
A02
100
AcDbEntity
  8
Bottom_plate_3mm
100
AcDbLine
 10
41.407713736
 20
45.983722419
 30
0.000000000
 11
41.570049291
 21
45.484104954
 31
0.000000000
  0
LINE
  5
A35
330
A02
100
AcDbEntity
  8
Bottom_plate_3mm
100
AcDbLine
 10
44.570049291
 20
68.234104954
 30
0.000000000
 11
44.395428177
 21
67.639400055
 31
0.000000000
  0
LINE
  5
A36
330
A02
100
AcDbEntity
  8
Bottom_plate_3mm
100
AcDbLine
 10
44.395428177
 20
67.639400055
 30
0.000000000
 11
43.927005805
 21
67.233509759
 31
0.000000000
  0
LINE
  5
A37
330
A02
100
AcDbEntity
  8
Bottom_plate_3mm
100
AcDbLine
 10
43.927005805
 20
67.233509759
 30
0.000000000
 11
43.313502969
 21
67.145301368
 31
0.000000000
  0
LINE
  5
A38
330
A02
100
AcDbEntity
  8
Bottom_plate_3mm
100
AcDbLine
 10
43.313502969
 20
67.145301368
 30
0.000000000
 11
42.749702483
 21
67.402780422
 31
0.000000000
  0
LINE
  5
A39
330
A02
100
AcDbEntity
  8
Bottom_plate_3mm
100
AcDbLine
 10
42.749702483
 20
67.402780422
 30
0.000000000
 11
42.414607020
 21
67.924199142
 31
0.000000000
  0
LINE
  5
A3A
330
A02
100
AcDbEntity
  8
Bottom_plate_3mm
100
AcDbLine
 10
42.414607020
 20
67.924199142
 30
0.000000000
 11
42.414607020
 21
68.544010767
 31
0.000000000
  0
LINE
  5
A3B
330
A02
100
AcDbEntity
  8
Bottom_plate_3mm
100
AcDbLine
 10
42.414607020
 20
68.544010767
 30
0.000000000
 11
42.749702483
 21
69.065429486
 31
0.000000000
  0
LINE
  5
A3C
330
A02
100
AcDbEntity
  8
Bottom_plate_3mm
100
AcDbLine
 10
42.749702483
 20
69.065429486
 30
0.000000000
 11
43.313502969
 21
69.322908540
 31
0.000000000
  0
LINE
  5
A3D
330
A02
100
AcDbEntity
  8
Bottom_plate_3mm
100
AcDbLine
 10
43.313502969
 20
69.322908540
 30
0.000000000
 11
43.927005805
 21
69.234700149
 31
0.000000000
  0
LINE
  5
A3E
330
A02
100
AcDbEntity
  8
Bottom_plate_3mm
100
AcDbLine
 10
43.927005805
 20
69.234700149
 30
0.000000000
 11
44.395428177
 21
68.828809853
 31
0.000000000
  0
LINE
  5
A3F
330
A02
100
AcDbEntity
  8
Bottom_plate_3mm
100
AcDbLine
 10
44.395428177
 20
68.828809853
 30
0.000000000
 11
44.570049291
 21
68.234104954
 31
0.000000000
  0
LINE
  5
A40
330
A02
100
AcDbEntity
  8
Bottom_plate_3mm
100
AcDbLine
 10
41.570049291
 20
70.984104954
 30
0.000000000
 11
41.407713736
 21
70.484487490
 31
0.000000000
  0
LINE
  5
A41
330
A02
100
AcDbEntity
  8
Bottom_plate_3mm
100
AcDbLine
 10
41.407713736
 20
70.484487490
 30
0.000000000
 11
40.982713736
 21
70.175706915
 31
0.000000000
  0
LINE
  5
A42
330
A02
100
AcDbEntity
  8
Bottom_plate_3mm
100
AcDbLine
 10
40.982713736
 20
70.175706915
 30
0.000000000
 11
40.457384846
 21
70.175706915
 31
0.000000000
  0
LINE
  5
A43
330
A02
100
AcDbEntity
  8
Bottom_plate_3mm
100
AcDbLine
 10
40.457384846
 20
70.175706915
 30
0.000000000
 11
40.032384846
 21
70.484487490
 31
0.000000000
  0
LINE
  5
A44
330
A02
100
AcDbEntity
  8
Bottom_plate_3mm
100
AcDbLine
 10
40.032384846
 20
70.484487490
 30
0.000000000
 11
39.870049291
 21
70.984104954
 31
0.000000000
  0
LINE
  5
A45
330
A02
100
AcDbEntity
  8
Bottom_plate_3mm
100
AcDbLine
 10
39.870049291
 20
70.984104954
 30
0.000000000
 11
40.032384846
 21
71.483722419
 31
0.000000000
  0
LINE
  5
A46
330
A02
100
AcDbEntity
  8
Bottom_plate_3mm
100
AcDbLine
 10
40.032384846
 20
71.483722419
 30
0.000000000
 11
40.457384846
 21
71.792502993
 31
0.000000000
  0
LINE
  5
A47
330
A02
100
AcDbEntity
  8
Bottom_plate_3mm
100
AcDbLine
 10
40.457384846
 20
71.792502993
 30
0.000000000
 11
40.982713736
 21
71.792502993
 31
0.000000000
  0
LINE
  5
A48
330
A02
100
AcDbEntity
  8
Bottom_plate_3mm
100
AcDbLine
 10
40.982713736
 20
71.792502993
 30
0.000000000
 11
41.407713736
 21
71.483722419
 31
0.000000000
  0
LINE
  5
A49
330
A02
100
AcDbEntity
  8
Bottom_plate_3mm
100
AcDbLine
 10
41.407713736
 20
71.483722419
 30
0.000000000
 11
41.570049291
 21
70.984104954
 31
0.000000000
  0
LINE
  5
A4A
330
A02
100
AcDbEntity
  8
Bottom_plate_3mm
100
AcDbLine
 10
65.939955888
 20
124.179833938
 30
0.000000000
 11
65.768139926
 21
123.482749180
 31
0.000000000
  0
LINE
  5
A4B
330
A02
100
AcDbEntity
  8
Bottom_plate_3mm
100
AcDbLine
 10
65.768139926
 20
123.482749180
 30
0.000000000
 11
65.292053008
 21
122.945358139
 31
0.000000000
  0
LINE
  5
A4C
330
A02
100
AcDbEntity
  8
Bottom_plate_3mm
100
AcDbLine
 10
65.292053008
 20
122.945358139
 30
0.000000000
 11
64.620760908
 21
122.690770627
 31
0.000000000
  0
LINE
  5
A4D
330
A02
100
AcDbEntity
  8
Bottom_plate_3mm
100
AcDbLine
 10
64.620760908
 20
122.690770627
 30
0.000000000
 11
63.908048557
 21
122.777309574
 31
0.000000000
  0
LINE
  5
A4E
330
A02
100
AcDbEntity
  8
Bottom_plate_3mm
100
AcDbLine
 10
63.908048557
 20
122.777309574
 30
0.000000000
 11
63.317189766
 21
123.185149951
 31
0.000000000
  0
LINE
  5
A4F
330
A02
100
AcDbEntity
  8
Bottom_plate_3mm
100
AcDbLine
 10
63.317189766
 20
123.185149951
 30
0.000000000
 11
62.983543162
 21
123.820860442
 31
0.000000000
  0
LINE
  5
A50
330
A02
100
AcDbEntity
  8
Bottom_plate_3mm
100
AcDbLine
 10
62.983543162
 20
123.820860442
 30
0.000000000
 11
62.983543162
 21
124.538807435
 31
0.000000000
  0
LINE
  5
A51
330
A02
100
AcDbEntity
  8
Bottom_plate_3mm
100
AcDbLine
 10
62.983543162
 20
124.538807435
 30
0.000000000
 11
63.317189766
 21
125.174517926
 31
0.000000000
  0
LINE
  5
A52
330
A02
100
AcDbEntity
  8
Bottom_plate_3mm
100
AcDbLine
 10
63.317189766
 20
125.174517926
 30
0.000000000
 11
63.908048557
 21
125.582358302
 31
0.000000000
  0
LINE
  5
A53
330
A02
100
AcDbEntity
  8
Bottom_plate_3mm
100
AcDbLine
 10
63.908048557
 20
125.582358302
 30
0.000000000
 11
64.620760908
 21
125.668897249
 31
0.000000000
  0
LINE
  5
A54
330
A02
100
AcDbEntity
  8
Bottom_plate_3mm
100
AcDbLine
 10
64.620760908
 20
125.668897249
 30
0.000000000
 11
65.292053008
 21
125.414309737
 31
0.000000000
  0
LINE
  5
A55
330
A02
100
AcDbEntity
  8
Bottom_plate_3mm
100
AcDbLine
 10
65.292053008
 20
125.414309737
 30
0.000000000
 11
65.768139926
 21
124.876918696
 31
0.000000000
  0
LINE
  5
A56
330
A02
100
AcDbEntity
  8
Bottom_plate_3mm
100
AcDbLine
 10
65.768139926
 20
124.876918696
 30
0.000000000
 11
65.939955888
 21
124.179833938
 31
0.000000000
  0
LINE
  5
A57
330
A02
100
AcDbEntity
  8
Bottom_plate_3mm
100
AcDbLine
 10
80.833411632
 20
135.679866046
 30
0.000000000
 11
80.661595670
 21
134.982781288
 31
0.000000000
  0
LINE
  5
A58
330
A02
100
AcDbEntity
  8
Bottom_plate_3mm
100
AcDbLine
 10
80.661595670
 20
134.982781288
 30
0.000000000
 11
80.185508752
 21
134.445390247
 31
0.000000000
  0
LINE
  5
A59
330
A02
100
AcDbEntity
  8
Bottom_plate_3mm
100
AcDbLine
 10
80.185508752
 20
134.445390247
 30
0.000000000
 11
79.514216652
 21
134.190802735
 31
0.000000000
  0
LINE
  5
A5A
330
A02
100
AcDbEntity
  8
Bottom_plate_3mm
100
AcDbLine
 10
79.514216652
 20
134.190802735
 30
0.000000000
 11
78.801504301
 21
134.277341682
 31
0.000000000
  0
LINE
  5
A5B
330
A02
100
AcDbEntity
  8
Bottom_plate_3mm
100
AcDbLine
 10
78.801504301
 20
134.277341682
 30
0.000000000
 11
78.210645509
 21
134.685182059
 31
0.000000000
  0
LINE
  5
A5C
330
A02
100
AcDbEntity
  8
Bottom_plate_3mm
100
AcDbLine
 10
78.210645509
 20
134.685182059
 30
0.000000000
 11
77.876998905
 21
135.320892550
 31
0.000000000
  0
LINE
  5
A5D
330
A02
100
AcDbEntity
  8
Bottom_plate_3mm
100
AcDbLine
 10
77.876998905
 20
135.320892550
 30
0.000000000
 11
77.876998905
 21
136.038839543
 31
0.000000000
  0
LINE
  5
A5E
330
A02
100
AcDbEntity
  8
Bottom_plate_3mm
100
AcDbLine
 10
77.876998905
 20
136.038839543
 30
0.000000000
 11
78.210645509
 21
136.674550034
 31
0.000000000
  0
LINE
  5
A5F
330
A02
100
AcDbEntity
  8
Bottom_plate_3mm
100
AcDbLine
 10
78.210645509
 20
136.674550034
 30
0.000000000
 11
78.801504301
 21
137.082390410
 31
0.000000000
  0
LINE
  5
A60
330
A02
100
AcDbEntity
  8
Bottom_plate_3mm
100
AcDbLine
 10
78.801504301
 20
137.082390410
 30
0.000000000
 11
79.514216652
 21
137.168929357
 31
0.000000000
  0
LINE
  5
A61
330
A02
100
AcDbEntity
  8
Bottom_plate_3mm
100
AcDbLine
 10
79.514216652
 20
137.168929357
 30
0.000000000
 11
80.185508752
 21
136.914341845
 31
0.000000000
  0
LINE
  5
A62
330
A02
100
AcDbEntity
  8
Bottom_plate_3mm
100
AcDbLine
 10
80.185508752
 20
136.914341845
 30
0.000000000
 11
80.661595670
 21
136.376950804
 31
0.000000000
  0
LINE
  5
A63
330
A02
100
AcDbEntity
  8
Bottom_plate_3mm
100
AcDbLine
 10
80.661595670
 20
136.376950804
 30
0.000000000
 11
80.833411632
 21
135.679866046
 31
0.000000000
  0
LINE
  5
A64
330
A02
100
AcDbEntity
  8
Bottom_plate_3mm
100
AcDbLine
 10
96.376867375
 20
147.179898154
 30
0.000000000
 11
96.190990109
 21
146.305414372
 31
0.000000000
  0
LINE
  5
A65
330
A02
100
AcDbEntity
  8
Bottom_plate_3mm
100
AcDbLine
 10
96.190990109
 20
146.305414372
 30
0.000000000
 11
95.665498179
 21
145.582136779
 31
0.000000000
  0
LINE
  5
A66
330
A02
100
AcDbEntity
  8
Bottom_plate_3mm
100
AcDbLine
 10
95.665498179
 20
145.582136779
 30
0.000000000
 11
94.891253913
 21
145.135126644
 31
0.000000000
  0
LINE
  5
A67
330
A02
100
AcDbEntity
  8
Bottom_plate_3mm
100
AcDbLine
 10
94.891253913
 20
145.135126644
 30
0.000000000
 11
94.002131179
 21
145.041676079
 31
0.000000000
  0
LINE
  5
A68
330
A02
100
AcDbEntity
  8
Bottom_plate_3mm
100
AcDbLine
 10
94.002131179
 20
145.041676079
 30
0.000000000
 11
93.151867375
 21
145.317943536
 31
0.000000000
  0
LINE
  5
A69
330
A02
100
AcDbEntity
  8
Bottom_plate_3mm
100
AcDbLine
 10
93.151867375
 20
145.317943536
 30
0.000000000
 11
92.487480837
 21
145.916159862
 31
0.000000000
  0
LINE
  5
A6A
330
A02
100
AcDbEntity
  8
Bottom_plate_3mm
100
AcDbLine
 10
92.487480837
 20
145.916159862
 30
0.000000000
 11
92.123850034
 21
146.732888019
 31
0.000000000
  0
LINE
  5
A6B
330
A02
100
AcDbEntity
  8
Bottom_plate_3mm
100
AcDbLine
 10
92.123850034
 20
146.732888019
 30
0.000000000
 11
92.123850034
 21
147.626908289
 31
0.000000000
  0
LINE
  5
A6C
330
A02
100
AcDbEntity
  8
Bottom_plate_3mm
100
AcDbLine
 10
92.123850034
 20
147.626908289
 30
0.000000000
 11
92.487480837
 21
148.443636447
 31
0.000000000
  0
LINE
  5
A6D
330
A02
100
AcDbEntity
  8
Bottom_plate_3mm
100
AcDbLine
 10
92.487480837
 20
148.443636447
 30
0.000000000
 11
93.151867375
 21
149.041852772
 31
0.000000000
  0
LINE
  5
A6E
330
A02
100
AcDbEntity
  8
Bottom_plate_3mm
100
AcDbLine
 10
93.151867375
 20
149.041852772
 30
0.000000000
 11
94.002131179
 21
149.318120229
 31
0.000000000
  0
LINE
  5
A6F
330
A02
100
AcDbEntity
  8
Bottom_plate_3mm
100
AcDbLine
 10
94.002131179
 20
149.318120229
 30
0.000000000
 11
94.891253913
 21
149.224669664
 31
0.000000000
  0
LINE
  5
A70
330
A02
100
AcDbEntity
  8
Bottom_plate_3mm
100
AcDbLine
 10
94.891253913
 20
149.224669664
 30
0.000000000
 11
95.665498179
 21
148.777659529
 31
0.000000000
  0
LINE
  5
A71
330
A02
100
AcDbEntity
  8
Bottom_plate_3mm
100
AcDbLine
 10
95.665498179
 20
148.777659529
 30
0.000000000
 11
96.190990109
 21
148.054381937
 31
0.000000000
  0
LINE
  5
A72
330
A02
100
AcDbEntity
  8
Bottom_plate_3mm
100
AcDbLine
 10
96.190990109
 20
148.054381937
 30
0.000000000
 11
96.376867375
 21
147.179898154
 31
0.000000000
  0
LINE
  5
A73
330
A02
100
AcDbEntity
  8
Bottom_plate_3mm
100
AcDbLine
 10
80.833411632
 20
95.738901040
 30
0.000000000
 11
80.661595670
 21
95.041816282
 31
0.000000000
  0
LINE
  5
A74
330
A02
100
AcDbEntity
  8
Bottom_plate_3mm
100
AcDbLine
 10
80.661595670
 20
95.041816282
 30
0.000000000
 11
80.185508752
 21
94.504425241
 31
0.000000000
  0
LINE
  5
A75
330
A02
100
AcDbEntity
  8
Bottom_plate_3mm
100
AcDbLine
 10
80.185508752
 20
94.504425241
 30
0.000000000
 11
79.514216652
 21
94.249837729
 31
0.000000000
  0
LINE
  5
A76
330
A02
100
AcDbEntity
  8
Bottom_plate_3mm
100
AcDbLine
 10
79.514216652
 20
94.249837729
 30
0.000000000
 11
78.801504301
 21
94.336376676
 31
0.000000000
  0
LINE
  5
A77
330
A02
100
AcDbEntity
  8
Bottom_plate_3mm
100
AcDbLine
 10
78.801504301
 20
94.336376676
 30
0.000000000
 11
78.210645509
 21
94.744217053
 31
0.000000000
  0
LINE
  5
A78
330
A02
100
AcDbEntity
  8
Bottom_plate_3mm
100
AcDbLine
 10
78.210645509
 20
94.744217053
 30
0.000000000
 11
77.876998905
 21
95.379927544
 31
0.000000000
  0
LINE
  5
A79
330
A02
100
AcDbEntity
  8
Bottom_plate_3mm
100
AcDbLine
 10
77.876998905
 20
95.379927544
 30
0.000000000
 11
77.876998905
 21
96.097874537
 31
0.000000000
  0
LINE
  5
A7A
330
A02
100
AcDbEntity
  8
Bottom_plate_3mm
100
AcDbLine
 10
77.876998905
 20
96.097874537
 30
0.000000000
 11
78.210645509
 21
96.733585028
 31
0.000000000
  0
LINE
  5
A7B
330
A02
100
AcDbEntity
  8
Bottom_plate_3mm
100
AcDbLine
 10
78.210645509
 20
96.733585028
 30
0.000000000
 11
78.801504301
 21
97.141425404
 31
0.000000000
  0
LINE
  5
A7C
330
A02
100
AcDbEntity
  8
Bottom_plate_3mm
100
AcDbLine
 10
78.801504301
 20
97.141425404
 30
0.000000000
 11
79.514216652
 21
97.227964351
 31
0.000000000
  0
LINE
  5
A7D
330
A02
100
AcDbEntity
  8
Bottom_plate_3mm
100
AcDbLine
 10
79.514216652
 20
97.227964351
 30
0.000000000
 11
80.185508752
 21
96.973376839
 31
0.000000000
  0
LINE
  5
A7E
330
A02
100
AcDbEntity
  8
Bottom_plate_3mm
100
AcDbLine
 10
80.185508752
 20
96.973376839
 30
0.000000000
 11
80.661595670
 21
96.435985798
 31
0.000000000
  0
LINE
  5
A7F
330
A02
100
AcDbEntity
  8
Bottom_plate_3mm
100
AcDbLine
 10
80.661595670
 20
96.435985798
 30
0.000000000
 11
80.833411632
 21
95.738901040
 31
0.000000000
  0
LINE
  5
A80
330
A02
100
AcDbEntity
  8
Bottom_plate_3mm
100
AcDbLine
 10
67.070049291
 20
70.984104954
 30
0.000000000
 11
66.907713736
 21
70.484487490
 31
0.000000000
  0
LINE
  5
A81
330
A02
100
AcDbEntity
  8
Bottom_plate_3mm
100
AcDbLine
 10
66.907713736
 20
70.484487490
 30
0.000000000
 11
66.482713736
 21
70.175706915
 31
0.000000000
  0
LINE
  5
A82
330
A02
100
AcDbEntity
  8
Bottom_plate_3mm
100
AcDbLine
 10
66.482713736
 20
70.175706915
 30
0.000000000
 11
65.957384846
 21
70.175706915
 31
0.000000000
  0
LINE
  5
A83
330
A02
100
AcDbEntity
  8
Bottom_plate_3mm
100
AcDbLine
 10
65.957384846
 20
70.175706915
 30
0.000000000
 11
65.532384846
 21
70.484487490
 31
0.000000000
  0
LINE
  5
A84
330
A02
100
AcDbEntity
  8
Bottom_plate_3mm
100
AcDbLine
 10
65.532384846
 20
70.484487490
 30
0.000000000
 11
65.370049291
 21
70.984104954
 31
0.000000000
  0
LINE
  5
A85
330
A02
100
AcDbEntity
  8
Bottom_plate_3mm
100
AcDbLine
 10
65.370049291
 20
70.984104954
 30
0.000000000
 11
65.532384846
 21
71.483722419
 31
0.000000000
  0
LINE
  5
A86
330
A02
100
AcDbEntity
  8
Bottom_plate_3mm
100
AcDbLine
 10
65.532384846
 20
71.483722419
 30
0.000000000
 11
65.957384846
 21
71.792502993
 31
0.000000000
  0
LINE
  5
A87
330
A02
100
AcDbEntity
  8
Bottom_plate_3mm
100
AcDbLine
 10
65.957384846
 20
71.792502993
 30
0.000000000
 11
66.482713736
 21
71.792502993
 31
0.000000000
  0
LINE
  5
A88
330
A02
100
AcDbEntity
  8
Bottom_plate_3mm
100
AcDbLine
 10
66.482713736
 20
71.792502993
 30
0.000000000
 11
66.907713736
 21
71.483722419
 31
0.000000000
  0
LINE
  5
A89
330
A02
100
AcDbEntity
  8
Bottom_plate_3mm
100
AcDbLine
 10
66.907713736
 20
71.483722419
 30
0.000000000
 11
67.070049291
 21
70.984104954
 31
0.000000000
  0
LINE
  5
A8A
330
A02
100
AcDbEntity
  8
Bottom_plate_3mm
100
AcDbLine
 10
54.970049291
 20
174.713507726
 30
0.000000000
 11
54.798233329
 21
174.016422968
 31
0.000000000
  0
LINE
  5
A8B
330
A02
100
AcDbEntity
  8
Bottom_plate_3mm
100
AcDbLine
 10
54.798233329
 20
174.016422968
 30
0.000000000
 11
54.322146411
 21
173.479031927
 31
0.000000000
  0
LINE
  5
A8C
330
A02
100
AcDbEntity
  8
Bottom_plate_3mm
100
AcDbLine
 10
54.322146411
 20
173.479031927
 30
0.000000000
 11
53.650854311
 21
173.224444415
 31
0.000000000
  0
LINE
  5
A8D
330
A02
100
AcDbEntity
  8
Bottom_plate_3mm
100
AcDbLine
 10
53.650854311
 20
173.224444415
 30
0.000000000
 11
52.938141960
 21
173.310983362
 31
0.000000000
  0
LINE
  5
A8E
330
A02
100
AcDbEntity
  8
Bottom_plate_3mm
100
AcDbLine
 10
52.938141960
 20
173.310983362
 30
0.000000000
 11
52.347283169
 21
173.718823739
 31
0.000000000
  0
LINE
  5
A8F
330
A02
100
AcDbEntity
  8
Bottom_plate_3mm
100
AcDbLine
 10
52.347283169
 20
173.718823739
 30
0.000000000
 11
52.013636565
 21
174.354534229
 31
0.000000000
  0
LINE
  5
A90
330
A02
100
AcDbEntity
  8
Bottom_plate_3mm
100
AcDbLine
 10
52.013636565
 20
174.354534229
 30
0.000000000
 11
52.013636565
 21
175.072481222
 31
0.000000000
  0
LINE
  5
A91
330
A02
100
AcDbEntity
  8
Bottom_plate_3mm
100
AcDbLine
 10
52.013636565
 20
175.072481222
 30
0.000000000
 11
52.347283169
 21
175.708191713
 31
0.000000000
  0
LINE
  5
A92
330
A02
100
AcDbEntity
  8
Bottom_plate_3mm
100
AcDbLine
 10
52.347283169
 20
175.708191713
 30
0.000000000
 11
52.938141960
 21
176.116032090
 31
0.000000000
  0
LINE
  5
A93
330
A02
100
AcDbEntity
  8
Bottom_plate_3mm
100
AcDbLine
 10
52.938141960
 20
176.116032090
 30
0.000000000
 11
53.650854311
 21
176.202571037
 31
0.000000000
  0
LINE
  5
A94
330
A02
100
AcDbEntity
  8
Bottom_plate_3mm
100
AcDbLine
 10
53.650854311
 20
176.202571037
 30
0.000000000
 11
54.322146411
 21
175.947983525
 31
0.000000000
  0
LINE
  5
A95
330
A02
100
AcDbEntity
  8
Bottom_plate_3mm
100
AcDbLine
 10
54.322146411
 20
175.947983525
 30
0.000000000
 11
54.798233329
 21
175.410592484
 31
0.000000000
  0
LINE
  5
A96
330
A02
100
AcDbEntity
  8
Bottom_plate_3mm
100
AcDbLine
 10
54.798233329
 20
175.410592484
 30
0.000000000
 11
54.970049291
 21
174.713507726
 31
0.000000000
  0
LINE
  5
A97
330
A02
100
AcDbEntity
  8
Bottom_plate_3mm
100
AcDbLine
 10
78.696515795
 20
156.885685255
 30
0.000000000
 11
78.524699834
 21
156.188600497
 31
0.000000000
  0
LINE
  5
A98
330
A02
100
AcDbEntity
  8
Bottom_plate_3mm
100
AcDbLine
 10
78.524699834
 20
156.188600497
 30
0.000000000
 11
78.048612916
 21
155.651209456
 31
0.000000000
  0
LINE
  5
A99
330
A02
100
AcDbEntity
  8
Bottom_plate_3mm
100
AcDbLine
 10
78.048612916
 20
155.651209456
 30
0.000000000
 11
77.377320816
 21
155.396621944
 31
0.000000000
  0
LINE
  5
A9A
330
A02
100
AcDbEntity
  8
Bottom_plate_3mm
100
AcDbLine
 10
77.377320816
 20
155.396621944
 30
0.000000000
 11
76.664608465
 21
155.483160891
 31
0.000000000
  0
LINE
  5
A9B
330
A02
100
AcDbEntity
  8
Bottom_plate_3mm
100
AcDbLine
 10
76.664608465
 20
155.483160891
 30
0.000000000
 11
76.073749673
 21
155.891001268
 31
0.000000000
  0
LINE
  5
A9C
330
A02
100
AcDbEntity
  8
Bottom_plate_3mm
100
AcDbLine
 10
76.073749673
 20
155.891001268
 30
0.000000000
 11
75.740103069
 21
156.526711759
 31
0.000000000
  0
LINE
  5
A9D
330
A02
100
AcDbEntity
  8
Bottom_plate_3mm
100
AcDbLine
 10
75.740103069
 20
156.526711759
 30
0.000000000
 11
75.740103069
 21
157.244658752
 31
0.000000000
  0
LINE
  5
A9E
330
A02
100
AcDbEntity
  8
Bottom_plate_3mm
100
AcDbLine
 10
75.740103069
 20
157.244658752
 30
0.000000000
 11
76.073749673
 21
157.880369243
 31
0.000000000
  0
LINE
  5
A9F
330
A02
100
AcDbEntity
  8
Bottom_plate_3mm
100
AcDbLine
 10
76.073749673
 20
157.880369243
 30
0.000000000
 11
76.664608465
 21
158.288209619
 31
0.000000000
  0
LINE
  5
AA0
330
A02
100
AcDbEntity
  8
Bottom_plate_3mm
100
AcDbLine
 10
76.664608465
 20
158.288209619
 30
0.000000000
 11
77.377320816
 21
158.374748566
 31
0.000000000
  0
LINE
  5
AA1
330
A02
100
AcDbEntity
  8
Bottom_plate_3mm
100
AcDbLine
 10
77.377320816
 20
158.374748566
 30
0.000000000
 11
78.048612916
 21
158.120161054
 31
0.000000000
  0
LINE
  5
AA2
330
A02
100
AcDbEntity
  8
Bottom_plate_3mm
100
AcDbLine
 10
78.048612916
 20
158.120161054
 30
0.000000000
 11
78.524699834
 21
157.582770013
 31
0.000000000
  0
LINE
  5
AA3
330
A02
100
AcDbEntity
  8
Bottom_plate_3mm
100
AcDbLine
 10
78.524699834
 20
157.582770013
 30
0.000000000
 11
78.696515795
 21
156.885685255
 31
0.000000000
  0
LINE
  5
AA4
330
A02
100
AcDbEntity
  8
Bottom_plate_3mm
100
AcDbLine
 10
44.570049291
 20
48.234104954
 30
0.000000000
 11
44.395428177
 21
47.639400055
 31
0.000000000
  0
LINE
  5
AA5
330
A02
100
AcDbEntity
  8
Bottom_plate_3mm
100
AcDbLine
 10
44.395428177
 20
47.639400055
 30
0.000000000
 11
43.927005805
 21
47.233509759
 31
0.000000000
  0
LINE
  5
AA6
330
A02
100
AcDbEntity
  8
Bottom_plate_3mm
100
AcDbLine
 10
43.927005805
 20
47.233509759
 30
0.000000000
 11
43.313502969
 21
47.145301368
 31
0.000000000
  0
LINE
  5
AA7
330
A02
100
AcDbEntity
  8
Bottom_plate_3mm
100
AcDbLine
 10
43.313502969
 20
47.145301368
 30
0.000000000
 11
42.749702483
 21
47.402780422
 31
0.000000000
  0
LINE
  5
AA8
330
A02
100
AcDbEntity
  8
Bottom_plate_3mm
100
AcDbLine
 10
42.749702483
 20
47.402780422
 30
0.000000000
 11
42.414607020
 21
47.924199142
 31
0.000000000
  0
LINE
  5
AA9
330
A02
100
AcDbEntity
  8
Bottom_plate_3mm
100
AcDbLine
 10
42.414607020
 20
47.924199142
 30
0.000000000
 11
42.414607020
 21
48.544010767
 31
0.000000000
  0
LINE
  5
AAA
330
A02
100
AcDbEntity
  8
Bottom_plate_3mm
100
AcDbLine
 10
42.414607020
 20
48.544010767
 30
0.000000000
 11
42.749702483
 21
49.065429486
 31
0.000000000
  0
LINE
  5
AAB
330
A02
100
AcDbEntity
  8
Bottom_plate_3mm
100
AcDbLine
 10
42.749702483
 20
49.065429486
 30
0.000000000
 11
43.313502969
 21
49.322908540
 31
0.000000000
  0
LINE
  5
AAC
330
A02
100
AcDbEntity
  8
Bottom_plate_3mm
100
AcDbLine
 10
43.313502969
 20
49.322908540
 30
0.000000000
 11
43.927005805
 21
49.234700149
 31
0.000000000
  0
LINE
  5
AAD
330
A02
100
AcDbEntity
  8
Bottom_plate_3mm
100
AcDbLine
 10
43.927005805
 20
49.234700149
 30
0.000000000
 11
44.395428177
 21
48.828809853
 31
0.000000000
  0
LINE
  5
AAE
330
A02
100
AcDbEntity
  8
Bottom_plate_3mm
100
AcDbLine
 10
44.395428177
 20
48.828809853
 30
0.000000000
 11
44.570049291
 21
48.234104954
 31
0.000000000
  0
LINE
  5
AAF
330
A02
100
AcDbEntity
  8
Bottom_plate_3mm
100
AcDbLine
 10
69.380765914
 20
11.716983277
 30
0.000000000
 11
69.208949953
 21
11.019898518
 31
0.000000000
  0
LINE
  5
AB0
330
A02
100
AcDbEntity
  8
Bottom_plate_3mm
100
AcDbLine
 10
69.208949953
 20
11.019898518
 30
0.000000000
 11
68.732863034
 21
10.482507478
 31
0.000000000
  0
LINE
  5
AB1
330
A02
100
AcDbEntity
  8
Bottom_plate_3mm
100
AcDbLine
 10
68.732863034
 20
10.482507478
 30
0.000000000
 11
68.061570935
 21
10.227919965
 31
0.000000000
  0
LINE
  5
AB2
330
A02
100
AcDbEntity
  8
Bottom_plate_3mm
100
AcDbLine
 10
68.061570935
 20
10.227919965
 30
0.000000000
 11
67.348858584
 21
10.314458912
 31
0.000000000
  0
LINE
  5
AB3
330
A02
100
AcDbEntity
  8
Bottom_plate_3mm
100
AcDbLine
 10
67.348858584
 20
10.314458912
 30
0.000000000
 11
66.757999792
 21
10.722299289
 31
0.000000000
  0
LINE
  5
AB4
330
A02
100
AcDbEntity
  8
Bottom_plate_3mm
100
AcDbLine
 10
66.757999792
 20
10.722299289
 30
0.000000000
 11
66.424353188
 21
11.358009780
 31
0.000000000
  0
LINE
  5
AB5
330
A02
100
AcDbEntity
  8
Bottom_plate_3mm
100
AcDbLine
 10
66.424353188
 20
11.358009780
 30
0.000000000
 11
66.424353188
 21
12.075956773
 31
0.000000000
  0
LINE
  5
AB6
330
A02
100
AcDbEntity
  8
Bottom_plate_3mm
100
AcDbLine
 10
66.424353188
 20
12.075956773
 30
0.000000000
 11
66.757999792
 21
12.711667264
 31
0.000000000
  0
LINE
  5
AB7
330
A02
100
AcDbEntity
  8
Bottom_plate_3mm
100
AcDbLine
 10
66.757999792
 20
12.711667264
 30
0.000000000
 11
67.348858584
 21
13.119507641
 31
0.000000000
  0
LINE
  5
AB8
330
A02
100
AcDbEntity
  8
Bottom_plate_3mm
100
AcDbLine
 10
67.348858584
 20
13.119507641
 30
0.000000000
 11
68.061570935
 21
13.206046588
 31
0.000000000
  0
LINE
  5
AB9
330
A02
100
AcDbEntity
  8
Bottom_plate_3mm
100
AcDbLine
 10
68.061570935
 20
13.206046588
 30
0.000000000
 11
68.732863034
 21
12.951459075
 31
0.000000000
  0
LINE
  5
ABA
330
A02
100
AcDbEntity
  8
Bottom_plate_3mm
100
AcDbLine
 10
68.732863034
 20
12.951459075
 30
0.000000000
 11
69.208949953
 21
12.414068035
 31
0.000000000
  0
LINE
  5
ABB
330
A02
100
AcDbEntity
  8
Bottom_plate_3mm
100
AcDbLine
 10
69.208949953
 20
12.414068035
 30
0.000000000
 11
69.380765914
 21
11.716983277
 31
0.000000000
  0
LINE
  5
ABC
330
A02
100
AcDbEntity
  8
Bottom_plate_3mm
100
AcDbLine
 10
78.696515795
 20
74.533081831
 30
0.000000000
 11
78.524699834
 21
73.835997073
 31
0.000000000
  0
LINE
  5
ABD
330
A02
100
AcDbEntity
  8
Bottom_plate_3mm
100
AcDbLine
 10
78.524699834
 20
73.835997073
 30
0.000000000
 11
78.048612916
 21
73.298606032
 31
0.000000000
  0
LINE
  5
ABE
330
A02
100
AcDbEntity
  8
Bottom_plate_3mm
100
AcDbLine
 10
78.048612916
 20
73.298606032
 30
0.000000000
 11
77.377320816
 21
73.044018520
 31
0.000000000
  0
LINE
  5
ABF
330
A02
100
AcDbEntity
  8
Bottom_plate_3mm
100
AcDbLine
 10
77.377320816
 20
73.044018520
 30
0.000000000
 11
76.664608465
 21
73.130557467
 31
0.000000000
  0
LINE
  5
AC0
330
A02
100
AcDbEntity
  8
Bottom_plate_3mm
100
AcDbLine
 10
76.664608465
 20
73.130557467
 30
0.000000000
 11
76.073749673
 21
73.538397844
 31
0.000000000
  0
LINE
  5
AC1
330
A02
100
AcDbEntity
  8
Bottom_plate_3mm
100
AcDbLine
 10
76.073749673
 20
73.538397844
 30
0.000000000
 11
75.740103069
 21
74.174108335
 31
0.000000000
  0
LINE
  5
AC2
330
A02
100
AcDbEntity
  8
Bottom_plate_3mm
100
AcDbLine
 10
75.740103069
 20
74.174108335
 30
0.000000000
 11
75.740103069
 21
74.892055328
 31
0.000000000
  0
LINE
  5
AC3
330
A02
100
AcDbEntity
  8
Bottom_plate_3mm
100
AcDbLine
 10
75.740103069
 20
74.892055328
 30
0.000000000
 11
76.073749673
 21
75.527765819
 31
0.000000000
  0
LINE
  5
AC4
330
A02
100
AcDbEntity
  8
Bottom_plate_3mm
100
AcDbLine
 10
76.073749673
 20
75.527765819
 30
0.000000000
 11
76.664608465
 21
75.935606195
 31
0.000000000
  0
LINE
  5
AC5
330
A02
100
AcDbEntity
  8
Bottom_plate_3mm
100
AcDbLine
 10
76.664608465
 20
75.935606195
 30
0.000000000
 11
77.377320816
 21
76.022145142
 31
0.000000000
  0
LINE
  5
AC6
330
A02
100
AcDbEntity
  8
Bottom_plate_3mm
100
AcDbLine
 10
77.377320816
 20
76.022145142
 30
0.000000000
 11
78.048612916
 21
75.767557630
 31
0.000000000
  0
LINE
  5
AC7
330
A02
100
AcDbEntity
  8
Bottom_plate_3mm
100
AcDbLine
 10
78.048612916
 20
75.767557630
 30
0.000000000
 11
78.524699834
 21
75.230166589
 31
0.000000000
  0
LINE
  5
AC8
330
A02
100
AcDbEntity
  8
Bottom_plate_3mm
100
AcDbLine
 10
78.524699834
 20
75.230166589
 30
0.000000000
 11
78.696515795
 21
74.533081831
 31
0.000000000
  0
LINE
  5
AC9
330
A02
100
AcDbEntity
  8
Bottom_plate_3mm
100
AcDbLine
 10
31.243582786
 20
74.533081831
 30
0.000000000
 11
31.071766825
 21
73.835997073
 31
0.000000000
  0
LINE
  5
ACA
330
A02
100
AcDbEntity
  8
Bottom_plate_3mm
100
AcDbLine
 10
31.071766825
 20
73.835997073
 30
0.000000000
 11
30.595679906
 21
73.298606032
 31
0.000000000
  0
LINE
  5
ACB
330
A02
100
AcDbEntity
  8
Bottom_plate_3mm
100
AcDbLine
 10
30.595679906
 20
73.298606032
 30
0.000000000
 11
29.924387807
 21
73.044018520
 31
0.000000000
  0
LINE
  5
ACC
330
A02
100
AcDbEntity
  8
Bottom_plate_3mm
100
AcDbLine
 10
29.924387807
 20
73.044018520
 30
0.000000000
 11
29.211675456
 21
73.130557467
 31
0.000000000
  0
LINE
  5
ACD
330
A02
100
AcDbEntity
  8
Bottom_plate_3mm
100
AcDbLine
 10
29.211675456
 20
73.130557467
 30
0.000000000
 11
28.620816664
 21
73.538397844
 31
0.000000000
  0
LINE
  5
ACE
330
A02
100
AcDbEntity
  8
Bottom_plate_3mm
100
AcDbLine
 10
28.620816664
 20
73.538397844
 30
0.000000000
 11
28.287170060
 21
74.174108335
 31
0.000000000
  0
LINE
  5
ACF
330
A02
100
AcDbEntity
  8
Bottom_plate_3mm
100
AcDbLine
 10
28.287170060
 20
74.174108335
 30
0.000000000
 11
28.287170060
 21
74.892055328
 31
0.000000000
  0
LINE
  5
AD0
330
A02
100
AcDbEntity
  8
Bottom_plate_3mm
100
AcDbLine
 10
28.287170060
 20
74.892055328
 30
0.000000000
 11
28.620816664
 21
75.527765819
 31
0.000000000
  0
LINE
  5
AD1
330
A02
100
AcDbEntity
  8
Bottom_plate_3mm
100
AcDbLine
 10
28.620816664
 20
75.527765819
 30
0.000000000
 11
29.211675456
 21
75.935606195
 31
0.000000000
  0
LINE
  5
AD2
330
A02
100
AcDbEntity
  8
Bottom_plate_3mm
100
AcDbLine
 10
29.211675456
 20
75.935606195
 30
0.000000000
 11
29.924387807
 21
76.022145142
 31
0.000000000
  0
LINE
  5
AD3
330
A02
100
AcDbEntity
  8
Bottom_plate_3mm
100
AcDbLine
 10
29.924387807
 20
76.022145142
 30
0.000000000
 11
30.595679906
 21
75.767557630
 31
0.000000000
  0
LINE
  5
AD4
330
A02
100
AcDbEntity
  8
Bottom_plate_3mm
100
AcDbLine
 10
30.595679906
 20
75.767557630
 30
0.000000000
 11
31.071766825
 21
75.230166589
 31
0.000000000
  0
LINE
  5
AD5
330
A02
100
AcDbEntity
  8
Bottom_plate_3mm
100
AcDbLine
 10
31.071766825
 20
75.230166589
 30
0.000000000
 11
31.243582786
 21
74.533081831
 31
0.000000000
  0
LINE
  5
AD6
330
A02
100
AcDbEntity
  8
Bottom_plate_3mm
100
AcDbLine
 10
64.570049291
 20
48.234104954
 30
0.000000000
 11
64.395428177
 21
47.639400055
 31
0.000000000
  0
LINE
  5
AD7
330
A02
100
AcDbEntity
  8
Bottom_plate_3mm
100
AcDbLine
 10
64.395428177
 20
47.639400055
 30
0.000000000
 11
63.927005805
 21
47.233509759
 31
0.000000000
  0
LINE
  5
AD8
330
A02
100
AcDbEntity
  8
Bottom_plate_3mm
100
AcDbLine
 10
63.927005805
 20
47.233509759
 30
0.000000000
 11
63.313502969
 21
47.145301368
 31
0.000000000
  0
LINE
  5
AD9
330
A02
100
AcDbEntity
  8
Bottom_plate_3mm
100
AcDbLine
 10
63.313502969
 20
47.145301368
 30
0.000000000
 11
62.749702483
 21
47.402780422
 31
0.000000000
  0
LINE
  5
ADA
330
A02
100
AcDbEntity
  8
Bottom_plate_3mm
100
AcDbLine
 10
62.749702483
 20
47.402780422
 30
0.000000000
 11
62.414607020
 21
47.924199142
 31
0.000000000
  0
LINE
  5
ADB
330
A02
100
AcDbEntity
  8
Bottom_plate_3mm
100
AcDbLine
 10
62.414607020
 20
47.924199142
 30
0.000000000
 11
62.414607020
 21
48.544010767
 31
0.000000000
  0
LINE
  5
ADC
330
A02
100
AcDbEntity
  8
Bottom_plate_3mm
100
AcDbLine
 10
62.414607020
 20
48.544010767
 30
0.000000000
 11
62.749702483
 21
49.065429486
 31
0.000000000
  0
LINE
  5
ADD
330
A02
100
AcDbEntity
  8
Bottom_plate_3mm
100
AcDbLine
 10
62.749702483
 20
49.065429486
 30
0.000000000
 11
63.313502969
 21
49.322908540
 31
0.000000000
  0
LINE
  5
ADE
330
A02
100
AcDbEntity
  8
Bottom_plate_3mm
100
AcDbLine
 10
63.313502969
 20
49.322908540
 30
0.000000000
 11
63.927005805
 21
49.234700149
 31
0.000000000
  0
LINE
  5
ADF
330
A02
100
AcDbEntity
  8
Bottom_plate_3mm
100
AcDbLine
 10
63.927005805
 20
49.234700149
 30
0.000000000
 11
64.395428177
 21
48.828809853
 31
0.000000000
  0
LINE
  5
AE0
330
A02
100
AcDbEntity
  8
Bottom_plate_3mm
100
AcDbLine
 10
64.395428177
 20
48.828809853
 30
0.000000000
 11
64.570049291
 21
48.234104954
 31
0.000000000
  0
LINE
  5
AE1
330
A02
100
AcDbEntity
  8
Bottom_plate_3mm
100
AcDbLine
 10
75.050423020
 20
189.290001614
 30
0.000000000
 11
74.878607058
 21
188.592916856
 31
0.000000000
  0
LINE
  5
AE2
330
A02
100
AcDbEntity
  8
Bottom_plate_3mm
100
AcDbLine
 10
74.878607058
 20
188.592916856
 30
0.000000000
 11
74.402520140
 21
188.055525815
 31
0.000000000
  0
LINE
  5
AE3
330
A02
100
AcDbEntity
  8
Bottom_plate_3mm
100
AcDbLine
 10
74.402520140
 20
188.055525815
 30
0.000000000
 11
73.731228040
 21
187.800938303
 31
0.000000000
  0
LINE
  5
AE4
330
A02
100
AcDbEntity
  8
Bottom_plate_3mm
100
AcDbLine
 10
73.731228040
 20
187.800938303
 30
0.000000000
 11
73.018515689
 21
187.887477250
 31
0.000000000
  0
LINE
  5
AE5
330
A02
100
AcDbEntity
  8
Bottom_plate_3mm
100
AcDbLine
 10
73.018515689
 20
187.887477250
 30
0.000000000
 11
72.427656898
 21
188.295317627
 31
0.000000000
  0
LINE
  5
AE6
330
A02
100
AcDbEntity
  8
Bottom_plate_3mm
100
AcDbLine
 10
72.427656898
 20
188.295317627
 30
0.000000000
 11
72.094010294
 21
188.931028118
 31
0.000000000
  0
LINE
  5
AE7
330
A02
100
AcDbEntity
  8
Bottom_plate_3mm
100
AcDbLine
 10
72.094010294
 20
188.931028118
 30
0.000000000
 11
72.094010294
 21
189.648975111
 31
0.000000000
  0
LINE
  5
AE8
330
A02
100
AcDbEntity
  8
Bottom_plate_3mm
100
AcDbLine
 10
72.094010294
 20
189.648975111
 30
0.000000000
 11
72.427656898
 21
190.284685602
 31
0.000000000
  0
LINE
  5
AE9
330
A02
100
AcDbEntity
  8
Bottom_plate_3mm
100
AcDbLine
 10
72.427656898
 20
190.284685602
 30
0.000000000
 11
73.018515689
 21
190.692525978
 31
0.000000000
  0
LINE
  5
AEA
330
A02
100
AcDbEntity
  8
Bottom_plate_3mm
100
AcDbLine
 10
73.018515689
 20
190.692525978
 30
0.000000000
 11
73.731228040
 21
190.779064925
 31
0.000000000
  0
LINE
  5
AEB
330
A02
100
AcDbEntity
  8
Bottom_plate_3mm
100
AcDbLine
 10
73.731228040
 20
190.779064925
 30
0.000000000
 11
74.402520140
 21
190.524477413
 31
0.000000000
  0
LINE
  5
AEC
330
A02
100
AcDbEntity
  8
Bottom_plate_3mm
100
AcDbLine
 10
74.402520140
 20
190.524477413
 30
0.000000000
 11
74.878607058
 21
189.987086372
 31
0.000000000
  0
LINE
  5
AED
330
A02
100
AcDbEntity
  8
Bottom_plate_3mm
100
AcDbLine
 10
74.878607058
 20
189.987086372
 30
0.000000000
 11
75.050423020
 21
189.290001614
 31
0.000000000
  0
LINE
  5
AEE
330
A02
100
AcDbEntity
  8
Bottom_plate_3mm
100
AcDbLine
 10
96.376867375
 20
84.238868932
 30
0.000000000
 11
96.190990109
 21
83.364385150
 31
0.000000000
  0
LINE
  5
AEF
330
A02
100
AcDbEntity
  8
Bottom_plate_3mm
100
AcDbLine
 10
96.190990109
 20
83.364385150
 30
0.000000000
 11
95.665498179
 21
82.641107558
 31
0.000000000
  0
LINE
  5
AF0
330
A02
100
AcDbEntity
  8
Bottom_plate_3mm
100
AcDbLine
 10
95.665498179
 20
82.641107558
 30
0.000000000
 11
94.891253913
 21
82.194097422
 31
0.000000000
  0
LINE
  5
AF1
330
A02
100
AcDbEntity
  8
Bottom_plate_3mm
100
AcDbLine
 10
94.891253913
 20
82.194097422
 30
0.000000000
 11
94.002131179
 21
82.100646857
 31
0.000000000
  0
LINE
  5
AF2
330
A02
100
AcDbEntity
  8
Bottom_plate_3mm
100
AcDbLine
 10
94.002131179
 20
82.100646857
 30
0.000000000
 11
93.151867375
 21
82.376914314
 31
0.000000000
  0
LINE
  5
AF3
330
A02
100
AcDbEntity
  8
Bottom_plate_3mm
100
AcDbLine
 10
93.151867375
 20
82.376914314
 30
0.000000000
 11
92.487480837
 21
82.975130640
 31
0.000000000
  0
LINE
  5
AF4
330
A02
100
AcDbEntity
  8
Bottom_plate_3mm
100
AcDbLine
 10
92.487480837
 20
82.975130640
 30
0.000000000
 11
92.123850034
 21
83.791858797
 31
0.000000000
  0
LINE
  5
AF5
330
A02
100
AcDbEntity
  8
Bottom_plate_3mm
100
AcDbLine
 10
92.123850034
 20
83.791858797
 30
0.000000000
 11
92.123850034
 21
84.685879068
 31
0.000000000
  0
LINE
  5
AF6
330
A02
100
AcDbEntity
  8
Bottom_plate_3mm
100
AcDbLine
 10
92.123850034
 20
84.685879068
 30
0.000000000
 11
92.487480837
 21
85.502607225
 31
0.000000000
  0
LINE
  5
AF7
330
A02
100
AcDbEntity
  8
Bottom_plate_3mm
100
AcDbLine
 10
92.487480837
 20
85.502607225
 30
0.000000000
 11
93.151867375
 21
86.100823550
 31
0.000000000
  0
LINE
  5
AF8
330
A02
100
AcDbEntity
  8
Bottom_plate_3mm
100
AcDbLine
 10
93.151867375
 20
86.100823550
 30
0.000000000
 11
94.002131179
 21
86.377091007
 31
0.000000000
  0
LINE
  5
AF9
330
A02
100
AcDbEntity
  8
Bottom_plate_3mm
100
AcDbLine
 10
94.002131179
 20
86.377091007
 30
0.000000000
 11
94.891253913
 21
86.283640442
 31
0.000000000
  0
LINE
  5
AFA
330
A02
100
AcDbEntity
  8
Bottom_plate_3mm
100
AcDbLine
 10
94.891253913
 20
86.283640442
 30
0.000000000
 11
95.665498179
 21
85.836630307
 31
0.000000000
  0
LINE
  5
AFB
330
A02
100
AcDbEntity
  8
Bottom_plate_3mm
100
AcDbLine
 10
95.665498179
 20
85.836630307
 30
0.000000000
 11
96.190990109
 21
85.113352715
 31
0.000000000
  0
LINE
  5
AFC
330
A02
100
AcDbEntity
  8
Bottom_plate_3mm
100
AcDbLine
 10
96.190990109
 20
85.113352715
 30
0.000000000
 11
96.376867375
 21
84.238868932
 31
0.000000000
  0
LINE
  5
AFD
330
A02
100
AcDbEntity
  8
Bottom_plate_3mm
100
AcDbLine
 10
34.889675562
 20
189.290001614
 30
0.000000000
 11
34.717859600
 21
188.592916856
 31
0.000000000
  0
LINE
  5
AFE
330
A02
100
AcDbEntity
  8
Bottom_plate_3mm
100
AcDbLine
 10
34.717859600
 20
188.592916856
 30
0.000000000
 11
34.241772682
 21
188.055525815
 31
0.000000000
  0
LINE
  5
AFF
330
A02
100
AcDbEntity
  8
Bottom_plate_3mm
100
AcDbLine
 10
34.241772682
 20
188.055525815
 30
0.000000000
 11
33.570480582
 21
187.800938303
 31
0.000000000
  0
LINE
  5
B00
330
A02
100
AcDbEntity
  8
Bottom_plate_3mm
100
AcDbLine
 10
33.570480582
 20
187.800938303
 30
0.000000000
 11
32.857768231
 21
187.887477250
 31
0.000000000
  0
LINE
  5
B01
330
A02
100
AcDbEntity
  8
Bottom_plate_3mm
100
AcDbLine
 10
32.857768231
 20
187.887477250
 30
0.000000000
 11
32.266909440
 21
188.295317627
 31
0.000000000
  0
LINE
  5
B02
330
A02
100
AcDbEntity
  8
Bottom_plate_3mm
100
AcDbLine
 10
32.266909440
 20
188.295317627
 30
0.000000000
 11
31.933262836
 21
188.931028118
 31
0.000000000
  0
LINE
  5
B03
330
A02
100
AcDbEntity
  8
Bottom_plate_3mm
100
AcDbLine
 10
31.933262836
 20
188.931028118
 30
0.000000000
 11
31.933262836
 21
189.648975111
 31
0.000000000
  0
LINE
  5
B04
330
A02
100
AcDbEntity
  8
Bottom_plate_3mm
100
AcDbLine
 10
31.933262836
 20
189.648975111
 30
0.000000000
 11
32.266909440
 21
190.284685602
 31
0.000000000
  0
LINE
  5
B05
330
A02
100
AcDbEntity
  8
Bottom_plate_3mm
100
AcDbLine
 10
32.266909440
 20
190.284685602
 30
0.000000000
 11
32.857768231
 21
190.692525978
 31
0.000000000
  0
LINE
  5
B06
330
A02
100
AcDbEntity
  8
Bottom_plate_3mm
100
AcDbLine
 10
32.857768231
 20
190.692525978
 30
0.000000000
 11
33.570480582
 21
190.779064925
 31
0.000000000
  0
LINE
  5
B07
330
A02
100
AcDbEntity
  8
Bottom_plate_3mm
100
AcDbLine
 10
33.570480582
 20
190.779064925
 30
0.000000000
 11
34.241772682
 21
190.524477413
 31
0.000000000
  0
LINE
  5
B08
330
A02
100
AcDbEntity
  8
Bottom_plate_3mm
100
AcDbLine
 10
34.241772682
 20
190.524477413
 30
0.000000000
 11
34.717859600
 21
189.987086372
 31
0.000000000
  0
LINE
  5
B09
330
A02
100
AcDbEntity
  8
Bottom_plate_3mm
100
AcDbLine
 10
34.717859600
 20
189.987086372
 30
0.000000000
 11
34.889675562
 21
189.290001614
 31
0.000000000
  0
LINE
  5
B0A
330
A02
100
AcDbEntity
  8
Bottom_plate_3mm
100
AcDbLine
 10
65.939955888
 20
107.238933148
 30
0.000000000
 11
65.768139926
 21
106.541848390
 31
0.000000000
  0
LINE
  5
B0B
330
A02
100
AcDbEntity
  8
Bottom_plate_3mm
100
AcDbLine
 10
65.768139926
 20
106.541848390
 30
0.000000000
 11
65.292053008
 21
106.004457349
 31
0.000000000
  0
LINE
  5
B0C
330
A02
100
AcDbEntity
  8
Bottom_plate_3mm
100
AcDbLine
 10
65.292053008
 20
106.004457349
 30
0.000000000
 11
64.620760908
 21
105.749869837
 31
0.000000000
  0
LINE
  5
B0D
330
A02
100
AcDbEntity
  8
Bottom_plate_3mm
100
AcDbLine
 10
64.620760908
 20
105.749869837
 30
0.000000000
 11
63.908048557
 21
105.836408784
 31
0.000000000
  0
LINE
  5
B0E
330
A02
100
AcDbEntity
  8
Bottom_plate_3mm
100
AcDbLine
 10
63.908048557
 20
105.836408784
 30
0.000000000
 11
63.317189766
 21
106.244249161
 31
0.000000000
  0
LINE
  5
B0F
330
A02
100
AcDbEntity
  8
Bottom_plate_3mm
100
AcDbLine
 10
63.317189766
 20
106.244249161
 30
0.000000000
 11
62.983543162
 21
106.879959652
 31
0.000000000
  0
LINE
  5
B10
330
A02
100
AcDbEntity
  8
Bottom_plate_3mm
100
AcDbLine
 10
62.983543162
 20
106.879959652
 30
0.000000000
 11
62.983543162
 21
107.597906645
 31
0.000000000
  0
LINE
  5
B11
330
A02
100
AcDbEntity
  8
Bottom_plate_3mm
100
AcDbLine
 10
62.983543162
 20
107.597906645
 30
0.000000000
 11
63.317189766
 21
108.233617136
 31
0.000000000
  0
LINE
  5
B12
330
A02
100
AcDbEntity
  8
Bottom_plate_3mm
100
AcDbLine
 10
63.317189766
 20
108.233617136
 30
0.000000000
 11
63.908048557
 21
108.641457512
 31
0.000000000
  0
LINE
  5
B13
330
A02
100
AcDbEntity
  8
Bottom_plate_3mm
100
AcDbLine
 10
63.908048557
 20
108.641457512
 30
0.000000000
 11
64.620760908
 21
108.727996459
 31
0.000000000
  0
LINE
  5
B14
330
A02
100
AcDbEntity
  8
Bottom_plate_3mm
100
AcDbLine
 10
64.620760908
 20
108.727996459
 30
0.000000000
 11
65.292053008
 21
108.473408947
 31
0.000000000
  0
LINE
  5
B15
330
A02
100
AcDbEntity
  8
Bottom_plate_3mm
100
AcDbLine
 10
65.292053008
 20
108.473408947
 30
0.000000000
 11
65.768139926
 21
107.936017906
 31
0.000000000
  0
LINE
  5
B16
330
A02
100
AcDbEntity
  8
Bottom_plate_3mm
100
AcDbLine
 10
65.768139926
 20
107.936017906
 30
0.000000000
 11
65.939955888
 21
107.238933148
 31
0.000000000
  0
LINE
  5
B17
330
A02
100
AcDbEntity
  8
Bottom_plate_3mm
100
AcDbLine
 10
64.570049291
 20
68.234104954
 30
0.000000000
 11
64.395428177
 21
67.639400055
 31
0.000000000
  0
LINE
  5
B18
330
A02
100
AcDbEntity
  8
Bottom_plate_3mm
100
AcDbLine
 10
64.395428177
 20
67.639400055
 30
0.000000000
 11
63.927005805
 21
67.233509759
 31
0.000000000
  0
LINE
  5
B19
330
A02
100
AcDbEntity
  8
Bottom_plate_3mm
100
AcDbLine
 10
63.927005805
 20
67.233509759
 30
0.000000000
 11
63.313502969
 21
67.145301368
 31
0.000000000
  0
LINE
  5
B1A
330
A02
100
AcDbEntity
  8
Bottom_plate_3mm
100
AcDbLine
 10
63.313502969
 20
67.145301368
 30
0.000000000
 11
62.749702483
 21
67.402780422
 31
0.000000000
  0
LINE
  5
B1B
330
A02
100
AcDbEntity
  8
Bottom_plate_3mm
100
AcDbLine
 10
62.749702483
 20
67.402780422
 30
0.000000000
 11
62.414607020
 21
67.924199142
 31
0.000000000
  0
LINE
  5
B1C
330
A02
100
AcDbEntity
  8
Bottom_plate_3mm
100
AcDbLine
 10
62.414607020
 20
67.924199142
 30
0.000000000
 11
62.414607020
 21
68.544010767
 31
0.000000000
  0
LINE
  5
B1D
330
A02
100
AcDbEntity
  8
Bottom_plate_3mm
100
AcDbLine
 10
62.414607020
 20
68.544010767
 30
0.000000000
 11
62.749702483
 21
69.065429486
 31
0.000000000
  0
LINE
  5
B1E
330
A02
100
AcDbEntity
  8
Bottom_plate_3mm
100
AcDbLine
 10
62.749702483
 20
69.065429486
 30
0.000000000
 11
63.313502969
 21
69.322908540
 31
0.000000000
  0
LINE
  5
B1F
330
A02
100
AcDbEntity
  8
Bottom_plate_3mm
100
AcDbLine
 10
63.313502969
 20
69.322908540
 30
0.000000000
 11
63.927005805
 21
69.234700149
 31
0.000000000
  0
LINE
  5
B20
330
A02
100
AcDbEntity
  8
Bottom_plate_3mm
100
AcDbLine
 10
63.927005805
 20
69.234700149
 30
0.000000000
 11
64.395428177
 21
68.828809853
 31
0.000000000
  0
LINE
  5
B21
330
A02
100
AcDbEntity
  8
Bottom_plate_3mm
100
AcDbLine
 10
64.395428177
 20
68.828809853
 30
0.000000000
 11
64.570049291
 21
68.234104954
 31
0.000000000
  0
LINE
  5
B22
330
A02
100
AcDbEntity
  8
Bottom_plate_3mm
100
AcDbLine
 10
39.470049291
 20
30.136937575
 30
0.000000000
 11
39.470049291
 21
33.652768365
 31
0.000000000
  0
LINE
  5
B23
330
A02
100
AcDbEntity
  8
Bottom_plate_3mm
100
AcDbLine
 10
39.470049291
 20
30.136937575
 30
0.000000000
 11
39.279066285
 21
29.549152322
 31
0.000000000
  0
LINE
  5
B24
330
A02
100
AcDbEntity
  8
Bottom_plate_3mm
100
AcDbLine
 10
39.279066285
 20
29.549152322
 30
0.000000000
 11
38.779066285
 21
29.185881058
 31
0.000000000
  0
LINE
  5
B25
330
A02
100
AcDbEntity
  8
Bottom_plate_3mm
100
AcDbLine
 10
38.779066285
 20
29.185881058
 30
0.000000000
 11
38.161032296
 21
29.185881058
 31
0.000000000
  0
LINE
  5
B26
330
A02
100
AcDbEntity
  8
Bottom_plate_3mm
100
AcDbLine
 10
38.161032296
 20
29.185881058
 30
0.000000000
 11
37.661032296
 21
29.549152322
 31
0.000000000
  0
LINE
  5
B27
330
A02
100
AcDbEntity
  8
Bottom_plate_3mm
100
AcDbLine
 10
37.661032296
 20
29.549152322
 30
0.000000000
 11
37.470049291
 21
30.136937575
 31
0.000000000
  0
LINE
  5
B28
330
A02
100
AcDbEntity
  8
Bottom_plate_3mm
100
AcDbLine
 10
37.470049291
 20
33.652768365
 30
0.000000000
 11
37.661032296
 21
34.240553617
 31
0.000000000
  0
LINE
  5
B29
330
A02
100
AcDbEntity
  8
Bottom_plate_3mm
100
AcDbLine
 10
37.661032296
 20
34.240553617
 30
0.000000000
 11
38.161032296
 21
34.603824881
 31
0.000000000
  0
LINE
  5
B2A
330
A02
100
AcDbEntity
  8
Bottom_plate_3mm
100
AcDbLine
 10
38.161032296
 20
34.603824881
 30
0.000000000
 11
38.779066285
 21
34.603824881
 31
0.000000000
  0
LINE
  5
B2B
330
A02
100
AcDbEntity
  8
Bottom_plate_3mm
100
AcDbLine
 10
38.779066285
 20
34.603824881
 30
0.000000000
 11
39.279066285
 21
34.240553617
 31
0.000000000
  0
LINE
  5
B2C
330
A02
100
AcDbEntity
  8
Bottom_plate_3mm
100
AcDbLine
 10
39.279066285
 20
34.240553617
 30
0.000000000
 11
39.470049291
 21
33.652768365
 31
0.000000000
  0
LINE
  5
B2D
330
A02
100
AcDbEntity
  8
Bottom_plate_3mm
100
AcDbLine
 10
37.470049291
 20
33.652768365
 30
0.000000000
 11
37.470049291
 21
30.136937575
 31
0.000000000
  0
LINE
  5
B2E
330
A02
100
AcDbEntity
  8
Bottom_plate_3mm
100
AcDbLine
 10
39.470049291
 20
57.266954907
 30
0.000000000
 11
39.470049291
 21
60.782785697
 31
0.000000000
  0
LINE
  5
B2F
330
A02
100
AcDbEntity
  8
Bottom_plate_3mm
100
AcDbLine
 10
39.470049291
 20
57.266954907
 30
0.000000000
 11
39.279066285
 21
56.679169654
 31
0.000000000
  0
LINE
  5
B30
330
A02
100
AcDbEntity
  8
Bottom_plate_3mm
100
AcDbLine
 10
39.279066285
 20
56.679169654
 30
0.000000000
 11
38.779066285
 21
56.315898390
 31
0.000000000
  0
LINE
  5
B31
330
A02
100
AcDbEntity
  8
Bottom_plate_3mm
100
AcDbLine
 10
38.779066285
 20
56.315898390
 30
0.000000000
 11
38.161032296
 21
56.315898390
 31
0.000000000
  0
LINE
  5
B32
330
A02
100
AcDbEntity
  8
Bottom_plate_3mm
100
AcDbLine
 10
38.161032296
 20
56.315898390
 30
0.000000000
 11
37.661032296
 21
56.679169654
 31
0.000000000
  0
LINE
  5
B33
330
A02
100
AcDbEntity
  8
Bottom_plate_3mm
100
AcDbLine
 10
37.661032296
 20
56.679169654
 30
0.000000000
 11
37.470049291
 21
57.266954907
 31
0.000000000
  0
LINE
  5
B34
330
A02
100
AcDbEntity
  8
Bottom_plate_3mm
100
AcDbLine
 10
37.470049291
 20
60.782785697
 30
0.000000000
 11
37.661032296
 21
61.370570949
 31
0.000000000
  0
LINE
  5
B35
330
A02
100
AcDbEntity
  8
Bottom_plate_3mm
100
AcDbLine
 10
37.661032296
 20
61.370570949
 30
0.000000000
 11
38.161032296
 21
61.733842213
 31
0.000000000
  0
LINE
  5
B36
330
A02
100
AcDbEntity
  8
Bottom_plate_3mm
100
AcDbLine
 10
38.161032296
 20
61.733842213
 30
0.000000000
 11
38.779066285
 21
61.733842213
 31
0.000000000
  0
LINE
  5
B37
330
A02
100
AcDbEntity
  8
Bottom_plate_3mm
100
AcDbLine
 10
38.779066285
 20
61.733842213
 30
0.000000000
 11
39.279066285
 21
61.370570949
 31
0.000000000
  0
LINE
  5
B38
330
A02
100
AcDbEntity
  8
Bottom_plate_3mm
100
AcDbLine
 10
39.279066285
 20
61.370570949
 30
0.000000000
 11
39.470049291
 21
60.782785697
 31
0.000000000
  0
LINE
  5
B39
330
A02
100
AcDbEntity
  8
Bottom_plate_3mm
100
AcDbLine
 10
37.470049291
 20
60.782785697
 30
0.000000000
 11
37.470049291
 21
57.266954907
 31
0.000000000
  0
LINE
  5
B3A
330
A02
100
AcDbEntity
  8
Bottom_plate_3mm
100
AcDbLine
 10
69.470049291
 20
30.136937575
 30
0.000000000
 11
69.470049291
 21
33.652768365
 31
0.000000000
  0
LINE
  5
B3B
330
A02
100
AcDbEntity
  8
Bottom_plate_3mm
100
AcDbLine
 10
69.470049291
 20
30.136937575
 30
0.000000000
 11
69.279066285
 21
29.549152322
 31
0.000000000
  0
LINE
  5
B3C
330
A02
100
AcDbEntity
  8
Bottom_plate_3mm
100
AcDbLine
 10
69.279066285
 20
29.549152322
 30
0.000000000
 11
68.779066285
 21
29.185881058
 31
0.000000000
  0
LINE
  5
B3D
330
A02
100
AcDbEntity
  8
Bottom_plate_3mm
100
AcDbLine
 10
68.779066285
 20
29.185881058
 30
0.000000000
 11
68.161032296
 21
29.185881058
 31
0.000000000
  0
LINE
  5
B3E
330
A02
100
AcDbEntity
  8
Bottom_plate_3mm
100
AcDbLine
 10
68.161032296
 20
29.185881058
 30
0.000000000
 11
67.661032296
 21
29.549152322
 31
0.000000000
  0
LINE
  5
B3F
330
A02
100
AcDbEntity
  8
Bottom_plate_3mm
100
AcDbLine
 10
67.661032296
 20
29.549152322
 30
0.000000000
 11
67.470049291
 21
30.136937575
 31
0.000000000
  0
LINE
  5
B40
330
A02
100
AcDbEntity
  8
Bottom_plate_3mm
100
AcDbLine
 10
67.470049291
 20
33.652768365
 30
0.000000000
 11
67.661032296
 21
34.240553617
 31
0.000000000
  0
LINE
  5
B41
330
A02
100
AcDbEntity
  8
Bottom_plate_3mm
100
AcDbLine
 10
67.661032296
 20
34.240553617
 30
0.000000000
 11
68.161032296
 21
34.603824881
 31
0.000000000
  0
LINE
  5
B42
330
A02
100
AcDbEntity
  8
Bottom_plate_3mm
100
AcDbLine
 10
68.161032296
 20
34.603824881
 30
0.000000000
 11
68.779066285
 21
34.603824881
 31
0.000000000
  0
LINE
  5
B43
330
A02
100
AcDbEntity
  8
Bottom_plate_3mm
100
AcDbLine
 10
68.779066285
 20
34.603824881
 30
0.000000000
 11
69.279066285
 21
34.240553617
 31
0.000000000
  0
LINE
  5
B44
330
A02
100
AcDbEntity
  8
Bottom_plate_3mm
100
AcDbLine
 10
69.279066285
 20
34.240553617
 30
0.000000000
 11
69.470049291
 21
33.652768365
 31
0.000000000
  0
LINE
  5
B45
330
A02
100
AcDbEntity
  8
Bottom_plate_3mm
100
AcDbLine
 10
67.470049291
 20
33.652768365
 30
0.000000000
 11
67.470049291
 21
30.136937575
 31
0.000000000
  0
LINE
  5
B46
330
A02
100
AcDbEntity
  8
Bottom_plate_3mm
100
AcDbLine
 10
59.409067438
 20
139.804169759
 30
0.000000000
 11
66.943981395
 21
158.091836410
 31
0.000000000
  0
LINE
  5
B47
330
A02
100
AcDbEntity
  8
Bottom_plate_3mm
100
AcDbLine
 10
59.409067438
 20
139.804169759
 30
0.000000000
 11
59.012952961
 21
139.249383959
 31
0.000000000
  0
LINE
  5
B48
330
A02
100
AcDbEntity
  8
Bottom_plate_3mm
100
AcDbLine
 10
59.012952961
 20
139.249383959
 30
0.000000000
 11
58.412212626
 21
138.927196105
 31
0.000000000
  0
LINE
  5
B49
330
A02
100
AcDbEntity
  8
Bottom_plate_3mm
100
AcDbLine
 10
58.412212626
 20
138.927196105
 30
0.000000000
 11
57.730917725
 21
138.904147865
 31
0.000000000
  0
LINE
  5
B4A
330
A02
100
AcDbEntity
  8
Bottom_plate_3mm
100
AcDbLine
 10
57.730917725
 20
138.904147865
 30
0.000000000
 11
57.109776537
 21
139.184999406
 31
0.000000000
  0
LINE
  5
B4B
330
A02
100
AcDbEntity
  8
Bottom_plate_3mm
100
AcDbLine
 10
57.109776537
 20
139.184999406
 30
0.000000000
 11
56.677073756
 21
139.711746277
 31
0.000000000
  0
LINE
  5
B4C
330
A02
100
AcDbEntity
  8
Bottom_plate_3mm
100
AcDbLine
 10
56.677073756
 20
139.711746277
 30
0.000000000
 11
56.522175768
 21
140.375599105
 31
0.000000000
  0
LINE
  5
B4D
330
A02
100
AcDbEntity
  8
Bottom_plate_3mm
100
AcDbLine
 10
66.662898197
 20
159.555008758
 30
0.000000000
 11
66.927120172
 21
159.110475109
 31
0.000000000
  0
LINE
  5
B4E
330
A02
100
AcDbEntity
  8
Bottom_plate_3mm
100
AcDbLine
 10
66.927120172
 20
159.110475109
 30
0.000000000
 11
67.024679713
 21
158.602631084
 31
0.000000000
  0
LINE
  5
B4F
330
A02
100
AcDbEntity
  8
Bottom_plate_3mm
100
AcDbLine
 10
67.024679713
 20
158.602631084
 30
0.000000000
 11
66.943981395
 21
158.091836410
 31
0.000000000
  0
LINE
  5
B50
330
A02
100
AcDbEntity
  8
Bottom_plate_3mm
100
AcDbLine
 10
56.522175768
 20
167.315169334
 30
0.000000000
 11
56.522175768
 21
140.375599105
 31
0.000000000
  0
LINE
  5
B51
330
A02
100
AcDbEntity
  8
Bottom_plate_3mm
100
AcDbLine
 10
56.522175768
 20
167.315169334
 30
0.000000000
 11
56.696154019
 21
168.016358551
 31
0.000000000
  0
LINE
  5
B52
330
A02
100
AcDbEntity
  8
Bottom_plate_3mm
100
AcDbLine
 10
56.696154019
 20
168.016358551
 30
0.000000000
 11
57.177730861
 21
168.554892205
 31
0.000000000
  0
LINE
  5
B53
330
A02
100
AcDbEntity
  8
Bottom_plate_3mm
100
AcDbLine
 10
57.177730861
 20
168.554892205
 30
0.000000000
 11
57.855194433
 21
168.805846104
 31
0.000000000
  0
LINE
  5
B54
330
A02
100
AcDbEntity
  8
Bottom_plate_3mm
100
AcDbLine
 10
57.855194433
 20
168.805846104
 30
0.000000000
 11
58.571392832
 21
168.711006221
 31
0.000000000
  0
LINE
  5
B55
330
A02
100
AcDbEntity
  8
Bottom_plate_3mm
100
AcDbLine
 10
58.571392832
 20
168.711006221
 30
0.000000000
 11
59.160188800
 21
168.292372660
 31
0.000000000
  0
LINE
  5
B56
330
A02
100
AcDbEntity
  8
Bottom_plate_3mm
100
AcDbLine
 10
66.662898197
 20
159.555008758
 30
0.000000000
 11
59.160188800
 21
168.292372660
 31
0.000000000
  0
LINE
  5
B57
330
A02
100
AcDbEntity
  8
Bottom_plate_3mm
100
AcDbLine
 10
49.977616462
 20
10.613624237
 30
0.000000000
 11
48.608443221
 21
12.231902444
 31
0.000000000
  0
LINE
  5
B58
330
A02
100
AcDbEntity
  8
Bottom_plate_3mm
100
AcDbLine
 10
49.977616462
 20
10.613624237
 30
0.000000000
 11
50.187205483
 21
10.198493052
 31
0.000000000
  0
LINE
  5
B59
330
A02
100
AcDbEntity
  8
Bottom_plate_3mm
100
AcDbLine
 10
50.187205483
 20
10.198493052
 30
0.000000000
 11
50.186370448
 21
9.733454602
 31
0.000000000
  0
LINE
  5
B5A
330
A02
100
AcDbEntity
  8
Bottom_plate_3mm
100
AcDbLine
 10
50.186370448
 20
9.733454602
 30
0.000000000
 11
49.975291945
 21
9.319078778
 31
0.000000000
  0
LINE
  5
B5B
330
A02
100
AcDbEntity
  8
Bottom_plate_3mm
100
AcDbLine
 10
47.083930460
 20
12.234639896
 30
0.000000000
 11
47.561818258
 21
12.545057447
 31
0.000000000
  0
LINE
  5
B5C
330
A02
100
AcDbEntity
  8
Bottom_plate_3mm
100
AcDbLine
 10
47.561818258
 20
12.545057447
 30
0.000000000
 11
48.131673289
 21
12.544034202
 31
0.000000000
  0
LINE
  5
B5D
330
A02
100
AcDbEntity
  8
Bottom_plate_3mm
100
AcDbLine
 10
48.131673289
 20
12.544034202
 30
0.000000000
 11
48.608443221
 21
12.231902444
 31
0.000000000
  0
LINE
  5
B5E
330
A02
100
AcDbEntity
  8
Bottom_plate_3mm
100
AcDbLine
 10
48.763802643
 20
7.897557877
 30
0.000000000
 11
49.975291945
 21
9.319078778
 31
0.000000000
  0
LINE
  5
B5F
330
A02
100
AcDbEntity
  8
Bottom_plate_3mm
100
AcDbLine
 10
48.763802643
 20
7.897557877
 30
0.000000000
 11
48.323489160
 21
7.599045817
 31
0.000000000
  0
LINE
  5
B60
330
A02
100
AcDbEntity
  8
Bottom_plate_3mm
100
AcDbLine
 10
48.323489160
 20
7.599045817
 30
0.000000000
 11
47.792399436
 21
7.568564385
 31
0.000000000
  0
LINE
  5
B61
330
A02
100
AcDbEntity
  8
Bottom_plate_3mm
100
AcDbLine
 10
46.052227221
 20
7.942910686
 30
0.000000000
 11
47.792399436
 21
7.568564385
 31
0.000000000
  0
LINE
  5
B62
330
A02
100
AcDbEntity
  8
Bottom_plate_3mm
100
AcDbLine
 10
46.052227221
 20
7.942910686
 30
0.000000000
 11
45.645587732
 21
8.133542166
 31
0.000000000
  0
LINE
  5
B63
330
A02
100
AcDbEntity
  8
Bottom_plate_3mm
100
AcDbLine
 10
45.645587732
 20
8.133542166
 30
0.000000000
 11
45.363384324
 21
8.482909125
 31
0.000000000
  0
LINE
  5
B64
330
A02
100
AcDbEntity
  8
Bottom_plate_3mm
100
AcDbLine
 10
45.363384324
 20
8.482909125
 30
0.000000000
 11
45.262536306
 21
8.920545633
 31
0.000000000
  0
LINE
  5
B65
330
A02
100
AcDbEntity
  8
Bottom_plate_3mm
100
AcDbLine
 10
45.262536306
 20
9.729159790
 30
0.000000000
 11
45.262536306
 21
8.920545633
 31
0.000000000
  0
LINE
  5
B66
330
A02
100
AcDbEntity
  8
Bottom_plate_3mm
100
AcDbLine
 10
45.262536306
 20
9.729159790
 30
0.000000000
 11
45.324161615
 21
10.074779435
 31
0.000000000
  0
LINE
  5
B67
330
A02
100
AcDbEntity
  8
Bottom_plate_3mm
100
AcDbLine
 10
45.324161615
 20
10.074779435
 30
0.000000000
 11
45.501442184
 21
10.377801245
 31
0.000000000
  0
LINE
  5
B68
330
A02
100
AcDbEntity
  8
Bottom_plate_3mm
100
AcDbLine
 10
47.083930460
 20
12.234639896
 30
0.000000000
 11
45.501442184
 21
10.377801245
 31
0.000000000
  0
LINE
  5
B69
330
A02
100
AcDbEntity
  8
Bottom_plate_3mm
100
AcDbLine
 10
54.970049291
 20
84.717820979
 30
0.000000000
 11
54.798233329
 21
84.020736221
 31
0.000000000
  0
LINE
  5
B6A
330
A02
100
AcDbEntity
  8
Bottom_plate_3mm
100
AcDbLine
 10
54.798233329
 20
84.020736221
 30
0.000000000
 11
54.322146411
 21
83.483345180
 31
0.000000000
  0
LINE
  5
B6B
330
A02
100
AcDbEntity
  8
Bottom_plate_3mm
100
AcDbLine
 10
54.322146411
 20
83.483345180
 30
0.000000000
 11
53.650854311
 21
83.228757668
 31
0.000000000
  0
LINE
  5
B6C
330
A02
100
AcDbEntity
  8
Bottom_plate_3mm
100
AcDbLine
 10
53.650854311
 20
83.228757668
 30
0.000000000
 11
52.938141960
 21
83.315296615
 31
0.000000000
  0
LINE
  5
B6D
330
A02
100
AcDbEntity
  8
Bottom_plate_3mm
100
AcDbLine
 10
52.938141960
 20
83.315296615
 30
0.000000000
 11
52.347283169
 21
83.723136991
 31
0.000000000
  0
LINE
  5
B6E
330
A02
100
AcDbEntity
  8
Bottom_plate_3mm
100
AcDbLine
 10
52.347283169
 20
83.723136991
 30
0.000000000
 11
52.013636565
 21
84.358847482
 31
0.000000000
  0
LINE
  5
B6F
330
A02
100
AcDbEntity
  8
Bottom_plate_3mm
100
AcDbLine
 10
52.013636565
 20
84.358847482
 30
0.000000000
 11
52.013636565
 21
85.076794475
 31
0.000000000
  0
LINE
  5
B70
330
A02
100
AcDbEntity
  8
Bottom_plate_3mm
100
AcDbLine
 10
52.013636565
 20
85.076794475
 30
0.000000000
 11
52.347283169
 21
85.712504966
 31
0.000000000
  0
LINE
  5
B71
330
A02
100
AcDbEntity
  8
Bottom_plate_3mm
100
AcDbLine
 10
52.347283169
 20
85.712504966
 30
0.000000000
 11
52.938141960
 21
86.120345343
 31
0.000000000
  0
LINE
  5
B72
330
A02
100
AcDbEntity
  8
Bottom_plate_3mm
100
AcDbLine
 10
52.938141960
 20
86.120345343
 30
0.000000000
 11
53.650854311
 21
86.206884290
 31
0.000000000
  0
LINE
  5
B73
330
A02
100
AcDbEntity
  8
Bottom_plate_3mm
100
AcDbLine
 10
53.650854311
 20
86.206884290
 30
0.000000000
 11
54.322146411
 21
85.952296778
 31
0.000000000
  0
LINE
  5
B74
330
A02
100
AcDbEntity
  8
Bottom_plate_3mm
100
AcDbLine
 10
54.322146411
 20
85.952296778
 30
0.000000000
 11
54.798233329
 21
85.414905737
 31
0.000000000
  0
LINE
  5
B75
330
A02
100
AcDbEntity
  8
Bottom_plate_3mm
100
AcDbLine
 10
54.798233329
 20
85.414905737
 30
0.000000000
 11
54.970049291
 21
84.717820979
 31
0.000000000
  0
LINE
  5
B76
330
A02
100
AcDbEntity
  8
Bottom_plate_3mm
100
AcDbLine
 10
69.470049291
 20
57.266954907
 30
0.000000000
 11
69.470049291
 21
60.782785697
 31
0.000000000
  0
LINE
  5
B77
330
A02
100
AcDbEntity
  8
Bottom_plate_3mm
100
AcDbLine
 10
69.470049291
 20
57.266954907
 30
0.000000000
 11
69.279066285
 21
56.679169654
 31
0.000000000
  0
LINE
  5
B78
330
A02
100
AcDbEntity
  8
Bottom_plate_3mm
100
AcDbLine
 10
69.279066285
 20
56.679169654
 30
0.000000000
 11
68.779066285
 21
56.315898390
 31
0.000000000
  0
LINE
  5
B79
330
A02
100
AcDbEntity
  8
Bottom_plate_3mm
100
AcDbLine
 10
68.779066285
 20
56.315898390
 30
0.000000000
 11
68.161032296
 21
56.315898390
 31
0.000000000
  0
LINE
  5
B7A
330
A02
100
AcDbEntity
  8
Bottom_plate_3mm
100
AcDbLine
 10
68.161032296
 20
56.315898390
 30
0.000000000
 11
67.661032296
 21
56.679169654
 31
0.000000000
  0
LINE
  5
B7B
330
A02
100
AcDbEntity
  8
Bottom_plate_3mm
100
AcDbLine
 10
67.661032296
 20
56.679169654
 30
0.000000000
 11
67.470049291
 21
57.266954907
 31
0.000000000
  0
LINE
  5
B7C
330
A02
100
AcDbEntity
  8
Bottom_plate_3mm
100
AcDbLine
 10
67.470049291
 20
60.782785697
 30
0.000000000
 11
67.661032296
 21
61.370570949
 31
0.000000000
  0
LINE
  5
B7D
330
A02
100
AcDbEntity
  8
Bottom_plate_3mm
100
AcDbLine
 10
67.661032296
 20
61.370570949
 30
0.000000000
 11
68.161032296
 21
61.733842213
 31
0.000000000
  0
LINE
  5
B7E
330
A02
100
AcDbEntity
  8
Bottom_plate_3mm
100
AcDbLine
 10
68.161032296
 20
61.733842213
 30
0.000000000
 11
68.779066285
 21
61.733842213
 31
0.000000000
  0
LINE
  5
B7F
330
A02
100
AcDbEntity
  8
Bottom_plate_3mm
100
AcDbLine
 10
68.779066285
 20
61.733842213
 30
0.000000000
 11
69.279066285
 21
61.370570949
 31
0.000000000
  0
LINE
  5
B80
330
A02
100
AcDbEntity
  8
Bottom_plate_3mm
100
AcDbLine
 10
69.279066285
 20
61.370570949
 30
0.000000000
 11
69.470049291
 21
60.782785697
 31
0.000000000
  0
LINE
  5
B81
330
A02
100
AcDbEntity
  8
Bottom_plate_3mm
100
AcDbLine
 10
67.470049291
 20
60.782785697
 30
0.000000000
 11
67.470049291
 21
57.266954907
 31
0.000000000
  0
LINE
  5
B82
330
A02
100
AcDbEntity
  8
Bottom_plate_3mm
100
AcDbLine
 10
52.693977871
 20
11.047705873
 30
0.000000000
 11
52.273207151
 21
11.140538853
 31
0.000000000
  0
LINE
  5
B83
330
A02
100
AcDbEntity
  8
Bottom_plate_3mm
100
AcDbLine
 10
52.273207151
 20
11.140538853
 30
0.000000000
 11
51.930559232
 21
11.401801870
 31
0.000000000
  0
LINE
  5
B84
330
A02
100
AcDbEntity
  8
Bottom_plate_3mm
100
AcDbLine
 10
52.693977871
 20
11.047705873
 30
0.000000000
 11
54.246120711
 21
11.047705873
 31
0.000000000
  0
LINE
  5
B85
330
A02
100
AcDbEntity
  8
Bottom_plate_3mm
100
AcDbLine
 10
49.710934865
 20
14.025260782
 30
0.000000000
 11
51.930559232
 21
11.401801870
 31
0.000000000
  0
LINE
  5
B86
330
A02
100
AcDbEntity
  8
Bottom_plate_3mm
100
AcDbLine
 10
49.710934865
 20
14.025260782
 30
0.000000000
 11
49.501345845
 21
14.440391966
 31
0.000000000
  0
LINE
  5
B87
330
A02
100
AcDbEntity
  8
Bottom_plate_3mm
100
AcDbLine
 10
49.501345845
 20
14.440391966
 30
0.000000000
 11
49.502180879
 21
14.905430417
 31
0.000000000
  0
LINE
  5
B88
330
A02
100
AcDbEntity
  8
Bottom_plate_3mm
100
AcDbLine
 10
49.502180879
 20
14.905430417
 30
0.000000000
 11
49.713259383
 21
15.319806240
 31
0.000000000
  0
LINE
  5
B89
330
A02
100
AcDbEntity
  8
Bottom_plate_3mm
100
AcDbLine
 10
52.708955169
 20
18.834855170
 30
0.000000000
 11
49.713259383
 21
15.319806240
 31
0.000000000
  0
LINE
  5
B8A
330
A02
100
AcDbEntity
  8
Bottom_plate_3mm
100
AcDbLine
 10
52.708955169
 20
18.834855170
 30
0.000000000
 11
53.185695098
 21
19.144933013
 31
0.000000000
  0
LINE
  5
B8B
330
A02
100
AcDbEntity
  8
Bottom_plate_3mm
100
AcDbLine
 10
53.185695098
 20
19.144933013
 30
0.000000000
 11
53.754403484
 21
19.144933013
 31
0.000000000
  0
LINE
  5
B8C
330
A02
100
AcDbEntity
  8
Bottom_plate_3mm
100
AcDbLine
 10
53.754403484
 20
19.144933013
 30
0.000000000
 11
54.231143413
 21
18.834855170
 31
0.000000000
  0
LINE
  5
B8D
330
A02
100
AcDbEntity
  8
Bottom_plate_3mm
100
AcDbLine
 10
57.226839199
 20
15.319806240
 30
0.000000000
 11
54.231143413
 21
18.834855170
 31
0.000000000
  0
LINE
  5
B8E
330
A02
100
AcDbEntity
  8
Bottom_plate_3mm
100
AcDbLine
 10
57.226839199
 20
15.319806240
 30
0.000000000
 11
57.437917702
 21
14.905430417
 31
0.000000000
  0
LINE
  5
B8F
330
A02
100
AcDbEntity
  8
Bottom_plate_3mm
100
AcDbLine
 10
57.437917702
 20
14.905430417
 30
0.000000000
 11
57.438752737
 21
14.440391966
 31
0.000000000
  0
LINE
  5
B90
330
A02
100
AcDbEntity
  8
Bottom_plate_3mm
100
AcDbLine
 10
57.438752737
 20
14.440391966
 30
0.000000000
 11
57.229163716
 21
14.025260782
 31
0.000000000
  0
LINE
  5
B91
330
A02
100
AcDbEntity
  8
Bottom_plate_3mm
100
AcDbLine
 10
55.009539350
 20
11.401801870
 30
0.000000000
 11
57.229163716
 21
14.025260782
 31
0.000000000
  0
LINE
  5
B92
330
A02
100
AcDbEntity
  8
Bottom_plate_3mm
100
AcDbLine
 10
55.009539350
 20
11.401801870
 30
0.000000000
 11
54.666891430
 21
11.140538853
 31
0.000000000
  0
LINE
  5
B93
330
A02
100
AcDbEntity
  8
Bottom_plate_3mm
100
AcDbLine
 10
54.666891430
 20
11.140538853
 30
0.000000000
 11
54.246120711
 21
11.047705873
 31
0.000000000
  0
LINE
  5
B94
330
A02
100
AcDbEntity
  8
Bottom_plate_3mm
100
AcDbLine
 10
58.331655360
 20
12.231902444
 30
0.000000000
 11
56.962482119
 21
10.613624237
 31
0.000000000
  0
LINE
  5
B95
330
A02
100
AcDbEntity
  8
Bottom_plate_3mm
100
AcDbLine
 10
58.331655360
 20
12.231902444
 30
0.000000000
 11
58.808425293
 21
12.544034202
 31
0.000000000
  0
LINE
  5
B96
330
A02
100
AcDbEntity
  8
Bottom_plate_3mm
100
AcDbLine
 10
58.808425293
 20
12.544034202
 30
0.000000000
 11
59.378280324
 21
12.545057447
 31
0.000000000
  0
LINE
  5
B97
330
A02
100
AcDbEntity
  8
Bottom_plate_3mm
100
AcDbLine
 10
59.378280324
 20
12.545057447
 30
0.000000000
 11
59.856168121
 21
12.234639896
 31
0.000000000
  0
LINE
  5
B98
330
A02
100
AcDbEntity
  8
Bottom_plate_3mm
100
AcDbLine
 10
56.964806637
 20
9.319078778
 30
0.000000000
 11
56.753728133
 21
9.733454602
 31
0.000000000
  0
LINE
  5
B99
330
A02
100
AcDbEntity
  8
Bottom_plate_3mm
100
AcDbLine
 10
56.753728133
 20
9.733454602
 30
0.000000000
 11
56.752893099
 21
10.198493052
 31
0.000000000
  0
LINE
  5
B9A
330
A02
100
AcDbEntity
  8
Bottom_plate_3mm
100
AcDbLine
 10
56.752893099
 20
10.198493052
 30
0.000000000
 11
56.962482119
 21
10.613624237
 31
0.000000000
  0
LINE
  5
B9B
330
A02
100
AcDbEntity
  8
Bottom_plate_3mm
100
AcDbLine
 10
61.438656398
 20
10.377801245
 30
0.000000000
 11
59.856168121
 21
12.234639896
 31
0.000000000
  0
LINE
  5
B9C
330
A02
100
AcDbEntity
  8
Bottom_plate_3mm
100
AcDbLine
 10
61.438656398
 20
10.377801245
 30
0.000000000
 11
61.615936967
 21
10.074779435
 31
0.000000000
  0
LINE
  5
B9D
330
A02
100
AcDbEntity
  8
Bottom_plate_3mm
100
AcDbLine
 10
61.615936967
 20
10.074779435
 30
0.000000000
 11
61.677562276
 21
9.729159790
 31
0.000000000
  0
LINE
  5
B9E
330
A02
100
AcDbEntity
  8
Bottom_plate_3mm
100
AcDbLine
 10
61.677562276
 20
8.920545633
 30
0.000000000
 11
61.677562276
 21
9.729159790
 31
0.000000000
  0
LINE
  5
B9F
330
A02
100
AcDbEntity
  8
Bottom_plate_3mm
100
AcDbLine
 10
61.677562276
 20
8.920545633
 30
0.000000000
 11
61.576714258
 21
8.482909125
 31
0.000000000
  0
LINE
  5
BA0
330
A02
100
AcDbEntity
  8
Bottom_plate_3mm
100
AcDbLine
 10
61.576714258
 20
8.482909125
 30
0.000000000
 11
61.294510850
 21
8.133542166
 31
0.000000000
  0
LINE
  5
BA1
330
A02
100
AcDbEntity
  8
Bottom_plate_3mm
100
AcDbLine
 10
61.294510850
 20
8.133542166
 30
0.000000000
 11
60.887871361
 21
7.942910686
 31
0.000000000
  0
LINE
  5
BA2
330
A02
100
AcDbEntity
  8
Bottom_plate_3mm
100
AcDbLine
 10
59.147699146
 20
7.568564385
 30
0.000000000
 11
60.887871361
 21
7.942910686
 31
0.000000000
  0
LINE
  5
BA3
330
A02
100
AcDbEntity
  8
Bottom_plate_3mm
100
AcDbLine
 10
59.147699146
 20
7.568564385
 30
0.000000000
 11
58.616609421
 21
7.599045817
 31
0.000000000
  0
LINE
  5
BA4
330
A02
100
AcDbEntity
  8
Bottom_plate_3mm
100
AcDbLine
 10
58.616609421
 20
7.599045817
 30
0.000000000
 11
58.176295939
 21
7.897557877
 31
0.000000000
  0
LINE
  5
BA5
330
A02
100
AcDbEntity
  8
Bottom_plate_3mm
100
AcDbLine
 10
56.964806637
 20
9.319078778
 30
0.000000000
 11
58.176295939
 21
7.897557877
 31
0.000000000
  0
LINE
  5
BA6
330
A02
100
AcDbEntity
  8
Bottom_plate_3mm
100
AcDbLine
 10
63.808489435
 20
179.339337367
 30
0.000000000
 11
63.808489435
 21
188.343966094
 31
0.000000000
  0
LINE
  5
BA7
330
A02
100
AcDbEntity
  8
Bottom_plate_3mm
100
AcDbLine
 10
63.808489435
 20
179.339337367
 30
0.000000000
 11
63.629271022
 21
178.768095223
 31
0.000000000
  0
LINE
  5
BA8
330
A02
100
AcDbEntity
  8
Bottom_plate_3mm
100
AcDbLine
 10
63.629271022
 20
178.768095223
 30
0.000000000
 11
63.155854262
 21
178.401607300
 31
0.000000000
  0
LINE
  5
BA9
330
A02
100
AcDbEntity
  8
Bottom_plate_3mm
100
AcDbLine
 10
63.155854262
 20
178.401607300
 30
0.000000000
 11
62.557929155
 21
178.371236366
 31
0.000000000
  0
LINE
  5
BAA
330
A02
100
AcDbEntity
  8
Bottom_plate_3mm
100
AcDbLine
 10
62.557929155
 20
178.371236366
 30
0.000000000
 11
62.049814081
 21
178.687868483
 31
0.000000000
  0
LINE
  5
BAB
330
A02
100
AcDbEntity
  8
Bottom_plate_3mm
100
AcDbLine
 10
63.567164789
 20
188.995434978
 30
0.000000000
 11
63.746219501
 21
188.691330920
 31
0.000000000
  0
LINE
  5
BAC
330
A02
100
AcDbEntity
  8
Bottom_plate_3mm
100
AcDbLine
 10
63.746219501
 20
188.691330920
 30
0.000000000
 11
63.808489435
 21
188.343966094
 31
0.000000000
  0
LINE
  5
BAD
330
A02
100
AcDbEntity
  8
Bottom_plate_3mm
100
AcDbLine
 10
55.711373936
 20
186.069369642
 30
0.000000000
 11
62.049814081
 21
178.687868483
 31
0.000000000
  0
LINE
  5
BAE
330
A02
100
AcDbEntity
  8
Bottom_plate_3mm
100
AcDbLine
 10
55.711373936
 20
186.069369642
 30
0.000000000
 11
55.532319224
 21
186.373473699
 31
0.000000000
  0
LINE
  5
BAF
330
A02
100
AcDbEntity
  8
Bottom_plate_3mm
100
AcDbLine
 10
55.532319224
 20
186.373473699
 30
0.000000000
 11
55.470049290
 21
186.720838526
 31
0.000000000
  0
LINE
  5
BB0
330
A02
100
AcDbEntity
  8
Bottom_plate_3mm
100
AcDbLine
 10
55.470049290
 20
195.711642190
 30
0.000000000
 11
55.470049290
 21
186.720838526
 31
0.000000000
  0
LINE
  5
BB1
330
A02
100
AcDbEntity
  8
Bottom_plate_3mm
100
AcDbLine
 10
55.470049290
 20
195.711642190
 30
0.000000000
 11
55.532319224
 21
196.059007016
 31
0.000000000
  0
LINE
  5
BB2
330
A02
100
AcDbEntity
  8
Bottom_plate_3mm
100
AcDbLine
 10
55.532319224
 20
196.059007016
 30
0.000000000
 11
55.711373936
 21
196.363111074
 31
0.000000000
  0
LINE
  5
BB3
330
A02
100
AcDbEntity
  8
Bottom_plate_3mm
100
AcDbLine
 10
59.211373936
 20
200.439075107
 30
0.000000000
 11
55.711373936
 21
196.363111074
 31
0.000000000
  0
LINE
  5
BB4
330
A02
100
AcDbEntity
  8
Bottom_plate_3mm
100
AcDbLine
 10
59.211373936
 20
200.439075107
 30
0.000000000
 11
59.719489011
 21
200.755707223
 31
0.000000000
  0
LINE
  5
BB5
330
A02
100
AcDbEntity
  8
Bottom_plate_3mm
100
AcDbLine
 10
59.719489011
 20
200.755707223
 30
0.000000000
 11
60.317414117
 21
200.725336289
 31
0.000000000
  0
LINE
  5
BB6
330
A02
100
AcDbEntity
  8
Bottom_plate_3mm
100
AcDbLine
 10
60.317414117
 20
200.725336289
 30
0.000000000
 11
60.790830877
 21
200.358848367
 31
0.000000000
  0
LINE
  5
BB7
330
A02
100
AcDbEntity
  8
Bottom_plate_3mm
100
AcDbLine
 10
60.790830877
 20
200.358848367
 30
0.000000000
 11
60.970049290
 21
199.787606223
 31
0.000000000
  0
LINE
  5
BB8
330
A02
100
AcDbEntity
  8
Bottom_plate_3mm
100
AcDbLine
 10
60.970049290
 20
192.390366372
 30
0.000000000
 11
60.970049290
 21
199.787606223
 31
0.000000000
  0
LINE
  5
BB9
330
A02
100
AcDbEntity
  8
Bottom_plate_3mm
100
AcDbLine
 10
61.211373936
 20
191.738897489
 30
0.000000000
 11
61.032319224
 21
192.043001546
 31
0.000000000
  0
LINE
  5
BBA
330
A02
100
AcDbEntity
  8
Bottom_plate_3mm
100
AcDbLine
 10
61.032319224
 20
192.043001546
 30
0.000000000
 11
60.970049290
 21
192.390366372
 31
0.000000000
  0
LINE
  5
BBB
330
A02
100
AcDbEntity
  8
Bottom_plate_3mm
100
AcDbLine
 10
63.567164789
 20
188.995434978
 30
0.000000000
 11
61.211373936
 21
191.738897489
 31
0.000000000
  0
LINE
  5
BBC
330
A02
100
AcDbEntity
  8
Bottom_plate_3mm
100
AcDbLine
 10
63.350049290
 20
211.631655285
 30
0.000000000
 11
62.879821076
 21
211.784441672
 31
0.000000000
  0
LINE
  5
BBD
330
A02
100
AcDbEntity
  8
Bottom_plate_3mm
100
AcDbLine
 10
62.879821076
 20
211.784441672
 30
0.000000000
 11
62.589204047
 21
212.184441668
 31
0.000000000
  0
LINE
  5
BBE
330
A02
100
AcDbEntity
  8
Bottom_plate_3mm
100
AcDbLine
 10
62.589204047
 20
212.184441668
 30
0.000000000
 11
62.589204036
 21
212.678868866
 31
0.000000000
  0
LINE
  5
BBF
330
A02
100
AcDbEntity
  8
Bottom_plate_3mm
100
AcDbLine
 10
62.589204036
 20
212.678868866
 30
0.000000000
 11
62.879821045
 21
213.078868876
 31
0.000000000
  0
LINE
  5
BC0
330
A02
100
AcDbEntity
  8
Bottom_plate_3mm
100
AcDbLine
 10
62.879821045
 20
213.078868876
 30
0.000000000
 11
63.350049252
 21
213.231655285
 31
0.000000000
  0
LINE
  5
BC1
330
A02
100
AcDbEntity
  8
Bottom_plate_3mm
100
AcDbLine
 10
63.350049290
 20
211.631655285
 30
0.000000000
 11
63.350049290
 21
208.731672176
 31
0.000000000
  0
LINE
  5
BC2
330
A02
100
AcDbEntity
  8
Bottom_plate_3mm
100
AcDbLine
 10
66.470049290
 20
213.231655285
 30
0.000000000
 11
63.350049252
 21
213.231655285
 31
0.000000000
  0
LINE
  5
BC3
330
A02
100
AcDbEntity
  8
Bottom_plate_3mm
100
AcDbLine
 10
66.470049290
 20
213.231655285
 30
0.000000000
 11
66.940277492
 21
213.078868881
 31
0.000000000
  0
LINE
  5
BC4
330
A02
100
AcDbEntity
  8
Bottom_plate_3mm
100
AcDbLine
 10
66.940277492
 20
213.078868881
 30
0.000000000
 11
67.230894503
 21
212.678868881
 31
0.000000000
  0
LINE
  5
BC5
330
A02
100
AcDbEntity
  8
Bottom_plate_3mm
100
AcDbLine
 10
67.230894503
 20
212.678868881
 30
0.000000000
 11
67.230894503
 21
212.184441690
 31
0.000000000
  0
LINE
  5
BC6
330
A02
100
AcDbEntity
  8
Bottom_plate_3mm
100
AcDbLine
 10
67.230894503
 20
212.184441690
 30
0.000000000
 11
66.940277492
 21
211.784441690
 31
0.000000000
  0
LINE
  5
BC7
330
A02
100
AcDbEntity
  8
Bottom_plate_3mm
100
AcDbLine
 10
66.940277492
 20
211.784441690
 30
0.000000000
 11
66.470049290
 21
211.631655285
 31
0.000000000
  0
LINE
  5
BC8
330
A02
100
AcDbEntity
  8
Bottom_plate_3mm
100
AcDbLine
 10
66.470049290
 20
208.731672176
 30
0.000000000
 11
66.470049290
 21
211.631655285
 31
0.000000000
  0
LINE
  5
BC9
330
A02
100
AcDbEntity
  8
Bottom_plate_3mm
100
AcDbLine
 10
66.470049290
 20
208.731672176
 30
0.000000000
 11
66.940277492
 21
208.578885771
 31
0.000000000
  0
LINE
  5
BCA
330
A02
100
AcDbEntity
  8
Bottom_plate_3mm
100
AcDbLine
 10
66.940277492
 20
208.578885771
 30
0.000000000
 11
67.230894503
 21
208.178885771
 31
0.000000000
  0
LINE
  5
BCB
330
A02
100
AcDbEntity
  8
Bottom_plate_3mm
100
AcDbLine
 10
67.230894503
 20
208.178885771
 30
0.000000000
 11
67.230894503
 21
207.684458580
 31
0.000000000
  0
LINE
  5
BCC
330
A02
100
AcDbEntity
  8
Bottom_plate_3mm
100
AcDbLine
 10
67.230894503
 20
207.684458580
 30
0.000000000
 11
66.940277492
 21
207.284458580
 31
0.000000000
  0
LINE
  5
BCD
330
A02
100
AcDbEntity
  8
Bottom_plate_3mm
100
AcDbLine
 10
66.940277492
 20
207.284458580
 30
0.000000000
 11
66.470049290
 21
207.131672176
 31
0.000000000
  0
LINE
  5
BCE
330
A02
100
AcDbEntity
  8
Bottom_plate_3mm
100
AcDbLine
 10
63.350049253
 20
207.131672176
 30
0.000000000
 11
66.470049290
 21
207.131672176
 31
0.000000000
  0
LINE
  5
BCF
330
A02
100
AcDbEntity
  8
Bottom_plate_3mm
100
AcDbLine
 10
63.350049253
 20
207.131672176
 30
0.000000000
 11
62.879821046
 21
207.284458585
 31
0.000000000
  0
LINE
  5
BD0
330
A02
100
AcDbEntity
  8
Bottom_plate_3mm
100
AcDbLine
 10
62.879821046
 20
207.284458585
 30
0.000000000
 11
62.589204036
 21
207.684458594
 31
0.000000000
  0
LINE
  5
BD1
330
A02
100
AcDbEntity
  8
Bottom_plate_3mm
100
AcDbLine
 10
62.589204036
 20
207.684458594
 30
0.000000000
 11
62.589204047
 21
208.178885792
 31
0.000000000
  0
LINE
  5
BD2
330
A02
100
AcDbEntity
  8
Bottom_plate_3mm
100
AcDbLine
 10
62.589204047
 20
208.178885792
 30
0.000000000
 11
62.879821075
 21
208.578885789
 31
0.000000000
  0
LINE
  5
BD3
330
A02
100
AcDbEntity
  8
Bottom_plate_3mm
100
AcDbLine
 10
62.879821075
 20
208.578885789
 30
0.000000000
 11
63.350049290
 21
208.731672176
 31
0.000000000
  0
LINE
  5
BD4
330
A02
100
AcDbEntity
  8
Bottom_plate_3mm
100
AcDbLine
 10
63.350049272
 20
193.547521585
 30
0.000000000
 11
66.470049309
 21
193.547521585
 31
0.000000000
  0
LINE
  5
BD5
330
A02
100
AcDbEntity
  8
Bottom_plate_3mm
100
AcDbLine
 10
63.350049272
 20
193.547521585
 30
0.000000000
 11
62.879821064
 21
193.700307994
 31
0.000000000
  0
LINE
  5
BD6
330
A02
100
AcDbEntity
  8
Bottom_plate_3mm
100
AcDbLine
 10
62.879821064
 20
193.700307994
 30
0.000000000
 11
62.589204054
 21
194.100308004
 31
0.000000000
  0
LINE
  5
BD7
330
A02
100
AcDbEntity
  8
Bottom_plate_3mm
100
AcDbLine
 10
62.589204054
 20
194.100308004
 30
0.000000000
 11
62.589204066
 21
194.594735202
 31
0.000000000
  0
LINE
  5
BD8
330
A02
100
AcDbEntity
  8
Bottom_plate_3mm
100
AcDbLine
 10
62.589204066
 20
194.594735202
 30
0.000000000
 11
62.879821094
 21
194.994735198
 31
0.000000000
  0
LINE
  5
BD9
330
A02
100
AcDbEntity
  8
Bottom_plate_3mm
100
AcDbLine
 10
62.879821094
 20
194.994735198
 30
0.000000000
 11
63.350049309
 21
195.147521586
 31
0.000000000
  0
LINE
  5
BDA
330
A02
100
AcDbEntity
  8
Bottom_plate_3mm
100
AcDbLine
 10
66.470049309
 20
195.147521586
 30
0.000000000
 11
66.940277510
 21
194.994735181
 31
0.000000000
  0
LINE
  5
BDB
330
A02
100
AcDbEntity
  8
Bottom_plate_3mm
100
AcDbLine
 10
66.940277510
 20
194.994735181
 30
0.000000000
 11
67.230894522
 21
194.594735181
 31
0.000000000
  0
LINE
  5
BDC
330
A02
100
AcDbEntity
  8
Bottom_plate_3mm
100
AcDbLine
 10
67.230894522
 20
194.594735181
 30
0.000000000
 11
67.230894522
 21
194.100307990
 31
0.000000000
  0
LINE
  5
BDD
330
A02
100
AcDbEntity
  8
Bottom_plate_3mm
100
AcDbLine
 10
67.230894522
 20
194.100307990
 30
0.000000000
 11
66.940277510
 21
193.700307990
 31
0.000000000
  0
LINE
  5
BDE
330
A02
100
AcDbEntity
  8
Bottom_plate_3mm
100
AcDbLine
 10
66.940277510
 20
193.700307990
 30
0.000000000
 11
66.470049309
 21
193.547521585
 31
0.000000000
  0
LINE
  5
BDF
330
A02
100
AcDbEntity
  8
Bottom_plate_3mm
100
AcDbLine
 10
63.350049309
 20
198.047504695
 30
0.000000000
 11
63.350049309
 21
195.147521585
 31
0.000000000
  0
LINE
  5
BE0
330
A02
100
AcDbEntity
  8
Bottom_plate_3mm
100
AcDbLine
 10
63.350049309
 20
198.047504695
 30
0.000000000
 11
62.879821094
 21
198.200291082
 31
0.000000000
  0
LINE
  5
BE1
330
A02
100
AcDbEntity
  8
Bottom_plate_3mm
100
AcDbLine
 10
62.879821094
 20
198.200291082
 30
0.000000000
 11
62.589204066
 21
198.600291078
 31
0.000000000
  0
LINE
  5
BE2
330
A02
100
AcDbEntity
  8
Bottom_plate_3mm
100
AcDbLine
 10
62.589204066
 20
198.600291078
 30
0.000000000
 11
62.589204054
 21
199.094718276
 31
0.000000000
  0
LINE
  5
BE3
330
A02
100
AcDbEntity
  8
Bottom_plate_3mm
100
AcDbLine
 10
62.589204054
 20
199.094718276
 30
0.000000000
 11
62.879821064
 21
199.494718286
 31
0.000000000
  0
LINE
  5
BE4
330
A02
100
AcDbEntity
  8
Bottom_plate_3mm
100
AcDbLine
 10
62.879821064
 20
199.494718286
 30
0.000000000
 11
63.350049272
 21
199.647504695
 31
0.000000000
  0
LINE
  5
BE5
330
A02
100
AcDbEntity
  8
Bottom_plate_3mm
100
AcDbLine
 10
66.470049309
 20
199.647504695
 30
0.000000000
 11
63.350049272
 21
199.647504695
 31
0.000000000
  0
LINE
  5
BE6
330
A02
100
AcDbEntity
  8
Bottom_plate_3mm
100
AcDbLine
 10
66.470049309
 20
199.647504695
 30
0.000000000
 11
66.940277510
 21
199.494718290
 31
0.000000000
  0
LINE
  5
BE7
330
A02
100
AcDbEntity
  8
Bottom_plate_3mm
100
AcDbLine
 10
66.940277510
 20
199.494718290
 30
0.000000000
 11
67.230894522
 21
199.094718290
 31
0.000000000
  0
LINE
  5
BE8
330
A02
100
AcDbEntity
  8
Bottom_plate_3mm
100
AcDbLine
 10
67.230894522
 20
199.094718290
 30
0.000000000
 11
67.230894522
 21
198.600291099
 31
0.000000000
  0
LINE
  5
BE9
330
A02
100
AcDbEntity
  8
Bottom_plate_3mm
100
AcDbLine
 10
67.230894522
 20
198.600291099
 30
0.000000000
 11
66.940277510
 21
198.200291099
 31
0.000000000
  0
LINE
  5
BEA
330
A02
100
AcDbEntity
  8
Bottom_plate_3mm
100
AcDbLine
 10
66.940277510
 20
198.200291099
 30
0.000000000
 11
66.470049309
 21
198.047504695
 31
0.000000000
  0
LINE
  5
BEB
330
A02
100
AcDbEntity
  8
Bottom_plate_3mm
100
AcDbLine
 10
66.470049309
 20
195.147521585
 30
0.000000000
 11
66.470049309
 21
198.047504695
 31
0.000000000
  0
LINE
  5
BEC
330
A02
100
AcDbEntity
  8
Bottom_plate_3mm
100
AcDbLine
 10
14.863231206
 20
84.238868932
 30
0.000000000
 11
14.677353940
 21
83.364385150
 31
0.000000000
  0
LINE
  5
BED
330
A02
100
AcDbEntity
  8
Bottom_plate_3mm
100
AcDbLine
 10
14.677353940
 20
83.364385150
 30
0.000000000
 11
14.151862010
 21
82.641107558
 31
0.000000000
  0
LINE
  5
BEE
330
A02
100
AcDbEntity
  8
Bottom_plate_3mm
100
AcDbLine
 10
14.151862010
 20
82.641107558
 30
0.000000000
 11
13.377617744
 21
82.194097422
 31
0.000000000
  0
LINE
  5
BEF
330
A02
100
AcDbEntity
  8
Bottom_plate_3mm
100
AcDbLine
 10
13.377617744
 20
82.194097422
 30
0.000000000
 11
12.488495010
 21
82.100646857
 31
0.000000000
  0
LINE
  5
BF0
330
A02
100
AcDbEntity
  8
Bottom_plate_3mm
100
AcDbLine
 10
12.488495010
 20
82.100646857
 30
0.000000000
 11
11.638231206
 21
82.376914314
 31
0.000000000
  0
LINE
  5
BF1
330
A02
100
AcDbEntity
  8
Bottom_plate_3mm
100
AcDbLine
 10
11.638231206
 20
82.376914314
 30
0.000000000
 11
10.973844668
 21
82.975130640
 31
0.000000000
  0
LINE
  5
BF2
330
A02
100
AcDbEntity
  8
Bottom_plate_3mm
100
AcDbLine
 10
10.973844668
 20
82.975130640
 30
0.000000000
 11
10.610213865
 21
83.791858797
 31
0.000000000
  0
LINE
  5
BF3
330
A02
100
AcDbEntity
  8
Bottom_plate_3mm
100
AcDbLine
 10
10.610213865
 20
83.791858797
 30
0.000000000
 11
10.610213865
 21
84.685879068
 31
0.000000000
  0
LINE
  5
BF4
330
A02
100
AcDbEntity
  8
Bottom_plate_3mm
100
AcDbLine
 10
10.610213865
 20
84.685879068
 30
0.000000000
 11
10.973844668
 21
85.502607225
 31
0.000000000
  0
LINE
  5
BF5
330
A02
100
AcDbEntity
  8
Bottom_plate_3mm
100
AcDbLine
 10
10.973844668
 20
85.502607225
 30
0.000000000
 11
11.638231206
 21
86.100823550
 31
0.000000000
  0
LINE
  5
BF6
330
A02
100
AcDbEntity
  8
Bottom_plate_3mm
100
AcDbLine
 10
11.638231206
 20
86.100823550
 30
0.000000000
 11
12.488495010
 21
86.377091007
 31
0.000000000
  0
LINE
  5
BF7
330
A02
100
AcDbEntity
  8
Bottom_plate_3mm
100
AcDbLine
 10
12.488495010
 20
86.377091007
 30
0.000000000
 11
13.377617744
 21
86.283640442
 31
0.000000000
  0
LINE
  5
BF8
330
A02
100
AcDbEntity
  8
Bottom_plate_3mm
100
AcDbLine
 10
13.377617744
 20
86.283640442
 30
0.000000000
 11
14.151862010
 21
85.836630307
 31
0.000000000
  0
LINE
  5
BF9
330
A02
100
AcDbEntity
  8
Bottom_plate_3mm
100
AcDbLine
 10
14.151862010
 20
85.836630307
 30
0.000000000
 11
14.677353940
 21
85.113352715
 31
0.000000000
  0
LINE
  5
BFA
330
A02
100
AcDbEntity
  8
Bottom_plate_3mm
100
AcDbLine
 10
14.677353940
 20
85.113352715
 30
0.000000000
 11
14.863231206
 21
84.238868932
 31
0.000000000
  0
LINE
  5
BFB
330
A02
100
AcDbEntity
  8
Bottom_plate_3mm
100
AcDbLine
 10
29.106686950
 20
95.738901040
 30
0.000000000
 11
28.934870989
 21
95.041816282
 31
0.000000000
  0
LINE
  5
BFC
330
A02
100
AcDbEntity
  8
Bottom_plate_3mm
100
AcDbLine
 10
28.934870989
 20
95.041816282
 30
0.000000000
 11
28.458784070
 21
94.504425241
 31
0.000000000
  0
LINE
  5
BFD
330
A02
100
AcDbEntity
  8
Bottom_plate_3mm
100
AcDbLine
 10
28.458784070
 20
94.504425241
 30
0.000000000
 11
27.787491970
 21
94.249837729
 31
0.000000000
  0
LINE
  5
BFE
330
A02
100
AcDbEntity
  8
Bottom_plate_3mm
100
AcDbLine
 10
27.787491970
 20
94.249837729
 30
0.000000000
 11
27.074779619
 21
94.336376676
 31
0.000000000
  0
LINE
  5
BFF
330
A02
100
AcDbEntity
  8
Bottom_plate_3mm
100
AcDbLine
 10
27.074779619
 20
94.336376676
 30
0.000000000
 11
26.483920828
 21
94.744217053
 31
0.000000000
  0
LINE
  5
C00
330
A02
100
AcDbEntity
  8
Bottom_plate_3mm
100
AcDbLine
 10
26.483920828
 20
94.744217053
 30
0.000000000
 11
26.150274224
 21
95.379927544
 31
0.000000000
  0
LINE
  5
C01
330
A02
100
AcDbEntity
  8
Bottom_plate_3mm
100
AcDbLine
 10
26.150274224
 20
95.379927544
 30
0.000000000
 11
26.150274224
 21
96.097874537
 31
0.000000000
  0
LINE
  5
C02
330
A02
100
AcDbEntity
  8
Bottom_plate_3mm
100
AcDbLine
 10
26.150274224
 20
96.097874537
 30
0.000000000
 11
26.483920828
 21
96.733585028
 31
0.000000000
  0
LINE
  5
C03
330
A02
100
AcDbEntity
  8
Bottom_plate_3mm
100
AcDbLine
 10
26.483920828
 20
96.733585028
 30
0.000000000
 11
27.074779619
 21
97.141425404
 31
0.000000000
  0
LINE
  5
C04
330
A02
100
AcDbEntity
  8
Bottom_plate_3mm
100
AcDbLine
 10
27.074779619
 20
97.141425404
 30
0.000000000
 11
27.787491970
 21
97.227964351
 31
0.000000000
  0
LINE
  5
C05
330
A02
100
AcDbEntity
  8
Bottom_plate_3mm
100
AcDbLine
 10
27.787491970
 20
97.227964351
 30
0.000000000
 11
28.458784070
 21
96.973376839
 31
0.000000000
  0
LINE
  5
C06
330
A02
100
AcDbEntity
  8
Bottom_plate_3mm
100
AcDbLine
 10
28.458784070
 20
96.973376839
 30
0.000000000
 11
28.934870989
 21
96.435985798
 31
0.000000000
  0
LINE
  5
C07
330
A02
100
AcDbEntity
  8
Bottom_plate_3mm
100
AcDbLine
 10
28.934870989
 20
96.435985798
 30
0.000000000
 11
29.106686950
 21
95.738901040
 31
0.000000000
  0
LINE
  5
C08
330
A02
100
AcDbEntity
  8
Bottom_plate_3mm
100
AcDbLine
 10
44.000142694
 20
107.238933148
 30
0.000000000
 11
43.828326732
 21
106.541848390
 31
0.000000000
  0
LINE
  5
C09
330
A02
100
AcDbEntity
  8
Bottom_plate_3mm
100
AcDbLine
 10
43.828326732
 20
106.541848390
 30
0.000000000
 11
43.352239814
 21
106.004457349
 31
0.000000000
  0
LINE
  5
C0A
330
A02
100
AcDbEntity
  8
Bottom_plate_3mm
100
AcDbLine
 10
43.352239814
 20
106.004457349
 30
0.000000000
 11
42.680947714
 21
105.749869837
 31
0.000000000
  0
LINE
  5
C0B
330
A02
100
AcDbEntity
  8
Bottom_plate_3mm
100
AcDbLine
 10
42.680947714
 20
105.749869837
 30
0.000000000
 11
41.968235363
 21
105.836408784
 31
0.000000000
  0
LINE
  5
C0C
330
A02
100
AcDbEntity
  8
Bottom_plate_3mm
100
AcDbLine
 10
41.968235363
 20
105.836408784
 30
0.000000000
 11
41.377376571
 21
106.244249161
 31
0.000000000
  0
LINE
  5
C0D
330
A02
100
AcDbEntity
  8
Bottom_plate_3mm
100
AcDbLine
 10
41.377376571
 20
106.244249161
 30
0.000000000
 11
41.043729968
 21
106.879959652
 31
0.000000000
  0
LINE
  5
C0E
330
A02
100
AcDbEntity
  8
Bottom_plate_3mm
100
AcDbLine
 10
41.043729968
 20
106.879959652
 30
0.000000000
 11
41.043729968
 21
107.597906645
 31
0.000000000
  0
LINE
  5
C0F
330
A02
100
AcDbEntity
  8
Bottom_plate_3mm
100
AcDbLine
 10
41.043729968
 20
107.597906645
 30
0.000000000
 11
41.377376571
 21
108.233617136
 31
0.000000000
  0
LINE
  5
C10
330
A02
100
AcDbEntity
  8
Bottom_plate_3mm
100
AcDbLine
 10
41.377376571
 20
108.233617136
 30
0.000000000
 11
41.968235363
 21
108.641457512
 31
0.000000000
  0
LINE
  5
C11
330
A02
100
AcDbEntity
  8
Bottom_plate_3mm
100
AcDbLine
 10
41.968235363
 20
108.641457512
 30
0.000000000
 11
42.680947714
 21
108.727996459
 31
0.000000000
  0
LINE
  5
C12
330
A02
100
AcDbEntity
  8
Bottom_plate_3mm
100
AcDbLine
 10
42.680947714
 20
108.727996459
 30
0.000000000
 11
43.352239814
 21
108.473408947
 31
0.000000000
  0
LINE
  5
C13
330
A02
100
AcDbEntity
  8
Bottom_plate_3mm
100
AcDbLine
 10
43.352239814
 20
108.473408947
 30
0.000000000
 11
43.828326732
 21
107.936017906
 31
0.000000000
  0
LINE
  5
C14
330
A02
100
AcDbEntity
  8
Bottom_plate_3mm
100
AcDbLine
 10
43.828326732
 20
107.936017906
 30
0.000000000
 11
44.000142694
 21
107.238933148
 31
0.000000000
  0
LINE
  5
C15
330
A02
100
AcDbEntity
  8
Bottom_plate_3mm
100
AcDbLine
 10
14.863231206
 20
147.179898154
 30
0.000000000
 11
14.677353940
 21
146.305414372
 31
0.000000000
  0
LINE
  5
C16
330
A02
100
AcDbEntity
  8
Bottom_plate_3mm
100
AcDbLine
 10
14.677353940
 20
146.305414372
 30
0.000000000
 11
14.151862010
 21
145.582136779
 31
0.000000000
  0
LINE
  5
C17
330
A02
100
AcDbEntity
  8
Bottom_plate_3mm
100
AcDbLine
 10
14.151862010
 20
145.582136779
 30
0.000000000
 11
13.377617744
 21
145.135126644
 31
0.000000000
  0
LINE
  5
C18
330
A02
100
AcDbEntity
  8
Bottom_plate_3mm
100
AcDbLine
 10
13.377617744
 20
145.135126644
 30
0.000000000
 11
12.488495010
 21
145.041676079
 31
0.000000000
  0
LINE
  5
C19
330
A02
100
AcDbEntity
  8
Bottom_plate_3mm
100
AcDbLine
 10
12.488495010
 20
145.041676079
 30
0.000000000
 11
11.638231206
 21
145.317943536
 31
0.000000000
  0
LINE
  5
C1A
330
A02
100
AcDbEntity
  8
Bottom_plate_3mm
100
AcDbLine
 10
11.638231206
 20
145.317943536
 30
0.000000000
 11
10.973844668
 21
145.916159862
 31
0.000000000
  0
LINE
  5
C1B
330
A02
100
AcDbEntity
  8
Bottom_plate_3mm
100
AcDbLine
 10
10.973844668
 20
145.916159862
 30
0.000000000
 11
10.610213865
 21
146.732888019
 31
0.000000000
  0
LINE
  5
C1C
330
A02
100
AcDbEntity
  8
Bottom_plate_3mm
100
AcDbLine
 10
10.610213865
 20
146.732888019
 30
0.000000000
 11
10.610213865
 21
147.626908289
 31
0.000000000
  0
LINE
  5
C1D
330
A02
100
AcDbEntity
  8
Bottom_plate_3mm
100
AcDbLine
 10
10.610213865
 20
147.626908289
 30
0.000000000
 11
10.973844668
 21
148.443636447
 31
0.000000000
  0
LINE
  5
C1E
330
A02
100
AcDbEntity
  8
Bottom_plate_3mm
100
AcDbLine
 10
10.973844668
 20
148.443636447
 30
0.000000000
 11
11.638231206
 21
149.041852772
 31
0.000000000
  0
LINE
  5
C1F
330
A02
100
AcDbEntity
  8
Bottom_plate_3mm
100
AcDbLine
 10
11.638231206
 20
149.041852772
 30
0.000000000
 11
12.488495010
 21
149.318120229
 31
0.000000000
  0
LINE
  5
C20
330
A02
100
AcDbEntity
  8
Bottom_plate_3mm
100
AcDbLine
 10
12.488495010
 20
149.318120229
 30
0.000000000
 11
13.377617744
 21
149.224669664
 31
0.000000000
  0
LINE
  5
C21
330
A02
100
AcDbEntity
  8
Bottom_plate_3mm
100
AcDbLine
 10
13.377617744
 20
149.224669664
 30
0.000000000
 11
14.151862010
 21
148.777659529
 31
0.000000000
  0
LINE
  5
C22
330
A02
100
AcDbEntity
  8
Bottom_plate_3mm
100
AcDbLine
 10
14.151862010
 20
148.777659529
 30
0.000000000
 11
14.677353940
 21
148.054381937
 31
0.000000000
  0
LINE
  5
C23
330
A02
100
AcDbEntity
  8
Bottom_plate_3mm
100
AcDbLine
 10
14.677353940
 20
148.054381937
 30
0.000000000
 11
14.863231206
 21
147.179898154
 31
0.000000000
  0
LINE
  5
C24
330
A02
100
AcDbEntity
  8
Bottom_plate_3mm
100
AcDbLine
 10
29.106686950
 20
135.679866046
 30
0.000000000
 11
28.934870989
 21
134.982781288
 31
0.000000000
  0
LINE
  5
C25
330
A02
100
AcDbEntity
  8
Bottom_plate_3mm
100
AcDbLine
 10
28.934870989
 20
134.982781288
 30
0.000000000
 11
28.458784070
 21
134.445390247
 31
0.000000000
  0
LINE
  5
C26
330
A02
100
AcDbEntity
  8
Bottom_plate_3mm
100
AcDbLine
 10
28.458784070
 20
134.445390247
 30
0.000000000
 11
27.787491970
 21
134.190802735
 31
0.000000000
  0
LINE
  5
C27
330
A02
100
AcDbEntity
  8
Bottom_plate_3mm
100
AcDbLine
 10
27.787491970
 20
134.190802735
 30
0.000000000
 11
27.074779619
 21
134.277341682
 31
0.000000000
  0
LINE
  5
C28
330
A02
100
AcDbEntity
  8
Bottom_plate_3mm
100
AcDbLine
 10
27.074779619
 20
134.277341682
 30
0.000000000
 11
26.483920828
 21
134.685182059
 31
0.000000000
  0
LINE
  5
C29
330
A02
100
AcDbEntity
  8
Bottom_plate_3mm
100
AcDbLine
 10
26.483920828
 20
134.685182059
 30
0.000000000
 11
26.150274224
 21
135.320892550
 31
0.000000000
  0
LINE
  5
C2A
330
A02
100
AcDbEntity
  8
Bottom_plate_3mm
100
AcDbLine
 10
26.150274224
 20
135.320892550
 30
0.000000000
 11
26.150274224
 21
136.038839543
 31
0.000000000
  0
LINE
  5
C2B
330
A02
100
AcDbEntity
  8
Bottom_plate_3mm
100
AcDbLine
 10
26.150274224
 20
136.038839543
 30
0.000000000
 11
26.483920828
 21
136.674550034
 31
0.000000000
  0
LINE
  5
C2C
330
A02
100
AcDbEntity
  8
Bottom_plate_3mm
100
AcDbLine
 10
26.483920828
 20
136.674550034
 30
0.000000000
 11
27.074779619
 21
137.082390410
 31
0.000000000
  0
LINE
  5
C2D
330
A02
100
AcDbEntity
  8
Bottom_plate_3mm
100
AcDbLine
 10
27.074779619
 20
137.082390410
 30
0.000000000
 11
27.787491970
 21
137.168929357
 31
0.000000000
  0
LINE
  5
C2E
330
A02
100
AcDbEntity
  8
Bottom_plate_3mm
100
AcDbLine
 10
27.787491970
 20
137.168929357
 30
0.000000000
 11
28.458784070
 21
136.914341845
 31
0.000000000
  0
LINE
  5
C2F
330
A02
100
AcDbEntity
  8
Bottom_plate_3mm
100
AcDbLine
 10
28.458784070
 20
136.914341845
 30
0.000000000
 11
28.934870989
 21
136.376950804
 31
0.000000000
  0
LINE
  5
C30
330
A02
100
AcDbEntity
  8
Bottom_plate_3mm
100
AcDbLine
 10
28.934870989
 20
136.376950804
 30
0.000000000
 11
29.106686950
 21
135.679866046
 31
0.000000000
  0
LINE
  5
C31
330
A02
100
AcDbEntity
  8
Bottom_plate_3mm
100
AcDbLine
 10
44.000142694
 20
124.179833938
 30
0.000000000
 11
43.828326732
 21
123.482749180
 31
0.000000000
  0
LINE
  5
C32
330
A02
100
AcDbEntity
  8
Bottom_plate_3mm
100
AcDbLine
 10
43.828326732
 20
123.482749180
 30
0.000000000
 11
43.352239814
 21
122.945358139
 31
0.000000000
  0
LINE
  5
C33
330
A02
100
AcDbEntity
  8
Bottom_plate_3mm
100
AcDbLine
 10
43.352239814
 20
122.945358139
 30
0.000000000
 11
42.680947714
 21
122.690770627
 31
0.000000000
  0
LINE
  5
C34
330
A02
100
AcDbEntity
  8
Bottom_plate_3mm
100
AcDbLine
 10
42.680947714
 20
122.690770627
 30
0.000000000
 11
41.968235363
 21
122.777309574
 31
0.000000000
  0
LINE
  5
C35
330
A02
100
AcDbEntity
  8
Bottom_plate_3mm
100
AcDbLine
 10
41.968235363
 20
122.777309574
 30
0.000000000
 11
41.377376571
 21
123.185149951
 31
0.000000000
  0
LINE
  5
C36
330
A02
100
AcDbEntity
  8
Bottom_plate_3mm
100
AcDbLine
 10
41.377376571
 20
123.185149951
 30
0.000000000
 11
41.043729968
 21
123.820860442
 31
0.000000000
  0
LINE
  5
C37
330
A02
100
AcDbEntity
  8
Bottom_plate_3mm
100
AcDbLine
 10
41.043729968
 20
123.820860442
 30
0.000000000
 11
41.043729968
 21
124.538807435
 31
0.000000000
  0
LINE
  5
C38
330
A02
100
AcDbEntity
  8
Bottom_plate_3mm
100
AcDbLine
 10
41.043729968
 20
124.538807435
 30
0.000000000
 11
41.377376571
 21
125.174517926
 31
0.000000000
  0
LINE
  5
C39
330
A02
100
AcDbEntity
  8
Bottom_plate_3mm
100
AcDbLine
 10
41.377376571
 20
125.174517926
 30
0.000000000
 11
41.968235363
 21
125.582358302
 31
0.000000000
  0
LINE
  5
C3A
330
A02
100
AcDbEntity
  8
Bottom_plate_3mm
100
AcDbLine
 10
41.968235363
 20
125.582358302
 30
0.000000000
 11
42.680947714
 21
125.668897249
 31
0.000000000
  0
LINE
  5
C3B
330
A02
100
AcDbEntity
  8
Bottom_plate_3mm
100
AcDbLine
 10
42.680947714
 20
125.668897249
 30
0.000000000
 11
43.352239814
 21
125.414309737
 31
0.000000000
  0
LINE
  5
C3C
330
A02
100
AcDbEntity
  8
Bottom_plate_3mm
100
AcDbLine
 10
43.352239814
 20
125.414309737
 30
0.000000000
 11
43.828326732
 21
124.876918696
 31
0.000000000
  0
LINE
  5
C3D
330
A02
100
AcDbEntity
  8
Bottom_plate_3mm
100
AcDbLine
 10
43.828326732
 20
124.876918696
 30
0.000000000
 11
44.000142694
 21
124.179833938
 31
0.000000000
  0
LINE
  5
C3E
330
A02
100
AcDbEntity
  8
Bottom_plate_3mm
100
AcDbLine
 10
40.559332667
 20
11.716983277
 30
0.000000000
 11
40.387516706
 21
11.019898518
 31
0.000000000
  0
LINE
  5
C3F
330
A02
100
AcDbEntity
  8
Bottom_plate_3mm
100
AcDbLine
 10
40.387516706
 20
11.019898518
 30
0.000000000
 11
39.911429788
 21
10.482507478
 31
0.000000000
  0
LINE
  5
C40
330
A02
100
AcDbEntity
  8
Bottom_plate_3mm
100
AcDbLine
 10
39.911429788
 20
10.482507478
 30
0.000000000
 11
39.240137688
 21
10.227919965
 31
0.000000000
  0
LINE
  5
C41
330
A02
100
AcDbEntity
  8
Bottom_plate_3mm
100
AcDbLine
 10
39.240137688
 20
10.227919965
 30
0.000000000
 11
38.527425337
 21
10.314458912
 31
0.000000000
  0
LINE
  5
C42
330
A02
100
AcDbEntity
  8
Bottom_plate_3mm
100
AcDbLine
 10
38.527425337
 20
10.314458912
 30
0.000000000
 11
37.936566545
 21
10.722299289
 31
0.000000000
  0
LINE
  5
C43
330
A02
100
AcDbEntity
  8
Bottom_plate_3mm
100
AcDbLine
 10
37.936566545
 20
10.722299289
 30
0.000000000
 11
37.602919941
 21
11.358009780
 31
0.000000000
  0
LINE
  5
C44
330
A02
100
AcDbEntity
  8
Bottom_plate_3mm
100
AcDbLine
 10
37.602919941
 20
11.358009780
 30
0.000000000
 11
37.602919941
 21
12.075956773
 31
0.000000000
  0
LINE
  5
C45
330
A02
100
AcDbEntity
  8
Bottom_plate_3mm
100
AcDbLine
 10
37.602919941
 20
12.075956773
 30
0.000000000
 11
37.936566545
 21
12.711667264
 31
0.000000000
  0
LINE
  5
C46
330
A02
100
AcDbEntity
  8
Bottom_plate_3mm
100
AcDbLine
 10
37.936566545
 20
12.711667264
 30
0.000000000
 11
38.527425337
 21
13.119507641
 31
0.000000000
  0
LINE
  5
C47
330
A02
100
AcDbEntity
  8
Bottom_plate_3mm
100
AcDbLine
 10
38.527425337
 20
13.119507641
 30
0.000000000
 11
39.240137688
 21
13.206046588
 31
0.000000000
  0
LINE
  5
C48
330
A02
100
AcDbEntity
  8
Bottom_plate_3mm
100
AcDbLine
 10
39.240137688
 20
13.206046588
 30
0.000000000
 11
39.911429788
 21
12.951459075
 31
0.000000000
  0
LINE
  5
C49
330
A02
100
AcDbEntity
  8
Bottom_plate_3mm
100
AcDbLine
 10
39.911429788
 20
12.951459075
 30
0.000000000
 11
40.387516706
 21
12.414068035
 31
0.000000000
  0
LINE
  5
C4A
330
A02
100
AcDbEntity
  8
Bottom_plate_3mm
100
AcDbLine
 10
40.387516706
 20
12.414068035
 30
0.000000000
 11
40.559332667
 21
11.716983277
 31
0.000000000
  0
LINE
  5
C4B
330
A02
100
AcDbEntity
  8
Bottom_plate_3mm
100
AcDbLine
 10
31.243582786
 20
156.885685255
 30
0.000000000
 11
31.071766825
 21
156.188600497
 31
0.000000000
  0
LINE
  5
C4C
330
A02
100
AcDbEntity
  8
Bottom_plate_3mm
100
AcDbLine
 10
31.071766825
 20
156.188600497
 30
0.000000000
 11
30.595679906
 21
155.651209456
 31
0.000000000
  0
LINE
  5
C4D
330
A02
100
AcDbEntity
  8
Bottom_plate_3mm
100
AcDbLine
 10
30.595679906
 20
155.651209456
 30
0.000000000
 11
29.924387807
 21
155.396621944
 31
0.000000000
  0
LINE
  5
C4E
330
A02
100
AcDbEntity
  8
Bottom_plate_3mm
100
AcDbLine
 10
29.924387807
 20
155.396621944
 30
0.000000000
 11
29.211675456
 21
155.483160891
 31
0.000000000
  0
LINE
  5
C4F
330
A02
100
AcDbEntity
  8
Bottom_plate_3mm
100
AcDbLine
 10
29.211675456
 20
155.483160891
 30
0.000000000
 11
28.620816664
 21
155.891001268
 31
0.000000000
  0
LINE
  5
C50
330
A02
100
AcDbEntity
  8
Bottom_plate_3mm
100
AcDbLine
 10
28.620816664
 20
155.891001268
 30
0.000000000
 11
28.287170060
 21
156.526711759
 31
0.000000000
  0
LINE
  5
C51
330
A02
100
AcDbEntity
  8
Bottom_plate_3mm
100
AcDbLine
 10
28.287170060
 20
156.526711759
 30
0.000000000
 11
28.287170060
 21
157.244658752
 31
0.000000000
  0
LINE
  5
C52
330
A02
100
AcDbEntity
  8
Bottom_plate_3mm
100
AcDbLine
 10
28.287170060
 20
157.244658752
 30
0.000000000
 11
28.620816664
 21
157.880369243
 31
0.000000000
  0
LINE
  5
C53
330
A02
100
AcDbEntity
  8
Bottom_plate_3mm
100
AcDbLine
 10
28.620816664
 20
157.880369243
 30
0.000000000
 11
29.211675456
 21
158.288209619
 31
0.000000000
  0
LINE
  5
C54
330
A02
100
AcDbEntity
  8
Bottom_plate_3mm
100
AcDbLine
 10
29.211675456
 20
158.288209619
 30
0.000000000
 11
29.924387807
 21
158.374748566
 31
0.000000000
  0
LINE
  5
C55
330
A02
100
AcDbEntity
  8
Bottom_plate_3mm
100
AcDbLine
 10
29.924387807
 20
158.374748566
 30
0.000000000
 11
30.595679906
 21
158.120161054
 31
0.000000000
  0
LINE
  5
C56
330
A02
100
AcDbEntity
  8
Bottom_plate_3mm
100
AcDbLine
 10
30.595679906
 20
158.120161054
 30
0.000000000
 11
31.071766825
 21
157.582770013
 31
0.000000000
  0
LINE
  5
C57
330
A02
100
AcDbEntity
  8
Bottom_plate_3mm
100
AcDbLine
 10
31.071766825
 20
157.582770013
 30
0.000000000
 11
31.243582786
 21
156.885685255
 31
0.000000000
  0
LINE
  5
C58
330
A02
100
AcDbEntity
  8
Bottom_plate_3mm
100
AcDbLine
 10
51.228724646
 20
196.363111074
 30
0.000000000
 11
47.728724646
 21
200.439075107
 31
0.000000000
  0
LINE
  5
C59
330
A02
100
AcDbEntity
  8
Bottom_plate_3mm
100
AcDbLine
 10
51.228724646
 20
196.363111074
 30
0.000000000
 11
51.407779358
 21
196.059007016
 31
0.000000000
  0
LINE
  5
C5A
330
A02
100
AcDbEntity
  8
Bottom_plate_3mm
100
AcDbLine
 10
51.407779358
 20
196.059007016
 30
0.000000000
 11
51.470049291
 21
195.711642190
 31
0.000000000
  0
LINE
  5
C5B
330
A02
100
AcDbEntity
  8
Bottom_plate_3mm
100
AcDbLine
 10
45.970049291
 20
199.787606223
 30
0.000000000
 11
46.149267705
 21
200.358848367
 31
0.000000000
  0
LINE
  5
C5C
330
A02
100
AcDbEntity
  8
Bottom_plate_3mm
100
AcDbLine
 10
46.149267705
 20
200.358848367
 30
0.000000000
 11
46.622684465
 21
200.725336289
 31
0.000000000
  0
LINE
  5
C5D
330
A02
100
AcDbEntity
  8
Bottom_plate_3mm
100
AcDbLine
 10
46.622684465
 20
200.725336289
 30
0.000000000
 11
47.220609571
 21
200.755707223
 31
0.000000000
  0
LINE
  5
C5E
330
A02
100
AcDbEntity
  8
Bottom_plate_3mm
100
AcDbLine
 10
47.220609571
 20
200.755707223
 30
0.000000000
 11
47.728724646
 21
200.439075107
 31
0.000000000
  0
LINE
  5
C5F
330
A02
100
AcDbEntity
  8
Bottom_plate_3mm
100
AcDbLine
 10
51.470049291
 20
186.720838526
 30
0.000000000
 11
51.470049291
 21
195.711642190
 31
0.000000000
  0
LINE
  5
C60
330
A02
100
AcDbEntity
  8
Bottom_plate_3mm
100
AcDbLine
 10
51.470049291
 20
186.720838526
 30
0.000000000
 11
51.407779358
 21
186.373473699
 31
0.000000000
  0
LINE
  5
C61
330
A02
100
AcDbEntity
  8
Bottom_plate_3mm
100
AcDbLine
 10
51.407779358
 20
186.373473699
 30
0.000000000
 11
51.228724646
 21
186.069369642
 31
0.000000000
  0
LINE
  5
C62
330
A02
100
AcDbEntity
  8
Bottom_plate_3mm
100
AcDbLine
 10
44.890284501
 20
178.687868483
 30
0.000000000
 11
51.228724646
 21
186.069369642
 31
0.000000000
  0
LINE
  5
C63
330
A02
100
AcDbEntity
  8
Bottom_plate_3mm
100
AcDbLine
 10
44.890284501
 20
178.687868483
 30
0.000000000
 11
44.382169426
 21
178.371236366
 31
0.000000000
  0
LINE
  5
C64
330
A02
100
AcDbEntity
  8
Bottom_plate_3mm
100
AcDbLine
 10
44.382169426
 20
178.371236366
 30
0.000000000
 11
43.784244320
 21
178.401607300
 31
0.000000000
  0
LINE
  5
C65
330
A02
100
AcDbEntity
  8
Bottom_plate_3mm
100
AcDbLine
 10
43.784244320
 20
178.401607300
 30
0.000000000
 11
43.310827560
 21
178.768095223
 31
0.000000000
  0
LINE
  5
C66
330
A02
100
AcDbEntity
  8
Bottom_plate_3mm
100
AcDbLine
 10
43.310827560
 20
178.768095223
 30
0.000000000
 11
43.131609147
 21
179.339337367
 31
0.000000000
  0
LINE
  5
C67
330
A02
100
AcDbEntity
  8
Bottom_plate_3mm
100
AcDbLine
 10
43.131609147
 20
188.343966094
 30
0.000000000
 11
43.131609147
 21
179.339337367
 31
0.000000000
  0
LINE
  5
C68
330
A02
100
AcDbEntity
  8
Bottom_plate_3mm
100
AcDbLine
 10
43.131609147
 20
188.343966094
 30
0.000000000
 11
43.193879081
 21
188.691330920
 31
0.000000000
  0
LINE
  5
C69
330
A02
100
AcDbEntity
  8
Bottom_plate_3mm
100
AcDbLine
 10
43.193879081
 20
188.691330920
 30
0.000000000
 11
43.372933793
 21
188.995434978
 31
0.000000000
  0
LINE
  5
C6A
330
A02
100
AcDbEntity
  8
Bottom_plate_3mm
100
AcDbLine
 10
45.728724646
 20
191.738897489
 30
0.000000000
 11
43.372933793
 21
188.995434978
 31
0.000000000
  0
LINE
  5
C6B
330
A02
100
AcDbEntity
  8
Bottom_plate_3mm
100
AcDbLine
 10
45.970049291
 20
192.390366372
 30
0.000000000
 11
45.907779358
 21
192.043001546
 31
0.000000000
  0
LINE
  5
C6C
330
A02
100
AcDbEntity
  8
Bottom_plate_3mm
100
AcDbLine
 10
45.907779358
 20
192.043001546
 30
0.000000000
 11
45.728724646
 21
191.738897489
 31
0.000000000
  0
LINE
  5
C6D
330
A02
100
AcDbEntity
  8
Bottom_plate_3mm
100
AcDbLine
 10
45.970049291
 20
199.787606223
 30
0.000000000
 11
45.970049291
 21
192.390366373
 31
0.000000000
  0
LINE
  5
C6E
330
A02
100
AcDbEntity
  8
Bottom_plate_3mm
100
AcDbLine
 10
43.590049291
 20
208.731672176
 30
0.000000000
 11
43.590049291
 21
211.631655285
 31
0.000000000
  0
LINE
  5
C6F
330
A02
100
AcDbEntity
  8
Bottom_plate_3mm
100
AcDbLine
 10
43.590049291
 20
208.731672176
 30
0.000000000
 11
44.060277506
 21
208.578885789
 31
0.000000000
  0
LINE
  5
C70
330
A02
100
AcDbEntity
  8
Bottom_plate_3mm
100
AcDbLine
 10
44.060277506
 20
208.578885789
 30
0.000000000
 11
44.350894534
 21
208.178885793
 31
0.000000000
  0
LINE
  5
C71
330
A02
100
AcDbEntity
  8
Bottom_plate_3mm
100
AcDbLine
 10
44.350894534
 20
208.178885793
 30
0.000000000
 11
44.350894546
 21
207.684458595
 31
0.000000000
  0
LINE
  5
C72
330
A02
100
AcDbEntity
  8
Bottom_plate_3mm
100
AcDbLine
 10
44.350894546
 20
207.684458595
 30
0.000000000
 11
44.060277536
 21
207.284458585
 31
0.000000000
  0
LINE
  5
C73
330
A02
100
AcDbEntity
  8
Bottom_plate_3mm
100
AcDbLine
 10
44.060277536
 20
207.284458585
 30
0.000000000
 11
43.590049328
 21
207.131672176
 31
0.000000000
  0
LINE
  5
C74
330
A02
100
AcDbEntity
  8
Bottom_plate_3mm
100
AcDbLine
 10
43.590049328
 20
213.231655285
 30
0.000000000
 11
44.060277536
 21
213.078868876
 31
0.000000000
  0
LINE
  5
C75
330
A02
100
AcDbEntity
  8
Bottom_plate_3mm
100
AcDbLine
 10
44.060277536
 20
213.078868876
 30
0.000000000
 11
44.350894546
 21
212.678868867
 31
0.000000000
  0
LINE
  5
C76
330
A02
100
AcDbEntity
  8
Bottom_plate_3mm
100
AcDbLine
 10
44.350894546
 20
212.678868867
 30
0.000000000
 11
44.350894534
 21
212.184441669
 31
0.000000000
  0
LINE
  5
C77
330
A02
100
AcDbEntity
  8
Bottom_plate_3mm
100
AcDbLine
 10
44.350894534
 20
212.184441669
 30
0.000000000
 11
44.060277506
 21
211.784441672
 31
0.000000000
  0
LINE
  5
C78
330
A02
100
AcDbEntity
  8
Bottom_plate_3mm
100
AcDbLine
 10
44.060277506
 20
211.784441672
 30
0.000000000
 11
43.590049291
 21
211.631655285
 31
0.000000000
  0
LINE
  5
C79
330
A02
100
AcDbEntity
  8
Bottom_plate_3mm
100
AcDbLine
 10
40.470049291
 20
207.131672176
 30
0.000000000
 11
43.590049328
 21
207.131672176
 31
0.000000000
  0
LINE
  5
C7A
330
A02
100
AcDbEntity
  8
Bottom_plate_3mm
100
AcDbLine
 10
40.470049291
 20
207.131672176
 30
0.000000000
 11
39.999821090
 21
207.284458580
 31
0.000000000
  0
LINE
  5
C7B
330
A02
100
AcDbEntity
  8
Bottom_plate_3mm
100
AcDbLine
 10
39.999821090
 20
207.284458580
 30
0.000000000
 11
39.709204078
 21
207.684458580
 31
0.000000000
  0
LINE
  5
C7C
330
A02
100
AcDbEntity
  8
Bottom_plate_3mm
100
AcDbLine
 10
39.709204078
 20
207.684458580
 30
0.000000000
 11
39.709204078
 21
208.178885771
 31
0.000000000
  0
LINE
  5
C7D
330
A02
100
AcDbEntity
  8
Bottom_plate_3mm
100
AcDbLine
 10
39.709204078
 20
208.178885771
 30
0.000000000
 11
39.999821090
 21
208.578885771
 31
0.000000000
  0
LINE
  5
C7E
330
A02
100
AcDbEntity
  8
Bottom_plate_3mm
100
AcDbLine
 10
39.999821090
 20
208.578885771
 30
0.000000000
 11
40.470049291
 21
208.731672176
 31
0.000000000
  0
LINE
  5
C7F
330
A02
100
AcDbEntity
  8
Bottom_plate_3mm
100
AcDbLine
 10
40.470049291
 20
211.631655285
 30
0.000000000
 11
40.470049291
 21
208.731672176
 31
0.000000000
  0
LINE
  5
C80
330
A02
100
AcDbEntity
  8
Bottom_plate_3mm
100
AcDbLine
 10
40.470049291
 20
211.631655285
 30
0.000000000
 11
39.999821090
 21
211.784441690
 31
0.000000000
  0
LINE
  5
C81
330
A02
100
AcDbEntity
  8
Bottom_plate_3mm
100
AcDbLine
 10
39.999821090
 20
211.784441690
 30
0.000000000
 11
39.709204078
 21
212.184441690
 31
0.000000000
  0
LINE
  5
C82
330
A02
100
AcDbEntity
  8
Bottom_plate_3mm
100
AcDbLine
 10
39.709204078
 20
212.184441690
 30
0.000000000
 11
39.709204078
 21
212.678868881
 31
0.000000000
  0
LINE
  5
C83
330
A02
100
AcDbEntity
  8
Bottom_plate_3mm
100
AcDbLine
 10
39.709204078
 20
212.678868881
 30
0.000000000
 11
39.999821090
 21
213.078868881
 31
0.000000000
  0
LINE
  5
C84
330
A02
100
AcDbEntity
  8
Bottom_plate_3mm
100
AcDbLine
 10
39.999821090
 20
213.078868881
 30
0.000000000
 11
40.470049291
 21
213.231655285
 31
0.000000000
  0
LINE
  5
C85
330
A02
100
AcDbEntity
  8
Bottom_plate_3mm
100
AcDbLine
 10
43.590049328
 20
213.231655285
 30
0.000000000
 11
40.470049291
 21
213.231655285
 31
0.000000000
  0
LINE
  5
C86
330
A02
100
AcDbEntity
  8
Bottom_plate_3mm
100
AcDbLine
 10
46.211373937
 20
210.371542168
 30
0.000000000
 11
52.711373937
 21
202.801894678
 31
0.000000000
  0
LINE
  5
C87
330
A02
100
AcDbEntity
  8
Bottom_plate_3mm
100
AcDbLine
 10
46.211373937
 20
210.371542168
 30
0.000000000
 11
46.032319225
 21
210.675646226
 31
0.000000000
  0
LINE
  5
C88
330
A02
100
AcDbEntity
  8
Bottom_plate_3mm
100
AcDbLine
 10
46.032319225
 20
210.675646226
 30
0.000000000
 11
45.970049291
 21
211.023011052
 31
0.000000000
  0
LINE
  5
C89
330
A02
100
AcDbEntity
  8
Bottom_plate_3mm
100
AcDbLine
 10
54.228724645
 20
202.801894678
 30
0.000000000
 11
53.753214178
 21
202.494292321
 31
0.000000000
  0
LINE
  5
C8A
330
A02
100
AcDbEntity
  8
Bottom_plate_3mm
100
AcDbLine
 10
53.753214178
 20
202.494292321
 30
0.000000000
 11
53.186884403
 21
202.494292321
 31
0.000000000
  0
LINE
  5
C8B
330
A02
100
AcDbEntity
  8
Bottom_plate_3mm
100
AcDbLine
 10
53.186884403
 20
202.494292321
 30
0.000000000
 11
52.711373937
 21
202.801894678
 31
0.000000000
  0
LINE
  5
C8C
330
A02
100
AcDbEntity
  8
Bottom_plate_3mm
100
AcDbLine
 10
45.970049291
 20
214.135027570
 30
0.000000000
 11
45.970049291
 21
211.023011052
 31
0.000000000
  0
LINE
  5
C8D
330
A02
100
AcDbEntity
  8
Bottom_plate_3mm
100
AcDbLine
 10
45.970049291
 20
214.135027570
 30
0.000000000
 11
46.136833522
 21
214.687975562
 31
0.000000000
  0
LINE
  5
C8E
330
A02
100
AcDbEntity
  8
Bottom_plate_3mm
100
AcDbLine
 10
46.136833522
 20
214.687975562
 30
0.000000000
 11
46.581552255
 21
215.056477543
 31
0.000000000
  0
LINE
  5
C8F
330
A02
100
AcDbEntity
  8
Bottom_plate_3mm
100
AcDbLine
 10
50.089635462
 20
216.535537687
 30
0.000000000
 11
46.581552255
 21
215.056477543
 31
0.000000000
  0
LINE
  5
C90
330
A02
100
AcDbEntity
  8
Bottom_plate_3mm
100
AcDbLine
 10
50.089635462
 20
216.535537687
 30
0.000000000
 11
50.478132498
 21
216.614087714
 31
0.000000000
  0
LINE
  5
C91
330
A02
100
AcDbEntity
  8
Bottom_plate_3mm
100
AcDbLine
 10
56.461966083
 20
216.614087714
 30
0.000000000
 11
50.478132498
 21
216.614087714
 31
0.000000000
  0
LINE
  5
C92
330
A02
100
AcDbEntity
  8
Bottom_plate_3mm
100
AcDbLine
 10
56.461966083
 20
216.614087714
 30
0.000000000
 11
56.850463120
 21
216.535537687
 31
0.000000000
  0
LINE
  5
C93
330
A02
100
AcDbEntity
  8
Bottom_plate_3mm
100
AcDbLine
 10
60.358546327
 20
215.056477543
 30
0.000000000
 11
56.850463120
 21
216.535537687
 31
0.000000000
  0
LINE
  5
C94
330
A02
100
AcDbEntity
  8
Bottom_plate_3mm
100
AcDbLine
 10
60.358546327
 20
215.056477543
 30
0.000000000
 11
60.803265060
 21
214.687975562
 31
0.000000000
  0
LINE
  5
C95
330
A02
100
AcDbEntity
  8
Bottom_plate_3mm
100
AcDbLine
 10
60.803265060
 20
214.687975562
 30
0.000000000
 11
60.970049290
 21
214.135027570
 31
0.000000000
  0
LINE
  5
C96
330
A02
100
AcDbEntity
  8
Bottom_plate_3mm
100
AcDbLine
 10
60.970049290
 20
211.023011052
 30
0.000000000
 11
60.970049290
 21
214.135027570
 31
0.000000000
  0
LINE
  5
C97
330
A02
100
AcDbEntity
  8
Bottom_plate_3mm
100
AcDbLine
 10
60.970049290
 20
211.023011052
 30
0.000000000
 11
60.907779357
 21
210.675646226
 31
0.000000000
  0
LINE
  5
C98
330
A02
100
AcDbEntity
  8
Bottom_plate_3mm
100
AcDbLine
 10
60.907779357
 20
210.675646226
 30
0.000000000
 11
60.728724645
 21
210.371542168
 31
0.000000000
  0
LINE
  5
C99
330
A02
100
AcDbEntity
  8
Bottom_plate_3mm
100
AcDbLine
 10
54.228724645
 20
202.801894678
 30
0.000000000
 11
60.728724645
 21
210.371542168
 31
0.000000000
  0
LINE
  5
C9A
330
A02
100
AcDbEntity
  8
Bottom_plate_3mm
100
AcDbLine
 10
40.470049273
 20
198.047504695
 30
0.000000000
 11
40.470049273
 21
195.147521585
 31
0.000000000
  0
LINE
  5
C9B
330
A02
100
AcDbEntity
  8
Bottom_plate_3mm
100
AcDbLine
 10
40.470049273
 20
198.047504695
 30
0.000000000
 11
39.999821071
 21
198.200291099
 31
0.000000000
  0
LINE
  5
C9C
330
A02
100
AcDbEntity
  8
Bottom_plate_3mm
100
AcDbLine
 10
39.999821071
 20
198.200291099
 30
0.000000000
 11
39.709204060
 21
198.600291099
 31
0.000000000
  0
LINE
  5
C9D
330
A02
100
AcDbEntity
  8
Bottom_plate_3mm
100
AcDbLine
 10
39.709204060
 20
198.600291099
 30
0.000000000
 11
39.709204060
 21
199.094718290
 31
0.000000000
  0
LINE
  5
C9E
330
A02
100
AcDbEntity
  8
Bottom_plate_3mm
100
AcDbLine
 10
39.709204060
 20
199.094718290
 30
0.000000000
 11
39.999821071
 21
199.494718290
 31
0.000000000
  0
LINE
  5
C9F
330
A02
100
AcDbEntity
  8
Bottom_plate_3mm
100
AcDbLine
 10
39.999821071
 20
199.494718290
 30
0.000000000
 11
40.470049273
 21
199.647504695
 31
0.000000000
  0
LINE
  5
CA0
330
A02
100
AcDbEntity
  8
Bottom_plate_3mm
100
AcDbLine
 10
40.470049273
 20
193.547521585
 30
0.000000000
 11
39.999821071
 21
193.700307990
 31
0.000000000
  0
LINE
  5
CA1
330
A02
100
AcDbEntity
  8
Bottom_plate_3mm
100
AcDbLine
 10
39.999821071
 20
193.700307990
 30
0.000000000
 11
39.709204060
 21
194.100307990
 31
0.000000000
  0
LINE
  5
CA2
330
A02
100
AcDbEntity
  8
Bottom_plate_3mm
100
AcDbLine
 10
39.709204060
 20
194.100307990
 30
0.000000000
 11
39.709204060
 21
194.594735181
 31
0.000000000
  0
LINE
  5
CA3
330
A02
100
AcDbEntity
  8
Bottom_plate_3mm
100
AcDbLine
 10
39.709204060
 20
194.594735181
 30
0.000000000
 11
39.999821071
 21
194.994735181
 31
0.000000000
  0
LINE
  5
CA4
330
A02
100
AcDbEntity
  8
Bottom_plate_3mm
100
AcDbLine
 10
39.999821071
 20
194.994735181
 30
0.000000000
 11
40.470049273
 21
195.147521586
 31
0.000000000
  0
LINE
  5
CA5
330
A02
100
AcDbEntity
  8
Bottom_plate_3mm
100
AcDbLine
 10
43.590049310
 20
199.647504695
 30
0.000000000
 11
40.470049273
 21
199.647504695
 31
0.000000000
  0
LINE
  5
CA6
330
A02
100
AcDbEntity
  8
Bottom_plate_3mm
100
AcDbLine
 10
43.590049310
 20
199.647504695
 30
0.000000000
 11
44.060277518
 21
199.494718286
 31
0.000000000
  0
LINE
  5
CA7
330
A02
100
AcDbEntity
  8
Bottom_plate_3mm
100
AcDbLine
 10
44.060277518
 20
199.494718286
 30
0.000000000
 11
44.350894527
 21
199.094718276
 31
0.000000000
  0
LINE
  5
CA8
330
A02
100
AcDbEntity
  8
Bottom_plate_3mm
100
AcDbLine
 10
44.350894527
 20
199.094718276
 30
0.000000000
 11
44.350894516
 21
198.600291078
 31
0.000000000
  0
LINE
  5
CA9
330
A02
100
AcDbEntity
  8
Bottom_plate_3mm
100
AcDbLine
 10
44.350894516
 20
198.600291078
 30
0.000000000
 11
44.060277488
 21
198.200291082
 31
0.000000000
  0
LINE
  5
CAA
330
A02
100
AcDbEntity
  8
Bottom_plate_3mm
100
AcDbLine
 10
44.060277488
 20
198.200291082
 30
0.000000000
 11
43.590049273
 21
198.047504695
 31
0.000000000
  0
LINE
  5
CAB
330
A02
100
AcDbEntity
  8
Bottom_plate_3mm
100
AcDbLine
 10
43.590049273
 20
195.147521585
 30
0.000000000
 11
43.590049273
 21
198.047504695
 31
0.000000000
  0
LINE
  5
CAC
330
A02
100
AcDbEntity
  8
Bottom_plate_3mm
100
AcDbLine
 10
43.590049274
 20
195.147521586
 30
0.000000000
 11
44.060277488
 21
194.994735198
 31
0.000000000
  0
LINE
  5
CAD
330
A02
100
AcDbEntity
  8
Bottom_plate_3mm
100
AcDbLine
 10
44.060277488
 20
194.994735198
 30
0.000000000
 11
44.350894516
 21
194.594735201
 31
0.000000000
  0
LINE
  5
CAE
330
A02
100
AcDbEntity
  8
Bottom_plate_3mm
100
AcDbLine
 10
44.350894516
 20
194.594735201
 30
0.000000000
 11
44.350894527
 21
194.100308004
 31
0.000000000
  0
LINE
  5
CAF
330
A02
100
AcDbEntity
  8
Bottom_plate_3mm
100
AcDbLine
 10
44.350894527
 20
194.100308004
 30
0.000000000
 11
44.060277517
 21
193.700307994
 31
0.000000000
  0
LINE
  5
CB0
330
A02
100
AcDbEntity
  8
Bottom_plate_3mm
100
AcDbLine
 10
44.060277517
 20
193.700307994
 30
0.000000000
 11
43.590049310
 21
193.547521585
 31
0.000000000
  0
LINE
  5
CB1
330
A02
100
AcDbEntity
  8
Bottom_plate_3mm
100
AcDbLine
 10
40.470049273
 20
193.547521585
 30
0.000000000
 11
43.590049310
 21
193.547521586
 31
0.000000000
  0
LINE
  5
CB2
330
A02
100
AcDbEntity
  8
Bottom_plate_3mm
100
AcDbLine
 10
47.779909782
 20
168.292372660
 30
0.000000000
 11
40.277200385
 21
159.555008758
 31
0.000000000
  0
LINE
  5
CB3
330
A02
100
AcDbEntity
  8
Bottom_plate_3mm
100
AcDbLine
 10
47.779909782
 20
168.292372660
 30
0.000000000
 11
48.368705750
 21
168.711006221
 31
0.000000000
  0
LINE
  5
CB4
330
A02
100
AcDbEntity
  8
Bottom_plate_3mm
100
AcDbLine
 10
48.368705750
 20
168.711006221
 30
0.000000000
 11
49.084904149
 21
168.805846104
 31
0.000000000
  0
LINE
  5
CB5
330
A02
100
AcDbEntity
  8
Bottom_plate_3mm
100
AcDbLine
 10
49.084904149
 20
168.805846104
 30
0.000000000
 11
49.762367721
 21
168.554892205
 31
0.000000000
  0
LINE
  5
CB6
330
A02
100
AcDbEntity
  8
Bottom_plate_3mm
100
AcDbLine
 10
49.762367721
 20
168.554892205
 30
0.000000000
 11
50.243944563
 21
168.016358551
 31
0.000000000
  0
LINE
  5
CB7
330
A02
100
AcDbEntity
  8
Bottom_plate_3mm
100
AcDbLine
 10
50.243944563
 20
168.016358551
 30
0.000000000
 11
50.417922813
 21
167.315169334
 31
0.000000000
  0
LINE
  5
CB8
330
A02
100
AcDbEntity
  8
Bottom_plate_3mm
100
AcDbLine
 10
39.996117187
 20
158.091836410
 30
0.000000000
 11
39.915418868
 21
158.602631084
 31
0.000000000
  0
LINE
  5
CB9
330
A02
100
AcDbEntity
  8
Bottom_plate_3mm
100
AcDbLine
 10
39.915418868
 20
158.602631084
 30
0.000000000
 11
40.012978409
 21
159.110475109
 31
0.000000000
  0
LINE
  5
CBA
330
A02
100
AcDbEntity
  8
Bottom_plate_3mm
100
AcDbLine
 10
40.012978409
 20
159.110475109
 30
0.000000000
 11
40.277200385
 21
159.555008758
 31
0.000000000
  0
LINE
  5
CBB
330
A02
100
AcDbEntity
  8
Bottom_plate_3mm
100
AcDbLine
 10
50.417922813
 20
140.375599105
 30
0.000000000
 11
50.417922813
 21
167.315169334
 31
0.000000000
  0
LINE
  5
CBC
330
A02
100
AcDbEntity
  8
Bottom_plate_3mm
100
AcDbLine
 10
50.417922813
 20
140.375599105
 30
0.000000000
 11
50.263024825
 21
139.711746277
 31
0.000000000
  0
LINE
  5
CBD
330
A02
100
AcDbEntity
  8
Bottom_plate_3mm
100
AcDbLine
 10
50.263024825
 20
139.711746277
 30
0.000000000
 11
49.830322044
 21
139.184999406
 31
0.000000000
  0
LINE
  5
CBE
330
A02
100
AcDbEntity
  8
Bottom_plate_3mm
100
AcDbLine
 10
49.830322044
 20
139.184999406
 30
0.000000000
 11
49.209180857
 21
138.904147865
 31
0.000000000
  0
LINE
  5
CBF
330
A02
100
AcDbEntity
  8
Bottom_plate_3mm
100
AcDbLine
 10
49.209180857
 20
138.904147865
 30
0.000000000
 11
48.527885956
 21
138.927196105
 31
0.000000000
  0
LINE
  5
CC0
330
A02
100
AcDbEntity
  8
Bottom_plate_3mm
100
AcDbLine
 10
48.527885956
 20
138.927196105
 30
0.000000000
 11
47.927145621
 21
139.249383959
 31
0.000000000
  0
LINE
  5
CC1
330
A02
100
AcDbEntity
  8
Bottom_plate_3mm
100
AcDbLine
 10
47.927145621
 20
139.249383959
 30
0.000000000
 11
47.531031144
 21
139.804169759
 31
0.000000000
  0
LINE
  5
CC2
330
A02
100
AcDbEntity
  8
Bottom_plate_3mm
100
AcDbLine
 10
39.996117187
 20
158.091836410
 30
0.000000000
 11
47.531031144
 21
139.804169759
 31
0.000000000
  0
LINE
  5
CC3
330
A02
100
AcDbEntity
  8
Bottom_plate_3mm
100
AcDbLine
 10
63.470049291
 20
18.523035905
 30
0.000000000
 11
63.290299145
 21
17.951030505
 31
0.000000000
  0
LINE
  5
CC4
330
A02
100
AcDbEntity
  8
Bottom_plate_3mm
100
AcDbLine
 10
63.290299145
 20
17.951030505
 30
0.000000000
 11
62.815668936
 21
17.584661214
 31
0.000000000
  0
LINE
  5
CC5
330
A02
100
AcDbEntity
  8
Bottom_plate_3mm
100
AcDbLine
 10
62.815668936
 20
17.584661214
 30
0.000000000
 11
62.216788364
 21
17.555637899
 31
0.000000000
  0
LINE
  5
CC6
330
A02
100
AcDbEntity
  8
Bottom_plate_3mm
100
AcDbLine
 10
62.216788364
 20
17.555637899
 30
0.000000000
 11
61.708955169
 21
17.874394450
 31
0.000000000
  0
LINE
  5
CC7
330
A02
100
AcDbEntity
  8
Bottom_plate_3mm
100
AcDbLine
 10
63.470049291
 20
18.523035905
 30
0.000000000
 11
63.470049291
 21
40.778502907
 31
0.000000000
  0
LINE
  5
CC8
330
A02
100
AcDbEntity
  8
Bottom_plate_3mm
100
AcDbLine
 10
55.708955169
 20
24.914593150
 30
0.000000000
 11
61.708955169
 21
17.874394450
 31
0.000000000
  0
LINE
  5
CC9
330
A02
100
AcDbEntity
  8
Bottom_plate_3mm
100
AcDbLine
 10
55.708955169
 20
24.914593150
 30
0.000000000
 11
55.531674600
 21
25.217614960
 31
0.000000000
  0
LINE
  5
CCA
330
A02
100
AcDbEntity
  8
Bottom_plate_3mm
100
AcDbLine
 10
55.531674600
 20
25.217614960
 30
0.000000000
 11
55.470049291
 21
25.563234605
 31
0.000000000
  0
LINE
  5
CCB
330
A02
100
AcDbEntity
  8
Bottom_plate_3mm
100
AcDbLine
 10
55.470049291
 20
43.122399430
 30
0.000000000
 11
55.470049291
 21
25.563234605
 31
0.000000000
  0
LINE
  5
CCC
330
A02
100
AcDbEntity
  8
Bottom_plate_3mm
100
AcDbLine
 10
55.470049291
 20
43.122399430
 30
0.000000000
 11
55.537318946
 21
43.482974114
 31
0.000000000
  0
LINE
  5
CCD
330
A02
100
AcDbEntity
  8
Bottom_plate_3mm
100
AcDbLine
 10
55.537318946
 20
43.482974114
 30
0.000000000
 11
55.730077497
 21
43.795037330
 31
0.000000000
  0
LINE
  5
CCE
330
A02
100
AcDbEntity
  8
Bottom_plate_3mm
100
AcDbLine
 10
58.730077497
 20
47.095349997
 30
0.000000000
 11
55.730077497
 21
43.795037330
 31
0.000000000
  0
LINE
  5
CCF
330
A02
100
AcDbEntity
  8
Bottom_plate_3mm
100
AcDbLine
 10
58.730077497
 20
47.095349997
 30
0.000000000
 11
59.240054592
 21
47.395903978
 31
0.000000000
  0
LINE
  5
CD0
330
A02
100
AcDbEntity
  8
Bottom_plate_3mm
100
AcDbLine
 10
59.240054592
 20
47.395903978
 30
0.000000000
 11
59.830623975
 21
47.355442442
 31
0.000000000
  0
LINE
  5
CD1
330
A02
100
AcDbEntity
  8
Bottom_plate_3mm
100
AcDbLine
 10
59.830623975
 20
47.355442442
 30
0.000000000
 11
60.294844624
 21
46.988143488
 31
0.000000000
  0
LINE
  5
CD2
330
A02
100
AcDbEntity
  8
Bottom_plate_3mm
100
AcDbLine
 10
60.294844624
 20
46.988143488
 30
0.000000000
 11
60.470049291
 21
46.422712097
 31
0.000000000
  0
LINE
  5
CD3
330
A02
100
AcDbEntity
  8
Bottom_plate_3mm
100
AcDbLine
 10
60.470049291
 20
44.502692657
 30
0.000000000
 11
60.470049291
 21
46.422712097
 31
0.000000000
  0
LINE
  5
CD4
330
A02
100
AcDbEntity
  8
Bottom_plate_3mm
100
AcDbLine
 10
60.778819466
 20
43.780057666
 30
0.000000000
 11
60.550476068
 21
44.109773979
 31
0.000000000
  0
LINE
  5
CD5
330
A02
100
AcDbEntity
  8
Bottom_plate_3mm
100
AcDbLine
 10
60.550476068
 20
44.109773979
 30
0.000000000
 11
60.470049291
 21
44.502692657
 31
0.000000000
  0
LINE
  5
CD6
330
A02
100
AcDbEntity
  8
Bottom_plate_3mm
100
AcDbLine
 10
63.161279115
 20
41.501137897
 30
0.000000000
 11
60.778819466
 21
43.780057666
 31
0.000000000
  0
LINE
  5
CD7
330
A02
100
AcDbEntity
  8
Bottom_plate_3mm
100
AcDbLine
 10
63.161279115
 20
41.501137897
 30
0.000000000
 11
63.389622514
 21
41.171421585
 31
0.000000000
  0
LINE
  5
CD8
330
A02
100
AcDbEntity
  8
Bottom_plate_3mm
100
AcDbLine
 10
63.389622514
 20
41.171421585
 30
0.000000000
 11
63.470049291
 21
40.778502907
 31
0.000000000
  0
LINE
  5
CD9
330
A02
100
AcDbEntity
  8
Bottom_plate_3mm
100
AcDbLine
 10
46.161279115
 20
43.780057666
 30
0.000000000
 11
43.778819466
 21
41.501137897
 31
0.000000000
  0
LINE
  5
CDA
330
A02
100
AcDbEntity
  8
Bottom_plate_3mm
100
AcDbLine
 10
46.470049291
 20
44.502692657
 30
0.000000000
 11
46.389622514
 21
44.109773979
 31
0.000000000
  0
LINE
  5
CDB
330
A02
100
AcDbEntity
  8
Bottom_plate_3mm
100
AcDbLine
 10
46.389622514
 20
44.109773979
 30
0.000000000
 11
46.161279115
 21
43.780057666
 31
0.000000000
  0
LINE
  5
CDC
330
A02
100
AcDbEntity
  8
Bottom_plate_3mm
100
AcDbLine
 10
43.470049291
 20
40.778502907
 30
0.000000000
 11
43.550476068
 21
41.171421585
 31
0.000000000
  0
LINE
  5
CDD
330
A02
100
AcDbEntity
  8
Bottom_plate_3mm
100
AcDbLine
 10
43.550476068
 20
41.171421585
 30
0.000000000
 11
43.778819466
 21
41.501137897
 31
0.000000000
  0
LINE
  5
CDE
330
A02
100
AcDbEntity
  8
Bottom_plate_3mm
100
AcDbLine
 10
46.470049291
 20
46.422712097
 30
0.000000000
 11
46.470049291
 21
44.502692657
 31
0.000000000
  0
LINE
  5
CDF
330
A02
100
AcDbEntity
  8
Bottom_plate_3mm
100
AcDbLine
 10
46.470049291
 20
46.422712097
 30
0.000000000
 11
46.645253957
 21
46.988143488
 31
0.000000000
  0
LINE
  5
CE0
330
A02
100
AcDbEntity
  8
Bottom_plate_3mm
100
AcDbLine
 10
46.645253957
 20
46.988143488
 30
0.000000000
 11
47.109474606
 21
47.355442442
 31
0.000000000
  0
LINE
  5
CE1
330
A02
100
AcDbEntity
  8
Bottom_plate_3mm
100
AcDbLine
 10
47.109474606
 20
47.355442442
 30
0.000000000
 11
47.700043990
 21
47.395903978
 31
0.000000000
  0
LINE
  5
CE2
330
A02
100
AcDbEntity
  8
Bottom_plate_3mm
100
AcDbLine
 10
47.700043990
 20
47.395903978
 30
0.000000000
 11
48.210021085
 21
47.095349997
 31
0.000000000
  0
LINE
  5
CE3
330
A02
100
AcDbEntity
  8
Bottom_plate_3mm
100
AcDbLine
 10
51.210021085
 20
43.795037330
 30
0.000000000
 11
48.210021085
 21
47.095349997
 31
0.000000000
  0
LINE
  5
CE4
330
A02
100
AcDbEntity
  8
Bottom_plate_3mm
100
AcDbLine
 10
51.210021085
 20
43.795037330
 30
0.000000000
 11
51.402779636
 21
43.482974114
 31
0.000000000
  0
LINE
  5
CE5
330
A02
100
AcDbEntity
  8
Bottom_plate_3mm
100
AcDbLine
 10
51.402779636
 20
43.482974114
 30
0.000000000
 11
51.470049291
 21
43.122399430
 31
0.000000000
  0
LINE
  5
CE6
330
A02
100
AcDbEntity
  8
Bottom_plate_3mm
100
AcDbLine
 10
51.470049291
 20
25.563234605
 30
0.000000000
 11
51.470049291
 21
43.122399430
 31
0.000000000
  0
LINE
  5
CE7
330
A02
100
AcDbEntity
  8
Bottom_plate_3mm
100
AcDbLine
 10
51.470049291
 20
25.563234605
 30
0.000000000
 11
51.408423982
 21
25.217614960
 31
0.000000000
  0
LINE
  5
CE8
330
A02
100
AcDbEntity
  8
Bottom_plate_3mm
100
AcDbLine
 10
51.408423982
 20
25.217614960
 30
0.000000000
 11
51.231143413
 21
24.914593150
 31
0.000000000
  0
LINE
  5
CE9
330
A02
100
AcDbEntity
  8
Bottom_plate_3mm
100
AcDbLine
 10
45.231143413
 20
17.874394450
 30
0.000000000
 11
51.231143413
 21
24.914593150
 31
0.000000000
  0
LINE
  5
CEA
330
A02
100
AcDbEntity
  8
Bottom_plate_3mm
100
AcDbLine
 10
45.231143413
 20
17.874394450
 30
0.000000000
 11
44.723310218
 21
17.555637899
 31
0.000000000
  0
LINE
  5
CEB
330
A02
100
AcDbEntity
  8
Bottom_plate_3mm
100
AcDbLine
 10
44.723310218
 20
17.555637899
 30
0.000000000
 11
44.124429646
 21
17.584661214
 31
0.000000000
  0
LINE
  5
CEC
330
A02
100
AcDbEntity
  8
Bottom_plate_3mm
100
AcDbLine
 10
44.124429646
 20
17.584661214
 30
0.000000000
 11
43.649799437
 21
17.951030505
 31
0.000000000
  0
LINE
  5
CED
330
A02
100
AcDbEntity
  8
Bottom_plate_3mm
100
AcDbLine
 10
43.649799437
 20
17.951030505
 30
0.000000000
 11
43.470049291
 21
18.523035905
 31
0.000000000
  0
LINE
  5
CEE
330
A02
100
AcDbEntity
  8
Bottom_plate_3mm
100
AcDbLine
 10
43.470049291
 20
40.778502907
 30
0.000000000
 11
43.470049291
 21
18.523035905
 31
0.000000000
  0
LINE
  5
CEF
330
A02
100
AcDbEntity
  8
Bottom_plate_3mm
100
AcDbLine
 10
65.433668061
 20
78.105982062
 30
0.000000000
 11
60.454127032
 21
82.509075699
 31
0.000000000
  0
LINE
  5
CF0
330
A02
100
AcDbEntity
  8
Bottom_plate_3mm
100
AcDbLine
 10
65.433668061
 20
78.105982062
 30
0.000000000
 11
65.797990394
 21
77.619447025
 31
0.000000000
  0
LINE
  5
CF1
330
A02
100
AcDbEntity
  8
Bottom_plate_3mm
100
AcDbLine
 10
65.797990394
 20
77.619447025
 30
0.000000000
 11
65.939339987
 21
77.028289350
 31
0.000000000
  0
LINE
  5
CF2
330
A02
100
AcDbEntity
  8
Bottom_plate_3mm
100
AcDbLine
 10
65.939339987
 20
77.028289350
 30
0.000000000
 11
65.834507419
 21
76.429576367
 31
0.000000000
  0
LINE
  5
CF3
330
A02
100
AcDbEntity
  8
Bottom_plate_3mm
100
AcDbLine
 10
65.834507419
 20
76.429576367
 30
0.000000000
 11
65.500706063
 21
75.921615976
 31
0.000000000
  0
LINE
  5
CF4
330
A02
100
AcDbEntity
  8
Bottom_plate_3mm
100
AcDbLine
 10
58.399844690
 20
82.446029956
 30
0.000000000
 11
59.042724688
 21
82.826015378
 31
0.000000000
  0
LINE
  5
CF5
330
A02
100
AcDbEntity
  8
Bottom_plate_3mm
100
AcDbLine
 10
59.042724688
 20
82.826015378
 30
0.000000000
 11
59.789155423
 21
82.848923271
 31
0.000000000
  0
LINE
  5
CF6
330
A02
100
AcDbEntity
  8
Bottom_plate_3mm
100
AcDbLine
 10
59.789155423
 20
82.848923271
 30
0.000000000
 11
60.454127032
 21
82.509075699
 31
0.000000000
  0
LINE
  5
CF7
330
A02
100
AcDbEntity
  8
Bottom_plate_3mm
100
AcDbLine
 10
57.177156072
 20
67.598065985
 30
0.000000000
 11
65.500706063
 21
75.921615976
 31
0.000000000
  0
LINE
  5
CF8
330
A02
100
AcDbEntity
  8
Bottom_plate_3mm
100
AcDbLine
 10
57.177156072
 20
67.598065985
 30
0.000000000
 11
56.665139613
 21
67.324387486
 31
0.000000000
  0
LINE
  5
CF9
330
A02
100
AcDbEntity
  8
Bottom_plate_3mm
100
AcDbLine
 10
56.665139613
 20
67.324387486
 30
0.000000000
 11
56.087365858
 21
67.381293234
 31
0.000000000
  0
LINE
  5
CFA
330
A02
100
AcDbEntity
  8
Bottom_plate_3mm
100
AcDbLine
 10
56.087365858
 20
67.381293234
 30
0.000000000
 11
55.638579679
 21
67.749602533
 31
0.000000000
  0
LINE
  5
CFB
330
A02
100
AcDbEntity
  8
Bottom_plate_3mm
100
AcDbLine
 10
55.638579679
 20
67.749602533
 30
0.000000000
 11
55.470049291
 21
68.305172766
 31
0.000000000
  0
LINE
  5
CFC
330
A02
100
AcDbEntity
  8
Bottom_plate_3mm
100
AcDbLine
 10
55.470049291
 20
78.894914214
 30
0.000000000
 11
55.470049291
 21
68.305172766
 31
0.000000000
  0
LINE
  5
CFD
330
A02
100
AcDbEntity
  8
Bottom_plate_3mm
100
AcDbLine
 10
55.470049291
 20
78.894914214
 30
0.000000000
 11
55.584229992
 21
79.468939362
 31
0.000000000
  0
LINE
  5
CFE
330
A02
100
AcDbEntity
  8
Bottom_plate_3mm
100
AcDbLine
 10
55.584229992
 20
79.468939362
 30
0.000000000
 11
55.909389119
 21
79.955574386
 31
0.000000000
  0
LINE
  5
CFF
330
A02
100
AcDbEntity
  8
Bottom_plate_3mm
100
AcDbLine
 10
58.399844690
 20
82.446029956
 30
0.000000000
 11
55.909389119
 21
79.955574386
 31
0.000000000
  0
LINE
  5
D00
330
A02
100
AcDbEntity
  8
Bottom_plate_3mm
100
AcDbLine
 10
46.485971550
 20
82.509075699
 30
0.000000000
 11
41.506430521
 21
78.105982062
 31
0.000000000
  0
LINE
  5
D01
330
A02
100
AcDbEntity
  8
Bottom_plate_3mm
100
AcDbLine
 10
46.485971550
 20
82.509075699
 30
0.000000000
 11
47.150943159
 21
82.848923271
 31
0.000000000
  0
LINE
  5
D02
330
A02
100
AcDbEntity
  8
Bottom_plate_3mm
100
AcDbLine
 10
47.150943159
 20
82.848923271
 30
0.000000000
 11
47.897373894
 21
82.826015378
 31
0.000000000
  0
LINE
  5
D03
330
A02
100
AcDbEntity
  8
Bottom_plate_3mm
100
AcDbLine
 10
47.897373894
 20
82.826015378
 30
0.000000000
 11
48.540253892
 21
82.446029956
 31
0.000000000
  0
LINE
  5
D04
330
A02
100
AcDbEntity
  8
Bottom_plate_3mm
100
AcDbLine
 10
41.439392519
 20
75.921615976
 30
0.000000000
 11
41.105591163
 21
76.429576367
 31
0.000000000
  0
LINE
  5
D05
330
A02
100
AcDbEntity
  8
Bottom_plate_3mm
100
AcDbLine
 10
41.105591163
 20
76.429576367
 30
0.000000000
 11
41.000758595
 21
77.028289350
 31
0.000000000
  0
LINE
  5
D06
330
A02
100
AcDbEntity
  8
Bottom_plate_3mm
100
AcDbLine
 10
41.000758595
 20
77.028289350
 30
0.000000000
 11
41.142108188
 21
77.619447025
 31
0.000000000
  0
LINE
  5
D07
330
A02
100
AcDbEntity
  8
Bottom_plate_3mm
100
AcDbLine
 10
41.142108188
 20
77.619447025
 30
0.000000000
 11
41.506430521
 21
78.105982062
 31
0.000000000
  0
LINE
  5
D08
330
A02
100
AcDbEntity
  8
Bottom_plate_3mm
100
AcDbLine
 10
51.030709463
 20
79.955574386
 30
0.000000000
 11
48.540253892
 21
82.446029956
 31
0.000000000
  0
LINE
  5
D09
330
A02
100
AcDbEntity
  8
Bottom_plate_3mm
100
AcDbLine
 10
51.030709463
 20
79.955574386
 30
0.000000000
 11
51.355868590
 21
79.468939362
 31
0.000000000
  0
LINE
  5
D0A
330
A02
100
AcDbEntity
  8
Bottom_plate_3mm
100
AcDbLine
 10
51.355868590
 20
79.468939362
 30
0.000000000
 11
51.470049291
 21
78.894914214
 31
0.000000000
  0
LINE
  5
D0B
330
A02
100
AcDbEntity
  8
Bottom_plate_3mm
100
AcDbLine
 10
51.470049291
 20
68.305172766
 30
0.000000000
 11
51.470049291
 21
78.894914214
 31
0.000000000
  0
LINE
  5
D0C
330
A02
100
AcDbEntity
  8
Bottom_plate_3mm
100
AcDbLine
 10
51.470049291
 20
68.305172766
 30
0.000000000
 11
51.301518903
 21
67.749602533
 31
0.000000000
  0
LINE
  5
D0D
330
A02
100
AcDbEntity
  8
Bottom_plate_3mm
100
AcDbLine
 10
51.301518903
 20
67.749602533
 30
0.000000000
 11
50.852732723
 21
67.381293234
 31
0.000000000
  0
LINE
  5
D0E
330
A02
100
AcDbEntity
  8
Bottom_plate_3mm
100
AcDbLine
 10
50.852732723
 20
67.381293234
 30
0.000000000
 11
50.274958969
 21
67.324387486
 31
0.000000000
  0
LINE
  5
D0F
330
A02
100
AcDbEntity
  8
Bottom_plate_3mm
100
AcDbLine
 10
50.274958969
 20
67.324387486
 30
0.000000000
 11
49.762942510
 21
67.598065985
 31
0.000000000
  0
LINE
  5
D10
330
A02
100
AcDbEntity
  8
Bottom_plate_3mm
100
AcDbLine
 10
41.439392519
 20
75.921615976
 30
0.000000000
 11
49.762942510
 21
67.598065985
 31
0.000000000
  0
LINE
  5
D11
330
A02
100
AcDbEntity
  8
Bottom_plate_3mm
100
AcDbLine
 10
43.590049292
 20
220.316693313
 30
0.000000000
 11
44.060277506
 21
220.163906926
 31
0.000000000
  0
LINE
  5
D12
330
A02
100
AcDbEntity
  8
Bottom_plate_3mm
100
AcDbLine
 10
44.060277506
 20
220.163906926
 30
0.000000000
 11
44.350894535
 21
219.763906929
 31
0.000000000
  0
LINE
  5
D13
330
A02
100
AcDbEntity
  8
Bottom_plate_3mm
100
AcDbLine
 10
44.350894535
 20
219.763906929
 30
0.000000000
 11
44.350894546
 21
219.269479731
 31
0.000000000
  0
LINE
  5
D14
330
A02
100
AcDbEntity
  8
Bottom_plate_3mm
100
AcDbLine
 10
44.350894546
 20
219.269479731
 30
0.000000000
 11
44.060277535
 21
218.869479721
 31
0.000000000
  0
LINE
  5
D15
330
A02
100
AcDbEntity
  8
Bottom_plate_3mm
100
AcDbLine
 10
44.060277535
 20
218.869479721
 30
0.000000000
 11
43.590049327
 21
218.716693313
 31
0.000000000
  0
LINE
  5
D16
330
A02
100
AcDbEntity
  8
Bottom_plate_3mm
100
AcDbLine
 10
35.836201065
 20
218.961282373
 30
0.000000000
 11
39.670049292
 21
220.239210197
 31
0.000000000
  0
LINE
  5
D17
330
A02
100
AcDbEntity
  8
Bottom_plate_3mm
100
AcDbLine
 10
35.152424023
 20
218.012597473
 30
0.000000000
 11
35.341183320
 21
218.597309813
 31
0.000000000
  0
LINE
  5
D18
330
A02
100
AcDbEntity
  8
Bottom_plate_3mm
100
AcDbLine
 10
35.341183320
 20
218.597309813
 30
0.000000000
 11
35.836201065
 21
218.961282373
 31
0.000000000
  0
LINE
  5
D19
330
A02
100
AcDbEntity
  8
Bottom_plate_3mm
100
AcDbLine
 10
35.152424023
 20
201.511208158
 30
0.000000000
 11
35.152424023
 21
218.012597473
 31
0.000000000
  0
LINE
  5
D1A
330
A02
100
AcDbEntity
  8
Bottom_plate_3mm
100
AcDbLine
 10
35.152424023
 20
201.511208158
 30
0.000000000
 11
35.056564650
 21
200.758900228
 31
0.000000000
  0
LINE
  5
D1B
330
A02
100
AcDbEntity
  8
Bottom_plate_3mm
100
AcDbLine
 10
35.056564650
 20
200.758900228
 30
0.000000000
 11
34.775112542
 21
200.054669476
 31
0.000000000
  0
LINE
  5
D1C
330
A02
100
AcDbEntity
  8
Bottom_plate_3mm
100
AcDbLine
 10
34.775112542
 20
200.054669476
 30
0.000000000
 11
34.326054249
 21
199.443520648
 31
0.000000000
  0
LINE
  5
D1D
330
A02
100
AcDbEntity
  8
Bottom_plate_3mm
100
AcDbLine
 10
29.057857648
 20
193.905395903
 30
0.000000000
 11
34.326054249
 21
199.443520648
 31
0.000000000
  0
LINE
  5
D1E
330
A02
100
AcDbEntity
  8
Bottom_plate_3mm
100
AcDbLine
 10
28.231487874
 20
191.837708392
 30
0.000000000
 11
28.327347248
 21
192.590016322
 31
0.000000000
  0
LINE
  5
D1F
330
A02
100
AcDbEntity
  8
Bottom_plate_3mm
100
AcDbLine
 10
28.327347248
 20
192.590016322
 30
0.000000000
 11
28.608799355
 21
193.294247074
 31
0.000000000
  0
LINE
  5
D20
330
A02
100
AcDbEntity
  8
Bottom_plate_3mm
100
AcDbLine
 10
28.608799355
 20
193.294247074
 30
0.000000000
 11
29.057857648
 21
193.905395903
 31
0.000000000
  0
LINE
  5
D21
330
A02
100
AcDbEntity
  8
Bottom_plate_3mm
100
AcDbLine
 10
28.231487874
 20
186.779548349
 30
0.000000000
 11
28.231487874
 21
191.837708392
 31
0.000000000
  0
LINE
  5
D22
330
A02
100
AcDbEntity
  8
Bottom_plate_3mm
100
AcDbLine
 10
29.240361518
 20
184.535575124
 30
0.000000000
 11
28.695080637
 21
185.177475214
 31
0.000000000
  0
LINE
  5
D23
330
A02
100
AcDbEntity
  8
Bottom_plate_3mm
100
AcDbLine
 10
28.695080637
 20
185.177475214
 30
0.000000000
 11
28.349715701
 21
185.945648388
 31
0.000000000
  0
LINE
  5
D24
330
A02
100
AcDbEntity
  8
Bottom_plate_3mm
100
AcDbLine
 10
28.349715701
 20
185.945648388
 30
0.000000000
 11
28.231487874
 21
186.779548349
 31
0.000000000
  0
LINE
  5
D25
330
A02
100
AcDbEntity
  8
Bottom_plate_3mm
100
AcDbLine
 10
32.042114733
 20
182.049518423
 30
0.000000000
 11
29.240361518
 21
184.535575124
 31
0.000000000
  0
LINE
  5
D26
330
A02
100
AcDbEntity
  8
Bottom_plate_3mm
100
AcDbLine
 10
32.042114733
 20
182.049518423
 30
0.000000000
 11
32.587395613
 21
181.407618334
 31
0.000000000
  0
LINE
  5
D27
330
A02
100
AcDbEntity
  8
Bottom_plate_3mm
100
AcDbLine
 10
32.587395613
 20
181.407618334
 30
0.000000000
 11
32.932760549
 21
180.639445160
 31
0.000000000
  0
LINE
  5
D28
330
A02
100
AcDbEntity
  8
Bottom_plate_3mm
100
AcDbLine
 10
32.932760549
 20
180.639445160
 30
0.000000000
 11
33.050988377
 21
179.805545199
 31
0.000000000
  0
LINE
  5
D29
330
A02
100
AcDbEntity
  8
Bottom_plate_3mm
100
AcDbLine
 10
33.050988377
 20
170.412599653
 30
0.000000000
 11
33.050988377
 21
179.805545199
 31
0.000000000
  0
LINE
  5
D2A
330
A02
100
AcDbEntity
  8
Bottom_plate_3mm
100
AcDbLine
 10
33.050988377
 20
170.412599653
 30
0.000000000
 11
32.948765855
 21
169.636142518
 31
0.000000000
  0
LINE
  5
D2B
330
A02
100
AcDbEntity
  8
Bottom_plate_3mm
100
AcDbLine
 10
32.948765855
 20
169.636142518
 30
0.000000000
 11
32.649064588
 21
168.912599653
 31
0.000000000
  0
LINE
  5
D2C
330
A02
100
AcDbEntity
  8
Bottom_plate_3mm
100
AcDbLine
 10
32.649064588
 20
168.912599653
 30
0.000000000
 11
32.172308720
 21
168.291279309
 31
0.000000000
  0
LINE
  5
D2D
330
A02
100
AcDbEntity
  8
Bottom_plate_3mm
100
AcDbLine
 10
22.795191173
 20
158.914161762
 30
0.000000000
 11
32.172308720
 21
168.291279309
 31
0.000000000
  0
LINE
  5
D2E
330
A02
100
AcDbEntity
  8
Bottom_plate_3mm
100
AcDbLine
 10
22.795191173
 20
158.914161762
 30
0.000000000
 11
21.906054135
 21
158.162028582
 31
0.000000000
  0
LINE
  5
D2F
330
A02
100
AcDbEntity
  8
Bottom_plate_3mm
100
AcDbLine
 10
21.906054135
 20
158.162028582
 30
0.000000000
 11
20.904523627
 21
157.567717522
 31
0.000000000
  0
LINE
  5
D30
330
A02
100
AcDbEntity
  8
Bottom_plate_3mm
100
AcDbLine
 10
20.904523627
 20
157.567717522
 30
0.000000000
 11
19.818320970
 21
157.147678495
 31
0.000000000
  0
LINE
  5
D31
330
A02
100
AcDbEntity
  8
Bottom_plate_3mm
100
AcDbLine
 10
12.092058356
 20
154.878106698
 30
0.000000000
 11
19.818320970
 21
157.147678495
 31
0.000000000
  0
LINE
  5
D32
330
A02
100
AcDbEntity
  8
Bottom_plate_3mm
100
AcDbLine
 10
8.524402536
 20
152.440017280
 30
0.000000000
 11
9.533596227
 21
153.497320020
 31
0.000000000
  0
LINE
  5
D33
330
A02
100
AcDbEntity
  8
Bottom_plate_3mm
100
AcDbLine
 10
9.533596227
 20
153.497320020
 30
0.000000000
 11
10.740352708
 21
154.322001647
 31
0.000000000
  0
LINE
  5
D34
330
A02
100
AcDbEntity
  8
Bottom_plate_3mm
100
AcDbLine
 10
10.740352708
 20
154.322001647
 30
0.000000000
 11
12.092058356
 21
154.878106698
 31
0.000000000
  0
LINE
  5
D35
330
A02
100
AcDbEntity
  8
Bottom_plate_3mm
100
AcDbLine
 10
6.458890400
 20
149.765014871
 30
0.000000000
 11
8.524402536
 21
152.440017280
 31
0.000000000
  0
LINE
  5
D36
330
A02
100
AcDbEntity
  8
Bottom_plate_3mm
100
AcDbLine
 10
7.362520025
 20
140.242912618
 30
0.000000000
 11
6.350913256
 21
141.352344296
 31
0.000000000
  0
LINE
  5
D37
330
A02
100
AcDbEntity
  8
Bottom_plate_3mm
100
AcDbLine
 10
6.350913256
 20
141.352344296
 30
0.000000000
 11
5.599159502
 21
142.651980091
 31
0.000000000
  0
LINE
  5
D38
330
A02
100
AcDbEntity
  8
Bottom_plate_3mm
100
AcDbLine
 10
5.599159502
 20
142.651980091
 30
0.000000000
 11
5.141842305
 21
144.082031798
 31
0.000000000
  0
LINE
  5
D39
330
A02
100
AcDbEntity
  8
Bottom_plate_3mm
100
AcDbLine
 10
5.141842305
 20
144.082031798
 30
0.000000000
 11
5.000000000
 21
145.576711585
 31
0.000000000
  0
LINE
  5
D3A
330
A02
100
AcDbEntity
  8
Bottom_plate_3mm
100
AcDbLine
 10
5.000000000
 20
145.576711585
 30
0.000000000
 11
5.180157873
 21
147.067258480
 31
0.000000000
  0
LINE
  5
D3B
330
A02
100
AcDbEntity
  8
Bottom_plate_3mm
100
AcDbLine
 10
5.180157873
 20
147.067258480
 30
0.000000000
 11
5.674027976
 21
148.485101640
 31
0.000000000
  0
LINE
  5
D3C
330
A02
100
AcDbEntity
  8
Bottom_plate_3mm
100
AcDbLine
 10
5.674027976
 20
148.485101640
 30
0.000000000
 11
6.458890400
 21
149.765014871
 31
0.000000000
  0
LINE
  5
D3D
330
A02
100
AcDbEntity
  8
Bottom_plate_3mm
100
AcDbLine
 10
26.635813660
 20
123.200756309
 30
0.000000000
 11
7.362520025
 21
140.242912618
 31
0.000000000
  0
LINE
  5
D3E
330
A02
100
AcDbEntity
  8
Bottom_plate_3mm
100
AcDbLine
 10
26.635813660
 20
123.200756309
 30
0.000000000
 11
27.920224529
 21
121.829408035
 31
0.000000000
  0
LINE
  5
D3F
330
A02
100
AcDbEntity
  8
Bottom_plate_3mm
100
AcDbLine
 10
27.920224529
 20
121.829408035
 30
0.000000000
 11
28.925438968
 21
120.242004086
 31
0.000000000
  0
LINE
  5
D40
330
A02
100
AcDbEntity
  8
Bottom_plate_3mm
100
AcDbLine
 10
28.925438968
 20
120.242004086
 30
0.000000000
 11
29.615969818
 21
118.494584700
 31
0.000000000
  0
LINE
  5
D41
330
A02
100
AcDbEntity
  8
Bottom_plate_3mm
100
AcDbLine
 10
29.615969818
 20
118.494584700
 30
0.000000000
 11
29.967439218
 21
116.648839152
 31
0.000000000
  0
LINE
  5
D42
330
A02
100
AcDbEntity
  8
Bottom_plate_3mm
100
AcDbLine
 10
29.967439218
 20
116.648839152
 30
0.000000000
 11
29.967439218
 21
114.769927934
 31
0.000000000
  0
LINE
  5
D43
330
A02
100
AcDbEntity
  8
Bottom_plate_3mm
100
AcDbLine
 10
29.967439218
 20
114.769927934
 30
0.000000000
 11
29.615969818
 21
112.924182386
 31
0.000000000
  0
LINE
  5
D44
330
A02
100
AcDbEntity
  8
Bottom_plate_3mm
100
AcDbLine
 10
29.615969818
 20
112.924182386
 30
0.000000000
 11
28.925438968
 21
111.176763000
 31
0.000000000
  0
LINE
  5
D45
330
A02
100
AcDbEntity
  8
Bottom_plate_3mm
100
AcDbLine
 10
28.925438968
 20
111.176763000
 30
0.000000000
 11
27.920224529
 21
109.589359051
 31
0.000000000
  0
LINE
  5
D46
330
A02
100
AcDbEntity
  8
Bottom_plate_3mm
100
AcDbLine
 10
27.920224529
 20
109.589359051
 30
0.000000000
 11
26.635813660
 21
108.218010777
 31
0.000000000
  0
LINE
  5
D47
330
A02
100
AcDbEntity
  8
Bottom_plate_3mm
100
AcDbLine
 10
7.362520025
 20
91.175854469
 30
0.000000000
 11
26.635813660
 21
108.218010777
 31
0.000000000
  0
LINE
  5
D48
330
A02
100
AcDbEntity
  8
Bottom_plate_3mm
100
AcDbLine
 10
6.458890400
 20
81.653752215
 30
0.000000000
 11
5.674027976
 21
82.933665447
 31
0.000000000
  0
LINE
  5
D49
330
A02
100
AcDbEntity
  8
Bottom_plate_3mm
100
AcDbLine
 10
5.674027976
 20
82.933665447
 30
0.000000000
 11
5.180157873
 21
84.351508607
 31
0.000000000
  0
LINE
  5
D4A
330
A02
100
AcDbEntity
  8
Bottom_plate_3mm
100
AcDbLine
 10
5.180157873
 20
84.351508607
 30
0.000000000
 11
5.000000000
 21
85.842055502
 31
0.000000000
  0
LINE
  5
D4B
330
A02
100
AcDbEntity
  8
Bottom_plate_3mm
100
AcDbLine
 10
5.000000000
 20
85.842055502
 30
0.000000000
 11
5.141842305
 21
87.336735288
 31
0.000000000
  0
LINE
  5
D4C
330
A02
100
AcDbEntity
  8
Bottom_plate_3mm
100
AcDbLine
 10
5.141842305
 20
87.336735288
 30
0.000000000
 11
5.599159502
 21
88.766786996
 31
0.000000000
  0
LINE
  5
D4D
330
A02
100
AcDbEntity
  8
Bottom_plate_3mm
100
AcDbLine
 10
5.599159502
 20
88.766786996
 30
0.000000000
 11
6.350913256
 21
90.066422791
 31
0.000000000
  0
LINE
  5
D4E
330
A02
100
AcDbEntity
  8
Bottom_plate_3mm
100
AcDbLine
 10
6.350913256
 20
90.066422791
 30
0.000000000
 11
7.362520025
 21
91.175854469
 31
0.000000000
  0
LINE
  5
D4F
330
A02
100
AcDbEntity
  8
Bottom_plate_3mm
100
AcDbLine
 10
8.524402536
 20
78.978749807
 30
0.000000000
 11
6.458890400
 21
81.653752215
 31
0.000000000
  0
LINE
  5
D50
330
A02
100
AcDbEntity
  8
Bottom_plate_3mm
100
AcDbLine
 10
12.092058356
 20
76.540660388
 30
0.000000000
 11
10.740352708
 21
77.096765440
 31
0.000000000
  0
LINE
  5
D51
330
A02
100
AcDbEntity
  8
Bottom_plate_3mm
100
AcDbLine
 10
10.740352708
 20
77.096765440
 30
0.000000000
 11
9.533596227
 21
77.921447067
 31
0.000000000
  0
LINE
  5
D52
330
A02
100
AcDbEntity
  8
Bottom_plate_3mm
100
AcDbLine
 10
9.533596227
 20
77.921447067
 30
0.000000000
 11
8.524402536
 21
78.978749807
 31
0.000000000
  0
LINE
  5
D53
330
A02
100
AcDbEntity
  8
Bottom_plate_3mm
100
AcDbLine
 10
19.818320970
 20
74.271088592
 30
0.000000000
 11
12.092058356
 21
76.540660388
 31
0.000000000
  0
LINE
  5
D54
330
A02
100
AcDbEntity
  8
Bottom_plate_3mm
100
AcDbLine
 10
19.818320970
 20
74.271088592
 30
0.000000000
 11
20.904523627
 21
73.851049565
 31
0.000000000
  0
LINE
  5
D55
330
A02
100
AcDbEntity
  8
Bottom_plate_3mm
100
AcDbLine
 10
20.904523627
 20
73.851049565
 30
0.000000000
 11
21.906054135
 21
73.256738505
 31
0.000000000
  0
LINE
  5
D56
330
A02
100
AcDbEntity
  8
Bottom_plate_3mm
100
AcDbLine
 10
21.906054135
 20
73.256738505
 30
0.000000000
 11
22.795191173
 21
72.504605324
 31
0.000000000
  0
LINE
  5
D57
330
A02
100
AcDbEntity
  8
Bottom_plate_3mm
100
AcDbLine
 10
32.172308720
 20
63.127487777
 30
0.000000000
 11
22.795191173
 21
72.504605324
 31
0.000000000
  0
LINE
  5
D58
330
A02
100
AcDbEntity
  8
Bottom_plate_3mm
100
AcDbLine
 10
32.172308720
 20
63.127487777
 30
0.000000000
 11
32.649064588
 21
62.506167434
 31
0.000000000
  0
LINE
  5
D59
330
A02
100
AcDbEntity
  8
Bottom_plate_3mm
100
AcDbLine
 10
32.649064588
 20
62.506167434
 30
0.000000000
 11
32.948765855
 21
61.782624569
 31
0.000000000
  0
LINE
  5
D5A
330
A02
100
AcDbEntity
  8
Bottom_plate_3mm
100
AcDbLine
 10
32.948765855
 20
61.782624569
 30
0.000000000
 11
33.050988377
 21
61.006167434
 31
0.000000000
  0
LINE
  5
D5B
330
A02
100
AcDbEntity
  8
Bottom_plate_3mm
100
AcDbLine
 10
33.050988377
 20
8.925419951
 30
0.000000000
 11
33.050988377
 21
61.006167434
 31
0.000000000
  0
LINE
  5
D5C
330
A02
100
AcDbEntity
  8
Bottom_plate_3mm
100
AcDbLine
 10
36.050988377
 20
5.925419951
 30
0.000000000
 11
35.123937393
 21
6.072250402
 31
0.000000000
  0
LINE
  5
D5D
330
A02
100
AcDbEntity
  8
Bottom_plate_3mm
100
AcDbLine
 10
35.123937393
 20
6.072250402
 30
0.000000000
 11
34.287632620
 21
6.498368968
 31
0.000000000
  0
LINE
  5
D5E
330
A02
100
AcDbEntity
  8
Bottom_plate_3mm
100
AcDbLine
 10
34.287632620
 20
6.498368968
 30
0.000000000
 11
33.623937393
 21
7.162064194
 31
0.000000000
  0
LINE
  5
D5F
330
A02
100
AcDbEntity
  8
Bottom_plate_3mm
100
AcDbLine
 10
33.623937393
 20
7.162064194
 30
0.000000000
 11
33.197818828
 21
7.998368968
 31
0.000000000
  0
LINE
  5
D60
330
A02
100
AcDbEntity
  8
Bottom_plate_3mm
100
AcDbLine
 10
33.197818828
 20
7.998368968
 30
0.000000000
 11
33.050988377
 21
8.925419951
 31
0.000000000
  0
LINE
  5
D61
330
A02
100
AcDbEntity
  8
Bottom_plate_3mm
100
AcDbLine
 10
43.330705896
 20
5.925419951
 30
0.000000000
 11
36.050988377
 21
5.925419951
 31
0.000000000
  0
LINE
  5
D62
330
A02
100
AcDbEntity
  8
Bottom_plate_3mm
100
AcDbLine
 10
43.330705896
 20
5.925419951
 30
0.000000000
 11
43.751324065
 21
5.880689844
 31
0.000000000
  0
LINE
  5
D63
330
A02
100
AcDbEntity
  8
Bottom_plate_3mm
100
AcDbLine
 10
47.637335237
 20
5.044730107
 30
0.000000000
 11
43.751324065
 21
5.880689844
 31
0.000000000
  0
LINE
  5
D64
330
A02
100
AcDbEntity
  8
Bottom_plate_3mm
100
AcDbLine
 10
48.057953407
 20
5.000000000
 30
0.000000000
 11
47.637335237
 21
5.044730107
 31
0.000000000
  0
LINE
  5
D65
330
A02
100
AcDbEntity
  8
Bottom_plate_3mm
100
AcDbLine
 10
49.117458373
 20
5.000000000
 30
0.000000000
 11
48.057953407
 21
5.000000000
 31
0.000000000
  0
LINE
  5
D66
330
A02
100
AcDbEntity
  8
Bottom_plate_3mm
100
AcDbLine
 10
49.878552495
 20
5.351358545
 30
0.000000000
 11
49.536599485
 21
5.092078898
 31
0.000000000
  0
LINE
  5
D67
330
A02
100
AcDbEntity
  8
Bottom_plate_3mm
100
AcDbLine
 10
49.536599485
 20
5.092078898
 30
0.000000000
 11
49.117458373
 21
5.000000000
 31
0.000000000
  0
LINE
  5
D68
330
A02
100
AcDbEntity
  8
Bottom_plate_3mm
100
AcDbLine
 10
52.303190410
 20
8.196347328
 30
0.000000000
 11
49.878552495
 21
5.351358545
 31
0.000000000
  0
LINE
  5
D69
330
A02
100
AcDbEntity
  8
Bottom_plate_3mm
100
AcDbLine
 10
52.303190410
 20
8.196347328
 30
0.000000000
 11
52.645143419
 21
8.455626975
 31
0.000000000
  0
LINE
  5
D6A
330
A02
100
AcDbEntity
  8
Bottom_plate_3mm
100
AcDbLine
 10
52.645143419
 20
8.455626975
 30
0.000000000
 11
53.064284532
 21
8.547705873
 31
0.000000000
  0
LINE
  5
D6B
330
A02
100
AcDbEntity
  8
Bottom_plate_3mm
100
AcDbLine
 10
53.875814050
 20
8.547705873
 30
0.000000000
 11
53.064284532
 21
8.547705873
 31
0.000000000
  0
LINE
  5
D6C
330
A02
100
AcDbEntity
  8
Bottom_plate_3mm
100
AcDbLine
 10
53.875814050
 20
8.547705873
 30
0.000000000
 11
54.294955162
 21
8.455626975
 31
0.000000000
  0
LINE
  5
D6D
330
A02
100
AcDbEntity
  8
Bottom_plate_3mm
100
AcDbLine
 10
54.294955162
 20
8.455626975
 30
0.000000000
 11
54.636908171
 21
8.196347328
 31
0.000000000
  0
LINE
  5
D6E
330
A02
100
AcDbEntity
  8
Bottom_plate_3mm
100
AcDbLine
 10
57.061546087
 20
5.351358545
 30
0.000000000
 11
54.636908171
 21
8.196347328
 31
0.000000000
  0
LINE
  5
D6F
330
A02
100
AcDbEntity
  8
Bottom_plate_3mm
100
AcDbLine
 10
57.822640209
 20
5.000000000
 30
0.000000000
 11
57.403499096
 21
5.092078898
 31
0.000000000
  0
LINE
  5
D70
330
A02
100
AcDbEntity
  8
Bottom_plate_3mm
100
AcDbLine
 10
57.403499096
 20
5.092078898
 30
0.000000000
 11
57.061546087
 21
5.351358545
 31
0.000000000
  0
LINE
  5
D71
330
A02
100
AcDbEntity
  8
Bottom_plate_3mm
100
AcDbLine
 10
58.882145175
 20
5.000000000
 30
0.000000000
 11
57.822640209
 21
5.000000000
 31
0.000000000
  0
LINE
  5
D72
330
A02
100
AcDbEntity
  8
Bottom_plate_3mm
100
AcDbLine
 10
59.302763345
 20
5.044730107
 30
0.000000000
 11
58.882145175
 21
5.000000000
 31
0.000000000
  0
LINE
  5
D73
330
A02
100
AcDbEntity
  8
Bottom_plate_3mm
100
AcDbLine
 10
63.188774516
 20
5.880689844
 30
0.000000000
 11
59.302763345
 21
5.044730107
 31
0.000000000
  0
LINE
  5
D74
330
A02
100
AcDbEntity
  8
Bottom_plate_3mm
100
AcDbLine
 10
63.188774516
 20
5.880689844
 30
0.000000000
 11
63.609392686
 21
5.925419951
 31
0.000000000
  0
LINE
  5
D75
330
A02
100
AcDbEntity
  8
Bottom_plate_3mm
100
AcDbLine
 10
70.889110205
 20
5.925419951
 30
0.000000000
 11
63.609392686
 21
5.925419951
 31
0.000000000
  0
LINE
  5
D76
330
A02
100
AcDbEntity
  8
Bottom_plate_3mm
100
AcDbLine
 10
73.889110205
 20
8.925419951
 30
0.000000000
 11
73.742279754
 21
7.998368968
 31
0.000000000
  0
LINE
  5
D77
330
A02
100
AcDbEntity
  8
Bottom_plate_3mm
100
AcDbLine
 10
73.742279754
 20
7.998368968
 30
0.000000000
 11
73.316161188
 21
7.162064194
 31
0.000000000
  0
LINE
  5
D78
330
A02
100
AcDbEntity
  8
Bottom_plate_3mm
100
AcDbLine
 10
73.316161188
 20
7.162064194
 30
0.000000000
 11
72.652465962
 21
6.498368968
 31
0.000000000
  0
LINE
  5
D79
330
A02
100
AcDbEntity
  8
Bottom_plate_3mm
100
AcDbLine
 10
72.652465962
 20
6.498368968
 30
0.000000000
 11
71.816161188
 21
6.072250402
 31
0.000000000
  0
LINE
  5
D7A
330
A02
100
AcDbEntity
  8
Bottom_plate_3mm
100
AcDbLine
 10
71.816161188
 20
6.072250402
 30
0.000000000
 11
70.889110205
 21
5.925419951
 31
0.000000000
  0
LINE
  5
D7B
330
A02
100
AcDbEntity
  8
Bottom_plate_3mm
100
AcDbLine
 10
73.889110205
 20
61.006167434
 30
0.000000000
 11
73.889110205
 21
8.925419951
 31
0.000000000
  0
LINE
  5
D7C
330
A02
100
AcDbEntity
  8
Bottom_plate_3mm
100
AcDbLine
 10
73.889110205
 20
61.006167434
 30
0.000000000
 11
73.991332726
 21
61.782624569
 31
0.000000000
  0
LINE
  5
D7D
330
A02
100
AcDbEntity
  8
Bottom_plate_3mm
100
AcDbLine
 10
73.991332726
 20
61.782624569
 30
0.000000000
 11
74.291033994
 21
62.506167434
 31
0.000000000
  0
LINE
  5
D7E
330
A02
100
AcDbEntity
  8
Bottom_plate_3mm
100
AcDbLine
 10
74.291033994
 20
62.506167434
 30
0.000000000
 11
74.767789862
 21
63.127487777
 31
0.000000000
  0
LINE
  5
D7F
330
A02
100
AcDbEntity
  8
Bottom_plate_3mm
100
AcDbLine
 10
84.144907408
 20
72.504605324
 30
0.000000000
 11
74.767789862
 21
63.127487777
 31
0.000000000
  0
LINE
  5
D80
330
A02
100
AcDbEntity
  8
Bottom_plate_3mm
100
AcDbLine
 10
84.144907408
 20
72.504605324
 30
0.000000000
 11
85.034044447
 21
73.256738505
 31
0.000000000
  0
LINE
  5
D81
330
A02
100
AcDbEntity
  8
Bottom_plate_3mm
100
AcDbLine
 10
85.034044447
 20
73.256738505
 30
0.000000000
 11
86.035574955
 21
73.851049565
 31
0.000000000
  0
LINE
  5
D82
330
A02
100
AcDbEntity
  8
Bottom_plate_3mm
100
AcDbLine
 10
86.035574955
 20
73.851049565
 30
0.000000000
 11
87.121777611
 21
74.271088592
 31
0.000000000
  0
LINE
  5
D83
330
A02
100
AcDbEntity
  8
Bottom_plate_3mm
100
AcDbLine
 10
94.848040225
 20
76.540660388
 30
0.000000000
 11
87.121777611
 21
74.271088592
 31
0.000000000
  0
LINE
  5
D84
330
A02
100
AcDbEntity
  8
Bottom_plate_3mm
100
AcDbLine
 10
98.415696045
 20
78.978749807
 30
0.000000000
 11
97.406502355
 21
77.921447067
 31
0.000000000
  0
LINE
  5
D85
330
A02
100
AcDbEntity
  8
Bottom_plate_3mm
100
AcDbLine
 10
97.406502355
 20
77.921447067
 30
0.000000000
 11
96.199745874
 21
77.096765440
 31
0.000000000
  0
LINE
  5
D86
330
A02
100
AcDbEntity
  8
Bottom_plate_3mm
100
AcDbLine
 10
96.199745874
 20
77.096765440
 30
0.000000000
 11
94.848040225
 21
76.540660388
 31
0.000000000
  0
LINE
  5
D87
330
A02
100
AcDbEntity
  8
Bottom_plate_3mm
100
AcDbLine
 10
100.481208181
 20
81.653752215
 30
0.000000000
 11
98.415696045
 21
78.978749807
 31
0.000000000
  0
LINE
  5
D88
330
A02
100
AcDbEntity
  8
Bottom_plate_3mm
100
AcDbLine
 10
99.577578557
 20
91.175854469
 30
0.000000000
 11
100.589185326
 21
90.066422791
 31
0.000000000
  0
LINE
  5
D89
330
A02
100
AcDbEntity
  8
Bottom_plate_3mm
100
AcDbLine
 10
100.589185326
 20
90.066422791
 30
0.000000000
 11
101.340939079
 21
88.766786996
 31
0.000000000
  0
LINE
  5
D8A
330
A02
100
AcDbEntity
  8
Bottom_plate_3mm
100
AcDbLine
 10
101.340939079
 20
88.766786996
 30
0.000000000
 11
101.798256276
 21
87.336735288
 31
0.000000000
  0
LINE
  5
D8B
330
A02
100
AcDbEntity
  8
Bottom_plate_3mm
100
AcDbLine
 10
101.798256276
 20
87.336735288
 30
0.000000000
 11
101.940098582
 21
85.842055502
 31
0.000000000
  0
LINE
  5
D8C
330
A02
100
AcDbEntity
  8
Bottom_plate_3mm
100
AcDbLine
 10
101.940098582
 20
85.842055502
 30
0.000000000
 11
101.759940708
 21
84.351508607
 31
0.000000000
  0
LINE
  5
D8D
330
A02
100
AcDbEntity
  8
Bottom_plate_3mm
100
AcDbLine
 10
101.759940708
 20
84.351508607
 30
0.000000000
 11
101.266070605
 21
82.933665447
 31
0.000000000
  0
LINE
  5
D8E
330
A02
100
AcDbEntity
  8
Bottom_plate_3mm
100
AcDbLine
 10
101.266070605
 20
82.933665447
 30
0.000000000
 11
100.481208181
 21
81.653752215
 31
0.000000000
  0
LINE
  5
D8F
330
A02
100
AcDbEntity
  8
Bottom_plate_3mm
100
AcDbLine
 10
80.304284921
 20
108.218010777
 30
0.000000000
 11
99.577578557
 21
91.175854469
 31
0.000000000
  0
LINE
  5
D90
330
A02
100
AcDbEntity
  8
Bottom_plate_3mm
100
AcDbLine
 10
80.304284921
 20
108.218010777
 30
0.000000000
 11
79.019874053
 21
109.589359051
 31
0.000000000
  0
LINE
  5
D91
330
A02
100
AcDbEntity
  8
Bottom_plate_3mm
100
AcDbLine
 10
79.019874053
 20
109.589359051
 30
0.000000000
 11
78.014659614
 21
111.176763000
 31
0.000000000
  0
LINE
  5
D92
330
A02
100
AcDbEntity
  8
Bottom_plate_3mm
100
AcDbLine
 10
78.014659614
 20
111.176763000
 30
0.000000000
 11
77.324128764
 21
112.924182386
 31
0.000000000
  0
LINE
  5
D93
330
A02
100
AcDbEntity
  8
Bottom_plate_3mm
100
AcDbLine
 10
77.324128764
 20
112.924182386
 30
0.000000000
 11
76.972659364
 21
114.769927934
 31
0.000000000
  0
LINE
  5
D94
330
A02
100
AcDbEntity
  8
Bottom_plate_3mm
100
AcDbLine
 10
76.972659364
 20
114.769927934
 30
0.000000000
 11
76.972659364
 21
116.648839152
 31
0.000000000
  0
LINE
  5
D95
330
A02
100
AcDbEntity
  8
Bottom_plate_3mm
100
AcDbLine
 10
76.972659364
 20
116.648839152
 30
0.000000000
 11
77.324128764
 21
118.494584700
 31
0.000000000
  0
LINE
  5
D96
330
A02
100
AcDbEntity
  8
Bottom_plate_3mm
100
AcDbLine
 10
77.324128764
 20
118.494584700
 30
0.000000000
 11
78.014659614
 21
120.242004086
 31
0.000000000
  0
LINE
  5
D97
330
A02
100
AcDbEntity
  8
Bottom_plate_3mm
100
AcDbLine
 10
78.014659614
 20
120.242004086
 30
0.000000000
 11
79.019874053
 21
121.829408035
 31
0.000000000
  0
LINE
  5
D98
330
A02
100
AcDbEntity
  8
Bottom_plate_3mm
100
AcDbLine
 10
79.019874053
 20
121.829408035
 30
0.000000000
 11
80.304284921
 21
123.200756309
 31
0.000000000
  0
LINE
  5
D99
330
A02
100
AcDbEntity
  8
Bottom_plate_3mm
100
AcDbLine
 10
99.577578557
 20
140.242912618
 30
0.000000000
 11
80.304284921
 21
123.200756309
 31
0.000000000
  0
LINE
  5
D9A
330
A02
100
AcDbEntity
  8
Bottom_plate_3mm
100
AcDbLine
 10
100.481208181
 20
149.765014871
 30
0.000000000
 11
101.266070605
 21
148.485101640
 31
0.000000000
  0
LINE
  5
D9B
330
A02
100
AcDbEntity
  8
Bottom_plate_3mm
100
AcDbLine
 10
101.266070605
 20
148.485101640
 30
0.000000000
 11
101.759940708
 21
147.067258480
 31
0.000000000
  0
LINE
  5
D9C
330
A02
100
AcDbEntity
  8
Bottom_plate_3mm
100
AcDbLine
 10
101.759940708
 20
147.067258480
 30
0.000000000
 11
101.940098582
 21
145.576711585
 31
0.000000000
  0
LINE
  5
D9D
330
A02
100
AcDbEntity
  8
Bottom_plate_3mm
100
AcDbLine
 10
101.940098582
 20
145.576711585
 30
0.000000000
 11
101.798256276
 21
144.082031798
 31
0.000000000
  0
LINE
  5
D9E
330
A02
100
AcDbEntity
  8
Bottom_plate_3mm
100
AcDbLine
 10
101.798256276
 20
144.082031798
 30
0.000000000
 11
101.340939079
 21
142.651980091
 31
0.000000000
  0
LINE
  5
D9F
330
A02
100
AcDbEntity
  8
Bottom_plate_3mm
100
AcDbLine
 10
101.340939079
 20
142.651980091
 30
0.000000000
 11
100.589185326
 21
141.352344296
 31
0.000000000
  0
LINE
  5
DA0
330
A02
100
AcDbEntity
  8
Bottom_plate_3mm
100
AcDbLine
 10
100.589185326
 20
141.352344296
 30
0.000000000
 11
99.577578557
 21
140.242912618
 31
0.000000000
  0
LINE
  5
DA1
330
A02
100
AcDbEntity
  8
Bottom_plate_3mm
100
AcDbLine
 10
98.415696045
 20
152.440017280
 30
0.000000000
 11
100.481208181
 21
149.765014871
 31
0.000000000
  0
LINE
  5
DA2
330
A02
100
AcDbEntity
  8
Bottom_plate_3mm
100
AcDbLine
 10
94.848040225
 20
154.878106698
 30
0.000000000
 11
96.199745874
 21
154.322001647
 31
0.000000000
  0
LINE
  5
DA3
330
A02
100
AcDbEntity
  8
Bottom_plate_3mm
100
AcDbLine
 10
96.199745874
 20
154.322001647
 30
0.000000000
 11
97.406502355
 21
153.497320020
 31
0.000000000
  0
LINE
  5
DA4
330
A02
100
AcDbEntity
  8
Bottom_plate_3mm
100
AcDbLine
 10
97.406502355
 20
153.497320020
 30
0.000000000
 11
98.415696045
 21
152.440017280
 31
0.000000000
  0
LINE
  5
DA5
330
A02
100
AcDbEntity
  8
Bottom_plate_3mm
100
AcDbLine
 10
87.121777611
 20
157.147678495
 30
0.000000000
 11
94.848040225
 21
154.878106698
 31
0.000000000
  0
LINE
  5
DA6
330
A02
100
AcDbEntity
  8
Bottom_plate_3mm
100
AcDbLine
 10
87.121777611
 20
157.147678495
 30
0.000000000
 11
86.035574955
 21
157.567717522
 31
0.000000000
  0
LINE
  5
DA7
330
A02
100
AcDbEntity
  8
Bottom_plate_3mm
100
AcDbLine
 10
86.035574955
 20
157.567717522
 30
0.000000000
 11
85.034044447
 21
158.162028582
 31
0.000000000
  0
LINE
  5
DA8
330
A02
100
AcDbEntity
  8
Bottom_plate_3mm
100
AcDbLine
 10
85.034044447
 20
158.162028582
 30
0.000000000
 11
84.144907408
 21
158.914161762
 31
0.000000000
  0
LINE
  5
DA9
330
A02
100
AcDbEntity
  8
Bottom_plate_3mm
100
AcDbLine
 10
74.767789862
 20
168.291279309
 30
0.000000000
 11
84.144907408
 21
158.914161762
 31
0.000000000
  0
LINE
  5
DAA
330
A02
100
AcDbEntity
  8
Bottom_plate_3mm
100
AcDbLine
 10
74.767789862
 20
168.291279309
 30
0.000000000
 11
74.291033994
 21
168.912599653
 31
0.000000000
  0
LINE
  5
DAB
330
A02
100
AcDbEntity
  8
Bottom_plate_3mm
100
AcDbLine
 10
74.291033994
 20
168.912599653
 30
0.000000000
 11
73.991332726
 21
169.636142518
 31
0.000000000
  0
LINE
  5
DAC
330
A02
100
AcDbEntity
  8
Bottom_plate_3mm
100
AcDbLine
 10
73.991332726
 20
169.636142518
 30
0.000000000
 11
73.889110205
 21
170.412599653
 31
0.000000000
  0
LINE
  5
DAD
330
A02
100
AcDbEntity
  8
Bottom_plate_3mm
100
AcDbLine
 10
73.889110205
 20
179.805545199
 30
0.000000000
 11
73.889110205
 21
170.412599653
 31
0.000000000
  0
LINE
  5
DAE
330
A02
100
AcDbEntity
  8
Bottom_plate_3mm
100
AcDbLine
 10
73.889110205
 20
179.805545199
 30
0.000000000
 11
74.007338032
 21
180.639445160
 31
0.000000000
  0
LINE
  5
DAF
330
A02
100
AcDbEntity
  8
Bottom_plate_3mm
100
AcDbLine
 10
74.007338032
 20
180.639445160
 30
0.000000000
 11
74.352702968
 21
181.407618334
 31
0.000000000
  0
LINE
  5
DB0
330
A02
100
AcDbEntity
  8
Bottom_plate_3mm
100
AcDbLine
 10
74.352702968
 20
181.407618334
 30
0.000000000
 11
74.897983849
 21
182.049518423
 31
0.000000000
  0
LINE
  5
DB1
330
A02
100
AcDbEntity
  8
Bottom_plate_3mm
100
AcDbLine
 10
77.699737064
 20
184.535575124
 30
0.000000000
 11
74.897983849
 21
182.049518423
 31
0.000000000
  0
LINE
  5
DB2
330
A02
100
AcDbEntity
  8
Bottom_plate_3mm
100
AcDbLine
 10
78.708610708
 20
186.779548349
 30
0.000000000
 11
78.590382880
 21
185.945648388
 31
0.000000000
  0
LINE
  5
DB3
330
A02
100
AcDbEntity
  8
Bottom_plate_3mm
100
AcDbLine
 10
78.590382880
 20
185.945648388
 30
0.000000000
 11
78.245017944
 21
185.177475214
 31
0.000000000
  0
LINE
  5
DB4
330
A02
100
AcDbEntity
  8
Bottom_plate_3mm
100
AcDbLine
 10
78.245017944
 20
185.177475214
 30
0.000000000
 11
77.699737064
 21
184.535575124
 31
0.000000000
  0
LINE
  5
DB5
330
A02
100
AcDbEntity
  8
Bottom_plate_3mm
100
AcDbLine
 10
78.708610708
 20
191.837708392
 30
0.000000000
 11
78.708610708
 21
186.779548349
 31
0.000000000
  0
LINE
  5
DB6
330
A02
100
AcDbEntity
  8
Bottom_plate_3mm
100
AcDbLine
 10
77.882240933
 20
193.905395903
 30
0.000000000
 11
78.331299226
 21
193.294247074
 31
0.000000000
  0
LINE
  5
DB7
330
A02
100
AcDbEntity
  8
Bottom_plate_3mm
100
AcDbLine
 10
78.331299226
 20
193.294247074
 30
0.000000000
 11
78.612751334
 21
192.590016322
 31
0.000000000
  0
LINE
  5
DB8
330
A02
100
AcDbEntity
  8
Bottom_plate_3mm
100
AcDbLine
 10
78.612751334
 20
192.590016322
 30
0.000000000
 11
78.708610708
 21
191.837708392
 31
0.000000000
  0
LINE
  5
DB9
330
A02
100
AcDbEntity
  8
Bottom_plate_3mm
100
AcDbLine
 10
72.614044333
 20
199.443520648
 30
0.000000000
 11
77.882240933
 21
193.905395903
 31
0.000000000
  0
LINE
  5
DBA
330
A02
100
AcDbEntity
  8
Bottom_plate_3mm
100
AcDbLine
 10
72.614044333
 20
199.443520648
 30
0.000000000
 11
72.164986039
 21
200.054669476
 31
0.000000000
  0
LINE
  5
DBB
330
A02
100
AcDbEntity
  8
Bottom_plate_3mm
100
AcDbLine
 10
72.164986039
 20
200.054669476
 30
0.000000000
 11
71.883533932
 21
200.758900228
 31
0.000000000
  0
LINE
  5
DBC
330
A02
100
AcDbEntity
  8
Bottom_plate_3mm
100
AcDbLine
 10
71.883533932
 20
200.758900228
 30
0.000000000
 11
71.787674558
 21
201.511208158
 31
0.000000000
  0
LINE
  5
DBD
330
A02
100
AcDbEntity
  8
Bottom_plate_3mm
100
AcDbLine
 10
71.787674558
 20
218.012597473
 30
0.000000000
 11
71.787674558
 21
201.511208158
 31
0.000000000
  0
ENDSEC
  0
SECTION
  2
OBJECTS
  0
DICTIONARY
  5
F000
330
0
100
AcDbDictionary
  3
ACAD_GROUP
350
F001
  0
DICTIONARY
  5
F001
330
F000
100
AcDbDictionary
  0
ENDSEC
  0
EOF