999
FreeCAD v1.1 20260414 (Git shallow)
  0
SECTION
  2
HEADER
  9
$ACADVER
  1
AC1014
  9
$ACADMAINTVER
 70
     9
  9
$DWGCODEPAGE
  3
ANSI_1252
  9
$TEXTSTYLE
  7
STANDARD
  9
$DIMSTYLE
  2
STANDARD
  9
$DIMTXSTY
  7
STANDARD
  9
$CMLSTYLE
  2
STANDARD
  9
$LUNITS
 70
2
  9
$INSUNITS
 70
4
  9
$PEXTMAX
 10
50
 20
50
 30
50
  9
$PEXTMIN
 10
0
 20
0
 30
0
  9
$HANDSEED
  5
FFFF
  0
ENDSEC
  0
SECTION
  2
CLASSES
  0
CLASS
  1
ACDBDICTIONARYWDFLT
  2
AcDbDictionaryWithDefault
  3
ObjectDBX Classes
 90
        0
280
     0
281
     0
  0
CLASS
  1
XRECORD
  2
AcDbXrecord
  3
ObjectDBX Classes
 90
        0
280
     0
281
     0
  0
CLASS
  1
LWPOLYLINE
  2
AcDbPolyline
  3
ObjectDBX Classes
 90
        0
280
     0
281
     1
  0
ENDSEC
  0
SECTION
  2
TABLES
  0
TABLE
  2
VPORT
  5
20
330
0
100
AcDbSymbolTable
 70
     1
  0
VPORT
  5
21
330
20
100
AcDbSymbolTableRecord
100
AcDbViewportTableRecord
  2
*ACTIVE
 70
     0
  0
ENDTAB
  0
TABLE
  2
LTYPE
  5
22
330
0
100
AcDbSymbolTable
 70
     1
  0
LTYPE
  5
23
330
21
100
AcDbSymbolTableRecord
100
AcDbLinetypeTableRecord
  2
BYBLOCK
 70
     0
  3

 72
    65
 73
     0
 40
0.0
  0
LTYPE
  5
24
330
21
100
AcDbSymbolTableRecord
100
AcDbLinetypeTableRecord
  2
BYLAYER
 70
     0
  3

 72
    65
 73
     0
 40
0.0
  0
LTYPE
  5
25
330
21
100
AcDbSymbolTableRecord
100
AcDbLinetypeTableRecord
  2
CONTINUOUS
 70
     0
  3
Solid line
 72
    65
 73
     0
 40
0.0
  0
ENDTAB
  0
TABLE
  2
LAYER
  5
AC2
330
0
100
AcDbSymbolTable
 70
3
  0
LAYER
  5
AC3
330
AC2
100
AcDbSymbolTableRecord
100
AcDbLayerTableRecord
  2
0
 70
   0
 62
   7
  6
CONTINUOUS
  0
LAYER
  5
AC4
330
AC2
100
AcDbSymbolTableRecord
100
AcDbLayerTableRecord
  2
none
 70
    0
 62
    7
  6
CONTINUOUS
  0
LAYER
  5
AC5
330
AC2
100
AcDbSymbolTableRecord
100
AcDbLayerTableRecord
  2
Camera_plate_25deg_O4
 70
    0
 62
    7
  6
CONTINUOUS
  0
ENDTAB
  0
TABLE
  2
STYLE
  5
70
330
0
100
AcDbSymbolTable
 70
     2
  0
STYLE
  5
71
330
70
100
AcDbSymbolTableRecord
100
AcDbTextStyleTableRecord
  2
STANDARD
 70
     0
 40
0.0
 41
1.0
 50
0.0
 71
     0
 42
2.5
  3
arial.ttf
  4

  0
STYLE
  5
72
330
70
100
AcDbSymbolTableRecord
100
AcDbTextStyleTableRecord
  2
ANNOTATIVE
 70
     0
 40
0.0
 41
1.0
 50
0.0
 71
     0
 42
2.5
  3
arial.ttf
  4

  0
ENDTAB
  0
TABLE
  2
VIEW
  5
73
330
0
100
AcDbSymbolTable
 70
     0
  0
ENDTAB
  0
TABLE
  2
UCS
  5
74
330
0
100
AcDbSymbolTable
 70
     0
  0
ENDTAB
  0
TABLE
  2
APPID
  5
75
330
0
100
AcDbSymbolTable
 70
     2
  0
APPID
  5
76
330
75
100
AcDbSymbolTableRecord
100
AcDbRegAppTableRecord
  2
ACAD
 70
     0
  0
APPID
  5
77
330
75
100
AcDbSymbolTableRecord
100
AcDbRegAppTableRecord
  2
ACADANNOTATIVE
 70
     0
  0
ENDTAB
  0
TABLE
  2
DIMSTYLE
  5
78
330
0
100
AcDbSymbolTable
 70
     2
  0
DIMSTYLE
105
79
330
78
100
AcDbSymbolTableRecord
100
AcDbDimStyleTableRecord
  2
STANDARD
 70
     0
  3

  4

  5

  6

  7

 40
0.0
 41
2.5
 42
0.625
 43
3.75
 44
1.25
 45
0.0
 46
0.0
 47
0.0
 48
0.0
140
2.5
141
2.5
142
0.0
143
0.03937007874016
144
1.0
145
0.0
146
1.0
147
0.625
 71
     0
 72
     0
 73
     0
 74
     0
 75
     0
 76
     0
 77
     1
 78
     8
170
     0
171
     3
172
     1
173
     0
174
     0
175
     0
176
     0
177
     0
178
     0
270
     2
271
     2
272
     2
273
     2
274
     3
340
71
275
     0
280
     0
281
     0
282
     0
283
     0
284
     8
285
     0
286
     0
287
     3
288
     0
  0
ENDTAB
  0
TABLE
  2
BLOCK_RECORD
  5
A01
330
0
100
AcDbSymbolTable
  70
5
  0
BLOCK_RECORD
  5
A02
330
A01
100
AcDbSymbolTableRecord
100
AcDbBlockTableRecord
  2
*MODEL_SPACE
  0
BLOCK_RECORD
  5
A03
330
A01
100
AcDbSymbolTableRecord
100
AcDbBlockTableRecord
  2
*PAPER_SPACE
  0
ENDTAB
  0
ENDSEC
  0
SECTION
  2
BLOCKS
  0
BLOCK
  5
A04
330
A02
100
AcDbEntity
  8
0
100
AcDbBlockBegin
  2
*MODEL_SPACE
 70
   0
 10
0
 20
0
 30
0
  3
*MODEL_SPACE
  1
 
  0
ENDBLK
  5
A05
330
A02
100
AcDbEntity
  8
0
100
AcDbBlockEnd
  0
BLOCK
  5
A06
330
A03
100
AcDbEntity
 67
1
  8
0
100
AcDbBlockBegin
  2
*PAPER_SPACE
 70
   0
 10
0
 20
0
 30
0
  3
*PAPER_SPACE
  1
 
  0
ENDBLK
  5
A07
330
A03
100
AcDbEntity
 67
    1
  8
0
100
AcDbBlockEnd
  0
ENDSEC
  0
SECTION
  2
ENTITIES
  0
LINE
  5
A08
330
A02
100
AcDbEntity
  8
Camera_plate_25deg_O4
100
AcDbLine
 10
40.500000000
 20
10.245419901
 30
0.000000000
 11
40.353553391
 21
9.891866511
 31
0.000000000
  0
LINE
  5
A09
330
A02
100
AcDbEntity
  8
Camera_plate_25deg_O4
100
AcDbLine
 10
40.353553391
 20
9.891866511
 30
0.000000000
 11
40.000000000
 21
9.745419901
 31
0.000000000
  0
LINE
  5
A0A
330
A02
100
AcDbEntity
  8
Camera_plate_25deg_O4
100
AcDbLine
 10
40.500000000
 20
15.195403011
 30
0.000000000
 11
40.500000000
 21
10.245419901
 31
0.000000000
  0
LINE
  5
A0B
330
A02
100
AcDbEntity
  8
Camera_plate_25deg_O4
100
AcDbLine
 10
40.000000000
 20
9.745419901
 30
0.000000000
 11
38.000000000
 21
9.745419901
 31
0.000000000
  0
LINE
  5
A0C
330
A02
100
AcDbEntity
  8
Camera_plate_25deg_O4
100
AcDbLine
 10
38.000000000
 20
9.745419901
 30
0.000000000
 11
37.529771798
 21
9.592633497
 31
0.000000000
  0
LINE
  5
A0D
330
A02
100
AcDbEntity
  8
Camera_plate_25deg_O4
100
AcDbLine
 10
37.529771798
 20
9.592633497
 30
0.000000000
 11
37.239154787
 21
9.192633497
 31
0.000000000
  0
LINE
  5
A0E
330
A02
100
AcDbEntity
  8
Camera_plate_25deg_O4
100
AcDbLine
 10
37.239154787
 20
9.192633497
 30
0.000000000
 11
37.239154787
 21
8.698206306
 31
0.000000000
  0
LINE
  5
A0F
330
A02
100
AcDbEntity
  8
Camera_plate_25deg_O4
100
AcDbLine
 10
37.239154787
 20
8.698206306
 30
0.000000000
 11
37.529771798
 21
8.298206306
 31
0.000000000
  0
LINE
  5
A10
330
A02
100
AcDbEntity
  8
Camera_plate_25deg_O4
100
AcDbLine
 10
37.529771798
 20
8.298206306
 30
0.000000000
 11
38.000000000
 21
8.145419901
 31
0.000000000
  0
LINE
  5
A11
330
A02
100
AcDbEntity
  8
Camera_plate_25deg_O4
100
AcDbLine
 10
40.000000000
 20
15.695403011
 30
0.000000000
 11
40.353553391
 21
15.548956401
 31
0.000000000
  0
LINE
  5
A12
330
A02
100
AcDbEntity
  8
Camera_plate_25deg_O4
100
AcDbLine
 10
40.353553391
 20
15.548956401
 30
0.000000000
 11
40.500000000
 21
15.195403011
 31
0.000000000
  0
LINE
  5
A13
330
A02
100
AcDbEntity
  8
Camera_plate_25deg_O4
100
AcDbLine
 10
38.000000000
 20
15.695403011
 30
0.000000000
 11
40.000000000
 21
15.695403011
 31
0.000000000
  0
LINE
  5
A14
330
A02
100
AcDbEntity
  8
Camera_plate_25deg_O4
100
AcDbLine
 10
38.000000000
 20
17.295403011
 30
0.000000000
 11
37.529771798
 21
17.142616606
 31
0.000000000
  0
LINE
  5
A15
330
A02
100
AcDbEntity
  8
Camera_plate_25deg_O4
100
AcDbLine
 10
37.529771798
 20
17.142616606
 30
0.000000000
 11
37.239154787
 21
16.742616606
 31
0.000000000
  0
LINE
  5
A16
330
A02
100
AcDbEntity
  8
Camera_plate_25deg_O4
100
AcDbLine
 10
37.239154787
 20
16.742616606
 30
0.000000000
 11
37.239154787
 21
16.248189415
 31
0.000000000
  0
LINE
  5
A17
330
A02
100
AcDbEntity
  8
Camera_plate_25deg_O4
100
AcDbLine
 10
37.239154787
 20
16.248189415
 30
0.000000000
 11
37.529771798
 21
15.848189415
 31
0.000000000
  0
LINE
  5
A18
330
A02
100
AcDbEntity
  8
Camera_plate_25deg_O4
100
AcDbLine
 10
37.529771798
 20
15.848189415
 30
0.000000000
 11
38.000000000
 21
15.695403011
 31
0.000000000
  0
LINE
  5
A19
330
A02
100
AcDbEntity
  8
Camera_plate_25deg_O4
100
AcDbLine
 10
13.707031515
 20
50.477101862
 30
0.000000000
 11
45.445510241
 21
35.677206174
 31
0.000000000
  0
LINE
  5
A1A
330
A02
100
AcDbEntity
  8
Camera_plate_25deg_O4
100
AcDbLine
 10
13.707031515
 20
50.477101862
 30
0.000000000
 11
13.004301262
 21
50.659402818
 31
0.000000000
  0
LINE
  5
A1B
330
A02
100
AcDbEntity
  8
Camera_plate_25deg_O4
100
AcDbLine
 10
13.004301262
 20
50.659402818
 30
0.000000000
 11
12.282793548
 21
50.578841879
 31
0.000000000
  0
LINE
  5
A1C
330
A02
100
AcDbEntity
  8
Camera_plate_25deg_O4
100
AcDbLine
 10
12.282793548
 20
50.578841879
 30
0.000000000
 11
11.637578458
 21
50.246034225
 31
0.000000000
  0
LINE
  5
A1D
330
A02
100
AcDbEntity
  8
Camera_plate_25deg_O4
100
AcDbLine
 10
46.510067532
 20
33.270715540
 30
0.000000000
 11
46.596968027
 21
33.979533347
 31
0.000000000
  0
LINE
  5
A1E
330
A02
100
AcDbEntity
  8
Camera_plate_25deg_O4
100
AcDbLine
 10
46.596968027
 20
33.979533347
 30
0.000000000
 11
46.429302786
 21
34.673696691
 31
0.000000000
  0
LINE
  5
A1F
330
A02
100
AcDbEntity
  8
Camera_plate_25deg_O4
100
AcDbLine
 10
46.429302786
 20
34.673696691
 30
0.000000000
 11
46.028448054
 21
35.264704190
 31
0.000000000
  0
LINE
  5
A20
330
A02
100
AcDbEntity
  8
Camera_plate_25deg_O4
100
AcDbLine
 10
46.028448054
 20
35.264704190
 30
0.000000000
 11
45.445510241
 21
35.677206174
 31
0.000000000
  0
LINE
  5
A21
330
A02
100
AcDbEntity
  8
Camera_plate_25deg_O4
100
AcDbLine
 10
30.407671142
 20
27.077967779
 30
0.000000000
 11
27.027985377
 21
19.826917892
 31
0.000000000
  0
LINE
  5
A22
330
A02
100
AcDbEntity
  8
Camera_plate_25deg_O4
100
AcDbLine
 10
32.220433600
 20
26.233046321
 30
0.000000000
 11
32.295646369
 21
26.846486656
 31
0.000000000
  0
LINE
  5
A23
330
A02
100
AcDbEntity
  8
Camera_plate_25deg_O4
100
AcDbLine
 10
32.295646369
 20
26.846486656
 30
0.000000000
 11
31.995923597
 21
27.386979271
 31
0.000000000
  0
LINE
  5
A24
330
A02
100
AcDbEntity
  8
Camera_plate_25deg_O4
100
AcDbLine
 10
31.995923597
 20
27.386979271
 30
0.000000000
 11
31.435749195
 21
27.648074359
 31
0.000000000
  0
LINE
  5
A25
330
A02
100
AcDbEntity
  8
Camera_plate_25deg_O4
100
AcDbLine
 10
31.435749195
 20
27.648074359
 30
0.000000000
 11
30.829090741
 21
27.530042472
 31
0.000000000
  0
LINE
  5
A26
330
A02
100
AcDbEntity
  8
Camera_plate_25deg_O4
100
AcDbLine
 10
30.829090741
 20
27.530042472
 30
0.000000000
 11
30.407671142
 21
27.077967779
 31
0.000000000
  0
LINE
  5
A27
330
A02
100
AcDbEntity
  8
Camera_plate_25deg_O4
100
AcDbLine
 10
27.027985377
 20
19.826917892
 30
0.000000000
 11
26.952772609
 21
19.213477547
 31
0.000000000
  0
LINE
  5
A28
330
A02
100
AcDbEntity
  8
Camera_plate_25deg_O4
100
AcDbLine
 10
26.952772609
 20
19.213477547
 30
0.000000000
 11
27.252495392
 21
18.672984930
 31
0.000000000
  0
LINE
  5
A29
330
A02
100
AcDbEntity
  8
Camera_plate_25deg_O4
100
AcDbLine
 10
27.252495392
 20
18.672984930
 30
0.000000000
 11
27.812669807
 21
18.411889850
 31
0.000000000
  0
LINE
  5
A2A
330
A02
100
AcDbEntity
  8
Camera_plate_25deg_O4
100
AcDbLine
 10
27.812669807
 20
18.411889850
 30
0.000000000
 11
28.419328266
 21
18.529921757
 31
0.000000000
  0
LINE
  5
A2B
330
A02
100
AcDbEntity
  8
Camera_plate_25deg_O4
100
AcDbLine
 10
28.419328266
 20
18.529921757
 30
0.000000000
 11
28.840747853
 21
18.981996472
 31
0.000000000
  0
LINE
  5
A2C
330
A02
100
AcDbEntity
  8
Camera_plate_25deg_O4
100
AcDbLine
 10
28.840747853
 20
18.981996472
 30
0.000000000
 11
32.220433600
 21
26.233046321
 31
0.000000000
  0
LINE
  5
A2D
330
A02
100
AcDbEntity
  8
Camera_plate_25deg_O4
100
AcDbLine
 10
15.906746540
 20
33.839859947
 30
0.000000000
 11
12.527060784
 21
26.588810079
 31
0.000000000
  0
LINE
  5
A2E
330
A02
100
AcDbEntity
  8
Camera_plate_25deg_O4
100
AcDbLine
 10
17.719509007
 20
32.994938508
 30
0.000000000
 11
17.794721776
 21
33.608378848
 31
0.000000000
  0
LINE
  5
A2F
330
A02
100
AcDbEntity
  8
Camera_plate_25deg_O4
100
AcDbLine
 10
17.794721776
 20
33.608378848
 30
0.000000000
 11
17.494998999
 21
34.148871464
 31
0.000000000
  0
LINE
  5
A30
330
A02
100
AcDbEntity
  8
Camera_plate_25deg_O4
100
AcDbLine
 10
17.494998999
 20
34.148871464
 30
0.000000000
 11
16.934824590
 21
34.409966548
 31
0.000000000
  0
LINE
  5
A31
330
A02
100
AcDbEntity
  8
Camera_plate_25deg_O4
100
AcDbLine
 10
16.934824590
 20
34.409966548
 30
0.000000000
 11
16.328166133
 21
34.291934651
 31
0.000000000
  0
LINE
  5
A32
330
A02
100
AcDbEntity
  8
Camera_plate_25deg_O4
100
AcDbLine
 10
16.328166133
 20
34.291934651
 30
0.000000000
 11
15.906746540
 21
33.839859947
 31
0.000000000
  0
LINE
  5
A33
330
A02
100
AcDbEntity
  8
Camera_plate_25deg_O4
100
AcDbLine
 10
12.527060784
 20
26.588810079
 30
0.000000000
 11
12.451848017
 21
25.975369735
 31
0.000000000
  0
LINE
  5
A34
330
A02
100
AcDbEntity
  8
Camera_plate_25deg_O4
100
AcDbLine
 10
12.451848017
 20
25.975369735
 30
0.000000000
 11
12.751570799
 21
25.434877118
 31
0.000000000
  0
LINE
  5
A35
330
A02
100
AcDbEntity
  8
Camera_plate_25deg_O4
100
AcDbLine
 10
12.751570799
 20
25.434877118
 30
0.000000000
 11
13.311745215
 21
25.173782038
 31
0.000000000
  0
LINE
  5
A36
330
A02
100
AcDbEntity
  8
Camera_plate_25deg_O4
100
AcDbLine
 10
13.311745215
 20
25.173782038
 30
0.000000000
 11
13.918403673
 21
25.291813944
 31
0.000000000
  0
LINE
  5
A37
330
A02
100
AcDbEntity
  8
Camera_plate_25deg_O4
100
AcDbLine
 10
13.918403673
 20
25.291813944
 30
0.000000000
 11
14.339823260
 21
25.743888659
 31
0.000000000
  0
LINE
  5
A38
330
A02
100
AcDbEntity
  8
Camera_plate_25deg_O4
100
AcDbLine
 10
14.339823260
 20
25.743888659
 30
0.000000000
 11
17.719509007
 21
32.994938508
 31
0.000000000
  0
LINE
  5
A39
330
A02
100
AcDbEntity
  8
Camera_plate_25deg_O4
100
AcDbLine
 10
23.028653972
 20
37.564305787
 30
0.000000000
 11
19.648968216
 21
30.313255919
 31
0.000000000
  0
LINE
  5
A3A
330
A02
100
AcDbEntity
  8
Camera_plate_25deg_O4
100
AcDbLine
 10
24.841416439
 20
36.719384348
 30
0.000000000
 11
24.916629208
 21
37.332824688
 31
0.000000000
  0
LINE
  5
A3B
330
A02
100
AcDbEntity
  8
Camera_plate_25deg_O4
100
AcDbLine
 10
24.916629208
 20
37.332824688
 30
0.000000000
 11
24.616906430
 21
37.873317305
 31
0.000000000
  0
LINE
  5
A3C
330
A02
100
AcDbEntity
  8
Camera_plate_25deg_O4
100
AcDbLine
 10
24.616906430
 20
37.873317305
 30
0.000000000
 11
24.056732021
 21
38.134412388
 31
0.000000000
  0
LINE
  5
A3D
330
A02
100
AcDbEntity
  8
Camera_plate_25deg_O4
100
AcDbLine
 10
24.056732021
 20
38.134412388
 30
0.000000000
 11
23.450073565
 21
38.016380491
 31
0.000000000
  0
LINE
  5
A3E
330
A02
100
AcDbEntity
  8
Camera_plate_25deg_O4
100
AcDbLine
 10
23.450073565
 20
38.016380491
 30
0.000000000
 11
23.028653972
 21
37.564305787
 31
0.000000000
  0
LINE
  5
A3F
330
A02
100
AcDbEntity
  8
Camera_plate_25deg_O4
100
AcDbLine
 10
19.648968216
 20
30.313255919
 30
0.000000000
 11
19.573755448
 21
29.699815579
 31
0.000000000
  0
LINE
  5
A40
330
A02
100
AcDbEntity
  8
Camera_plate_25deg_O4
100
AcDbLine
 10
19.573755448
 20
29.699815579
 30
0.000000000
 11
19.873478225
 21
29.159322963
 31
0.000000000
  0
LINE
  5
A41
330
A02
100
AcDbEntity
  8
Camera_plate_25deg_O4
100
AcDbLine
 10
19.873478225
 20
29.159322963
 30
0.000000000
 11
20.433652634
 21
28.898227880
 31
0.000000000
  0
LINE
  5
A42
330
A02
100
AcDbEntity
  8
Camera_plate_25deg_O4
100
AcDbLine
 10
20.433652634
 20
28.898227880
 30
0.000000000
 11
21.040311090
 21
29.016259776
 31
0.000000000
  0
LINE
  5
A43
330
A02
100
AcDbEntity
  8
Camera_plate_25deg_O4
100
AcDbLine
 10
21.040311090
 20
29.016259776
 30
0.000000000
 11
21.461730683
 21
29.468334480
 31
0.000000000
  0
LINE
  5
A44
330
A02
100
AcDbEntity
  8
Camera_plate_25deg_O4
100
AcDbLine
 10
21.461730683
 20
29.468334480
 30
0.000000000
 11
24.841416439
 21
36.719384348
 31
0.000000000
  0
LINE
  5
A45
330
A02
100
AcDbEntity
  8
Camera_plate_25deg_O4
100
AcDbLine
 10
10.981127549
 20
33.498856771
 30
0.000000000
 11
11.123978154
 21
32.983788897
 31
0.000000000
  0
LINE
  5
A46
330
A02
100
AcDbEntity
  8
Camera_plate_25deg_O4
100
AcDbLine
 10
11.123978154
 20
32.983788897
 30
0.000000000
 11
11.511717378
 21
32.615876538
 31
0.000000000
  0
LINE
  5
A47
330
A02
100
AcDbEntity
  8
Camera_plate_25deg_O4
100
AcDbLine
 10
11.511717378
 20
32.615876538
 30
0.000000000
 11
12.033567655
 21
32.500232700
 31
0.000000000
  0
LINE
  5
A48
330
A02
100
AcDbEntity
  8
Camera_plate_25deg_O4
100
AcDbLine
 10
12.033567655
 20
32.500232700
 30
0.000000000
 11
12.540435731
 21
32.669896966
 31
0.000000000
  0
LINE
  5
A49
330
A02
100
AcDbEntity
  8
Camera_plate_25deg_O4
100
AcDbLine
 10
12.540435731
 20
32.669896966
 30
0.000000000
 11
12.887508783
 21
33.076396051
 31
0.000000000
  0
LINE
  5
A4A
330
A02
100
AcDbEntity
  8
Camera_plate_25deg_O4
100
AcDbLine
 10
10.981127549
 20
40.205695384
 30
0.000000000
 11
10.981127549
 21
33.498856771
 31
0.000000000
  0
LINE
  5
A4B
330
A02
100
AcDbEntity
  8
Camera_plate_25deg_O4
100
AcDbLine
 10
12.887508783
 20
33.076396051
 30
0.000000000
 11
15.455419433
 21
38.585798263
 31
0.000000000
  0
LINE
  5
A4C
330
A02
100
AcDbEntity
  8
Camera_plate_25deg_O4
100
AcDbLine
 10
15.455419433
 20
38.585798263
 30
0.000000000
 11
15.545222791
 21
39.095530164
 31
0.000000000
  0
LINE
  5
A4D
330
A02
100
AcDbEntity
  8
Camera_plate_25deg_O4
100
AcDbLine
 10
15.545222791
 20
39.095530164
 30
0.000000000
 11
15.368157009
 21
39.581882880
 31
0.000000000
  0
LINE
  5
A4E
330
A02
100
AcDbEntity
  8
Camera_plate_25deg_O4
100
AcDbLine
 10
15.368157009
 20
39.581882880
 30
0.000000000
 11
14.971656461
 21
39.914566769
 31
0.000000000
  0
LINE
  5
A4F
330
A02
100
AcDbEntity
  8
Camera_plate_25deg_O4
100
AcDbLine
 10
14.971656461
 20
39.914566769
 30
0.000000000
 11
12.403745811
 21
41.112003171
 31
0.000000000
  0
LINE
  5
A50
330
A02
100
AcDbEntity
  8
Camera_plate_25deg_O4
100
AcDbLine
 10
12.403745811
 20
41.112003171
 30
0.000000000
 11
11.915724420
 21
41.203554307
 31
0.000000000
  0
LINE
  5
A51
330
A02
100
AcDbEntity
  8
Camera_plate_25deg_O4
100
AcDbLine
 10
11.915724420
 20
41.203554307
 30
0.000000000
 11
11.443827941
 21
41.049086829
 31
0.000000000
  0
LINE
  5
A52
330
A02
100
AcDbEntity
  8
Camera_plate_25deg_O4
100
AcDbLine
 10
11.443827941
 20
41.049086829
 30
0.000000000
 11
11.104400794
 21
40.686684153
 31
0.000000000
  0
LINE
  5
A53
330
A02
100
AcDbEntity
  8
Camera_plate_25deg_O4
100
AcDbLine
 10
11.104400794
 20
40.686684153
 30
0.000000000
 11
10.981127549
 21
40.205695384
 31
0.000000000
  0
LINE
  5
A54
330
A02
100
AcDbEntity
  8
Camera_plate_25deg_O4
100
AcDbLine
 10
13.154404731
 20
48.420324224
 30
0.000000000
 11
12.457319973
 21
48.248508263
 31
0.000000000
  0
LINE
  5
A55
330
A02
100
AcDbEntity
  8
Camera_plate_25deg_O4
100
AcDbLine
 10
12.457319973
 20
48.248508263
 30
0.000000000
 11
11.919928933
 21
47.772421345
 31
0.000000000
  0
LINE
  5
A56
330
A02
100
AcDbEntity
  8
Camera_plate_25deg_O4
100
AcDbLine
 10
11.919928933
 20
47.772421345
 30
0.000000000
 11
11.665341420
 21
47.101129245
 31
0.000000000
  0
LINE
  5
A57
330
A02
100
AcDbEntity
  8
Camera_plate_25deg_O4
100
AcDbLine
 10
11.665341420
 20
47.101129245
 30
0.000000000
 11
11.751880367
 21
46.388416894
 31
0.000000000
  0
LINE
  5
A58
330
A02
100
AcDbEntity
  8
Camera_plate_25deg_O4
100
AcDbLine
 10
11.751880367
 20
46.388416894
 30
0.000000000
 11
12.159720744
 21
45.797558102
 31
0.000000000
  0
LINE
  5
A59
330
A02
100
AcDbEntity
  8
Camera_plate_25deg_O4
100
AcDbLine
 10
12.159720744
 20
45.797558102
 30
0.000000000
 11
12.795431235
 21
45.463911498
 31
0.000000000
  0
LINE
  5
A5A
330
A02
100
AcDbEntity
  8
Camera_plate_25deg_O4
100
AcDbLine
 10
12.795431235
 20
45.463911498
 30
0.000000000
 11
13.513378228
 21
45.463911498
 31
0.000000000
  0
LINE
  5
A5B
330
A02
100
AcDbEntity
  8
Camera_plate_25deg_O4
100
AcDbLine
 10
13.513378228
 20
45.463911498
 30
0.000000000
 11
14.149088719
 21
45.797558102
 31
0.000000000
  0
LINE
  5
A5C
330
A02
100
AcDbEntity
  8
Camera_plate_25deg_O4
100
AcDbLine
 10
14.149088719
 20
45.797558102
 30
0.000000000
 11
14.556929096
 21
46.388416894
 31
0.000000000
  0
LINE
  5
A5D
330
A02
100
AcDbEntity
  8
Camera_plate_25deg_O4
100
AcDbLine
 10
14.556929096
 20
46.388416894
 30
0.000000000
 11
14.643468043
 21
47.101129245
 31
0.000000000
  0
LINE
  5
A5E
330
A02
100
AcDbEntity
  8
Camera_plate_25deg_O4
100
AcDbLine
 10
14.643468043
 20
47.101129245
 30
0.000000000
 11
14.388880530
 21
47.772421345
 31
0.000000000
  0
LINE
  5
A5F
330
A02
100
AcDbEntity
  8
Camera_plate_25deg_O4
100
AcDbLine
 10
14.388880530
 20
47.772421345
 30
0.000000000
 11
13.851489490
 21
48.248508263
 31
0.000000000
  0
LINE
  5
A60
330
A02
100
AcDbEntity
  8
Camera_plate_25deg_O4
100
AcDbLine
 10
13.851489490
 20
48.248508263
 30
0.000000000
 11
13.154404731
 21
48.420324224
 31
0.000000000
  0
LINE
  5
A61
330
A02
100
AcDbEntity
  8
Camera_plate_25deg_O4
100
AcDbLine
 10
28.466941373
 20
35.029541470
 30
0.000000000
 11
25.087255617
 21
27.778491602
 31
0.000000000
  0
LINE
  5
A62
330
A02
100
AcDbEntity
  8
Camera_plate_25deg_O4
100
AcDbLine
 10
30.279703840
 20
34.184620031
 30
0.000000000
 11
30.354916609
 21
34.798060371
 31
0.000000000
  0
LINE
  5
A63
330
A02
100
AcDbEntity
  8
Camera_plate_25deg_O4
100
AcDbLine
 10
30.354916609
 20
34.798060371
 30
0.000000000
 11
30.055193831
 21
35.338552987
 31
0.000000000
  0
LINE
  5
A64
330
A02
100
AcDbEntity
  8
Camera_plate_25deg_O4
100
AcDbLine
 10
30.055193831
 20
35.338552987
 30
0.000000000
 11
29.495019422
 21
35.599648071
 31
0.000000000
  0
LINE
  5
A65
330
A02
100
AcDbEntity
  8
Camera_plate_25deg_O4
100
AcDbLine
 10
29.495019422
 20
35.599648071
 30
0.000000000
 11
28.888360966
 21
35.481616174
 31
0.000000000
  0
LINE
  5
A66
330
A02
100
AcDbEntity
  8
Camera_plate_25deg_O4
100
AcDbLine
 10
28.888360966
 20
35.481616174
 30
0.000000000
 11
28.466941373
 21
35.029541470
 31
0.000000000
  0
LINE
  5
A67
330
A02
100
AcDbEntity
  8
Camera_plate_25deg_O4
100
AcDbLine
 10
25.087255617
 20
27.778491602
 30
0.000000000
 11
25.012042849
 21
27.165051262
 31
0.000000000
  0
LINE
  5
A68
330
A02
100
AcDbEntity
  8
Camera_plate_25deg_O4
100
AcDbLine
 10
25.012042849
 20
27.165051262
 30
0.000000000
 11
25.311765626
 21
26.624558646
 31
0.000000000
  0
LINE
  5
A69
330
A02
100
AcDbEntity
  8
Camera_plate_25deg_O4
100
AcDbLine
 10
25.311765626
 20
26.624558646
 30
0.000000000
 11
25.871940035
 21
26.363463563
 31
0.000000000
  0
LINE
  5
A6A
330
A02
100
AcDbEntity
  8
Camera_plate_25deg_O4
100
AcDbLine
 10
25.871940035
 20
26.363463563
 30
0.000000000
 11
26.478598491
 21
26.481495459
 31
0.000000000
  0
LINE
  5
A6B
330
A02
100
AcDbEntity
  8
Camera_plate_25deg_O4
100
AcDbLine
 10
26.478598491
 20
26.481495459
 30
0.000000000
 11
26.900018084
 21
26.933570163
 31
0.000000000
  0
LINE
  5
A6C
330
A02
100
AcDbEntity
  8
Camera_plate_25deg_O4
100
AcDbLine
 10
26.900018084
 20
26.933570163
 30
0.000000000
 11
30.279703840
 21
34.184620031
 31
0.000000000
  0
LINE
  5
A6D
330
A02
100
AcDbEntity
  8
Camera_plate_25deg_O4
100
AcDbLine
 10
41.594457971
 20
33.182323081
 30
0.000000000
 11
40.602321274
 21
29.991792524
 31
0.000000000
  0
LINE
  5
A6E
330
A02
100
AcDbEntity
  8
Camera_plate_25deg_O4
100
AcDbLine
 10
44.459148692
 20
32.291510491
 30
0.000000000
 11
44.510556458
 21
32.957090942
 31
0.000000000
  0
LINE
  5
A6F
330
A02
100
AcDbEntity
  8
Camera_plate_25deg_O4
100
AcDbLine
 10
44.510556458
 20
32.957090942
 30
0.000000000
 11
44.268088720
 21
33.579063200
 31
0.000000000
  0
LINE
  5
A70
330
A02
100
AcDbEntity
  8
Camera_plate_25deg_O4
100
AcDbLine
 10
44.268088720
 20
33.579063200
 30
0.000000000
 11
43.779769188
 21
34.034238033
 31
0.000000000
  0
LINE
  5
A71
330
A02
100
AcDbEntity
  8
Camera_plate_25deg_O4
100
AcDbLine
 10
43.779769188
 20
34.034238033
 30
0.000000000
 11
43.142315533
 21
34.232462483
 31
0.000000000
  0
LINE
  5
A72
330
A02
100
AcDbEntity
  8
Camera_plate_25deg_O4
100
AcDbLine
 10
43.142315533
 20
34.232462483
 30
0.000000000
 11
42.481983270
 21
34.134475765
 31
0.000000000
  0
LINE
  5
A73
330
A02
100
AcDbEntity
  8
Camera_plate_25deg_O4
100
AcDbLine
 10
42.481983270
 20
34.134475765
 30
0.000000000
 11
41.929559302
 21
33.759685352
 31
0.000000000
  0
LINE
  5
A74
330
A02
100
AcDbEntity
  8
Camera_plate_25deg_O4
100
AcDbLine
 10
41.929559302
 20
33.759685352
 30
0.000000000
 11
41.594457971
 21
33.182323081
 31
0.000000000
  0
LINE
  5
A75
330
A02
100
AcDbEntity
  8
Camera_plate_25deg_O4
100
AcDbLine
 10
40.602321274
 20
29.991792524
 30
0.000000000
 11
40.550913508
 21
29.326212074
 31
0.000000000
  0
LINE
  5
A76
330
A02
100
AcDbEntity
  8
Camera_plate_25deg_O4
100
AcDbLine
 10
40.550913508
 20
29.326212074
 30
0.000000000
 11
40.793381246
 21
28.704239815
 31
0.000000000
  0
LINE
  5
A77
330
A02
100
AcDbEntity
  8
Camera_plate_25deg_O4
100
AcDbLine
 10
40.793381246
 20
28.704239815
 30
0.000000000
 11
41.281700778
 21
28.249064982
 31
0.000000000
  0
LINE
  5
A78
330
A02
100
AcDbEntity
  8
Camera_plate_25deg_O4
100
AcDbLine
 10
41.281700778
 20
28.249064982
 30
0.000000000
 11
41.919154433
 21
28.050840532
 31
0.000000000
  0
LINE
  5
A79
330
A02
100
AcDbEntity
  8
Camera_plate_25deg_O4
100
AcDbLine
 10
41.919154433
 20
28.050840532
 30
0.000000000
 11
42.579486696
 21
28.148827250
 31
0.000000000
  0
LINE
  5
A7A
330
A02
100
AcDbEntity
  8
Camera_plate_25deg_O4
100
AcDbLine
 10
42.579486696
 20
28.148827250
 30
0.000000000
 11
43.131910664
 21
28.523617663
 31
0.000000000
  0
LINE
  5
A7B
330
A02
100
AcDbEntity
  8
Camera_plate_25deg_O4
100
AcDbLine
 10
43.131910664
 20
28.523617663
 30
0.000000000
 11
43.467011996
 21
29.100979934
 31
0.000000000
  0
LINE
  5
A7C
330
A02
100
AcDbEntity
  8
Camera_plate_25deg_O4
100
AcDbLine
 10
43.467011996
 20
29.100979934
 30
0.000000000
 11
44.459148692
 21
32.291510491
 31
0.000000000
  0
LINE
  5
A7D
330
A02
100
AcDbEntity
  8
Camera_plate_25deg_O4
100
AcDbLine
 10
5.500000000
 20
25.133139877
 30
0.000000000
 11
8.000000000
 21
25.133139877
 31
0.000000000
  0
LINE
  5
A7E
330
A02
100
AcDbEntity
  8
Camera_plate_25deg_O4
100
AcDbLine
 10
5.500000000
 20
25.133139877
 30
0.000000000
 11
5.146446609
 21
24.986693268
 31
0.000000000
  0
LINE
  5
A7F
330
A02
100
AcDbEntity
  8
Camera_plate_25deg_O4
100
AcDbLine
 10
5.146446609
 20
24.986693268
 30
0.000000000
 11
5.000000000
 21
24.633139877
 31
0.000000000
  0
LINE
  5
A80
330
A02
100
AcDbEntity
  8
Camera_plate_25deg_O4
100
AcDbLine
 10
8.000000000
 20
25.133139877
 30
0.000000000
 11
8.470228202
 21
25.285926282
 31
0.000000000
  0
LINE
  5
A81
330
A02
100
AcDbEntity
  8
Camera_plate_25deg_O4
100
AcDbLine
 10
8.470228202
 20
25.285926282
 30
0.000000000
 11
8.760845213
 21
25.685926282
 31
0.000000000
  0
LINE
  5
A82
330
A02
100
AcDbEntity
  8
Camera_plate_25deg_O4
100
AcDbLine
 10
8.760845213
 20
25.685926282
 30
0.000000000
 11
8.760845213
 21
26.180353473
 31
0.000000000
  0
LINE
  5
A83
330
A02
100
AcDbEntity
  8
Camera_plate_25deg_O4
100
AcDbLine
 10
8.760845213
 20
26.180353473
 30
0.000000000
 11
8.470228202
 21
26.580353473
 31
0.000000000
  0
LINE
  5
A84
330
A02
100
AcDbEntity
  8
Camera_plate_25deg_O4
100
AcDbLine
 10
8.470228202
 20
26.580353473
 30
0.000000000
 11
8.000000000
 21
26.733139877
 31
0.000000000
  0
LINE
  5
A85
330
A02
100
AcDbEntity
  8
Camera_plate_25deg_O4
100
AcDbLine
 10
8.000000000
 20
26.733139877
 30
0.000000000
 11
8.000000000
 21
31.167197515
 31
0.000000000
  0
LINE
  5
A86
330
A02
100
AcDbEntity
  8
Camera_plate_25deg_O4
100
AcDbLine
 10
8.000000000
 20
31.167197515
 30
0.000000000
 11
8.470228202
 21
31.319983920
 31
0.000000000
  0
LINE
  5
A87
330
A02
100
AcDbEntity
  8
Camera_plate_25deg_O4
100
AcDbLine
 10
8.470228202
 20
31.319983920
 30
0.000000000
 11
8.760845213
 21
31.719983920
 31
0.000000000
  0
LINE
  5
A88
330
A02
100
AcDbEntity
  8
Camera_plate_25deg_O4
100
AcDbLine
 10
8.760845213
 20
31.719983920
 30
0.000000000
 11
8.760845213
 21
32.214411111
 31
0.000000000
  0
LINE
  5
A89
330
A02
100
AcDbEntity
  8
Camera_plate_25deg_O4
100
AcDbLine
 10
8.760845213
 20
32.214411111
 30
0.000000000
 11
8.470228202
 21
32.614411111
 31
0.000000000
  0
LINE
  5
A8A
330
A02
100
AcDbEntity
  8
Camera_plate_25deg_O4
100
AcDbLine
 10
8.470228202
 20
32.614411111
 30
0.000000000
 11
8.000000000
 21
32.767197515
 31
0.000000000
  0
LINE
  5
A8B
330
A02
100
AcDbEntity
  8
Camera_plate_25deg_O4
100
AcDbLine
 10
8.000000000
 20
32.767197515
 30
0.000000000
 11
5.500000000
 21
32.767197515
 31
0.000000000
  0
LINE
  5
A8C
330
A02
100
AcDbEntity
  8
Camera_plate_25deg_O4
100
AcDbLine
 10
5.000000000
 20
33.267197515
 30
0.000000000
 11
5.146446609
 21
32.913644125
 31
0.000000000
  0
LINE
  5
A8D
330
A02
100
AcDbEntity
  8
Camera_plate_25deg_O4
100
AcDbLine
 10
5.146446609
 20
32.913644125
 30
0.000000000
 11
5.500000000
 21
32.767197515
 31
0.000000000
  0
LINE
  5
A8E
330
A02
100
AcDbEntity
  8
Camera_plate_25deg_O4
100
AcDbLine
 10
5.000000000
 20
33.267197515
 30
0.000000000
 11
5.000000000
 21
38.217180625
 31
0.000000000
  0
LINE
  5
A8F
330
A02
100
AcDbEntity
  8
Camera_plate_25deg_O4
100
AcDbLine
 10
5.500000000
 20
38.717180625
 30
0.000000000
 11
5.146446609
 21
38.570734015
 31
0.000000000
  0
LINE
  5
A90
330
A02
100
AcDbEntity
  8
Camera_plate_25deg_O4
100
AcDbLine
 10
5.146446609
 20
38.570734015
 30
0.000000000
 11
5.000000000
 21
38.217180625
 31
0.000000000
  0
LINE
  5
A91
330
A02
100
AcDbEntity
  8
Camera_plate_25deg_O4
100
AcDbLine
 10
5.500000000
 20
38.717180625
 30
0.000000000
 11
8.000000000
 21
38.717180625
 31
0.000000000
  0
LINE
  5
A92
330
A02
100
AcDbEntity
  8
Camera_plate_25deg_O4
100
AcDbLine
 10
8.000000000
 20
38.717180625
 30
0.000000000
 11
8.470228202
 21
38.869967029
 31
0.000000000
  0
LINE
  5
A93
330
A02
100
AcDbEntity
  8
Camera_plate_25deg_O4
100
AcDbLine
 10
8.470228202
 20
38.869967029
 30
0.000000000
 11
8.760845213
 21
39.269967029
 31
0.000000000
  0
LINE
  5
A94
330
A02
100
AcDbEntity
  8
Camera_plate_25deg_O4
100
AcDbLine
 10
8.760845213
 20
39.269967029
 30
0.000000000
 11
8.760845213
 21
39.764394220
 31
0.000000000
  0
LINE
  5
A95
330
A02
100
AcDbEntity
  8
Camera_plate_25deg_O4
100
AcDbLine
 10
8.760845213
 20
39.764394220
 30
0.000000000
 11
8.470228202
 21
40.164394220
 31
0.000000000
  0
LINE
  5
A96
330
A02
100
AcDbEntity
  8
Camera_plate_25deg_O4
100
AcDbLine
 10
8.470228202
 20
40.164394220
 30
0.000000000
 11
8.000000000
 21
40.317180625
 31
0.000000000
  0
LINE
  5
A97
330
A02
100
AcDbEntity
  8
Camera_plate_25deg_O4
100
AcDbLine
 10
8.000000000
 20
40.317180625
 30
0.000000000
 11
8.000000000
 21
42.752219627
 31
0.000000000
  0
LINE
  5
A98
330
A02
100
AcDbEntity
  8
Camera_plate_25deg_O4
100
AcDbLine
 10
8.000000000
 20
42.752219627
 30
0.000000000
 11
8.470228202
 21
42.905006031
 31
0.000000000
  0
LINE
  5
A99
330
A02
100
AcDbEntity
  8
Camera_plate_25deg_O4
100
AcDbLine
 10
8.470228202
 20
42.905006031
 30
0.000000000
 11
8.760845213
 21
43.305006031
 31
0.000000000
  0
LINE
  5
A9A
330
A02
100
AcDbEntity
  8
Camera_plate_25deg_O4
100
AcDbLine
 10
8.760845213
 20
43.305006031
 30
0.000000000
 11
8.760845213
 21
43.799433222
 31
0.000000000
  0
LINE
  5
A9B
330
A02
100
AcDbEntity
  8
Camera_plate_25deg_O4
100
AcDbLine
 10
8.760845213
 20
43.799433222
 30
0.000000000
 11
8.470228202
 21
44.199433222
 31
0.000000000
  0
LINE
  5
A9C
330
A02
100
AcDbEntity
  8
Camera_plate_25deg_O4
100
AcDbLine
 10
8.470228202
 20
44.199433222
 30
0.000000000
 11
8.000000000
 21
44.352219627
 31
0.000000000
  0
LINE
  5
A9D
330
A02
100
AcDbEntity
  8
Camera_plate_25deg_O4
100
AcDbLine
 10
8.000000000
 20
44.352219627
 30
0.000000000
 11
6.000000000
 21
44.352219627
 31
0.000000000
  0
LINE
  5
A9E
330
A02
100
AcDbEntity
  8
Camera_plate_25deg_O4
100
AcDbLine
 10
5.500000000
 20
44.852219627
 30
0.000000000
 11
5.646446609
 21
44.498666236
 31
0.000000000
  0
LINE
  5
A9F
330
A02
100
AcDbEntity
  8
Camera_plate_25deg_O4
100
AcDbLine
 10
5.646446609
 20
44.498666236
 30
0.000000000
 11
6.000000000
 21
44.352219627
 31
0.000000000
  0
LINE
  5
AA0
330
A02
100
AcDbEntity
  8
Camera_plate_25deg_O4
100
AcDbLine
 10
5.500000000
 20
44.852219627
 30
0.000000000
 11
5.500000000
 21
45.249905702
 31
0.000000000
  0
LINE
  5
AA1
330
A02
100
AcDbEntity
  8
Camera_plate_25deg_O4
100
AcDbLine
 10
5.693945866
 20
45.645292686
 30
0.000000000
 11
5.551097412
 21
45.470102129
 31
0.000000000
  0
LINE
  5
AA2
330
A02
100
AcDbEntity
  8
Camera_plate_25deg_O4
100
AcDbLine
 10
5.551097412
 20
45.470102129
 30
0.000000000
 11
5.500000000
 21
45.249905702
 31
0.000000000
  0
LINE
  5
AA3
330
A02
100
AcDbEntity
  8
Camera_plate_25deg_O4
100
AcDbLine
 10
5.693945866
 20
45.645292686
 30
0.000000000
 11
11.637578458
 21
50.246034225
 31
0.000000000
  0
LINE
  5
AA4
330
A02
100
AcDbEntity
  8
Camera_plate_25deg_O4
100
AcDbLine
 10
46.510067532
 20
33.270715540
 30
0.000000000
 11
43.159808590
 21
22.496894184
 31
0.000000000
  0
LINE
  5
AA5
330
A02
100
AcDbEntity
  8
Camera_plate_25deg_O4
100
AcDbLine
 10
41.250014776
 20
21.090769244
 30
0.000000000
 11
42.071200443
 21
21.267131643
 31
0.000000000
  0
LINE
  5
AA6
330
A02
100
AcDbEntity
  8
Camera_plate_25deg_O4
100
AcDbLine
 10
42.071200443
 20
21.267131643
 30
0.000000000
 11
42.747559837
 21
21.765115145
 31
0.000000000
  0
LINE
  5
AA7
330
A02
100
AcDbEntity
  8
Camera_plate_25deg_O4
100
AcDbLine
 10
42.747559837
 20
21.765115145
 30
0.000000000
 11
43.159808590
 21
22.496894184
 31
0.000000000
  0
LINE
  5
AA8
330
A02
100
AcDbEntity
  8
Camera_plate_25deg_O4
100
AcDbLine
 10
41.250014776
 20
21.090769244
 30
0.000000000
 11
38.000000000
 21
21.090769244
 31
0.000000000
  0
LINE
  5
AA9
330
A02
100
AcDbEntity
  8
Camera_plate_25deg_O4
100
AcDbLine
 10
38.000000000
 20
21.090769244
 30
0.000000000
 11
37.529771798
 21
20.937982839
 31
0.000000000
  0
LINE
  5
AAA
330
A02
100
AcDbEntity
  8
Camera_plate_25deg_O4
100
AcDbLine
 10
37.529771798
 20
20.937982839
 30
0.000000000
 11
37.239154787
 21
20.537982839
 31
0.000000000
  0
LINE
  5
AAB
330
A02
100
AcDbEntity
  8
Camera_plate_25deg_O4
100
AcDbLine
 10
37.239154787
 20
20.537982839
 30
0.000000000
 11
37.239154787
 21
20.043555648
 31
0.000000000
  0
LINE
  5
AAC
330
A02
100
AcDbEntity
  8
Camera_plate_25deg_O4
100
AcDbLine
 10
37.239154787
 20
20.043555648
 30
0.000000000
 11
37.529771798
 21
19.643555648
 31
0.000000000
  0
LINE
  5
AAD
330
A02
100
AcDbEntity
  8
Camera_plate_25deg_O4
100
AcDbLine
 10
37.529771798
 20
19.643555648
 30
0.000000000
 11
38.000000000
 21
19.490769244
 31
0.000000000
  0
LINE
  5
AAE
330
A02
100
AcDbEntity
  8
Camera_plate_25deg_O4
100
AcDbLine
 10
38.000000000
 20
19.490769244
 30
0.000000000
 11
38.000000000
 21
17.295403011
 31
0.000000000
  0
LINE
  5
AAF
330
A02
100
AcDbEntity
  8
Camera_plate_25deg_O4
100
AcDbLine
 10
38.000000000
 20
8.145419901
 30
0.000000000
 11
38.000000000
 21
5.486522435
 31
0.000000000
  0
LINE
  5
AB0
330
A02
100
AcDbEntity
  8
Camera_plate_25deg_O4
100
AcDbLine
 10
37.288690869
 20
5.033368542
 30
0.000000000
 11
37.615307935
 21
5.000000000
 31
0.000000000
  0
LINE
  5
AB1
330
A02
100
AcDbEntity
  8
Camera_plate_25deg_O4
100
AcDbLine
 10
37.615307935
 20
5.000000000
 30
0.000000000
 11
37.892207832
 21
5.176404690
 31
0.000000000
  0
LINE
  5
AB2
330
A02
100
AcDbEntity
  8
Camera_plate_25deg_O4
100
AcDbLine
 10
37.892207832
 20
5.176404690
 30
0.000000000
 11
38.000000000
 21
5.486522435
 31
0.000000000
  0
LINE
  5
AB3
330
A02
100
AcDbEntity
  8
Camera_plate_25deg_O4
100
AcDbLine
 10
37.288690869
 20
5.033368542
 30
0.000000000
 11
34.404618185
 21
6.378233721
 31
0.000000000
  0
LINE
  5
AB4
330
A02
100
AcDbEntity
  8
Camera_plate_25deg_O4
100
AcDbLine
 10
33.887504930
 20
6.942628252
 30
0.000000000
 11
34.089920689
 21
6.608993232
 31
0.000000000
  0
LINE
  5
AB5
330
A02
100
AcDbEntity
  8
Camera_plate_25deg_O4
100
AcDbLine
 10
34.089920689
 20
6.608993232
 30
0.000000000
 11
34.404618185
 21
6.378233721
 31
0.000000000
  0
LINE
  5
AB6
330
A02
100
AcDbEntity
  8
Camera_plate_25deg_O4
100
AcDbLine
 10
33.887504930
 20
6.942628252
 30
0.000000000
 11
31.461883264
 21
13.609328319
 31
0.000000000
  0
LINE
  5
AB7
330
A02
100
AcDbEntity
  8
Camera_plate_25deg_O4
100
AcDbLine
 10
31.461883264
 20
13.609328319
 30
0.000000000
 11
31.259467504
 21
13.942963338
 31
0.000000000
  0
LINE
  5
AB8
330
A02
100
AcDbEntity
  8
Camera_plate_25deg_O4
100
AcDbLine
 10
31.259467504
 20
13.942963338
 30
0.000000000
 11
30.944770008
 21
14.173722850
 31
0.000000000
  0
LINE
  5
AB9
330
A02
100
AcDbEntity
  8
Camera_plate_25deg_O4
100
AcDbLine
 10
30.944770008
 20
14.173722850
 30
0.000000000
 11
14.385279938
 21
21.895539885
 31
0.000000000
  0
LINE
  5
ABA
330
A02
100
AcDbEntity
  8
Camera_plate_25deg_O4
100
AcDbLine
 10
14.385279938
 20
21.895539885
 30
0.000000000
 11
13.925476712
 21
21.988540498
 31
0.000000000
  0
LINE
  5
ABB
330
A02
100
AcDbEntity
  8
Camera_plate_25deg_O4
100
AcDbLine
 10
13.925476712
 20
21.988540498
 30
0.000000000
 11
13.473856711
 21
21.861625189
 31
0.000000000
  0
LINE
  5
ABC
330
A02
100
AcDbEntity
  8
Camera_plate_25deg_O4
100
AcDbLine
 10
13.473856711
 20
21.861625189
 30
0.000000000
 11
8.921214812
 21
19.310763676
 31
0.000000000
  0
LINE
  5
ABD
330
A02
100
AcDbEntity
  8
Camera_plate_25deg_O4
100
AcDbLine
 10
8.432409847
 20
19.183156768
 30
0.000000000
 11
8.921214812
 21
19.310763676
 31
0.000000000
  0
LINE
  5
ABE
330
A02
100
AcDbEntity
  8
Camera_plate_25deg_O4
100
AcDbLine
 10
8.432409847
 20
19.183156768
 30
0.000000000
 11
5.500000000
 21
19.183156768
 31
0.000000000
  0
LINE
  5
ABF
330
A02
100
AcDbEntity
  8
Camera_plate_25deg_O4
100
AcDbLine
 10
5.000000000
 20
19.683156768
 30
0.000000000
 11
5.146446609
 21
19.329603377
 31
0.000000000
  0
LINE
  5
AC0
330
A02
100
AcDbEntity
  8
Camera_plate_25deg_O4
100
AcDbLine
 10
5.146446609
 20
19.329603377
 30
0.000000000
 11
5.500000000
 21
19.183156768
 31
0.000000000
  0
LINE
  5
AC1
330
A02
100
AcDbEntity
  8
Camera_plate_25deg_O4
100
AcDbLine
 10
5.000000000
 20
19.683156768
 30
0.000000000
 11
5.000000000
 21
24.633139877
 31
0.000000000
  0
ENDSEC
  0
SECTION
  2
OBJECTS
  0
DICTIONARY
  5
F000
330
0
100
AcDbDictionary
  3
ACAD_GROUP
350
F001
  0
DICTIONARY
  5
F001
330
F000
100
AcDbDictionary
  0
ENDSEC
  0
EOF