999
FreeCAD v1.1 20260414 (Git shallow)
  0
SECTION
  2
HEADER
  9
$ACADVER
  1
AC1014
  9
$ACADMAINTVER
 70
     9
  9
$DWGCODEPAGE
  3
ANSI_1252
  9
$TEXTSTYLE
  7
STANDARD
  9
$DIMSTYLE
  2
STANDARD
  9
$DIMTXSTY
  7
STANDARD
  9
$CMLSTYLE
  2
STANDARD
  9
$LUNITS
 70
2
  9
$INSUNITS
 70
4
  9
$PEXTMAX
 10
50
 20
50
 30
50
  9
$PEXTMIN
 10
0
 20
0
 30
0
  9
$HANDSEED
  5
FFFF
  0
ENDSEC
  0
SECTION
  2
CLASSES
  0
CLASS
  1
ACDBDICTIONARYWDFLT
  2
AcDbDictionaryWithDefault
  3
ObjectDBX Classes
 90
        0
280
     0
281
     0
  0
CLASS
  1
XRECORD
  2
AcDbXrecord
  3
ObjectDBX Classes
 90
        0
280
     0
281
     0
  0
CLASS
  1
LWPOLYLINE
  2
AcDbPolyline
  3
ObjectDBX Classes
 90
        0
280
     0
281
     1
  0
ENDSEC
  0
SECTION
  2
TABLES
  0
TABLE
  2
VPORT
  5
20
330
0
100
AcDbSymbolTable
 70
     1
  0
VPORT
  5
21
330
20
100
AcDbSymbolTableRecord
100
AcDbViewportTableRecord
  2
*ACTIVE
 70
     0
  0
ENDTAB
  0
TABLE
  2
LTYPE
  5
22
330
0
100
AcDbSymbolTable
 70
     1
  0
LTYPE
  5
23
330
21
100
AcDbSymbolTableRecord
100
AcDbLinetypeTableRecord
  2
BYBLOCK
 70
     0
  3

 72
    65
 73
     0
 40
0.0
  0
LTYPE
  5
24
330
21
100
AcDbSymbolTableRecord
100
AcDbLinetypeTableRecord
  2
BYLAYER
 70
     0
  3

 72
    65
 73
     0
 40
0.0
  0
LTYPE
  5
25
330
21
100
AcDbSymbolTableRecord
100
AcDbLinetypeTableRecord
  2
CONTINUOUS
 70
     0
  3
Solid line
 72
    65
 73
     0
 40
0.0
  0
ENDTAB
  0
TABLE
  2
LAYER
  5
B14
330
0
100
AcDbSymbolTable
 70
3
  0
LAYER
  5
B15
330
B14
100
AcDbSymbolTableRecord
100
AcDbLayerTableRecord
  2
0
 70
   0
 62
   7
  6
CONTINUOUS
  0
LAYER
  5
B16
330
B14
100
AcDbSymbolTableRecord
100
AcDbLayerTableRecord
  2
none
 70
    0
 62
    7
  6
CONTINUOUS
  0
LAYER
  5
B17
330
B14
100
AcDbSymbolTableRecord
100
AcDbLayerTableRecord
  2
Middle_plate_2p5mm
 70
    0
 62
    7
  6
CONTINUOUS
  0
ENDTAB
  0
TABLE
  2
STYLE
  5
70
330
0
100
AcDbSymbolTable
 70
     2
  0
STYLE
  5
71
330
70
100
AcDbSymbolTableRecord
100
AcDbTextStyleTableRecord
  2
STANDARD
 70
     0
 40
0.0
 41
1.0
 50
0.0
 71
     0
 42
2.5
  3
arial.ttf
  4

  0
STYLE
  5
72
330
70
100
AcDbSymbolTableRecord
100
AcDbTextStyleTableRecord
  2
ANNOTATIVE
 70
     0
 40
0.0
 41
1.0
 50
0.0
 71
     0
 42
2.5
  3
arial.ttf
  4

  0
ENDTAB
  0
TABLE
  2
VIEW
  5
73
330
0
100
AcDbSymbolTable
 70
     0
  0
ENDTAB
  0
TABLE
  2
UCS
  5
74
330
0
100
AcDbSymbolTable
 70
     0
  0
ENDTAB
  0
TABLE
  2
APPID
  5
75
330
0
100
AcDbSymbolTable
 70
     2
  0
APPID
  5
76
330
75
100
AcDbSymbolTableRecord
100
AcDbRegAppTableRecord
  2
ACAD
 70
     0
  0
APPID
  5
77
330
75
100
AcDbSymbolTableRecord
100
AcDbRegAppTableRecord
  2
ACADANNOTATIVE
 70
     0
  0
ENDTAB
  0
TABLE
  2
DIMSTYLE
  5
78
330
0
100
AcDbSymbolTable
 70
     2
  0
DIMSTYLE
105
79
330
78
100
AcDbSymbolTableRecord
100
AcDbDimStyleTableRecord
  2
STANDARD
 70
     0
  3

  4

  5

  6

  7

 40
0.0
 41
2.5
 42
0.625
 43
3.75
 44
1.25
 45
0.0
 46
0.0
 47
0.0
 48
0.0
140
2.5
141
2.5
142
0.0
143
0.03937007874016
144
1.0
145
0.0
146
1.0
147
0.625
 71
     0
 72
     0
 73
     0
 74
     0
 75
     0
 76
     0
 77
     1
 78
     8
170
     0
171
     3
172
     1
173
     0
174
     0
175
     0
176
     0
177
     0
178
     0
270
     2
271
     2
272
     2
273
     2
274
     3
340
71
275
     0
280
     0
281
     0
282
     0
283
     0
284
     8
285
     0
286
     0
287
     3
288
     0
  0
ENDTAB
  0
TABLE
  2
BLOCK_RECORD
  5
A01
330
0
100
AcDbSymbolTable
  70
5
  0
BLOCK_RECORD
  5
A02
330
A01
100
AcDbSymbolTableRecord
100
AcDbBlockTableRecord
  2
*MODEL_SPACE
  0
BLOCK_RECORD
  5
A03
330
A01
100
AcDbSymbolTableRecord
100
AcDbBlockTableRecord
  2
*PAPER_SPACE
  0
ENDTAB
  0
ENDSEC
  0
SECTION
  2
BLOCKS
  0
BLOCK
  5
A04
330
A02
100
AcDbEntity
  8
0
100
AcDbBlockBegin
  2
*MODEL_SPACE
 70
   0
 10
0
 20
0
 30
0
  3
*MODEL_SPACE
  1
 
  0
ENDBLK
  5
A05
330
A02
100
AcDbEntity
  8
0
100
AcDbBlockEnd
  0
BLOCK
  5
A06
330
A03
100
AcDbEntity
 67
1
  8
0
100
AcDbBlockBegin
  2
*PAPER_SPACE
 70
   0
 10
0
 20
0
 30
0
  3
*PAPER_SPACE
  1
 
  0
ENDBLK
  5
A07
330
A03
100
AcDbEntity
 67
    1
  8
0
100
AcDbBlockEnd
  0
ENDSEC
  0
SECTION
  2
ENTITIES
  0
LINE
  5
A08
330
A02
100
AcDbEntity
  8
Middle_plate_2p5mm
100
AcDbLine
 10
99.577578557
 20
69.052534108
 30
0.000000000
 11
100.589185326
 21
70.161965786
 31
0.000000000
  0
LINE
  5
A09
330
A02
100
AcDbEntity
  8
Middle_plate_2p5mm
100
AcDbLine
 10
100.589185326
 20
70.161965786
 30
0.000000000
 11
101.340939079
 21
71.461601581
 31
0.000000000
  0
LINE
  5
A0A
330
A02
100
AcDbEntity
  8
Middle_plate_2p5mm
100
AcDbLine
 10
101.340939079
 20
71.461601581
 30
0.000000000
 11
101.798256276
 21
72.891653288
 31
0.000000000
  0
LINE
  5
A0B
330
A02
100
AcDbEntity
  8
Middle_plate_2p5mm
100
AcDbLine
 10
101.798256276
 20
72.891653288
 30
0.000000000
 11
101.940098582
 21
74.386333075
 31
0.000000000
  0
LINE
  5
A0C
330
A02
100
AcDbEntity
  8
Middle_plate_2p5mm
100
AcDbLine
 10
101.940098582
 20
74.386333075
 30
0.000000000
 11
101.759940708
 21
75.876879970
 31
0.000000000
  0
LINE
  5
A0D
330
A02
100
AcDbEntity
  8
Middle_plate_2p5mm
100
AcDbLine
 10
101.759940708
 20
75.876879970
 30
0.000000000
 11
101.266070605
 21
77.294723130
 31
0.000000000
  0
LINE
  5
A0E
330
A02
100
AcDbEntity
  8
Middle_plate_2p5mm
100
AcDbLine
 10
101.266070605
 20
77.294723130
 30
0.000000000
 11
100.481208181
 21
78.574636361
 31
0.000000000
  0
LINE
  5
A0F
330
A02
100
AcDbEntity
  8
Middle_plate_2p5mm
100
AcDbLine
 10
99.577578557
 20
69.052534108
 30
0.000000000
 11
80.304284921
 21
52.010377799
 31
0.000000000
  0
LINE
  5
A10
330
A02
100
AcDbEntity
  8
Middle_plate_2p5mm
100
AcDbLine
 10
98.363544607
 20
81.317179029
 30
0.000000000
 11
100.481208181
 21
78.574636361
 31
0.000000000
  0
LINE
  5
A11
330
A02
100
AcDbEntity
  8
Middle_plate_2p5mm
100
AcDbLine
 10
98.363544607
 20
81.317179029
 30
0.000000000
 11
97.274636167
 21
82.441170440
 31
0.000000000
  0
LINE
  5
A12
330
A02
100
AcDbEntity
  8
Middle_plate_2p5mm
100
AcDbLine
 10
97.274636167
 20
82.441170440
 30
0.000000000
 11
95.963230232
 21
83.295156832
 31
0.000000000
  0
LINE
  5
A13
330
A02
100
AcDbEntity
  8
Middle_plate_2p5mm
100
AcDbLine
 10
95.963230232
 20
83.295156832
 30
0.000000000
 11
94.494872431
 21
83.836454948
 31
0.000000000
  0
LINE
  5
A14
330
A02
100
AcDbEntity
  8
Middle_plate_2p5mm
100
AcDbLine
 10
94.494872431
 20
83.836454948
 30
0.000000000
 11
92.942953034
 21
84.038010067
 31
0.000000000
  0
LINE
  5
A15
330
A02
100
AcDbEntity
  8
Middle_plate_2p5mm
100
AcDbLine
 10
92.942953034
 20
84.038010067
 30
0.000000000
 11
91.385038817
 21
83.889748222
 31
0.000000000
  0
LINE
  5
A16
330
A02
100
AcDbEntity
  8
Middle_plate_2p5mm
100
AcDbLine
 10
91.385038817
 20
83.889748222
 30
0.000000000
 11
89.898996186
 21
83.399079717
 31
0.000000000
  0
LINE
  5
A17
330
A02
100
AcDbEntity
  8
Middle_plate_2p5mm
100
AcDbLine
 10
62.124065682
 20
70.629616454
 30
0.000000000
 11
89.898996186
 21
83.399079717
 31
0.000000000
  0
LINE
  5
A18
330
A02
100
AcDbEntity
  8
Middle_plate_2p5mm
100
AcDbLine
 10
57.946900917
 20
69.715390748
 30
0.000000000
 11
59.378401466
 21
69.818380787
 31
0.000000000
  0
LINE
  5
A19
330
A02
100
AcDbEntity
  8
Middle_plate_2p5mm
100
AcDbLine
 10
59.378401466
 20
69.818380787
 30
0.000000000
 11
60.780415957
 21
70.125229513
 31
0.000000000
  0
LINE
  5
A1A
330
A02
100
AcDbEntity
  8
Middle_plate_2p5mm
100
AcDbLine
 10
60.780415957
 20
70.125229513
 30
0.000000000
 11
62.124065682
 21
70.629616454
 31
0.000000000
  0
LINE
  5
A1B
330
A02
100
AcDbEntity
  8
Middle_plate_2p5mm
100
AcDbLine
 10
48.993197665
 20
69.715390748
 30
0.000000000
 11
57.946900917
 21
69.715390748
 31
0.000000000
  0
LINE
  5
A1C
330
A02
100
AcDbEntity
  8
Middle_plate_2p5mm
100
AcDbLine
 10
44.816032899
 20
70.629616454
 30
0.000000000
 11
46.159682625
 21
70.125229513
 31
0.000000000
  0
LINE
  5
A1D
330
A02
100
AcDbEntity
  8
Middle_plate_2p5mm
100
AcDbLine
 10
46.159682625
 20
70.125229513
 30
0.000000000
 11
47.561697115
 21
69.818380787
 31
0.000000000
  0
LINE
  5
A1E
330
A02
100
AcDbEntity
  8
Middle_plate_2p5mm
100
AcDbLine
 10
47.561697115
 20
69.818380787
 30
0.000000000
 11
48.993197665
 21
69.715390748
 31
0.000000000
  0
LINE
  5
A1F
330
A02
100
AcDbEntity
  8
Middle_plate_2p5mm
100
AcDbLine
 10
17.041102396
 20
83.399079717
 30
0.000000000
 11
44.816032899
 21
70.629616454
 31
0.000000000
  0
LINE
  5
A20
330
A02
100
AcDbEntity
  8
Middle_plate_2p5mm
100
AcDbLine
 10
17.041102396
 20
83.399079717
 30
0.000000000
 11
15.555059765
 21
83.889748222
 31
0.000000000
  0
LINE
  5
A21
330
A02
100
AcDbEntity
  8
Middle_plate_2p5mm
100
AcDbLine
 10
15.555059765
 20
83.889748222
 30
0.000000000
 11
13.997145548
 21
84.038010067
 31
0.000000000
  0
LINE
  5
A22
330
A02
100
AcDbEntity
  8
Middle_plate_2p5mm
100
AcDbLine
 10
13.997145548
 20
84.038010067
 30
0.000000000
 11
12.445226150
 21
83.836454948
 31
0.000000000
  0
LINE
  5
A23
330
A02
100
AcDbEntity
  8
Middle_plate_2p5mm
100
AcDbLine
 10
12.445226150
 20
83.836454948
 30
0.000000000
 11
10.976868349
 21
83.295156832
 31
0.000000000
  0
LINE
  5
A24
330
A02
100
AcDbEntity
  8
Middle_plate_2p5mm
100
AcDbLine
 10
10.976868349
 20
83.295156832
 30
0.000000000
 11
9.665462415
 21
82.441170440
 31
0.000000000
  0
LINE
  5
A25
330
A02
100
AcDbEntity
  8
Middle_plate_2p5mm
100
AcDbLine
 10
9.665462415
 20
82.441170440
 30
0.000000000
 11
8.576553975
 21
81.317179029
 31
0.000000000
  0
LINE
  5
A26
330
A02
100
AcDbEntity
  8
Middle_plate_2p5mm
100
AcDbLine
 10
6.458890400
 20
78.574636361
 30
0.000000000
 11
8.576553975
 21
81.317179029
 31
0.000000000
  0
LINE
  5
A27
330
A02
100
AcDbEntity
  8
Middle_plate_2p5mm
100
AcDbLine
 10
6.458890400
 20
78.574636361
 30
0.000000000
 11
5.674027976
 21
77.294723130
 31
0.000000000
  0
LINE
  5
A28
330
A02
100
AcDbEntity
  8
Middle_plate_2p5mm
100
AcDbLine
 10
5.674027976
 20
77.294723130
 30
0.000000000
 11
5.180157873
 21
75.876879970
 31
0.000000000
  0
LINE
  5
A29
330
A02
100
AcDbEntity
  8
Middle_plate_2p5mm
100
AcDbLine
 10
5.180157873
 20
75.876879970
 30
0.000000000
 11
5.000000000
 21
74.386333075
 31
0.000000000
  0
LINE
  5
A2A
330
A02
100
AcDbEntity
  8
Middle_plate_2p5mm
100
AcDbLine
 10
5.000000000
 20
74.386333075
 30
0.000000000
 11
5.141842305
 21
72.891653288
 31
0.000000000
  0
LINE
  5
A2B
330
A02
100
AcDbEntity
  8
Middle_plate_2p5mm
100
AcDbLine
 10
5.141842305
 20
72.891653288
 30
0.000000000
 11
5.599159502
 21
71.461601581
 31
0.000000000
  0
LINE
  5
A2C
330
A02
100
AcDbEntity
  8
Middle_plate_2p5mm
100
AcDbLine
 10
5.599159502
 20
71.461601581
 30
0.000000000
 11
6.350913256
 21
70.161965786
 31
0.000000000
  0
LINE
  5
A2D
330
A02
100
AcDbEntity
  8
Middle_plate_2p5mm
100
AcDbLine
 10
6.350913256
 20
70.161965786
 30
0.000000000
 11
7.362520025
 21
69.052534108
 31
0.000000000
  0
LINE
  5
A2E
330
A02
100
AcDbEntity
  8
Middle_plate_2p5mm
100
AcDbLine
 10
26.635813660
 20
52.010377799
 30
0.000000000
 11
7.362520025
 21
69.052534108
 31
0.000000000
  0
LINE
  5
A2F
330
A02
100
AcDbEntity
  8
Middle_plate_2p5mm
100
AcDbLine
 10
26.635813660
 20
37.027632267
 30
0.000000000
 11
27.920224529
 21
38.398980541
 31
0.000000000
  0
LINE
  5
A30
330
A02
100
AcDbEntity
  8
Middle_plate_2p5mm
100
AcDbLine
 10
27.920224529
 20
38.398980541
 30
0.000000000
 11
28.925438968
 21
39.986384490
 31
0.000000000
  0
LINE
  5
A31
330
A02
100
AcDbEntity
  8
Middle_plate_2p5mm
100
AcDbLine
 10
28.925438968
 20
39.986384490
 30
0.000000000
 11
29.615969818
 21
41.733803877
 31
0.000000000
  0
LINE
  5
A32
330
A02
100
AcDbEntity
  8
Middle_plate_2p5mm
100
AcDbLine
 10
29.615969818
 20
41.733803877
 30
0.000000000
 11
29.967439218
 21
43.579549424
 31
0.000000000
  0
LINE
  5
A33
330
A02
100
AcDbEntity
  8
Middle_plate_2p5mm
100
AcDbLine
 10
29.967439218
 20
43.579549424
 30
0.000000000
 11
29.967439218
 21
45.458460643
 31
0.000000000
  0
LINE
  5
A34
330
A02
100
AcDbEntity
  8
Middle_plate_2p5mm
100
AcDbLine
 10
29.967439218
 20
45.458460643
 30
0.000000000
 11
29.615969818
 21
47.304206190
 31
0.000000000
  0
LINE
  5
A35
330
A02
100
AcDbEntity
  8
Middle_plate_2p5mm
100
AcDbLine
 10
29.615969818
 20
47.304206190
 30
0.000000000
 11
28.925438968
 21
49.051625576
 31
0.000000000
  0
LINE
  5
A36
330
A02
100
AcDbEntity
  8
Middle_plate_2p5mm
100
AcDbLine
 10
28.925438968
 20
49.051625576
 30
0.000000000
 11
27.920224529
 21
50.639029526
 31
0.000000000
  0
LINE
  5
A37
330
A02
100
AcDbEntity
  8
Middle_plate_2p5mm
100
AcDbLine
 10
27.920224529
 20
50.639029526
 30
0.000000000
 11
26.635813660
 21
52.010377799
 31
0.000000000
  0
LINE
  5
A38
330
A02
100
AcDbEntity
  8
Middle_plate_2p5mm
100
AcDbLine
 10
7.362520025
 20
19.985475959
 30
0.000000000
 11
26.635813660
 21
37.027632267
 31
0.000000000
  0
LINE
  5
A39
330
A02
100
AcDbEntity
  8
Middle_plate_2p5mm
100
AcDbLine
 10
7.362520025
 20
19.985475959
 30
0.000000000
 11
6.350913256
 21
18.876044281
 31
0.000000000
  0
LINE
  5
A3A
330
A02
100
AcDbEntity
  8
Middle_plate_2p5mm
100
AcDbLine
 10
6.350913256
 20
18.876044281
 30
0.000000000
 11
5.599159502
 21
17.576408486
 31
0.000000000
  0
LINE
  5
A3B
330
A02
100
AcDbEntity
  8
Middle_plate_2p5mm
100
AcDbLine
 10
5.599159502
 20
17.576408486
 30
0.000000000
 11
5.141842305
 21
16.146356779
 31
0.000000000
  0
LINE
  5
A3C
330
A02
100
AcDbEntity
  8
Middle_plate_2p5mm
100
AcDbLine
 10
5.141842305
 20
16.146356779
 30
0.000000000
 11
5.000000000
 21
14.651676992
 31
0.000000000
  0
LINE
  5
A3D
330
A02
100
AcDbEntity
  8
Middle_plate_2p5mm
100
AcDbLine
 10
5.000000000
 20
14.651676992
 30
0.000000000
 11
5.180157873
 21
13.161130097
 31
0.000000000
  0
LINE
  5
A3E
330
A02
100
AcDbEntity
  8
Middle_plate_2p5mm
100
AcDbLine
 10
5.180157873
 20
13.161130097
 30
0.000000000
 11
5.674027976
 21
11.743286937
 31
0.000000000
  0
LINE
  5
A3F
330
A02
100
AcDbEntity
  8
Middle_plate_2p5mm
100
AcDbLine
 10
5.674027976
 20
11.743286937
 30
0.000000000
 11
6.458890400
 21
10.463373705
 31
0.000000000
  0
LINE
  5
A40
330
A02
100
AcDbEntity
  8
Middle_plate_2p5mm
100
AcDbLine
 10
80.304284921
 20
52.010377799
 30
0.000000000
 11
79.019874053
 21
50.639029526
 31
0.000000000
  0
LINE
  5
A41
330
A02
100
AcDbEntity
  8
Middle_plate_2p5mm
100
AcDbLine
 10
79.019874053
 20
50.639029526
 30
0.000000000
 11
78.014659614
 21
49.051625576
 31
0.000000000
  0
LINE
  5
A42
330
A02
100
AcDbEntity
  8
Middle_plate_2p5mm
100
AcDbLine
 10
78.014659614
 20
49.051625576
 30
0.000000000
 11
77.324128764
 21
47.304206190
 31
0.000000000
  0
LINE
  5
A43
330
A02
100
AcDbEntity
  8
Middle_plate_2p5mm
100
AcDbLine
 10
77.324128764
 20
47.304206190
 30
0.000000000
 11
76.972659364
 21
45.458460643
 31
0.000000000
  0
LINE
  5
A44
330
A02
100
AcDbEntity
  8
Middle_plate_2p5mm
100
AcDbLine
 10
76.972659364
 20
45.458460643
 30
0.000000000
 11
76.972659364
 21
43.579549424
 31
0.000000000
  0
LINE
  5
A45
330
A02
100
AcDbEntity
  8
Middle_plate_2p5mm
100
AcDbLine
 10
76.972659364
 20
43.579549424
 30
0.000000000
 11
77.324128764
 21
41.733803877
 31
0.000000000
  0
LINE
  5
A46
330
A02
100
AcDbEntity
  8
Middle_plate_2p5mm
100
AcDbLine
 10
77.324128764
 20
41.733803877
 30
0.000000000
 11
78.014659614
 21
39.986384490
 31
0.000000000
  0
LINE
  5
A47
330
A02
100
AcDbEntity
  8
Middle_plate_2p5mm
100
AcDbLine
 10
78.014659614
 20
39.986384490
 30
0.000000000
 11
79.019874053
 21
38.398980541
 31
0.000000000
  0
LINE
  5
A48
330
A02
100
AcDbEntity
  8
Middle_plate_2p5mm
100
AcDbLine
 10
79.019874053
 20
38.398980541
 30
0.000000000
 11
80.304284921
 21
37.027632267
 31
0.000000000
  0
LINE
  5
A49
330
A02
100
AcDbEntity
  8
Middle_plate_2p5mm
100
AcDbLine
 10
80.304284921
 20
37.027632267
 30
0.000000000
 11
99.577578557
 21
19.985475959
 31
0.000000000
  0
LINE
  5
A4A
330
A02
100
AcDbEntity
  8
Middle_plate_2p5mm
100
AcDbLine
 10
100.481208181
 20
10.463373705
 30
0.000000000
 11
101.266070605
 21
11.743286937
 31
0.000000000
  0
LINE
  5
A4B
330
A02
100
AcDbEntity
  8
Middle_plate_2p5mm
100
AcDbLine
 10
101.266070605
 20
11.743286937
 30
0.000000000
 11
101.759940708
 21
13.161130097
 31
0.000000000
  0
LINE
  5
A4C
330
A02
100
AcDbEntity
  8
Middle_plate_2p5mm
100
AcDbLine
 10
101.759940708
 20
13.161130097
 30
0.000000000
 11
101.940098582
 21
14.651676992
 31
0.000000000
  0
LINE
  5
A4D
330
A02
100
AcDbEntity
  8
Middle_plate_2p5mm
100
AcDbLine
 10
101.940098582
 20
14.651676992
 30
0.000000000
 11
101.798256276
 21
16.146356779
 31
0.000000000
  0
LINE
  5
A4E
330
A02
100
AcDbEntity
  8
Middle_plate_2p5mm
100
AcDbLine
 10
101.798256276
 20
16.146356779
 30
0.000000000
 11
101.340939079
 21
17.576408486
 31
0.000000000
  0
LINE
  5
A4F
330
A02
100
AcDbEntity
  8
Middle_plate_2p5mm
100
AcDbLine
 10
101.340939079
 20
17.576408486
 30
0.000000000
 11
100.589185326
 21
18.876044281
 31
0.000000000
  0
LINE
  5
A50
330
A02
100
AcDbEntity
  8
Middle_plate_2p5mm
100
AcDbLine
 10
100.589185326
 20
18.876044281
 30
0.000000000
 11
99.577578557
 21
19.985475959
 31
0.000000000
  0
LINE
  5
A51
330
A02
100
AcDbEntity
  8
Middle_plate_2p5mm
100
AcDbLine
 10
100.481208181
 20
10.463373705
 30
0.000000000
 11
98.363544607
 21
7.720831038
 31
0.000000000
  0
LINE
  5
A52
330
A02
100
AcDbEntity
  8
Middle_plate_2p5mm
100
AcDbLine
 10
89.898996186
 20
5.638930350
 30
0.000000000
 11
91.385038817
 21
5.148261845
 31
0.000000000
  0
LINE
  5
A53
330
A02
100
AcDbEntity
  8
Middle_plate_2p5mm
100
AcDbLine
 10
91.385038817
 20
5.148261845
 30
0.000000000
 11
92.942953034
 21
5.000000000
 31
0.000000000
  0
LINE
  5
A54
330
A02
100
AcDbEntity
  8
Middle_plate_2p5mm
100
AcDbLine
 10
92.942953034
 20
5.000000000
 30
0.000000000
 11
94.494872431
 21
5.201555118
 31
0.000000000
  0
LINE
  5
A55
330
A02
100
AcDbEntity
  8
Middle_plate_2p5mm
100
AcDbLine
 10
94.494872431
 20
5.201555118
 30
0.000000000
 11
95.963230232
 21
5.742853235
 31
0.000000000
  0
LINE
  5
A56
330
A02
100
AcDbEntity
  8
Middle_plate_2p5mm
100
AcDbLine
 10
95.963230232
 20
5.742853235
 30
0.000000000
 11
97.274636167
 21
6.596839627
 31
0.000000000
  0
LINE
  5
A57
330
A02
100
AcDbEntity
  8
Middle_plate_2p5mm
100
AcDbLine
 10
97.274636167
 20
6.596839627
 30
0.000000000
 11
98.363544607
 21
7.720831038
 31
0.000000000
  0
LINE
  5
A58
330
A02
100
AcDbEntity
  8
Middle_plate_2p5mm
100
AcDbLine
 10
89.898996186
 20
5.638930350
 30
0.000000000
 11
62.124065682
 21
18.408393613
 31
0.000000000
  0
LINE
  5
A59
330
A02
100
AcDbEntity
  8
Middle_plate_2p5mm
100
AcDbLine
 10
62.124065682
 20
18.408393613
 30
0.000000000
 11
60.780415957
 21
18.912780554
 31
0.000000000
  0
LINE
  5
A5A
330
A02
100
AcDbEntity
  8
Middle_plate_2p5mm
100
AcDbLine
 10
60.780415957
 20
18.912780554
 30
0.000000000
 11
59.378401466
 21
19.219629280
 31
0.000000000
  0
LINE
  5
A5B
330
A02
100
AcDbEntity
  8
Middle_plate_2p5mm
100
AcDbLine
 10
59.378401466
 20
19.219629280
 30
0.000000000
 11
57.946900917
 21
19.322619319
 31
0.000000000
  0
LINE
  5
A5C
330
A02
100
AcDbEntity
  8
Middle_plate_2p5mm
100
AcDbLine
 10
57.946900917
 20
19.322619319
 30
0.000000000
 11
48.993197665
 21
19.322619319
 31
0.000000000
  0
LINE
  5
A5D
330
A02
100
AcDbEntity
  8
Middle_plate_2p5mm
100
AcDbLine
 10
48.993197665
 20
19.322619319
 30
0.000000000
 11
47.561697115
 21
19.219629280
 31
0.000000000
  0
LINE
  5
A5E
330
A02
100
AcDbEntity
  8
Middle_plate_2p5mm
100
AcDbLine
 10
47.561697115
 20
19.219629280
 30
0.000000000
 11
46.159682625
 21
18.912780554
 31
0.000000000
  0
LINE
  5
A5F
330
A02
100
AcDbEntity
  8
Middle_plate_2p5mm
100
AcDbLine
 10
46.159682625
 20
18.912780554
 30
0.000000000
 11
44.816032899
 21
18.408393613
 31
0.000000000
  0
LINE
  5
A60
330
A02
100
AcDbEntity
  8
Middle_plate_2p5mm
100
AcDbLine
 10
44.816032899
 20
18.408393613
 30
0.000000000
 11
17.041102396
 21
5.638930350
 31
0.000000000
  0
LINE
  5
A61
330
A02
100
AcDbEntity
  8
Middle_plate_2p5mm
100
AcDbLine
 10
8.576553975
 20
7.720831038
 30
0.000000000
 11
9.665462415
 21
6.596839627
 31
0.000000000
  0
LINE
  5
A62
330
A02
100
AcDbEntity
  8
Middle_plate_2p5mm
100
AcDbLine
 10
9.665462415
 20
6.596839627
 30
0.000000000
 11
10.976868349
 21
5.742853235
 31
0.000000000
  0
LINE
  5
A63
330
A02
100
AcDbEntity
  8
Middle_plate_2p5mm
100
AcDbLine
 10
10.976868349
 20
5.742853235
 30
0.000000000
 11
12.445226150
 21
5.201555118
 31
0.000000000
  0
LINE
  5
A64
330
A02
100
AcDbEntity
  8
Middle_plate_2p5mm
100
AcDbLine
 10
12.445226150
 20
5.201555118
 30
0.000000000
 11
13.997145548
 21
5.000000000
 31
0.000000000
  0
LINE
  5
A65
330
A02
100
AcDbEntity
  8
Middle_plate_2p5mm
100
AcDbLine
 10
13.997145548
 20
5.000000000
 30
0.000000000
 11
15.555059765
 21
5.148261845
 31
0.000000000
  0
LINE
  5
A66
330
A02
100
AcDbEntity
  8
Middle_plate_2p5mm
100
AcDbLine
 10
15.555059765
 20
5.148261845
 30
0.000000000
 11
17.041102396
 21
5.638930350
 31
0.000000000
  0
LINE
  5
A67
330
A02
100
AcDbEntity
  8
Middle_plate_2p5mm
100
AcDbLine
 10
8.576553975
 20
7.720831038
 30
0.000000000
 11
6.458890400
 21
10.463373705
 31
0.000000000
  0
LINE
  5
A68
330
A02
100
AcDbEntity
  8
Middle_plate_2p5mm
100
AcDbLine
 10
35.970049291
 20
59.769005033
 30
0.000000000
 11
36.164572011
 21
60.684162480
 31
0.000000000
  0
LINE
  5
A69
330
A02
100
AcDbEntity
  8
Middle_plate_2p5mm
100
AcDbLine
 10
36.164572011
 20
60.684162480
 30
0.000000000
 11
36.714505427
 21
61.441080891
 31
0.000000000
  0
LINE
  5
A6A
330
A02
100
AcDbEntity
  8
Middle_plate_2p5mm
100
AcDbLine
 10
36.714505427
 20
61.441080891
 30
0.000000000
 11
37.524761053
 21
61.908882195
 31
0.000000000
  0
LINE
  5
A6B
330
A02
100
AcDbEntity
  8
Middle_plate_2p5mm
100
AcDbLine
 10
37.524761053
 20
61.908882195
 30
0.000000000
 11
38.455238333
 21
62.006679298
 31
0.000000000
  0
LINE
  5
A6C
330
A02
100
AcDbEntity
  8
Middle_plate_2p5mm
100
AcDbLine
 10
38.455238333
 20
62.006679298
 30
0.000000000
 11
39.345049291
 21
61.717562192
 31
0.000000000
  0
LINE
  5
A6D
330
A02
100
AcDbEntity
  8
Middle_plate_2p5mm
100
AcDbLine
 10
39.345049291
 20
61.717562192
 30
0.000000000
 11
40.040337528
 21
61.091521851
 31
0.000000000
  0
LINE
  5
A6E
330
A02
100
AcDbEntity
  8
Middle_plate_2p5mm
100
AcDbLine
 10
40.040337528
 20
61.091521851
 30
0.000000000
 11
40.420881392
 21
60.236806338
 31
0.000000000
  0
LINE
  5
A6F
330
A02
100
AcDbEntity
  8
Middle_plate_2p5mm
100
AcDbLine
 10
40.420881392
 20
60.236806338
 30
0.000000000
 11
40.420881392
 21
59.301203729
 31
0.000000000
  0
LINE
  5
A70
330
A02
100
AcDbEntity
  8
Middle_plate_2p5mm
100
AcDbLine
 10
40.420881392
 20
59.301203729
 30
0.000000000
 11
40.040337528
 21
58.446488216
 31
0.000000000
  0
LINE
  5
A71
330
A02
100
AcDbEntity
  8
Middle_plate_2p5mm
100
AcDbLine
 10
40.040337528
 20
58.446488216
 30
0.000000000
 11
39.345049291
 21
57.820447875
 31
0.000000000
  0
LINE
  5
A72
330
A02
100
AcDbEntity
  8
Middle_plate_2p5mm
100
AcDbLine
 10
39.345049291
 20
57.820447875
 30
0.000000000
 11
38.455238333
 21
57.531330769
 31
0.000000000
  0
LINE
  5
A73
330
A02
100
AcDbEntity
  8
Middle_plate_2p5mm
100
AcDbLine
 10
38.455238333
 20
57.531330769
 30
0.000000000
 11
37.524761053
 21
57.629127872
 31
0.000000000
  0
LINE
  5
A74
330
A02
100
AcDbEntity
  8
Middle_plate_2p5mm
100
AcDbLine
 10
37.524761053
 20
57.629127872
 30
0.000000000
 11
36.714505427
 21
58.096929176
 31
0.000000000
  0
LINE
  5
A75
330
A02
100
AcDbEntity
  8
Middle_plate_2p5mm
100
AcDbLine
 10
36.714505427
 20
58.096929176
 30
0.000000000
 11
36.164572011
 21
58.853847586
 31
0.000000000
  0
LINE
  5
A76
330
A02
100
AcDbEntity
  8
Middle_plate_2p5mm
100
AcDbLine
 10
36.164572011
 20
58.853847586
 30
0.000000000
 11
35.970049291
 21
59.769005033
 31
0.000000000
  0
LINE
  5
A77
330
A02
100
AcDbEntity
  8
Middle_plate_2p5mm
100
AcDbLine
 10
41.220049291
 20
54.379542797
 30
0.000000000
 11
41.414572011
 21
55.294700244
 31
0.000000000
  0
LINE
  5
A78
330
A02
100
AcDbEntity
  8
Middle_plate_2p5mm
100
AcDbLine
 10
41.414572011
 20
55.294700244
 30
0.000000000
 11
41.964505427
 21
56.051618654
 31
0.000000000
  0
LINE
  5
A79
330
A02
100
AcDbEntity
  8
Middle_plate_2p5mm
100
AcDbLine
 10
41.964505427
 20
56.051618654
 30
0.000000000
 11
42.774761053
 21
56.519419958
 31
0.000000000
  0
LINE
  5
A7A
330
A02
100
AcDbEntity
  8
Middle_plate_2p5mm
100
AcDbLine
 10
42.774761053
 20
56.519419958
 30
0.000000000
 11
43.705238333
 21
56.617217061
 31
0.000000000
  0
LINE
  5
A7B
330
A02
100
AcDbEntity
  8
Middle_plate_2p5mm
100
AcDbLine
 10
43.705238333
 20
56.617217061
 30
0.000000000
 11
44.595049291
 21
56.328099955
 31
0.000000000
  0
LINE
  5
A7C
330
A02
100
AcDbEntity
  8
Middle_plate_2p5mm
100
AcDbLine
 10
44.595049291
 20
56.328099955
 30
0.000000000
 11
45.290337528
 21
55.702059614
 31
0.000000000
  0
LINE
  5
A7D
330
A02
100
AcDbEntity
  8
Middle_plate_2p5mm
100
AcDbLine
 10
45.290337528
 20
55.702059614
 30
0.000000000
 11
45.670881392
 21
54.847344101
 31
0.000000000
  0
LINE
  5
A7E
330
A02
100
AcDbEntity
  8
Middle_plate_2p5mm
100
AcDbLine
 10
45.670881392
 20
54.847344101
 30
0.000000000
 11
45.670881392
 21
53.911741492
 31
0.000000000
  0
LINE
  5
A7F
330
A02
100
AcDbEntity
  8
Middle_plate_2p5mm
100
AcDbLine
 10
45.670881392
 20
53.911741492
 30
0.000000000
 11
45.290337528
 21
53.057025979
 31
0.000000000
  0
LINE
  5
A80
330
A02
100
AcDbEntity
  8
Middle_plate_2p5mm
100
AcDbLine
 10
45.290337528
 20
53.057025979
 30
0.000000000
 11
44.595049291
 21
52.430985638
 31
0.000000000
  0
LINE
  5
A81
330
A02
100
AcDbEntity
  8
Middle_plate_2p5mm
100
AcDbLine
 10
44.595049291
 20
52.430985638
 30
0.000000000
 11
43.705238333
 21
52.141868532
 31
0.000000000
  0
LINE
  5
A82
330
A02
100
AcDbEntity
  8
Middle_plate_2p5mm
100
AcDbLine
 10
43.705238333
 20
52.141868532
 30
0.000000000
 11
42.774761053
 21
52.239665635
 31
0.000000000
  0
LINE
  5
A83
330
A02
100
AcDbEntity
  8
Middle_plate_2p5mm
100
AcDbLine
 10
42.774761053
 20
52.239665635
 30
0.000000000
 11
41.964505427
 21
52.707466939
 31
0.000000000
  0
LINE
  5
A84
330
A02
100
AcDbEntity
  8
Middle_plate_2p5mm
100
AcDbLine
 10
41.964505427
 20
52.707466939
 30
0.000000000
 11
41.414572011
 21
53.464385350
 31
0.000000000
  0
LINE
  5
A85
330
A02
100
AcDbEntity
  8
Middle_plate_2p5mm
100
AcDbLine
 10
41.414572011
 20
53.464385350
 30
0.000000000
 11
41.220049291
 21
54.379542797
 31
0.000000000
  0
LINE
  5
A86
330
A02
100
AcDbEntity
  8
Middle_plate_2p5mm
100
AcDbLine
 10
66.470049291
 20
59.769005033
 30
0.000000000
 11
66.664572011
 21
60.684162480
 31
0.000000000
  0
LINE
  5
A87
330
A02
100
AcDbEntity
  8
Middle_plate_2p5mm
100
AcDbLine
 10
66.664572011
 20
60.684162480
 30
0.000000000
 11
67.214505427
 21
61.441080891
 31
0.000000000
  0
LINE
  5
A88
330
A02
100
AcDbEntity
  8
Middle_plate_2p5mm
100
AcDbLine
 10
67.214505427
 20
61.441080891
 30
0.000000000
 11
68.024761053
 21
61.908882195
 31
0.000000000
  0
LINE
  5
A89
330
A02
100
AcDbEntity
  8
Middle_plate_2p5mm
100
AcDbLine
 10
68.024761053
 20
61.908882195
 30
0.000000000
 11
68.955238333
 21
62.006679298
 31
0.000000000
  0
LINE
  5
A8A
330
A02
100
AcDbEntity
  8
Middle_plate_2p5mm
100
AcDbLine
 10
68.955238333
 20
62.006679298
 30
0.000000000
 11
69.845049291
 21
61.717562192
 31
0.000000000
  0
LINE
  5
A8B
330
A02
100
AcDbEntity
  8
Middle_plate_2p5mm
100
AcDbLine
 10
69.845049291
 20
61.717562192
 30
0.000000000
 11
70.540337528
 21
61.091521851
 31
0.000000000
  0
LINE
  5
A8C
330
A02
100
AcDbEntity
  8
Middle_plate_2p5mm
100
AcDbLine
 10
70.540337528
 20
61.091521851
 30
0.000000000
 11
70.920881392
 21
60.236806338
 31
0.000000000
  0
LINE
  5
A8D
330
A02
100
AcDbEntity
  8
Middle_plate_2p5mm
100
AcDbLine
 10
70.920881392
 20
60.236806338
 30
0.000000000
 11
70.920881392
 21
59.301203729
 31
0.000000000
  0
LINE
  5
A8E
330
A02
100
AcDbEntity
  8
Middle_plate_2p5mm
100
AcDbLine
 10
70.920881392
 20
59.301203729
 30
0.000000000
 11
70.540337528
 21
58.446488216
 31
0.000000000
  0
LINE
  5
A8F
330
A02
100
AcDbEntity
  8
Middle_plate_2p5mm
100
AcDbLine
 10
70.540337528
 20
58.446488216
 30
0.000000000
 11
69.845049291
 21
57.820447875
 31
0.000000000
  0
LINE
  5
A90
330
A02
100
AcDbEntity
  8
Middle_plate_2p5mm
100
AcDbLine
 10
69.845049291
 20
57.820447875
 30
0.000000000
 11
68.955238333
 21
57.531330769
 31
0.000000000
  0
LINE
  5
A91
330
A02
100
AcDbEntity
  8
Middle_plate_2p5mm
100
AcDbLine
 10
68.955238333
 20
57.531330769
 30
0.000000000
 11
68.024761053
 21
57.629127872
 31
0.000000000
  0
LINE
  5
A92
330
A02
100
AcDbEntity
  8
Middle_plate_2p5mm
100
AcDbLine
 10
68.024761053
 20
57.629127872
 30
0.000000000
 11
67.214505427
 21
58.096929176
 31
0.000000000
  0
LINE
  5
A93
330
A02
100
AcDbEntity
  8
Middle_plate_2p5mm
100
AcDbLine
 10
67.214505427
 20
58.096929176
 30
0.000000000
 11
66.664572011
 21
58.853847586
 31
0.000000000
  0
LINE
  5
A94
330
A02
100
AcDbEntity
  8
Middle_plate_2p5mm
100
AcDbLine
 10
66.664572011
 20
58.853847586
 30
0.000000000
 11
66.470049291
 21
59.769005033
 31
0.000000000
  0
LINE
  5
A95
330
A02
100
AcDbEntity
  8
Middle_plate_2p5mm
100
AcDbLine
 10
61.220049291
 20
54.379542797
 30
0.000000000
 11
61.414572011
 21
55.294700244
 31
0.000000000
  0
LINE
  5
A96
330
A02
100
AcDbEntity
  8
Middle_plate_2p5mm
100
AcDbLine
 10
61.414572011
 20
55.294700244
 30
0.000000000
 11
61.964505427
 21
56.051618654
 31
0.000000000
  0
LINE
  5
A97
330
A02
100
AcDbEntity
  8
Middle_plate_2p5mm
100
AcDbLine
 10
61.964505427
 20
56.051618654
 30
0.000000000
 11
62.774761053
 21
56.519419958
 31
0.000000000
  0
LINE
  5
A98
330
A02
100
AcDbEntity
  8
Middle_plate_2p5mm
100
AcDbLine
 10
62.774761053
 20
56.519419958
 30
0.000000000
 11
63.705238333
 21
56.617217061
 31
0.000000000
  0
LINE
  5
A99
330
A02
100
AcDbEntity
  8
Middle_plate_2p5mm
100
AcDbLine
 10
63.705238333
 20
56.617217061
 30
0.000000000
 11
64.595049291
 21
56.328099955
 31
0.000000000
  0
LINE
  5
A9A
330
A02
100
AcDbEntity
  8
Middle_plate_2p5mm
100
AcDbLine
 10
64.595049291
 20
56.328099955
 30
0.000000000
 11
65.290337528
 21
55.702059614
 31
0.000000000
  0
LINE
  5
A9B
330
A02
100
AcDbEntity
  8
Middle_plate_2p5mm
100
AcDbLine
 10
65.290337528
 20
55.702059614
 30
0.000000000
 11
65.670881392
 21
54.847344101
 31
0.000000000
  0
LINE
  5
A9C
330
A02
100
AcDbEntity
  8
Middle_plate_2p5mm
100
AcDbLine
 10
65.670881392
 20
54.847344101
 30
0.000000000
 11
65.670881392
 21
53.911741492
 31
0.000000000
  0
LINE
  5
A9D
330
A02
100
AcDbEntity
  8
Middle_plate_2p5mm
100
AcDbLine
 10
65.670881392
 20
53.911741492
 30
0.000000000
 11
65.290337528
 21
53.057025979
 31
0.000000000
  0
LINE
  5
A9E
330
A02
100
AcDbEntity
  8
Middle_plate_2p5mm
100
AcDbLine
 10
65.290337528
 20
53.057025979
 30
0.000000000
 11
64.595049291
 21
52.430985638
 31
0.000000000
  0
LINE
  5
A9F
330
A02
100
AcDbEntity
  8
Middle_plate_2p5mm
100
AcDbLine
 10
64.595049291
 20
52.430985638
 30
0.000000000
 11
63.705238333
 21
52.141868532
 31
0.000000000
  0
LINE
  5
AA0
330
A02
100
AcDbEntity
  8
Middle_plate_2p5mm
100
AcDbLine
 10
63.705238333
 20
52.141868532
 30
0.000000000
 11
62.774761053
 21
52.239665635
 31
0.000000000
  0
LINE
  5
AA1
330
A02
100
AcDbEntity
  8
Middle_plate_2p5mm
100
AcDbLine
 10
62.774761053
 20
52.239665635
 30
0.000000000
 11
61.964505427
 21
52.707466939
 31
0.000000000
  0
LINE
  5
AA2
330
A02
100
AcDbEntity
  8
Middle_plate_2p5mm
100
AcDbLine
 10
61.964505427
 20
52.707466939
 30
0.000000000
 11
61.414572011
 21
53.464385350
 31
0.000000000
  0
LINE
  5
AA3
330
A02
100
AcDbEntity
  8
Middle_plate_2p5mm
100
AcDbLine
 10
61.414572011
 20
53.464385350
 30
0.000000000
 11
61.220049291
 21
54.379542797
 31
0.000000000
  0
LINE
  5
AA4
330
A02
100
AcDbEntity
  8
Middle_plate_2p5mm
100
AcDbLine
 10
35.970049291
 20
29.269005033
 30
0.000000000
 11
36.164572011
 21
30.184162480
 31
0.000000000
  0
LINE
  5
AA5
330
A02
100
AcDbEntity
  8
Middle_plate_2p5mm
100
AcDbLine
 10
36.164572011
 20
30.184162480
 30
0.000000000
 11
36.714505427
 21
30.941080891
 31
0.000000000
  0
LINE
  5
AA6
330
A02
100
AcDbEntity
  8
Middle_plate_2p5mm
100
AcDbLine
 10
36.714505427
 20
30.941080891
 30
0.000000000
 11
37.524761053
 21
31.408882195
 31
0.000000000
  0
LINE
  5
AA7
330
A02
100
AcDbEntity
  8
Middle_plate_2p5mm
100
AcDbLine
 10
37.524761053
 20
31.408882195
 30
0.000000000
 11
38.455238333
 21
31.506679298
 31
0.000000000
  0
LINE
  5
AA8
330
A02
100
AcDbEntity
  8
Middle_plate_2p5mm
100
AcDbLine
 10
38.455238333
 20
31.506679298
 30
0.000000000
 11
39.345049291
 21
31.217562192
 31
0.000000000
  0
LINE
  5
AA9
330
A02
100
AcDbEntity
  8
Middle_plate_2p5mm
100
AcDbLine
 10
39.345049291
 20
31.217562192
 30
0.000000000
 11
40.040337528
 21
30.591521851
 31
0.000000000
  0
LINE
  5
AAA
330
A02
100
AcDbEntity
  8
Middle_plate_2p5mm
100
AcDbLine
 10
40.040337528
 20
30.591521851
 30
0.000000000
 11
40.420881392
 21
29.736806338
 31
0.000000000
  0
LINE
  5
AAB
330
A02
100
AcDbEntity
  8
Middle_plate_2p5mm
100
AcDbLine
 10
40.420881392
 20
29.736806338
 30
0.000000000
 11
40.420881392
 21
28.801203729
 31
0.000000000
  0
LINE
  5
AAC
330
A02
100
AcDbEntity
  8
Middle_plate_2p5mm
100
AcDbLine
 10
40.420881392
 20
28.801203729
 30
0.000000000
 11
40.040337528
 21
27.946488216
 31
0.000000000
  0
LINE
  5
AAD
330
A02
100
AcDbEntity
  8
Middle_plate_2p5mm
100
AcDbLine
 10
40.040337528
 20
27.946488216
 30
0.000000000
 11
39.345049291
 21
27.320447875
 31
0.000000000
  0
LINE
  5
AAE
330
A02
100
AcDbEntity
  8
Middle_plate_2p5mm
100
AcDbLine
 10
39.345049291
 20
27.320447875
 30
0.000000000
 11
38.455238333
 21
27.031330769
 31
0.000000000
  0
LINE
  5
AAF
330
A02
100
AcDbEntity
  8
Middle_plate_2p5mm
100
AcDbLine
 10
38.455238333
 20
27.031330769
 30
0.000000000
 11
37.524761053
 21
27.129127872
 31
0.000000000
  0
LINE
  5
AB0
330
A02
100
AcDbEntity
  8
Middle_plate_2p5mm
100
AcDbLine
 10
37.524761053
 20
27.129127872
 30
0.000000000
 11
36.714505427
 21
27.596929176
 31
0.000000000
  0
LINE
  5
AB1
330
A02
100
AcDbEntity
  8
Middle_plate_2p5mm
100
AcDbLine
 10
36.714505427
 20
27.596929176
 30
0.000000000
 11
36.164572011
 21
28.353847586
 31
0.000000000
  0
LINE
  5
AB2
330
A02
100
AcDbEntity
  8
Middle_plate_2p5mm
100
AcDbLine
 10
36.164572011
 20
28.353847586
 30
0.000000000
 11
35.970049291
 21
29.269005033
 31
0.000000000
  0
LINE
  5
AB3
330
A02
100
AcDbEntity
  8
Middle_plate_2p5mm
100
AcDbLine
 10
41.220049291
 20
34.379542797
 30
0.000000000
 11
41.414572011
 21
35.294700244
 31
0.000000000
  0
LINE
  5
AB4
330
A02
100
AcDbEntity
  8
Middle_plate_2p5mm
100
AcDbLine
 10
41.414572011
 20
35.294700244
 30
0.000000000
 11
41.964505427
 21
36.051618654
 31
0.000000000
  0
LINE
  5
AB5
330
A02
100
AcDbEntity
  8
Middle_plate_2p5mm
100
AcDbLine
 10
41.964505427
 20
36.051618654
 30
0.000000000
 11
42.774761053
 21
36.519419958
 31
0.000000000
  0
LINE
  5
AB6
330
A02
100
AcDbEntity
  8
Middle_plate_2p5mm
100
AcDbLine
 10
42.774761053
 20
36.519419958
 30
0.000000000
 11
43.705238333
 21
36.617217061
 31
0.000000000
  0
LINE
  5
AB7
330
A02
100
AcDbEntity
  8
Middle_plate_2p5mm
100
AcDbLine
 10
43.705238333
 20
36.617217061
 30
0.000000000
 11
44.595049291
 21
36.328099955
 31
0.000000000
  0
LINE
  5
AB8
330
A02
100
AcDbEntity
  8
Middle_plate_2p5mm
100
AcDbLine
 10
44.595049291
 20
36.328099955
 30
0.000000000
 11
45.290337528
 21
35.702059614
 31
0.000000000
  0
LINE
  5
AB9
330
A02
100
AcDbEntity
  8
Middle_plate_2p5mm
100
AcDbLine
 10
45.290337528
 20
35.702059614
 30
0.000000000
 11
45.670881392
 21
34.847344101
 31
0.000000000
  0
LINE
  5
ABA
330
A02
100
AcDbEntity
  8
Middle_plate_2p5mm
100
AcDbLine
 10
45.670881392
 20
34.847344101
 30
0.000000000
 11
45.670881392
 21
33.911741492
 31
0.000000000
  0
LINE
  5
ABB
330
A02
100
AcDbEntity
  8
Middle_plate_2p5mm
100
AcDbLine
 10
45.670881392
 20
33.911741492
 30
0.000000000
 11
45.290337528
 21
33.057025979
 31
0.000000000
  0
LINE
  5
ABC
330
A02
100
AcDbEntity
  8
Middle_plate_2p5mm
100
AcDbLine
 10
45.290337528
 20
33.057025979
 30
0.000000000
 11
44.595049291
 21
32.430985638
 31
0.000000000
  0
LINE
  5
ABD
330
A02
100
AcDbEntity
  8
Middle_plate_2p5mm
100
AcDbLine
 10
44.595049291
 20
32.430985638
 30
0.000000000
 11
43.705238333
 21
32.141868532
 31
0.000000000
  0
LINE
  5
ABE
330
A02
100
AcDbEntity
  8
Middle_plate_2p5mm
100
AcDbLine
 10
43.705238333
 20
32.141868532
 30
0.000000000
 11
42.774761053
 21
32.239665635
 31
0.000000000
  0
LINE
  5
ABF
330
A02
100
AcDbEntity
  8
Middle_plate_2p5mm
100
AcDbLine
 10
42.774761053
 20
32.239665635
 30
0.000000000
 11
41.964505427
 21
32.707466939
 31
0.000000000
  0
LINE
  5
AC0
330
A02
100
AcDbEntity
  8
Middle_plate_2p5mm
100
AcDbLine
 10
41.964505427
 20
32.707466939
 30
0.000000000
 11
41.414572011
 21
33.464385350
 31
0.000000000
  0
LINE
  5
AC1
330
A02
100
AcDbEntity
  8
Middle_plate_2p5mm
100
AcDbLine
 10
41.414572011
 20
33.464385350
 30
0.000000000
 11
41.220049291
 21
34.379542797
 31
0.000000000
  0
LINE
  5
AC2
330
A02
100
AcDbEntity
  8
Middle_plate_2p5mm
100
AcDbLine
 10
61.220049291
 20
34.379542797
 30
0.000000000
 11
61.414572011
 21
35.294700244
 31
0.000000000
  0
LINE
  5
AC3
330
A02
100
AcDbEntity
  8
Middle_plate_2p5mm
100
AcDbLine
 10
61.414572011
 20
35.294700244
 30
0.000000000
 11
61.964505427
 21
36.051618654
 31
0.000000000
  0
LINE
  5
AC4
330
A02
100
AcDbEntity
  8
Middle_plate_2p5mm
100
AcDbLine
 10
61.964505427
 20
36.051618654
 30
0.000000000
 11
62.774761053
 21
36.519419958
 31
0.000000000
  0
LINE
  5
AC5
330
A02
100
AcDbEntity
  8
Middle_plate_2p5mm
100
AcDbLine
 10
62.774761053
 20
36.519419958
 30
0.000000000
 11
63.705238333
 21
36.617217061
 31
0.000000000
  0
LINE
  5
AC6
330
A02
100
AcDbEntity
  8
Middle_plate_2p5mm
100
AcDbLine
 10
63.705238333
 20
36.617217061
 30
0.000000000
 11
64.595049291
 21
36.328099955
 31
0.000000000
  0
LINE
  5
AC7
330
A02
100
AcDbEntity
  8
Middle_plate_2p5mm
100
AcDbLine
 10
64.595049291
 20
36.328099955
 30
0.000000000
 11
65.290337528
 21
35.702059614
 31
0.000000000
  0
LINE
  5
AC8
330
A02
100
AcDbEntity
  8
Middle_plate_2p5mm
100
AcDbLine
 10
65.290337528
 20
35.702059614
 30
0.000000000
 11
65.670881392
 21
34.847344101
 31
0.000000000
  0
LINE
  5
AC9
330
A02
100
AcDbEntity
  8
Middle_plate_2p5mm
100
AcDbLine
 10
65.670881392
 20
34.847344101
 30
0.000000000
 11
65.670881392
 21
33.911741492
 31
0.000000000
  0
LINE
  5
ACA
330
A02
100
AcDbEntity
  8
Middle_plate_2p5mm
100
AcDbLine
 10
65.670881392
 20
33.911741492
 30
0.000000000
 11
65.290337528
 21
33.057025979
 31
0.000000000
  0
LINE
  5
ACB
330
A02
100
AcDbEntity
  8
Middle_plate_2p5mm
100
AcDbLine
 10
65.290337528
 20
33.057025979
 30
0.000000000
 11
64.595049291
 21
32.430985638
 31
0.000000000
  0
LINE
  5
ACC
330
A02
100
AcDbEntity
  8
Middle_plate_2p5mm
100
AcDbLine
 10
64.595049291
 20
32.430985638
 30
0.000000000
 11
63.705238333
 21
32.141868532
 31
0.000000000
  0
LINE
  5
ACD
330
A02
100
AcDbEntity
  8
Middle_plate_2p5mm
100
AcDbLine
 10
63.705238333
 20
32.141868532
 30
0.000000000
 11
62.774761053
 21
32.239665635
 31
0.000000000
  0
LINE
  5
ACE
330
A02
100
AcDbEntity
  8
Middle_plate_2p5mm
100
AcDbLine
 10
62.774761053
 20
32.239665635
 30
0.000000000
 11
61.964505427
 21
32.707466939
 31
0.000000000
  0
LINE
  5
ACF
330
A02
100
AcDbEntity
  8
Middle_plate_2p5mm
100
AcDbLine
 10
61.964505427
 20
32.707466939
 30
0.000000000
 11
61.414572011
 21
33.464385350
 31
0.000000000
  0
LINE
  5
AD0
330
A02
100
AcDbEntity
  8
Middle_plate_2p5mm
100
AcDbLine
 10
61.414572011
 20
33.464385350
 30
0.000000000
 11
61.220049291
 21
34.379542797
 31
0.000000000
  0
LINE
  5
AD1
330
A02
100
AcDbEntity
  8
Middle_plate_2p5mm
100
AcDbLine
 10
66.470049291
 20
29.269005033
 30
0.000000000
 11
66.664572011
 21
30.184162480
 31
0.000000000
  0
LINE
  5
AD2
330
A02
100
AcDbEntity
  8
Middle_plate_2p5mm
100
AcDbLine
 10
66.664572011
 20
30.184162480
 30
0.000000000
 11
67.214505427
 21
30.941080891
 31
0.000000000
  0
LINE
  5
AD3
330
A02
100
AcDbEntity
  8
Middle_plate_2p5mm
100
AcDbLine
 10
67.214505427
 20
30.941080891
 30
0.000000000
 11
68.024761053
 21
31.408882195
 31
0.000000000
  0
LINE
  5
AD4
330
A02
100
AcDbEntity
  8
Middle_plate_2p5mm
100
AcDbLine
 10
68.024761053
 20
31.408882195
 30
0.000000000
 11
68.955238333
 21
31.506679298
 31
0.000000000
  0
LINE
  5
AD5
330
A02
100
AcDbEntity
  8
Middle_plate_2p5mm
100
AcDbLine
 10
68.955238333
 20
31.506679298
 30
0.000000000
 11
69.845049291
 21
31.217562192
 31
0.000000000
  0
LINE
  5
AD6
330
A02
100
AcDbEntity
  8
Middle_plate_2p5mm
100
AcDbLine
 10
69.845049291
 20
31.217562192
 30
0.000000000
 11
70.540337528
 21
30.591521851
 31
0.000000000
  0
LINE
  5
AD7
330
A02
100
AcDbEntity
  8
Middle_plate_2p5mm
100
AcDbLine
 10
70.540337528
 20
30.591521851
 30
0.000000000
 11
70.920881392
 21
29.736806338
 31
0.000000000
  0
LINE
  5
AD8
330
A02
100
AcDbEntity
  8
Middle_plate_2p5mm
100
AcDbLine
 10
70.920881392
 20
29.736806338
 30
0.000000000
 11
70.920881392
 21
28.801203729
 31
0.000000000
  0
LINE
  5
AD9
330
A02
100
AcDbEntity
  8
Middle_plate_2p5mm
100
AcDbLine
 10
70.920881392
 20
28.801203729
 30
0.000000000
 11
70.540337528
 21
27.946488216
 31
0.000000000
  0
LINE
  5
ADA
330
A02
100
AcDbEntity
  8
Middle_plate_2p5mm
100
AcDbLine
 10
70.540337528
 20
27.946488216
 30
0.000000000
 11
69.845049291
 21
27.320447875
 31
0.000000000
  0
LINE
  5
ADB
330
A02
100
AcDbEntity
  8
Middle_plate_2p5mm
100
AcDbLine
 10
69.845049291
 20
27.320447875
 30
0.000000000
 11
68.955238333
 21
27.031330769
 31
0.000000000
  0
LINE
  5
ADC
330
A02
100
AcDbEntity
  8
Middle_plate_2p5mm
100
AcDbLine
 10
68.955238333
 20
27.031330769
 30
0.000000000
 11
68.024761053
 21
27.129127872
 31
0.000000000
  0
LINE
  5
ADD
330
A02
100
AcDbEntity
  8
Middle_plate_2p5mm
100
AcDbLine
 10
68.024761053
 20
27.129127872
 30
0.000000000
 11
67.214505427
 21
27.596929176
 31
0.000000000
  0
LINE
  5
ADE
330
A02
100
AcDbEntity
  8
Middle_plate_2p5mm
100
AcDbLine
 10
67.214505427
 20
27.596929176
 30
0.000000000
 11
66.664572011
 21
28.353847586
 31
0.000000000
  0
LINE
  5
ADF
330
A02
100
AcDbEntity
  8
Middle_plate_2p5mm
100
AcDbLine
 10
66.664572011
 20
28.353847586
 30
0.000000000
 11
66.470049291
 21
29.269005033
 31
0.000000000
  0
LINE
  5
AE0
330
A02
100
AcDbEntity
  8
Middle_plate_2p5mm
100
AcDbLine
 10
11.213231206
 20
75.989519644
 30
0.000000000
 11
11.385047168
 21
75.292434886
 31
0.000000000
  0
LINE
  5
AE1
330
A02
100
AcDbEntity
  8
Middle_plate_2p5mm
100
AcDbLine
 10
11.385047168
 20
75.292434886
 30
0.000000000
 11
11.861134086
 21
74.755043845
 31
0.000000000
  0
LINE
  5
AE2
330
A02
100
AcDbEntity
  8
Middle_plate_2p5mm
100
AcDbLine
 10
11.861134086
 20
74.755043845
 30
0.000000000
 11
12.532426186
 21
74.500456333
 31
0.000000000
  0
LINE
  5
AE3
330
A02
100
AcDbEntity
  8
Middle_plate_2p5mm
100
AcDbLine
 10
12.532426186
 20
74.500456333
 30
0.000000000
 11
13.245138537
 21
74.586995280
 31
0.000000000
  0
LINE
  5
AE4
330
A02
100
AcDbEntity
  8
Middle_plate_2p5mm
100
AcDbLine
 10
13.245138537
 20
74.586995280
 30
0.000000000
 11
13.835997329
 21
74.994835657
 31
0.000000000
  0
LINE
  5
AE5
330
A02
100
AcDbEntity
  8
Middle_plate_2p5mm
100
AcDbLine
 10
13.835997329
 20
74.994835657
 30
0.000000000
 11
14.169643933
 21
75.630546148
 31
0.000000000
  0
LINE
  5
AE6
330
A02
100
AcDbEntity
  8
Middle_plate_2p5mm
100
AcDbLine
 10
14.169643933
 20
75.630546148
 30
0.000000000
 11
14.169643933
 21
76.348493141
 31
0.000000000
  0
LINE
  5
AE7
330
A02
100
AcDbEntity
  8
Middle_plate_2p5mm
100
AcDbLine
 10
14.169643933
 20
76.348493141
 30
0.000000000
 11
13.835997329
 21
76.984203632
 31
0.000000000
  0
LINE
  5
AE8
330
A02
100
AcDbEntity
  8
Middle_plate_2p5mm
100
AcDbLine
 10
13.835997329
 20
76.984203632
 30
0.000000000
 11
13.245138537
 21
77.392044008
 31
0.000000000
  0
LINE
  5
AE9
330
A02
100
AcDbEntity
  8
Middle_plate_2p5mm
100
AcDbLine
 10
13.245138537
 20
77.392044008
 30
0.000000000
 11
12.532426186
 21
77.478582955
 31
0.000000000
  0
LINE
  5
AEA
330
A02
100
AcDbEntity
  8
Middle_plate_2p5mm
100
AcDbLine
 10
12.532426186
 20
77.478582955
 30
0.000000000
 11
11.861134086
 21
77.223995443
 31
0.000000000
  0
LINE
  5
AEB
330
A02
100
AcDbEntity
  8
Middle_plate_2p5mm
100
AcDbLine
 10
11.861134086
 20
77.223995443
 30
0.000000000
 11
11.385047168
 21
76.686604402
 31
0.000000000
  0
LINE
  5
AEC
330
A02
100
AcDbEntity
  8
Middle_plate_2p5mm
100
AcDbLine
 10
11.385047168
 20
76.686604402
 30
0.000000000
 11
11.213231206
 21
75.989519644
 31
0.000000000
  0
LINE
  5
AED
330
A02
100
AcDbEntity
  8
Middle_plate_2p5mm
100
AcDbLine
 10
11.213231206
 20
13.048490422
 30
0.000000000
 11
11.385047168
 21
12.351405664
 31
0.000000000
  0
LINE
  5
AEE
330
A02
100
AcDbEntity
  8
Middle_plate_2p5mm
100
AcDbLine
 10
11.385047168
 20
12.351405664
 30
0.000000000
 11
11.861134086
 21
11.814014624
 31
0.000000000
  0
LINE
  5
AEF
330
A02
100
AcDbEntity
  8
Middle_plate_2p5mm
100
AcDbLine
 10
11.861134086
 20
11.814014624
 30
0.000000000
 11
12.532426186
 21
11.559427111
 31
0.000000000
  0
LINE
  5
AF0
330
A02
100
AcDbEntity
  8
Middle_plate_2p5mm
100
AcDbLine
 10
12.532426186
 20
11.559427111
 30
0.000000000
 11
13.245138537
 21
11.645966058
 31
0.000000000
  0
LINE
  5
AF1
330
A02
100
AcDbEntity
  8
Middle_plate_2p5mm
100
AcDbLine
 10
13.245138537
 20
11.645966058
 30
0.000000000
 11
13.835997329
 21
12.053806435
 31
0.000000000
  0
LINE
  5
AF2
330
A02
100
AcDbEntity
  8
Middle_plate_2p5mm
100
AcDbLine
 10
13.835997329
 20
12.053806435
 30
0.000000000
 11
14.169643933
 21
12.689516926
 31
0.000000000
  0
LINE
  5
AF3
330
A02
100
AcDbEntity
  8
Middle_plate_2p5mm
100
AcDbLine
 10
14.169643933
 20
12.689516926
 30
0.000000000
 11
14.169643933
 21
13.407463919
 31
0.000000000
  0
LINE
  5
AF4
330
A02
100
AcDbEntity
  8
Middle_plate_2p5mm
100
AcDbLine
 10
14.169643933
 20
13.407463919
 30
0.000000000
 11
13.835997329
 21
14.043174410
 31
0.000000000
  0
LINE
  5
AF5
330
A02
100
AcDbEntity
  8
Middle_plate_2p5mm
100
AcDbLine
 10
13.835997329
 20
14.043174410
 30
0.000000000
 11
13.245138537
 21
14.451014786
 31
0.000000000
  0
LINE
  5
AF6
330
A02
100
AcDbEntity
  8
Middle_plate_2p5mm
100
AcDbLine
 10
13.245138537
 20
14.451014786
 30
0.000000000
 11
12.532426186
 21
14.537553734
 31
0.000000000
  0
LINE
  5
AF7
330
A02
100
AcDbEntity
  8
Middle_plate_2p5mm
100
AcDbLine
 10
12.532426186
 20
14.537553734
 30
0.000000000
 11
11.861134086
 21
14.282966221
 31
0.000000000
  0
LINE
  5
AF8
330
A02
100
AcDbEntity
  8
Middle_plate_2p5mm
100
AcDbLine
 10
11.861134086
 20
14.282966221
 30
0.000000000
 11
11.385047168
 21
13.745575181
 31
0.000000000
  0
LINE
  5
AF9
330
A02
100
AcDbEntity
  8
Middle_plate_2p5mm
100
AcDbLine
 10
11.385047168
 20
13.745575181
 30
0.000000000
 11
11.213231206
 21
13.048490422
 31
0.000000000
  0
LINE
  5
AFA
330
A02
100
AcDbEntity
  8
Middle_plate_2p5mm
100
AcDbLine
 10
92.726867375
 20
13.048490422
 30
0.000000000
 11
92.898683337
 21
12.351405664
 31
0.000000000
  0
LINE
  5
AFB
330
A02
100
AcDbEntity
  8
Middle_plate_2p5mm
100
AcDbLine
 10
92.898683337
 20
12.351405664
 30
0.000000000
 11
93.374770255
 21
11.814014624
 31
0.000000000
  0
LINE
  5
AFC
330
A02
100
AcDbEntity
  8
Middle_plate_2p5mm
100
AcDbLine
 10
93.374770255
 20
11.814014624
 30
0.000000000
 11
94.046062355
 21
11.559427111
 31
0.000000000
  0
LINE
  5
AFD
330
A02
100
AcDbEntity
  8
Middle_plate_2p5mm
100
AcDbLine
 10
94.046062355
 20
11.559427111
 30
0.000000000
 11
94.758774706
 21
11.645966058
 31
0.000000000
  0
LINE
  5
AFE
330
A02
100
AcDbEntity
  8
Middle_plate_2p5mm
100
AcDbLine
 10
94.758774706
 20
11.645966058
 30
0.000000000
 11
95.349633498
 21
12.053806435
 31
0.000000000
  0
LINE
  5
AFF
330
A02
100
AcDbEntity
  8
Middle_plate_2p5mm
100
AcDbLine
 10
95.349633498
 20
12.053806435
 30
0.000000000
 11
95.683280101
 21
12.689516926
 31
0.000000000
  0
LINE
  5
B00
330
A02
100
AcDbEntity
  8
Middle_plate_2p5mm
100
AcDbLine
 10
95.683280101
 20
12.689516926
 30
0.000000000
 11
95.683280101
 21
13.407463919
 31
0.000000000
  0
LINE
  5
B01
330
A02
100
AcDbEntity
  8
Middle_plate_2p5mm
100
AcDbLine
 10
95.683280101
 20
13.407463919
 30
0.000000000
 11
95.349633498
 21
14.043174410
 31
0.000000000
  0
LINE
  5
B02
330
A02
100
AcDbEntity
  8
Middle_plate_2p5mm
100
AcDbLine
 10
95.349633498
 20
14.043174410
 30
0.000000000
 11
94.758774706
 21
14.451014786
 31
0.000000000
  0
LINE
  5
B03
330
A02
100
AcDbEntity
  8
Middle_plate_2p5mm
100
AcDbLine
 10
94.758774706
 20
14.451014786
 30
0.000000000
 11
94.046062355
 21
14.537553734
 31
0.000000000
  0
LINE
  5
B04
330
A02
100
AcDbEntity
  8
Middle_plate_2p5mm
100
AcDbLine
 10
94.046062355
 20
14.537553734
 30
0.000000000
 11
93.374770255
 21
14.282966221
 31
0.000000000
  0
LINE
  5
B05
330
A02
100
AcDbEntity
  8
Middle_plate_2p5mm
100
AcDbLine
 10
93.374770255
 20
14.282966221
 30
0.000000000
 11
92.898683337
 21
13.745575181
 31
0.000000000
  0
LINE
  5
B06
330
A02
100
AcDbEntity
  8
Middle_plate_2p5mm
100
AcDbLine
 10
92.898683337
 20
13.745575181
 30
0.000000000
 11
92.726867375
 21
13.048490422
 31
0.000000000
  0
LINE
  5
B07
330
A02
100
AcDbEntity
  8
Middle_plate_2p5mm
100
AcDbLine
 10
92.726867375
 20
75.989519644
 30
0.000000000
 11
92.898683337
 21
75.292434886
 31
0.000000000
  0
LINE
  5
B08
330
A02
100
AcDbEntity
  8
Middle_plate_2p5mm
100
AcDbLine
 10
92.898683337
 20
75.292434886
 30
0.000000000
 11
93.374770255
 21
74.755043845
 31
0.000000000
  0
LINE
  5
B09
330
A02
100
AcDbEntity
  8
Middle_plate_2p5mm
100
AcDbLine
 10
93.374770255
 20
74.755043845
 30
0.000000000
 11
94.046062355
 21
74.500456333
 31
0.000000000
  0
LINE
  5
B0A
330
A02
100
AcDbEntity
  8
Middle_plate_2p5mm
100
AcDbLine
 10
94.046062355
 20
74.500456333
 30
0.000000000
 11
94.758774706
 21
74.586995280
 31
0.000000000
  0
LINE
  5
B0B
330
A02
100
AcDbEntity
  8
Middle_plate_2p5mm
100
AcDbLine
 10
94.758774706
 20
74.586995280
 30
0.000000000
 11
95.349633498
 21
74.994835657
 31
0.000000000
  0
LINE
  5
B0C
330
A02
100
AcDbEntity
  8
Middle_plate_2p5mm
100
AcDbLine
 10
95.349633498
 20
74.994835657
 30
0.000000000
 11
95.683280101
 21
75.630546148
 31
0.000000000
  0
LINE
  5
B0D
330
A02
100
AcDbEntity
  8
Middle_plate_2p5mm
100
AcDbLine
 10
95.683280101
 20
75.630546148
 30
0.000000000
 11
95.683280101
 21
76.348493141
 31
0.000000000
  0
LINE
  5
B0E
330
A02
100
AcDbEntity
  8
Middle_plate_2p5mm
100
AcDbLine
 10
95.683280101
 20
76.348493141
 30
0.000000000
 11
95.349633498
 21
76.984203632
 31
0.000000000
  0
LINE
  5
B0F
330
A02
100
AcDbEntity
  8
Middle_plate_2p5mm
100
AcDbLine
 10
95.349633498
 20
76.984203632
 30
0.000000000
 11
94.758774706
 21
77.392044008
 31
0.000000000
  0
LINE
  5
B10
330
A02
100
AcDbEntity
  8
Middle_plate_2p5mm
100
AcDbLine
 10
94.758774706
 20
77.392044008
 30
0.000000000
 11
94.046062355
 21
77.478582955
 31
0.000000000
  0
LINE
  5
B11
330
A02
100
AcDbEntity
  8
Middle_plate_2p5mm
100
AcDbLine
 10
94.046062355
 20
77.478582955
 30
0.000000000
 11
93.374770255
 21
77.223995443
 31
0.000000000
  0
LINE
  5
B12
330
A02
100
AcDbEntity
  8
Middle_plate_2p5mm
100
AcDbLine
 10
93.374770255
 20
77.223995443
 30
0.000000000
 11
92.898683337
 21
76.686604402
 31
0.000000000
  0
LINE
  5
B13
330
A02
100
AcDbEntity
  8
Middle_plate_2p5mm
100
AcDbLine
 10
92.898683337
 20
76.686604402
 30
0.000000000
 11
92.726867375
 21
75.989519644
 31
0.000000000
  0
ENDSEC
  0
SECTION
  2
OBJECTS
  0
DICTIONARY
  5
F000
330
0
100
AcDbDictionary
  3
ACAD_GROUP
350
F001
  0
DICTIONARY
  5
F001
330
F000
100
AcDbDictionary
  0
ENDSEC
  0
EOF