999
FreeCAD v1.1 20260414 (Git shallow)
  0
SECTION
  2
HEADER
  9
$ACADVER
  1
AC1014
  9
$ACADMAINTVER
 70
     9
  9
$DWGCODEPAGE
  3
ANSI_1252
  9
$TEXTSTYLE
  7
STANDARD
  9
$DIMSTYLE
  2
STANDARD
  9
$DIMTXSTY
  7
STANDARD
  9
$CMLSTYLE
  2
STANDARD
  9
$LUNITS
 70
2
  9
$INSUNITS
 70
4
  9
$PEXTMAX
 10
50
 20
50
 30
50
  9
$PEXTMIN
 10
0
 20
0
 30
0
  9
$HANDSEED
  5
FFFF
  0
ENDSEC
  0
SECTION
  2
CLASSES
  0
CLASS
  1
ACDBDICTIONARYWDFLT
  2
AcDbDictionaryWithDefault
  3
ObjectDBX Classes
 90
        0
280
     0
281
     0
  0
CLASS
  1
XRECORD
  2
AcDbXrecord
  3
ObjectDBX Classes
 90
        0
280
     0
281
     0
  0
CLASS
  1
LWPOLYLINE
  2
AcDbPolyline
  3
ObjectDBX Classes
 90
        0
280
     0
281
     1
  0
ENDSEC
  0
SECTION
  2
TABLES
  0
TABLE
  2
VPORT
  5
20
330
0
100
AcDbSymbolTable
 70
     1
  0
VPORT
  5
21
330
20
100
AcDbSymbolTableRecord
100
AcDbViewportTableRecord
  2
*ACTIVE
 70
     0
  0
ENDTAB
  0
TABLE
  2
LTYPE
  5
22
330
0
100
AcDbSymbolTable
 70
     1
  0
LTYPE
  5
23
330
21
100
AcDbSymbolTableRecord
100
AcDbLinetypeTableRecord
  2
BYBLOCK
 70
     0
  3

 72
    65
 73
     0
 40
0.0
  0
LTYPE
  5
24
330
21
100
AcDbSymbolTableRecord
100
AcDbLinetypeTableRecord
  2
BYLAYER
 70
     0
  3

 72
    65
 73
     0
 40
0.0
  0
LTYPE
  5
25
330
21
100
AcDbSymbolTableRecord
100
AcDbLinetypeTableRecord
  2
CONTINUOUS
 70
     0
  3
Solid line
 72
    65
 73
     0
 40
0.0
  0
ENDTAB
  0
TABLE
  2
LAYER
  5
BA1
330
0
100
AcDbSymbolTable
 70
3
  0
LAYER
  5
BA2
330
BA1
100
AcDbSymbolTableRecord
100
AcDbLayerTableRecord
  2
0
 70
   0
 62
   7
  6
CONTINUOUS
  0
LAYER
  5
BA3
330
BA1
100
AcDbSymbolTableRecord
100
AcDbLayerTableRecord
  2
none
 70
    0
 62
    7
  6
CONTINUOUS
  0
LAYER
  5
BA4
330
BA1
100
AcDbSymbolTableRecord
100
AcDbLayerTableRecord
  2
Top_plate_2p5mm
 70
    0
 62
    7
  6
CONTINUOUS
  0
ENDTAB
  0
TABLE
  2
STYLE
  5
70
330
0
100
AcDbSymbolTable
 70
     2
  0
STYLE
  5
71
330
70
100
AcDbSymbolTableRecord
100
AcDbTextStyleTableRecord
  2
STANDARD
 70
     0
 40
0.0
 41
1.0
 50
0.0
 71
     0
 42
2.5
  3
arial.ttf
  4

  0
STYLE
  5
72
330
70
100
AcDbSymbolTableRecord
100
AcDbTextStyleTableRecord
  2
ANNOTATIVE
 70
     0
 40
0.0
 41
1.0
 50
0.0
 71
     0
 42
2.5
  3
arial.ttf
  4

  0
ENDTAB
  0
TABLE
  2
VIEW
  5
73
330
0
100
AcDbSymbolTable
 70
     0
  0
ENDTAB
  0
TABLE
  2
UCS
  5
74
330
0
100
AcDbSymbolTable
 70
     0
  0
ENDTAB
  0
TABLE
  2
APPID
  5
75
330
0
100
AcDbSymbolTable
 70
     2
  0
APPID
  5
76
330
75
100
AcDbSymbolTableRecord
100
AcDbRegAppTableRecord
  2
ACAD
 70
     0
  0
APPID
  5
77
330
75
100
AcDbSymbolTableRecord
100
AcDbRegAppTableRecord
  2
ACADANNOTATIVE
 70
     0
  0
ENDTAB
  0
TABLE
  2
DIMSTYLE
  5
78
330
0
100
AcDbSymbolTable
 70
     2
  0
DIMSTYLE
105
79
330
78
100
AcDbSymbolTableRecord
100
AcDbDimStyleTableRecord
  2
STANDARD
 70
     0
  3

  4

  5

  6

  7

 40
0.0
 41
2.5
 42
0.625
 43
3.75
 44
1.25
 45
0.0
 46
0.0
 47
0.0
 48
0.0
140
2.5
141
2.5
142
0.0
143
0.03937007874016
144
1.0
145
0.0
146
1.0
147
0.625
 71
     0
 72
     0
 73
     0
 74
     0
 75
     0
 76
     0
 77
     1
 78
     8
170
     0
171
     3
172
     1
173
     0
174
     0
175
     0
176
     0
177
     0
178
     0
270
     2
271
     2
272
     2
273
     2
274
     3
340
71
275
     0
280
     0
281
     0
282
     0
283
     0
284
     8
285
     0
286
     0
287
     3
288
     0
  0
ENDTAB
  0
TABLE
  2
BLOCK_RECORD
  5
A01
330
0
100
AcDbSymbolTable
  70
5
  0
BLOCK_RECORD
  5
A02
330
A01
100
AcDbSymbolTableRecord
100
AcDbBlockTableRecord
  2
*MODEL_SPACE
  0
BLOCK_RECORD
  5
A03
330
A01
100
AcDbSymbolTableRecord
100
AcDbBlockTableRecord
  2
*PAPER_SPACE
  0
ENDTAB
  0
ENDSEC
  0
SECTION
  2
BLOCKS
  0
BLOCK
  5
A04
330
A02
100
AcDbEntity
  8
0
100
AcDbBlockBegin
  2
*MODEL_SPACE
 70
   0
 10
0
 20
0
 30
0
  3
*MODEL_SPACE
  1
 
  0
ENDBLK
  5
A05
330
A02
100
AcDbEntity
  8
0
100
AcDbBlockEnd
  0
BLOCK
  5
A06
330
A03
100
AcDbEntity
 67
1
  8
0
100
AcDbBlockBegin
  2
*PAPER_SPACE
 70
   0
 10
0
 20
0
 30
0
  3
*PAPER_SPACE
  1
 
  0
ENDBLK
  5
A07
330
A03
100
AcDbEntity
 67
    1
  8
0
100
AcDbBlockEnd
  0
ENDSEC
  0
SECTION
  2
ENTITIES
  0
LINE
  5
A08
330
A02
100
AcDbEntity
  8
Top_plate_2p5mm
100
AcDbLine
 10
56.114298156
 20
155.960265305
 30
0.000000000
 11
56.286114117
 21
156.657350063
 31
0.000000000
  0
LINE
  5
A09
330
A02
100
AcDbEntity
  8
Top_plate_2p5mm
100
AcDbLine
 10
56.286114117
 20
156.657350063
 30
0.000000000
 11
56.762201035
 21
157.194741103
 31
0.000000000
  0
LINE
  5
A0A
330
A02
100
AcDbEntity
  8
Top_plate_2p5mm
100
AcDbLine
 10
56.762201035
 20
157.194741103
 30
0.000000000
 11
57.433493135
 21
157.449328616
 31
0.000000000
  0
LINE
  5
A0B
330
A02
100
AcDbEntity
  8
Top_plate_2p5mm
100
AcDbLine
 10
57.433493135
 20
157.449328616
 30
0.000000000
 11
58.146205486
 21
157.362789669
 31
0.000000000
  0
LINE
  5
A0C
330
A02
100
AcDbEntity
  8
Top_plate_2p5mm
100
AcDbLine
 10
58.146205486
 20
157.362789669
 30
0.000000000
 11
58.737064278
 21
156.954949292
 31
0.000000000
  0
LINE
  5
A0D
330
A02
100
AcDbEntity
  8
Top_plate_2p5mm
100
AcDbLine
 10
58.737064278
 20
156.954949292
 30
0.000000000
 11
59.070710882
 21
156.319238801
 31
0.000000000
  0
LINE
  5
A0E
330
A02
100
AcDbEntity
  8
Top_plate_2p5mm
100
AcDbLine
 10
59.070710882
 20
156.319238801
 30
0.000000000
 11
59.070710882
 21
155.601291808
 31
0.000000000
  0
LINE
  5
A0F
330
A02
100
AcDbEntity
  8
Top_plate_2p5mm
100
AcDbLine
 10
59.070710882
 20
155.601291808
 30
0.000000000
 11
58.737064278
 21
154.965581317
 31
0.000000000
  0
LINE
  5
A10
330
A02
100
AcDbEntity
  8
Top_plate_2p5mm
100
AcDbLine
 10
58.737064278
 20
154.965581317
 30
0.000000000
 11
58.146205486
 21
154.557740941
 31
0.000000000
  0
LINE
  5
A11
330
A02
100
AcDbEntity
  8
Top_plate_2p5mm
100
AcDbLine
 10
58.146205486
 20
154.557740941
 30
0.000000000
 11
57.433493135
 21
154.471201993
 31
0.000000000
  0
LINE
  5
A12
330
A02
100
AcDbEntity
  8
Top_plate_2p5mm
100
AcDbLine
 10
57.433493135
 20
154.471201993
 30
0.000000000
 11
56.762201035
 21
154.725789506
 31
0.000000000
  0
LINE
  5
A13
330
A02
100
AcDbEntity
  8
Top_plate_2p5mm
100
AcDbLine
 10
56.762201035
 20
154.725789506
 30
0.000000000
 11
56.286114117
 21
155.263180546
 31
0.000000000
  0
LINE
  5
A14
330
A02
100
AcDbEntity
  8
Top_plate_2p5mm
100
AcDbLine
 10
56.286114117
 20
155.263180546
 30
0.000000000
 11
56.114298156
 21
155.960265305
 31
0.000000000
  0
LINE
  5
A15
330
A02
100
AcDbEntity
  8
Top_plate_2p5mm
100
AcDbLine
 10
46.011534753
 20
40.110849874
 30
0.000000000
 11
45.877560157
 21
39.610849874
 31
0.000000000
  0
LINE
  5
A16
330
A02
100
AcDbEntity
  8
Top_plate_2p5mm
100
AcDbLine
 10
45.877560157
 20
39.610849874
 30
0.000000000
 11
45.511534753
 21
39.244824470
 31
0.000000000
  0
LINE
  5
A17
330
A02
100
AcDbEntity
  8
Top_plate_2p5mm
100
AcDbLine
 10
45.511534753
 20
39.244824470
 30
0.000000000
 11
45.011534753
 21
39.110849874
 31
0.000000000
  0
LINE
  5
A18
330
A02
100
AcDbEntity
  8
Top_plate_2p5mm
100
AcDbLine
 10
46.011534753
 20
63.110849874
 30
0.000000000
 11
46.011534753
 21
40.110849874
 31
0.000000000
  0
LINE
  5
A19
330
A02
100
AcDbEntity
  8
Top_plate_2p5mm
100
AcDbLine
 10
45.011534753
 20
39.110849874
 30
0.000000000
 11
43.511534753
 21
39.110849874
 31
0.000000000
  0
LINE
  5
A1A
330
A02
100
AcDbEntity
  8
Top_plate_2p5mm
100
AcDbLine
 10
43.511534753
 20
39.110849874
 30
0.000000000
 11
43.011534753
 21
39.244824470
 31
0.000000000
  0
LINE
  5
A1B
330
A02
100
AcDbEntity
  8
Top_plate_2p5mm
100
AcDbLine
 10
43.011534753
 20
39.244824470
 30
0.000000000
 11
42.645509350
 21
39.610849874
 31
0.000000000
  0
LINE
  5
A1C
330
A02
100
AcDbEntity
  8
Top_plate_2p5mm
100
AcDbLine
 10
42.645509350
 20
39.610849874
 30
0.000000000
 11
42.511534753
 21
40.110849874
 31
0.000000000
  0
LINE
  5
A1D
330
A02
100
AcDbEntity
  8
Top_plate_2p5mm
100
AcDbLine
 10
42.511534753
 20
40.110849874
 30
0.000000000
 11
42.511534753
 21
63.110849874
 31
0.000000000
  0
LINE
  5
A1E
330
A02
100
AcDbEntity
  8
Top_plate_2p5mm
100
AcDbLine
 10
42.511534753
 20
63.110849874
 30
0.000000000
 11
42.645509350
 21
63.610849874
 31
0.000000000
  0
LINE
  5
A1F
330
A02
100
AcDbEntity
  8
Top_plate_2p5mm
100
AcDbLine
 10
42.645509350
 20
63.610849874
 30
0.000000000
 11
43.011534753
 21
63.976875278
 31
0.000000000
  0
LINE
  5
A20
330
A02
100
AcDbEntity
  8
Top_plate_2p5mm
100
AcDbLine
 10
43.011534753
 20
63.976875278
 30
0.000000000
 11
43.511534753
 21
64.110849874
 31
0.000000000
  0
LINE
  5
A21
330
A02
100
AcDbEntity
  8
Top_plate_2p5mm
100
AcDbLine
 10
21.764128548
 20
63.110849874
 30
0.000000000
 11
21.898103145
 21
63.610849874
 31
0.000000000
  0
LINE
  5
A22
330
A02
100
AcDbEntity
  8
Top_plate_2p5mm
100
AcDbLine
 10
21.898103145
 20
63.610849874
 30
0.000000000
 11
22.264128548
 21
63.976875278
 31
0.000000000
  0
LINE
  5
A23
330
A02
100
AcDbEntity
  8
Top_plate_2p5mm
100
AcDbLine
 10
22.264128548
 20
63.976875278
 30
0.000000000
 11
22.764128548
 21
64.110849874
 31
0.000000000
  0
LINE
  5
A24
330
A02
100
AcDbEntity
  8
Top_plate_2p5mm
100
AcDbLine
 10
21.764128548
 20
40.110849874
 30
0.000000000
 11
21.764128548
 21
63.110849874
 31
0.000000000
  0
LINE
  5
A25
330
A02
100
AcDbEntity
  8
Top_plate_2p5mm
100
AcDbLine
 10
22.764128548
 20
64.110849874
 30
0.000000000
 11
24.264128548
 21
64.110849874
 31
0.000000000
  0
LINE
  5
A26
330
A02
100
AcDbEntity
  8
Top_plate_2p5mm
100
AcDbLine
 10
24.264128548
 20
64.110849874
 30
0.000000000
 11
24.764128548
 21
63.976875278
 31
0.000000000
  0
LINE
  5
A27
330
A02
100
AcDbEntity
  8
Top_plate_2p5mm
100
AcDbLine
 10
24.764128548
 20
63.976875278
 30
0.000000000
 11
25.130153952
 21
63.610849874
 31
0.000000000
  0
LINE
  5
A28
330
A02
100
AcDbEntity
  8
Top_plate_2p5mm
100
AcDbLine
 10
25.130153952
 20
63.610849874
 30
0.000000000
 11
25.264128548
 21
63.110849874
 31
0.000000000
  0
LINE
  5
A29
330
A02
100
AcDbEntity
  8
Top_plate_2p5mm
100
AcDbLine
 10
25.264128548
 20
63.110849874
 30
0.000000000
 11
25.264128548
 21
40.110849874
 31
0.000000000
  0
LINE
  5
A2A
330
A02
100
AcDbEntity
  8
Top_plate_2p5mm
100
AcDbLine
 10
25.264128548
 20
40.110849874
 30
0.000000000
 11
25.130153952
 21
39.610849874
 31
0.000000000
  0
LINE
  5
A2B
330
A02
100
AcDbEntity
  8
Top_plate_2p5mm
100
AcDbLine
 10
25.130153952
 20
39.610849874
 30
0.000000000
 11
24.764128548
 21
39.244824470
 31
0.000000000
  0
LINE
  5
A2C
330
A02
100
AcDbEntity
  8
Top_plate_2p5mm
100
AcDbLine
 10
24.764128548
 20
39.244824470
 30
0.000000000
 11
24.264128548
 21
39.110849874
 31
0.000000000
  0
LINE
  5
A2D
330
A02
100
AcDbEntity
  8
Top_plate_2p5mm
100
AcDbLine
 10
21.908370744
 20
103.283963593
 30
0.000000000
 11
21.774396148
 21
102.783963593
 31
0.000000000
  0
LINE
  5
A2E
330
A02
100
AcDbEntity
  8
Top_plate_2p5mm
100
AcDbLine
 10
21.774396148
 20
102.783963593
 30
0.000000000
 11
21.408370744
 21
102.417938189
 31
0.000000000
  0
LINE
  5
A2F
330
A02
100
AcDbEntity
  8
Top_plate_2p5mm
100
AcDbLine
 10
21.408370744
 20
102.417938189
 30
0.000000000
 11
20.908370744
 21
102.283963593
 31
0.000000000
  0
LINE
  5
A30
330
A02
100
AcDbEntity
  8
Top_plate_2p5mm
100
AcDbLine
 10
21.908370744
 20
126.283963593
 30
0.000000000
 11
21.908370744
 21
103.283963593
 31
0.000000000
  0
LINE
  5
A31
330
A02
100
AcDbEntity
  8
Top_plate_2p5mm
100
AcDbLine
 10
20.908370744
 20
102.283963593
 30
0.000000000
 11
19.408370744
 21
102.283963593
 31
0.000000000
  0
LINE
  5
A32
330
A02
100
AcDbEntity
  8
Top_plate_2p5mm
100
AcDbLine
 10
19.408370744
 20
102.283963593
 30
0.000000000
 11
18.908370744
 21
102.417938189
 31
0.000000000
  0
LINE
  5
A33
330
A02
100
AcDbEntity
  8
Top_plate_2p5mm
100
AcDbLine
 10
18.908370744
 20
102.417938189
 30
0.000000000
 11
18.542345340
 21
102.783963593
 31
0.000000000
  0
LINE
  5
A34
330
A02
100
AcDbEntity
  8
Top_plate_2p5mm
100
AcDbLine
 10
18.542345340
 20
102.783963593
 30
0.000000000
 11
18.408370744
 21
103.283963593
 31
0.000000000
  0
LINE
  5
A35
330
A02
100
AcDbEntity
  8
Top_plate_2p5mm
100
AcDbLine
 10
18.408370744
 20
103.283963593
 30
0.000000000
 11
18.408370744
 21
126.283963593
 31
0.000000000
  0
LINE
  5
A36
330
A02
100
AcDbEntity
  8
Top_plate_2p5mm
100
AcDbLine
 10
18.408370744
 20
126.283963593
 30
0.000000000
 11
18.542345340
 21
126.783963593
 31
0.000000000
  0
LINE
  5
A37
330
A02
100
AcDbEntity
  8
Top_plate_2p5mm
100
AcDbLine
 10
18.542345340
 20
126.783963593
 30
0.000000000
 11
18.908370744
 21
127.149988996
 31
0.000000000
  0
LINE
  5
A38
330
A02
100
AcDbEntity
  8
Top_plate_2p5mm
100
AcDbLine
 10
18.908370744
 20
127.149988996
 30
0.000000000
 11
19.408370744
 21
127.283963593
 31
0.000000000
  0
LINE
  5
A39
330
A02
100
AcDbEntity
  8
Top_plate_2p5mm
100
AcDbLine
 10
49.367292558
 20
103.283963593
 30
0.000000000
 11
49.233317961
 21
102.783963593
 31
0.000000000
  0
LINE
  5
A3A
330
A02
100
AcDbEntity
  8
Top_plate_2p5mm
100
AcDbLine
 10
49.233317961
 20
102.783963593
 30
0.000000000
 11
48.867292558
 21
102.417938189
 31
0.000000000
  0
LINE
  5
A3B
330
A02
100
AcDbEntity
  8
Top_plate_2p5mm
100
AcDbLine
 10
48.867292558
 20
102.417938189
 30
0.000000000
 11
48.367292558
 21
102.283963593
 31
0.000000000
  0
LINE
  5
A3C
330
A02
100
AcDbEntity
  8
Top_plate_2p5mm
100
AcDbLine
 10
49.367292558
 20
126.283963593
 30
0.000000000
 11
49.367292558
 21
103.283963593
 31
0.000000000
  0
LINE
  5
A3D
330
A02
100
AcDbEntity
  8
Top_plate_2p5mm
100
AcDbLine
 10
48.367292558
 20
102.283963593
 30
0.000000000
 11
46.867292558
 21
102.283963593
 31
0.000000000
  0
LINE
  5
A3E
330
A02
100
AcDbEntity
  8
Top_plate_2p5mm
100
AcDbLine
 10
46.867292558
 20
102.283963593
 30
0.000000000
 11
46.367292558
 21
102.417938189
 31
0.000000000
  0
LINE
  5
A3F
330
A02
100
AcDbEntity
  8
Top_plate_2p5mm
100
AcDbLine
 10
46.367292558
 20
102.417938189
 30
0.000000000
 11
46.001267154
 21
102.783963593
 31
0.000000000
  0
LINE
  5
A40
330
A02
100
AcDbEntity
  8
Top_plate_2p5mm
100
AcDbLine
 10
46.001267154
 20
102.783963593
 30
0.000000000
 11
45.867292558
 21
103.283963593
 31
0.000000000
  0
LINE
  5
A41
330
A02
100
AcDbEntity
  8
Top_plate_2p5mm
100
AcDbLine
 10
45.867292558
 20
103.283963593
 30
0.000000000
 11
45.867292558
 21
126.283963593
 31
0.000000000
  0
LINE
  5
A42
330
A02
100
AcDbEntity
  8
Top_plate_2p5mm
100
AcDbLine
 10
45.867292558
 20
126.283963593
 30
0.000000000
 11
46.001267154
 21
126.783963593
 31
0.000000000
  0
LINE
  5
A43
330
A02
100
AcDbEntity
  8
Top_plate_2p5mm
100
AcDbLine
 10
46.001267154
 20
126.783963593
 30
0.000000000
 11
46.367292558
 21
127.149988996
 31
0.000000000
  0
LINE
  5
A44
330
A02
100
AcDbEntity
  8
Top_plate_2p5mm
100
AcDbLine
 10
46.367292558
 20
127.149988996
 30
0.000000000
 11
46.867292558
 21
127.283963593
 31
0.000000000
  0
LINE
  5
A45
330
A02
100
AcDbEntity
  8
Top_plate_2p5mm
100
AcDbLine
 10
45.011534753
 20
64.110849874
 30
0.000000000
 11
45.511534753
 21
63.976875278
 31
0.000000000
  0
LINE
  5
A46
330
A02
100
AcDbEntity
  8
Top_plate_2p5mm
100
AcDbLine
 10
45.511534753
 20
63.976875278
 30
0.000000000
 11
45.877560157
 21
63.610849874
 31
0.000000000
  0
LINE
  5
A47
330
A02
100
AcDbEntity
  8
Top_plate_2p5mm
100
AcDbLine
 10
45.877560157
 20
63.610849874
 30
0.000000000
 11
46.011534753
 21
63.110849874
 31
0.000000000
  0
LINE
  5
A48
330
A02
100
AcDbEntity
  8
Top_plate_2p5mm
100
AcDbLine
 10
43.511534753
 20
64.110849874
 30
0.000000000
 11
45.011534753
 21
64.110849874
 31
0.000000000
  0
LINE
  5
A49
330
A02
100
AcDbEntity
  8
Top_plate_2p5mm
100
AcDbLine
 10
22.764128548
 20
39.110849874
 30
0.000000000
 11
22.264128548
 21
39.244824470
 31
0.000000000
  0
LINE
  5
A4A
330
A02
100
AcDbEntity
  8
Top_plate_2p5mm
100
AcDbLine
 10
22.264128548
 20
39.244824470
 30
0.000000000
 11
21.898103145
 21
39.610849874
 31
0.000000000
  0
LINE
  5
A4B
330
A02
100
AcDbEntity
  8
Top_plate_2p5mm
100
AcDbLine
 10
21.898103145
 20
39.610849874
 30
0.000000000
 11
21.764128548
 21
40.110849874
 31
0.000000000
  0
LINE
  5
A4C
330
A02
100
AcDbEntity
  8
Top_plate_2p5mm
100
AcDbLine
 10
19.408370744
 20
127.283963593
 30
0.000000000
 11
20.908370744
 21
127.283963593
 31
0.000000000
  0
LINE
  5
A4D
330
A02
100
AcDbEntity
  8
Top_plate_2p5mm
100
AcDbLine
 10
48.367292558
 20
127.283963593
 30
0.000000000
 11
48.867292558
 21
127.149988996
 31
0.000000000
  0
LINE
  5
A4E
330
A02
100
AcDbEntity
  8
Top_plate_2p5mm
100
AcDbLine
 10
48.867292558
 20
127.149988996
 30
0.000000000
 11
49.233317961
 21
126.783963593
 31
0.000000000
  0
LINE
  5
A4F
330
A02
100
AcDbEntity
  8
Top_plate_2p5mm
100
AcDbLine
 10
49.233317961
 20
126.783963593
 30
0.000000000
 11
49.367292558
 21
126.283963593
 31
0.000000000
  0
LINE
  5
A50
330
A02
100
AcDbEntity
  8
Top_plate_2p5mm
100
AcDbLine
 10
46.867292558
 20
127.283963593
 30
0.000000000
 11
48.367292558
 21
127.283963593
 31
0.000000000
  0
LINE
  5
A51
330
A02
100
AcDbEntity
  8
Top_plate_2p5mm
100
AcDbLine
 10
19.299851235
 20
200.254177655
 30
0.000000000
 11
19.809192170
 21
200.442205601
 31
0.000000000
  0
LINE
  5
A52
330
A02
100
AcDbEntity
  8
Top_plate_2p5mm
100
AcDbLine
 10
19.809192170
 20
200.442205601
 30
0.000000000
 11
20.341714659
 21
200.336363756
 31
0.000000000
  0
LINE
  5
A53
330
A02
100
AcDbEntity
  8
Top_plate_2p5mm
100
AcDbLine
 10
20.341714659
 20
200.336363756
 30
0.000000000
 11
20.740440285
 21
199.967852464
 31
0.000000000
  0
LINE
  5
A54
330
A02
100
AcDbEntity
  8
Top_plate_2p5mm
100
AcDbLine
 10
20.740440285
 20
199.967852464
 30
0.000000000
 11
20.887831633
 21
199.445302479
 31
0.000000000
  0
LINE
  5
A55
330
A02
100
AcDbEntity
  8
Top_plate_2p5mm
100
AcDbLine
 10
19.299851235
 20
200.254177655
 30
0.000000000
 11
9.885329039
 21
193.410656341
 31
0.000000000
  0
LINE
  5
A56
330
A02
100
AcDbEntity
  8
Top_plate_2p5mm
100
AcDbLine
 10
20.887831633
 20
196.232818265
 30
0.000000000
 11
20.887831633
 21
199.445302479
 31
0.000000000
  0
LINE
  5
A57
330
A02
100
AcDbEntity
  8
Top_plate_2p5mm
100
AcDbLine
 10
43.767831650
 20
196.232818265
 30
0.000000000
 11
43.767831651
 21
197.300531883
 31
0.000000000
  0
LINE
  5
A58
330
A02
100
AcDbEntity
  8
Top_plate_2p5mm
100
AcDbLine
 10
43.767831632
 20
194.632818265
 30
0.000000000
 11
43.297603432
 21
194.785604675
 31
0.000000000
  0
LINE
  5
A59
330
A02
100
AcDbEntity
  8
Top_plate_2p5mm
100
AcDbLine
 10
43.297603432
 20
194.785604675
 30
0.000000000
 11
43.006986425
 21
195.185604678
 31
0.000000000
  0
LINE
  5
A5A
330
A02
100
AcDbEntity
  8
Top_plate_2p5mm
100
AcDbLine
 10
43.006986425
 20
195.185604678
 30
0.000000000
 11
43.006986431
 21
195.680031869
 31
0.000000000
  0
LINE
  5
A5B
330
A02
100
AcDbEntity
  8
Top_plate_2p5mm
100
AcDbLine
 10
43.006986431
 20
195.680031869
 30
0.000000000
 11
43.297603446
 21
196.080031866
 31
0.000000000
  0
LINE
  5
A5C
330
A02
100
AcDbEntity
  8
Top_plate_2p5mm
100
AcDbLine
 10
43.297603446
 20
196.080031866
 30
0.000000000
 11
43.767831650
 21
196.232818265
 31
0.000000000
  0
LINE
  5
A5D
330
A02
100
AcDbEntity
  8
Top_plate_2p5mm
100
AcDbLine
 10
43.012482698
 20
197.730411997
 30
0.000000000
 11
43.350583081
 21
197.793636538
 31
0.000000000
  0
LINE
  5
A5E
330
A02
100
AcDbEntity
  8
Top_plate_2p5mm
100
AcDbLine
 10
43.350583081
 20
197.793636538
 30
0.000000000
 11
43.649522439
 21
197.623505787
 31
0.000000000
  0
LINE
  5
A5F
330
A02
100
AcDbEntity
  8
Top_plate_2p5mm
100
AcDbLine
 10
43.649522439
 20
197.623505787
 30
0.000000000
 11
43.767831651
 21
197.300531883
 31
0.000000000
  0
LINE
  5
A60
330
A02
100
AcDbEntity
  8
Top_plate_2p5mm
100
AcDbLine
 10
43.012482698
 20
197.730411997
 30
0.000000000
 11
38.086833437
 21
194.804574439
 31
0.000000000
  0
LINE
  5
A61
330
A02
100
AcDbEntity
  8
Top_plate_2p5mm
100
AcDbLine
 10
38.086833437
 20
194.804574439
 30
0.000000000
 11
36.857351896
 21
194.281860996
 31
0.000000000
  0
LINE
  5
A62
330
A02
100
AcDbEntity
  8
Top_plate_2p5mm
100
AcDbLine
 10
36.857351896
 20
194.281860996
 30
0.000000000
 11
35.533343906
 21
194.103375576
 31
0.000000000
  0
LINE
  5
A63
330
A02
100
AcDbEntity
  8
Top_plate_2p5mm
100
AcDbLine
 10
35.533343906
 20
194.103375576
 30
0.000000000
 11
32.242319396
 21
194.103375576
 31
0.000000000
  0
LINE
  5
A64
330
A02
100
AcDbEntity
  8
Top_plate_2p5mm
100
AcDbLine
 10
32.242319396
 20
194.103375576
 30
0.000000000
 11
30.918311406
 21
194.281860996
 31
0.000000000
  0
LINE
  5
A65
330
A02
100
AcDbEntity
  8
Top_plate_2p5mm
100
AcDbLine
 10
30.918311406
 20
194.281860996
 30
0.000000000
 11
29.688829865
 21
194.804574439
 31
0.000000000
  0
LINE
  5
A66
330
A02
100
AcDbEntity
  8
Top_plate_2p5mm
100
AcDbLine
 10
29.688829865
 20
194.804574439
 30
0.000000000
 11
24.763180604
 21
197.730411997
 31
0.000000000
  0
LINE
  5
A67
330
A02
100
AcDbEntity
  8
Top_plate_2p5mm
100
AcDbLine
 10
24.007831651
 20
197.300531883
 30
0.000000000
 11
24.126140863
 21
197.623505787
 31
0.000000000
  0
LINE
  5
A68
330
A02
100
AcDbEntity
  8
Top_plate_2p5mm
100
AcDbLine
 10
24.126140863
 20
197.623505787
 30
0.000000000
 11
24.425080221
 21
197.793636538
 31
0.000000000
  0
LINE
  5
A69
330
A02
100
AcDbEntity
  8
Top_plate_2p5mm
100
AcDbLine
 10
24.425080221
 20
197.793636538
 30
0.000000000
 11
24.763180604
 21
197.730411997
 31
0.000000000
  0
LINE
  5
A6A
330
A02
100
AcDbEntity
  8
Top_plate_2p5mm
100
AcDbLine
 10
46.887831669
 20
199.445302479
 30
0.000000000
 11
47.035223017
 21
199.967852464
 31
0.000000000
  0
LINE
  5
A6B
330
A02
100
AcDbEntity
  8
Top_plate_2p5mm
100
AcDbLine
 10
47.035223017
 20
199.967852464
 30
0.000000000
 11
47.433948643
 21
200.336363756
 31
0.000000000
  0
LINE
  5
A6C
330
A02
100
AcDbEntity
  8
Top_plate_2p5mm
100
AcDbLine
 10
47.433948643
 20
200.336363756
 30
0.000000000
 11
47.966471132
 21
200.442205601
 31
0.000000000
  0
LINE
  5
A6D
330
A02
100
AcDbEntity
  8
Top_plate_2p5mm
100
AcDbLine
 10
47.966471132
 20
200.442205601
 30
0.000000000
 11
48.475812067
 21
200.254177655
 31
0.000000000
  0
LINE
  5
A6E
330
A02
100
AcDbEntity
  8
Top_plate_2p5mm
100
AcDbLine
 10
46.887831669
 20
199.445302479
 30
0.000000000
 11
46.887831669
 21
196.232818265
 31
0.000000000
  0
LINE
  5
A6F
330
A02
100
AcDbEntity
  8
Top_plate_2p5mm
100
AcDbLine
 10
57.890334263
 20
193.410656341
 30
0.000000000
 11
48.475812067
 21
200.254177655
 31
0.000000000
  0
LINE
  5
A70
330
A02
100
AcDbEntity
  8
Top_plate_2p5mm
100
AcDbLine
 10
57.890334263
 20
193.410656341
 30
0.000000000
 11
58.553727608
 21
192.746996219
 31
0.000000000
  0
LINE
  5
A71
330
A02
100
AcDbEntity
  8
Top_plate_2p5mm
100
AcDbLine
 10
58.553727608
 20
192.746996219
 30
0.000000000
 11
58.979637153
 21
191.910852363
 31
0.000000000
  0
LINE
  5
A72
330
A02
100
AcDbEntity
  8
Top_plate_2p5mm
100
AcDbLine
 10
58.979637153
 20
191.910852363
 30
0.000000000
 11
59.126393068
 21
190.984030811
 31
0.000000000
  0
LINE
  5
A73
330
A02
100
AcDbEntity
  8
Top_plate_2p5mm
100
AcDbLine
 10
32.137831651
 20
173.788087775
 30
0.000000000
 11
32.311136132
 21
173.028791232
 31
0.000000000
  0
LINE
  5
A74
330
A02
100
AcDbEntity
  8
Top_plate_2p5mm
100
AcDbLine
 10
32.311136132
 20
173.028791232
 30
0.000000000
 11
32.796724498
 21
172.419882681
 31
0.000000000
  0
LINE
  5
A75
330
A02
100
AcDbEntity
  8
Top_plate_2p5mm
100
AcDbLine
 10
32.796724498
 20
172.419882681
 30
0.000000000
 11
33.498420017
 21
172.081963929
 31
0.000000000
  0
LINE
  5
A76
330
A02
100
AcDbEntity
  8
Top_plate_2p5mm
100
AcDbLine
 10
33.498420017
 20
172.081963929
 30
0.000000000
 11
34.277243285
 21
172.081963929
 31
0.000000000
  0
LINE
  5
A77
330
A02
100
AcDbEntity
  8
Top_plate_2p5mm
100
AcDbLine
 10
34.277243285
 20
172.081963929
 30
0.000000000
 11
34.978938804
 21
172.419882681
 31
0.000000000
  0
LINE
  5
A78
330
A02
100
AcDbEntity
  8
Top_plate_2p5mm
100
AcDbLine
 10
34.978938804
 20
172.419882681
 30
0.000000000
 11
35.464527170
 21
173.028791232
 31
0.000000000
  0
LINE
  5
A79
330
A02
100
AcDbEntity
  8
Top_plate_2p5mm
100
AcDbLine
 10
35.464527170
 20
173.028791232
 30
0.000000000
 11
35.637831651
 21
173.788087775
 31
0.000000000
  0
LINE
  5
A7A
330
A02
100
AcDbEntity
  8
Top_plate_2p5mm
100
AcDbLine
 10
35.637831651
 20
173.788087775
 30
0.000000000
 11
35.464527170
 21
174.547384319
 31
0.000000000
  0
LINE
  5
A7B
330
A02
100
AcDbEntity
  8
Top_plate_2p5mm
100
AcDbLine
 10
35.464527170
 20
174.547384319
 30
0.000000000
 11
34.978938804
 21
175.156292870
 31
0.000000000
  0
LINE
  5
A7C
330
A02
100
AcDbEntity
  8
Top_plate_2p5mm
100
AcDbLine
 10
34.978938804
 20
175.156292870
 30
0.000000000
 11
34.277243285
 21
175.494211622
 31
0.000000000
  0
LINE
  5
A7D
330
A02
100
AcDbEntity
  8
Top_plate_2p5mm
100
AcDbLine
 10
34.277243285
 20
175.494211622
 30
0.000000000
 11
33.498420017
 21
175.494211622
 31
0.000000000
  0
LINE
  5
A7E
330
A02
100
AcDbEntity
  8
Top_plate_2p5mm
100
AcDbLine
 10
33.498420017
 20
175.494211622
 30
0.000000000
 11
32.796724498
 21
175.156292870
 31
0.000000000
  0
LINE
  5
A7F
330
A02
100
AcDbEntity
  8
Top_plate_2p5mm
100
AcDbLine
 10
32.796724498
 20
175.156292870
 30
0.000000000
 11
32.311136132
 21
174.547384319
 31
0.000000000
  0
LINE
  5
A80
330
A02
100
AcDbEntity
  8
Top_plate_2p5mm
100
AcDbLine
 10
32.311136132
 20
174.547384319
 30
0.000000000
 11
32.137831651
 21
173.788087775
 31
0.000000000
  0
LINE
  5
A81
330
A02
100
AcDbEntity
  8
Top_plate_2p5mm
100
AcDbLine
 10
32.137831651
 20
83.714405742
 30
0.000000000
 11
32.311136132
 21
82.955109199
 31
0.000000000
  0
LINE
  5
A82
330
A02
100
AcDbEntity
  8
Top_plate_2p5mm
100
AcDbLine
 10
32.311136132
 20
82.955109199
 30
0.000000000
 11
32.796724498
 21
82.346200648
 31
0.000000000
  0
LINE
  5
A83
330
A02
100
AcDbEntity
  8
Top_plate_2p5mm
100
AcDbLine
 10
32.796724498
 20
82.346200648
 30
0.000000000
 11
33.498420017
 21
82.008281896
 31
0.000000000
  0
LINE
  5
A84
330
A02
100
AcDbEntity
  8
Top_plate_2p5mm
100
AcDbLine
 10
33.498420017
 20
82.008281896
 30
0.000000000
 11
34.277243285
 21
82.008281896
 31
0.000000000
  0
LINE
  5
A85
330
A02
100
AcDbEntity
  8
Top_plate_2p5mm
100
AcDbLine
 10
34.277243285
 20
82.008281896
 30
0.000000000
 11
34.978938804
 21
82.346200648
 31
0.000000000
  0
LINE
  5
A86
330
A02
100
AcDbEntity
  8
Top_plate_2p5mm
100
AcDbLine
 10
34.978938804
 20
82.346200648
 30
0.000000000
 11
35.464527170
 21
82.955109199
 31
0.000000000
  0
LINE
  5
A87
330
A02
100
AcDbEntity
  8
Top_plate_2p5mm
100
AcDbLine
 10
35.464527170
 20
82.955109199
 30
0.000000000
 11
35.637831651
 21
83.714405742
 31
0.000000000
  0
LINE
  5
A88
330
A02
100
AcDbEntity
  8
Top_plate_2p5mm
100
AcDbLine
 10
35.637831651
 20
83.714405742
 30
0.000000000
 11
35.464527170
 21
84.473702286
 31
0.000000000
  0
LINE
  5
A89
330
A02
100
AcDbEntity
  8
Top_plate_2p5mm
100
AcDbLine
 10
35.464527170
 20
84.473702286
 30
0.000000000
 11
34.978938804
 21
85.082610836
 31
0.000000000
  0
LINE
  5
A8A
330
A02
100
AcDbEntity
  8
Top_plate_2p5mm
100
AcDbLine
 10
34.978938804
 20
85.082610836
 30
0.000000000
 11
34.277243285
 21
85.420529588
 31
0.000000000
  0
LINE
  5
A8B
330
A02
100
AcDbEntity
  8
Top_plate_2p5mm
100
AcDbLine
 10
34.277243285
 20
85.420529588
 30
0.000000000
 11
33.498420017
 21
85.420529588
 31
0.000000000
  0
LINE
  5
A8C
330
A02
100
AcDbEntity
  8
Top_plate_2p5mm
100
AcDbLine
 10
33.498420017
 20
85.420529588
 30
0.000000000
 11
32.796724498
 21
85.082610836
 31
0.000000000
  0
LINE
  5
A8D
330
A02
100
AcDbEntity
  8
Top_plate_2p5mm
100
AcDbLine
 10
32.796724498
 20
85.082610836
 30
0.000000000
 11
32.311136132
 21
84.473702286
 31
0.000000000
  0
LINE
  5
A8E
330
A02
100
AcDbEntity
  8
Top_plate_2p5mm
100
AcDbLine
 10
32.311136132
 20
84.473702286
 30
0.000000000
 11
32.137831651
 21
83.714405742
 31
0.000000000
  0
LINE
  5
A8F
330
A02
100
AcDbEntity
  8
Top_plate_2p5mm
100
AcDbLine
 10
8.661365146
 20
155.960265305
 30
0.000000000
 11
8.833181108
 21
156.657350063
 31
0.000000000
  0
LINE
  5
A90
330
A02
100
AcDbEntity
  8
Top_plate_2p5mm
100
AcDbLine
 10
8.833181108
 20
156.657350063
 30
0.000000000
 11
9.309268026
 21
157.194741103
 31
0.000000000
  0
LINE
  5
A91
330
A02
100
AcDbEntity
  8
Top_plate_2p5mm
100
AcDbLine
 10
9.309268026
 20
157.194741103
 30
0.000000000
 11
9.980560126
 21
157.449328616
 31
0.000000000
  0
LINE
  5
A92
330
A02
100
AcDbEntity
  8
Top_plate_2p5mm
100
AcDbLine
 10
9.980560126
 20
157.449328616
 30
0.000000000
 11
10.693272477
 21
157.362789669
 31
0.000000000
  0
LINE
  5
A93
330
A02
100
AcDbEntity
  8
Top_plate_2p5mm
100
AcDbLine
 10
10.693272477
 20
157.362789669
 30
0.000000000
 11
11.284131269
 21
156.954949292
 31
0.000000000
  0
LINE
  5
A94
330
A02
100
AcDbEntity
  8
Top_plate_2p5mm
100
AcDbLine
 10
11.284131269
 20
156.954949292
 30
0.000000000
 11
11.617777872
 21
156.319238801
 31
0.000000000
  0
LINE
  5
A95
330
A02
100
AcDbEntity
  8
Top_plate_2p5mm
100
AcDbLine
 10
11.617777872
 20
156.319238801
 30
0.000000000
 11
11.617777872
 21
155.601291808
 31
0.000000000
  0
LINE
  5
A96
330
A02
100
AcDbEntity
  8
Top_plate_2p5mm
100
AcDbLine
 10
11.617777872
 20
155.601291808
 30
0.000000000
 11
11.284131269
 21
154.965581317
 31
0.000000000
  0
LINE
  5
A97
330
A02
100
AcDbEntity
  8
Top_plate_2p5mm
100
AcDbLine
 10
11.284131269
 20
154.965581317
 30
0.000000000
 11
10.693272477
 21
154.557740941
 31
0.000000000
  0
LINE
  5
A98
330
A02
100
AcDbEntity
  8
Top_plate_2p5mm
100
AcDbLine
 10
10.693272477
 20
154.557740941
 30
0.000000000
 11
9.980560126
 21
154.471201993
 31
0.000000000
  0
LINE
  5
A99
330
A02
100
AcDbEntity
  8
Top_plate_2p5mm
100
AcDbLine
 10
9.980560126
 20
154.471201993
 30
0.000000000
 11
9.309268026
 21
154.725789506
 31
0.000000000
  0
LINE
  5
A9A
330
A02
100
AcDbEntity
  8
Top_plate_2p5mm
100
AcDbLine
 10
9.309268026
 20
154.725789506
 30
0.000000000
 11
8.833181108
 21
155.263180546
 31
0.000000000
  0
LINE
  5
A9B
330
A02
100
AcDbEntity
  8
Top_plate_2p5mm
100
AcDbLine
 10
8.833181108
 20
155.263180546
 30
0.000000000
 11
8.661365146
 21
155.960265305
 31
0.000000000
  0
LINE
  5
A9C
330
A02
100
AcDbEntity
  8
Top_plate_2p5mm
100
AcDbLine
 10
8.411365146
 20
73.607661881
 30
0.000000000
 11
8.584669627
 21
72.848365337
 31
0.000000000
  0
LINE
  5
A9D
330
A02
100
AcDbEntity
  8
Top_plate_2p5mm
100
AcDbLine
 10
8.584669627
 20
72.848365337
 30
0.000000000
 11
9.070257993
 21
72.239456786
 31
0.000000000
  0
LINE
  5
A9E
330
A02
100
AcDbEntity
  8
Top_plate_2p5mm
100
AcDbLine
 10
9.070257993
 20
72.239456786
 30
0.000000000
 11
9.771953512
 21
71.901538034
 31
0.000000000
  0
LINE
  5
A9F
330
A02
100
AcDbEntity
  8
Top_plate_2p5mm
100
AcDbLine
 10
9.771953512
 20
71.901538034
 30
0.000000000
 11
10.550776781
 21
71.901538034
 31
0.000000000
  0
LINE
  5
AA0
330
A02
100
AcDbEntity
  8
Top_plate_2p5mm
100
AcDbLine
 10
10.550776781
 20
71.901538034
 30
0.000000000
 11
11.252472300
 21
72.239456786
 31
0.000000000
  0
LINE
  5
AA1
330
A02
100
AcDbEntity
  8
Top_plate_2p5mm
100
AcDbLine
 10
11.252472300
 20
72.239456786
 30
0.000000000
 11
11.738060665
 21
72.848365337
 31
0.000000000
  0
LINE
  5
AA2
330
A02
100
AcDbEntity
  8
Top_plate_2p5mm
100
AcDbLine
 10
11.738060665
 20
72.848365337
 30
0.000000000
 11
11.911365146
 21
73.607661881
 31
0.000000000
  0
LINE
  5
AA3
330
A02
100
AcDbEntity
  8
Top_plate_2p5mm
100
AcDbLine
 10
11.911365146
 20
73.607661881
 30
0.000000000
 11
11.738060665
 21
74.366958424
 31
0.000000000
  0
LINE
  5
AA4
330
A02
100
AcDbEntity
  8
Top_plate_2p5mm
100
AcDbLine
 10
11.738060665
 20
74.366958424
 30
0.000000000
 11
11.252472300
 21
74.975866975
 31
0.000000000
  0
LINE
  5
AA5
330
A02
100
AcDbEntity
  8
Top_plate_2p5mm
100
AcDbLine
 10
11.252472300
 20
74.975866975
 30
0.000000000
 11
10.550776781
 21
75.313785727
 31
0.000000000
  0
LINE
  5
AA6
330
A02
100
AcDbEntity
  8
Top_plate_2p5mm
100
AcDbLine
 10
10.550776781
 20
75.313785727
 30
0.000000000
 11
9.771953512
 21
75.313785727
 31
0.000000000
  0
LINE
  5
AA7
330
A02
100
AcDbEntity
  8
Top_plate_2p5mm
100
AcDbLine
 10
9.771953512
 20
75.313785727
 30
0.000000000
 11
9.070257993
 21
74.975866975
 31
0.000000000
  0
LINE
  5
AA8
330
A02
100
AcDbEntity
  8
Top_plate_2p5mm
100
AcDbLine
 10
9.070257993
 20
74.975866975
 30
0.000000000
 11
8.584669627
 21
74.366958424
 31
0.000000000
  0
LINE
  5
AA9
330
A02
100
AcDbEntity
  8
Top_plate_2p5mm
100
AcDbLine
 10
8.584669627
 20
74.366958424
 30
0.000000000
 11
8.411365146
 21
73.607661881
 31
0.000000000
  0
LINE
  5
AAA
330
A02
100
AcDbEntity
  8
Top_plate_2p5mm
100
AcDbLine
 10
55.864298156
 20
73.607661881
 30
0.000000000
 11
56.037602637
 21
72.848365337
 31
0.000000000
  0
LINE
  5
AAB
330
A02
100
AcDbEntity
  8
Top_plate_2p5mm
100
AcDbLine
 10
56.037602637
 20
72.848365337
 30
0.000000000
 11
56.523191002
 21
72.239456786
 31
0.000000000
  0
LINE
  5
AAC
330
A02
100
AcDbEntity
  8
Top_plate_2p5mm
100
AcDbLine
 10
56.523191002
 20
72.239456786
 30
0.000000000
 11
57.224886521
 21
71.901538034
 31
0.000000000
  0
LINE
  5
AAD
330
A02
100
AcDbEntity
  8
Top_plate_2p5mm
100
AcDbLine
 10
57.224886521
 20
71.901538034
 30
0.000000000
 11
58.003709790
 21
71.901538034
 31
0.000000000
  0
LINE
  5
AAE
330
A02
100
AcDbEntity
  8
Top_plate_2p5mm
100
AcDbLine
 10
58.003709790
 20
71.901538034
 30
0.000000000
 11
58.705405309
 21
72.239456786
 31
0.000000000
  0
LINE
  5
AAF
330
A02
100
AcDbEntity
  8
Top_plate_2p5mm
100
AcDbLine
 10
58.705405309
 20
72.239456786
 30
0.000000000
 11
59.190993674
 21
72.848365337
 31
0.000000000
  0
LINE
  5
AB0
330
A02
100
AcDbEntity
  8
Top_plate_2p5mm
100
AcDbLine
 10
59.190993674
 20
72.848365337
 30
0.000000000
 11
59.364298156
 21
73.607661881
 31
0.000000000
  0
LINE
  5
AB1
330
A02
100
AcDbEntity
  8
Top_plate_2p5mm
100
AcDbLine
 10
59.364298156
 20
73.607661881
 30
0.000000000
 11
59.190993674
 21
74.366958424
 31
0.000000000
  0
LINE
  5
AB2
330
A02
100
AcDbEntity
  8
Top_plate_2p5mm
100
AcDbLine
 10
59.190993674
 20
74.366958424
 30
0.000000000
 11
58.705405309
 21
74.975866975
 31
0.000000000
  0
LINE
  5
AB3
330
A02
100
AcDbEntity
  8
Top_plate_2p5mm
100
AcDbLine
 10
58.705405309
 20
74.975866975
 30
0.000000000
 11
58.003709790
 21
75.313785727
 31
0.000000000
  0
LINE
  5
AB4
330
A02
100
AcDbEntity
  8
Top_plate_2p5mm
100
AcDbLine
 10
58.003709790
 20
75.313785727
 30
0.000000000
 11
57.224886521
 21
75.313785727
 31
0.000000000
  0
LINE
  5
AB5
330
A02
100
AcDbEntity
  8
Top_plate_2p5mm
100
AcDbLine
 10
57.224886521
 20
75.313785727
 30
0.000000000
 11
56.523191002
 21
74.975866975
 31
0.000000000
  0
LINE
  5
AB6
330
A02
100
AcDbEntity
  8
Top_plate_2p5mm
100
AcDbLine
 10
56.523191002
 20
74.975866975
 30
0.000000000
 11
56.037602637
 21
74.366958424
 31
0.000000000
  0
LINE
  5
AB7
330
A02
100
AcDbEntity
  8
Top_plate_2p5mm
100
AcDbLine
 10
56.037602637
 20
74.366958424
 30
0.000000000
 11
55.864298156
 21
73.607661881
 31
0.000000000
  0
LINE
  5
AB8
330
A02
100
AcDbEntity
  8
Top_plate_2p5mm
100
AcDbLine
 10
46.548548274
 20
10.791563326
 30
0.000000000
 11
46.721852755
 21
10.032266782
 31
0.000000000
  0
LINE
  5
AB9
330
A02
100
AcDbEntity
  8
Top_plate_2p5mm
100
AcDbLine
 10
46.721852755
 20
10.032266782
 30
0.000000000
 11
47.207441121
 21
9.423358232
 31
0.000000000
  0
LINE
  5
ABA
330
A02
100
AcDbEntity
  8
Top_plate_2p5mm
100
AcDbLine
 10
47.207441121
 20
9.423358232
 30
0.000000000
 11
47.909136640
 21
9.085439480
 31
0.000000000
  0
LINE
  5
ABB
330
A02
100
AcDbEntity
  8
Top_plate_2p5mm
100
AcDbLine
 10
47.909136640
 20
9.085439480
 30
0.000000000
 11
48.687959909
 21
9.085439480
 31
0.000000000
  0
LINE
  5
ABC
330
A02
100
AcDbEntity
  8
Top_plate_2p5mm
100
AcDbLine
 10
48.687959909
 20
9.085439480
 30
0.000000000
 11
49.389655428
 21
9.423358232
 31
0.000000000
  0
LINE
  5
ABD
330
A02
100
AcDbEntity
  8
Top_plate_2p5mm
100
AcDbLine
 10
49.389655428
 20
9.423358232
 30
0.000000000
 11
49.875243793
 21
10.032266782
 31
0.000000000
  0
LINE
  5
ABE
330
A02
100
AcDbEntity
  8
Top_plate_2p5mm
100
AcDbLine
 10
49.875243793
 20
10.032266782
 30
0.000000000
 11
50.048548274
 21
10.791563326
 31
0.000000000
  0
LINE
  5
ABF
330
A02
100
AcDbEntity
  8
Top_plate_2p5mm
100
AcDbLine
 10
50.048548274
 20
10.791563326
 30
0.000000000
 11
49.875243793
 21
11.550859869
 31
0.000000000
  0
LINE
  5
AC0
330
A02
100
AcDbEntity
  8
Top_plate_2p5mm
100
AcDbLine
 10
49.875243793
 20
11.550859869
 30
0.000000000
 11
49.389655428
 21
12.159768420
 31
0.000000000
  0
LINE
  5
AC1
330
A02
100
AcDbEntity
  8
Top_plate_2p5mm
100
AcDbLine
 10
49.389655428
 20
12.159768420
 30
0.000000000
 11
48.687959909
 21
12.497687172
 31
0.000000000
  0
LINE
  5
AC2
330
A02
100
AcDbEntity
  8
Top_plate_2p5mm
100
AcDbLine
 10
48.687959909
 20
12.497687172
 30
0.000000000
 11
47.909136640
 21
12.497687172
 31
0.000000000
  0
LINE
  5
AC3
330
A02
100
AcDbEntity
  8
Top_plate_2p5mm
100
AcDbLine
 10
47.909136640
 20
12.497687172
 30
0.000000000
 11
47.207441121
 21
12.159768420
 31
0.000000000
  0
LINE
  5
AC4
330
A02
100
AcDbEntity
  8
Top_plate_2p5mm
100
AcDbLine
 10
47.207441121
 20
12.159768420
 30
0.000000000
 11
46.721852755
 21
11.550859869
 31
0.000000000
  0
LINE
  5
AC5
330
A02
100
AcDbEntity
  8
Top_plate_2p5mm
100
AcDbLine
 10
46.721852755
 20
11.550859869
 30
0.000000000
 11
46.548548274
 21
10.791563326
 31
0.000000000
  0
LINE
  5
AC6
330
A02
100
AcDbEntity
  8
Top_plate_2p5mm
100
AcDbLine
 10
17.727115028
 20
10.791563326
 30
0.000000000
 11
17.900419509
 21
10.032266782
 31
0.000000000
  0
LINE
  5
AC7
330
A02
100
AcDbEntity
  8
Top_plate_2p5mm
100
AcDbLine
 10
17.900419509
 20
10.032266782
 30
0.000000000
 11
18.386007874
 21
9.423358232
 31
0.000000000
  0
LINE
  5
AC8
330
A02
100
AcDbEntity
  8
Top_plate_2p5mm
100
AcDbLine
 10
18.386007874
 20
9.423358232
 30
0.000000000
 11
19.087703393
 21
9.085439480
 31
0.000000000
  0
LINE
  5
AC9
330
A02
100
AcDbEntity
  8
Top_plate_2p5mm
100
AcDbLine
 10
19.087703393
 20
9.085439480
 30
0.000000000
 11
19.866526662
 21
9.085439480
 31
0.000000000
  0
LINE
  5
ACA
330
A02
100
AcDbEntity
  8
Top_plate_2p5mm
100
AcDbLine
 10
19.866526662
 20
9.085439480
 30
0.000000000
 11
20.568222181
 21
9.423358232
 31
0.000000000
  0
LINE
  5
ACB
330
A02
100
AcDbEntity
  8
Top_plate_2p5mm
100
AcDbLine
 10
20.568222181
 20
9.423358232
 30
0.000000000
 11
21.053810546
 21
10.032266782
 31
0.000000000
  0
LINE
  5
ACC
330
A02
100
AcDbEntity
  8
Top_plate_2p5mm
100
AcDbLine
 10
21.053810546
 20
10.032266782
 30
0.000000000
 11
21.227115028
 21
10.791563326
 31
0.000000000
  0
LINE
  5
ACD
330
A02
100
AcDbEntity
  8
Top_plate_2p5mm
100
AcDbLine
 10
21.227115028
 20
10.791563326
 30
0.000000000
 11
21.053810546
 21
11.550859869
 31
0.000000000
  0
LINE
  5
ACE
330
A02
100
AcDbEntity
  8
Top_plate_2p5mm
100
AcDbLine
 10
21.053810546
 20
11.550859869
 30
0.000000000
 11
20.568222181
 21
12.159768420
 31
0.000000000
  0
LINE
  5
ACF
330
A02
100
AcDbEntity
  8
Top_plate_2p5mm
100
AcDbLine
 10
20.568222181
 20
12.159768420
 30
0.000000000
 11
19.866526662
 21
12.497687172
 31
0.000000000
  0
LINE
  5
AD0
330
A02
100
AcDbEntity
  8
Top_plate_2p5mm
100
AcDbLine
 10
19.866526662
 20
12.497687172
 30
0.000000000
 11
19.087703393
 21
12.497687172
 31
0.000000000
  0
LINE
  5
AD1
330
A02
100
AcDbEntity
  8
Top_plate_2p5mm
100
AcDbLine
 10
19.087703393
 20
12.497687172
 30
0.000000000
 11
18.386007874
 21
12.159768420
 31
0.000000000
  0
LINE
  5
AD2
330
A02
100
AcDbEntity
  8
Top_plate_2p5mm
100
AcDbLine
 10
18.386007874
 20
12.159768420
 30
0.000000000
 11
17.900419509
 21
11.550859869
 31
0.000000000
  0
LINE
  5
AD3
330
A02
100
AcDbEntity
  8
Top_plate_2p5mm
100
AcDbLine
 10
17.900419509
 20
11.550859869
 30
0.000000000
 11
17.727115028
 21
10.791563326
 31
0.000000000
  0
LINE
  5
AD4
330
A02
100
AcDbEntity
  8
Top_plate_2p5mm
100
AcDbLine
 10
20.908370744
 20
127.283963593
 30
0.000000000
 11
21.408370744
 21
127.149988996
 31
0.000000000
  0
LINE
  5
AD5
330
A02
100
AcDbEntity
  8
Top_plate_2p5mm
100
AcDbLine
 10
21.408370744
 20
127.149988996
 30
0.000000000
 11
21.774396148
 21
126.783963593
 31
0.000000000
  0
LINE
  5
AD6
330
A02
100
AcDbEntity
  8
Top_plate_2p5mm
100
AcDbLine
 10
21.774396148
 20
126.783963593
 30
0.000000000
 11
21.908370744
 21
126.283963593
 31
0.000000000
  0
LINE
  5
AD7
330
A02
100
AcDbEntity
  8
Top_plate_2p5mm
100
AcDbLine
 10
43.767831669
 20
187.712452032
 30
0.000000000
 11
43.297603454
 21
187.865238420
 31
0.000000000
  0
LINE
  5
AD8
330
A02
100
AcDbEntity
  8
Top_plate_2p5mm
100
AcDbLine
 10
43.297603454
 20
187.865238420
 30
0.000000000
 11
43.006986426
 21
188.265238416
 31
0.000000000
  0
LINE
  5
AD9
330
A02
100
AcDbEntity
  8
Top_plate_2p5mm
100
AcDbLine
 10
43.006986426
 20
188.265238416
 30
0.000000000
 11
43.006986414
 21
188.759665613
 31
0.000000000
  0
LINE
  5
ADA
330
A02
100
AcDbEntity
  8
Top_plate_2p5mm
100
AcDbLine
 10
43.006986414
 20
188.759665613
 30
0.000000000
 11
43.297603424
 21
189.159665623
 31
0.000000000
  0
LINE
  5
ADB
330
A02
100
AcDbEntity
  8
Top_plate_2p5mm
100
AcDbLine
 10
43.297603424
 20
189.159665623
 30
0.000000000
 11
43.767831631
 21
189.312452032
 31
0.000000000
  0
LINE
  5
ADC
330
A02
100
AcDbEntity
  8
Top_plate_2p5mm
100
AcDbLine
 10
43.767831669
 20
184.812468923
 30
0.000000000
 11
43.767831669
 21
187.712452032
 31
0.000000000
  0
LINE
  5
ADD
330
A02
100
AcDbEntity
  8
Top_plate_2p5mm
100
AcDbLine
 10
43.767831631
 20
189.312452032
 30
0.000000000
 11
46.887831669
 21
189.312452032
 31
0.000000000
  0
LINE
  5
ADE
330
A02
100
AcDbEntity
  8
Top_plate_2p5mm
100
AcDbLine
 10
46.887831669
 20
189.312452032
 30
0.000000000
 11
47.358059871
 21
189.159665628
 31
0.000000000
  0
LINE
  5
ADF
330
A02
100
AcDbEntity
  8
Top_plate_2p5mm
100
AcDbLine
 10
47.358059871
 20
189.159665628
 30
0.000000000
 11
47.648676882
 21
188.759665628
 31
0.000000000
  0
LINE
  5
AE0
330
A02
100
AcDbEntity
  8
Top_plate_2p5mm
100
AcDbLine
 10
47.648676882
 20
188.759665628
 30
0.000000000
 11
47.648676882
 21
188.265238437
 31
0.000000000
  0
LINE
  5
AE1
330
A02
100
AcDbEntity
  8
Top_plate_2p5mm
100
AcDbLine
 10
47.648676882
 20
188.265238437
 30
0.000000000
 11
47.358059871
 21
187.865238437
 31
0.000000000
  0
LINE
  5
AE2
330
A02
100
AcDbEntity
  8
Top_plate_2p5mm
100
AcDbLine
 10
47.358059871
 20
187.865238437
 30
0.000000000
 11
46.887831669
 21
187.712452032
 31
0.000000000
  0
LINE
  5
AE3
330
A02
100
AcDbEntity
  8
Top_plate_2p5mm
100
AcDbLine
 10
46.887831669
 20
187.712452032
 30
0.000000000
 11
46.887831669
 21
184.812468923
 31
0.000000000
  0
LINE
  5
AE4
330
A02
100
AcDbEntity
  8
Top_plate_2p5mm
100
AcDbLine
 10
46.887831669
 20
184.812468923
 30
0.000000000
 11
47.358059871
 21
184.659682519
 31
0.000000000
  0
LINE
  5
AE5
330
A02
100
AcDbEntity
  8
Top_plate_2p5mm
100
AcDbLine
 10
47.358059871
 20
184.659682519
 30
0.000000000
 11
47.648676882
 21
184.259682519
 31
0.000000000
  0
LINE
  5
AE6
330
A02
100
AcDbEntity
  8
Top_plate_2p5mm
100
AcDbLine
 10
47.648676882
 20
184.259682519
 30
0.000000000
 11
47.648676882
 21
183.765255328
 31
0.000000000
  0
LINE
  5
AE7
330
A02
100
AcDbEntity
  8
Top_plate_2p5mm
100
AcDbLine
 10
47.648676882
 20
183.765255328
 30
0.000000000
 11
47.358059871
 21
183.365255328
 31
0.000000000
  0
LINE
  5
AE8
330
A02
100
AcDbEntity
  8
Top_plate_2p5mm
100
AcDbLine
 10
47.358059871
 20
183.365255328
 30
0.000000000
 11
46.887831669
 21
183.212468923
 31
0.000000000
  0
LINE
  5
AE9
330
A02
100
AcDbEntity
  8
Top_plate_2p5mm
100
AcDbLine
 10
46.887831669
 20
183.212468923
 30
0.000000000
 11
43.767831632
 21
183.212468923
 31
0.000000000
  0
LINE
  5
AEA
330
A02
100
AcDbEntity
  8
Top_plate_2p5mm
100
AcDbLine
 10
43.767831632
 20
183.212468923
 30
0.000000000
 11
43.297603424
 21
183.365255332
 31
0.000000000
  0
LINE
  5
AEB
330
A02
100
AcDbEntity
  8
Top_plate_2p5mm
100
AcDbLine
 10
43.297603424
 20
183.365255332
 30
0.000000000
 11
43.006986414
 21
183.765255342
 31
0.000000000
  0
LINE
  5
AEC
330
A02
100
AcDbEntity
  8
Top_plate_2p5mm
100
AcDbLine
 10
43.006986414
 20
183.765255342
 30
0.000000000
 11
43.006986426
 21
184.259682540
 31
0.000000000
  0
LINE
  5
AED
330
A02
100
AcDbEntity
  8
Top_plate_2p5mm
100
AcDbLine
 10
43.006986426
 20
184.259682540
 30
0.000000000
 11
43.297603454
 21
184.659682536
 31
0.000000000
  0
LINE
  5
AEE
330
A02
100
AcDbEntity
  8
Top_plate_2p5mm
100
AcDbLine
 10
43.297603454
 20
184.659682536
 30
0.000000000
 11
43.767831669
 21
184.812468923
 31
0.000000000
  0
LINE
  5
AEF
330
A02
100
AcDbEntity
  8
Top_plate_2p5mm
100
AcDbLine
 10
12.307457922
 20
188.364581664
 30
0.000000000
 11
12.479273884
 21
189.061666422
 31
0.000000000
  0
LINE
  5
AF0
330
A02
100
AcDbEntity
  8
Top_plate_2p5mm
100
AcDbLine
 10
12.479273884
 20
189.061666422
 30
0.000000000
 11
12.955360802
 21
189.599057462
 31
0.000000000
  0
LINE
  5
AF1
330
A02
100
AcDbEntity
  8
Top_plate_2p5mm
100
AcDbLine
 10
12.955360802
 20
189.599057462
 30
0.000000000
 11
13.626652902
 21
189.853644975
 31
0.000000000
  0
LINE
  5
AF2
330
A02
100
AcDbEntity
  8
Top_plate_2p5mm
100
AcDbLine
 10
13.626652902
 20
189.853644975
 30
0.000000000
 11
14.339365253
 21
189.767106028
 31
0.000000000
  0
LINE
  5
AF3
330
A02
100
AcDbEntity
  8
Top_plate_2p5mm
100
AcDbLine
 10
14.339365253
 20
189.767106028
 30
0.000000000
 11
14.930224044
 21
189.359265651
 31
0.000000000
  0
LINE
  5
AF4
330
A02
100
AcDbEntity
  8
Top_plate_2p5mm
100
AcDbLine
 10
14.930224044
 20
189.359265651
 30
0.000000000
 11
15.263870648
 21
188.723555160
 31
0.000000000
  0
LINE
  5
AF5
330
A02
100
AcDbEntity
  8
Top_plate_2p5mm
100
AcDbLine
 10
15.263870648
 20
188.723555160
 30
0.000000000
 11
15.263870648
 21
188.005608167
 31
0.000000000
  0
LINE
  5
AF6
330
A02
100
AcDbEntity
  8
Top_plate_2p5mm
100
AcDbLine
 10
15.263870648
 20
188.005608167
 30
0.000000000
 11
14.930224044
 21
187.369897676
 31
0.000000000
  0
LINE
  5
AF7
330
A02
100
AcDbEntity
  8
Top_plate_2p5mm
100
AcDbLine
 10
14.930224044
 20
187.369897676
 30
0.000000000
 11
14.339365253
 21
186.962057300
 31
0.000000000
  0
LINE
  5
AF8
330
A02
100
AcDbEntity
  8
Top_plate_2p5mm
100
AcDbLine
 10
14.339365253
 20
186.962057300
 30
0.000000000
 11
13.626652902
 21
186.875518352
 31
0.000000000
  0
LINE
  5
AF9
330
A02
100
AcDbEntity
  8
Top_plate_2p5mm
100
AcDbLine
 10
13.626652902
 20
186.875518352
 30
0.000000000
 11
12.955360802
 21
187.130105865
 31
0.000000000
  0
LINE
  5
AFA
330
A02
100
AcDbEntity
  8
Top_plate_2p5mm
100
AcDbLine
 10
12.955360802
 20
187.130105865
 30
0.000000000
 11
12.479273884
 21
187.667496906
 31
0.000000000
  0
LINE
  5
AFB
330
A02
100
AcDbEntity
  8
Top_plate_2p5mm
100
AcDbLine
 10
12.479273884
 20
187.667496906
 30
0.000000000
 11
12.307457922
 21
188.364581664
 31
0.000000000
  0
LINE
  5
AFC
330
A02
100
AcDbEntity
  8
Top_plate_2p5mm
100
AcDbLine
 10
52.468205380
 20
188.364581664
 30
0.000000000
 11
52.640021341
 21
189.061666422
 31
0.000000000
  0
LINE
  5
AFD
330
A02
100
AcDbEntity
  8
Top_plate_2p5mm
100
AcDbLine
 10
52.640021341
 20
189.061666422
 30
0.000000000
 11
53.116108260
 21
189.599057462
 31
0.000000000
  0
LINE
  5
AFE
330
A02
100
AcDbEntity
  8
Top_plate_2p5mm
100
AcDbLine
 10
53.116108260
 20
189.599057462
 30
0.000000000
 11
53.787400359
 21
189.853644975
 31
0.000000000
  0
LINE
  5
AFF
330
A02
100
AcDbEntity
  8
Top_plate_2p5mm
100
AcDbLine
 10
53.787400359
 20
189.853644975
 30
0.000000000
 11
54.500112710
 21
189.767106028
 31
0.000000000
  0
LINE
  5
B00
330
A02
100
AcDbEntity
  8
Top_plate_2p5mm
100
AcDbLine
 10
54.500112710
 20
189.767106028
 30
0.000000000
 11
55.090971502
 21
189.359265651
 31
0.000000000
  0
LINE
  5
B01
330
A02
100
AcDbEntity
  8
Top_plate_2p5mm
100
AcDbLine
 10
55.090971502
 20
189.359265651
 30
0.000000000
 11
55.424618106
 21
188.723555160
 31
0.000000000
  0
LINE
  5
B02
330
A02
100
AcDbEntity
  8
Top_plate_2p5mm
100
AcDbLine
 10
55.424618106
 20
188.723555160
 30
0.000000000
 11
55.424618106
 21
188.005608167
 31
0.000000000
  0
LINE
  5
B03
330
A02
100
AcDbEntity
  8
Top_plate_2p5mm
100
AcDbLine
 10
55.424618106
 20
188.005608167
 30
0.000000000
 11
55.090971502
 21
187.369897676
 31
0.000000000
  0
LINE
  5
B04
330
A02
100
AcDbEntity
  8
Top_plate_2p5mm
100
AcDbLine
 10
55.090971502
 20
187.369897676
 30
0.000000000
 11
54.500112710
 21
186.962057300
 31
0.000000000
  0
LINE
  5
B05
330
A02
100
AcDbEntity
  8
Top_plate_2p5mm
100
AcDbLine
 10
54.500112710
 20
186.962057300
 30
0.000000000
 11
53.787400359
 21
186.875518352
 31
0.000000000
  0
LINE
  5
B06
330
A02
100
AcDbEntity
  8
Top_plate_2p5mm
100
AcDbLine
 10
53.787400359
 20
186.875518352
 30
0.000000000
 11
53.116108260
 21
187.130105865
 31
0.000000000
  0
LINE
  5
B07
330
A02
100
AcDbEntity
  8
Top_plate_2p5mm
100
AcDbLine
 10
53.116108260
 20
187.130105865
 30
0.000000000
 11
52.640021341
 21
187.667496906
 31
0.000000000
  0
LINE
  5
B08
330
A02
100
AcDbEntity
  8
Top_plate_2p5mm
100
AcDbLine
 10
52.640021341
 20
187.667496906
 30
0.000000000
 11
52.468205380
 21
188.364581664
 31
0.000000000
  0
LINE
  5
B09
330
A02
100
AcDbEntity
  8
Top_plate_2p5mm
100
AcDbLine
 10
20.887831633
 20
187.712452032
 30
0.000000000
 11
20.417603431
 21
187.865238437
 31
0.000000000
  0
LINE
  5
B0A
330
A02
100
AcDbEntity
  8
Top_plate_2p5mm
100
AcDbLine
 10
20.417603431
 20
187.865238437
 30
0.000000000
 11
20.126986420
 21
188.265238437
 31
0.000000000
  0
LINE
  5
B0B
330
A02
100
AcDbEntity
  8
Top_plate_2p5mm
100
AcDbLine
 10
20.126986420
 20
188.265238437
 30
0.000000000
 11
20.126986420
 21
188.759665628
 31
0.000000000
  0
LINE
  5
B0C
330
A02
100
AcDbEntity
  8
Top_plate_2p5mm
100
AcDbLine
 10
20.126986420
 20
188.759665628
 30
0.000000000
 11
20.417603431
 21
189.159665628
 31
0.000000000
  0
LINE
  5
B0D
330
A02
100
AcDbEntity
  8
Top_plate_2p5mm
100
AcDbLine
 10
20.417603431
 20
189.159665628
 30
0.000000000
 11
20.887831633
 21
189.312452032
 31
0.000000000
  0
LINE
  5
B0E
330
A02
100
AcDbEntity
  8
Top_plate_2p5mm
100
AcDbLine
 10
20.887831633
 20
184.812468923
 30
0.000000000
 11
20.887831633
 21
187.712452032
 31
0.000000000
  0
LINE
  5
B0F
330
A02
100
AcDbEntity
  8
Top_plate_2p5mm
100
AcDbLine
 10
20.887831633
 20
189.312452032
 30
0.000000000
 11
24.007831671
 21
189.312452032
 31
0.000000000
  0
LINE
  5
B10
330
A02
100
AcDbEntity
  8
Top_plate_2p5mm
100
AcDbLine
 10
24.007831671
 20
189.312452032
 30
0.000000000
 11
24.478059878
 21
189.159665623
 31
0.000000000
  0
LINE
  5
B11
330
A02
100
AcDbEntity
  8
Top_plate_2p5mm
100
AcDbLine
 10
24.478059878
 20
189.159665623
 30
0.000000000
 11
24.768676888
 21
188.759665613
 31
0.000000000
  0
LINE
  5
B12
330
A02
100
AcDbEntity
  8
Top_plate_2p5mm
100
AcDbLine
 10
24.768676888
 20
188.759665613
 30
0.000000000
 11
24.768676876
 21
188.265238416
 31
0.000000000
  0
LINE
  5
B13
330
A02
100
AcDbEntity
  8
Top_plate_2p5mm
100
AcDbLine
 10
24.768676876
 20
188.265238416
 30
0.000000000
 11
24.478059848
 21
187.865238420
 31
0.000000000
  0
LINE
  5
B14
330
A02
100
AcDbEntity
  8
Top_plate_2p5mm
100
AcDbLine
 10
24.478059848
 20
187.865238420
 30
0.000000000
 11
24.007831633
 21
187.712452032
 31
0.000000000
  0
LINE
  5
B15
330
A02
100
AcDbEntity
  8
Top_plate_2p5mm
100
AcDbLine
 10
24.007831633
 20
187.712452032
 30
0.000000000
 11
24.007831633
 21
184.812468923
 31
0.000000000
  0
LINE
  5
B16
330
A02
100
AcDbEntity
  8
Top_plate_2p5mm
100
AcDbLine
 10
24.007831634
 20
184.812468923
 30
0.000000000
 11
24.478059849
 21
184.659682535
 31
0.000000000
  0
LINE
  5
B17
330
A02
100
AcDbEntity
  8
Top_plate_2p5mm
100
AcDbLine
 10
24.478059849
 20
184.659682535
 30
0.000000000
 11
24.768676876
 21
184.259682539
 31
0.000000000
  0
LINE
  5
B18
330
A02
100
AcDbEntity
  8
Top_plate_2p5mm
100
AcDbLine
 10
24.768676876
 20
184.259682539
 30
0.000000000
 11
24.768676887
 21
183.765255341
 31
0.000000000
  0
LINE
  5
B19
330
A02
100
AcDbEntity
  8
Top_plate_2p5mm
100
AcDbLine
 10
24.768676887
 20
183.765255341
 30
0.000000000
 11
24.478059878
 21
183.365255332
 31
0.000000000
  0
LINE
  5
B1A
330
A02
100
AcDbEntity
  8
Top_plate_2p5mm
100
AcDbLine
 10
24.478059878
 20
183.365255332
 30
0.000000000
 11
24.007831670
 21
183.212468923
 31
0.000000000
  0
LINE
  5
B1B
330
A02
100
AcDbEntity
  8
Top_plate_2p5mm
100
AcDbLine
 10
24.007831670
 20
183.212468923
 30
0.000000000
 11
20.887831633
 21
183.212468923
 31
0.000000000
  0
LINE
  5
B1C
330
A02
100
AcDbEntity
  8
Top_plate_2p5mm
100
AcDbLine
 10
20.887831633
 20
183.212468923
 30
0.000000000
 11
20.417603431
 21
183.365255328
 31
0.000000000
  0
LINE
  5
B1D
330
A02
100
AcDbEntity
  8
Top_plate_2p5mm
100
AcDbLine
 10
20.417603431
 20
183.365255328
 30
0.000000000
 11
20.126986420
 21
183.765255328
 31
0.000000000
  0
LINE
  5
B1E
330
A02
100
AcDbEntity
  8
Top_plate_2p5mm
100
AcDbLine
 10
20.126986420
 20
183.765255328
 30
0.000000000
 11
20.126986420
 21
184.259682519
 31
0.000000000
  0
LINE
  5
B1F
330
A02
100
AcDbEntity
  8
Top_plate_2p5mm
100
AcDbLine
 10
20.126986420
 20
184.259682519
 30
0.000000000
 11
20.417603431
 21
184.659682519
 31
0.000000000
  0
LINE
  5
B20
330
A02
100
AcDbEntity
  8
Top_plate_2p5mm
100
AcDbLine
 10
20.417603431
 20
184.659682519
 30
0.000000000
 11
20.887831633
 21
184.812468923
 31
0.000000000
  0
LINE
  5
B21
330
A02
100
AcDbEntity
  8
Top_plate_2p5mm
100
AcDbLine
 10
24.264128548
 20
39.110849874
 30
0.000000000
 11
22.764128548
 21
39.110849874
 31
0.000000000
  0
LINE
  5
B22
330
A02
100
AcDbEntity
  8
Top_plate_2p5mm
100
AcDbLine
 10
35.410019895
 20
16.777194516
 30
0.000000000
 11
44.548783733
 21
6.054075634
 31
0.000000000
  0
LINE
  5
B23
330
A02
100
AcDbEntity
  8
Top_plate_2p5mm
100
AcDbLine
 10
32.365643407
 20
16.777194516
 30
0.000000000
 11
33.049549426
 21
17.295753809
 31
0.000000000
  0
LINE
  5
B24
330
A02
100
AcDbEntity
  8
Top_plate_2p5mm
100
AcDbLine
 10
33.049549426
 20
17.295753809
 30
0.000000000
 11
33.887831651
 21
17.479911605
 31
0.000000000
  0
LINE
  5
B25
330
A02
100
AcDbEntity
  8
Top_plate_2p5mm
100
AcDbLine
 10
33.887831651
 20
17.479911605
 30
0.000000000
 11
34.726113876
 21
17.295753809
 31
0.000000000
  0
LINE
  5
B26
330
A02
100
AcDbEntity
  8
Top_plate_2p5mm
100
AcDbLine
 10
34.726113876
 20
17.295753809
 30
0.000000000
 11
35.410019895
 21
16.777194516
 31
0.000000000
  0
LINE
  5
B27
330
A02
100
AcDbEntity
  8
Top_plate_2p5mm
100
AcDbLine
 10
46.832066098
 20
5.000000000
 30
0.000000000
 11
45.979003519
 21
5.123842105
 31
0.000000000
  0
LINE
  5
B28
330
A02
100
AcDbEntity
  8
Top_plate_2p5mm
100
AcDbLine
 10
45.979003519
 20
5.123842105
 30
0.000000000
 11
45.196370984
 21
5.485143843
 31
0.000000000
  0
LINE
  5
B29
330
A02
100
AcDbEntity
  8
Top_plate_2p5mm
100
AcDbLine
 10
45.196370984
 20
5.485143843
 30
0.000000000
 11
44.548783733
 21
6.054075634
 31
0.000000000
  0
LINE
  5
B2A
330
A02
100
AcDbEntity
  8
Top_plate_2p5mm
100
AcDbLine
 10
46.832066098
 20
5.000000000
 30
0.000000000
 11
50.306892565
 21
5.000000000
 31
0.000000000
  0
LINE
  5
B2B
330
A02
100
AcDbEntity
  8
Top_plate_2p5mm
100
AcDbLine
 10
53.306892565
 20
8.000000000
 30
0.000000000
 11
53.160062114
 21
7.072949017
 31
0.000000000
  0
LINE
  5
B2C
330
A02
100
AcDbEntity
  8
Top_plate_2p5mm
100
AcDbLine
 10
53.160062114
 20
7.072949017
 30
0.000000000
 11
52.733943548
 21
6.236644243
 31
0.000000000
  0
LINE
  5
B2D
330
A02
100
AcDbEntity
  8
Top_plate_2p5mm
100
AcDbLine
 10
52.733943548
 20
6.236644243
 30
0.000000000
 11
52.070248322
 21
5.572949017
 31
0.000000000
  0
LINE
  5
B2E
330
A02
100
AcDbEntity
  8
Top_plate_2p5mm
100
AcDbLine
 10
52.070248322
 20
5.572949017
 30
0.000000000
 11
51.233943548
 21
5.146830451
 31
0.000000000
  0
LINE
  5
B2F
330
A02
100
AcDbEntity
  8
Top_plate_2p5mm
100
AcDbLine
 10
51.233943548
 20
5.146830451
 30
0.000000000
 11
50.306892565
 21
5.000000000
 31
0.000000000
  0
LINE
  5
B30
330
A02
100
AcDbEntity
  8
Top_plate_2p5mm
100
AcDbLine
 10
53.306892565
 20
8.000000000
 30
0.000000000
 11
53.306892565
 21
59.080747483
 31
0.000000000
  0
LINE
  5
B31
330
A02
100
AcDbEntity
  8
Top_plate_2p5mm
100
AcDbLine
 10
53.306892565
 20
59.080747483
 30
0.000000000
 11
53.409115086
 21
59.857204618
 31
0.000000000
  0
LINE
  5
B32
330
A02
100
AcDbEntity
  8
Top_plate_2p5mm
100
AcDbLine
 10
53.409115086
 20
59.857204618
 30
0.000000000
 11
53.708816354
 21
60.580747483
 31
0.000000000
  0
LINE
  5
B33
330
A02
100
AcDbEntity
  8
Top_plate_2p5mm
100
AcDbLine
 10
53.708816354
 20
60.580747483
 30
0.000000000
 11
54.185572222
 21
61.202067827
 31
0.000000000
  0
LINE
  5
B34
330
A02
100
AcDbEntity
  8
Top_plate_2p5mm
100
AcDbLine
 10
54.185572222
 20
61.202067827
 30
0.000000000
 11
61.896983645
 21
68.913479250
 31
0.000000000
  0
LINE
  5
B35
330
A02
100
AcDbEntity
  8
Top_plate_2p5mm
100
AcDbLine
 10
62.775663302
 20
71.034799594
 30
0.000000000
 11
62.673440781
 21
70.258342459
 31
0.000000000
  0
LINE
  5
B36
330
A02
100
AcDbEntity
  8
Top_plate_2p5mm
100
AcDbLine
 10
62.673440781
 20
70.258342459
 30
0.000000000
 11
62.373739513
 21
69.534799594
 31
0.000000000
  0
LINE
  5
B37
330
A02
100
AcDbEntity
  8
Top_plate_2p5mm
100
AcDbLine
 10
62.373739513
 20
69.534799594
 30
0.000000000
 11
61.896983645
 21
68.913479250
 31
0.000000000
  0
LINE
  5
B38
330
A02
100
AcDbEntity
  8
Top_plate_2p5mm
100
AcDbLine
 10
62.775663302
 20
71.034799594
 30
0.000000000
 11
62.775663302
 21
76.118115146
 31
0.000000000
  0
LINE
  5
B39
330
A02
100
AcDbEntity
  8
Top_plate_2p5mm
100
AcDbLine
 10
61.766789658
 20
78.362088371
 30
0.000000000
 11
62.312070539
 21
77.720188281
 31
0.000000000
  0
LINE
  5
B3A
330
A02
100
AcDbEntity
  8
Top_plate_2p5mm
100
AcDbLine
 10
62.312070539
 20
77.720188281
 30
0.000000000
 11
62.657435475
 21
76.952015107
 31
0.000000000
  0
LINE
  5
B3B
330
A02
100
AcDbEntity
  8
Top_plate_2p5mm
100
AcDbLine
 10
62.657435475
 20
76.952015107
 30
0.000000000
 11
62.775663302
 21
76.118115146
 31
0.000000000
  0
LINE
  5
B3C
330
A02
100
AcDbEntity
  8
Top_plate_2p5mm
100
AcDbLine
 10
61.766789658
 20
78.362088371
 30
0.000000000
 11
56.965036443
 21
82.622788667
 31
0.000000000
  0
LINE
  5
B3D
330
A02
100
AcDbEntity
  8
Top_plate_2p5mm
100
AcDbLine
 10
56.965036443
 20
82.622788667
 30
0.000000000
 11
56.419755563
 21
83.264688757
 31
0.000000000
  0
LINE
  5
B3E
330
A02
100
AcDbEntity
  8
Top_plate_2p5mm
100
AcDbLine
 10
56.419755563
 20
83.264688757
 30
0.000000000
 11
56.074390627
 21
84.032861931
 31
0.000000000
  0
LINE
  5
B3F
330
A02
100
AcDbEntity
  8
Top_plate_2p5mm
100
AcDbLine
 10
56.074390627
 20
84.032861931
 30
0.000000000
 11
55.956162799
 21
84.866761892
 31
0.000000000
  0
LINE
  5
B40
330
A02
100
AcDbEntity
  8
Top_plate_2p5mm
100
AcDbLine
 10
55.956162799
 20
84.866761892
 30
0.000000000
 11
55.956162799
 21
144.701165293
 31
0.000000000
  0
LINE
  5
B41
330
A02
100
AcDbEntity
  8
Top_plate_2p5mm
100
AcDbLine
 10
55.956162799
 20
144.701165293
 30
0.000000000
 11
56.074390627
 21
145.535065254
 31
0.000000000
  0
LINE
  5
B42
330
A02
100
AcDbEntity
  8
Top_plate_2p5mm
100
AcDbLine
 10
56.074390627
 20
145.535065254
 30
0.000000000
 11
56.419755563
 21
146.303238428
 31
0.000000000
  0
LINE
  5
B43
330
A02
100
AcDbEntity
  8
Top_plate_2p5mm
100
AcDbLine
 10
56.419755563
 20
146.303238428
 30
0.000000000
 11
56.965036443
 21
146.945138518
 31
0.000000000
  0
LINE
  5
B44
330
A02
100
AcDbEntity
  8
Top_plate_2p5mm
100
AcDbLine
 10
56.965036443
 20
146.945138518
 30
0.000000000
 11
61.766789658
 21
151.205838814
 31
0.000000000
  0
LINE
  5
B45
330
A02
100
AcDbEntity
  8
Top_plate_2p5mm
100
AcDbLine
 10
62.775663302
 20
153.449812039
 30
0.000000000
 11
62.657435475
 21
152.615912078
 31
0.000000000
  0
LINE
  5
B46
330
A02
100
AcDbEntity
  8
Top_plate_2p5mm
100
AcDbLine
 10
62.657435475
 20
152.615912078
 30
0.000000000
 11
62.312070539
 21
151.847738904
 31
0.000000000
  0
LINE
  5
B47
330
A02
100
AcDbEntity
  8
Top_plate_2p5mm
100
AcDbLine
 10
62.312070539
 20
151.847738904
 30
0.000000000
 11
61.766789658
 21
151.205838814
 31
0.000000000
  0
LINE
  5
B48
330
A02
100
AcDbEntity
  8
Top_plate_2p5mm
100
AcDbLine
 10
62.775663302
 20
153.449812039
 30
0.000000000
 11
62.775663302
 21
158.533127591
 31
0.000000000
  0
LINE
  5
B49
330
A02
100
AcDbEntity
  8
Top_plate_2p5mm
100
AcDbLine
 10
61.896983645
 20
160.654447935
 30
0.000000000
 11
62.373739513
 21
160.033127591
 31
0.000000000
  0
LINE
  5
B4A
330
A02
100
AcDbEntity
  8
Top_plate_2p5mm
100
AcDbLine
 10
62.373739513
 20
160.033127591
 30
0.000000000
 11
62.673440781
 21
159.309584727
 31
0.000000000
  0
LINE
  5
B4B
330
A02
100
AcDbEntity
  8
Top_plate_2p5mm
100
AcDbLine
 10
62.673440781
 20
159.309584727
 30
0.000000000
 11
62.775663302
 21
158.533127591
 31
0.000000000
  0
LINE
  5
B4C
330
A02
100
AcDbEntity
  8
Top_plate_2p5mm
100
AcDbLine
 10
61.896983645
 20
160.654447935
 30
0.000000000
 11
55.185572222
 21
167.365859359
 31
0.000000000
  0
LINE
  5
B4D
330
A02
100
AcDbEntity
  8
Top_plate_2p5mm
100
AcDbLine
 10
55.185572222
 20
167.365859359
 30
0.000000000
 11
54.708816354
 21
167.987179702
 31
0.000000000
  0
LINE
  5
B4E
330
A02
100
AcDbEntity
  8
Top_plate_2p5mm
100
AcDbLine
 10
54.708816354
 20
167.987179702
 30
0.000000000
 11
54.409115086
 21
168.710722567
 31
0.000000000
  0
LINE
  5
B4F
330
A02
100
AcDbEntity
  8
Top_plate_2p5mm
100
AcDbLine
 10
54.409115086
 20
168.710722567
 30
0.000000000
 11
54.306892565
 21
169.487179702
 31
0.000000000
  0
LINE
  5
B50
330
A02
100
AcDbEntity
  8
Top_plate_2p5mm
100
AcDbLine
 10
54.306892565
 20
169.487179702
 30
0.000000000
 11
54.306892565
 21
178.880125248
 31
0.000000000
  0
LINE
  5
B51
330
A02
100
AcDbEntity
  8
Top_plate_2p5mm
100
AcDbLine
 10
54.306892565
 20
178.880125248
 30
0.000000000
 11
54.425120393
 21
179.714025209
 31
0.000000000
  0
LINE
  5
B52
330
A02
100
AcDbEntity
  8
Top_plate_2p5mm
100
AcDbLine
 10
54.425120393
 20
179.714025209
 30
0.000000000
 11
54.770485328
 21
180.482198383
 31
0.000000000
  0
LINE
  5
B53
330
A02
100
AcDbEntity
  8
Top_plate_2p5mm
100
AcDbLine
 10
54.770485328
 20
180.482198383
 30
0.000000000
 11
55.315766209
 21
181.124098473
 31
0.000000000
  0
LINE
  5
B54
330
A02
100
AcDbEntity
  8
Top_plate_2p5mm
100
AcDbLine
 10
55.315766209
 20
181.124098473
 30
0.000000000
 11
58.117519424
 21
183.610155173
 31
0.000000000
  0
LINE
  5
B55
330
A02
100
AcDbEntity
  8
Top_plate_2p5mm
100
AcDbLine
 10
59.126393068
 20
185.854128398
 30
0.000000000
 11
59.008165240
 21
185.020228437
 31
0.000000000
  0
LINE
  5
B56
330
A02
100
AcDbEntity
  8
Top_plate_2p5mm
100
AcDbLine
 10
59.008165240
 20
185.020228437
 30
0.000000000
 11
58.662800304
 21
184.252055263
 31
0.000000000
  0
LINE
  5
B57
330
A02
100
AcDbEntity
  8
Top_plate_2p5mm
100
AcDbLine
 10
58.662800304
 20
184.252055263
 30
0.000000000
 11
58.117519424
 21
183.610155173
 31
0.000000000
  0
LINE
  5
B58
330
A02
100
AcDbEntity
  8
Top_plate_2p5mm
100
AcDbLine
 10
59.126393068
 20
185.854128398
 30
0.000000000
 11
59.126393068
 21
190.984030811
 31
0.000000000
  0
LINE
  5
B59
330
A02
100
AcDbEntity
  8
Top_plate_2p5mm
100
AcDbLine
 10
46.887831669
 20
196.232818265
 30
0.000000000
 11
47.358059871
 21
196.080031861
 31
0.000000000
  0
LINE
  5
B5A
330
A02
100
AcDbEntity
  8
Top_plate_2p5mm
100
AcDbLine
 10
47.358059871
 20
196.080031861
 30
0.000000000
 11
47.648676882
 21
195.680031861
 31
0.000000000
  0
LINE
  5
B5B
330
A02
100
AcDbEntity
  8
Top_plate_2p5mm
100
AcDbLine
 10
47.648676882
 20
195.680031861
 30
0.000000000
 11
47.648676882
 21
195.185604670
 31
0.000000000
  0
LINE
  5
B5C
330
A02
100
AcDbEntity
  8
Top_plate_2p5mm
100
AcDbLine
 10
47.648676882
 20
195.185604670
 30
0.000000000
 11
47.358059871
 21
194.785604670
 31
0.000000000
  0
LINE
  5
B5D
330
A02
100
AcDbEntity
  8
Top_plate_2p5mm
100
AcDbLine
 10
47.358059871
 20
194.785604670
 30
0.000000000
 11
46.887831669
 21
194.632818265
 31
0.000000000
  0
LINE
  5
B5E
330
A02
100
AcDbEntity
  8
Top_plate_2p5mm
100
AcDbLine
 10
46.887831669
 20
194.632818265
 30
0.000000000
 11
43.767831632
 21
194.632818265
 31
0.000000000
  0
LINE
  5
B5F
330
A02
100
AcDbEntity
  8
Top_plate_2p5mm
100
AcDbLine
 10
24.007831651
 20
197.300531883
 30
0.000000000
 11
24.007831652
 21
196.232818265
 31
0.000000000
  0
LINE
  5
B60
330
A02
100
AcDbEntity
  8
Top_plate_2p5mm
100
AcDbLine
 10
24.007831640
 20
196.232818265
 30
0.000000000
 11
24.478059848
 21
196.080031872
 31
0.000000000
  0
LINE
  5
B61
330
A02
100
AcDbEntity
  8
Top_plate_2p5mm
100
AcDbLine
 10
24.478059848
 20
196.080031872
 30
0.000000000
 11
24.768676869
 21
195.680031876
 31
0.000000000
  0
LINE
  5
B62
330
A02
100
AcDbEntity
  8
Top_plate_2p5mm
100
AcDbLine
 10
24.768676869
 20
195.680031876
 30
0.000000000
 11
24.768676878
 21
195.185604683
 31
0.000000000
  0
LINE
  5
B63
330
A02
100
AcDbEntity
  8
Top_plate_2p5mm
100
AcDbLine
 10
24.768676878
 20
195.185604683
 30
0.000000000
 11
24.478059872
 21
194.785604676
 31
0.000000000
  0
LINE
  5
B64
330
A02
100
AcDbEntity
  8
Top_plate_2p5mm
100
AcDbLine
 10
24.478059872
 20
194.785604676
 30
0.000000000
 11
24.007831670
 21
194.632818265
 31
0.000000000
  0
LINE
  5
B65
330
A02
100
AcDbEntity
  8
Top_plate_2p5mm
100
AcDbLine
 10
24.007831670
 20
194.632818265
 30
0.000000000
 11
20.887831633
 21
194.632818265
 31
0.000000000
  0
LINE
  5
B66
330
A02
100
AcDbEntity
  8
Top_plate_2p5mm
100
AcDbLine
 10
20.887831633
 20
194.632818265
 30
0.000000000
 11
20.417603431
 21
194.785604670
 31
0.000000000
  0
LINE
  5
B67
330
A02
100
AcDbEntity
  8
Top_plate_2p5mm
100
AcDbLine
 10
20.417603431
 20
194.785604670
 30
0.000000000
 11
20.126986420
 21
195.185604670
 31
0.000000000
  0
LINE
  5
B68
330
A02
100
AcDbEntity
  8
Top_plate_2p5mm
100
AcDbLine
 10
20.126986420
 20
195.185604670
 30
0.000000000
 11
20.126986420
 21
195.680031861
 31
0.000000000
  0
LINE
  5
B69
330
A02
100
AcDbEntity
  8
Top_plate_2p5mm
100
AcDbLine
 10
20.126986420
 20
195.680031861
 30
0.000000000
 11
20.417603431
 21
196.080031861
 31
0.000000000
  0
LINE
  5
B6A
330
A02
100
AcDbEntity
  8
Top_plate_2p5mm
100
AcDbLine
 10
20.417603431
 20
196.080031861
 30
0.000000000
 11
20.887831633
 21
196.232818265
 31
0.000000000
  0
LINE
  5
B6B
330
A02
100
AcDbEntity
  8
Top_plate_2p5mm
100
AcDbLine
 10
8.649270234
 20
190.984030811
 30
0.000000000
 11
8.796026149
 21
191.910852363
 31
0.000000000
  0
LINE
  5
B6C
330
A02
100
AcDbEntity
  8
Top_plate_2p5mm
100
AcDbLine
 10
8.796026149
 20
191.910852363
 30
0.000000000
 11
9.221935694
 21
192.746996219
 31
0.000000000
  0
LINE
  5
B6D
330
A02
100
AcDbEntity
  8
Top_plate_2p5mm
100
AcDbLine
 10
9.221935694
 20
192.746996219
 30
0.000000000
 11
9.885329039
 21
193.410656341
 31
0.000000000
  0
LINE
  5
B6E
330
A02
100
AcDbEntity
  8
Top_plate_2p5mm
100
AcDbLine
 10
8.649270234
 20
190.984030811
 30
0.000000000
 11
8.649270234
 21
185.854128398
 31
0.000000000
  0
LINE
  5
B6F
330
A02
100
AcDbEntity
  8
Top_plate_2p5mm
100
AcDbLine
 10
9.658143878
 20
183.610155173
 30
0.000000000
 11
9.112862997
 21
184.252055263
 31
0.000000000
  0
LINE
  5
B70
330
A02
100
AcDbEntity
  8
Top_plate_2p5mm
100
AcDbLine
 10
9.112862997
 20
184.252055263
 30
0.000000000
 11
8.767498062
 21
185.020228437
 31
0.000000000
  0
LINE
  5
B71
330
A02
100
AcDbEntity
  8
Top_plate_2p5mm
100
AcDbLine
 10
8.767498062
 20
185.020228437
 30
0.000000000
 11
8.649270234
 21
185.854128398
 31
0.000000000
  0
LINE
  5
B72
330
A02
100
AcDbEntity
  8
Top_plate_2p5mm
100
AcDbLine
 10
9.658143878
 20
183.610155173
 30
0.000000000
 11
12.459897093
 21
181.124098473
 31
0.000000000
  0
LINE
  5
B73
330
A02
100
AcDbEntity
  8
Top_plate_2p5mm
100
AcDbLine
 10
12.459897093
 20
181.124098473
 30
0.000000000
 11
13.005177973
 21
180.482198383
 31
0.000000000
  0
LINE
  5
B74
330
A02
100
AcDbEntity
  8
Top_plate_2p5mm
100
AcDbLine
 10
13.005177973
 20
180.482198383
 30
0.000000000
 11
13.350542909
 21
179.714025209
 31
0.000000000
  0
LINE
  5
B75
330
A02
100
AcDbEntity
  8
Top_plate_2p5mm
100
AcDbLine
 10
13.350542909
 20
179.714025209
 30
0.000000000
 11
13.468770737
 21
178.880125248
 31
0.000000000
  0
LINE
  5
B76
330
A02
100
AcDbEntity
  8
Top_plate_2p5mm
100
AcDbLine
 10
13.468770737
 20
178.880125248
 30
0.000000000
 11
13.468770737
 21
169.487179702
 31
0.000000000
  0
LINE
  5
B77
330
A02
100
AcDbEntity
  8
Top_plate_2p5mm
100
AcDbLine
 10
13.468770737
 20
169.487179702
 30
0.000000000
 11
13.366548216
 21
168.710722567
 31
0.000000000
  0
LINE
  5
B78
330
A02
100
AcDbEntity
  8
Top_plate_2p5mm
100
AcDbLine
 10
13.366548216
 20
168.710722567
 30
0.000000000
 11
13.066846948
 21
167.987179702
 31
0.000000000
  0
LINE
  5
B79
330
A02
100
AcDbEntity
  8
Top_plate_2p5mm
100
AcDbLine
 10
13.066846948
 20
167.987179702
 30
0.000000000
 11
12.590091080
 21
167.365859359
 31
0.000000000
  0
LINE
  5
B7A
330
A02
100
AcDbEntity
  8
Top_plate_2p5mm
100
AcDbLine
 10
12.590091080
 20
167.365859359
 30
0.000000000
 11
5.878679656
 21
160.654447935
 31
0.000000000
  0
LINE
  5
B7B
330
A02
100
AcDbEntity
  8
Top_plate_2p5mm
100
AcDbLine
 10
5.000000000
 20
158.533127591
 30
0.000000000
 11
5.102222521
 21
159.309584727
 31
0.000000000
  0
LINE
  5
B7C
330
A02
100
AcDbEntity
  8
Top_plate_2p5mm
100
AcDbLine
 10
5.102222521
 20
159.309584727
 30
0.000000000
 11
5.401923789
 21
160.033127591
 31
0.000000000
  0
LINE
  5
B7D
330
A02
100
AcDbEntity
  8
Top_plate_2p5mm
100
AcDbLine
 10
5.401923789
 20
160.033127591
 30
0.000000000
 11
5.878679656
 21
160.654447935
 31
0.000000000
  0
LINE
  5
B7E
330
A02
100
AcDbEntity
  8
Top_plate_2p5mm
100
AcDbLine
 10
5.000000000
 20
158.533127591
 30
0.000000000
 11
5.000000000
 21
153.449812039
 31
0.000000000
  0
LINE
  5
B7F
330
A02
100
AcDbEntity
  8
Top_plate_2p5mm
100
AcDbLine
 10
6.008873644
 20
151.205838814
 30
0.000000000
 11
5.463592763
 21
151.847738904
 31
0.000000000
  0
LINE
  5
B80
330
A02
100
AcDbEntity
  8
Top_plate_2p5mm
100
AcDbLine
 10
5.463592763
 20
151.847738904
 30
0.000000000
 11
5.118227827
 21
152.615912078
 31
0.000000000
  0
LINE
  5
B81
330
A02
100
AcDbEntity
  8
Top_plate_2p5mm
100
AcDbLine
 10
5.118227827
 20
152.615912078
 30
0.000000000
 11
5.000000000
 21
153.449812039
 31
0.000000000
  0
LINE
  5
B82
330
A02
100
AcDbEntity
  8
Top_plate_2p5mm
100
AcDbLine
 10
6.008873644
 20
151.205838814
 30
0.000000000
 11
10.810626859
 21
146.945138518
 31
0.000000000
  0
LINE
  5
B83
330
A02
100
AcDbEntity
  8
Top_plate_2p5mm
100
AcDbLine
 10
10.810626859
 20
146.945138518
 30
0.000000000
 11
11.355907739
 21
146.303238428
 31
0.000000000
  0
LINE
  5
B84
330
A02
100
AcDbEntity
  8
Top_plate_2p5mm
100
AcDbLine
 10
11.355907739
 20
146.303238428
 30
0.000000000
 11
11.701272675
 21
145.535065254
 31
0.000000000
  0
LINE
  5
B85
330
A02
100
AcDbEntity
  8
Top_plate_2p5mm
100
AcDbLine
 10
11.701272675
 20
145.535065254
 30
0.000000000
 11
11.819500502
 21
144.701165293
 31
0.000000000
  0
LINE
  5
B86
330
A02
100
AcDbEntity
  8
Top_plate_2p5mm
100
AcDbLine
 10
11.819500502
 20
144.701165293
 30
0.000000000
 11
11.819500502
 21
84.866761892
 31
0.000000000
  0
LINE
  5
B87
330
A02
100
AcDbEntity
  8
Top_plate_2p5mm
100
AcDbLine
 10
11.819500502
 20
84.866761892
 30
0.000000000
 11
11.701272675
 21
84.032861931
 31
0.000000000
  0
LINE
  5
B88
330
A02
100
AcDbEntity
  8
Top_plate_2p5mm
100
AcDbLine
 10
11.701272675
 20
84.032861931
 30
0.000000000
 11
11.355907739
 21
83.264688757
 31
0.000000000
  0
LINE
  5
B89
330
A02
100
AcDbEntity
  8
Top_plate_2p5mm
100
AcDbLine
 10
11.355907739
 20
83.264688757
 30
0.000000000
 11
10.810626859
 21
82.622788667
 31
0.000000000
  0
LINE
  5
B8A
330
A02
100
AcDbEntity
  8
Top_plate_2p5mm
100
AcDbLine
 10
10.810626859
 20
82.622788667
 30
0.000000000
 11
6.008873644
 21
78.362088371
 31
0.000000000
  0
LINE
  5
B8B
330
A02
100
AcDbEntity
  8
Top_plate_2p5mm
100
AcDbLine
 10
5.000000000
 20
76.118115146
 30
0.000000000
 11
5.118227827
 21
76.952015107
 31
0.000000000
  0
LINE
  5
B8C
330
A02
100
AcDbEntity
  8
Top_plate_2p5mm
100
AcDbLine
 10
5.118227827
 20
76.952015107
 30
0.000000000
 11
5.463592763
 21
77.720188281
 31
0.000000000
  0
LINE
  5
B8D
330
A02
100
AcDbEntity
  8
Top_plate_2p5mm
100
AcDbLine
 10
5.463592763
 20
77.720188281
 30
0.000000000
 11
6.008873644
 21
78.362088371
 31
0.000000000
  0
LINE
  5
B8E
330
A02
100
AcDbEntity
  8
Top_plate_2p5mm
100
AcDbLine
 10
5.000000000
 20
76.118115146
 30
0.000000000
 11
5.000000000
 21
71.034799594
 31
0.000000000
  0
LINE
  5
B8F
330
A02
100
AcDbEntity
  8
Top_plate_2p5mm
100
AcDbLine
 10
5.878679656
 20
68.913479250
 30
0.000000000
 11
5.401923789
 21
69.534799594
 31
0.000000000
  0
LINE
  5
B90
330
A02
100
AcDbEntity
  8
Top_plate_2p5mm
100
AcDbLine
 10
5.401923789
 20
69.534799594
 30
0.000000000
 11
5.102222521
 21
70.258342459
 31
0.000000000
  0
LINE
  5
B91
330
A02
100
AcDbEntity
  8
Top_plate_2p5mm
100
AcDbLine
 10
5.102222521
 20
70.258342459
 30
0.000000000
 11
5.000000000
 21
71.034799594
 31
0.000000000
  0
LINE
  5
B92
330
A02
100
AcDbEntity
  8
Top_plate_2p5mm
100
AcDbLine
 10
5.878679656
 20
68.913479250
 30
0.000000000
 11
13.590091080
 21
61.202067827
 31
0.000000000
  0
LINE
  5
B93
330
A02
100
AcDbEntity
  8
Top_plate_2p5mm
100
AcDbLine
 10
13.590091080
 20
61.202067827
 30
0.000000000
 11
14.066846948
 21
60.580747483
 31
0.000000000
  0
LINE
  5
B94
330
A02
100
AcDbEntity
  8
Top_plate_2p5mm
100
AcDbLine
 10
14.066846948
 20
60.580747483
 30
0.000000000
 11
14.366548216
 21
59.857204618
 31
0.000000000
  0
LINE
  5
B95
330
A02
100
AcDbEntity
  8
Top_plate_2p5mm
100
AcDbLine
 10
14.366548216
 20
59.857204618
 30
0.000000000
 11
14.468770737
 21
59.080747483
 31
0.000000000
  0
LINE
  5
B96
330
A02
100
AcDbEntity
  8
Top_plate_2p5mm
100
AcDbLine
 10
14.468770737
 20
59.080747483
 30
0.000000000
 11
14.468770737
 21
8.000000000
 31
0.000000000
  0
LINE
  5
B97
330
A02
100
AcDbEntity
  8
Top_plate_2p5mm
100
AcDbLine
 10
17.468770737
 20
5.000000000
 30
0.000000000
 11
16.541719754
 21
5.146830451
 31
0.000000000
  0
LINE
  5
B98
330
A02
100
AcDbEntity
  8
Top_plate_2p5mm
100
AcDbLine
 10
16.541719754
 20
5.146830451
 30
0.000000000
 11
15.705414980
 21
5.572949017
 31
0.000000000
  0
LINE
  5
B99
330
A02
100
AcDbEntity
  8
Top_plate_2p5mm
100
AcDbLine
 10
15.705414980
 20
5.572949017
 30
0.000000000
 11
15.041719754
 21
6.236644243
 31
0.000000000
  0
LINE
  5
B9A
330
A02
100
AcDbEntity
  8
Top_plate_2p5mm
100
AcDbLine
 10
15.041719754
 20
6.236644243
 30
0.000000000
 11
14.615601188
 21
7.072949017
 31
0.000000000
  0
LINE
  5
B9B
330
A02
100
AcDbEntity
  8
Top_plate_2p5mm
100
AcDbLine
 10
14.615601188
 20
7.072949017
 30
0.000000000
 11
14.468770737
 21
8.000000000
 31
0.000000000
  0
LINE
  5
B9C
330
A02
100
AcDbEntity
  8
Top_plate_2p5mm
100
AcDbLine
 10
17.468770737
 20
5.000000000
 30
0.000000000
 11
20.943597204
 21
5.000000000
 31
0.000000000
  0
LINE
  5
B9D
330
A02
100
AcDbEntity
  8
Top_plate_2p5mm
100
AcDbLine
 10
23.226879569
 20
6.054075634
 30
0.000000000
 11
22.579292318
 21
5.485143843
 31
0.000000000
  0
LINE
  5
B9E
330
A02
100
AcDbEntity
  8
Top_plate_2p5mm
100
AcDbLine
 10
22.579292318
 20
5.485143843
 30
0.000000000
 11
21.796659783
 21
5.123842105
 31
0.000000000
  0
LINE
  5
B9F
330
A02
100
AcDbEntity
  8
Top_plate_2p5mm
100
AcDbLine
 10
21.796659783
 20
5.123842105
 30
0.000000000
 11
20.943597204
 21
5.000000000
 31
0.000000000
  0
LINE
  5
BA0
330
A02
100
AcDbEntity
  8
Top_plate_2p5mm
100
AcDbLine
 10
23.226879569
 20
6.054075634
 30
0.000000000
 11
32.365643407
 21
16.777194516
 31
0.000000000
  0
ENDSEC
  0
SECTION
  2
OBJECTS
  0
DICTIONARY
  5
F000
330
0
100
AcDbDictionary
  3
ACAD_GROUP
350
F001
  0
DICTIONARY
  5
F001
330
F000
100
AcDbDictionary
  0
ENDSEC
  0
EOF