  0
SECTION
  2
HEADER
  9
$ACADVER
  1
AC1027
  9
$ACADMAINTVER
 70
105
  9
$DWGCODEPAGE
  3
ANSI_1252
  9
$LASTSAVEDBY
  1
ezdxf
  9
$REQUIREDVERSIONS
160
0
  9
$INSBASE
 10
0.0
 20
0.0
 30
0.0
  9
$EXTMIN
 10
1e+20
 20
1e+20
 30
1e+20
  9
$EXTMAX
 10
-1e+20
 20
-1e+20
 30
-1e+20
  9
$LIMMIN
 10
0.0
 20
0.0
  9
$LIMMAX
 10
420.0
 20
297.0
  9
$ORTHOMODE
 70
0
  9
$REGENMODE
 70
1
  9
$FILLMODE
 70
1
  9
$QTEXTMODE
 70
0
  9
$MIRRTEXT
 70
1
  9
$LTSCALE
 40
1.0
  9
$ATTMODE
 70
1
  9
$TEXTSIZE
 40
2.5
  9
$TRACEWID
 40
1.0
  9
$TEXTSTYLE
  7
Standard
  9
$CLAYER
  8
0
  9
$CELTYPE
  6
ByLayer
  9
$CECOLOR
 62
256
  9
$CELTSCALE
 40
1.0
  9
$DISPSILH
 70
0
  9
$DIMSCALE
 40
1.0
  9
$DIMASZ
 40
2.5
  9
$DIMEXO
 40
0.625
  9
$DIMDLI
 40
3.75
  9
$DIMRND
 40
0.0
  9
$DIMDLE
 40
0.0
  9
$DIMEXE
 40
1.25
  9
$DIMTP
 40
0.0
  9
$DIMTM
 40
0.0
  9
$DIMTXT
 40
2.5
  9
$DIMCEN
 40
2.5
  9
$DIMTSZ
 40
0.0
  9
$DIMTOL
 70
0
  9
$DIMLIM
 70
0
  9
$DIMTIH
 70
0
  9
$DIMTOH
 70
0
  9
$DIMSE1
 70
0
  9
$DIMSE2
 70
0
  9
$DIMTAD
 70
1
  9
$DIMZIN
 70
8
  9
$DIMBLK
  1

  9
$DIMASO
 70
1
  9
$DIMSHO
 70
1
  9
$DIMPOST
  1

  9
$DIMAPOST
  1

  9
$DIMALT
 70
0
  9
$DIMALTD
 70
3
  9
$DIMALTF
 40
0.03937007874
  9
$DIMLFAC
 40
1.0
  9
$DIMTOFL
 70
1
  9
$DIMTVP
 40
0.0
  9
$DIMTIX
 70
0
  9
$DIMSOXD
 70
0
  9
$DIMSAH
 70
0
  9
$DIMBLK1
  1

  9
$DIMBLK2
  1

  9
$DIMSTYLE
  2
ISO-25
  9
$DIMCLRD
 70
0
  9
$DIMCLRE
 70
0
  9
$DIMCLRT
 70
0
  9
$DIMTFAC
 40
1.0
  9
$DIMGAP
 40
0.625
  9
$DIMJUST
 70
0
  9
$DIMSD1
 70
0
  9
$DIMSD2
 70
0
  9
$DIMTOLJ
 70
0
  9
$DIMTZIN
 70
8
  9
$DIMALTZ
 70
0
  9
$DIMALTTZ
 70
0
  9
$DIMUPT
 70
0
  9
$DIMDEC
 70
2
  9
$DIMTDEC
 70
2
  9
$DIMALTU
 70
2
  9
$DIMALTTD
 70
3
  9
$DIMTXSTY
  7
Standard
  9
$DIMAUNIT
 70
0
  9
$DIMADEC
 70
0
  9
$DIMALTRND
 40
0.0
  9
$DIMAZIN
 70
0
  9
$DIMDSEP
 70
44
  9
$DIMATFIT
 70
3
  9
$DIMFRAC
 70
0
  9
$DIMLDRBLK
  1

  9
$DIMLUNIT
 70
2
  9
$DIMLWD
 70
-2
  9
$DIMLWE
 70
-2
  9
$DIMTMOVE
 70
0
  9
$DIMFXL
 40
1.0
  9
$DIMFXLON
 70
0
  9
$DIMJOGANG
 40
0.785398163397
  9
$DIMTFILL
 70
0
  9
$DIMTFILLCLR
 70
0
  9
$DIMARCSYM
 70
0
  9
$DIMLTYPE
  6

  9
$DIMLTEX1
  6

  9
$DIMLTEX2
  6

  9
$DIMTXTDIRECTION
 70
0
  9
$LUNITS
 70
2
  9
$LUPREC
 70
4
  9
$SKETCHINC
 40
1.0
  9
$FILLETRAD
 40
10.0
  9
$AUNITS
 70
0
  9
$AUPREC
 70
2
  9
$MENU
  1
.
  9
$ELEVATION
 40
0.0
  9
$PELEVATION
 40
0.0
  9
$THICKNESS
 40
0.0
  9
$LIMCHECK
 70
0
  9
$CHAMFERA
 40
0.0
  9
$CHAMFERB
 40
0.0
  9
$CHAMFERC
 40
0.0
  9
$CHAMFERD
 40
0.0
  9
$SKPOLY
 70
0
  9
$TDCREATE
 40
2461246.532349537
  9
$TDUCREATE
 40
2458532.153996898
  9
$TDUPDATE
 40
2461246.532349537
  9
$TDUUPDATE
 40
2458532.1544311
  9
$TDINDWG
 40
0.0
  9
$TDUSRTIMER
 40
0.0
  9
$USRTIMER
 70
1
  9
$ANGBASE
 50
0.0
  9
$ANGDIR
 70
0
  9
$PDMODE
 70
0
  9
$PDSIZE
 40
0.0
  9
$PLINEWID
 40
0.0
  9
$SPLFRAME
 70
0
  9
$SPLINETYPE
 70
6
  9
$SPLINESEGS
 70
8
  9
$HANDSEED
  5
126
  9
$SURFTAB1
 70
6
  9
$SURFTAB2
 70
6
  9
$SURFTYPE
 70
6
  9
$SURFU
 70
6
  9
$SURFV
 70
6
  9
$UCSBASE
  2

  9
$UCSNAME
  2

  9
$UCSORG
 10
0.0
 20
0.0
 30
0.0
  9
$UCSXDIR
 10
1.0
 20
0.0
 30
0.0
  9
$UCSYDIR
 10
0.0
 20
1.0
 30
0.0
  9
$UCSORTHOREF
  2

  9
$UCSORTHOVIEW
 70
0
  9
$UCSORGTOP
 10
0.0
 20
0.0
 30
0.0
  9
$UCSORGBOTTOM
 10
0.0
 20
0.0
 30
0.0
  9
$UCSORGLEFT
 10
0.0
 20
0.0
 30
0.0
  9
$UCSORGRIGHT
 10
0.0
 20
0.0
 30
0.0
  9
$UCSORGFRONT
 10
0.0
 20
0.0
 30
0.0
  9
$UCSORGBACK
 10
0.0
 20
0.0
 30
0.0
  9
$PUCSBASE
  2

  9
$PUCSNAME
  2

  9
$PUCSORG
 10
0.0
 20
0.0
 30
0.0
  9
$PUCSXDIR
 10
1.0
 20
0.0
 30
0.0
  9
$PUCSYDIR
 10
0.0
 20
1.0
 30
0.0
  9
$PUCSORTHOREF
  2

  9
$PUCSORTHOVIEW
 70
0
  9
$PUCSORGTOP
 10
0.0
 20
0.0
 30
0.0
  9
$PUCSORGBOTTOM
 10
0.0
 20
0.0
 30
0.0
  9
$PUCSORGLEFT
 10
0.0
 20
0.0
 30
0.0
  9
$PUCSORGRIGHT
 10
0.0
 20
0.0
 30
0.0
  9
$PUCSORGFRONT
 10
0.0
 20
0.0
 30
0.0
  9
$PUCSORGBACK
 10
0.0
 20
0.0
 30
0.0
  9
$USERI1
 70
0
  9
$USERI2
 70
0
  9
$USERI3
 70
0
  9
$USERI4
 70
0
  9
$USERI5
 70
0
  9
$USERR1
 40
0.0
  9
$USERR2
 40
0.0
  9
$USERR3
 40
0.0
  9
$USERR4
 40
0.0
  9
$USERR5
 40
0.0
  9
$WORLDVIEW
 70
1
  9
$SHADEDGE
 70
3
  9
$SHADEDIF
 70
70
  9
$TILEMODE
 70
1
  9
$MAXACTVP
 70
64
  9
$PINSBASE
 10
0.0
 20
0.0
 30
0.0
  9
$PLIMCHECK
 70
0
  9
$PEXTMIN
 10
1e+20
 20
1e+20
 30
1e+20
  9
$PEXTMAX
 10
-1e+20
 20
-1e+20
 30
-1e+20
  9
$PLIMMIN
 10
0.0
 20
0.0
  9
$PLIMMAX
 10
420.0
 20
297.0
  9
$UNITMODE
 70
0
  9
$VISRETAIN
 70
1
  9
$PLINEGEN
 70
0
  9
$PSLTSCALE
 70
1
  9
$TREEDEPTH
 70
3020
  9
$CMLSTYLE
  2
Standard
  9
$CMLJUST
 70
0
  9
$CMLSCALE
 40
20.0
  9
$PROXYGRAPHICS
 70
1
  9
$MEASUREMENT
 70
1
  9
$CELWEIGHT
370
-1
  9
$ENDCAPS
280
0
  9
$JOINSTYLE
280
0
  9
$LWDISPLAY
290
0
  9
$INSUNITS
 70
4
  9
$HYPERLINKBASE
  1

  9
$STYLESHEET
  1

  9
$XEDIT
290
1
  9
$CEPSNTYPE
380
0
  9
$PSTYLEMODE
290
1
  9
$FINGERPRINTGUID
  2
{298E4101-242B-4210-996E-D3665B4BCF7C}
  9
$VERSIONGUID
  2
{202640C0-FB7E-4375-BEB7-5AD555D71847}
  9
$EXTNAMES
290
1
  9
$PSVPSCALE
 40
0.0
  9
$OLESTARTUP
290
0
  9
$SORTENTS
280
127
  9
$INDEXCTL
280
0
  9
$HIDETEXT
280
1
  9
$XCLIPFRAME
280
1
  9
$HALOGAP
280
0
  9
$OBSCOLOR
 70
257
  9
$OBSLTYPE
280
0
  9
$INTERSECTIONDISPLAY
280
0
  9
$INTERSECTIONCOLOR
 70
257
  9
$DIMASSOC
280
2
  9
$PROJECTNAME
  1

  9
$CAMERADISPLAY
290
0
  9
$LENSLENGTH
 40
50.0
  9
$CAMERAHEIGHT
 40
0.0
  9
$STEPSPERSEC
 40
24.0
  9
$STEPSIZE
 40
100.0
  9
$3DDWFPREC
 40
2.0
  9
$PSOLWIDTH
 40
0.005
  9
$PSOLHEIGHT
 40
0.08
  9
$LOFTANG1
 40
1.570796326795
  9
$LOFTANG2
 40
1.570796326795
  9
$LOFTMAG1
 40
0.0
  9
$LOFTMAG2
 40
0.0
  9
$LOFTPARAM
 70
7
  9
$LOFTNORMALS
280
1
  9
$LATITUDE
 40
37.795
  9
$LONGITUDE
 40
-122.394
  9
$NORTHDIRECTION
 40
0.0
  9
$TIMEZONE
 70
-8000
  9
$LIGHTGLYPHDISPLAY
280
1
  9
$TILEMODELIGHTSYNCH
280
1
  9
$CMATERIAL
347
20
  9
$SOLIDHIST
280
0
  9
$SHOWHIST
280
1
  9
$DWFFRAME
280
2
  9
$DGNFRAME
280
2
  9
$REALWORLDSCALE
290
1
  9
$INTERFERECOLOR
 62
256
  9
$CSHADOW
280
0
  9
$SHADOWPLANELOCATION
 40
0.0
  0
ENDSEC
  0
SECTION
  2
CLASSES
  0
CLASS
  1
ACDBDICTIONARYWDFLT
  2
AcDbDictionaryWithDefault
  3
ObjectDBX Classes
 90
0
 91
0
280
0
281
0
  0
CLASS
  1
SUN
  2
AcDbSun
  3
SCENEOE
 90
1153
 91
0
280
0
281
0
  0
CLASS
  1
VISUALSTYLE
  2
AcDbVisualStyle
  3
ObjectDBX Classes
 90
4095
 91
0
280
0
281
0
  0
CLASS
  1
MATERIAL
  2
AcDbMaterial
  3
ObjectDBX Classes
 90
1153
 91
0
280
0
281
0
  0
CLASS
  1
SCALE
  2
AcDbScale
  3
ObjectDBX Classes
 90
1153
 91
0
280
0
281
0
  0
CLASS
  1
TABLESTYLE
  2
AcDbTableStyle
  3
ObjectDBX Classes
 90
4095
 91
0
280
0
281
0
  0
CLASS
  1
MLEADERSTYLE
  2
AcDbMLeaderStyle
  3
ACDB_MLEADERSTYLE_CLASS
 90
4095
 91
0
280
0
281
0
  0
CLASS
  1
DICTIONARYVAR
  2
AcDbDictionaryVar
  3
ObjectDBX Classes
 90
0
 91
0
280
0
281
0
  0
CLASS
  1
CELLSTYLEMAP
  2
AcDbCellStyleMap
  3
ObjectDBX Classes
 90
1152
 91
0
280
0
281
0
  0
CLASS
  1
MENTALRAYRENDERSETTINGS
  2
AcDbMentalRayRenderSettings
  3
SCENEOE
 90
1024
 91
0
280
0
281
0
  0
CLASS
  1
ACDBDETAILVIEWSTYLE
  2
AcDbDetailViewStyle
  3
ObjectDBX Classes
 90
1025
 91
0
280
0
281
0
  0
CLASS
  1
ACDBSECTIONVIEWSTYLE
  2
AcDbSectionViewStyle
  3
ObjectDBX Classes
 90
1025
 91
0
280
0
281
0
  0
CLASS
  1
RASTERVARIABLES
  2
AcDbRasterVariables
  3
ISM
 90
0
 91
0
280
0
281
0
  0
CLASS
  1
ACDBPLACEHOLDER
  2
AcDbPlaceHolder
  3
ObjectDBX Classes
 90
0
 91
0
280
0
281
0
  0
CLASS
  1
LAYOUT
  2
AcDbLayout
  3
ObjectDBX Classes
 90
0
 91
0
280
0
281
0
  0
ENDSEC
  0
SECTION
  2
TABLES
  0
TABLE
  2
VPORT
  5
8
330
0
100
AcDbSymbolTable
 70
1
  0
VPORT
  5
23
330
8
100
AcDbSymbolTableRecord
100
AcDbViewportTableRecord
  2
*Active
 70
0
 10
0.0
 20
0.0
 11
1.0
 21
1.0
 12
0.0
 22
0.0
 13
0.0
 23
0.0
 14
0.5
 24
0.5
 15
0.5
 25
0.5
 16
0.0
 26
0.0
 36
1.0
 17
0.0
 27
0.0
 37
0.0
 40
1000.0
 41
1.34
 42
50.0
 43
0.0
 44
0.0
 50
0.0
 51
0.0
 71
0
 72
1000
 73
1
 74
3
 75
0
 76
0
 77
0
 78
0
281
0
 65
0
146
0.0
  0
ENDTAB
  0
TABLE
  2
LTYPE
  5
2
330
0
100
AcDbSymbolTable
 70
3
  0
LTYPE
  5
24
330
2
100
AcDbSymbolTableRecord
100
AcDbLinetypeTableRecord
  2
ByBlock
 70
0
  3

 72
65
 73
0
 40
0.0
  0
LTYPE
  5
25
330
2
100
AcDbSymbolTableRecord
100
AcDbLinetypeTableRecord
  2
ByLayer
 70
0
  3

 72
65
 73
0
 40
0.0
  0
LTYPE
  5
26
330
2
100
AcDbSymbolTableRecord
100
AcDbLinetypeTableRecord
  2
Continuous
 70
0
  3

 72
65
 73
0
 40
0.0
  0
ENDTAB
  0
TABLE
  2
LAYER
  5
1
330
0
100
AcDbSymbolTable
 70
7
  0
LAYER
  5
27
330
1
100
AcDbSymbolTableRecord
100
AcDbLayerTableRecord
  2
0
 70
0
 62
7
  6
Continuous
370
-3
390
13
347
21
  0
LAYER
  5
28
330
1
100
AcDbSymbolTableRecord
100
AcDbLayerTableRecord
  2
Defpoints
 70
0
 62
7
  6
Continuous
290
0
370
-3
390
13
347
21
  0
LAYER
  5
2F
330
1
100
AcDbSymbolTableRecord
100
AcDbLayerTableRecord
  2
CUT
 70
0
 62
7
  6
Continuous
370
-3
390
13
347
21
  0
LAYER
  5
30
330
1
100
AcDbSymbolTableRecord
100
AcDbLayerTableRecord
  2
POCKET
 70
0
 62
7
  6
Continuous
370
-3
390
13
347
21
  0
LAYER
  5
31
330
1
100
AcDbSymbolTableRecord
100
AcDbLayerTableRecord
  2
CHAMFER
 70
0
 62
7
  6
Continuous
370
-3
390
13
347
21
  0
LAYER
  5
32
330
1
100
AcDbSymbolTableRecord
100
AcDbLayerTableRecord
  2
COUNTERSINK
 70
0
 62
7
  6
Continuous
370
-3
390
13
347
21
  0
LAYER
  5
33
330
1
100
AcDbSymbolTableRecord
100
AcDbLayerTableRecord
  2
ANNOTATION
 70
0
 62
7
  6
Continuous
370
-3
390
13
347
21
  0
ENDTAB
  0
TABLE
  2
STYLE
  5
5
330
0
100
AcDbSymbolTable
 70
1
  0
STYLE
  5
29
330
5
100
AcDbSymbolTableRecord
100
AcDbTextStyleTableRecord
  2
Standard
 70
0
 40
0.0
 41
1.0
 50
0.0
 71
0
 42
2.5
  3
txt
  4

  0
ENDTAB
  0
TABLE
  2
VIEW
  5
7
330
0
100
AcDbSymbolTable
 70
0
  0
ENDTAB
  0
TABLE
  2
UCS
  5
6
330
0
100
AcDbSymbolTable
 70
0
  0
ENDTAB
  0
TABLE
  2
APPID
  5
3
330
0
100
AcDbSymbolTable
 70
3
  0
APPID
  5
2A
330
3
100
AcDbSymbolTableRecord
100
AcDbRegAppTableRecord
  2
ACAD
 70
0
  0
APPID
  5
123
330
3
100
AcDbSymbolTableRecord
100
AcDbRegAppTableRecord
  2
HATCHBACKGROUNDCOLOR
 70
0
  0
APPID
  5
124
330
3
100
AcDbSymbolTableRecord
100
AcDbRegAppTableRecord
  2
EZDXF
 70
0
  0
ENDTAB
  0
TABLE
  2
DIMSTYLE
  5
4
330
0
100
AcDbSymbolTable
 70
1
100
AcDbDimStyleTable
  0
DIMSTYLE
105
2B
330
4
100
AcDbSymbolTableRecord
100
AcDbDimStyleTableRecord
  2
Standard
 70
0
 40
1.0
 41
2.5
 42
0.625
 43
3.75
 44
1.25
 45
0.0
 46
0.0
 47
0.0
 48
0.0
 49
2.5
140
2.5
141
2.5
142
0.0
143
0.03937007874
144
1.0
145
0.0
146
1.0
147
0.625
148
0.0
 69
0
 70
0
 71
0
 72
0
 73
0
 74
0
 75
0
 76
0
 77
1
 78
8
 79
3
170
0
171
3
172
1
173
0
174
0
175
0
176
0
177
0
178
0
179
2
271
2
272
2
273
2
274
3
275
0
276
0
277
2
278
44
279
0
280
0
281
0
282
0
283
0
284
8
285
0
286
0
288
0
289
3
290
0
371
-2
372
-2
  0
ENDTAB
  0
TABLE
  2
BLOCK_RECORD
  5
9
330
0
100
AcDbSymbolTable
 70
2
  0
BLOCK_RECORD
  5
17
330
9
100
AcDbSymbolTableRecord
100
AcDbBlockTableRecord
  2
*Model_Space
340
1A
 70
0
280
1
281
0
  0
BLOCK_RECORD
  5
1B
330
9
100
AcDbSymbolTableRecord
100
AcDbBlockTableRecord
  2
*Paper_Space
340
1E
 70
0
280
1
281
0
  0
ENDTAB
  0
ENDSEC
  0
SECTION
  2
BLOCKS
  0
BLOCK
  5
18
330
17
100
AcDbEntity
  8
0
100
AcDbBlockBegin
  2
*Model_Space
 70
0
 10
0.0
 20
0.0
 30
0.0
  3
*Model_Space
  1

  0
ENDBLK
  5
19
330
17
100
AcDbEntity
  8
0
100
AcDbBlockEnd
  0
BLOCK
  5
1C
330
1B
100
AcDbEntity
  8
0
100
AcDbBlockBegin
  2
*Paper_Space
 70
0
 10
0.0
 20
0.0
 30
0.0
  3
*Paper_Space
  1

  0
ENDBLK
  5
1D
330
1B
100
AcDbEntity
  8
0
100
AcDbBlockEnd
  0
ENDSEC
  0
SECTION
  2
ENTITIES
  0
LINE
  5
34
330
17
100
AcDbEntity
  8
CUT
100
AcDbLine
 10
53.438763681310604
 20
125.9347025216781
 30
0.0
 11
16.248653876543585
 21
121.84494576996991
 31
0.0
  0
LINE
  5
35
330
17
100
AcDbEntity
  8
CUT
100
AcDbLine
 10
16.248653876543585
 20
121.84494576996991
 30
0.0
 11
11.158230898454576
 21
121.84494576996991
 31
0.0
  0
LINE
  5
36
330
17
100
AcDbEntity
  8
CUT
100
AcDbLine
 10
16.686098893629378
 20
120.13585079023721
 30
0.0
 11
49.541968524060565
 21
115.70938354325031
 31
0.0
  0
LINE
  5
37
330
17
100
AcDbEntity
  8
CUT
100
AcDbLine
 10
16.876762517154702
 20
118.42828315876619
 30
0.0
 11
52.84338183837576
 21
110.4082267235236
 31
0.0
  0
LINE
  5
38
330
17
100
AcDbEntity
  8
CUT
100
AcDbLine
 10
16.686098893629378
 20
120.13585079023721
 30
0.0
 11
11.422381214399365
 21
120.13585079023721
 31
0.0
  0
LINE
  5
39
330
17
100
AcDbEntity
  8
CUT
100
AcDbLine
 10
16.876762517154702
 20
118.42828315876619
 30
0.0
 11
11.422381214399365
 21
118.42828315876619
 31
0.0
  0
LWPOLYLINE
  5
3A
330
17
100
AcDbEntity
  8
CUT
100
AcDbPolyline
 90
81
 70
0
 10
67.27078498048797
 20
219.5166933129641
 10
67.27078498048797
 20
220.2392101965271
 10
71.10463320744486
 20
218.9612823732964
 42
-0.3228242048989219
 10
71.78841024868348
 20
218.012597472841
 10
71.78841024868348
 20
201.51120815841512
 42
0.192429923772448
 10
72.61478002285838
 20
199.4435206478428
 10
77.88297662371878
 20
193.9053959028424
 42
-0.1924299237724283
 10
78.70934639789368
 20
191.83770839227032
 10
78.70934639789368
 20
186.7795483485319
 42
-0.2144574455153475
 10
77.70047275423457
 20
184.5355751238496
 10
74.89871953907749
 20
182.0495184234889
 42
0.2144574455153393
 10
73.88984589541838
 20
179.8055451988067
 10
73.88984589541838
 20
170.4125996528664
 42
0.1989123673796171
 10
74.76852555185837
 20
168.29127930930701
 10
84.1456430987721
 20
158.91416176239142
 42
0.1255757172341736
 10
87.122513301668
 20
157.1476784949622
 10
94.8487759157299
 20
154.8781066982757
 42
-0.1581890958761813
 10
98.4164317355619
 20
152.4400172799044
 10
100.48194387182889
 20
149.7650148711469
 42
-0.3948651666360341
 10
99.57831424689829
 20
140.2429126176461
 10
80.30502061157767
 20
123.2007563091598
 42
0.4506319876262991
 10
80.30502061157966
 20
108.21801077733952
 10
99.5783142469001
 20
91.17585446885371
 42
-0.3948651666360344
 10
100.48194387182707
 20
81.653752215353
 10
98.4164317355619
 20
78.97874980659623
 42
-0.1581890958761813
 10
94.8487759157299
 20
76.54066038822492
 10
87.122513301668
 20
74.27108859153839
 42
0.1255757172341736
 10
84.1456430987721
 20
72.5046053241092
 10
74.76852555185837
 20
63.12748777719361
 42
0.1989123673796368
 10
73.88984589541838
 20
61.006167433634005
 10
73.88984589541838
 20
8.925419950631408
 42
-0.4142135623730951
 10
70.88984589541826
 20
5.925419950631408
 10
63.61012837630301
 20
5.925419950631408
 42
0.0530223810717736
 10
63.18951020673671
 20
5.880689843876723
 10
59.30349903502167
 20
5.044730106754798
 42
-0.0530223810720016
 10
58.88288086545538
 20
5.0
 10
57.82337589934218
 20
5.0
 42
-0.2196847197506809
 10
57.062281777483065
 20
5.351358544592017
 10
54.6376438617782
 20
8.196347328287402
 42
0.2196847197506765
 10
53.87654973991931
 20
8.547705872879305
 10
53.47078498118691
 20
8.547705872879305
 10
53.0650202224254
 20
8.547705872879305
 42
0.2196847197506765
 10
52.30392610056629
 20
8.196347328287402
 10
49.87928818486148
 20
5.351358544592017
 42
-0.2196847197506809
 10
49.11819406300248
 20
5.0
 10
48.05868909688911
 20
5.0
 42
-0.0530223810720016
 10
47.638070927322815
 20
5.044730106754798
 10
43.75205975560789
 20
5.880689843876723
 42
0.0530223810717736
 10
43.33144158604159
 20
5.925419950631408
 10
36.05172406692617
 20
5.925419950631408
 42
-0.4142135623730951
 10
33.05172406692628
 20
8.925419950631408
 10
33.05172406692628
 20
61.006167433634005
 42
0.1989123673796368
 10
32.17304441048617
 20
63.12748777719361
 10
22.795926863572504
 20
72.5046053241092
 42
0.1255757172341736
 10
19.81905666067661
 20
74.27108859153839
 10
12.0927940466147
 20
76.54066038822492
 42
-0.1581890958761813
 10
8.525138226782701
 20
78.97874980659623
 10
6.459626090515712
 20
81.65375221535368
 42
-0.3948651666360752
 10
7.363255715446314
 20
91.17585446885451
 10
26.6365493507667
 20
108.2180107773406
 42
0.4506319876263103
 10
26.63654935076488
 20
123.20075630916111
 10
7.363255715444495
 20
140.2429126176468
 42
-0.3948651666360344
 10
6.4596260905174745
 20
149.7650148711476
 10
8.525138226782701
 20
152.4400172799044
 42
-0.1581890958761813
 10
12.0927940466147
 20
154.8781066982757
 10
19.81905666067661
 20
157.1476784949622
 42
0.1255757172341736
 10
22.795926863572504
 20
158.91416176239142
 10
32.17304441048617
 20
168.29127930930701
 42
0.1989123673796171
 10
33.05172406692628
 20
170.4125996528664
 10
33.05172406692628
 20
179.8055451988067
 42
0.2144574455153393
 10
32.04285042326711
 20
182.0495184234889
 10
29.241097208109977
 20
184.5355751238496
 42
-0.2144574455153475
 10
28.232223564450805
 20
186.7795483485319
 10
28.232223564450805
 20
191.83770839227032
 42
-0.1924299237724283
 10
29.05859333862577
 20
193.9053959028424
 10
34.32678993948616
 20
199.4435206478428
 42
0.192429923772448
 10
35.15315971366107
 20
201.51120815841512
 10
35.15315971366107
 20
218.012597472841
 42
-0.3228242048989219
 10
35.83693675489957
 20
218.9612823732964
 10
39.67094975205538
 20
220.23926511899901
 10
39.67094975205538
 20
219.5329292351376
  0
CIRCLE
  5
3B
330
17
100
AcDbEntity
  8
CUT
100
AcDbCircle
 10
42.50087838403971
 20
124.1798339383241
 30
0.0
 40
1.5
  0
LINE
  5
3C
330
17
100
AcDbEntity
  8
POCKET
100
AcDbLine
 10
57.55168019985757
 20
129.9090175448139
 30
0.0
 11
51.051444628502566
 21
126.10146845951562
 31
0.0
  0
LINE
  5
3D
330
17
100
AcDbEntity
  8
POCKET
100
AcDbLine
 10
50.549651185914
 20
124.88903225977421
 30
0.0
 11
48.89679311383338
 21
123.93664665608591
 31
0.0
  0
LINE
  5
3E
330
17
100
AcDbEntity
  8
POCKET
100
AcDbLine
 10
49.105656634689865
 20
121.9794372026328
 30
0.0
 11
57.47559465815107
 21
119.2972598842133
 31
0.0
  0
ARC
  5
3F
330
17
100
AcDbEntity
  8
POCKET
100
AcDbCircle
 10
49.43405570839718
 20
123.0042314528142
 30
0.0
 40
1.07612694735063
100
AcDbArc
 50
119.9507747631099
 51
252.231752824983
  0
ARC
  5
40
330
17
100
AcDbEntity
  8
POCKET
100
AcDbCircle
 10
57.80399373185469
 20
120.3220541343947
 30
0.0
 40
1.07612694735063
100
AcDbArc
 50
252.231752824983
 51
0.0
  0
LINE
  5
41
330
17
100
AcDbEntity
  8
POCKET
100
AcDbLine
 10
58.88012067920607
 20
120.3220541343947
 30
0.0
 11
58.88012067920607
 21
120.5932984213656
 31
0.0
  0
ARC
  5
42
330
17
100
AcDbEntity
  8
POCKET
100
AcDbCircle
 10
57.80399373185469
 20
120.5932984213656
 30
0.0
 40
1.07612694735063
100
AcDbArc
 50
0.0
 51
72.73089671965832
  0
LINE
  5
43
330
17
100
AcDbEntity
  8
POCKET
100
AcDbLine
 10
58.12345275225857
 20
121.62091466349821
 30
0.0
 11
52.837081824812515
 21
123.26430916110729
 31
0.0
  0
LINE
  5
44
330
17
100
AcDbEntity
  8
POCKET
100
AcDbLine
 10
52.83708182480888
 20
123.26430916110729
 30
0.0
 11
54.08656957249809
 21
124.0568311766047
 31
0.0
  0
LINE
  5
45
330
17
100
AcDbEntity
  8
POCKET
100
AcDbLine
 10
54.08656957250167
 20
124.056831176607
 30
0.0
 11
57.452243529737814
 21
122.8927621698451
 31
0.0
  0
ARC
  5
46
330
17
100
AcDbEntity
  8
POCKET
100
AcDbCircle
 10
57.80399373185469
 20
123.90977790331351
 30
0.0
 40
1.07612694735063
100
AcDbArc
 50
250.9212853575642
 51
0.0
  0
LINE
  5
47
330
17
100
AcDbEntity
  8
POCKET
100
AcDbLine
 10
58.88012067920607
 20
123.90977790331351
 30
0.0
 11
58.88012067920607
 21
124.1982251926469
 31
0.0
  0
ARC
  5
48
330
17
100
AcDbEntity
  8
POCKET
100
AcDbCircle
 10
57.80399373185469
 20
124.1982251926469
 30
0.0
 40
1.07612694735063
100
AcDbArc
 50
0.0
 51
71.67108797827876
  0
LINE
  5
49
330
17
100
AcDbEntity
  8
POCKET
100
AcDbLine
 10
58.1424049931349
 20
125.21975689800439
 30
0.0
 11
55.9889027540969
 21
125.9331654051133
 31
0.0
  0
LINE
  5
4A
330
17
100
AcDbEntity
  8
POCKET
100
AcDbLine
 10
55.9889027540969
 20
125.93316540511091
 30
0.0
 11
58.63716672514528
 21
127.4755089876804
 31
0.0
  0
ARC
  5
4B
330
17
100
AcDbEntity
  8
POCKET
100
AcDbCircle
 10
58.0955866386077
 20
128.4054230787009
 30
0.0
 40
1.07612694735063
100
AcDbArc
 50
300.2164352194045
 51
0.0
  0
LINE
  5
4C
330
17
100
AcDbEntity
  8
POCKET
100
AcDbLine
 10
59.171713585955615
 20
128.4054230787009
 30
0.0
 11
59.171713585955615
 21
128.980462219213
 31
0.0
  0
ARC
  5
4D
330
17
100
AcDbEntity
  8
POCKET
100
AcDbCircle
 10
58.0955866386077
 20
128.980462219213
 30
0.0
 40
1.07612694735063
100
AcDbArc
 50
0.0
 51
120.3598759371608
  0
LINE
  5
4E
330
17
100
AcDbEntity
  8
POCKET
100
AcDbLine
 10
47.034563628684964
 20
119.2048555922344
 30
0.0
 11
47.034563628684964
 21
119.08790653562889
 31
0.0
  0
LINE
  5
4F
330
17
100
AcDbEntity
  8
POCKET
100
AcDbLine
 10
49.02634536176379
 20
116.4798139167907
 30
0.0
 11
47.38192874860147
 21
114.8761803359788
 31
0.0
  0
ARC
  5
50
330
17
100
AcDbEntity
  8
POCKET
100
AcDbCircle
 10
48.13325174594621
 20
114.1057499624383
 30
0.0
 40
1.07612694735063
100
AcDbArc
 50
134.2806229267506
 51
180.0
  0
LINE
  5
51
330
17
100
AcDbEntity
  8
POCKET
100
AcDbLine
 10
47.057124798594714
 20
114.1057499624383
 30
0.0
 11
47.057124798594714
 21
113.55630572559019
 31
0.0
  0
LINE
  5
52
330
17
100
AcDbEntity
  8
POCKET
100
AcDbLine
 10
48.43115835919997
 20
112.52223568125441
 30
0.0
 11
57.40170671505007
 21
115.10657287810639
 31
0.0
  0
ARC
  5
53
330
17
100
AcDbEntity
  8
POCKET
100
AcDbCircle
 10
57.1038001017925
 20
116.14064292244211
 30
0.0
 40
1.07612694735063
100
AcDbArc
 50
286.0712323950731
 51
0.0
  0
LINE
  5
54
330
17
100
AcDbEntity
  8
POCKET
100
AcDbLine
 10
58.179927049144
 20
116.14064292244211
 30
0.0
 11
58.179927049144
 21
116.7410961384268
 31
0.0
  0
ARC
  5
55
330
17
100
AcDbEntity
  8
POCKET
100
AcDbCircle
 10
57.1038001017925
 20
116.7410961384268
 30
0.0
 40
1.07612694735063
100
AcDbArc
 50
0.0
 51
73.85253683642304
  0
LINE
  5
56
330
17
100
AcDbEntity
  8
POCKET
100
AcDbLine
 10
57.40308225830927
 20
117.77476890947409
 30
0.0
 11
48.409972732553115
 21
120.37856895920649
 31
0.0
  0
ARC
  5
57
330
17
100
AcDbEntity
  8
POCKET
100
AcDbCircle
 10
48.110690576036404
 20
119.34489618815911
 30
0.0
 40
1.07612694735063
100
AcDbArc
 50
73.85253683642304
 51
180.0
  0
LINE
  5
58
330
17
100
AcDbEntity
  8
POCKET
100
AcDbLine
 10
51.29563422573597
 20
115.8054766181859
 30
0.0
 11
50.91793158245241
 21
115.4164868492546
 31
0.0
  0
LINE
  5
59
330
17
100
AcDbEntity
  8
POCKET
100
AcDbLine
 10
50.91793158244877
 20
115.41648684925221
 30
0.0
 11
54.38565793260676
 21
116.4650808327269
 31
0.0
  0
LINE
  5
5A
330
17
100
AcDbEntity
  8
POCKET
100
AcDbLine
 10
54.38565793260676
 20
116.4650808327269
 30
0.0
 11
47.84143696788777
 21
118.15627795292909
 31
0.0
  0
ARC
  5
5B
330
17
100
AcDbEntity
  8
POCKET
100
AcDbCircle
 10
48.110690576036404
 20
119.1981760771792
 30
0.0
 40
1.07612694735063
100
AcDbArc
 50
180.0
 51
255.5102870627192
  0
LINE
  5
5C
330
17
100
AcDbEntity
  8
POCKET
100
AcDbLine
 10
51.107083556792816
 20
116.47730830430629
 30
0.0
 11
50.04692196726069
 21
116.7512816674978
 31
0.0
  0
ARC
  5
5D
330
17
100
AcDbEntity
  8
POCKET
100
AcDbCircle
 10
49.777668359108475
 20
115.70938354325031
 30
0.0
 40
1.07612694735063
100
AcDbArc
 50
75.5102870625035
 51
134.2806229267506
  0
ARC
  5
5E
330
17
100
AcDbEntity
  8
POCKET
100
AcDbCircle
 10
51.00611345373659
 20
116.08659650771321
 30
0.0
 40
0.4035476052564863
100
AcDbArc
 50
315.8434385646336
 51
75.51028706271921
  0
ARC
  5
5F
330
17
100
AcDbEntity
  8
POCKET
100
AcDbCircle
 10
51.58870722307012
 20
125.16905325624151
 30
0.0
 40
1.07612694735063
100
AcDbArc
 50
119.9507747631099
 51
195.0826336398907
  0
LINE
  5
60
330
17
100
AcDbEntity
  8
POCKET
100
AcDbLine
 10
47.034563628684964
 20
119.1981760771792
 30
0.0
 11
47.034563628684964
 21
119.34489618815911
 31
0.0
  0
CIRCLE
  5
61
330
17
100
AcDbEntity
  8
CUT
100
AcDbCircle
 10
42.50087838403971
 20
107.2389331481765
 30
0.0
 40
1.5
  0
ARC
  5
62
330
17
100
AcDbEntity
  8
POCKET
100
AcDbCircle
 10
48.13325174594621
 20
113.55630572559019
 30
0.0
 40
1.07612694735063
100
AcDbArc
 50
180.0
 51
286.0712323950731
  0
LINE
  5
63
330
17
100
AcDbEntity
  8
POCKET
100
AcDbLine
 10
47.93567597599508
 20
108.5828546213057
 30
0.0
 11
48.34463649969007
 21
108.3485065357535
 31
0.0
  0
ARC
  5
64
330
17
100
AcDbEntity
  8
POCKET
100
AcDbCircle
 10
48.87967424698331
 20
109.2822001770422
 30
0.0
 40
1.07612694735063
100
AcDbArc
 50
240.1858456691889
 51
285.8742168900411
  0
LINE
  5
65
330
17
100
AcDbEntity
  8
POCKET
100
AcDbLine
 10
49.17402338460778
 20
108.2471118754986
 30
0.0
 11
51.34636208593048
 21
108.89956169091761
 31
0.0
  0
LINE
  5
66
330
17
100
AcDbEntity
  8
POCKET
100
AcDbLine
 10
51.34636208593048
 20
108.89956169092011
 30
0.0
 11
51.34636208593048
 21
107.6690605417914
 31
0.0
  0
LINE
  5
67
330
17
100
AcDbEntity
  8
POCKET
100
AcDbLine
 10
54.29679641576621
 20
107.2488805340659
 30
0.0
 11
54.29679641576621
 21
109.7174712024642
 31
0.0
  0
LINE
  5
68
330
17
100
AcDbEntity
  8
POCKET
100
AcDbLine
 10
54.29679641576621
 20
109.7174712024692
 30
0.0
 11
56.33244498514358
 21
110.3153655341259
 31
0.0
  0
LINE
  5
69
330
17
100
AcDbEntity
  8
POCKET
100
AcDbLine
 10
56.33244498514358
 20
110.3153655341234
 30
0.0
 11
56.33244498514358
 21
104.77805966852699
 31
0.0
  0
ARC
  5
6A
330
17
100
AcDbEntity
  8
POCKET
100
AcDbCircle
 10
57.825765932285606
 20
112.4599044771308
 30
0.0
 40
1.07612694735063
100
AcDbArc
 50
0.0
 51
107.4650064936588
  0
LINE
  5
6B
330
17
100
AcDbEntity
  8
POCKET
100
AcDbLine
 10
57.502795205732696
 20
113.48642243440429
 30
0.0
 11
48.14774299673559
 21
110.54306621987041
 31
0.0
  0
ARC
  5
6C
330
17
100
AcDbEntity
  8
POCKET
100
AcDbCircle
 10
48.47071372328827
 20
109.5165482625969
 30
0.0
 40
1.07612694735063
100
AcDbArc
 50
107.4650064936588
 51
240.1858456691889
  0
ARC
  5
6D
330
17
100
AcDbEntity
  8
POCKET
100
AcDbCircle
 10
52.42248903328186
 20
107.6690605417914
 30
0.0
 40
1.07612694735063
100
AcDbArc
 50
180.0
 51
242.2366792485934
  0
LINE
  5
6E
330
17
100
AcDbEntity
  8
POCKET
100
AcDbLine
 10
51.92120729954809
 20
106.7168180147855
 30
0.0
 11
52.719387734681106
 21
106.29663800706001
 31
0.0
  0
ARC
  5
6F
330
17
100
AcDbEntity
  8
POCKET
100
AcDbCircle
 10
53.22066946841477
 20
107.2488805340659
 30
0.0
 40
1.07612694735063
100
AcDbArc
 50
242.2366792485934
 51
0.0
  0
ARC
  5
70
330
17
100
AcDbEntity
  8
POCKET
100
AcDbCircle
 10
57.40857193249508
 20
104.77805966852699
 30
0.0
 40
1.07612694735063
100
AcDbArc
 50
180.0
 51
241.5522435718176
  0
LINE
  5
71
330
17
100
AcDbEntity
  8
POCKET
100
AcDbLine
 10
56.89595107326488
 20
103.83187307937251
 30
0.0
 11
57.31314507305177
 21
103.60584752681359
 31
0.0
  0
ARC
  5
72
330
17
100
AcDbEntity
  8
POCKET
100
AcDbCircle
 10
57.825765932285606
 20
104.55203411596801
 30
0.0
 40
1.07612694735063
100
AcDbArc
 50
241.5522435718176
 51
0.0
  0
LINE
  5
73
330
17
100
AcDbEntity
  8
POCKET
100
AcDbLine
 10
58.901892879633294
 20
104.55203411596801
 30
0.0
 11
58.901892879633294
 21
112.4599044771308
 31
0.0
  0
CIRCLE
  5
74
330
17
100
AcDbEntity
  8
CUT
100
AcDbCircle
 10
29.744318476548187
 20
74.53308183131281
 30
0.0
 40
1.5
  0
CIRCLE
  5
75
330
17
100
AcDbEntity
  8
CUT
100
AcDbCircle
 10
33.39041125224071
 20
189.2900016142654
 30
0.0
 40
1.5
  0
CIRCLE
  5
76
330
17
100
AcDbEntity
  8
CUT
100
AcDbCircle
 10
29.744318476548187
 20
156.8856852551886
 30
0.0
 40
1.5
  0
CIRCLE
  5
77
330
17
100
AcDbEntity
  8
CUT
100
AcDbCircle
 10
39.06006835779891
 20
11.716983276508586
 30
0.0
 40
1.5
  0
CIRCLE
  5
78
330
17
100
AcDbEntity
  8
CUT
100
AcDbCircle
 10
53.4707849811723
 20
174.7135077258887
 30
0.0
 40
1.5
  0
CIRCLE
  5
79
330
17
100
AcDbEntity
  8
CUT
100
AcDbCircle
 10
27.607422640371908
 20
135.6798660462483
 30
0.0
 40
1.5
  0
CIRCLE
  5
7A
330
17
100
AcDbEntity
  8
CUT
100
AcDbCircle
 10
12.713966896703994
 20
147.1798981541727
 30
0.0
 40
2.149999999999999
  0
CIRCLE
  5
7B
330
17
100
AcDbEntity
  8
CUT
100
AcDbCircle
 10
43.47078498117406
 20
68.2341049542162
 30
0.0
 40
1.1
  0
CIRCLE
  5
7C
330
17
100
AcDbEntity
  8
CUT
100
AcDbCircle
 10
43.47078498117406
 20
48.23410495421621
 30
0.0
 40
1.1
  0
CIRCLE
  5
7D
330
17
100
AcDbEntity
  8
CUT
100
AcDbCircle
 10
63.47078498117406
 20
68.2341049542162
 30
0.0
 40
1.1
  0
CIRCLE
  5
7E
330
17
100
AcDbEntity
  8
CUT
100
AcDbCircle
 10
63.47078498117406
 20
48.23410495421621
 30
0.0
 40
1.1
  0
CIRCLE
  5
7F
330
17
100
AcDbEntity
  8
CUT
100
AcDbCircle
 10
40.72078498117406
 20
70.9841049542162
 30
0.0
 40
0.85
  0
CIRCLE
  5
80
330
17
100
AcDbEntity
  8
CUT
100
AcDbCircle
 10
66.22078498117406
 20
70.9841049542162
 30
0.0
 40
0.85
  0
CIRCLE
  5
81
330
17
100
AcDbEntity
  8
CUT
100
AcDbCircle
 10
66.22078498117406
 20
45.48410495421621
 30
0.0
 40
0.85
  0
CIRCLE
  5
82
330
17
100
AcDbEntity
  8
CUT
100
AcDbCircle
 10
40.72078498117406
 20
45.48410495421621
 30
0.0
 40
0.85
  0
CIRCLE
  5
83
330
17
100
AcDbEntity
  8
CUT
100
AcDbCircle
 10
27.607422640371908
 20
95.7389010402523
 30
0.0
 40
1.5
  0
CIRCLE
  5
84
330
17
100
AcDbEntity
  8
CUT
100
AcDbCircle
 10
12.713966896703994
 20
84.23886893232788
 30
0.0
 40
2.149999999999999
  0
LWPOLYLINE
  5
85
330
17
100
AcDbEntity
  8
CUT
100
AcDbPolyline
 90
4
 70
0
 10
53.47078498121226
 20
222.0739895210992
 10
48.01605600437438
 20
222.07398952109912
 42
0.0691074597333032
 10
47.47105480529831
 20
221.99830074670808
 10
43.590784981218576
 20
220.8993352162245
  0
CIRCLE
  5
86
330
17
100
AcDbEntity
  8
CUT
100
AcDbCircle
 10
77.19725148579641
 20
74.53308183131281
 30
0.0
 40
1.5
  0
CIRCLE
  5
87
330
17
100
AcDbEntity
  8
CUT
100
AcDbCircle
 10
73.55115871010389
 20
189.2900016142654
 30
0.0
 40
1.5
  0
CIRCLE
  5
88
330
17
100
AcDbEntity
  8
CUT
100
AcDbCircle
 10
77.19725148579641
 20
156.8856852551886
 30
0.0
 40
1.5
  0
CIRCLE
  5
89
330
17
100
AcDbEntity
  8
CUT
100
AcDbCircle
 10
67.88150160454569
 20
11.716983276508586
 30
0.0
 40
1.5
  0
CIRCLE
  5
8A
330
17
100
AcDbEntity
  8
CUT
100
AcDbCircle
 10
64.4406915783049
 20
124.1798339383241
 30
0.0
 40
1.5
  0
CIRCLE
  5
8B
330
17
100
AcDbEntity
  8
CUT
100
AcDbCircle
 10
79.3341473219727
 20
135.6798660462483
 30
0.0
 40
1.5
  0
CIRCLE
  5
8C
330
17
100
AcDbEntity
  8
CUT
100
AcDbCircle
 10
94.2276030656405
 20
147.1798981541727
 30
0.0
 40
2.149999999999999
  0
CIRCLE
  5
8D
330
17
100
AcDbEntity
  8
CUT
100
AcDbCircle
 10
64.4406915783049
 20
107.2389331481765
 30
0.0
 40
1.5
  0
CIRCLE
  5
8E
330
17
100
AcDbEntity
  8
CUT
100
AcDbCircle
 10
79.3341473219727
 20
95.7389010402523
 30
0.0
 40
1.5
  0
CIRCLE
  5
8F
330
17
100
AcDbEntity
  8
CUT
100
AcDbCircle
 10
94.2276030656405
 20
84.23886893232788
 30
0.0
 40
2.149999999999999
  0
LWPOLYLINE
  5
90
330
17
100
AcDbEntity
  8
CUT
100
AcDbPolyline
 90
4
 70
0
 10
53.47078498113228
 20
222.0739895210992
 10
58.92551395797017
 20
222.07398952109912
 42
-0.0691074597333032
 10
59.47051515704629
 20
221.99830074670808
 10
63.35078498112597
 20
220.8993352162245
  0
LWPOLYLINE
  5
91
330
17
100
AcDbEntity
  8
CUT
100
AcDbPolyline
 90
8
 70
1
 10
43.59078496338708
 20
198.0475046948994
 42
1.000000022967015
 10
43.590785000134304
 20
199.6475046948986
 10
40.4707849633844
 20
199.6475046948986
 42
0.9999999999999998
 10
40.4707849633844
 20
198.0475046948994
 10
40.4707849633844
 20
195.1475215855048
 42
0.9999999999999998
 10
40.4707849633844
 20
193.5475215855056
 10
43.590785000134304
 20
193.5475215855056
 42
1.000000022969288
 10
43.590784963383385
 20
195.1475215855048
  0
LWPOLYLINE
  5
92
330
17
100
AcDbEntity
  8
CUT
100
AcDbPolyline
 90
8
 70
1
 10
43.59078498183891
 20
211.6316552851952
 42
1.000000022967015
 10
43.590785018586075
 20
213.2316552851945
 10
40.470784981836175
 20
213.2316552851945
 42
0.9999999999999998
 10
40.470784981836175
 20
211.6316552851952
 10
40.470784981836175
 20
208.7316721758006
 42
0.9999999999999998
 10
40.470784981836175
 20
207.1316721758014
 10
43.590785018586075
 20
207.1316721758014
 42
1.000000022969288
 10
43.59078498183521
 20
208.7316721758006
  0
ARC
  5
93
330
17
100
AcDbEntity
  8
CUT
100
AcDbCircle
 10
53.47078498117958
 20
203.4533635623564
 30
0.0
 40
0.9999999999992844
100
AcDbArc
 50
220.6524411945593
 51
319.3475588054407
  0
LINE
  5
94
330
17
100
AcDbEntity
  8
CUT
100
AcDbLine
 10
52.71210962689048
 20
202.801894678377
 30
0.0
 11
46.21210962745607
 21
210.3715421683973
 31
0.0
  0
ARC
  5
95
330
17
100
AcDbEntity
  8
CUT
100
AcDbCircle
 10
46.97078498174528
 20
211.0230110523778
 30
0.0
 40
1.0
100
AcDbArc
 50
180.0
 51
220.6524411945802
  0
LINE
  5
96
330
17
100
AcDbEntity
  8
CUT
100
AcDbLine
 10
46.58228794522552
 20
215.05647754278982
 30
0.0
 11
50.09037115221628
 21
216.535537686924
 31
0.0
  0
ARC
  5
97
330
17
100
AcDbEntity
  8
CUT
100
AcDbCircle
 10
46.97078498174528
 20
214.1350275698579
 30
0.0
 40
1.0
100
AcDbArc
 50
112.8610129017365
 51
180.0
  0
ARC
  5
98
330
17
100
AcDbEntity
  8
CUT
100
AcDbCircle
 10
50.47886818873417
 20
215.614087713994
 30
0.0
 40
0.9999999999979284
100
AcDbArc
 50
90.0
 51
112.8610129017292
  0
LINE
  5
99
330
17
100
AcDbEntity
  8
CUT
100
AcDbLine
 10
50.47886818873417
 20
216.61408771399192
 30
0.0
 11
53.47078498116866
 21
216.6140877139917
 31
0.0
  0
LINE
  5
9A
330
17
100
AcDbEntity
  8
CUT
100
AcDbLine
 10
45.97078498174528
 20
211.0230110523778
 30
0.0
 11
45.97078498174528
 21
214.1350275698579
 31
0.0
  0
ARC
  5
9B
330
17
100
AcDbEntity
  8
CUT
100
AcDbCircle
 10
56.4627017736031
 20
215.61408771400602
 30
0.0
 40
0.9999999999979284
100
AcDbArc
 50
67.13898709849703
 51
90.00000000020843
  0
LINE
  5
9C
330
17
100
AcDbEntity
  8
CUT
100
AcDbLine
 10
56.4627017736031
 20
216.6140877140038
 30
0.0
 11
53.47078498116497
 21
216.6140877139917
 31
0.0
  0
LINE
  5
9D
330
17
100
AcDbEntity
  8
CUT
100
AcDbLine
 10
45.97078498174528
 20
192.3903663724977
 30
0.0
 11
45.97078498174528
 21
199.7876062230125
 31
0.0
  0
LINE
  5
9E
330
17
100
AcDbEntity
  8
CUT
100
AcDbLine
 10
47.72946033603438
 20
200.4390751069918
 30
0.0
 11
51.22946033603438
 21
196.3631110735406
 31
0.0
  0
ARC
  5
9F
330
17
100
AcDbEntity
  8
CUT
100
AcDbCircle
 10
46.97078498174528
 20
199.7876062230125
 30
0.0
 40
1.0
100
AcDbArc
 50
40.65244119454539
 51
180.0
  0
ARC
  5
A0
330
17
100
AcDbEntity
  8
CUT
100
AcDbCircle
 10
50.47078498174528
 20
195.7116421895605
 30
0.0
 40
1.000000000000024
100
AcDbArc
 50
1.95413e-11
 51
40.65244119456841
  0
LINE
  5
A1
330
17
100
AcDbEntity
  8
CUT
100
AcDbLine
 10
51.47078498174528
 20
195.7116421895608
 30
0.0
 11
51.47078498174528
 21
186.7208385258012
 31
0.0
  0
ARC
  5
A2
330
17
100
AcDbEntity
  8
CUT
100
AcDbCircle
 10
50.47078498174528
 20
186.7208385258013
 30
0.0
 40
1.0
100
AcDbArc
 50
319.3475588054313
 51
359.9999999999935
  0
LINE
  5
A3
330
17
100
AcDbEntity
  8
CUT
100
AcDbLine
 10
51.22946033603438
 20
186.0693696418212
 30
0.0
 11
44.89102019143979
 21
178.6878684825294
 31
0.0
  0
ARC
  5
A4
330
17
100
AcDbEntity
  8
CUT
100
AcDbCircle
 10
44.1323448371507
 20
179.3393373665094
 30
0.0
 40
1.0
100
AcDbArc
 50
180.0
 51
319.3475588054313
  0
LINE
  5
A5
330
17
100
AcDbEntity
  8
CUT
100
AcDbLine
 10
43.13234483715058
 20
188.3439660937234
 30
0.0
 11
43.13234483715058
 21
179.3393373665094
 31
0.0
  0
ARC
  5
A6
330
17
100
AcDbEntity
  8
CUT
100
AcDbCircle
 10
44.1323448371507
 20
188.3439660937234
 30
0.0
 40
1.0
100
AcDbArc
 50
139.3475588054316
 51
180.0
  0
LINE
  5
A7
330
17
100
AcDbEntity
  8
CUT
100
AcDbLine
 10
43.37366948286149
 20
188.9954349777032
 30
0.0
 11
45.72946033603438
 21
191.7388974885173
 31
0.0
  0
ARC
  5
A8
330
17
100
AcDbEntity
  8
CUT
100
AcDbCircle
 10
44.97078498174528
 20
192.3903663724977
 30
0.0
 40
1.0
100
AcDbArc
 50
319.3475588054198
 51
0.0
  0
ARC
  5
A9
330
17
100
AcDbEntity
  8
CUT
100
AcDbCircle
 10
53.47078498119049
 20
18.186213714623705
 30
0.0
 40
0.9999999999993178
100
AcDbArc
 50
90.0
 51
139.5607484237074
  0
LINE
  5
AA
330
17
100
AcDbEntity
  8
CUT
100
AcDbLine
 10
52.709690859331374
 20
18.834855170030778
 30
0.0
 11
49.71399507321007
 21
15.319806240172397
 31
0.0
  0
ARC
  5
AB
330
17
100
AcDbEntity
  8
CUT
100
AcDbCircle
 10
50.47508919506549
 20
14.67116478476521
 30
0.0
 40
1.0
100
AcDbArc
 50
139.5607484236774
 51
220.2334884031493
  0
LINE
  5
AC
330
17
100
AcDbEntity
  8
CUT
100
AcDbLine
 10
47.0846661506269
 20
12.234639896381225
 30
0.0
 11
45.502177874366
 21
10.3778012454909
 31
0.0
  0
ARC
  5
AD
330
17
100
AcDbEntity
  8
CUT
100
AcDbCircle
 10
46.263271996225114
 20
9.729159790083884
 30
0.0
 40
1.0
100
AcDbArc
 50
139.5607484236774
 51
180.0
  0
LINE
  5
AE
330
17
100
AcDbEntity
  8
CUT
100
AcDbLine
 10
51.47078498118691
 20
43.12239942969842
 30
0.0
 11
51.47078498118691
 21
25.56323460531621
 31
0.0
  0
ARC
  5
AF
330
17
100
AcDbEntity
  8
CUT
100
AcDbCircle
 10
50.47078498118691
 20
25.56323460531479
 30
0.0
 40
1.0
100
AcDbArc
 50
319.5607484237122
 51
7.81653e-11
  0
LINE
  5
B0
330
17
100
AcDbEntity
  8
CUT
100
AcDbLine
 10
51.23187910304591
 20
24.914593149908683
 30
0.0
 11
45.231879103031304
 21
17.874394449860404
 31
0.0
  0
ARC
  5
B1
330
17
100
AcDbEntity
  8
CUT
100
AcDbCircle
 10
44.47078498117418
 20
18.52303590526799
 30
0.0
 40
1.0
100
AcDbArc
 50
180.0
 51
319.5607484235876
  0
LINE
  5
B2
330
17
100
AcDbEntity
  8
CUT
100
AcDbLine
 10
46.47078498118498
 20
44.502692656878196
 30
0.0
 11
46.47078498118691
 21
46.422712096719124
 31
0.0
  0
ARC
  5
B3
330
17
100
AcDbEntity
  8
CUT
100
AcDbCircle
 10
45.47078498118498
 20
44.50269265687831
 30
0.0
 40
1.0
100
AcDbArc
 50
313.7275391565994
 51
359.999999999987
  0
LINE
  5
B4
330
17
100
AcDbEntity
  8
CUT
100
AcDbLine
 10
48.210756774981974
 20
47.0953499966256
 30
0.0
 11
51.210756774981974
 21
43.795037329604725
 31
0.0
  0
ARC
  5
B5
330
17
100
AcDbEntity
  8
CUT
100
AcDbCircle
 10
47.47078498118691
 20
46.422712096719124
 30
0.0
 40
1.0
100
AcDbArc
 50
42.27098710998554
 51
180.0
  0
ARC
  5
B6
330
17
100
AcDbEntity
  8
CUT
100
AcDbCircle
 10
50.47078498118691
 20
43.122399429700806
 30
0.0
 40
0.999999999999723
100
AcDbArc
 50
359.9999999998567
 51
42.2709871097874
  0
ARC
  5
B7
330
17
100
AcDbEntity
  8
CUT
100
AcDbCircle
 10
53.47078498123051
 20
18.18621371462433
 30
0.0
 40
0.9999999999987494
100
AcDbArc
 50
40.43925157649369
 51
90.0
  0
LINE
  5
B8
330
17
100
AcDbEntity
  8
CUT
100
AcDbLine
 10
53.47078498118691
 20
11.047705872879305
 30
0.0
 11
52.69471356141116
 21
11.047705872879305
 31
0.0
  0
ARC
  5
B9
330
17
100
AcDbEntity
  8
CUT
100
AcDbCircle
 10
52.69471356141116
 20
12.047705872879305
 30
0.0
 40
1.0
100
AcDbArc
 50
220.2334884031493
 51
270.0
  0
LINE
  5
BA
330
17
100
AcDbEntity
  8
CUT
100
AcDbLine
 10
49.976027635170965
 20
9.31907877821152
 30
0.0
 11
48.76453833303208
 21
7.897557876536325
 31
0.0
  0
ARC
  5
BB
330
17
100
AcDbEntity
  8
CUT
100
AcDbCircle
 10
49.21493351331196
 20
9.96772023361882
 30
0.0
 40
1.0
100
AcDbArc
 50
319.5607484237003
 51
40.23348840314933
  0
ARC
  5
BC
330
17
100
AcDbEntity
  8
CUT
100
AcDbCircle
 10
48.0034442111766
 20
8.546199331944422
 30
0.0
 40
1.0
100
AcDbArc
 50
257.8595339882438
 51
319.5607484236652
  0
LINE
  5
BD
330
17
100
AcDbEntity
  8
CUT
100
AcDbLine
 10
47.79313512639169
 20
7.5685643853217925
 30
0.0
 11
46.052962911443785
 21
7.942910686213622
 31
0.0
  0
ARC
  5
BE
330
17
100
AcDbEntity
  8
CUT
100
AcDbCircle
 10
46.263271996225114
 20
8.920545632836195
 30
0.0
 40
1.0
100
AcDbArc
 50
180.0
 51
257.8595339882438
  0
LINE
  5
BF
330
17
100
AcDbEntity
  8
CUT
100
AcDbLine
 10
45.263271996225114
 20
8.920545632836195
 30
0.0
 11
45.263271996225114
 21
9.729159790083884
 31
0.0
  0
LINE
  5
C0
330
17
100
AcDbEntity
  8
CUT
100
AcDbLine
 10
54.2318791030641
 20
18.83485517002771
 30
0.0
 11
57.22757488915266
 21
15.319806240172625
 31
0.0
  0
ARC
  5
C1
330
17
100
AcDbEntity
  8
CUT
100
AcDbCircle
 10
56.4664807672936
 20
14.67116478476828
 30
0.0
 40
1.0
100
AcDbArc
 50
319.766511597209
 51
40.43925157608234
  0
LINE
  5
C2
330
17
100
AcDbEntity
  8
CUT
100
AcDbLine
 10
53.470784981175996
 20
11.047705872879305
 30
0.0
 11
54.2468564009734
 21
11.047705872876179
 31
0.0
  0
LINE
  5
C3
330
17
100
AcDbEntity
  8
CUT
100
AcDbLine
 10
49.71167055585579
 20
14.025260781602583
 30
0.0
 11
51.931294922197765
 21
11.40180186971702
 31
0.0
  0
LINE
  5
C4
330
17
100
AcDbEntity
  8
CUT
100
AcDbLine
 10
48.60917891169561
 20
12.231902444137177
 30
0.0
 11
49.978352152528885
 21
10.613624236781675
 31
0.0
  0
ARC
  5
C5
330
17
100
AcDbEntity
  8
CUT
100
AcDbCircle
 10
47.845760272485904
 20
11.585998440974379
 30
0.0
 40
1.0
100
AcDbArc
 50
40.23348840314933
 51
139.5607484236774
  0
LINE
  5
C6
330
17
100
AcDbEntity
  8
CUT
100
AcDbLine
 10
57.22989940651058
 20
14.025260781610712
 30
0.0
 11
55.01027504019038
 21
11.40180186971952
 31
0.0
  0
ARC
  5
C7
330
17
100
AcDbEntity
  8
CUT
100
AcDbCircle
 10
54.2468564009734
 20
12.047705872876293
 30
0.0
 40
1.0
100
AcDbArc
 50
269.9999999997916
 51
319.766511597209
  0
LINE
  5
C8
330
17
100
AcDbEntity
  8
CUT
100
AcDbLine
 10
59.8569038117177
 20
12.234639896381225
 30
0.0
 11
61.43939208797849
 21
10.3778012454909
 31
0.0
  0
ARC
  5
C9
330
17
100
AcDbEntity
  8
CUT
100
AcDbCircle
 10
60.6782979661196
 20
9.729159790083884
 30
0.0
 40
1.0
100
AcDbArc
 50
0.0
 51
40.43925157630913
  0
LINE
  5
CA
330
17
100
AcDbEntity
  8
CUT
100
AcDbLine
 10
56.96554232717358
 20
9.31907877821152
 30
0.0
 11
58.17703162931247
 21
7.897557876536325
 31
0.0
  0
ARC
  5
CB
330
17
100
AcDbEntity
  8
CUT
100
AcDbCircle
 10
57.72663644903258
 20
9.96772023361882
 30
0.0
 40
1.0
100
AcDbArc
 50
139.7665115968506
 51
220.4392515762878
  0
ARC
  5
CC
330
17
100
AcDbEntity
  8
CUT
100
AcDbCircle
 10
58.93812575116789
 20
8.546199331944422
 30
0.0
 40
1.0
100
AcDbArc
 50
220.4392515763134
 51
282.1404660117559
  0
LINE
  5
CD
330
17
100
AcDbEntity
  8
CUT
100
AcDbLine
 10
59.14843483595291
 20
7.5685643853217925
 30
0.0
 11
60.888607050900816
 21
7.942910686213622
 31
0.0
  0
ARC
  5
CE
330
17
100
AcDbEntity
  8
CUT
100
AcDbCircle
 10
60.6782979661196
 20
8.920545632836195
 30
0.0
 40
1.0
100
AcDbArc
 50
282.1404660117559
 51
0.0
  0
LINE
  5
CF
330
17
100
AcDbEntity
  8
CUT
100
AcDbLine
 10
61.67829796611949
 20
8.920545632836195
 30
0.0
 11
61.67829796611949
 21
9.729159790083884
 31
0.0
  0
LINE
  5
D0
330
17
100
AcDbEntity
  8
CUT
100
AcDbLine
 10
58.332391050648994
 20
12.231902444137177
 30
0.0
 11
56.9632178098156
 21
10.613624236781675
 31
0.0
  0
ARC
  5
D1
330
17
100
AcDbEntity
  8
CUT
100
AcDbCircle
 10
59.095809689858584
 20
11.585998440974379
 30
0.0
 40
1.0
100
AcDbArc
 50
40.43925157630913
 51
139.7665115968506
  0
LINE
  5
D2
330
17
100
AcDbEntity
  8
CUT
100
AcDbLine
 10
40.27793607541139
 20
159.5550087583437
 30
0.0
 11
47.780645472106016
 21
168.2923726595785
 31
0.0
  0
ARC
  5
D3
330
17
100
AcDbEntity
  8
CUT
100
AcDbCircle
 10
41.41594910683966
 20
158.5778054323736
 30
0.0
 40
1.5
100
AcDbArc
 50
139.3475588054316
 51
198.9037505681132
  0
LINE
  5
D4
330
17
100
AcDbEntity
  8
CUT
100
AcDbLine
 10
39.99685287697616
 20
158.09183641033312
 30
0.0
 11
47.53176683422606
 21
139.8041697587847
 31
0.0
  0
LINE
  5
D5
330
17
100
AcDbEntity
  8
CUT
100
AcDbLine
 10
50.4186585035398
 20
167.3151693336082
 30
0.0
 11
50.4186585035398
 21
140.3755991048812
 31
0.0
  0
ARC
  5
D6
330
17
100
AcDbEntity
  8
CUT
100
AcDbCircle
 10
48.9186585035398
 20
140.3755991048812
 30
0.0
 40
1.5
100
AcDbArc
 50
202.3927198087504
 51
0.0
  0
ARC
  5
D7
330
17
100
AcDbEntity
  8
CUT
100
AcDbCircle
 10
48.9186585035398
 20
167.3151693336082
 30
0.0
 40
1.5
100
AcDbArc
 50
0.0
 51
139.3475588054316
  0
CIRCLE
  5
D8
330
17
100
AcDbEntity
  8
CUT
100
AcDbCircle
 10
53.4707849811723
 20
84.71782097878219
 30
0.0
 40
1.5
  0
LINE
  5
D9
330
17
100
AcDbEntity
  8
CUT
100
AcDbLine
 10
37.47078498117588
 20
60.78278569699307
 30
0.0
 11
37.47078498117588
 21
57.26695490654561
 31
0.0
  0
LINE
  5
DA
330
17
100
AcDbEntity
  8
CUT
100
AcDbLine
 10
39.47078498117406
 20
60.78278569699307
 30
0.0
 11
39.47078498117406
 21
57.26695490654549
 31
0.0
  0
ARC
  5
DB
330
17
100
AcDbEntity
  8
CUT
100
AcDbCircle
 10
38.47078498117406
 20
60.78278569699307
 30
0.0
 40
1.0
100
AcDbArc
 50
0.0
 51
180.0
  0
ARC
  5
DC
330
17
100
AcDbEntity
  8
CUT
100
AcDbCircle
 10
38.47078498117406
 20
57.26695490654549
 30
0.0
 40
1.0
100
AcDbArc
 50
180.0
 51
0.0
  0
LINE
  5
DD
330
17
100
AcDbEntity
  8
CUT
100
AcDbLine
 10
37.47078498117588
 20
33.65276836516529
 30
0.0
 11
37.47078498117588
 21
30.136937574717876
 31
0.0
  0
LINE
  5
DE
330
17
100
AcDbEntity
  8
CUT
100
AcDbLine
 10
39.47078498117406
 20
33.65276836516529
 30
0.0
 11
39.47078498117406
 21
30.13693757471782
 31
0.0
  0
ARC
  5
DF
330
17
100
AcDbEntity
  8
CUT
100
AcDbCircle
 10
38.47078498117406
 20
33.65276836516529
 30
0.0
 40
1.0
100
AcDbArc
 50
0.0
 51
180.0
  0
ARC
  5
E0
330
17
100
AcDbEntity
  8
CUT
100
AcDbCircle
 10
38.47078498117406
 20
30.13693757471782
 30
0.0
 40
1.0
100
AcDbArc
 50
180.0
 51
0.0
  0
LINE
  5
E1
330
17
100
AcDbEntity
  8
CUT
100
AcDbLine
 10
69.4707849811686
 20
60.78278569699307
 30
0.0
 11
69.4707849811686
 21
57.26695490654561
 31
0.0
  0
LINE
  5
E2
330
17
100
AcDbEntity
  8
CUT
100
AcDbLine
 10
67.47078498117037
 20
60.78278569699307
 30
0.0
 11
67.47078498117037
 21
57.26695490654549
 31
0.0
  0
ARC
  5
E3
330
17
100
AcDbEntity
  8
CUT
100
AcDbCircle
 10
68.47078498117048
 20
60.78278569699307
 30
0.0
 40
1.0
100
AcDbArc
 50
0.0
 51
180.0
  0
ARC
  5
E4
330
17
100
AcDbEntity
  8
CUT
100
AcDbCircle
 10
68.47078498117048
 20
57.26695490654549
 30
0.0
 40
1.0
100
AcDbArc
 50
180.0
 51
0.0
  0
LINE
  5
E5
330
17
100
AcDbEntity
  8
CUT
100
AcDbLine
 10
69.4707849811686
 20
33.65276836516529
 30
0.0
 11
69.4707849811686
 21
30.136937574717876
 31
0.0
  0
LINE
  5
E6
330
17
100
AcDbEntity
  8
CUT
100
AcDbLine
 10
67.47078498117037
 20
33.65276836516529
 30
0.0
 11
67.47078498117037
 21
30.13693757471782
 31
0.0
  0
ARC
  5
E7
330
17
100
AcDbEntity
  8
CUT
100
AcDbCircle
 10
68.47078498117048
 20
33.65276836516529
 30
0.0
 40
1.0
100
AcDbArc
 50
0.0
 51
180.0
  0
ARC
  5
E8
330
17
100
AcDbEntity
  8
CUT
100
AcDbCircle
 10
68.47078498117048
 20
30.13693757471782
 30
0.0
 40
1.0
100
AcDbArc
 50
180.0
 51
0.0
  0
LINE
  5
E9
330
17
100
AcDbEntity
  8
CUT
100
AcDbLine
 10
54.229460335454064
 20
202.801894678377
 30
0.0
 11
60.729460334888415
 21
210.3715421683973
 31
0.0
  0
ARC
  5
EA
330
17
100
AcDbEntity
  8
CUT
100
AcDbCircle
 10
59.97078498059926
 20
211.0230110523778
 30
0.0
 40
1.0
100
AcDbArc
 50
319.3475588054198
 51
0.0
  0
LINE
  5
EB
330
17
100
AcDbEntity
  8
CUT
100
AcDbLine
 10
60.35928201711897
 20
215.05647754278982
 30
0.0
 11
56.85119881012827
 21
216.535537686924
 31
0.0
  0
ARC
  5
EC
330
17
100
AcDbEntity
  8
CUT
100
AcDbCircle
 10
59.97078498059926
 20
214.1350275698579
 30
0.0
 40
1.0
100
AcDbArc
 50
0.0
 51
67.13898709826643
  0
LINE
  5
ED
330
17
100
AcDbEntity
  8
CUT
100
AcDbLine
 10
60.97078498059926
 20
211.0230110523778
 30
0.0
 11
60.97078498059926
 21
214.1350275698579
 31
0.0
  0
LINE
  5
EE
330
17
100
AcDbEntity
  8
CUT
100
AcDbLine
 10
60.97078498060108
 20
192.39036637250211
 30
0.0
 11
60.9707849805975
 21
199.7876062230169
 31
0.0
  0
LINE
  5
EF
330
17
100
AcDbEntity
  8
CUT
100
AcDbLine
 10
59.21210962630829
 20
200.4390751069953
 30
0.0
 11
55.71210962631011
 21
196.36311107354192
 31
0.0
  0
ARC
  5
F0
330
17
100
AcDbEntity
  8
CUT
100
AcDbCircle
 10
59.97078498059739
 20
199.7876062230164
 30
0.0
 40
1.0
100
AcDbArc
 50
3.25689e-11
 51
139.3475588054546
  0
ARC
  5
F1
330
17
100
AcDbEntity
  8
CUT
100
AcDbCircle
 10
56.47078498060108
 20
195.7116421895622
 30
0.0
 40
1.000000000000024
100
AcDbArc
 50
139.3475588054407
 51
180.000000000013
  0
LINE
  5
F2
330
17
100
AcDbEntity
  8
CUT
100
AcDbLine
 10
55.47078498060108
 20
195.7116421895619
 30
0.0
 11
55.470784980611995
 21
186.7208385258024
 31
0.0
  0
ARC
  5
F3
330
17
100
AcDbEntity
  8
CUT
100
AcDbCircle
 10
56.470784980611995
 20
186.7208385258031
 30
0.0
 40
1.0
100
AcDbArc
 50
180.0000000000391
 51
220.6524411945802
  0
LINE
  5
F4
330
17
100
AcDbEntity
  8
CUT
100
AcDbLine
 10
55.7121096263229
 20
186.0693696418225
 30
0.0
 11
62.050549770921066
 21
178.6878684825345
 31
0.0
  0
ARC
  5
F5
330
17
100
AcDbEntity
  8
CUT
100
AcDbCircle
 10
62.809225125210276
 20
179.3393373665149
 30
0.0
 40
1.0
100
AcDbArc
 50
220.6524411945802
 51
3.25689e-11
  0
LINE
  5
F6
330
17
100
AcDbEntity
  8
CUT
100
AcDbLine
 10
63.80922512519936
 20
188.3439660937296
 30
0.0
 11
63.809225125210276
 21
179.3393373665155
 31
0.0
  0
ARC
  5
F7
330
17
100
AcDbEntity
  8
CUT
100
AcDbCircle
 10
62.80922512519936
 20
188.3439660937289
 30
0.0
 40
1.0
100
AcDbArc
 50
3.25689e-11
 51
40.6524411945802
  0
LINE
  5
F8
330
17
100
AcDbEntity
  8
CUT
100
AcDbLine
 10
63.56790047948857
 20
188.9954349777092
 30
0.0
 11
61.21210962631187
 21
191.7388974885219
 31
0.0
  0
ARC
  5
F9
330
17
100
AcDbEntity
  8
CUT
100
AcDbCircle
 10
61.97078498060108
 20
192.3903663725027
 30
0.0
 40
1.0
100
AcDbArc
 50
180.0000000000325
 51
220.6524411945843
  0
LWPOLYLINE
  5
FA
330
17
100
AcDbEntity
  8
CUT
100
AcDbPolyline
 90
8
 70
1
 10
63.35078499895582
 20
198.0475046948984
 42
-1.000000022967015
 10
63.35078496220848
 20
199.6475046948977
 10
66.47078499895827
 20
199.6475046948974
 42
-0.9999999999999998
 10
66.47078499895827
 20
198.0475046948981
 10
66.47078499895827
 20
195.1475215855035
 42
-0.9999999999999998
 10
66.47078499895827
 20
193.5475215855043
 10
63.35078496220848
 20
193.5475215855046
 42
-1.000000022969288
 10
63.3507849989594
 20
195.1475215855038
  0
LWPOLYLINE
  5
FB
330
17
100
AcDbEntity
  8
CUT
100
AcDbPolyline
 90
8
 70
1
 10
63.35078498050569
 20
211.6316552851943
 42
-1.000000022967015
 10
63.3507849437604
 20
213.2316552851935
 10
66.47078498051019
 20
213.2316552851932
 42
-0.9999999999999998
 10
66.47078498050831
 20
211.631655285194
 10
66.47078498050831
 20
208.7316721757994
 42
-0.9999999999999998
 10
66.47078498050831
 20
207.1316721758002
 10
63.35078494375847
 20
207.1316721758004
 42
-1.000000022969288
 10
63.35078498050939
 20
208.7316721757997
  0
LINE
  5
FC
330
17
100
AcDbEntity
  8
CUT
100
AcDbLine
 10
66.66363388693321
 20
159.5550087583437
 30
0.0
 11
59.16092449023847
 21
168.2923726595785
 31
0.0
  0
ARC
  5
FD
330
17
100
AcDbEntity
  8
CUT
100
AcDbCircle
 10
65.52562085550488
 20
158.5778054323736
 30
0.0
 40
1.5
100
AcDbArc
 50
341.0962494318972
 51
40.65244119456841
  0
LINE
  5
FE
330
17
100
AcDbEntity
  8
CUT
100
AcDbLine
 10
66.94471708536838
 20
158.09183641033312
 30
0.0
 11
59.40980312811837
 21
139.8041697587847
 31
0.0
  0
LINE
  5
FF
330
17
100
AcDbEntity
  8
CUT
100
AcDbLine
 10
56.5229114588048
 20
167.3151693336082
 30
0.0
 11
56.5229114588048
 21
140.3755991048812
 31
0.0
  0
ARC
  5
100
330
17
100
AcDbEntity
  8
CUT
100
AcDbCircle
 10
58.0229114588048
 20
140.3755991048812
 30
0.0
 40
1.5
100
AcDbArc
 50
180.0
 51
337.6072801912457
  0
ARC
  5
101
330
17
100
AcDbEntity
  8
CUT
100
AcDbCircle
 10
58.0229114588048
 20
167.3151693336082
 30
0.0
 40
1.5
100
AcDbArc
 50
40.65244119456841
 51
180.0
  0
LINE
  5
102
330
17
100
AcDbEntity
  8
CUT
100
AcDbLine
 10
43.47078498117406
 20
40.778502906806295
 30
0.0
 11
43.47078498117406
 21
18.52303590526799
 31
0.0
  0
ARC
  5
103
330
17
100
AcDbEntity
  8
CUT
100
AcDbCircle
 10
44.47078498117418
 20
40.778502906806295
 30
0.0
 40
1.0
100
AcDbArc
 50
133.7275391565996
 51
180.0
  0
LINE
  5
104
330
17
100
AcDbEntity
  8
CUT
100
AcDbLine
 10
43.779555156511606
 20
41.5011378973083
 30
0.0
 11
46.162014805847605
 21
43.78005766637631
 31
0.0
  0
LINE
  5
105
330
17
100
AcDbEntity
  8
CUT
100
AcDbLine
 10
55.47078498116127
 20
43.12239942969779
 30
0.0
 11
55.47078498115769
 21
25.5632346053157
 31
0.0
  0
ARC
  5
106
330
17
100
AcDbEntity
  8
CUT
100
AcDbCircle
 10
56.47078498115769
 20
25.563234605314108
 30
0.0
 40
1.0
100
AcDbArc
 50
179.9999999999088
 51
220.4392515762878
  0
LINE
  5
107
330
17
100
AcDbEntity
  8
CUT
100
AcDbLine
 10
55.70969085929869
 20
24.914593149908228
 30
0.0
 11
61.7096908593096
 21
17.874394449858528
 31
0.0
  0
ARC
  5
108
330
17
100
AcDbEntity
  8
CUT
100
AcDbCircle
 10
62.47078498116866
 20
18.523035905265886
 30
0.0
 40
1.0
100
AcDbArc
 50
220.4392515764247
 51
359.999999999987
  0
LINE
  5
109
330
17
100
AcDbEntity
  8
CUT
100
AcDbLine
 10
60.47078498116497
 20
44.50269265687649
 30
0.0
 11
60.470784981163206
 21
46.422712096717476
 31
0.0
  0
ARC
  5
10A
330
17
100
AcDbEntity
  8
CUT
100
AcDbCircle
 10
61.47078498116491
 20
44.50269265687649
 30
0.0
 40
1.0
100
AcDbArc
 50
180.0
 51
226.2724608433821
  0
LINE
  5
10B
330
17
100
AcDbEntity
  8
CUT
100
AcDbLine
 10
58.730813187369904
 20
47.09534999662429
 30
0.0
 11
55.730813187368085
 21
43.79503732960421
 31
0.0
  0
ARC
  5
10C
330
17
100
AcDbEntity
  8
CUT
100
AcDbCircle
 10
59.470784981163206
 20
46.4227120967177
 30
0.0
 40
1.0
100
AcDbArc
 50
359.999999999987
 51
137.7290128899221
  0
ARC
  5
10D
330
17
100
AcDbEntity
  8
CUT
100
AcDbCircle
 10
56.47078498116127
 20
43.122399429700124
 30
0.0
 40
0.999999999999723
100
AcDbArc
 50
137.729012890212
 51
180.0000000001302
  0
LINE
  5
10E
330
17
100
AcDbEntity
  8
CUT
100
AcDbLine
 10
63.47078498117406
 20
40.77850290680391
 30
0.0
 11
63.470784981168606
 21
18.5230359052656
 31
0.0
  0
ARC
  5
10F
330
17
100
AcDbEntity
  8
CUT
100
AcDbCircle
 10
62.47078498117406
 20
40.77850290680408
 30
0.0
 40
1.0
100
AcDbArc
 50
359.999999999987
 51
46.2724608433823
  0
LINE
  5
110
330
17
100
AcDbEntity
  8
CUT
100
AcDbLine
 10
63.16201480583658
 20
41.50113789730602
 30
0.0
 11
60.77955515650058
 21
43.7800576663746
 31
0.0
  0
LWPOLYLINE
  5
111
330
17
100
AcDbEntity
  8
CUT
100
AcDbPolyline
 90
5
 70
0
 10
39.67094975205538
 20
219.5329292351392
 42
0.4201707815994295
 10
40.4707849818563
 20
218.71669331296448
 10
43.590785018606084
 20
218.71669331296448
 42
1.000000022969288
 10
43.59078498185528
 20
220.3166933129637
 10
43.590784981856984
 20
220.8993352164053
  0
LWPOLYLINE
  5
112
330
17
100
AcDbEntity
  8
CUT
100
AcDbPolyline
 90
5
 70
0
 10
67.27078498048797
 20
219.5166933129641
 42
-0.4142135623730951
 10
66.4707849804883
 20
218.71669331296448
 10
63.35078494373852
 20
218.71669331296448
 42
-1.000000022969288
 10
63.35078498048938
 20
220.3166933129637
 10
63.350784980487504
 20
220.8993352164053
  0
LINE
  5
113
330
17
100
AcDbEntity
  8
CUT
100
AcDbLine
 10
41.440128209156
 20
75.9216159757276
 30
0.0
 11
49.763678200000186
 21
67.59806598488143
 31
0.0
  0
ARC
  5
114
330
17
100
AcDbEntity
  8
CUT
100
AcDbCircle
 10
50.47078498118691
 20
68.30517276606781
 30
0.0
 40
1.0
100
AcDbArc
 50
224.9999999999948
 51
0.0
  0
ARC
  5
115
330
17
100
AcDbEntity
  8
CUT
100
AcDbCircle
 10
49.97078498118691
 20
78.89491421376891
 30
0.0
 40
1.5
100
AcDbArc
 50
0.0
 51
44.99999999999091
  0
LINE
  5
116
330
17
100
AcDbEntity
  8
CUT
100
AcDbLine
 10
41.50716621086872
 20
78.1059820623932
 30
0.0
 11
46.486707240389705
 21
82.509075699388
 31
0.0
  0
ARC
  5
117
330
17
100
AcDbEntity
  8
CUT
100
AcDbCircle
 10
42.50078838093509
 20
76.98227614750692
 30
0.0
 40
1.5
100
AcDbArc
 50
131.4842987053405
 51
224.9999999999948
  0
LINE
  5
118
330
17
100
AcDbEntity
  8
CUT
100
AcDbLine
 10
48.54098958223517
 20
82.44602995628003
 30
0.0
 11
51.03144515296589
 21
79.95557438554812
 31
0.0
  0
ARC
  5
119
330
17
100
AcDbEntity
  8
CUT
100
AcDbCircle
 10
47.48032941045608
 20
81.38536978450128
 30
0.0
 40
1.5
100
AcDbArc
 50
44.99999999999091
 51
131.4842987053411
  0
LINE
  5
11A
330
17
100
AcDbEntity
  8
CUT
100
AcDbLine
 10
65.5014417531886
 20
75.9216159757276
 30
0.0
 11
57.177891762344416
 21
67.59806598488143
 31
0.0
  0
LINE
  5
11B
330
17
100
AcDbEntity
  8
CUT
100
AcDbLine
 10
55.47078498115769
 20
78.89491421376891
 30
0.0
 11
55.47078498115769
 21
68.30517276606781
 31
0.0
  0
ARC
  5
11C
330
17
100
AcDbEntity
  8
CUT
100
AcDbCircle
 10
56.47078498115769
 20
68.30517276606781
 30
0.0
 40
1.0
100
AcDbArc
 50
180.0
 51
314.9999999998986
  0
ARC
  5
11D
330
17
100
AcDbEntity
  8
CUT
100
AcDbCircle
 10
56.97078498115769
 20
78.89491421376891
 30
0.0
 40
1.5
100
AcDbArc
 50
134.9999999998986
 51
180.0
  0
LINE
  5
11E
330
17
100
AcDbEntity
  8
CUT
100
AcDbLine
 10
65.43440375147577
 20
78.1059820623932
 30
0.0
 11
60.45486272195478
 21
82.509075699388
 31
0.0
  0
ARC
  5
11F
330
17
100
AcDbEntity
  8
CUT
100
AcDbCircle
 10
64.44078158140951
 20
76.98227614750692
 30
0.0
 40
1.5
100
AcDbArc
 50
314.9999999998986
 51
48.51570129476762
  0
LINE
  5
120
330
17
100
AcDbEntity
  8
CUT
100
AcDbLine
 10
58.400580380109375
 20
82.44602995628003
 30
0.0
 11
55.9101248093786
 21
79.95557438554812
 31
0.0
  0
ARC
  5
121
330
17
100
AcDbEntity
  8
CUT
100
AcDbCircle
 10
59.461240551888466
 20
81.38536978450128
 30
0.0
 40
1.5
100
AcDbArc
 50
48.51570129476762
 51
134.9999999998986
  0
LINE
  5
122
330
17
100
AcDbEntity
  8
CUT
100
AcDbLine
 10
51.47078498118691
 20
78.89491421376891
 30
0.0
 11
51.47078498118691
 21
68.30517276606781
 31
0.0
  0
ENDSEC
  0
SECTION
  2
OBJECTS
  0
DICTIONARY
  5
A
330
0
100
AcDbDictionary
281
1
  3
ACAD_COLOR
350
B
  3
ACAD_GROUP
350
C
  3
ACAD_LAYOUT
350
D
  3
ACAD_MATERIAL
350
E
  3
ACAD_MLEADERSTYLE
350
F
  3
ACAD_MLINESTYLE
350
10
  3
ACAD_PLOTSETTINGS
350
11
  3
ACAD_PLOTSTYLENAME
350
12
  3
ACAD_SCALELIST
350
14
  3
ACAD_TABLESTYLE
350
15
  3
ACAD_VISUALSTYLE
350
16
  3
EZDXF_META
350
2D
  0
DICTIONARY
  5
B
330
A
100
AcDbDictionary
281
1
  0
DICTIONARY
  5
C
330
A
100
AcDbDictionary
281
1
  0
DICTIONARY
  5
D
330
A
100
AcDbDictionary
281
1
  3
Model
350
1A
  3
Layout1
350
1E
  0
DICTIONARY
  5
E
330
A
100
AcDbDictionary
281
1
  3
ByBlock
350
1F
  3
ByLayer
350
20
  3
Global
350
21
  0
DICTIONARY
  5
F
330
A
100
AcDbDictionary
281
1
  3
Standard
350
2C
  0
DICTIONARY
  5
10
330
A
100
AcDbDictionary
281
1
  3
Standard
350
22
  0
DICTIONARY
  5
11
330
A
100
AcDbDictionary
281
1
  0
ACDBDICTIONARYWDFLT
  5
12
330
A
100
AcDbDictionary
281
1
  3
Normal
350
13
100
AcDbDictionaryWithDefault
340
13
  0
ACDBPLACEHOLDER
  5
13
330
12
  0
DICTIONARY
  5
14
330
A
100
AcDbDictionary
281
1
  0
DICTIONARY
  5
15
330
A
100
AcDbDictionary
281
1
  0
DICTIONARY
  5
16
330
A
100
AcDbDictionary
281
1
  0
LAYOUT
  5
1A
330
D
100
AcDbPlotSettings
  1

  4
A3
  6

 40
7.5
 41
20.0
 42
7.5
 43
20.0
 44
420.0
 45
297.0
 46
0.0
 47
0.0
 48
0.0
 49
0.0
140
0.0
141
0.0
142
1.0
143
1.0
 70
1024
 72
1
 73
0
 74
5
  7

 75
16
 76
0
 77
2
 78
300
147
1.0
148
0.0
149
0.0
100
AcDbLayout
  1
Model
 70
1
 71
0
 10
0.0
 20
0.0
 11
420.0
 21
297.0
 12
0.0
 22
0.0
 32
0.0
 14
1e+20
 24
1e+20
 34
1e+20
 15
-1e+20
 25
-1e+20
 35
-1e+20
146
0.0
 13
0.0
 23
0.0
 33
0.0
 16
1.0
 26
0.0
 36
0.0
 17
0.0
 27
1.0
 37
0.0
 76
1
330
17
  0
LAYOUT
  5
1E
330
D
100
AcDbPlotSettings
  1

  4
A3
  6

 40
7.5
 41
20.0
 42
7.5
 43
20.0
 44
420.0
 45
297.0
 46
0.0
 47
0.0
 48
0.0
 49
0.0
140
0.0
141
0.0
142
1.0
143
1.0
 70
0
 72
1
 73
0
 74
5
  7

 75
16
 76
0
 77
2
 78
300
147
1.0
148
0.0
149
0.0
100
AcDbLayout
  1
Layout1
 70
1
 71
1
 10
0.0
 20
0.0
 11
420.0
 21
297.0
 12
0.0
 22
0.0
 32
0.0
 14
1e+20
 24
1e+20
 34
1e+20
 15
-1e+20
 25
-1e+20
 35
-1e+20
146
0.0
 13
0.0
 23
0.0
 33
0.0
 16
1.0
 26
0.0
 36
0.0
 17
0.0
 27
1.0
 37
0.0
 76
1
330
1B
  0
MATERIAL
  5
1F
102
{ACAD_REACTORS
330
E
102
}
330
E
100
AcDbMaterial
  1
ByBlock
  2

 70
0
 40
1.0
 71
1
 41
1.0
 91
-1023410177
 42
1.0
 72
1
  3

 73
1
 74
1
 75
1
 44
0.5
 73
0
 45
1.0
 46
1.0
 77
1
  4

 78
1
 79
1
170
1
 48
1.0
171
1
  6

172
1
173
1
174
1
140
1.0
141
1.0
175
1
  7

176
1
177
1
178
1
143
1.0
179
1
  8

270
1
271
1
272
1
145
1.0
146
1.0
273
1
  9

274
1
275
1
276
1
 42
1.0
 72
1
  3

 73
1
 74
1
 75
1
 94
63
  0
MATERIAL
  5
20
102
{ACAD_REACTORS
330
E
102
}
330
E
100
AcDbMaterial
  1
ByLayer
  2

 70
0
 40
1.0
 71
1
 41
1.0
 91
-1023410177
 42
1.0
 72
1
  3

 73
1
 74
1
 75
1
 44
0.5
 73
0
 45
1.0
 46
1.0
 77
1
  4

 78
1
 79
1
170
1
 48
1.0
171
1
  6

172
1
173
1
174
1
140
1.0
141
1.0
175
1
  7

176
1
177
1
178
1
143
1.0
179
1
  8

270
1
271
1
272
1
145
1.0
146
1.0
273
1
  9

274
1
275
1
276
1
 42
1.0
 72
1
  3

 73
1
 74
1
 75
1
 94
63
  0
MATERIAL
  5
21
102
{ACAD_REACTORS
330
E
102
}
330
E
100
AcDbMaterial
  1
Global
  2

 70
0
 40
1.0
 71
1
 41
1.0
 91
-1023410177
 42
1.0
 72
1
  3

 73
1
 74
1
 75
1
 44
0.5
 73
0
 45
1.0
 46
1.0
 77
1
  4

 78
1
 79
1
170
1
 48
1.0
171
1
  6

172
1
173
1
174
1
140
1.0
141
1.0
175
1
  7

176
1
177
1
178
1
143
1.0
179
1
  8

270
1
271
1
272
1
145
1.0
146
1.0
273
1
  9

274
1
275
1
276
1
 42
1.0
 72
1
  3

 73
1
 74
1
 75
1
 94
63
  0
MLINESTYLE
  5
22
102
{ACAD_REACTORS
330
10
102
}
330
10
100
AcDbMlineStyle
  2
Standard
 70
0
  3

 62
256
 51
90.0
 52
90.0
 71
2
 49
0.5
 62
256
  6
BYLAYER
 49
-0.5
 62
256
  6
BYLAYER
  0
MLEADERSTYLE
  5
2C
102
{ACAD_REACTORS
330
F
102
}
330
F
100
AcDbMLeaderStyle
179
2
170
2
171
1
172
0
 90
2
 40
0.0
 41
0.0
173
1
 91
-1056964608
 92
-2
290
1
 42
2.0
291
1
 43
8.0
  3
Standard
 44
4.0
300

342
29
174
1
175
1
176
0
178
1
 93
-1056964608
 45
4.0
292
0
297
0
 46
4.0
 94
-1056964608
 47
1.0
 49
1.0
140
1.0
294
1
141
0.0
177
0
142
1.0
295
0
296
0
143
3.75
271
0
272
9
273
9
  0
DICTIONARY
  5
2D
330
A
100
AcDbDictionary
280
1
281
1
  3
CREATED_BY_EZDXF
350
2E
  3
WRITTEN_BY_EZDXF
350
125
  0
DICTIONARYVAR
  5
2E
330
2D
100
DictionaryVariables
280
0
  1
1.4.4 @ 2026-07-24T19:46:35.426782+00:00
  0
DICTIONARYVAR
  5
125
330
2D
100
DictionaryVariables
280
0
  1
1.4.4 @ 2026-07-24T19:46:35.431806+00:00
  0
ENDSEC
  0
EOF
