  0
SECTION
  2
HEADER
  9
$ACADVER
  1
AC1027
  9
$ACADMAINTVER
 70
105
  9
$DWGCODEPAGE
  3
ANSI_1252
  9
$LASTSAVEDBY
  1
ezdxf
  9
$REQUIREDVERSIONS
160
0
  9
$INSBASE
 10
0.0
 20
0.0
 30
0.0
  9
$EXTMIN
 10
1e+20
 20
1e+20
 30
1e+20
  9
$EXTMAX
 10
-1e+20
 20
-1e+20
 30
-1e+20
  9
$LIMMIN
 10
0.0
 20
0.0
  9
$LIMMAX
 10
420.0
 20
297.0
  9
$ORTHOMODE
 70
0
  9
$REGENMODE
 70
1
  9
$FILLMODE
 70
1
  9
$QTEXTMODE
 70
0
  9
$MIRRTEXT
 70
1
  9
$LTSCALE
 40
1.0
  9
$ATTMODE
 70
1
  9
$TEXTSIZE
 40
2.5
  9
$TRACEWID
 40
1.0
  9
$TEXTSTYLE
  7
Standard
  9
$CLAYER
  8
0
  9
$CELTYPE
  6
ByLayer
  9
$CECOLOR
 62
256
  9
$CELTSCALE
 40
1.0
  9
$DISPSILH
 70
0
  9
$DIMSCALE
 40
1.0
  9
$DIMASZ
 40
2.5
  9
$DIMEXO
 40
0.625
  9
$DIMDLI
 40
3.75
  9
$DIMRND
 40
0.0
  9
$DIMDLE
 40
0.0
  9
$DIMEXE
 40
1.25
  9
$DIMTP
 40
0.0
  9
$DIMTM
 40
0.0
  9
$DIMTXT
 40
2.5
  9
$DIMCEN
 40
2.5
  9
$DIMTSZ
 40
0.0
  9
$DIMTOL
 70
0
  9
$DIMLIM
 70
0
  9
$DIMTIH
 70
0
  9
$DIMTOH
 70
0
  9
$DIMSE1
 70
0
  9
$DIMSE2
 70
0
  9
$DIMTAD
 70
1
  9
$DIMZIN
 70
8
  9
$DIMBLK
  1

  9
$DIMASO
 70
1
  9
$DIMSHO
 70
1
  9
$DIMPOST
  1

  9
$DIMAPOST
  1

  9
$DIMALT
 70
0
  9
$DIMALTD
 70
3
  9
$DIMALTF
 40
0.03937007874
  9
$DIMLFAC
 40
1.0
  9
$DIMTOFL
 70
1
  9
$DIMTVP
 40
0.0
  9
$DIMTIX
 70
0
  9
$DIMSOXD
 70
0
  9
$DIMSAH
 70
0
  9
$DIMBLK1
  1

  9
$DIMBLK2
  1

  9
$DIMSTYLE
  2
ISO-25
  9
$DIMCLRD
 70
0
  9
$DIMCLRE
 70
0
  9
$DIMCLRT
 70
0
  9
$DIMTFAC
 40
1.0
  9
$DIMGAP
 40
0.625
  9
$DIMJUST
 70
0
  9
$DIMSD1
 70
0
  9
$DIMSD2
 70
0
  9
$DIMTOLJ
 70
0
  9
$DIMTZIN
 70
8
  9
$DIMALTZ
 70
0
  9
$DIMALTTZ
 70
0
  9
$DIMUPT
 70
0
  9
$DIMDEC
 70
2
  9
$DIMTDEC
 70
2
  9
$DIMALTU
 70
2
  9
$DIMALTTD
 70
3
  9
$DIMTXSTY
  7
Standard
  9
$DIMAUNIT
 70
0
  9
$DIMADEC
 70
0
  9
$DIMALTRND
 40
0.0
  9
$DIMAZIN
 70
0
  9
$DIMDSEP
 70
44
  9
$DIMATFIT
 70
3
  9
$DIMFRAC
 70
0
  9
$DIMLDRBLK
  1

  9
$DIMLUNIT
 70
2
  9
$DIMLWD
 70
-2
  9
$DIMLWE
 70
-2
  9
$DIMTMOVE
 70
0
  9
$DIMFXL
 40
1.0
  9
$DIMFXLON
 70
0
  9
$DIMJOGANG
 40
0.785398163397
  9
$DIMTFILL
 70
0
  9
$DIMTFILLCLR
 70
0
  9
$DIMARCSYM
 70
0
  9
$DIMLTYPE
  6

  9
$DIMLTEX1
  6

  9
$DIMLTEX2
  6

  9
$DIMTXTDIRECTION
 70
0
  9
$LUNITS
 70
2
  9
$LUPREC
 70
4
  9
$SKETCHINC
 40
1.0
  9
$FILLETRAD
 40
10.0
  9
$AUNITS
 70
0
  9
$AUPREC
 70
2
  9
$MENU
  1
.
  9
$ELEVATION
 40
0.0
  9
$PELEVATION
 40
0.0
  9
$THICKNESS
 40
0.0
  9
$LIMCHECK
 70
0
  9
$CHAMFERA
 40
0.0
  9
$CHAMFERB
 40
0.0
  9
$CHAMFERC
 40
0.0
  9
$CHAMFERD
 40
0.0
  9
$SKPOLY
 70
0
  9
$TDCREATE
 40
2461246.532349537
  9
$TDUCREATE
 40
2458532.153996898
  9
$TDUPDATE
 40
2461246.532349537
  9
$TDUUPDATE
 40
2458532.1544311
  9
$TDINDWG
 40
0.0
  9
$TDUSRTIMER
 40
0.0
  9
$USRTIMER
 70
1
  9
$ANGBASE
 50
0.0
  9
$ANGDIR
 70
0
  9
$PDMODE
 70
0
  9
$PDSIZE
 40
0.0
  9
$PLINEWID
 40
0.0
  9
$SPLFRAME
 70
0
  9
$SPLINETYPE
 70
6
  9
$SPLINESEGS
 70
8
  9
$HANDSEED
  5
126
  9
$SURFTAB1
 70
6
  9
$SURFTAB2
 70
6
  9
$SURFTYPE
 70
6
  9
$SURFU
 70
6
  9
$SURFV
 70
6
  9
$UCSBASE
  2

  9
$UCSNAME
  2

  9
$UCSORG
 10
0.0
 20
0.0
 30
0.0
  9
$UCSXDIR
 10
1.0
 20
0.0
 30
0.0
  9
$UCSYDIR
 10
0.0
 20
1.0
 30
0.0
  9
$UCSORTHOREF
  2

  9
$UCSORTHOVIEW
 70
0
  9
$UCSORGTOP
 10
0.0
 20
0.0
 30
0.0
  9
$UCSORGBOTTOM
 10
0.0
 20
0.0
 30
0.0
  9
$UCSORGLEFT
 10
0.0
 20
0.0
 30
0.0
  9
$UCSORGRIGHT
 10
0.0
 20
0.0
 30
0.0
  9
$UCSORGFRONT
 10
0.0
 20
0.0
 30
0.0
  9
$UCSORGBACK
 10
0.0
 20
0.0
 30
0.0
  9
$PUCSBASE
  2

  9
$PUCSNAME
  2

  9
$PUCSORG
 10
0.0
 20
0.0
 30
0.0
  9
$PUCSXDIR
 10
1.0
 20
0.0
 30
0.0
  9
$PUCSYDIR
 10
0.0
 20
1.0
 30
0.0
  9
$PUCSORTHOREF
  2

  9
$PUCSORTHOVIEW
 70
0
  9
$PUCSORGTOP
 10
0.0
 20
0.0
 30
0.0
  9
$PUCSORGBOTTOM
 10
0.0
 20
0.0
 30
0.0
  9
$PUCSORGLEFT
 10
0.0
 20
0.0
 30
0.0
  9
$PUCSORGRIGHT
 10
0.0
 20
0.0
 30
0.0
  9
$PUCSORGFRONT
 10
0.0
 20
0.0
 30
0.0
  9
$PUCSORGBACK
 10
0.0
 20
0.0
 30
0.0
  9
$USERI1
 70
0
  9
$USERI2
 70
0
  9
$USERI3
 70
0
  9
$USERI4
 70
0
  9
$USERI5
 70
0
  9
$USERR1
 40
0.0
  9
$USERR2
 40
0.0
  9
$USERR3
 40
0.0
  9
$USERR4
 40
0.0
  9
$USERR5
 40
0.0
  9
$WORLDVIEW
 70
1
  9
$SHADEDGE
 70
3
  9
$SHADEDIF
 70
70
  9
$TILEMODE
 70
1
  9
$MAXACTVP
 70
64
  9
$PINSBASE
 10
0.0
 20
0.0
 30
0.0
  9
$PLIMCHECK
 70
0
  9
$PEXTMIN
 10
1e+20
 20
1e+20
 30
1e+20
  9
$PEXTMAX
 10
-1e+20
 20
-1e+20
 30
-1e+20
  9
$PLIMMIN
 10
0.0
 20
0.0
  9
$PLIMMAX
 10
420.0
 20
297.0
  9
$UNITMODE
 70
0
  9
$VISRETAIN
 70
1
  9
$PLINEGEN
 70
0
  9
$PSLTSCALE
 70
1
  9
$TREEDEPTH
 70
3020
  9
$CMLSTYLE
  2
Standard
  9
$CMLJUST
 70
0
  9
$CMLSCALE
 40
20.0
  9
$PROXYGRAPHICS
 70
1
  9
$MEASUREMENT
 70
1
  9
$CELWEIGHT
370
-1
  9
$ENDCAPS
280
0
  9
$JOINSTYLE
280
0
  9
$LWDISPLAY
290
0
  9
$INSUNITS
 70
4
  9
$HYPERLINKBASE
  1

  9
$STYLESHEET
  1

  9
$XEDIT
290
1
  9
$CEPSNTYPE
380
0
  9
$PSTYLEMODE
290
1
  9
$FINGERPRINTGUID
  2
{A60D4E5A-74A8-4991-B055-1DC2D2451642}
  9
$VERSIONGUID
  2
{3FD5D083-9864-4754-8437-2E9BE7A2EF2B}
  9
$EXTNAMES
290
1
  9
$PSVPSCALE
 40
0.0
  9
$OLESTARTUP
290
0
  9
$SORTENTS
280
127
  9
$INDEXCTL
280
0
  9
$HIDETEXT
280
1
  9
$XCLIPFRAME
280
1
  9
$HALOGAP
280
0
  9
$OBSCOLOR
 70
257
  9
$OBSLTYPE
280
0
  9
$INTERSECTIONDISPLAY
280
0
  9
$INTERSECTIONCOLOR
 70
257
  9
$DIMASSOC
280
2
  9
$PROJECTNAME
  1

  9
$CAMERADISPLAY
290
0
  9
$LENSLENGTH
 40
50.0
  9
$CAMERAHEIGHT
 40
0.0
  9
$STEPSPERSEC
 40
24.0
  9
$STEPSIZE
 40
100.0
  9
$3DDWFPREC
 40
2.0
  9
$PSOLWIDTH
 40
0.005
  9
$PSOLHEIGHT
 40
0.08
  9
$LOFTANG1
 40
1.570796326795
  9
$LOFTANG2
 40
1.570796326795
  9
$LOFTMAG1
 40
0.0
  9
$LOFTMAG2
 40
0.0
  9
$LOFTPARAM
 70
7
  9
$LOFTNORMALS
280
1
  9
$LATITUDE
 40
37.795
  9
$LONGITUDE
 40
-122.394
  9
$NORTHDIRECTION
 40
0.0
  9
$TIMEZONE
 70
-8000
  9
$LIGHTGLYPHDISPLAY
280
1
  9
$TILEMODELIGHTSYNCH
280
1
  9
$CMATERIAL
347
20
  9
$SOLIDHIST
280
0
  9
$SHOWHIST
280
1
  9
$DWFFRAME
280
2
  9
$DGNFRAME
280
2
  9
$REALWORLDSCALE
290
1
  9
$INTERFERECOLOR
 62
256
  9
$CSHADOW
280
0
  9
$SHADOWPLANELOCATION
 40
0.0
  0
ENDSEC
  0
SECTION
  2
CLASSES
  0
CLASS
  1
ACDBDICTIONARYWDFLT
  2
AcDbDictionaryWithDefault
  3
ObjectDBX Classes
 90
0
 91
0
280
0
281
0
  0
CLASS
  1
SUN
  2
AcDbSun
  3
SCENEOE
 90
1153
 91
0
280
0
281
0
  0
CLASS
  1
VISUALSTYLE
  2
AcDbVisualStyle
  3
ObjectDBX Classes
 90
4095
 91
0
280
0
281
0
  0
CLASS
  1
MATERIAL
  2
AcDbMaterial
  3
ObjectDBX Classes
 90
1153
 91
0
280
0
281
0
  0
CLASS
  1
SCALE
  2
AcDbScale
  3
ObjectDBX Classes
 90
1153
 91
0
280
0
281
0
  0
CLASS
  1
TABLESTYLE
  2
AcDbTableStyle
  3
ObjectDBX Classes
 90
4095
 91
0
280
0
281
0
  0
CLASS
  1
MLEADERSTYLE
  2
AcDbMLeaderStyle
  3
ACDB_MLEADERSTYLE_CLASS
 90
4095
 91
0
280
0
281
0
  0
CLASS
  1
DICTIONARYVAR
  2
AcDbDictionaryVar
  3
ObjectDBX Classes
 90
0
 91
0
280
0
281
0
  0
CLASS
  1
CELLSTYLEMAP
  2
AcDbCellStyleMap
  3
ObjectDBX Classes
 90
1152
 91
0
280
0
281
0
  0
CLASS
  1
MENTALRAYRENDERSETTINGS
  2
AcDbMentalRayRenderSettings
  3
SCENEOE
 90
1024
 91
0
280
0
281
0
  0
CLASS
  1
ACDBDETAILVIEWSTYLE
  2
AcDbDetailViewStyle
  3
ObjectDBX Classes
 90
1025
 91
0
280
0
281
0
  0
CLASS
  1
ACDBSECTIONVIEWSTYLE
  2
AcDbSectionViewStyle
  3
ObjectDBX Classes
 90
1025
 91
0
280
0
281
0
  0
CLASS
  1
RASTERVARIABLES
  2
AcDbRasterVariables
  3
ISM
 90
0
 91
0
280
0
281
0
  0
CLASS
  1
ACDBPLACEHOLDER
  2
AcDbPlaceHolder
  3
ObjectDBX Classes
 90
0
 91
0
280
0
281
0
  0
CLASS
  1
LAYOUT
  2
AcDbLayout
  3
ObjectDBX Classes
 90
0
 91
0
280
0
281
0
  0
ENDSEC
  0
SECTION
  2
TABLES
  0
TABLE
  2
VPORT
  5
8
330
0
100
AcDbSymbolTable
 70
1
  0
VPORT
  5
23
330
8
100
AcDbSymbolTableRecord
100
AcDbViewportTableRecord
  2
*Active
 70
0
 10
0.0
 20
0.0
 11
1.0
 21
1.0
 12
0.0
 22
0.0
 13
0.0
 23
0.0
 14
0.5
 24
0.5
 15
0.5
 25
0.5
 16
0.0
 26
0.0
 36
1.0
 17
0.0
 27
0.0
 37
0.0
 40
1000.0
 41
1.34
 42
50.0
 43
0.0
 44
0.0
 50
0.0
 51
0.0
 71
0
 72
1000
 73
1
 74
3
 75
0
 76
0
 77
0
 78
0
281
0
 65
0
146
0.0
  0
ENDTAB
  0
TABLE
  2
LTYPE
  5
2
330
0
100
AcDbSymbolTable
 70
3
  0
LTYPE
  5
24
330
2
100
AcDbSymbolTableRecord
100
AcDbLinetypeTableRecord
  2
ByBlock
 70
0
  3

 72
65
 73
0
 40
0.0
  0
LTYPE
  5
25
330
2
100
AcDbSymbolTableRecord
100
AcDbLinetypeTableRecord
  2
ByLayer
 70
0
  3

 72
65
 73
0
 40
0.0
  0
LTYPE
  5
26
330
2
100
AcDbSymbolTableRecord
100
AcDbLinetypeTableRecord
  2
Continuous
 70
0
  3

 72
65
 73
0
 40
0.0
  0
ENDTAB
  0
TABLE
  2
LAYER
  5
1
330
0
100
AcDbSymbolTable
 70
7
  0
LAYER
  5
27
330
1
100
AcDbSymbolTableRecord
100
AcDbLayerTableRecord
  2
0
 70
0
 62
7
  6
Continuous
370
-3
390
13
347
21
  0
LAYER
  5
28
330
1
100
AcDbSymbolTableRecord
100
AcDbLayerTableRecord
  2
Defpoints
 70
0
 62
7
  6
Continuous
290
0
370
-3
390
13
347
21
  0
LAYER
  5
2F
330
1
100
AcDbSymbolTableRecord
100
AcDbLayerTableRecord
  2
CUT
 70
0
 62
7
  6
Continuous
370
-3
390
13
347
21
  0
LAYER
  5
30
330
1
100
AcDbSymbolTableRecord
100
AcDbLayerTableRecord
  2
POCKET
 70
0
 62
7
  6
Continuous
370
-3
390
13
347
21
  0
LAYER
  5
31
330
1
100
AcDbSymbolTableRecord
100
AcDbLayerTableRecord
  2
CHAMFER
 70
0
 62
7
  6
Continuous
370
-3
390
13
347
21
  0
LAYER
  5
32
330
1
100
AcDbSymbolTableRecord
100
AcDbLayerTableRecord
  2
COUNTERSINK
 70
0
 62
7
  6
Continuous
370
-3
390
13
347
21
  0
LAYER
  5
33
330
1
100
AcDbSymbolTableRecord
100
AcDbLayerTableRecord
  2
ANNOTATION
 70
0
 62
7
  6
Continuous
370
-3
390
13
347
21
  0
ENDTAB
  0
TABLE
  2
STYLE
  5
5
330
0
100
AcDbSymbolTable
 70
1
  0
STYLE
  5
29
330
5
100
AcDbSymbolTableRecord
100
AcDbTextStyleTableRecord
  2
Standard
 70
0
 40
0.0
 41
1.0
 50
0.0
 71
0
 42
2.5
  3
txt
  4

  0
ENDTAB
  0
TABLE
  2
VIEW
  5
7
330
0
100
AcDbSymbolTable
 70
0
  0
ENDTAB
  0
TABLE
  2
UCS
  5
6
330
0
100
AcDbSymbolTable
 70
0
  0
ENDTAB
  0
TABLE
  2
APPID
  5
3
330
0
100
AcDbSymbolTable
 70
3
  0
APPID
  5
2A
330
3
100
AcDbSymbolTableRecord
100
AcDbRegAppTableRecord
  2
ACAD
 70
0
  0
APPID
  5
123
330
3
100
AcDbSymbolTableRecord
100
AcDbRegAppTableRecord
  2
HATCHBACKGROUNDCOLOR
 70
0
  0
APPID
  5
124
330
3
100
AcDbSymbolTableRecord
100
AcDbRegAppTableRecord
  2
EZDXF
 70
0
  0
ENDTAB
  0
TABLE
  2
DIMSTYLE
  5
4
330
0
100
AcDbSymbolTable
 70
1
100
AcDbDimStyleTable
  0
DIMSTYLE
105
2B
330
4
100
AcDbSymbolTableRecord
100
AcDbDimStyleTableRecord
  2
Standard
 70
0
 40
1.0
 41
2.5
 42
0.625
 43
3.75
 44
1.25
 45
0.0
 46
0.0
 47
0.0
 48
0.0
 49
2.5
140
2.5
141
2.5
142
0.0
143
0.03937007874
144
1.0
145
0.0
146
1.0
147
0.625
148
0.0
 69
0
 70
0
 71
0
 72
0
 73
0
 74
0
 75
0
 76
0
 77
1
 78
8
 79
3
170
0
171
3
172
1
173
0
174
0
175
0
176
0
177
0
178
0
179
2
271
2
272
2
273
2
274
3
275
0
276
0
277
2
278
44
279
0
280
0
281
0
282
0
283
0
284
8
285
0
286
0
288
0
289
3
290
0
371
-2
372
-2
  0
ENDTAB
  0
TABLE
  2
BLOCK_RECORD
  5
9
330
0
100
AcDbSymbolTable
 70
2
  0
BLOCK_RECORD
  5
17
330
9
100
AcDbSymbolTableRecord
100
AcDbBlockTableRecord
  2
*Model_Space
340
1A
 70
0
280
1
281
0
  0
BLOCK_RECORD
  5
1B
330
9
100
AcDbSymbolTableRecord
100
AcDbBlockTableRecord
  2
*Paper_Space
340
1E
 70
0
280
1
281
0
  0
ENDTAB
  0
ENDSEC
  0
SECTION
  2
BLOCKS
  0
BLOCK
  5
18
330
17
100
AcDbEntity
  8
0
100
AcDbBlockBegin
  2
*Model_Space
 70
0
 10
0.0
 20
0.0
 30
0.0
  3
*Model_Space
  1

  0
ENDBLK
  5
19
330
17
100
AcDbEntity
  8
0
100
AcDbBlockEnd
  0
BLOCK
  5
1C
330
1B
100
AcDbEntity
  8
0
100
AcDbBlockBegin
  2
*Paper_Space
 70
0
 10
0.0
 20
0.0
 30
0.0
  3
*Paper_Space
  1

  0
ENDBLK
  5
1D
330
1B
100
AcDbEntity
  8
0
100
AcDbBlockEnd
  0
ENDSEC
  0
SECTION
  2
ENTITIES
  0
LINE
  5
34
330
17
100
AcDbEntity
  8
CUT
100
AcDbLine
 10
53.43876368131049
 20
125.93470252167805
 30
0.0
 11
16.248653876543585
 21
121.84494576996985
 31
0.0
  0
LINE
  5
35
330
17
100
AcDbEntity
  8
CUT
100
AcDbLine
 10
16.248653876543585
 20
121.84494576996985
 30
0.0
 11
11.158230898454576
 21
121.84494576996985
 31
0.0
  0
LINE
  5
36
330
17
100
AcDbEntity
  8
CUT
100
AcDbLine
 10
16.686098893629264
 20
120.13585079023716
 30
0.0
 11
49.541968524060565
 21
115.70938354325025
 31
0.0
  0
LINE
  5
37
330
17
100
AcDbEntity
  8
CUT
100
AcDbLine
 10
16.876762517154702
 20
118.42828315876625
 30
0.0
 11
52.843381838375706
 21
110.40822672352365
 31
0.0
  0
LINE
  5
38
330
17
100
AcDbEntity
  8
CUT
100
AcDbLine
 10
16.686098893629264
 20
120.13585079023716
 30
0.0
 11
11.422381214399252
 21
120.13585079023716
 31
0.0
  0
LINE
  5
39
330
17
100
AcDbEntity
  8
CUT
100
AcDbLine
 10
16.876762517154702
 20
118.42828315876625
 30
0.0
 11
11.422381214399252
 21
118.42828315876625
 31
0.0
  0
LWPOLYLINE
  5
3A
330
17
100
AcDbEntity
  8
CUT
100
AcDbPolyline
 90
81
 70
0
 10
67.27078498048786
 20
219.51669331296404
 10
67.27078498048786
 20
220.23921019652704
 10
71.10463320744486
 20
218.96128237329646
 42
-0.3228242048989219
 10
71.78841024868336
 20
218.01259747284098
 10
71.78841024868336
 20
201.51120815841506
 42
0.192429923772448
 10
72.61478002285838
 20
199.44352064784275
 10
77.88297662371866
 20
193.90539590284234
 42
-0.1924299237724283
 10
78.70934639789368
 20
191.83770839227026
 10
78.70934639789368
 20
186.77954834853185
 42
-0.2144574455153475
 10
77.70047275423445
 20
184.53557512384955
 10
74.89871953907749
 20
182.04951842348885
 42
0.2144574455153393
 10
73.88984589541826
 20
179.80554519880675
 10
73.88984589541826
 20
170.41259965286636
 42
0.1989123673796171
 10
74.76852555185826
 20
168.29127930930696
 10
84.14564309877198
 20
158.91416176239136
 42
0.1255757172341736
 10
87.122513301668
 20
157.14767849496215
 10
94.8487759157299
 20
154.87810669827564
 42
-0.1581890958761813
 10
98.41643173556179
 20
152.44001727990445
 10
100.48194387182889
 20
149.76501487114686
 42
-0.3948651666360341
 10
99.57831424689829
 20
140.24291261764606
 10
80.30502061157767
 20
123.20075630915974
 42
0.4506319876262991
 10
80.30502061157961
 20
108.21801077733946
 10
99.5783142469001
 20
91.17585446885374
 42
-0.3948651666360344
 10
100.48194387182696
 20
81.65375221535297
 10
98.41643173556179
 20
78.97874980659614
 42
-0.1581890958761813
 10
94.8487759157299
 20
76.54066038822486
 10
87.122513301668
 20
74.27108859153844
 42
0.1255757172341736
 10
84.14564309877198
 20
72.50460532410915
 10
74.76852555185826
 20
63.12748777719355
 42
0.1989123673796368
 10
73.88984589541826
 20
61.00616743363395
 10
73.88984589541826
 20
8.925419950631415
 42
-0.4142135623730951
 10
70.88984589541826
 20
5.925419950631415
 10
63.610128376302896
 20
5.925419950631415
 42
0.0530223810717736
 10
63.1895102067366
 20
5.8806898438766595
 10
59.30349903502179
 20
5.044730106754855
 42
-0.0530223810720016
 10
58.88288086545549
 20
5.0
 10
57.82337589934218
 20
5.0
 42
-0.2196847197506809
 10
57.062281777483065
 20
5.35135854459201
 10
54.63764386177826
 20
8.196347328287395
 42
0.2196847197506765
 10
53.8765497399192
 20
8.547705872879305
 10
53.470784981186796
 20
8.547705872879305
 10
53.06502022242529
 20
8.547705872879305
 42
0.2196847197506765
 10
52.30392610056629
 20
8.196347328287395
 10
49.879288184861366
 20
5.35135854459201
 42
-0.2196847197506809
 10
49.11819406300236
 20
5.0
 10
48.058689096889054
 20
5.0
 42
-0.0530223810720016
 10
47.63807092732276
 20
5.044730106754855
 10
43.752059755607775
 20
5.8806898438766595
 42
0.0530223810717736
 10
43.33144158604148
 20
5.925419950631415
 10
36.05172406692617
 20
5.925419950631415
 42
-0.4142135623730951
 10
33.05172406692617
 20
8.925419950631415
 10
33.05172406692617
 20
61.00616743363395
 42
0.1989123673796368
 10
32.17304441048617
 20
63.12748777719355
 10
22.795926863572504
 20
72.50460532410915
 42
0.1255757172341736
 10
19.819056660676495
 20
74.27108859153844
 10
12.0927940466147
 20
76.54066038822486
 42
-0.1581890958761813
 10
8.525138226782701
 20
78.97874980659614
 10
6.4596260905156555
 20
81.65375221535365
 42
-0.3948651666360752
 10
7.363255715446201
 20
91.17585446885445
 10
26.636549350766586
 20
108.21801077734065
 42
0.4506319876263103
 10
26.636549350764767
 20
123.20075630916105
 10
7.363255715444382
 20
140.24291261764685
 42
-0.3948651666360344
 10
6.4596260905174745
 20
149.76501487114754
 10
8.525138226782701
 20
152.44001727990445
 42
-0.1581890958761813
 10
12.0927940466147
 20
154.87810669827564
 10
19.819056660676495
 20
157.14767849496215
 42
0.1255757172341736
 10
22.795926863572504
 20
158.91416176239136
 10
32.17304441048617
 20
168.29127930930696
 42
0.1989123673796171
 10
33.05172406692617
 20
170.41259965286636
 10
33.05172406692617
 20
179.80554519880675
 42
0.2144574455153393
 10
32.042850423267
 20
182.04951842348885
 10
29.241097208109863
 20
184.53557512384955
 42
-0.2144574455153475
 10
28.232223564450805
 20
186.77954834853185
 10
28.232223564450805
 20
191.83770839227026
 42
-0.1924299237724283
 10
29.05859333862577
 20
193.90539590284234
 10
34.326789939486105
 20
199.44352064784275
 42
0.192429923772448
 10
35.15315971366107
 20
201.51120815841506
 10
35.15315971366107
 20
218.01259747284098
 42
-0.3228242048989219
 10
35.83693675489957
 20
218.96128237329646
 10
39.67094975205538
 20
220.23926511899907
 10
39.670949752055265
 20
219.53292923513754
  0
CIRCLE
  5
3B
330
17
100
AcDbEntity
  8
CUT
100
AcDbCircle
 10
42.500878384039595
 20
124.17983393832407
 30
0.0
 40
1.5
  0
LINE
  5
3C
330
17
100
AcDbEntity
  8
POCKET
100
AcDbLine
 10
57.55168019985757
 20
129.90901754481385
 30
0.0
 11
51.051444628502566
 21
126.10146845951564
 31
0.0
  0
LINE
  5
3D
330
17
100
AcDbEntity
  8
POCKET
100
AcDbLine
 10
50.54965118591389
 20
124.88903225977424
 30
0.0
 11
48.89679311383338
 21
123.93664665608594
 31
0.0
  0
LINE
  5
3E
330
17
100
AcDbEntity
  8
POCKET
100
AcDbLine
 10
49.105656634689865
 20
121.97943720263277
 30
0.0
 11
57.47559465815095
 21
119.29725988421325
 31
0.0
  0
ARC
  5
3F
330
17
100
AcDbEntity
  8
POCKET
100
AcDbCircle
 10
49.43405570839718
 20
123.00423145281414
 30
0.0
 40
1.07612694735063
100
AcDbArc
 50
119.9507747631106
 51
252.2317528249828
  0
ARC
  5
40
330
17
100
AcDbEntity
  8
POCKET
100
AcDbCircle
 10
57.80399373185469
 20
120.32205413439476
 30
0.0
 40
1.07612694735063
100
AcDbArc
 50
252.2317528249828
 51
0.0
  0
LINE
  5
41
330
17
100
AcDbEntity
  8
POCKET
100
AcDbLine
 10
58.88012067920607
 20
120.32205413439476
 30
0.0
 11
58.88012067920607
 21
120.59329842136555
 31
0.0
  0
ARC
  5
42
330
17
100
AcDbEntity
  8
POCKET
100
AcDbCircle
 10
57.80399373185469
 20
120.59329842136555
 30
0.0
 40
1.07612694735063
100
AcDbArc
 50
0.0
 51
72.73089671965788
  0
LINE
  5
43
330
17
100
AcDbEntity
  8
POCKET
100
AcDbLine
 10
58.12345275225846
 20
121.62091466349816
 30
0.0
 11
52.8370818248124
 21
123.26430916110726
 31
0.0
  0
LINE
  5
44
330
17
100
AcDbEntity
  8
POCKET
100
AcDbLine
 10
52.83708182480876
 20
123.26430916110726
 30
0.0
 11
54.08656957249809
 21
124.05683117660465
 31
0.0
  0
LINE
  5
45
330
17
100
AcDbEntity
  8
POCKET
100
AcDbLine
 10
54.08656957250167
 20
124.05683117660706
 30
0.0
 11
57.45224352973776
 21
122.89276216984504
 31
0.0
  0
ARC
  5
46
330
17
100
AcDbEntity
  8
POCKET
100
AcDbCircle
 10
57.80399373185469
 20
123.90977790331345
 30
0.0
 40
1.07612694735063
100
AcDbArc
 50
250.9212853575641
 51
0.0
  0
LINE
  5
47
330
17
100
AcDbEntity
  8
POCKET
100
AcDbLine
 10
58.88012067920607
 20
123.90977790331345
 30
0.0
 11
58.88012067920607
 21
124.19822519264685
 31
0.0
  0
ARC
  5
48
330
17
100
AcDbEntity
  8
POCKET
100
AcDbCircle
 10
57.80399373185469
 20
124.19822519264685
 30
0.0
 40
1.07612694735063
100
AcDbArc
 50
0.0
 51
71.67108797827899
  0
LINE
  5
49
330
17
100
AcDbEntity
  8
POCKET
100
AcDbLine
 10
58.1424049931349
 20
125.21975689800445
 30
0.0
 11
55.9889027540969
 21
125.93316540511324
 31
0.0
  0
LINE
  5
4A
330
17
100
AcDbEntity
  8
POCKET
100
AcDbLine
 10
55.9889027540969
 20
125.93316540511086
 30
0.0
 11
58.63716672514528
 21
127.47550898768034
 31
0.0
  0
ARC
  5
4B
330
17
100
AcDbEntity
  8
POCKET
100
AcDbCircle
 10
58.0955866386077
 20
128.40542307870086
 30
0.0
 40
1.07612694735063
100
AcDbArc
 50
300.216435219405
 51
0.0
  0
LINE
  5
4C
330
17
100
AcDbEntity
  8
POCKET
100
AcDbLine
 10
59.1717135859555
 20
128.40542307870086
 30
0.0
 11
59.1717135859555
 21
128.98046221921294
 31
0.0
  0
ARC
  5
4D
330
17
100
AcDbEntity
  8
POCKET
100
AcDbCircle
 10
58.0955866386077
 20
128.98046221921294
 30
0.0
 40
1.07612694735063
100
AcDbArc
 50
0.0
 51
120.3598759371611
  0
LINE
  5
4E
330
17
100
AcDbEntity
  8
POCKET
100
AcDbLine
 10
47.03456362868491
 20
119.20485559223437
 30
0.0
 11
47.03456362868491
 21
119.08790653562895
 31
0.0
  0
LINE
  5
4F
330
17
100
AcDbEntity
  8
POCKET
100
AcDbLine
 10
49.02634536176379
 20
116.47981391679065
 30
0.0
 11
47.381928748601354
 21
114.87618033597875
 31
0.0
  0
ARC
  5
50
330
17
100
AcDbEntity
  8
POCKET
100
AcDbCircle
 10
48.1332517459461
 20
114.10574996243824
 30
0.0
 40
1.07612694735063
100
AcDbArc
 50
134.2806229267517
 51
180.0
  0
LINE
  5
51
330
17
100
AcDbEntity
  8
POCKET
100
AcDbLine
 10
47.05712479859466
 20
114.10574996243824
 30
0.0
 11
47.05712479859466
 21
113.55630572559016
 31
0.0
  0
LINE
  5
52
330
17
100
AcDbEntity
  8
POCKET
100
AcDbLine
 10
48.43115835919997
 20
112.52223568125436
 30
0.0
 11
57.40170671505007
 21
115.10657287810636
 31
0.0
  0
ARC
  5
53
330
17
100
AcDbEntity
  8
POCKET
100
AcDbCircle
 10
57.1038001017925
 20
116.14064292244205
 30
0.0
 40
1.07612694735063
100
AcDbArc
 50
286.0712323950729
 51
0.0
  0
LINE
  5
54
330
17
100
AcDbEntity
  8
POCKET
100
AcDbLine
 10
58.179927049144
 20
116.14064292244205
 30
0.0
 11
58.179927049144
 21
116.74109613842674
 31
0.0
  0
ARC
  5
55
330
17
100
AcDbEntity
  8
POCKET
100
AcDbCircle
 10
57.1038001017925
 20
116.74109613842674
 30
0.0
 40
1.07612694735063
100
AcDbArc
 50
0.0
 51
73.85253683642281
  0
LINE
  5
56
330
17
100
AcDbEntity
  8
POCKET
100
AcDbLine
 10
57.403082258309155
 20
117.77476890947406
 30
0.0
 11
48.40997273255306
 21
120.37856895920646
 31
0.0
  0
ARC
  5
57
330
17
100
AcDbEntity
  8
POCKET
100
AcDbCircle
 10
48.110690576036404
 20
119.34489618815905
 30
0.0
 40
1.07612694735063
100
AcDbArc
 50
73.85253683642281
 51
180.0
  0
LINE
  5
58
330
17
100
AcDbEntity
  8
POCKET
100
AcDbLine
 10
51.29563422573585
 20
115.80547661818596
 30
0.0
 11
50.917931582452354
 21
115.41648684925465
 31
0.0
  0
LINE
  5
59
330
17
100
AcDbEntity
  8
POCKET
100
AcDbLine
 10
50.91793158244866
 20
115.41648684925227
 30
0.0
 11
54.38565793260676
 21
116.46508083272695
 31
0.0
  0
LINE
  5
5A
330
17
100
AcDbEntity
  8
POCKET
100
AcDbLine
 10
54.38565793260676
 20
116.46508083272695
 30
0.0
 11
47.84143696788777
 21
118.15627795292914
 31
0.0
  0
ARC
  5
5B
330
17
100
AcDbEntity
  8
POCKET
100
AcDbCircle
 10
48.110690576036404
 20
119.19817607717926
 30
0.0
 40
1.07612694735063
100
AcDbArc
 50
180.0
 51
255.510287062719
  0
LINE
  5
5C
330
17
100
AcDbEntity
  8
POCKET
100
AcDbLine
 10
51.1070835567927
 20
116.47730830430635
 30
0.0
 11
50.04692196726057
 21
116.75128166749775
 31
0.0
  0
ARC
  5
5D
330
17
100
AcDbEntity
  8
POCKET
100
AcDbCircle
 10
49.777668359108475
 20
115.70938354325025
 30
0.0
 40
1.07612694735063
100
AcDbArc
 50
75.51028706250372
 51
134.2806229267517
  0
ARC
  5
5E
330
17
100
AcDbEntity
  8
POCKET
100
AcDbCircle
 10
51.006113453736475
 20
116.08659650771324
 30
0.0
 40
0.4035476052564863
100
AcDbArc
 50
315.8434385646317
 51
75.51028706271902
  0
ARC
  5
5F
330
17
100
AcDbEntity
  8
POCKET
100
AcDbCircle
 10
51.58870722307
 20
125.16905325624145
 30
0.0
 40
1.07612694735063
100
AcDbArc
 50
119.9507747631106
 51
195.0826336398903
  0
LINE
  5
60
330
17
100
AcDbEntity
  8
POCKET
100
AcDbLine
 10
47.03456362868491
 20
119.19817607717926
 30
0.0
 11
47.03456362868491
 21
119.34489618815905
 31
0.0
  0
CIRCLE
  5
61
330
17
100
AcDbEntity
  8
CUT
100
AcDbCircle
 10
42.500878384039595
 20
107.23893314817644
 30
0.0
 40
1.5
  0
ARC
  5
62
330
17
100
AcDbEntity
  8
POCKET
100
AcDbCircle
 10
48.1332517459461
 20
113.55630572559016
 30
0.0
 40
1.07612694735063
100
AcDbArc
 50
180.0
 51
286.0712323950729
  0
LINE
  5
63
330
17
100
AcDbEntity
  8
POCKET
100
AcDbLine
 10
47.93567597599508
 20
108.58285462130564
 30
0.0
 11
48.344636499689955
 21
108.34850653575344
 31
0.0
  0
ARC
  5
64
330
17
100
AcDbEntity
  8
POCKET
100
AcDbCircle
 10
48.87967424698326
 20
109.28220017704214
 30
0.0
 40
1.07612694735063
100
AcDbArc
 50
240.1858456691883
 51
285.8742168900409
  0
LINE
  5
65
330
17
100
AcDbEntity
  8
POCKET
100
AcDbLine
 10
49.17402338460778
 20
108.24711187549855
 30
0.0
 11
51.346362085930366
 21
108.89956169091755
 31
0.0
  0
LINE
  5
66
330
17
100
AcDbEntity
  8
POCKET
100
AcDbLine
 10
51.346362085930366
 20
108.89956169092005
 30
0.0
 11
51.346362085930366
 21
107.66906054179134
 31
0.0
  0
LINE
  5
67
330
17
100
AcDbEntity
  8
POCKET
100
AcDbLine
 10
54.29679641576615
 20
107.24888053406585
 30
0.0
 11
54.29679641576615
 21
109.71747120246425
 31
0.0
  0
LINE
  5
68
330
17
100
AcDbEntity
  8
POCKET
100
AcDbLine
 10
54.29679641576615
 20
109.71747120246914
 30
0.0
 11
56.33244498514358
 21
110.31536553412596
 31
0.0
  0
LINE
  5
69
330
17
100
AcDbEntity
  8
POCKET
100
AcDbLine
 10
56.33244498514358
 20
110.31536553412334
 30
0.0
 11
56.33244498514358
 21
104.77805966852696
 31
0.0
  0
ARC
  5
6A
330
17
100
AcDbEntity
  8
POCKET
100
AcDbCircle
 10
57.82576593228549
 20
112.45990447713086
 30
0.0
 40
1.07612694735063
100
AcDbArc
 50
0.0
 51
107.4650064936584
  0
LINE
  5
6B
330
17
100
AcDbEntity
  8
POCKET
100
AcDbLine
 10
57.50279520573275
 20
113.48642243440426
 30
0.0
 11
48.14774299673559
 21
110.54306621987035
 31
0.0
  0
ARC
  5
6C
330
17
100
AcDbEntity
  8
POCKET
100
AcDbCircle
 10
48.47071372328827
 20
109.51654826259684
 30
0.0
 40
1.07612694735063
100
AcDbArc
 50
107.4650064936584
 51
240.1858456691883
  0
ARC
  5
6D
330
17
100
AcDbEntity
  8
POCKET
100
AcDbCircle
 10
52.422489033281806
 20
107.66906054179134
 30
0.0
 40
1.07612694735063
100
AcDbArc
 50
180.0
 51
242.2366792485938
  0
LINE
  5
6E
330
17
100
AcDbEntity
  8
POCKET
100
AcDbLine
 10
51.92120729954797
 20
106.71681801478556
 30
0.0
 11
52.71938773468099
 21
106.29663800705995
 31
0.0
  0
ARC
  5
6F
330
17
100
AcDbEntity
  8
POCKET
100
AcDbCircle
 10
53.22066946841477
 20
107.24888053406585
 30
0.0
 40
1.07612694735063
100
AcDbArc
 50
242.2366792485938
 51
0.0
  0
ARC
  5
70
330
17
100
AcDbEntity
  8
POCKET
100
AcDbCircle
 10
57.408571932494965
 20
104.77805966852696
 30
0.0
 40
1.07612694735063
100
AcDbArc
 50
180.0
 51
241.552243571817
  0
LINE
  5
71
330
17
100
AcDbEntity
  8
POCKET
100
AcDbLine
 10
56.895951073264996
 20
103.83187307937246
 30
0.0
 11
57.31314507305177
 21
103.60584752681356
 31
0.0
  0
ARC
  5
72
330
17
100
AcDbEntity
  8
POCKET
100
AcDbCircle
 10
57.82576593228549
 20
104.55203411596796
 30
0.0
 40
1.07612694735063
100
AcDbArc
 50
241.552243571817
 51
0.0
  0
LINE
  5
73
330
17
100
AcDbEntity
  8
POCKET
100
AcDbLine
 10
58.901892879633294
 20
104.55203411596796
 30
0.0
 11
58.901892879633294
 21
112.45990447713086
 31
0.0
  0
CIRCLE
  5
74
330
17
100
AcDbEntity
  8
CUT
100
AcDbCircle
 10
29.744318476548187
 20
74.53308183131284
 30
0.0
 40
1.5
  0
CIRCLE
  5
75
330
17
100
AcDbEntity
  8
CUT
100
AcDbCircle
 10
33.39041125224065
 20
189.29000161426546
 30
0.0
 40
1.5
  0
CIRCLE
  5
76
330
17
100
AcDbEntity
  8
CUT
100
AcDbCircle
 10
29.744318476548187
 20
156.88568525518855
 30
0.0
 40
1.5
  0
CIRCLE
  5
77
330
17
100
AcDbEntity
  8
CUT
100
AcDbCircle
 10
39.0600683577988
 20
11.716983276508586
 30
0.0
 40
1.5
  0
CIRCLE
  5
78
330
17
100
AcDbEntity
  8
CUT
100
AcDbCircle
 10
53.4707849811723
 20
174.71350772588866
 30
0.0
 40
1.5
  0
CIRCLE
  5
79
330
17
100
AcDbEntity
  8
CUT
100
AcDbCircle
 10
27.607422640371794
 20
135.67986604624835
 30
0.0
 40
1.5
  0
CIRCLE
  5
7A
330
17
100
AcDbEntity
  8
CUT
100
AcDbCircle
 10
12.713966896703994
 20
147.17989815417266
 30
0.0
 40
2.149999999999999
  0
CIRCLE
  5
7B
330
17
100
AcDbEntity
  8
CUT
100
AcDbCircle
 10
43.47078498117406
 20
68.23410495421615
 30
0.0
 40
1.1
  0
CIRCLE
  5
7C
330
17
100
AcDbEntity
  8
CUT
100
AcDbCircle
 10
43.47078498117406
 20
48.23410495421615
 30
0.0
 40
1.1
  0
CIRCLE
  5
7D
330
17
100
AcDbEntity
  8
CUT
100
AcDbCircle
 10
63.470784981174006
 20
68.23410495421615
 30
0.0
 40
1.1
  0
CIRCLE
  5
7E
330
17
100
AcDbEntity
  8
CUT
100
AcDbCircle
 10
63.470784981174006
 20
48.23410495421615
 30
0.0
 40
1.1
  0
CIRCLE
  5
7F
330
17
100
AcDbEntity
  8
CUT
100
AcDbCircle
 10
40.72078498117406
 20
70.98410495421615
 30
0.0
 40
0.85
  0
CIRCLE
  5
80
330
17
100
AcDbEntity
  8
CUT
100
AcDbCircle
 10
66.220784981174
 20
70.98410495421615
 30
0.0
 40
0.85
  0
CIRCLE
  5
81
330
17
100
AcDbEntity
  8
CUT
100
AcDbCircle
 10
66.220784981174
 20
45.48410495421615
 30
0.0
 40
0.85
  0
CIRCLE
  5
82
330
17
100
AcDbEntity
  8
CUT
100
AcDbCircle
 10
40.72078498117406
 20
45.48410495421615
 30
0.0
 40
0.85
  0
CIRCLE
  5
83
330
17
100
AcDbEntity
  8
CUT
100
AcDbCircle
 10
27.607422640371794
 20
95.73890104025224
 30
0.0
 40
1.5
  0
CIRCLE
  5
84
330
17
100
AcDbEntity
  8
CUT
100
AcDbCircle
 10
12.713966896703994
 20
84.23886893232785
 30
0.0
 40
2.149999999999999
  0
LWPOLYLINE
  5
85
330
17
100
AcDbEntity
  8
CUT
100
AcDbPolyline
 90
4
 70
0
 10
53.47078498121226
 20
222.07398952109918
 10
48.01605600437426
 20
222.07398952109907
 42
0.0691074597333032
 10
47.47105480529825
 20
221.99830074670803
 10
43.590784981218576
 20
220.89933521622447
  0
CIRCLE
  5
86
330
17
100
AcDbEntity
  8
CUT
100
AcDbCircle
 10
77.1972514857963
 20
74.53308183131284
 30
0.0
 40
1.5
  0
CIRCLE
  5
87
330
17
100
AcDbEntity
  8
CUT
100
AcDbCircle
 10
73.55115871010389
 20
189.29000161426546
 30
0.0
 40
1.5
  0
CIRCLE
  5
88
330
17
100
AcDbEntity
  8
CUT
100
AcDbCircle
 10
77.1972514857963
 20
156.88568525518855
 30
0.0
 40
1.5
  0
CIRCLE
  5
89
330
17
100
AcDbEntity
  8
CUT
100
AcDbCircle
 10
67.88150160454558
 20
11.716983276508586
 30
0.0
 40
1.5
  0
CIRCLE
  5
8A
330
17
100
AcDbEntity
  8
CUT
100
AcDbCircle
 10
64.44069157830478
 20
124.17983393832407
 30
0.0
 40
1.5
  0
CIRCLE
  5
8B
330
17
100
AcDbEntity
  8
CUT
100
AcDbCircle
 10
79.3341473219727
 20
135.67986604624835
 30
0.0
 40
1.5
  0
CIRCLE
  5
8C
330
17
100
AcDbEntity
  8
CUT
100
AcDbCircle
 10
94.2276030656405
 20
147.17989815417266
 30
0.0
 40
2.149999999999999
  0
CIRCLE
  5
8D
330
17
100
AcDbEntity
  8
CUT
100
AcDbCircle
 10
64.44069157830478
 20
107.23893314817644
 30
0.0
 40
1.5
  0
CIRCLE
  5
8E
330
17
100
AcDbEntity
  8
CUT
100
AcDbCircle
 10
79.3341473219727
 20
95.73890104025224
 30
0.0
 40
1.5
  0
CIRCLE
  5
8F
330
17
100
AcDbEntity
  8
CUT
100
AcDbCircle
 10
94.2276030656405
 20
84.23886893232785
 30
0.0
 40
2.149999999999999
  0
LWPOLYLINE
  5
90
330
17
100
AcDbEntity
  8
CUT
100
AcDbPolyline
 90
4
 70
0
 10
53.47078498113217
 20
222.07398952109918
 10
58.92551395797017
 20
222.07398952109907
 42
-0.0691074597333032
 10
59.47051515704629
 20
221.99830074670803
 10
63.350784981125855
 20
220.89933521622447
  0
LWPOLYLINE
  5
91
330
17
100
AcDbEntity
  8
CUT
100
AcDbPolyline
 90
8
 70
1
 10
43.590784963386966
 20
198.04750469489935
 42
1.000000022967015
 10
43.59078500013419
 20
199.64750469489854
 10
40.4707849633844
 20
199.64750469489854
 42
0.9999999999999998
 10
40.4707849633844
 20
198.04750469489935
 10
40.4707849633844
 20
195.14752158550476
 42
0.9999999999999998
 10
40.4707849633844
 20
193.54752158550556
 10
43.59078500013419
 20
193.54752158550556
 42
1.000000022969288
 10
43.590784963383385
 20
195.14752158550476
  0
LWPOLYLINE
  5
92
330
17
100
AcDbEntity
  8
CUT
100
AcDbPolyline
 90
8
 70
1
 10
43.590784981838794
 20
211.63165528519528
 42
1.000000022967015
 10
43.59078501858596
 20
213.23165528519445
 10
40.470784981836175
 20
213.23165528519445
 42
0.9999999999999998
 10
40.470784981836175
 20
211.63165528519528
 10
40.470784981836175
 20
208.73167217580055
 42
0.9999999999999998
 10
40.470784981836175
 20
207.13167217580133
 10
43.59078501858596
 20
207.13167217580133
 42
1.000000022969288
 10
43.59078498183516
 20
208.73167217580055
  0
ARC
  5
93
330
17
100
AcDbEntity
  8
CUT
100
AcDbCircle
 10
53.47078498117958
 20
203.45336356235634
 30
0.0
 40
0.9999999999992844
100
AcDbArc
 50
220.6524411945598
 51
319.3475588054407
  0
LINE
  5
94
330
17
100
AcDbEntity
  8
CUT
100
AcDbLine
 10
52.71210962689037
 20
202.80189467837693
 30
0.0
 11
46.21210962745607
 21
210.37154216839735
 31
0.0
  0
ARC
  5
95
330
17
100
AcDbEntity
  8
CUT
100
AcDbCircle
 10
46.97078498174517
 20
211.02301105237774
 30
0.0
 40
1.0
100
AcDbArc
 50
180.0
 51
220.6524411945794
  0
LINE
  5
96
330
17
100
AcDbEntity
  8
CUT
100
AcDbLine
 10
46.58228794522546
 20
215.05647754278976
 30
0.0
 11
50.090371152216164
 21
216.53553768692393
 31
0.0
  0
ARC
  5
97
330
17
100
AcDbEntity
  8
CUT
100
AcDbCircle
 10
46.97078498174517
 20
214.13502756985793
 30
0.0
 40
1.0
100
AcDbArc
 50
112.8610129017369
 51
180.0
  0
ARC
  5
98
330
17
100
AcDbEntity
  8
CUT
100
AcDbCircle
 10
50.47886818873417
 20
215.61408771399402
 30
0.0
 40
0.9999999999979284
100
AcDbArc
 50
90.0
 51
112.8610129017298
  0
LINE
  5
99
330
17
100
AcDbEntity
  8
CUT
100
AcDbLine
 10
50.47886818873417
 20
216.61408771399186
 30
0.0
 11
53.470784981168606
 21
216.61408771399164
 31
0.0
  0
LINE
  5
9A
330
17
100
AcDbEntity
  8
CUT
100
AcDbLine
 10
45.97078498174528
 20
211.02301105237774
 30
0.0
 11
45.97078498174528
 21
214.13502756985793
 31
0.0
  0
ARC
  5
9B
330
17
100
AcDbEntity
  8
CUT
100
AcDbCircle
 10
56.4627017736031
 20
215.61408771400596
 30
0.0
 40
0.9999999999979284
100
AcDbArc
 50
67.13898709849636
 51
90.00000000020843
  0
LINE
  5
9C
330
17
100
AcDbEntity
  8
CUT
100
AcDbLine
 10
56.4627017736031
 20
216.61408771400386
 30
0.0
 11
53.47078498116497
 21
216.61408771399164
 31
0.0
  0
LINE
  5
9D
330
17
100
AcDbEntity
  8
CUT
100
AcDbLine
 10
45.97078498174528
 20
192.39036637249765
 30
0.0
 11
45.97078498174528
 21
199.78760622301246
 31
0.0
  0
LINE
  5
9E
330
17
100
AcDbEntity
  8
CUT
100
AcDbLine
 10
47.72946033603438
 20
200.43907510699185
 30
0.0
 11
51.22946033603438
 21
196.36311107354055
 31
0.0
  0
ARC
  5
9F
330
17
100
AcDbEntity
  8
CUT
100
AcDbCircle
 10
46.97078498174517
 20
199.78760622301246
 30
0.0
 40
1.0
100
AcDbArc
 50
40.65244119454479
 51
180.0
  0
ARC
  5
A0
330
17
100
AcDbEntity
  8
CUT
100
AcDbCircle
 10
50.47078498174517
 20
195.71164218956045
 30
0.0
 40
1.000000000000024
100
AcDbArc
 50
1.95413e-11
 51
40.65244119456911
  0
LINE
  5
A1
330
17
100
AcDbEntity
  8
CUT
100
AcDbLine
 10
51.47078498174528
 20
195.71164218956085
 30
0.0
 11
51.47078498174528
 21
186.72083852580116
 31
0.0
  0
ARC
  5
A2
330
17
100
AcDbEntity
  8
CUT
100
AcDbCircle
 10
50.47078498174517
 20
186.72083852580124
 30
0.0
 40
1.0
100
AcDbArc
 50
319.3475588054308
 51
359.9999999999935
  0
LINE
  5
A3
330
17
100
AcDbEntity
  8
CUT
100
AcDbLine
 10
51.22946033603438
 20
186.06936964182125
 30
0.0
 11
44.89102019143979
 21
178.68786848252935
 31
0.0
  0
ARC
  5
A4
330
17
100
AcDbEntity
  8
CUT
100
AcDbCircle
 10
44.13234483715058
 20
179.33933736650934
 30
0.0
 40
1.0
100
AcDbArc
 50
180.0
 51
319.3475588054308
  0
LINE
  5
A5
330
17
100
AcDbEntity
  8
CUT
100
AcDbLine
 10
43.13234483715058
 20
188.34396609372345
 30
0.0
 11
43.13234483715058
 21
179.33933736650934
 31
0.0
  0
ARC
  5
A6
330
17
100
AcDbEntity
  8
CUT
100
AcDbCircle
 10
44.13234483715058
 20
188.34396609372345
 30
0.0
 40
1.0
100
AcDbArc
 50
139.3475588054309
 51
180.0
  0
LINE
  5
A7
330
17
100
AcDbEntity
  8
CUT
100
AcDbLine
 10
43.37366948286149
 20
188.99543497770316
 30
0.0
 11
45.72946033603438
 21
191.73889748851735
 31
0.0
  0
ARC
  5
A8
330
17
100
AcDbEntity
  8
CUT
100
AcDbCircle
 10
44.97078498174517
 20
192.39036637249765
 30
0.0
 40
1.0
100
AcDbArc
 50
319.3475588054208
 51
0.0
  0
ARC
  5
A9
330
17
100
AcDbEntity
  8
CUT
100
AcDbCircle
 10
53.47078498119049
 20
18.186213714623705
 30
0.0
 40
0.9999999999993178
100
AcDbArc
 50
90.0
 51
139.5607484237042
  0
LINE
  5
AA
330
17
100
AcDbEntity
  8
CUT
100
AcDbLine
 10
52.709690859331374
 20
18.834855170030778
 30
0.0
 11
49.71399507320996
 21
15.319806240172397
 31
0.0
  0
ARC
  5
AB
330
17
100
AcDbEntity
  8
CUT
100
AcDbCircle
 10
50.47508919506538
 20
14.671164784765196
 30
0.0
 40
1.0
100
AcDbArc
 50
139.560748423674
 51
220.2334884031491
  0
LINE
  5
AC
330
17
100
AcDbEntity
  8
CUT
100
AcDbLine
 10
47.08466615062679
 20
12.234639896381168
 30
0.0
 11
45.502177874365884
 21
10.3778012454909
 31
0.0
  0
ARC
  5
AD
330
17
100
AcDbEntity
  8
CUT
100
AcDbCircle
 10
46.263271996225
 20
9.72915979008394
 30
0.0
 40
1.0
100
AcDbArc
 50
139.560748423674
 51
180.0
  0
LINE
  5
AE
330
17
100
AcDbEntity
  8
CUT
100
AcDbLine
 10
51.470784981186796
 20
43.12239942969836
 30
0.0
 11
51.470784981186796
 21
25.56323460531621
 31
0.0
  0
ARC
  5
AF
330
17
100
AcDbEntity
  8
CUT
100
AcDbCircle
 10
50.470784981186796
 20
25.563234605314847
 30
0.0
 40
1.0
100
AcDbArc
 50
319.5607484237116
 51
7.81653e-11
  0
LINE
  5
B0
330
17
100
AcDbEntity
  8
CUT
100
AcDbLine
 10
51.231879103045856
 20
24.914593149908683
 30
0.0
 11
45.231879103031304
 21
17.874394449860418
 31
0.0
  0
ARC
  5
B1
330
17
100
AcDbEntity
  8
CUT
100
AcDbCircle
 10
44.47078498117406
 20
18.523035905268074
 30
0.0
 40
1.0
100
AcDbArc
 50
180.0
 51
319.560748423588
  0
LINE
  5
B2
330
17
100
AcDbEntity
  8
CUT
100
AcDbLine
 10
46.47078498118498
 20
44.50269265687817
 30
0.0
 11
46.470784981186796
 21
46.42271209671915
 31
0.0
  0
ARC
  5
B3
330
17
100
AcDbEntity
  8
CUT
100
AcDbCircle
 10
45.47078498118498
 20
44.50269265687837
 30
0.0
 40
1.0
100
AcDbArc
 50
313.7275391565992
 51
359.999999999987
  0
LINE
  5
B4
330
17
100
AcDbEntity
  8
CUT
100
AcDbLine
 10
48.21075677498186
 20
47.09534999662556
 30
0.0
 11
51.21075677498186
 21
43.79503732960474
 31
0.0
  0
ARC
  5
B5
330
17
100
AcDbEntity
  8
CUT
100
AcDbCircle
 10
47.470784981186796
 20
46.42271209671915
 30
0.0
 40
1.0
100
AcDbArc
 50
42.27098710998633
 51
180.0
  0
ARC
  5
B6
330
17
100
AcDbEntity
  8
CUT
100
AcDbCircle
 10
50.470784981186796
 20
43.12239942970088
 30
0.0
 40
0.999999999999723
100
AcDbArc
 50
359.9999999998567
 51
42.27098710978785
  0
ARC
  5
B7
330
17
100
AcDbEntity
  8
CUT
100
AcDbCircle
 10
53.47078498123045
 20
18.186213714624273
 30
0.0
 40
0.9999999999987494
100
AcDbArc
 50
40.43925157649446
 51
90.0
  0
LINE
  5
B8
330
17
100
AcDbEntity
  8
CUT
100
AcDbLine
 10
53.470784981186796
 20
11.047705872879305
 30
0.0
 11
52.694713561411106
 21
11.047705872879305
 31
0.0
  0
ARC
  5
B9
330
17
100
AcDbEntity
  8
CUT
100
AcDbCircle
 10
52.694713561411106
 20
12.047705872879305
 30
0.0
 40
1.0
100
AcDbArc
 50
220.2334884031491
 51
270.0
  0
LINE
  5
BA
330
17
100
AcDbEntity
  8
CUT
100
AcDbLine
 10
49.976027635170965
 20
9.31907877821152
 30
0.0
 11
48.764538333031965
 21
7.897557876536325
 31
0.0
  0
ARC
  5
BB
330
17
100
AcDbEntity
  8
CUT
100
AcDbCircle
 10
49.214933513311905
 20
9.96772023361882
 30
0.0
 40
1.0
100
AcDbArc
 50
319.5607484237015
 51
40.2334884031491
  0
ARC
  5
BC
330
17
100
AcDbEntity
  8
CUT
100
AcDbCircle
 10
48.0034442111766
 20
8.546199331944422
 30
0.0
 40
1.0
100
AcDbArc
 50
257.8595339882443
 51
319.5607484236662
  0
LINE
  5
BD
330
17
100
AcDbEntity
  8
CUT
100
AcDbLine
 10
47.79313512639169
 20
7.5685643853217925
 30
0.0
 11
46.05296291144367
 21
7.942910686213622
 31
0.0
  0
ARC
  5
BE
330
17
100
AcDbEntity
  8
CUT
100
AcDbCircle
 10
46.263271996225
 20
8.920545632836252
 30
0.0
 40
1.0
100
AcDbArc
 50
180.0
 51
257.8595339882443
  0
LINE
  5
BF
330
17
100
AcDbEntity
  8
CUT
100
AcDbLine
 10
45.263271996225
 20
8.920545632836252
 30
0.0
 11
45.263271996225
 21
9.72915979008394
 31
0.0
  0
LINE
  5
C0
330
17
100
AcDbEntity
  8
CUT
100
AcDbLine
 10
54.2318791030641
 20
18.83485517002771
 30
0.0
 11
57.22757488915266
 21
15.319806240172625
 31
0.0
  0
ARC
  5
C1
330
17
100
AcDbEntity
  8
CUT
100
AcDbCircle
 10
56.4664807672936
 20
14.67116478476828
 30
0.0
 40
1.0
100
AcDbArc
 50
319.7665115972089
 51
40.43925157608259
  0
LINE
  5
C2
330
17
100
AcDbEntity
  8
CUT
100
AcDbLine
 10
53.47078498117588
 20
11.047705872879305
 30
0.0
 11
54.2468564009734
 21
11.047705872876236
 31
0.0
  0
LINE
  5
C3
330
17
100
AcDbEntity
  8
CUT
100
AcDbLine
 10
49.71167055585579
 20
14.025260781602583
 30
0.0
 11
51.931294922197765
 21
11.40180186971702
 31
0.0
  0
LINE
  5
C4
330
17
100
AcDbEntity
  8
CUT
100
AcDbLine
 10
48.60917891169561
 20
12.231902444137177
 30
0.0
 11
49.978352152528885
 21
10.613624236781675
 31
0.0
  0
ARC
  5
C5
330
17
100
AcDbEntity
  8
CUT
100
AcDbCircle
 10
47.845760272485904
 20
11.585998440974436
 30
0.0
 40
1.0
100
AcDbArc
 50
40.2334884031491
 51
139.5607484236768
  0
LINE
  5
C6
330
17
100
AcDbEntity
  8
CUT
100
AcDbLine
 10
57.22989940651058
 20
14.025260781610655
 30
0.0
 11
55.01027504019038
 21
11.401801869719506
 31
0.0
  0
ARC
  5
C7
330
17
100
AcDbEntity
  8
CUT
100
AcDbCircle
 10
54.2468564009734
 20
12.047705872876236
 30
0.0
 40
1.0
100
AcDbArc
 50
269.9999999997916
 51
319.7665115972089
  0
LINE
  5
C8
330
17
100
AcDbEntity
  8
CUT
100
AcDbLine
 10
59.8569038117177
 20
12.234639896381168
 30
0.0
 11
61.43939208797849
 21
10.3778012454909
 31
0.0
  0
ARC
  5
C9
330
17
100
AcDbEntity
  8
CUT
100
AcDbCircle
 10
60.67829796611949
 20
9.72915979008394
 30
0.0
 40
1.0
100
AcDbArc
 50
0.0
 51
40.43925157631089
  0
LINE
  5
CA
330
17
100
AcDbEntity
  8
CUT
100
AcDbLine
 10
56.965542327173466
 20
9.31907877821152
 30
0.0
 11
58.17703162931247
 21
7.897557876536325
 31
0.0
  0
ARC
  5
CB
330
17
100
AcDbEntity
  8
CUT
100
AcDbCircle
 10
57.72663644903258
 20
9.96772023361882
 30
0.0
 40
1.0
100
AcDbArc
 50
139.7665115968509
 51
220.4392515762886
  0
ARC
  5
CC
330
17
100
AcDbEntity
  8
CUT
100
AcDbCircle
 10
58.93812575116789
 20
8.546199331944422
 30
0.0
 40
1.0
100
AcDbArc
 50
220.4392515763136
 51
282.1404660117557
  0
LINE
  5
CD
330
17
100
AcDbEntity
  8
CUT
100
AcDbLine
 10
59.148434835952855
 20
7.5685643853217925
 30
0.0
 11
60.88860705090076
 21
7.942910686213622
 31
0.0
  0
ARC
  5
CE
330
17
100
AcDbEntity
  8
CUT
100
AcDbCircle
 10
60.67829796611949
 20
8.920545632836252
 30
0.0
 40
1.0
100
AcDbArc
 50
282.1404660117557
 51
0.0
  0
LINE
  5
CF
330
17
100
AcDbEntity
  8
CUT
100
AcDbLine
 10
61.67829796611937
 20
8.920545632836252
 30
0.0
 11
61.67829796611937
 21
9.72915979008394
 31
0.0
  0
LINE
  5
D0
330
17
100
AcDbEntity
  8
CUT
100
AcDbLine
 10
58.332391050648994
 20
12.231902444137177
 30
0.0
 11
56.9632178098156
 21
10.613624236781675
 31
0.0
  0
ARC
  5
D1
330
17
100
AcDbEntity
  8
CUT
100
AcDbCircle
 10
59.0958096898587
 20
11.585998440974436
 30
0.0
 40
1.0
100
AcDbArc
 50
40.43925157631089
 51
139.7665115968509
  0
LINE
  5
D2
330
17
100
AcDbEntity
  8
CUT
100
AcDbLine
 10
40.27793607541139
 20
159.55500875834366
 30
0.0
 11
47.78064547210596
 21
168.29237265957855
 31
0.0
  0
ARC
  5
D3
330
17
100
AcDbEntity
  8
CUT
100
AcDbCircle
 10
41.415949106839605
 20
158.57780543237357
 30
0.0
 40
1.5
100
AcDbArc
 50
139.3475588054309
 51
198.9037505681128
  0
LINE
  5
D4
330
17
100
AcDbEntity
  8
CUT
100
AcDbLine
 10
39.99685287697611
 20
158.09183641033306
 30
0.0
 11
47.53176683422606
 21
139.80416975878475
 31
0.0
  0
LINE
  5
D5
330
17
100
AcDbEntity
  8
CUT
100
AcDbLine
 10
50.41865850353969
 20
167.31516933360814
 30
0.0
 11
50.41865850353969
 21
140.37559910488116
 31
0.0
  0
ARC
  5
D6
330
17
100
AcDbEntity
  8
CUT
100
AcDbCircle
 10
48.91865850353969
 20
140.37559910488116
 30
0.0
 40
1.5
100
AcDbArc
 50
202.3927198087501
 51
0.0
  0
ARC
  5
D7
330
17
100
AcDbEntity
  8
CUT
100
AcDbCircle
 10
48.91865850353969
 20
167.31516933360814
 30
0.0
 40
1.5
100
AcDbArc
 50
0.0
 51
139.3475588054309
  0
CIRCLE
  5
D8
330
17
100
AcDbEntity
  8
CUT
100
AcDbCircle
 10
53.4707849811723
 20
84.71782097878224
 30
0.0
 40
1.5
  0
LINE
  5
D9
330
17
100
AcDbEntity
  8
CUT
100
AcDbLine
 10
37.47078498117588
 20
60.78278569699306
 30
0.0
 11
37.47078498117588
 21
57.26695490654555
 31
0.0
  0
LINE
  5
DA
330
17
100
AcDbEntity
  8
CUT
100
AcDbLine
 10
39.47078498117406
 20
60.78278569699306
 30
0.0
 11
39.47078498117406
 21
57.26695490654545
 31
0.0
  0
ARC
  5
DB
330
17
100
AcDbEntity
  8
CUT
100
AcDbCircle
 10
38.47078498117406
 20
60.78278569699306
 30
0.0
 40
1.0
100
AcDbArc
 50
0.0
 51
180.0
  0
ARC
  5
DC
330
17
100
AcDbEntity
  8
CUT
100
AcDbCircle
 10
38.47078498117406
 20
57.26695490654545
 30
0.0
 40
1.0
100
AcDbArc
 50
180.0
 51
0.0
  0
LINE
  5
DD
330
17
100
AcDbEntity
  8
CUT
100
AcDbLine
 10
37.47078498117588
 20
33.65276836516536
 30
0.0
 11
37.47078498117588
 21
30.136937574717876
 31
0.0
  0
LINE
  5
DE
330
17
100
AcDbEntity
  8
CUT
100
AcDbLine
 10
39.47078498117406
 20
33.65276836516536
 30
0.0
 11
39.47078498117406
 21
30.136937574717777
 31
0.0
  0
ARC
  5
DF
330
17
100
AcDbEntity
  8
CUT
100
AcDbCircle
 10
38.47078498117406
 20
33.65276836516536
 30
0.0
 40
1.0
100
AcDbArc
 50
0.0
 51
180.0
  0
ARC
  5
E0
330
17
100
AcDbEntity
  8
CUT
100
AcDbCircle
 10
38.47078498117406
 20
30.136937574717777
 30
0.0
 40
1.0
100
AcDbArc
 50
180.0
 51
0.0
  0
LINE
  5
E1
330
17
100
AcDbEntity
  8
CUT
100
AcDbLine
 10
69.4707849811686
 20
60.78278569699306
 30
0.0
 11
69.4707849811686
 21
57.26695490654555
 31
0.0
  0
LINE
  5
E2
330
17
100
AcDbEntity
  8
CUT
100
AcDbLine
 10
67.47078498117037
 20
60.78278569699306
 30
0.0
 11
67.47078498117037
 21
57.26695490654545
 31
0.0
  0
ARC
  5
E3
330
17
100
AcDbEntity
  8
CUT
100
AcDbCircle
 10
68.47078498117037
 20
60.78278569699306
 30
0.0
 40
1.0
100
AcDbArc
 50
0.0
 51
180.0
  0
ARC
  5
E4
330
17
100
AcDbEntity
  8
CUT
100
AcDbCircle
 10
68.47078498117037
 20
57.26695490654545
 30
0.0
 40
1.0
100
AcDbArc
 50
180.0
 51
0.0
  0
LINE
  5
E5
330
17
100
AcDbEntity
  8
CUT
100
AcDbLine
 10
69.4707849811686
 20
33.65276836516536
 30
0.0
 11
69.4707849811686
 21
30.136937574717876
 31
0.0
  0
LINE
  5
E6
330
17
100
AcDbEntity
  8
CUT
100
AcDbLine
 10
67.47078498117037
 20
33.65276836516536
 30
0.0
 11
67.47078498117037
 21
30.136937574717777
 31
0.0
  0
ARC
  5
E7
330
17
100
AcDbEntity
  8
CUT
100
AcDbCircle
 10
68.47078498117037
 20
33.65276836516536
 30
0.0
 40
1.0
100
AcDbArc
 50
0.0
 51
180.0
  0
ARC
  5
E8
330
17
100
AcDbEntity
  8
CUT
100
AcDbCircle
 10
68.47078498117037
 20
30.136937574717777
 30
0.0
 40
1.0
100
AcDbArc
 50
180.0
 51
0.0
  0
LINE
  5
E9
330
17
100
AcDbEntity
  8
CUT
100
AcDbLine
 10
54.229460335454064
 20
202.80189467837693
 30
0.0
 11
60.72946033488836
 21
210.37154216839735
 31
0.0
  0
ARC
  5
EA
330
17
100
AcDbEntity
  8
CUT
100
AcDbCircle
 10
59.97078498059926
 20
211.02301105237774
 30
0.0
 40
1.0
100
AcDbArc
 50
319.3475588054202
 51
0.0
  0
LINE
  5
EB
330
17
100
AcDbEntity
  8
CUT
100
AcDbLine
 10
60.35928201711897
 20
215.05647754278976
 30
0.0
 11
56.85119881012827
 21
216.53553768692393
 31
0.0
  0
ARC
  5
EC
330
17
100
AcDbEntity
  8
CUT
100
AcDbCircle
 10
59.97078498059926
 20
214.13502756985793
 30
0.0
 40
1.0
100
AcDbArc
 50
0.0
 51
67.13898709826663
  0
LINE
  5
ED
330
17
100
AcDbEntity
  8
CUT
100
AcDbLine
 10
60.97078498059926
 20
211.02301105237774
 30
0.0
 11
60.97078498059926
 21
214.13502756985793
 31
0.0
  0
LINE
  5
EE
330
17
100
AcDbEntity
  8
CUT
100
AcDbLine
 10
60.97078498060097
 20
192.39036637250206
 30
0.0
 11
60.97078498059739
 21
199.78760622301687
 31
0.0
  0
LINE
  5
EF
330
17
100
AcDbEntity
  8
CUT
100
AcDbLine
 10
59.21210962630829
 20
200.43907510699526
 30
0.0
 11
55.71210962631005
 21
196.36311107354186
 31
0.0
  0
ARC
  5
F0
330
17
100
AcDbEntity
  8
CUT
100
AcDbCircle
 10
59.9707849805975
 20
199.78760622301635
 30
0.0
 40
1.0
100
AcDbArc
 50
3.25689e-11
 51
139.3475588054552
  0
ARC
  5
F1
330
17
100
AcDbEntity
  8
CUT
100
AcDbCircle
 10
56.47078498060108
 20
195.71164218956224
 30
0.0
 40
1.000000000000024
100
AcDbArc
 50
139.3475588054407
 51
180.0000000000129
  0
LINE
  5
F2
330
17
100
AcDbEntity
  8
CUT
100
AcDbLine
 10
55.47078498060108
 20
195.71164218956196
 30
0.0
 11
55.470784980611995
 21
186.72083852580235
 31
0.0
  0
ARC
  5
F3
330
17
100
AcDbEntity
  8
CUT
100
AcDbCircle
 10
56.470784980611995
 20
186.72083852580306
 30
0.0
 40
1.0
100
AcDbArc
 50
180.0000000000389
 51
220.6524411945794
  0
LINE
  5
F4
330
17
100
AcDbEntity
  8
CUT
100
AcDbLine
 10
55.7121096263229
 20
186.06936964182245
 30
0.0
 11
62.050549770921066
 21
178.68786848253444
 31
0.0
  0
ARC
  5
F5
330
17
100
AcDbEntity
  8
CUT
100
AcDbCircle
 10
62.80922512521016
 20
179.33933736651485
 30
0.0
 40
1.0
100
AcDbArc
 50
220.6524411945794
 51
3.25689e-11
  0
LINE
  5
F6
330
17
100
AcDbEntity
  8
CUT
100
AcDbLine
 10
63.80922512519936
 20
188.34396609372956
 30
0.0
 11
63.809225125210276
 21
179.33933736651545
 31
0.0
  0
ARC
  5
F7
330
17
100
AcDbEntity
  8
CUT
100
AcDbCircle
 10
62.80922512519936
 20
188.34396609372897
 30
0.0
 40
1.0
100
AcDbArc
 50
3.25689e-11
 51
40.65244119457944
  0
LINE
  5
F8
330
17
100
AcDbEntity
  8
CUT
100
AcDbLine
 10
63.56790047948846
 20
188.99543497770915
 30
0.0
 11
61.21210962631187
 21
191.73889748852184
 31
0.0
  0
ARC
  5
F9
330
17
100
AcDbEntity
  8
CUT
100
AcDbCircle
 10
61.97078498060097
 20
192.39036637250265
 30
0.0
 40
1.0
100
AcDbArc
 50
180.0000000000324
 51
220.6524411945841
  0
LWPOLYLINE
  5
FA
330
17
100
AcDbEntity
  8
CUT
100
AcDbPolyline
 90
8
 70
1
 10
63.3507849989557
 20
198.04750469489846
 42
-1.000000022967015
 10
63.350784962208365
 20
199.64750469489766
 10
66.47078499895827
 20
199.64750469489735
 42
-0.9999999999999998
 10
66.47078499895827
 20
198.04750469489815
 10
66.47078499895827
 20
195.14752158550354
 42
-0.9999999999999998
 10
66.47078499895827
 20
193.54752158550426
 10
63.350784962208365
 20
193.54752158550454
 42
-1.000000022969288
 10
63.350784998959284
 20
195.14752158550374
  0
LWPOLYLINE
  5
FB
330
17
100
AcDbEntity
  8
CUT
100
AcDbPolyline
 90
8
 70
1
 10
63.35078498050569
 20
211.63165528519426
 42
-1.000000022967015
 10
63.35078494376029
 20
213.23165528519343
 10
66.47078498051008
 20
213.23165528519314
 42
-0.9999999999999998
 10
66.47078498050826
 20
211.63165528519397
 10
66.47078498050826
 20
208.73167217579936
 42
-0.9999999999999998
 10
66.47078498050826
 20
207.13167217580013
 10
63.35078494375847
 20
207.13167217580047
 42
-1.000000022969288
 10
63.350784980509275
 20
208.73167217579964
  0
LINE
  5
FC
330
17
100
AcDbEntity
  8
CUT
100
AcDbLine
 10
66.6636338869331
 20
159.55500875834366
 30
0.0
 11
59.16092449023847
 21
168.29237265957855
 31
0.0
  0
ARC
  5
FD
330
17
100
AcDbEntity
  8
CUT
100
AcDbCircle
 10
65.52562085550477
 20
158.57780543237357
 30
0.0
 40
1.5
100
AcDbArc
 50
341.0962494318986
 51
40.65244119456911
  0
LINE
  5
FE
330
17
100
AcDbEntity
  8
CUT
100
AcDbLine
 10
66.94471708536838
 20
158.09183641033306
 30
0.0
 11
59.40980312811837
 21
139.80416975878475
 31
0.0
  0
LINE
  5
FF
330
17
100
AcDbEntity
  8
CUT
100
AcDbLine
 10
56.5229114588048
 20
167.31516933360814
 30
0.0
 11
56.5229114588048
 21
140.37559910488116
 31
0.0
  0
ARC
  5
100
330
17
100
AcDbEntity
  8
CUT
100
AcDbCircle
 10
58.0229114588048
 20
140.37559910488116
 30
0.0
 40
1.5
100
AcDbArc
 50
180.0
 51
337.6072801912441
  0
ARC
  5
101
330
17
100
AcDbEntity
  8
CUT
100
AcDbCircle
 10
58.0229114588048
 20
167.31516933360814
 30
0.0
 40
1.5
100
AcDbArc
 50
40.65244119456911
 51
180.0
  0
LINE
  5
102
330
17
100
AcDbEntity
  8
CUT
100
AcDbLine
 10
43.47078498117406
 20
40.77850290680628
 30
0.0
 11
43.47078498117406
 21
18.523035905268074
 31
0.0
  0
ARC
  5
103
330
17
100
AcDbEntity
  8
CUT
100
AcDbCircle
 10
44.47078498117406
 20
40.77850290680628
 30
0.0
 40
1.0
100
AcDbArc
 50
133.7275391565992
 51
180.0
  0
LINE
  5
104
330
17
100
AcDbEntity
  8
CUT
100
AcDbLine
 10
43.779555156511606
 20
41.501137897308325
 30
0.0
 11
46.16201480584749
 21
43.78005766637631
 31
0.0
  0
LINE
  5
105
330
17
100
AcDbEntity
  8
CUT
100
AcDbLine
 10
55.47078498116127
 20
43.12239942969788
 30
0.0
 11
55.47078498115769
 21
25.563234605315728
 31
0.0
  0
ARC
  5
106
330
17
100
AcDbEntity
  8
CUT
100
AcDbCircle
 10
56.47078498115769
 20
25.563234605314136
 30
0.0
 40
1.0
100
AcDbArc
 50
179.9999999999088
 51
220.4392515762884
  0
LINE
  5
107
330
17
100
AcDbEntity
  8
CUT
100
AcDbLine
 10
55.709690859298576
 20
24.914593149908143
 30
0.0
 11
61.70969085930949
 21
17.87439444985847
 31
0.0
  0
ARC
  5
108
330
17
100
AcDbEntity
  8
CUT
100
AcDbCircle
 10
62.470784981168606
 20
18.523035905265942
 30
0.0
 40
1.0
100
AcDbArc
 50
220.4392515764241
 51
359.999999999987
  0
LINE
  5
109
330
17
100
AcDbEntity
  8
CUT
100
AcDbLine
 10
60.47078498116497
 20
44.50269265687649
 30
0.0
 11
60.47078498116309
 21
46.42271209671745
 31
0.0
  0
ARC
  5
10A
330
17
100
AcDbEntity
  8
CUT
100
AcDbCircle
 10
61.470784981164854
 20
44.50269265687645
 30
0.0
 40
1.0
100
AcDbArc
 50
180.0
 51
226.2724608433829
  0
LINE
  5
10B
330
17
100
AcDbEntity
  8
CUT
100
AcDbLine
 10
58.730813187369904
 20
47.09534999662435
 30
0.0
 11
55.730813187368085
 21
43.795037329604185
 31
0.0
  0
ARC
  5
10C
330
17
100
AcDbEntity
  8
CUT
100
AcDbCircle
 10
59.470784981163206
 20
46.422712096717646
 30
0.0
 40
1.0
100
AcDbArc
 50
359.999999999987
 51
137.7290128899216
  0
ARC
  5
10D
330
17
100
AcDbEntity
  8
CUT
100
AcDbCircle
 10
56.47078498116139
 20
43.12239942970017
 30
0.0
 40
0.999999999999723
100
AcDbArc
 50
137.7290128902119
 51
180.0000000001301
  0
LINE
  5
10E
330
17
100
AcDbEntity
  8
CUT
100
AcDbLine
 10
63.470784981174006
 20
40.77850290680391
 30
0.0
 11
63.47078498116849
 21
18.523035905265687
 31
0.0
  0
ARC
  5
10F
330
17
100
AcDbEntity
  8
CUT
100
AcDbCircle
 10
62.47078498117406
 20
40.77850290680415
 30
0.0
 40
1.0
100
AcDbArc
 50
359.999999999987
 51
46.27246084338289
  0
LINE
  5
110
330
17
100
AcDbEntity
  8
CUT
100
AcDbLine
 10
63.16201480583646
 20
41.50113789730604
 30
0.0
 11
60.77955515650058
 21
43.78005766637459
 31
0.0
  0
LWPOLYLINE
  5
111
330
17
100
AcDbEntity
  8
CUT
100
AcDbPolyline
 90
5
 70
0
 10
39.67094975205538
 20
219.53292923513914
 42
0.4201707815994295
 10
40.470784981856184
 20
218.71669331296448
 10
43.59078501860597
 20
218.71669331296448
 42
1.000000022969288
 10
43.590784981855165
 20
220.31669331296376
 10
43.590784981856984
 20
220.89933521640523
  0
LWPOLYLINE
  5
112
330
17
100
AcDbEntity
  8
CUT
100
AcDbPolyline
 90
5
 70
0
 10
67.27078498048786
 20
219.51669331296404
 42
-0.4142135623730951
 10
66.4707849804883
 20
218.71669331296448
 10
63.350784943738404
 20
218.71669331296448
 42
-1.000000022969288
 10
63.350784980489266
 20
220.31669331296376
 10
63.350784980487504
 20
220.89933521640523
  0
LINE
  5
113
330
17
100
AcDbEntity
  8
CUT
100
AcDbLine
 10
41.44012820915589
 20
75.92161597572755
 30
0.0
 11
49.76367820000007
 21
67.59806598488136
 31
0.0
  0
ARC
  5
114
330
17
100
AcDbEntity
  8
CUT
100
AcDbCircle
 10
50.470784981186796
 20
68.30517276606776
 30
0.0
 40
1.0
100
AcDbArc
 50
224.9999999999944
 51
0.0
  0
ARC
  5
115
330
17
100
AcDbEntity
  8
CUT
100
AcDbCircle
 10
49.970784981186796
 20
78.89491421376886
 30
0.0
 40
1.5
100
AcDbArc
 50
0.0
 51
44.99999999999044
  0
LINE
  5
116
330
17
100
AcDbEntity
  8
CUT
100
AcDbLine
 10
41.50716621086866
 20
78.10598206239325
 30
0.0
 11
46.486707240389705
 21
82.50907569938795
 31
0.0
  0
ARC
  5
117
330
17
100
AcDbEntity
  8
CUT
100
AcDbCircle
 10
42.50078838093509
 20
76.98227614750687
 30
0.0
 40
1.5
100
AcDbArc
 50
131.4842987053404
 51
224.9999999999944
  0
LINE
  5
118
330
17
100
AcDbEntity
  8
CUT
100
AcDbLine
 10
48.540989582235056
 20
82.44602995628006
 30
0.0
 11
51.03144515296589
 21
79.95557438554806
 31
0.0
  0
ARC
  5
119
330
17
100
AcDbEntity
  8
CUT
100
AcDbCircle
 10
47.48032941045608
 20
81.38536978450125
 30
0.0
 40
1.5
100
AcDbArc
 50
44.99999999999044
 51
131.4842987053406
  0
LINE
  5
11A
330
17
100
AcDbEntity
  8
CUT
100
AcDbLine
 10
65.50144175318849
 20
75.92161597572755
 30
0.0
 11
57.17789176234436
 21
67.59806598488136
 31
0.0
  0
LINE
  5
11B
330
17
100
AcDbEntity
  8
CUT
100
AcDbLine
 10
55.47078498115769
 20
78.89491421376886
 30
0.0
 11
55.47078498115769
 21
68.30517276606776
 31
0.0
  0
ARC
  5
11C
330
17
100
AcDbEntity
  8
CUT
100
AcDbCircle
 10
56.47078498115769
 20
68.30517276606776
 30
0.0
 40
1.0
100
AcDbArc
 50
180.0
 51
314.999999999899
  0
ARC
  5
11D
330
17
100
AcDbEntity
  8
CUT
100
AcDbCircle
 10
56.97078498115769
 20
78.89491421376886
 30
0.0
 40
1.5
100
AcDbArc
 50
134.999999999899
 51
180.0
  0
LINE
  5
11E
330
17
100
AcDbEntity
  8
CUT
100
AcDbLine
 10
65.43440375147577
 20
78.10598206239325
 30
0.0
 11
60.45486272195478
 21
82.50907569938795
 31
0.0
  0
ARC
  5
11F
330
17
100
AcDbEntity
  8
CUT
100
AcDbCircle
 10
64.4407815814094
 20
76.98227614750687
 30
0.0
 40
1.5
100
AcDbArc
 50
314.999999999899
 51
48.51570129476821
  0
LINE
  5
120
330
17
100
AcDbEntity
  8
CUT
100
AcDbLine
 10
58.400580380109375
 20
82.44602995628006
 30
0.0
 11
55.9101248093786
 21
79.95557438554806
 31
0.0
  0
ARC
  5
121
330
17
100
AcDbEntity
  8
CUT
100
AcDbCircle
 10
59.461240551888466
 20
81.38536978450125
 30
0.0
 40
1.5
100
AcDbArc
 50
48.51570129476821
 51
134.999999999899
  0
LINE
  5
122
330
17
100
AcDbEntity
  8
CUT
100
AcDbLine
 10
51.470784981186796
 20
78.89491421376886
 30
0.0
 11
51.470784981186796
 21
68.30517276606776
 31
0.0
  0
ENDSEC
  0
SECTION
  2
OBJECTS
  0
DICTIONARY
  5
A
330
0
100
AcDbDictionary
281
1
  3
ACAD_COLOR
350
B
  3
ACAD_GROUP
350
C
  3
ACAD_LAYOUT
350
D
  3
ACAD_MATERIAL
350
E
  3
ACAD_MLEADERSTYLE
350
F
  3
ACAD_MLINESTYLE
350
10
  3
ACAD_PLOTSETTINGS
350
11
  3
ACAD_PLOTSTYLENAME
350
12
  3
ACAD_SCALELIST
350
14
  3
ACAD_TABLESTYLE
350
15
  3
ACAD_VISUALSTYLE
350
16
  3
EZDXF_META
350
2D
  0
DICTIONARY
  5
B
330
A
100
AcDbDictionary
281
1
  0
DICTIONARY
  5
C
330
A
100
AcDbDictionary
281
1
  0
DICTIONARY
  5
D
330
A
100
AcDbDictionary
281
1
  3
Model
350
1A
  3
Layout1
350
1E
  0
DICTIONARY
  5
E
330
A
100
AcDbDictionary
281
1
  3
ByBlock
350
1F
  3
ByLayer
350
20
  3
Global
350
21
  0
DICTIONARY
  5
F
330
A
100
AcDbDictionary
281
1
  3
Standard
350
2C
  0
DICTIONARY
  5
10
330
A
100
AcDbDictionary
281
1
  3
Standard
350
22
  0
DICTIONARY
  5
11
330
A
100
AcDbDictionary
281
1
  0
ACDBDICTIONARYWDFLT
  5
12
330
A
100
AcDbDictionary
281
1
  3
Normal
350
13
100
AcDbDictionaryWithDefault
340
13
  0
ACDBPLACEHOLDER
  5
13
330
12
  0
DICTIONARY
  5
14
330
A
100
AcDbDictionary
281
1
  0
DICTIONARY
  5
15
330
A
100
AcDbDictionary
281
1
  0
DICTIONARY
  5
16
330
A
100
AcDbDictionary
281
1
  0
LAYOUT
  5
1A
330
D
100
AcDbPlotSettings
  1

  4
A3
  6

 40
7.5
 41
20.0
 42
7.5
 43
20.0
 44
420.0
 45
297.0
 46
0.0
 47
0.0
 48
0.0
 49
0.0
140
0.0
141
0.0
142
1.0
143
1.0
 70
1024
 72
1
 73
0
 74
5
  7

 75
16
 76
0
 77
2
 78
300
147
1.0
148
0.0
149
0.0
100
AcDbLayout
  1
Model
 70
1
 71
0
 10
0.0
 20
0.0
 11
420.0
 21
297.0
 12
0.0
 22
0.0
 32
0.0
 14
1e+20
 24
1e+20
 34
1e+20
 15
-1e+20
 25
-1e+20
 35
-1e+20
146
0.0
 13
0.0
 23
0.0
 33
0.0
 16
1.0
 26
0.0
 36
0.0
 17
0.0
 27
1.0
 37
0.0
 76
1
330
17
  0
LAYOUT
  5
1E
330
D
100
AcDbPlotSettings
  1

  4
A3
  6

 40
7.5
 41
20.0
 42
7.5
 43
20.0
 44
420.0
 45
297.0
 46
0.0
 47
0.0
 48
0.0
 49
0.0
140
0.0
141
0.0
142
1.0
143
1.0
 70
0
 72
1
 73
0
 74
5
  7

 75
16
 76
0
 77
2
 78
300
147
1.0
148
0.0
149
0.0
100
AcDbLayout
  1
Layout1
 70
1
 71
1
 10
0.0
 20
0.0
 11
420.0
 21
297.0
 12
0.0
 22
0.0
 32
0.0
 14
1e+20
 24
1e+20
 34
1e+20
 15
-1e+20
 25
-1e+20
 35
-1e+20
146
0.0
 13
0.0
 23
0.0
 33
0.0
 16
1.0
 26
0.0
 36
0.0
 17
0.0
 27
1.0
 37
0.0
 76
1
330
1B
  0
MATERIAL
  5
1F
102
{ACAD_REACTORS
330
E
102
}
330
E
100
AcDbMaterial
  1
ByBlock
  2

 70
0
 40
1.0
 71
1
 41
1.0
 91
-1023410177
 42
1.0
 72
1
  3

 73
1
 74
1
 75
1
 44
0.5
 73
0
 45
1.0
 46
1.0
 77
1
  4

 78
1
 79
1
170
1
 48
1.0
171
1
  6

172
1
173
1
174
1
140
1.0
141
1.0
175
1
  7

176
1
177
1
178
1
143
1.0
179
1
  8

270
1
271
1
272
1
145
1.0
146
1.0
273
1
  9

274
1
275
1
276
1
 42
1.0
 72
1
  3

 73
1
 74
1
 75
1
 94
63
  0
MATERIAL
  5
20
102
{ACAD_REACTORS
330
E
102
}
330
E
100
AcDbMaterial
  1
ByLayer
  2

 70
0
 40
1.0
 71
1
 41
1.0
 91
-1023410177
 42
1.0
 72
1
  3

 73
1
 74
1
 75
1
 44
0.5
 73
0
 45
1.0
 46
1.0
 77
1
  4

 78
1
 79
1
170
1
 48
1.0
171
1
  6

172
1
173
1
174
1
140
1.0
141
1.0
175
1
  7

176
1
177
1
178
1
143
1.0
179
1
  8

270
1
271
1
272
1
145
1.0
146
1.0
273
1
  9

274
1
275
1
276
1
 42
1.0
 72
1
  3

 73
1
 74
1
 75
1
 94
63
  0
MATERIAL
  5
21
102
{ACAD_REACTORS
330
E
102
}
330
E
100
AcDbMaterial
  1
Global
  2

 70
0
 40
1.0
 71
1
 41
1.0
 91
-1023410177
 42
1.0
 72
1
  3

 73
1
 74
1
 75
1
 44
0.5
 73
0
 45
1.0
 46
1.0
 77
1
  4

 78
1
 79
1
170
1
 48
1.0
171
1
  6

172
1
173
1
174
1
140
1.0
141
1.0
175
1
  7

176
1
177
1
178
1
143
1.0
179
1
  8

270
1
271
1
272
1
145
1.0
146
1.0
273
1
  9

274
1
275
1
276
1
 42
1.0
 72
1
  3

 73
1
 74
1
 75
1
 94
63
  0
MLINESTYLE
  5
22
102
{ACAD_REACTORS
330
10
102
}
330
10
100
AcDbMlineStyle
  2
Standard
 70
0
  3

 62
256
 51
90.0
 52
90.0
 71
2
 49
0.5
 62
256
  6
BYLAYER
 49
-0.5
 62
256
  6
BYLAYER
  0
MLEADERSTYLE
  5
2C
102
{ACAD_REACTORS
330
F
102
}
330
F
100
AcDbMLeaderStyle
179
2
170
2
171
1
172
0
 90
2
 40
0.0
 41
0.0
173
1
 91
-1056964608
 92
-2
290
1
 42
2.0
291
1
 43
8.0
  3
Standard
 44
4.0
300

342
29
174
1
175
1
176
0
178
1
 93
-1056964608
 45
4.0
292
0
297
0
 46
4.0
 94
-1056964608
 47
1.0
 49
1.0
140
1.0
294
1
141
0.0
177
0
142
1.0
295
0
296
0
143
3.75
271
0
272
9
273
9
  0
DICTIONARY
  5
2D
330
A
100
AcDbDictionary
280
1
281
1
  3
CREATED_BY_EZDXF
350
2E
  3
WRITTEN_BY_EZDXF
350
125
  0
DICTIONARYVAR
  5
2E
330
2D
100
DictionaryVariables
280
0
  1
1.4.4 @ 2026-07-24T19:46:35.411395+00:00
  0
DICTIONARYVAR
  5
125
330
2D
100
DictionaryVariables
280
0
  1
1.4.4 @ 2026-07-24T19:46:35.416634+00:00
  0
ENDSEC
  0
EOF
