  0
SECTION
  2
HEADER
  9
$ACADVER
  1
AC1027
  9
$ACADMAINTVER
 70
105
  9
$DWGCODEPAGE
  3
ANSI_1252
  9
$LASTSAVEDBY
  1
ezdxf
  9
$REQUIREDVERSIONS
160
0
  9
$INSBASE
 10
0.0
 20
0.0
 30
0.0
  9
$EXTMIN
 10
1e+20
 20
1e+20
 30
1e+20
  9
$EXTMAX
 10
-1e+20
 20
-1e+20
 30
-1e+20
  9
$LIMMIN
 10
0.0
 20
0.0
  9
$LIMMAX
 10
420.0
 20
297.0
  9
$ORTHOMODE
 70
0
  9
$REGENMODE
 70
1
  9
$FILLMODE
 70
1
  9
$QTEXTMODE
 70
0
  9
$MIRRTEXT
 70
1
  9
$LTSCALE
 40
1.0
  9
$ATTMODE
 70
1
  9
$TEXTSIZE
 40
2.5
  9
$TRACEWID
 40
1.0
  9
$TEXTSTYLE
  7
Standard
  9
$CLAYER
  8
0
  9
$CELTYPE
  6
ByLayer
  9
$CECOLOR
 62
256
  9
$CELTSCALE
 40
1.0
  9
$DISPSILH
 70
0
  9
$DIMSCALE
 40
1.0
  9
$DIMASZ
 40
2.5
  9
$DIMEXO
 40
0.625
  9
$DIMDLI
 40
3.75
  9
$DIMRND
 40
0.0
  9
$DIMDLE
 40
0.0
  9
$DIMEXE
 40
1.25
  9
$DIMTP
 40
0.0
  9
$DIMTM
 40
0.0
  9
$DIMTXT
 40
2.5
  9
$DIMCEN
 40
2.5
  9
$DIMTSZ
 40
0.0
  9
$DIMTOL
 70
0
  9
$DIMLIM
 70
0
  9
$DIMTIH
 70
0
  9
$DIMTOH
 70
0
  9
$DIMSE1
 70
0
  9
$DIMSE2
 70
0
  9
$DIMTAD
 70
1
  9
$DIMZIN
 70
8
  9
$DIMBLK
  1

  9
$DIMASO
 70
1
  9
$DIMSHO
 70
1
  9
$DIMPOST
  1

  9
$DIMAPOST
  1

  9
$DIMALT
 70
0
  9
$DIMALTD
 70
3
  9
$DIMALTF
 40
0.03937007874
  9
$DIMLFAC
 40
1.0
  9
$DIMTOFL
 70
1
  9
$DIMTVP
 40
0.0
  9
$DIMTIX
 70
0
  9
$DIMSOXD
 70
0
  9
$DIMSAH
 70
0
  9
$DIMBLK1
  1

  9
$DIMBLK2
  1

  9
$DIMSTYLE
  2
ISO-25
  9
$DIMCLRD
 70
0
  9
$DIMCLRE
 70
0
  9
$DIMCLRT
 70
0
  9
$DIMTFAC
 40
1.0
  9
$DIMGAP
 40
0.625
  9
$DIMJUST
 70
0
  9
$DIMSD1
 70
0
  9
$DIMSD2
 70
0
  9
$DIMTOLJ
 70
0
  9
$DIMTZIN
 70
8
  9
$DIMALTZ
 70
0
  9
$DIMALTTZ
 70
0
  9
$DIMUPT
 70
0
  9
$DIMDEC
 70
2
  9
$DIMTDEC
 70
2
  9
$DIMALTU
 70
2
  9
$DIMALTTD
 70
3
  9
$DIMTXSTY
  7
Standard
  9
$DIMAUNIT
 70
0
  9
$DIMADEC
 70
0
  9
$DIMALTRND
 40
0.0
  9
$DIMAZIN
 70
0
  9
$DIMDSEP
 70
44
  9
$DIMATFIT
 70
3
  9
$DIMFRAC
 70
0
  9
$DIMLDRBLK
  1

  9
$DIMLUNIT
 70
2
  9
$DIMLWD
 70
-2
  9
$DIMLWE
 70
-2
  9
$DIMTMOVE
 70
0
  9
$DIMFXL
 40
1.0
  9
$DIMFXLON
 70
0
  9
$DIMJOGANG
 40
0.785398163397
  9
$DIMTFILL
 70
0
  9
$DIMTFILLCLR
 70
0
  9
$DIMARCSYM
 70
0
  9
$DIMLTYPE
  6

  9
$DIMLTEX1
  6

  9
$DIMLTEX2
  6

  9
$DIMTXTDIRECTION
 70
0
  9
$LUNITS
 70
2
  9
$LUPREC
 70
4
  9
$SKETCHINC
 40
1.0
  9
$FILLETRAD
 40
10.0
  9
$AUNITS
 70
0
  9
$AUPREC
 70
2
  9
$MENU
  1
.
  9
$ELEVATION
 40
0.0
  9
$PELEVATION
 40
0.0
  9
$THICKNESS
 40
0.0
  9
$LIMCHECK
 70
0
  9
$CHAMFERA
 40
0.0
  9
$CHAMFERB
 40
0.0
  9
$CHAMFERC
 40
0.0
  9
$CHAMFERD
 40
0.0
  9
$SKPOLY
 70
0
  9
$TDCREATE
 40
2461246.532349537
  9
$TDUCREATE
 40
2458532.153996898
  9
$TDUPDATE
 40
2461246.532349537
  9
$TDUUPDATE
 40
2458532.1544311
  9
$TDINDWG
 40
0.0
  9
$TDUSRTIMER
 40
0.0
  9
$USRTIMER
 70
1
  9
$ANGBASE
 50
0.0
  9
$ANGDIR
 70
0
  9
$PDMODE
 70
0
  9
$PDSIZE
 40
0.0
  9
$PLINEWID
 40
0.0
  9
$SPLFRAME
 70
0
  9
$SPLINETYPE
 70
6
  9
$SPLINESEGS
 70
8
  9
$HANDSEED
  5
C9
  9
$SURFTAB1
 70
6
  9
$SURFTAB2
 70
6
  9
$SURFTYPE
 70
6
  9
$SURFU
 70
6
  9
$SURFV
 70
6
  9
$UCSBASE
  2

  9
$UCSNAME
  2

  9
$UCSORG
 10
0.0
 20
0.0
 30
0.0
  9
$UCSXDIR
 10
1.0
 20
0.0
 30
0.0
  9
$UCSYDIR
 10
0.0
 20
1.0
 30
0.0
  9
$UCSORTHOREF
  2

  9
$UCSORTHOVIEW
 70
0
  9
$UCSORGTOP
 10
0.0
 20
0.0
 30
0.0
  9
$UCSORGBOTTOM
 10
0.0
 20
0.0
 30
0.0
  9
$UCSORGLEFT
 10
0.0
 20
0.0
 30
0.0
  9
$UCSORGRIGHT
 10
0.0
 20
0.0
 30
0.0
  9
$UCSORGFRONT
 10
0.0
 20
0.0
 30
0.0
  9
$UCSORGBACK
 10
0.0
 20
0.0
 30
0.0
  9
$PUCSBASE
  2

  9
$PUCSNAME
  2

  9
$PUCSORG
 10
0.0
 20
0.0
 30
0.0
  9
$PUCSXDIR
 10
1.0
 20
0.0
 30
0.0
  9
$PUCSYDIR
 10
0.0
 20
1.0
 30
0.0
  9
$PUCSORTHOREF
  2

  9
$PUCSORTHOVIEW
 70
0
  9
$PUCSORGTOP
 10
0.0
 20
0.0
 30
0.0
  9
$PUCSORGBOTTOM
 10
0.0
 20
0.0
 30
0.0
  9
$PUCSORGLEFT
 10
0.0
 20
0.0
 30
0.0
  9
$PUCSORGRIGHT
 10
0.0
 20
0.0
 30
0.0
  9
$PUCSORGFRONT
 10
0.0
 20
0.0
 30
0.0
  9
$PUCSORGBACK
 10
0.0
 20
0.0
 30
0.0
  9
$USERI1
 70
0
  9
$USERI2
 70
0
  9
$USERI3
 70
0
  9
$USERI4
 70
0
  9
$USERI5
 70
0
  9
$USERR1
 40
0.0
  9
$USERR2
 40
0.0
  9
$USERR3
 40
0.0
  9
$USERR4
 40
0.0
  9
$USERR5
 40
0.0
  9
$WORLDVIEW
 70
1
  9
$SHADEDGE
 70
3
  9
$SHADEDIF
 70
70
  9
$TILEMODE
 70
1
  9
$MAXACTVP
 70
64
  9
$PINSBASE
 10
0.0
 20
0.0
 30
0.0
  9
$PLIMCHECK
 70
0
  9
$PEXTMIN
 10
1e+20
 20
1e+20
 30
1e+20
  9
$PEXTMAX
 10
-1e+20
 20
-1e+20
 30
-1e+20
  9
$PLIMMIN
 10
0.0
 20
0.0
  9
$PLIMMAX
 10
420.0
 20
297.0
  9
$UNITMODE
 70
0
  9
$VISRETAIN
 70
1
  9
$PLINEGEN
 70
0
  9
$PSLTSCALE
 70
1
  9
$TREEDEPTH
 70
3020
  9
$CMLSTYLE
  2
Standard
  9
$CMLJUST
 70
0
  9
$CMLSCALE
 40
20.0
  9
$PROXYGRAPHICS
 70
1
  9
$MEASUREMENT
 70
1
  9
$CELWEIGHT
370
-1
  9
$ENDCAPS
280
0
  9
$JOINSTYLE
280
0
  9
$LWDISPLAY
290
0
  9
$INSUNITS
 70
4
  9
$HYPERLINKBASE
  1

  9
$STYLESHEET
  1

  9
$XEDIT
290
1
  9
$CEPSNTYPE
380
0
  9
$PSTYLEMODE
290
1
  9
$FINGERPRINTGUID
  2
{D29FD6E3-064E-47E9-9E2E-5325EFC9100A}
  9
$VERSIONGUID
  2
{98854547-8FAD-45CE-B86E-6EF1AE04274C}
  9
$EXTNAMES
290
1
  9
$PSVPSCALE
 40
0.0
  9
$OLESTARTUP
290
0
  9
$SORTENTS
280
127
  9
$INDEXCTL
280
0
  9
$HIDETEXT
280
1
  9
$XCLIPFRAME
280
1
  9
$HALOGAP
280
0
  9
$OBSCOLOR
 70
257
  9
$OBSLTYPE
280
0
  9
$INTERSECTIONDISPLAY
280
0
  9
$INTERSECTIONCOLOR
 70
257
  9
$DIMASSOC
280
2
  9
$PROJECTNAME
  1

  9
$CAMERADISPLAY
290
0
  9
$LENSLENGTH
 40
50.0
  9
$CAMERAHEIGHT
 40
0.0
  9
$STEPSPERSEC
 40
24.0
  9
$STEPSIZE
 40
100.0
  9
$3DDWFPREC
 40
2.0
  9
$PSOLWIDTH
 40
0.005
  9
$PSOLHEIGHT
 40
0.08
  9
$LOFTANG1
 40
1.570796326795
  9
$LOFTANG2
 40
1.570796326795
  9
$LOFTMAG1
 40
0.0
  9
$LOFTMAG2
 40
0.0
  9
$LOFTPARAM
 70
7
  9
$LOFTNORMALS
280
1
  9
$LATITUDE
 40
37.795
  9
$LONGITUDE
 40
-122.394
  9
$NORTHDIRECTION
 40
0.0
  9
$TIMEZONE
 70
-8000
  9
$LIGHTGLYPHDISPLAY
280
1
  9
$TILEMODELIGHTSYNCH
280
1
  9
$CMATERIAL
347
20
  9
$SOLIDHIST
280
0
  9
$SHOWHIST
280
1
  9
$DWFFRAME
280
2
  9
$DGNFRAME
280
2
  9
$REALWORLDSCALE
290
1
  9
$INTERFERECOLOR
 62
256
  9
$CSHADOW
280
0
  9
$SHADOWPLANELOCATION
 40
0.0
  0
ENDSEC
  0
SECTION
  2
CLASSES
  0
CLASS
  1
ACDBDICTIONARYWDFLT
  2
AcDbDictionaryWithDefault
  3
ObjectDBX Classes
 90
0
 91
0
280
0
281
0
  0
CLASS
  1
SUN
  2
AcDbSun
  3
SCENEOE
 90
1153
 91
0
280
0
281
0
  0
CLASS
  1
VISUALSTYLE
  2
AcDbVisualStyle
  3
ObjectDBX Classes
 90
4095
 91
0
280
0
281
0
  0
CLASS
  1
MATERIAL
  2
AcDbMaterial
  3
ObjectDBX Classes
 90
1153
 91
0
280
0
281
0
  0
CLASS
  1
SCALE
  2
AcDbScale
  3
ObjectDBX Classes
 90
1153
 91
0
280
0
281
0
  0
CLASS
  1
TABLESTYLE
  2
AcDbTableStyle
  3
ObjectDBX Classes
 90
4095
 91
0
280
0
281
0
  0
CLASS
  1
MLEADERSTYLE
  2
AcDbMLeaderStyle
  3
ACDB_MLEADERSTYLE_CLASS
 90
4095
 91
0
280
0
281
0
  0
CLASS
  1
DICTIONARYVAR
  2
AcDbDictionaryVar
  3
ObjectDBX Classes
 90
0
 91
0
280
0
281
0
  0
CLASS
  1
CELLSTYLEMAP
  2
AcDbCellStyleMap
  3
ObjectDBX Classes
 90
1152
 91
0
280
0
281
0
  0
CLASS
  1
MENTALRAYRENDERSETTINGS
  2
AcDbMentalRayRenderSettings
  3
SCENEOE
 90
1024
 91
0
280
0
281
0
  0
CLASS
  1
ACDBDETAILVIEWSTYLE
  2
AcDbDetailViewStyle
  3
ObjectDBX Classes
 90
1025
 91
0
280
0
281
0
  0
CLASS
  1
ACDBSECTIONVIEWSTYLE
  2
AcDbSectionViewStyle
  3
ObjectDBX Classes
 90
1025
 91
0
280
0
281
0
  0
CLASS
  1
RASTERVARIABLES
  2
AcDbRasterVariables
  3
ISM
 90
0
 91
0
280
0
281
0
  0
CLASS
  1
ACDBPLACEHOLDER
  2
AcDbPlaceHolder
  3
ObjectDBX Classes
 90
0
 91
0
280
0
281
0
  0
CLASS
  1
LAYOUT
  2
AcDbLayout
  3
ObjectDBX Classes
 90
0
 91
0
280
0
281
0
  0
ENDSEC
  0
SECTION
  2
TABLES
  0
TABLE
  2
VPORT
  5
8
330
0
100
AcDbSymbolTable
 70
1
  0
VPORT
  5
23
330
8
100
AcDbSymbolTableRecord
100
AcDbViewportTableRecord
  2
*Active
 70
0
 10
0.0
 20
0.0
 11
1.0
 21
1.0
 12
0.0
 22
0.0
 13
0.0
 23
0.0
 14
0.5
 24
0.5
 15
0.5
 25
0.5
 16
0.0
 26
0.0
 36
1.0
 17
0.0
 27
0.0
 37
0.0
 40
1000.0
 41
1.34
 42
50.0
 43
0.0
 44
0.0
 50
0.0
 51
0.0
 71
0
 72
1000
 73
1
 74
3
 75
0
 76
0
 77
0
 78
0
281
0
 65
0
146
0.0
  0
ENDTAB
  0
TABLE
  2
LTYPE
  5
2
330
0
100
AcDbSymbolTable
 70
3
  0
LTYPE
  5
24
330
2
100
AcDbSymbolTableRecord
100
AcDbLinetypeTableRecord
  2
ByBlock
 70
0
  3

 72
65
 73
0
 40
0.0
  0
LTYPE
  5
25
330
2
100
AcDbSymbolTableRecord
100
AcDbLinetypeTableRecord
  2
ByLayer
 70
0
  3

 72
65
 73
0
 40
0.0
  0
LTYPE
  5
26
330
2
100
AcDbSymbolTableRecord
100
AcDbLinetypeTableRecord
  2
Continuous
 70
0
  3

 72
65
 73
0
 40
0.0
  0
ENDTAB
  0
TABLE
  2
LAYER
  5
1
330
0
100
AcDbSymbolTable
 70
7
  0
LAYER
  5
27
330
1
100
AcDbSymbolTableRecord
100
AcDbLayerTableRecord
  2
0
 70
0
 62
7
  6
Continuous
370
-3
390
13
347
21
  0
LAYER
  5
28
330
1
100
AcDbSymbolTableRecord
100
AcDbLayerTableRecord
  2
Defpoints
 70
0
 62
7
  6
Continuous
290
0
370
-3
390
13
347
21
  0
LAYER
  5
2F
330
1
100
AcDbSymbolTableRecord
100
AcDbLayerTableRecord
  2
CUT
 70
0
 62
7
  6
Continuous
370
-3
390
13
347
21
  0
LAYER
  5
30
330
1
100
AcDbSymbolTableRecord
100
AcDbLayerTableRecord
  2
POCKET
 70
0
 62
7
  6
Continuous
370
-3
390
13
347
21
  0
LAYER
  5
31
330
1
100
AcDbSymbolTableRecord
100
AcDbLayerTableRecord
  2
CHAMFER
 70
0
 62
7
  6
Continuous
370
-3
390
13
347
21
  0
LAYER
  5
32
330
1
100
AcDbSymbolTableRecord
100
AcDbLayerTableRecord
  2
COUNTERSINK
 70
0
 62
7
  6
Continuous
370
-3
390
13
347
21
  0
LAYER
  5
33
330
1
100
AcDbSymbolTableRecord
100
AcDbLayerTableRecord
  2
ANNOTATION
 70
0
 62
7
  6
Continuous
370
-3
390
13
347
21
  0
ENDTAB
  0
TABLE
  2
STYLE
  5
5
330
0
100
AcDbSymbolTable
 70
1
  0
STYLE
  5
29
330
5
100
AcDbSymbolTableRecord
100
AcDbTextStyleTableRecord
  2
Standard
 70
0
 40
0.0
 41
1.0
 50
0.0
 71
0
 42
2.5
  3
txt
  4

  0
ENDTAB
  0
TABLE
  2
VIEW
  5
7
330
0
100
AcDbSymbolTable
 70
0
  0
ENDTAB
  0
TABLE
  2
UCS
  5
6
330
0
100
AcDbSymbolTable
 70
0
  0
ENDTAB
  0
TABLE
  2
APPID
  5
3
330
0
100
AcDbSymbolTable
 70
3
  0
APPID
  5
2A
330
3
100
AcDbSymbolTableRecord
100
AcDbRegAppTableRecord
  2
ACAD
 70
0
  0
APPID
  5
C6
330
3
100
AcDbSymbolTableRecord
100
AcDbRegAppTableRecord
  2
HATCHBACKGROUNDCOLOR
 70
0
  0
APPID
  5
C7
330
3
100
AcDbSymbolTableRecord
100
AcDbRegAppTableRecord
  2
EZDXF
 70
0
  0
ENDTAB
  0
TABLE
  2
DIMSTYLE
  5
4
330
0
100
AcDbSymbolTable
 70
1
100
AcDbDimStyleTable
  0
DIMSTYLE
105
2B
330
4
100
AcDbSymbolTableRecord
100
AcDbDimStyleTableRecord
  2
Standard
 70
0
 40
1.0
 41
2.5
 42
0.625
 43
3.75
 44
1.25
 45
0.0
 46
0.0
 47
0.0
 48
0.0
 49
2.5
140
2.5
141
2.5
142
0.0
143
0.03937007874
144
1.0
145
0.0
146
1.0
147
0.625
148
0.0
 69
0
 70
0
 71
0
 72
0
 73
0
 74
0
 75
0
 76
0
 77
1
 78
8
 79
3
170
0
171
3
172
1
173
0
174
0
175
0
176
0
177
0
178
0
179
2
271
2
272
2
273
2
274
3
275
0
276
0
277
2
278
44
279
0
280
0
281
0
282
0
283
0
284
8
285
0
286
0
288
0
289
3
290
0
371
-2
372
-2
  0
ENDTAB
  0
TABLE
  2
BLOCK_RECORD
  5
9
330
0
100
AcDbSymbolTable
 70
2
  0
BLOCK_RECORD
  5
17
330
9
100
AcDbSymbolTableRecord
100
AcDbBlockTableRecord
  2
*Model_Space
340
1A
 70
0
280
1
281
0
  0
BLOCK_RECORD
  5
1B
330
9
100
AcDbSymbolTableRecord
100
AcDbBlockTableRecord
  2
*Paper_Space
340
1E
 70
0
280
1
281
0
  0
ENDTAB
  0
ENDSEC
  0
SECTION
  2
BLOCKS
  0
BLOCK
  5
18
330
17
100
AcDbEntity
  8
0
100
AcDbBlockBegin
  2
*Model_Space
 70
0
 10
0.0
 20
0.0
 30
0.0
  3
*Model_Space
  1

  0
ENDBLK
  5
19
330
17
100
AcDbEntity
  8
0
100
AcDbBlockEnd
  0
BLOCK
  5
1C
330
1B
100
AcDbEntity
  8
0
100
AcDbBlockBegin
  2
*Paper_Space
 70
0
 10
0.0
 20
0.0
 30
0.0
  3
*Paper_Space
  1

  0
ENDBLK
  5
1D
330
1B
100
AcDbEntity
  8
0
100
AcDbBlockEnd
  0
ENDSEC
  0
SECTION
  2
ENTITIES
  0
LINE
  5
34
330
17
100
AcDbEntity
  8
CUT
100
AcDbLine
 10
58.67141097025751
 20
38.0
 30
0.0
 11
58.67141097025751
 21
43.02304059056337
 31
0.0
  0
ARC
  5
35
330
17
100
AcDbEntity
  8
CUT
100
AcDbCircle
 10
56.67141097025751
 20
43.02304059056337
 30
0.0
 40
2.0
100
AcDbArc
 50
0.0
 51
62.46912953543819
  0
LINE
  5
36
330
17
100
AcDbEntity
  8
CUT
100
AcDbLine
 10
64.06677720310654
 20
38.0
 30
0.0
 11
64.06677720310654
 21
40.0
 31
0.0
  0
ARC
  5
37
330
17
100
AcDbEntity
  8
CUT
100
AcDbCircle
 10
63.266777203107495
 20
38.0
 30
0.0
 40
0.8
100
AcDbArc
 50
180.0
 51
0.0
  0
ARC
  5
38
330
17
100
AcDbEntity
  8
CUT
100
AcDbCircle
 10
59.47141097025656
 20
38.0
 30
0.0
 40
0.8
100
AcDbArc
 50
180.0
 51
0.0
  0
LINE
  5
39
330
17
100
AcDbEntity
  8
CUT
100
AcDbLine
 10
64.44104574278549
 20
15.226505636892398
 30
0.0
 11
74.52979833518657
 21
36.86190539060772
 31
0.0
  0
LINE
  5
3A
330
17
100
AcDbEntity
  8
CUT
100
AcDbLine
 10
60.2714109702556
 20
38.0
 30
0.0
 11
62.46677720310845
 21
38.0
 31
0.0
  0
LINE
  5
3B
330
17
100
AcDbEntity
  8
CUT
100
AcDbLine
 10
64.56677720310654
 20
40.5
 30
0.0
 11
69.5167603124994
 21
40.5
 31
0.0
  0
ARC
  5
3C
330
17
100
AcDbEntity
  8
CUT
100
AcDbCircle
 10
64.56677720310654
 20
40.0
 30
0.0
 40
0.5
100
AcDbArc
 50
90.0
 51
180.0
  0
LINE
  5
3D
330
17
100
AcDbEntity
  8
CUT
100
AcDbLine
 10
59.38043086022162
 20
33.77728230442972
 30
0.0
 11
53.16743872271945
 21
35.25912014139158
 31
0.0
  0
ARC
  5
3E
330
17
100
AcDbEntity
  8
CUT
100
AcDbCircle
 10
52.93543980700042
 20
34.28640409695447
 30
0.0
 40
1.0
100
AcDbArc
 50
76.58521511108005
 51
190.1485972591936
  0
LINE
  5
3F
330
17
100
AcDbEntity
  8
CUT
100
AcDbLine
 10
53.57518652620456
 20
25.037133027699497
 30
0.0
 11
51.95108572407344
 21
34.110202395988495
 31
0.0
  0
LINE
  5
40
330
17
100
AcDbEntity
  8
CUT
100
AcDbLine
 10
59.61242977593952
 20
33.74999834886694
 30
0.0
 11
67.8659568404205
 21
33.74999834886694
 31
0.0
  0
ARC
  5
41
330
17
100
AcDbEntity
  8
CUT
100
AcDbCircle
 10
59.61242977593952
 20
34.74999834886694
 30
0.0
 40
1.0
100
AcDbArc
 50
256.5852151110801
 51
270.0
  0
LINE
  5
42
330
17
100
AcDbEntity
  8
CUT
100
AcDbLine
 10
51.4671956888576
 20
45.737788278993776
 30
0.0
 11
47.59193585841058
 21
47.757775375253345
 31
0.0
  0
ARC
  5
43
330
17
100
AcDbEntity
  8
CUT
100
AcDbCircle
 10
50.773855999061425
 20
44.4076454014978
 30
0.0
 40
1.499999999999999
100
AcDbArc
 50
242.469129535334
 51
62.46912953533399
  0
LINE
  5
44
330
17
100
AcDbEntity
  8
CUT
100
AcDbLine
 10
57.595863889986504
 20
44.79656442722444
 30
0.0
 11
22.249961755043614
 21
63.22068805818958
 31
0.0
  0
LINE
  5
45
330
17
100
AcDbEntity
  8
CUT
100
AcDbLine
 10
50.08051630926161
 20
43.077502524001375
 30
0.0
 11
46.205256478817546
 21
45.09748962026174
 31
0.0
  0
LINE
  5
46
330
17
100
AcDbEntity
  8
CUT
100
AcDbLine
 10
70.01676031250258
 20
38.0
 30
0.0
 11
70.0167603124994
 21
40.0
 31
0.0
  0
ARC
  5
47
330
17
100
AcDbEntity
  8
CUT
100
AcDbCircle
 10
69.5167603124994
 20
40.0
 30
0.0
 40
0.5
100
AcDbArc
 50
5.21102e-11
 51
90.0
  0
ARC
  5
48
330
17
100
AcDbEntity
  8
CUT
100
AcDbCircle
 10
70.81676031250254
 20
38.0
 30
0.0
 40
0.8
100
AcDbArc
 50
180.0
 51
0.0
  0
LINE
  5
49
330
17
100
AcDbEntity
  8
CUT
100
AcDbLine
 10
71.61676031250158
 20
38.0
 30
0.0
 11
73.80475210555755
 21
38.0
 31
0.0
  0
LINE
  5
4A
330
17
100
AcDbEntity
  8
CUT
100
AcDbLine
 10
67.75517866424548
 20
30.14623220026806
 30
0.0
 11
68.77226462745762
 21
32.3273800871267
 31
0.0
  0
ARC
  5
4B
330
17
100
AcDbEntity
  8
CUT
100
AcDbCircle
 10
66.84887087720745
 20
30.568850462010232
 30
0.0
 40
1.0
100
AcDbArc
 50
293.5468889045132
 51
335.0000000000057
  0
ARC
  5
4C
330
17
100
AcDbEntity
  8
CUT
100
AcDbCircle
 10
67.8659568404205
 20
32.74999834886705
 30
0.0
 40
1.0
100
AcDbArc
 50
335.0000000000057
 51
90.0
  0
LINE
  5
4D
330
17
100
AcDbEntity
  8
CUT
100
AcDbLine
 10
67.24837030309345
 20
29.652117017263663
 30
0.0
 11
54.95904003501846
 21
24.296601283917084
 31
0.0
  0
LINE
  5
4E
330
17
100
AcDbEntity
  8
CUT
100
AcDbLine
 10
60.5790234461806
 20
5.5
 30
0.0
 11
60.5790234461806
 21
8.0
 31
0.0
  0
ARC
  5
4F
330
17
100
AcDbEntity
  8
CUT
100
AcDbCircle
 10
61.37902344617942
 20
8.0
 30
0.0
 40
0.8
100
AcDbArc
 50
0.0
 51
180.0
  0
ARC
  5
50
330
17
100
AcDbEntity
  8
CUT
100
AcDbCircle
 10
65.34735352982352
 20
14.803887375152158
 30
0.0
 40
1.0
100
AcDbArc
 50
155.0000000000057
 51
227.5325287678228
  0
LINE
  5
51
330
17
100
AcDbEntity
  8
CUT
100
AcDbLine
 10
62.17902344617846
 20
8.0
 30
0.0
 11
69.30066368299754
 21
8.0
 31
0.0
  0
ARC
  5
52
330
17
100
AcDbEntity
  8
CUT
100
AcDbCircle
 10
69.30066368299754
 20
8.799999999999386
 30
0.0
 40
0.8
100
AcDbArc
 50
270.0
 51
29.26206558727143
  0
ARC
  5
53
330
17
100
AcDbEntity
  8
CUT
100
AcDbCircle
 10
73.80475210555755
 20
37.19999999999982
 30
0.0
 40
0.8
100
AcDbArc
 50
335.0000000000881
 51
90.0
  0
LINE
  5
54
330
17
100
AcDbEntity
  8
CUT
100
AcDbLine
 10
63.25742392420352
 20
24.64043034493716
 30
0.0
 11
57.8005908628636
 21
22.26241993454289
 31
0.0
  0
ARC
  5
55
330
17
100
AcDbEntity
  8
CUT
100
AcDbCircle
 10
58.200090288750516
 20
21.345686489796208
 30
0.0
 40
1.0
100
AcDbArc
 50
113.5468889045132
 51
227.5325287678228
  0
LINE
  5
56
330
17
100
AcDbEntity
  8
CUT
100
AcDbLine
 10
62.15372912154453
 20
18.1338848910583
 30
0.0
 11
64.56323113712847
 21
23.301078638449326
 31
0.0
  0
ARC
  5
57
330
17
100
AcDbEntity
  8
CUT
100
AcDbCircle
 10
61.2474213345065
 20
18.556503152800474
 30
0.0
 40
1.0
100
AcDbArc
 50
227.5325287678228
 51
335.0000000000057
  0
ARC
  5
58
330
17
100
AcDbEntity
  8
CUT
100
AcDbCircle
 10
63.65692335009044
 20
23.723696900189793
 30
0.0
 40
1.0
100
AcDbArc
 50
335.0000000000057
 51
113.5468889045132
  0
LINE
  5
59
330
17
100
AcDbEntity
  8
CUT
100
AcDbLine
 10
60.56618352792657
 20
11.401848064078877
 30
0.0
 11
37.67661696692653
 21
11.401848064078877
 31
0.0
  0
LINE
  5
5A
330
17
100
AcDbEntity
  8
CUT
100
AcDbLine
 10
69.99857815644145
 20
9.191043971643921
 30
0.0
 11
64.6721820085495
 21
14.066226601586095
 31
0.0
  0
LINE
  5
5B
330
17
100
AcDbEntity
  8
CUT
100
AcDbLine
 10
60.572249813232474
 20
17.8188423792335
 30
0.0
 11
57.52491876747649
 21
20.608025716229804
 31
0.0
  0
LINE
  5
5C
330
17
100
AcDbEntity
  8
CUT
100
AcDbLine
 10
61.24135504920059
 20
13.139508837646758
 30
0.0
 11
53.858373047378564
 21
19.897058335105157
 31
0.0
  0
ARC
  5
5D
330
17
100
AcDbEntity
  8
CUT
100
AcDbCircle
 10
60.56618352792657
 20
12.40184806407899
 30
0.0
 40
1.0
100
AcDbArc
 50
270.0
 51
47.5325287678228
  0
LINE
  5
5E
330
17
100
AcDbEntity
  8
CUT
100
AcDbLine
 10
49.58378073108361
 20
30.309253478081928
 30
0.0
 11
49.05405779682951
 21
33.26856051257073
 31
0.0
  0
ARC
  5
5F
330
17
100
AcDbEntity
  8
CUT
100
AcDbCircle
 10
48.599426648155486
 20
30.133051777117203
 30
0.0
 40
1.0
100
AcDbArc
 50
227.5325287678044
 51
10.14859725918409
  0
ARC
  5
60
330
17
100
AcDbEntity
  8
CUT
100
AcDbCircle
 10
48.06970371390162
 20
33.09235881160589
 30
0.0
 40
1.0
100
AcDbArc
 50
10.14859725918409
 51
124.0115673761377
  0
LINE
  5
61
330
17
100
AcDbEntity
  8
CUT
100
AcDbLine
 10
48.090696974562434
 20
38.65039368181829
 30
0.0
 11
47.63053687604247
 21
41.221086639359555
 31
0.0
  0
ARC
  5
62
330
17
100
AcDbEntity
  8
CUT
100
AcDbCircle
 10
46.646182793114576
 20
41.044884938394034
 30
0.0
 40
1.0
100
AcDbArc
 50
10.14859725921221
 51
62.46912953543819
  0
ARC
  5
63
330
17
100
AcDbEntity
  8
CUT
100
AcDbCircle
 10
47.10634289163454
 20
38.47419198085299
 30
0.0
 40
1.0
100
AcDbArc
 50
304.0115673761377
 51
10.14859725920042
  0
LINE
  5
64
330
17
100
AcDbEntity
  8
CUT
100
AcDbLine
 10
47.92425512688146
 20
29.395391003550003
 30
0.0
 11
45.838356734968556
 21
31.30458726415941
 31
0.0
  0
ARC
  5
65
330
17
100
AcDbEntity
  8
CUT
100
AcDbCircle
 10
46.51352825624258
 20
32.042248037726495
 30
0.0
 40
1.0
100
AcDbArc
 50
124.0115673761377
 51
227.5325287678044
  0
LINE
  5
66
330
17
100
AcDbEntity
  8
CUT
100
AcDbLine
 10
49.82147217203442
 20
23.591982347481007
 30
0.0
 11
42.92593150789048
 21
29.903382989957663
 31
0.0
  0
LINE
  5
67
330
17
100
AcDbEntity
  8
CUT
100
AcDbLine
 10
43.27944734699145
 20
34.6854118226247
 30
0.0
 11
47.665703157110556
 21
37.6452673199766
 31
0.0
  0
LINE
  5
68
330
17
100
AcDbEntity
  8
CUT
100
AcDbLine
 10
45.95416799076747
 20
32.87117269860289
 30
0.0
 11
47.51034344842856
 21
33.92128347248263
 31
0.0
  0
LINE
  5
69
330
17
100
AcDbEntity
  8
CUT
100
AcDbLine
 10
47.10840925297862
 20
41.93164685672457
 30
0.0
 11
41.79758221122461
 21
44.699926291958604
 31
0.0
  0
ARC
  5
6A
330
17
100
AcDbEntity
  8
CUT
100
AcDbCircle
 10
54.559540609132455
 20
25.213334728663654
 30
0.0
 40
1.0
100
AcDbArc
 50
190.1485972591936
 51
293.5468889045132
  0
LINE
  5
6B
330
17
100
AcDbEntity
  8
CUT
100
AcDbLine
 10
49.5458000766464
 20
21.937588129167125
 30
0.0
 11
33.762280818204545
 21
15.059354419738156
 31
0.0
  0
ARC
  5
6C
330
17
100
AcDbEntity
  8
CUT
100
AcDbCircle
 10
49.14630065076062
 20
22.854321573913694
 30
0.0
 40
1.0
100
AcDbArc
 50
293.5468889045132
 51
47.53252876779051
  0
LINE
  5
6D
330
17
100
AcDbEntity
  8
CUT
100
AcDbLine
 10
52.783702100218534
 20
20.076131006285323
 30
0.0
 11
37.277117541040525
 21
13.318581508825446
 31
0.0
  0
ARC
  5
6E
330
17
100
AcDbEntity
  8
CUT
100
AcDbCircle
 10
53.18320152610454
 20
19.159397561538867
 30
0.0
 40
1.0
100
AcDbArc
 50
47.5325287678228
 51
113.5468889045132
  0
LINE
  5
6F
330
17
100
AcDbEntity
  8
CUT
100
AcDbLine
 10
42.04491556024254
 20
34.77667570993367
 30
0.0
 11
37.43962582930749
 21
38.99183881059321
 31
0.0
  0
ARC
  5
70
330
17
100
AcDbEntity
  8
CUT
100
AcDbCircle
 10
46.89859616860849
 20
46.4276324977576
 30
0.0
 40
1.499999999999999
100
AcDbArc
 50
62.46912953533399
 51
242.469129535334
  0
LINE
  5
71
330
17
100
AcDbEntity
  8
POCKET
100
AcDbLine
 10
29.54105840823445
 20
26.06887787046196
 30
0.0
 11
39.680115603661534
 21
47.822027317601396
 31
0.0
  0
ARC
  5
72
330
17
100
AcDbEntity
  8
POCKET
100
AcDbCircle
 10
38.773734370153534
 20
48.24448803712767
 30
0.0
 40
1.0
100
AcDbArc
 50
335.0099592415663
 51
65.00995924159481
  0
ARC
  5
73
330
17
100
AcDbEntity
  8
CUT
100
AcDbCircle
 10
41.33535575136057
 20
43.81316437362818
 30
0.0
 40
1.0
100
AcDbArc
 50
62.46912953543819
 51
125.4541259168261
  0
LINE
  5
74
330
17
100
AcDbEntity
  8
CUT
100
AcDbLine
 10
38.7837750276376
 20
43.22384632939861
 30
0.0
 11
40.75530480638554
 21
44.627744573016116
 31
0.0
  0
LINE
  5
75
330
17
100
AcDbEntity
  8
CUT
100
AcDbLine
 10
5.187452664811417
 20
31.571394246619775
 30
0.0
 11
19.512893261240606
 21
62.292400745009786
 31
0.0
  0
LINE
  5
76
330
17
100
AcDbEntity
  8
POCKET
100
AcDbLine
 10
13.006221171619472
 20
36.5077895035663
 30
0.0
 11
20.961262157014517
 21
53.5674299496867
 31
0.0
  0
LINE
  5
77
330
17
100
AcDbEntity
  8
CUT
100
AcDbLine
 10
17.41986872395546
 20
38.87428247478522
 30
0.0
 11
22.08274304014253
 21
48.87384871531526
 31
0.0
  0
LINE
  5
78
330
17
100
AcDbEntity
  8
POCKET
100
AcDbLine
 10
14.012606321857447
 20
41.03219100610818
 30
0.0
 11
18.23954314594448
 21
50.09688627791911
 31
0.0
  0
ARC
  5
79
330
17
100
AcDbEntity
  8
CUT
100
AcDbCircle
 10
18.326176510991445
 20
38.45166421304509
 30
0.0
 40
1.0
100
AcDbArc
 50
154.9999999999839
 51
207.9240786565331
  0
ARC
  5
7A
330
17
100
AcDbEntity
  8
CUT
100
AcDbCircle
 10
22.989050827178517
 20
48.45123045357468
 30
0.0
 40
1.0
100
AcDbArc
 50
102.0759213434505
 51
154.9999999999949
  0
LINE
  5
7B
330
17
100
AcDbEntity
  8
POCKET
100
AcDbLine
 10
19.993883106422572
 20
56.225282047241194
 30
0.0
 11
17.27495974531348
 21
57.493136832464074
 31
0.0
  0
ARC
  5
7C
330
17
100
AcDbEntity
  8
POCKET
100
AcDbCircle
 10
19.148646582942547
 20
54.41266647316729
 30
0.0
 40
2.0
100
AcDbArc
 50
335.0000000000005
 51
64.99999999990673
  0
CIRCLE
  5
7D
330
17
100
AcDbEntity
  8
CUT
100
AcDbCircle
 10
21.72394048495653
 20
60.43696211046313
 30
0.0
 40
1.5
  0
ARC
  5
7E
330
17
100
AcDbEntity
  8
CUT
100
AcDbCircle
 10
38.11479735058151
 20
39.72949958416018
 30
0.0
 40
1.0
100
AcDbArc
 50
155.0099592415539
 51
227.5325287678044
  0
ARC
  5
7F
330
17
100
AcDbEntity
  8
CUT
100
AcDbCircle
 10
21.325508835314622
 20
61.447164221528396
 30
0.0
 40
2.0
100
AcDbArc
 50
62.46912953543819
 51
154.9999999999839
  0
LINE
  5
80
330
17
100
AcDbEntity
  8
CUT
100
AcDbLine
 10
28.573217380269398
 20
28.726561776532776
 30
0.0
 11
37.02243169759049
 21
46.85418628963703
 31
0.0
  0
LINE
  5
81
330
17
100
AcDbEntity
  8
CUT
100
AcDbLine
 10
30.681487137080467
 20
50.912964059419096
 30
0.0
 11
36.538511183609444
 21
48.183028242672435
 31
0.0
  0
LINE
  5
82
330
17
100
AcDbEntity
  8
POCKET
100
AcDbLine
 10
30.918706217528552
 20
53.00897419991418
 30
0.0
 11
39.19619508968049
 21
49.15086927063612
 31
0.0
  0
ARC
  5
83
330
17
100
AcDbEntity
  8
POCKET
100
AcDbCircle
 10
30.4962454980016
 20
52.10259296640584
 30
0.0
 40
1.0
100
AcDbArc
 50
65.00995924159481
 51
102.0759213434505
  0
ARC
  5
84
330
17
100
AcDbEntity
  8
CUT
100
AcDbCircle
 10
36.11605046408249
 20
47.276647009163526
 30
0.0
 40
1.0
100
AcDbArc
 50
335.0099592415663
 51
65.00995924159481
  0
ARC
  5
85
330
17
100
AcDbEntity
  8
CUT
100
AcDbCircle
 10
39.3638259726124
 20
42.409266130009996
 30
0.0
 40
1.0
100
AcDbArc
 50
125.4541259168261
 51
155.0099592415591
  0
LINE
  5
86
330
17
100
AcDbEntity
  8
CUT
100
AcDbLine
 10
22.779843197973605
 20
49.429101696573184
 30
0.0
 11
30.049818788349512
 21
50.984454068909145
 31
0.0
  0
LINE
  5
87
330
17
100
AcDbEntity
  8
POCKET
100
AcDbLine
 10
18.936643303775554
 20
50.65213925917692
 30
0.0
 11
30.28703786879646
 21
53.08046420940423
 31
0.0
  0
ARC
  5
88
330
17
100
AcDbEntity
  8
POCKET
100
AcDbCircle
 10
19.145850932980466
 20
49.67426801617887
 30
0.0
 40
1.0
100
AcDbArc
 50
102.0759213434505
 51
154.9999999999839
  0
ARC
  5
89
330
17
100
AcDbEntity
  8
CUT
100
AcDbCircle
 10
30.259026417554423
 20
50.00658282591087
 30
0.0
 40
1.0
100
AcDbArc
 50
65.00995924159481
 51
102.0759213434505
  0
LINE
  5
8A
330
17
100
AcDbEntity
  8
CUT
100
AcDbLine
 10
17.442607607301625
 20
37.983363035987736
 30
0.0
 11
20.926203862294415
 21
31.410675469281955
 31
0.0
  0
LINE
  5
8B
330
17
100
AcDbEntity
  8
POCKET
100
AcDbLine
 10
14.035345205204521
 20
40.14127156731047
 30
0.0
 11
19.47322953548951
 21
29.881324055993787
 31
0.0
  0
LINE
  5
8C
330
17
100
AcDbEntity
  8
CUT
100
AcDbLine
 10
37.20841611707351
 20
40.15196030368645
 30
0.0
 11
38.4574447391044
 21
42.83172684953661
 31
0.0
  0
LINE
  5
8D
330
17
100
AcDbEntity
  8
CUT
100
AcDbLine
 10
39.132490333167425
 20
33.3754714357334
 30
0.0
 11
36.575431902600485
 21
35.715914485463486
 31
0.0
  0
LINE
  5
8E
330
17
100
AcDbEntity
  8
CUT
100
AcDbLine
 10
55.12904033678342
 20
5.0
 30
0.0
 11
60.0790234461806
 21
5.0
 31
0.0
  0
ARC
  5
8F
330
17
100
AcDbEntity
  8
CUT
100
AcDbCircle
 10
55.12904033678342
 20
5.5
 30
0.0
 40
0.5
100
AcDbArc
 50
180.0
 51
270.0
  0
LINE
  5
90
330
17
100
AcDbEntity
  8
CUT
100
AcDbLine
 10
54.629040336784556
 20
5.5
 30
0.0
 11
54.629040336784556
 21
8.0
 31
0.0
  0
ARC
  5
91
330
17
100
AcDbEntity
  8
CUT
100
AcDbCircle
 10
60.0790234461806
 20
5.5
 30
0.0
 40
0.5
100
AcDbArc
 50
270.0
 51
0.0
  0
ARC
  5
92
330
17
100
AcDbEntity
  8
CUT
100
AcDbCircle
 10
53.8290403367846
 20
8.0
 30
0.0
 40
0.8
100
AcDbArc
 50
0.0
 51
180.0
  0
LINE
  5
93
330
17
100
AcDbEntity
  8
CUT
100
AcDbLine
 10
48.59498269880555
 20
8.0
 30
0.0
 11
53.029040336785556
 21
8.0
 31
0.0
  0
LINE
  5
94
330
17
100
AcDbEntity
  8
CUT
100
AcDbLine
 10
41.54499958941051
 20
5.0
 30
0.0
 11
46.49498269880655
 21
5.0
 31
0.0
  0
ARC
  5
95
330
17
100
AcDbEntity
  8
CUT
100
AcDbCircle
 10
41.54499958941051
 20
5.5
 30
0.0
 40
0.5
100
AcDbArc
 50
180.0
 51
270.0
  0
LINE
  5
96
330
17
100
AcDbEntity
  8
CUT
100
AcDbLine
 10
35.409960587183605
 20
5.5
 30
0.0
 11
35.409960587183605
 21
8.0
 31
0.0
  0
ARC
  5
97
330
17
100
AcDbEntity
  8
CUT
100
AcDbCircle
 10
34.909960587183605
 20
5.5
 30
0.0
 40
0.5
100
AcDbArc
 50
270.0
 51
0.0
  0
LINE
  5
98
330
17
100
AcDbEntity
  8
CUT
100
AcDbLine
 10
31.77769826116355
 20
5.0
 30
0.0
 11
34.909960587183605
 21
5.0
 31
0.0
  0
ARC
  5
99
330
17
100
AcDbEntity
  8
CUT
100
AcDbCircle
 10
31.77769826116355
 20
7.0
 30
0.0
 40
2.0
100
AcDbArc
 50
226.2418718880904
 51
270.0
  0
LINE
  5
9A
330
17
100
AcDbEntity
  8
CUT
100
AcDbLine
 10
41.04499958941051
 20
5.5
 30
0.0
 11
41.04499958941051
 21
8.0
 31
0.0
  0
LINE
  5
9B
330
17
100
AcDbEntity
  8
CUT
100
AcDbLine
 10
46.99498269880655
 20
5.5
 30
0.0
 11
46.99498269880655
 21
8.0
 31
0.0
  0
ARC
  5
9C
330
17
100
AcDbEntity
  8
CUT
100
AcDbCircle
 10
46.49498269880655
 20
5.5
 30
0.0
 40
0.5
100
AcDbArc
 50
270.0
 51
0.0
  0
ARC
  5
9D
330
17
100
AcDbEntity
  8
CUT
100
AcDbCircle
 10
47.7949826988056
 20
8.0
 30
0.0
 40
0.8
100
AcDbArc
 50
0.0
 51
180.0
  0
ARC
  5
9E
330
17
100
AcDbEntity
  8
CUT
100
AcDbCircle
 10
40.244999589411464
 20
8.0
 30
0.0
 40
0.8
100
AcDbArc
 50
0.0
 51
180.0
  0
ARC
  5
9F
330
17
100
AcDbEntity
  8
CUT
100
AcDbCircle
 10
36.20996058718242
 20
8.0
 30
0.0
 40
0.8
100
AcDbArc
 50
0.0
 51
180.0
  0
LINE
  5
A0
330
17
100
AcDbEntity
  8
CUT
100
AcDbLine
 10
37.009960587182604
 20
8.0
 30
0.0
 11
39.44499958941151
 21
8.0
 31
0.0
  0
ARC
  5
A1
330
17
100
AcDbEntity
  8
CUT
100
AcDbCircle
 10
32.96328196643162
 20
16.89282130923084
 30
0.0
 40
2.0
100
AcDbArc
 50
226.2418718880904
 51
293.5468889045132
  0
ARC
  5
A2
330
17
100
AcDbEntity
  8
CUT
100
AcDbCircle
 10
37.67661696692653
 20
12.40184806407899
 30
0.0
 40
1.0
100
AcDbArc
 50
113.5468889045132
 51
270.0
  0
ARC
  5
A3
330
17
100
AcDbEntity
  8
CUT
100
AcDbCircle
 10
30.439651857041554
 20
11.57537278220309
 30
0.0
 40
1.499999999999999
100
AcDbArc
 50
226.2418718878047
 51
46.2418718881042
  0
LINE
  5
A4
330
17
100
AcDbEntity
  8
CUT
100
AcDbLine
 10
29.063818526179602
 20
14.969618369235832
 30
0.0
 11
31.477075144614446
 21
12.6587715649257
 31
0.0
  0
LINE
  5
A5
330
17
100
AcDbEntity
  8
CUT
100
AcDbLine
 10
5.616837188790441
 20
29.281626012842253
 30
0.0
 11
30.39446721106856
 21
5.555468289703299
 31
0.0
  0
LINE
  5
A6
330
17
100
AcDbEntity
  8
CUT
100
AcDbLine
 10
27.744359819369492
 20
19.121207947544804
 30
0.0
 11
31.580050916336404
 21
15.448289598934025
 31
0.0
  0
ARC
  5
A7
330
17
100
AcDbEntity
  8
CUT
100
AcDbCircle
 10
42.72008708151543
 20
35.51433648350098
 30
0.0
 40
1.0
100
AcDbArc
 50
227.5325287678044
 51
304.0115673761377
  0
ARC
  5
A8
330
17
100
AcDbEntity
  8
CUT
100
AcDbCircle
 10
42.25075998661646
 20
29.16572221639069
 30
0.0
 40
1.0
100
AcDbArc
 50
47.53252876779051
 51
124.0115673761377
  0
LINE
  5
A9
330
17
100
AcDbEntity
  8
CUT
100
AcDbLine
 10
27.876615078943587
 20
20.672398463569607
 30
0.0
 11
41.6913997211434
 21
29.994646877267314
 31
0.0
  0
ARC
  5
AA
330
17
100
AcDbEntity
  8
CUT
100
AcDbCircle
 10
38.4573188118934
 20
32.6378106621662
 30
0.0
 40
1.0
100
AcDbArc
 50
304.0115673761377
 51
47.53252876780099
  0
LINE
  5
AB
330
17
100
AcDbEntity
  8
CUT
100
AcDbLine
 10
33.69494244564862
 20
28.217765896413198
 30
0.0
 11
39.0166790773676
 21
31.808886001290034
 31
0.0
  0
ARC
  5
AC
330
17
100
AcDbEntity
  8
CUT
100
AcDbCircle
 10
35.90026038132646
 20
34.978253711896514
 30
0.0
 40
1.0
100
AcDbArc
 50
47.5325287678044
 51
155.0099592415591
  0
LINE
  5
AD
330
17
100
AcDbEntity
  8
CUT
100
AcDbLine
 10
32.22920094666756
 20
29.469151276815637
 30
0.0
 11
34.99387914781846
 21
35.40071443142301
 31
0.0
  0
ARC
  5
AE
330
17
100
AcDbEntity
  8
CUT
100
AcDbCircle
 10
28.026395238606483
 20
13.886219586513107
 30
0.0
 40
1.499999999999999
100
AcDbArc
 50
46.24187188780468
 51
226.2418718881042
  0
LINE
  5
AF
330
17
100
AcDbEntity
  8
CUT
100
AcDbLine
 10
26.988971951037456
 20
12.802820803788563
 30
0.0
 11
29.402228569471617
 21
10.491973999478432
 31
0.0
  0
ARC
  5
B0
330
17
100
AcDbEntity
  8
CUT
100
AcDbCircle
 10
33.13558218017556
 20
29.046690557289594
 30
0.0
 40
1.0
100
AcDbArc
 50
155.0099592415663
 51
304.0115673761377
  0
ARC
  5
B1
330
17
100
AcDbEntity
  8
CUT
100
AcDbCircle
 10
28.435975344417557
 20
19.843473802693097
 30
0.0
 40
1.0
100
AcDbArc
 50
124.0115673761377
 51
226.2418718880904
  0
ARC
  5
B2
330
17
100
AcDbEntity
  8
POCKET
100
AcDbCircle
 10
28.63467717472645
 20
26.491338589988118
 30
0.0
 40
1.0
100
AcDbArc
 50
245.0099592415948
 51
335.0099592415663
  0
ARC
  5
B3
330
17
100
AcDbEntity
  8
CUT
100
AcDbCircle
 10
27.666836146762535
 20
29.14902249605882
 30
0.0
 40
1.0
100
AcDbArc
 50
245.0099592415948
 51
335.0099592415663
  0
LINE
  5
B4
330
17
100
AcDbEntity
  8
CUT
100
AcDbLine
 10
21.38731204645751
 20
30.97259541283063
 30
0.0
 11
27.244375427235582
 21
28.242641262549682
 31
0.0
  0
LINE
  5
B5
330
17
100
AcDbEntity
  8
POCKET
100
AcDbLine
 10
19.934337719652603
 20
29.443243999542574
 30
0.0
 11
28.212216455200405
 21
25.584957356479094
 31
0.0
  0
LINE
  5
B6
330
17
100
AcDbEntity
  8
CUT
100
AcDbLine
 10
18.255348080552494
 20
27.316626620642523
 30
0.0
 11
22.400677078814624
 21
23.34721027458147
 31
0.0
  0
ARC
  5
B7
330
17
100
AcDbEntity
  8
CUT
100
AcDbCircle
 10
23.09229260386155
 20
24.069476129729424
 30
0.0
 40
1.0
100
AcDbArc
 50
226.2418718880904
 51
335.0099592415591
  0
LINE
  5
B8
330
17
100
AcDbEntity
  8
CUT
100
AcDbLine
 10
23.99867383737046
 20
23.647015410202812
 30
0.0
 11
24.778775359287465
 21
25.320708009340592
 31
0.0
  0
ARC
  5
B9
330
17
100
AcDbEntity
  8
CUT
100
AcDbCircle
 10
23.872394125779465
 20
25.743168728867317
 30
0.0
 40
1.0
100
AcDbArc
 50
335.009959241554
 51
65.00995924159481
  0
LINE
  5
BA
330
17
100
AcDbEntity
  8
CUT
100
AcDbLine
 10
19.3694243251266
 20
28.945273709300068
 30
0.0
 11
24.294854845305508
 21
26.649549962376682
 31
0.0
  0
ARC
  5
BB
330
17
100
AcDbEntity
  8
CUT
100
AcDbCircle
 10
7.000068238885433
 20
30.726157723138613
 30
0.0
 40
2.0
100
AcDbArc
 50
154.9999999999839
 51
226.2418718880904
  0
ARC
  5
BC
330
17
100
AcDbEntity
  8
POCKET
100
AcDbCircle
 10
11.19360559754341
 20
37.35302602704792
 30
0.0
 40
2.0
100
AcDbArc
 50
244.9999999999067
 51
335.0000000000005
  0
LINE
  5
BD
330
17
100
AcDbEntity
  8
POCKET
100
AcDbLine
 10
10.348369074063612
 20
35.54041045297413
 30
0.0
 11
7.629445712953611
 21
36.8082652381961
 31
0.0
  0
ARC
  5
BE
330
17
100
AcDbEntity
  8
CUT
100
AcDbCircle
 10
18.94696360560056
 20
28.03889247579093
 30
0.0
 40
1.0
100
AcDbArc
 50
65.00995924159481
 51
226.2418718880904
  0
ARC
  5
BF
330
17
100
AcDbEntity
  8
CUT
100
AcDbCircle
 10
11.395560208957477
 20
29.198088713207426
 30
0.0
 40
1.499999999999999
100
AcDbArc
 50
226.2418718878047
 51
46.2418718881042
  0
ARC
  5
C0
330
17
100
AcDbEntity
  8
CUT
100
AcDbCircle
 10
8.982303590522406
 20
31.508935517517557
 30
0.0
 40
1.499999999999999
100
AcDbArc
 50
46.24187188780468
 51
226.2418718881042
  0
LINE
  5
C1
330
17
100
AcDbEntity
  8
CUT
100
AcDbLine
 10
10.019726878095526
 20
32.592334300240395
 30
0.0
 11
12.432983496530596
 21
30.28148749593015
 31
0.0
  0
LINE
  5
C2
330
17
100
AcDbEntity
  8
CUT
100
AcDbLine
 10
7.944880302953607
 20
30.425536734793013
 30
0.0
 11
10.35813692138845
 21
28.114689930482996
 31
0.0
  0
ARC
  5
C3
330
17
100
AcDbEntity
  8
POCKET
100
AcDbCircle
 10
20.356798439179556
 20
30.349625233051484
 30
0.0
 40
1.0
100
AcDbArc
 50
207.9240786565331
 51
245.0099592415948
  0
ARC
  5
C4
330
17
100
AcDbEntity
  8
CUT
100
AcDbCircle
 10
21.809772765984462
 20
31.878976646339652
 30
0.0
 40
1.0
100
AcDbArc
 50
207.9240786565331
 51
245.0099592415948
  0
ARC
  5
C5
330
17
100
AcDbEntity
  8
POCKET
100
AcDbCircle
 10
14.918914108893432
 20
40.60957274436805
 30
0.0
 40
1.0
100
AcDbArc
 50
154.9999999999839
 51
207.9240786565331
  0
ENDSEC
  0
SECTION
  2
OBJECTS
  0
DICTIONARY
  5
A
330
0
100
AcDbDictionary
281
1
  3
ACAD_COLOR
350
B
  3
ACAD_GROUP
350
C
  3
ACAD_LAYOUT
350
D
  3
ACAD_MATERIAL
350
E
  3
ACAD_MLEADERSTYLE
350
F
  3
ACAD_MLINESTYLE
350
10
  3
ACAD_PLOTSETTINGS
350
11
  3
ACAD_PLOTSTYLENAME
350
12
  3
ACAD_SCALELIST
350
14
  3
ACAD_TABLESTYLE
350
15
  3
ACAD_VISUALSTYLE
350
16
  3
EZDXF_META
350
2D
  0
DICTIONARY
  5
B
330
A
100
AcDbDictionary
281
1
  0
DICTIONARY
  5
C
330
A
100
AcDbDictionary
281
1
  0
DICTIONARY
  5
D
330
A
100
AcDbDictionary
281
1
  3
Model
350
1A
  3
Layout1
350
1E
  0
DICTIONARY
  5
E
330
A
100
AcDbDictionary
281
1
  3
ByBlock
350
1F
  3
ByLayer
350
20
  3
Global
350
21
  0
DICTIONARY
  5
F
330
A
100
AcDbDictionary
281
1
  3
Standard
350
2C
  0
DICTIONARY
  5
10
330
A
100
AcDbDictionary
281
1
  3
Standard
350
22
  0
DICTIONARY
  5
11
330
A
100
AcDbDictionary
281
1
  0
ACDBDICTIONARYWDFLT
  5
12
330
A
100
AcDbDictionary
281
1
  3
Normal
350
13
100
AcDbDictionaryWithDefault
340
13
  0
ACDBPLACEHOLDER
  5
13
330
12
  0
DICTIONARY
  5
14
330
A
100
AcDbDictionary
281
1
  0
DICTIONARY
  5
15
330
A
100
AcDbDictionary
281
1
  0
DICTIONARY
  5
16
330
A
100
AcDbDictionary
281
1
  0
LAYOUT
  5
1A
330
D
100
AcDbPlotSettings
  1

  4
A3
  6

 40
7.5
 41
20.0
 42
7.5
 43
20.0
 44
420.0
 45
297.0
 46
0.0
 47
0.0
 48
0.0
 49
0.0
140
0.0
141
0.0
142
1.0
143
1.0
 70
1024
 72
1
 73
0
 74
5
  7

 75
16
 76
0
 77
2
 78
300
147
1.0
148
0.0
149
0.0
100
AcDbLayout
  1
Model
 70
1
 71
0
 10
0.0
 20
0.0
 11
420.0
 21
297.0
 12
0.0
 22
0.0
 32
0.0
 14
1e+20
 24
1e+20
 34
1e+20
 15
-1e+20
 25
-1e+20
 35
-1e+20
146
0.0
 13
0.0
 23
0.0
 33
0.0
 16
1.0
 26
0.0
 36
0.0
 17
0.0
 27
1.0
 37
0.0
 76
1
330
17
  0
LAYOUT
  5
1E
330
D
100
AcDbPlotSettings
  1

  4
A3
  6

 40
7.5
 41
20.0
 42
7.5
 43
20.0
 44
420.0
 45
297.0
 46
0.0
 47
0.0
 48
0.0
 49
0.0
140
0.0
141
0.0
142
1.0
143
1.0
 70
0
 72
1
 73
0
 74
5
  7

 75
16
 76
0
 77
2
 78
300
147
1.0
148
0.0
149
0.0
100
AcDbLayout
  1
Layout1
 70
1
 71
1
 10
0.0
 20
0.0
 11
420.0
 21
297.0
 12
0.0
 22
0.0
 32
0.0
 14
1e+20
 24
1e+20
 34
1e+20
 15
-1e+20
 25
-1e+20
 35
-1e+20
146
0.0
 13
0.0
 23
0.0
 33
0.0
 16
1.0
 26
0.0
 36
0.0
 17
0.0
 27
1.0
 37
0.0
 76
1
330
1B
  0
MATERIAL
  5
1F
102
{ACAD_REACTORS
330
E
102
}
330
E
100
AcDbMaterial
  1
ByBlock
  2

 70
0
 40
1.0
 71
1
 41
1.0
 91
-1023410177
 42
1.0
 72
1
  3

 73
1
 74
1
 75
1
 44
0.5
 73
0
 45
1.0
 46
1.0
 77
1
  4

 78
1
 79
1
170
1
 48
1.0
171
1
  6

172
1
173
1
174
1
140
1.0
141
1.0
175
1
  7

176
1
177
1
178
1
143
1.0
179
1
  8

270
1
271
1
272
1
145
1.0
146
1.0
273
1
  9

274
1
275
1
276
1
 42
1.0
 72
1
  3

 73
1
 74
1
 75
1
 94
63
  0
MATERIAL
  5
20
102
{ACAD_REACTORS
330
E
102
}
330
E
100
AcDbMaterial
  1
ByLayer
  2

 70
0
 40
1.0
 71
1
 41
1.0
 91
-1023410177
 42
1.0
 72
1
  3

 73
1
 74
1
 75
1
 44
0.5
 73
0
 45
1.0
 46
1.0
 77
1
  4

 78
1
 79
1
170
1
 48
1.0
171
1
  6

172
1
173
1
174
1
140
1.0
141
1.0
175
1
  7

176
1
177
1
178
1
143
1.0
179
1
  8

270
1
271
1
272
1
145
1.0
146
1.0
273
1
  9

274
1
275
1
276
1
 42
1.0
 72
1
  3

 73
1
 74
1
 75
1
 94
63
  0
MATERIAL
  5
21
102
{ACAD_REACTORS
330
E
102
}
330
E
100
AcDbMaterial
  1
Global
  2

 70
0
 40
1.0
 71
1
 41
1.0
 91
-1023410177
 42
1.0
 72
1
  3

 73
1
 74
1
 75
1
 44
0.5
 73
0
 45
1.0
 46
1.0
 77
1
  4

 78
1
 79
1
170
1
 48
1.0
171
1
  6

172
1
173
1
174
1
140
1.0
141
1.0
175
1
  7

176
1
177
1
178
1
143
1.0
179
1
  8

270
1
271
1
272
1
145
1.0
146
1.0
273
1
  9

274
1
275
1
276
1
 42
1.0
 72
1
  3

 73
1
 74
1
 75
1
 94
63
  0
MLINESTYLE
  5
22
102
{ACAD_REACTORS
330
10
102
}
330
10
100
AcDbMlineStyle
  2
Standard
 70
0
  3

 62
256
 51
90.0
 52
90.0
 71
2
 49
0.5
 62
256
  6
BYLAYER
 49
-0.5
 62
256
  6
BYLAYER
  0
MLEADERSTYLE
  5
2C
102
{ACAD_REACTORS
330
F
102
}
330
F
100
AcDbMLeaderStyle
179
2
170
2
171
1
172
0
 90
2
 40
0.0
 41
0.0
173
1
 91
-1056964608
 92
-2
290
1
 42
2.0
291
1
 43
8.0
  3
Standard
 44
4.0
300

342
29
174
1
175
1
176
0
178
1
 93
-1056964608
 45
4.0
292
0
297
0
 46
4.0
 94
-1056964608
 47
1.0
 49
1.0
140
1.0
294
1
141
0.0
177
0
142
1.0
295
0
296
0
143
3.75
271
0
272
9
273
9
  0
DICTIONARY
  5
2D
330
A
100
AcDbDictionary
280
1
281
1
  3
CREATED_BY_EZDXF
350
2E
  3
WRITTEN_BY_EZDXF
350
C8
  0
DICTIONARYVAR
  5
2E
330
2D
100
DictionaryVariables
280
0
  1
1.4.4 @ 2026-07-24T19:46:35.489245+00:00
  0
DICTIONARYVAR
  5
C8
330
2D
100
DictionaryVariables
280
0
  1
1.4.4 @ 2026-07-24T19:46:35.491741+00:00
  0
ENDSEC
  0
EOF
