  0
SECTION
  2
HEADER
  9
$ACADVER
  1
AC1027
  9
$ACADMAINTVER
 70
105
  9
$DWGCODEPAGE
  3
ANSI_1252
  9
$LASTSAVEDBY
  1
ezdxf
  9
$REQUIREDVERSIONS
160
0
  9
$INSBASE
 10
0.0
 20
0.0
 30
0.0
  9
$EXTMIN
 10
1e+20
 20
1e+20
 30
1e+20
  9
$EXTMAX
 10
-1e+20
 20
-1e+20
 30
-1e+20
  9
$LIMMIN
 10
0.0
 20
0.0
  9
$LIMMAX
 10
420.0
 20
297.0
  9
$ORTHOMODE
 70
0
  9
$REGENMODE
 70
1
  9
$FILLMODE
 70
1
  9
$QTEXTMODE
 70
0
  9
$MIRRTEXT
 70
1
  9
$LTSCALE
 40
1.0
  9
$ATTMODE
 70
1
  9
$TEXTSIZE
 40
2.5
  9
$TRACEWID
 40
1.0
  9
$TEXTSTYLE
  7
Standard
  9
$CLAYER
  8
0
  9
$CELTYPE
  6
ByLayer
  9
$CECOLOR
 62
256
  9
$CELTSCALE
 40
1.0
  9
$DISPSILH
 70
0
  9
$DIMSCALE
 40
1.0
  9
$DIMASZ
 40
2.5
  9
$DIMEXO
 40
0.625
  9
$DIMDLI
 40
3.75
  9
$DIMRND
 40
0.0
  9
$DIMDLE
 40
0.0
  9
$DIMEXE
 40
1.25
  9
$DIMTP
 40
0.0
  9
$DIMTM
 40
0.0
  9
$DIMTXT
 40
2.5
  9
$DIMCEN
 40
2.5
  9
$DIMTSZ
 40
0.0
  9
$DIMTOL
 70
0
  9
$DIMLIM
 70
0
  9
$DIMTIH
 70
0
  9
$DIMTOH
 70
0
  9
$DIMSE1
 70
0
  9
$DIMSE2
 70
0
  9
$DIMTAD
 70
1
  9
$DIMZIN
 70
8
  9
$DIMBLK
  1

  9
$DIMASO
 70
1
  9
$DIMSHO
 70
1
  9
$DIMPOST
  1

  9
$DIMAPOST
  1

  9
$DIMALT
 70
0
  9
$DIMALTD
 70
3
  9
$DIMALTF
 40
0.03937007874
  9
$DIMLFAC
 40
1.0
  9
$DIMTOFL
 70
1
  9
$DIMTVP
 40
0.0
  9
$DIMTIX
 70
0
  9
$DIMSOXD
 70
0
  9
$DIMSAH
 70
0
  9
$DIMBLK1
  1

  9
$DIMBLK2
  1

  9
$DIMSTYLE
  2
ISO-25
  9
$DIMCLRD
 70
0
  9
$DIMCLRE
 70
0
  9
$DIMCLRT
 70
0
  9
$DIMTFAC
 40
1.0
  9
$DIMGAP
 40
0.625
  9
$DIMJUST
 70
0
  9
$DIMSD1
 70
0
  9
$DIMSD2
 70
0
  9
$DIMTOLJ
 70
0
  9
$DIMTZIN
 70
8
  9
$DIMALTZ
 70
0
  9
$DIMALTTZ
 70
0
  9
$DIMUPT
 70
0
  9
$DIMDEC
 70
2
  9
$DIMTDEC
 70
2
  9
$DIMALTU
 70
2
  9
$DIMALTTD
 70
3
  9
$DIMTXSTY
  7
Standard
  9
$DIMAUNIT
 70
0
  9
$DIMADEC
 70
0
  9
$DIMALTRND
 40
0.0
  9
$DIMAZIN
 70
0
  9
$DIMDSEP
 70
44
  9
$DIMATFIT
 70
3
  9
$DIMFRAC
 70
0
  9
$DIMLDRBLK
  1

  9
$DIMLUNIT
 70
2
  9
$DIMLWD
 70
-2
  9
$DIMLWE
 70
-2
  9
$DIMTMOVE
 70
0
  9
$DIMFXL
 40
1.0
  9
$DIMFXLON
 70
0
  9
$DIMJOGANG
 40
0.785398163397
  9
$DIMTFILL
 70
0
  9
$DIMTFILLCLR
 70
0
  9
$DIMARCSYM
 70
0
  9
$DIMLTYPE
  6

  9
$DIMLTEX1
  6

  9
$DIMLTEX2
  6

  9
$DIMTXTDIRECTION
 70
0
  9
$LUNITS
 70
2
  9
$LUPREC
 70
4
  9
$SKETCHINC
 40
1.0
  9
$FILLETRAD
 40
10.0
  9
$AUNITS
 70
0
  9
$AUPREC
 70
2
  9
$MENU
  1
.
  9
$ELEVATION
 40
0.0
  9
$PELEVATION
 40
0.0
  9
$THICKNESS
 40
0.0
  9
$LIMCHECK
 70
0
  9
$CHAMFERA
 40
0.0
  9
$CHAMFERB
 40
0.0
  9
$CHAMFERC
 40
0.0
  9
$CHAMFERD
 40
0.0
  9
$SKPOLY
 70
0
  9
$TDCREATE
 40
2461246.532349537
  9
$TDUCREATE
 40
2458532.153996898
  9
$TDUPDATE
 40
2461246.532349537
  9
$TDUUPDATE
 40
2458532.1544311
  9
$TDINDWG
 40
0.0
  9
$TDUSRTIMER
 40
0.0
  9
$USRTIMER
 70
1
  9
$ANGBASE
 50
0.0
  9
$ANGDIR
 70
0
  9
$PDMODE
 70
0
  9
$PDSIZE
 40
0.0
  9
$PLINEWID
 40
0.0
  9
$SPLFRAME
 70
0
  9
$SPLINETYPE
 70
6
  9
$SPLINESEGS
 70
8
  9
$HANDSEED
  5
C9
  9
$SURFTAB1
 70
6
  9
$SURFTAB2
 70
6
  9
$SURFTYPE
 70
6
  9
$SURFU
 70
6
  9
$SURFV
 70
6
  9
$UCSBASE
  2

  9
$UCSNAME
  2

  9
$UCSORG
 10
0.0
 20
0.0
 30
0.0
  9
$UCSXDIR
 10
1.0
 20
0.0
 30
0.0
  9
$UCSYDIR
 10
0.0
 20
1.0
 30
0.0
  9
$UCSORTHOREF
  2

  9
$UCSORTHOVIEW
 70
0
  9
$UCSORGTOP
 10
0.0
 20
0.0
 30
0.0
  9
$UCSORGBOTTOM
 10
0.0
 20
0.0
 30
0.0
  9
$UCSORGLEFT
 10
0.0
 20
0.0
 30
0.0
  9
$UCSORGRIGHT
 10
0.0
 20
0.0
 30
0.0
  9
$UCSORGFRONT
 10
0.0
 20
0.0
 30
0.0
  9
$UCSORGBACK
 10
0.0
 20
0.0
 30
0.0
  9
$PUCSBASE
  2

  9
$PUCSNAME
  2

  9
$PUCSORG
 10
0.0
 20
0.0
 30
0.0
  9
$PUCSXDIR
 10
1.0
 20
0.0
 30
0.0
  9
$PUCSYDIR
 10
0.0
 20
1.0
 30
0.0
  9
$PUCSORTHOREF
  2

  9
$PUCSORTHOVIEW
 70
0
  9
$PUCSORGTOP
 10
0.0
 20
0.0
 30
0.0
  9
$PUCSORGBOTTOM
 10
0.0
 20
0.0
 30
0.0
  9
$PUCSORGLEFT
 10
0.0
 20
0.0
 30
0.0
  9
$PUCSORGRIGHT
 10
0.0
 20
0.0
 30
0.0
  9
$PUCSORGFRONT
 10
0.0
 20
0.0
 30
0.0
  9
$PUCSORGBACK
 10
0.0
 20
0.0
 30
0.0
  9
$USERI1
 70
0
  9
$USERI2
 70
0
  9
$USERI3
 70
0
  9
$USERI4
 70
0
  9
$USERI5
 70
0
  9
$USERR1
 40
0.0
  9
$USERR2
 40
0.0
  9
$USERR3
 40
0.0
  9
$USERR4
 40
0.0
  9
$USERR5
 40
0.0
  9
$WORLDVIEW
 70
1
  9
$SHADEDGE
 70
3
  9
$SHADEDIF
 70
70
  9
$TILEMODE
 70
1
  9
$MAXACTVP
 70
64
  9
$PINSBASE
 10
0.0
 20
0.0
 30
0.0
  9
$PLIMCHECK
 70
0
  9
$PEXTMIN
 10
1e+20
 20
1e+20
 30
1e+20
  9
$PEXTMAX
 10
-1e+20
 20
-1e+20
 30
-1e+20
  9
$PLIMMIN
 10
0.0
 20
0.0
  9
$PLIMMAX
 10
420.0
 20
297.0
  9
$UNITMODE
 70
0
  9
$VISRETAIN
 70
1
  9
$PLINEGEN
 70
0
  9
$PSLTSCALE
 70
1
  9
$TREEDEPTH
 70
3020
  9
$CMLSTYLE
  2
Standard
  9
$CMLJUST
 70
0
  9
$CMLSCALE
 40
20.0
  9
$PROXYGRAPHICS
 70
1
  9
$MEASUREMENT
 70
1
  9
$CELWEIGHT
370
-1
  9
$ENDCAPS
280
0
  9
$JOINSTYLE
280
0
  9
$LWDISPLAY
290
0
  9
$INSUNITS
 70
4
  9
$HYPERLINKBASE
  1

  9
$STYLESHEET
  1

  9
$XEDIT
290
1
  9
$CEPSNTYPE
380
0
  9
$PSTYLEMODE
290
1
  9
$FINGERPRINTGUID
  2
{D6E639BA-97DB-47A1-B9DC-CBF1C8FA2DD3}
  9
$VERSIONGUID
  2
{49E942B7-D9CA-4021-953F-A8D635CCCC51}
  9
$EXTNAMES
290
1
  9
$PSVPSCALE
 40
0.0
  9
$OLESTARTUP
290
0
  9
$SORTENTS
280
127
  9
$INDEXCTL
280
0
  9
$HIDETEXT
280
1
  9
$XCLIPFRAME
280
1
  9
$HALOGAP
280
0
  9
$OBSCOLOR
 70
257
  9
$OBSLTYPE
280
0
  9
$INTERSECTIONDISPLAY
280
0
  9
$INTERSECTIONCOLOR
 70
257
  9
$DIMASSOC
280
2
  9
$PROJECTNAME
  1

  9
$CAMERADISPLAY
290
0
  9
$LENSLENGTH
 40
50.0
  9
$CAMERAHEIGHT
 40
0.0
  9
$STEPSPERSEC
 40
24.0
  9
$STEPSIZE
 40
100.0
  9
$3DDWFPREC
 40
2.0
  9
$PSOLWIDTH
 40
0.005
  9
$PSOLHEIGHT
 40
0.08
  9
$LOFTANG1
 40
1.570796326795
  9
$LOFTANG2
 40
1.570796326795
  9
$LOFTMAG1
 40
0.0
  9
$LOFTMAG2
 40
0.0
  9
$LOFTPARAM
 70
7
  9
$LOFTNORMALS
280
1
  9
$LATITUDE
 40
37.795
  9
$LONGITUDE
 40
-122.394
  9
$NORTHDIRECTION
 40
0.0
  9
$TIMEZONE
 70
-8000
  9
$LIGHTGLYPHDISPLAY
280
1
  9
$TILEMODELIGHTSYNCH
280
1
  9
$CMATERIAL
347
20
  9
$SOLIDHIST
280
0
  9
$SHOWHIST
280
1
  9
$DWFFRAME
280
2
  9
$DGNFRAME
280
2
  9
$REALWORLDSCALE
290
1
  9
$INTERFERECOLOR
 62
256
  9
$CSHADOW
280
0
  9
$SHADOWPLANELOCATION
 40
0.0
  0
ENDSEC
  0
SECTION
  2
CLASSES
  0
CLASS
  1
ACDBDICTIONARYWDFLT
  2
AcDbDictionaryWithDefault
  3
ObjectDBX Classes
 90
0
 91
0
280
0
281
0
  0
CLASS
  1
SUN
  2
AcDbSun
  3
SCENEOE
 90
1153
 91
0
280
0
281
0
  0
CLASS
  1
VISUALSTYLE
  2
AcDbVisualStyle
  3
ObjectDBX Classes
 90
4095
 91
0
280
0
281
0
  0
CLASS
  1
MATERIAL
  2
AcDbMaterial
  3
ObjectDBX Classes
 90
1153
 91
0
280
0
281
0
  0
CLASS
  1
SCALE
  2
AcDbScale
  3
ObjectDBX Classes
 90
1153
 91
0
280
0
281
0
  0
CLASS
  1
TABLESTYLE
  2
AcDbTableStyle
  3
ObjectDBX Classes
 90
4095
 91
0
280
0
281
0
  0
CLASS
  1
MLEADERSTYLE
  2
AcDbMLeaderStyle
  3
ACDB_MLEADERSTYLE_CLASS
 90
4095
 91
0
280
0
281
0
  0
CLASS
  1
DICTIONARYVAR
  2
AcDbDictionaryVar
  3
ObjectDBX Classes
 90
0
 91
0
280
0
281
0
  0
CLASS
  1
CELLSTYLEMAP
  2
AcDbCellStyleMap
  3
ObjectDBX Classes
 90
1152
 91
0
280
0
281
0
  0
CLASS
  1
MENTALRAYRENDERSETTINGS
  2
AcDbMentalRayRenderSettings
  3
SCENEOE
 90
1024
 91
0
280
0
281
0
  0
CLASS
  1
ACDBDETAILVIEWSTYLE
  2
AcDbDetailViewStyle
  3
ObjectDBX Classes
 90
1025
 91
0
280
0
281
0
  0
CLASS
  1
ACDBSECTIONVIEWSTYLE
  2
AcDbSectionViewStyle
  3
ObjectDBX Classes
 90
1025
 91
0
280
0
281
0
  0
CLASS
  1
RASTERVARIABLES
  2
AcDbRasterVariables
  3
ISM
 90
0
 91
0
280
0
281
0
  0
CLASS
  1
ACDBPLACEHOLDER
  2
AcDbPlaceHolder
  3
ObjectDBX Classes
 90
0
 91
0
280
0
281
0
  0
CLASS
  1
LAYOUT
  2
AcDbLayout
  3
ObjectDBX Classes
 90
0
 91
0
280
0
281
0
  0
ENDSEC
  0
SECTION
  2
TABLES
  0
TABLE
  2
VPORT
  5
8
330
0
100
AcDbSymbolTable
 70
1
  0
VPORT
  5
23
330
8
100
AcDbSymbolTableRecord
100
AcDbViewportTableRecord
  2
*Active
 70
0
 10
0.0
 20
0.0
 11
1.0
 21
1.0
 12
0.0
 22
0.0
 13
0.0
 23
0.0
 14
0.5
 24
0.5
 15
0.5
 25
0.5
 16
0.0
 26
0.0
 36
1.0
 17
0.0
 27
0.0
 37
0.0
 40
1000.0
 41
1.34
 42
50.0
 43
0.0
 44
0.0
 50
0.0
 51
0.0
 71
0
 72
1000
 73
1
 74
3
 75
0
 76
0
 77
0
 78
0
281
0
 65
0
146
0.0
  0
ENDTAB
  0
TABLE
  2
LTYPE
  5
2
330
0
100
AcDbSymbolTable
 70
3
  0
LTYPE
  5
24
330
2
100
AcDbSymbolTableRecord
100
AcDbLinetypeTableRecord
  2
ByBlock
 70
0
  3

 72
65
 73
0
 40
0.0
  0
LTYPE
  5
25
330
2
100
AcDbSymbolTableRecord
100
AcDbLinetypeTableRecord
  2
ByLayer
 70
0
  3

 72
65
 73
0
 40
0.0
  0
LTYPE
  5
26
330
2
100
AcDbSymbolTableRecord
100
AcDbLinetypeTableRecord
  2
Continuous
 70
0
  3

 72
65
 73
0
 40
0.0
  0
ENDTAB
  0
TABLE
  2
LAYER
  5
1
330
0
100
AcDbSymbolTable
 70
7
  0
LAYER
  5
27
330
1
100
AcDbSymbolTableRecord
100
AcDbLayerTableRecord
  2
0
 70
0
 62
7
  6
Continuous
370
-3
390
13
347
21
  0
LAYER
  5
28
330
1
100
AcDbSymbolTableRecord
100
AcDbLayerTableRecord
  2
Defpoints
 70
0
 62
7
  6
Continuous
290
0
370
-3
390
13
347
21
  0
LAYER
  5
2F
330
1
100
AcDbSymbolTableRecord
100
AcDbLayerTableRecord
  2
CUT
 70
0
 62
7
  6
Continuous
370
-3
390
13
347
21
  0
LAYER
  5
30
330
1
100
AcDbSymbolTableRecord
100
AcDbLayerTableRecord
  2
POCKET
 70
0
 62
7
  6
Continuous
370
-3
390
13
347
21
  0
LAYER
  5
31
330
1
100
AcDbSymbolTableRecord
100
AcDbLayerTableRecord
  2
CHAMFER
 70
0
 62
7
  6
Continuous
370
-3
390
13
347
21
  0
LAYER
  5
32
330
1
100
AcDbSymbolTableRecord
100
AcDbLayerTableRecord
  2
COUNTERSINK
 70
0
 62
7
  6
Continuous
370
-3
390
13
347
21
  0
LAYER
  5
33
330
1
100
AcDbSymbolTableRecord
100
AcDbLayerTableRecord
  2
ANNOTATION
 70
0
 62
7
  6
Continuous
370
-3
390
13
347
21
  0
ENDTAB
  0
TABLE
  2
STYLE
  5
5
330
0
100
AcDbSymbolTable
 70
1
  0
STYLE
  5
29
330
5
100
AcDbSymbolTableRecord
100
AcDbTextStyleTableRecord
  2
Standard
 70
0
 40
0.0
 41
1.0
 50
0.0
 71
0
 42
2.5
  3
txt
  4

  0
ENDTAB
  0
TABLE
  2
VIEW
  5
7
330
0
100
AcDbSymbolTable
 70
0
  0
ENDTAB
  0
TABLE
  2
UCS
  5
6
330
0
100
AcDbSymbolTable
 70
0
  0
ENDTAB
  0
TABLE
  2
APPID
  5
3
330
0
100
AcDbSymbolTable
 70
3
  0
APPID
  5
2A
330
3
100
AcDbSymbolTableRecord
100
AcDbRegAppTableRecord
  2
ACAD
 70
0
  0
APPID
  5
C6
330
3
100
AcDbSymbolTableRecord
100
AcDbRegAppTableRecord
  2
HATCHBACKGROUNDCOLOR
 70
0
  0
APPID
  5
C7
330
3
100
AcDbSymbolTableRecord
100
AcDbRegAppTableRecord
  2
EZDXF
 70
0
  0
ENDTAB
  0
TABLE
  2
DIMSTYLE
  5
4
330
0
100
AcDbSymbolTable
 70
1
100
AcDbDimStyleTable
  0
DIMSTYLE
105
2B
330
4
100
AcDbSymbolTableRecord
100
AcDbDimStyleTableRecord
  2
Standard
 70
0
 40
1.0
 41
2.5
 42
0.625
 43
3.75
 44
1.25
 45
0.0
 46
0.0
 47
0.0
 48
0.0
 49
2.5
140
2.5
141
2.5
142
0.0
143
0.03937007874
144
1.0
145
0.0
146
1.0
147
0.625
148
0.0
 69
0
 70
0
 71
0
 72
0
 73
0
 74
0
 75
0
 76
0
 77
1
 78
8
 79
3
170
0
171
3
172
1
173
0
174
0
175
0
176
0
177
0
178
0
179
2
271
2
272
2
273
2
274
3
275
0
276
0
277
2
278
44
279
0
280
0
281
0
282
0
283
0
284
8
285
0
286
0
288
0
289
3
290
0
371
-2
372
-2
  0
ENDTAB
  0
TABLE
  2
BLOCK_RECORD
  5
9
330
0
100
AcDbSymbolTable
 70
2
  0
BLOCK_RECORD
  5
17
330
9
100
AcDbSymbolTableRecord
100
AcDbBlockTableRecord
  2
*Model_Space
340
1A
 70
0
280
1
281
0
  0
BLOCK_RECORD
  5
1B
330
9
100
AcDbSymbolTableRecord
100
AcDbBlockTableRecord
  2
*Paper_Space
340
1E
 70
0
280
1
281
0
  0
ENDTAB
  0
ENDSEC
  0
SECTION
  2
BLOCKS
  0
BLOCK
  5
18
330
17
100
AcDbEntity
  8
0
100
AcDbBlockBegin
  2
*Model_Space
 70
0
 10
0.0
 20
0.0
 30
0.0
  3
*Model_Space
  1

  0
ENDBLK
  5
19
330
17
100
AcDbEntity
  8
0
100
AcDbBlockEnd
  0
BLOCK
  5
1C
330
1B
100
AcDbEntity
  8
0
100
AcDbBlockBegin
  2
*Paper_Space
 70
0
 10
0.0
 20
0.0
 30
0.0
  3
*Paper_Space
  1

  0
ENDBLK
  5
1D
330
1B
100
AcDbEntity
  8
0
100
AcDbBlockEnd
  0
ENDSEC
  0
SECTION
  2
ENTITIES
  0
LINE
  5
34
330
17
100
AcDbEntity
  8
CUT
100
AcDbLine
 10
20.933342809224996
 20
38.0
 30
0.0
 11
20.933342809224996
 21
43.02304059056337
 31
0.0
  0
ARC
  5
35
330
17
100
AcDbEntity
  8
CUT
100
AcDbCircle
 10
22.933342809224996
 20
43.02304059056337
 30
0.0
 40
2.0
100
AcDbArc
 50
117.530870464552
 51
180.0
  0
LINE
  5
36
330
17
100
AcDbEntity
  8
CUT
100
AcDbLine
 10
15.537976576375968
 20
38.0
 30
0.0
 11
15.537976576375968
 21
40.0
 31
0.0
  0
ARC
  5
37
330
17
100
AcDbEntity
  8
CUT
100
AcDbCircle
 10
16.337976576374786
 20
38.0
 30
0.0
 40
0.8
100
AcDbArc
 50
180.0
 51
0.0
  0
ARC
  5
38
330
17
100
AcDbEntity
  8
CUT
100
AcDbCircle
 10
20.13334280922595
 20
38.0
 30
0.0
 40
0.8
100
AcDbArc
 50
180.0
 51
0.0
  0
LINE
  5
39
330
17
100
AcDbEntity
  8
CUT
100
AcDbLine
 10
15.16370803669679
 20
15.226505636892398
 30
0.0
 11
5.074955444295938
 21
36.86190539060772
 31
0.0
  0
LINE
  5
3A
330
17
100
AcDbEntity
  8
CUT
100
AcDbLine
 10
19.333342809226906
 20
38.0
 30
0.0
 11
17.13797657637383
 21
38.0
 31
0.0
  0
LINE
  5
3B
330
17
100
AcDbEntity
  8
CUT
100
AcDbLine
 10
15.037976576375968
 20
40.5
 30
0.0
 11
10.08799346698288
 21
40.5
 31
0.0
  0
ARC
  5
3C
330
17
100
AcDbEntity
  8
CUT
100
AcDbCircle
 10
15.037976576375968
 20
40.0
 30
0.0
 40
0.5
100
AcDbArc
 50
0.0
 51
90.0
  0
LINE
  5
3D
330
17
100
AcDbEntity
  8
CUT
100
AcDbLine
 10
20.224322919260885
 20
33.77728230442972
 30
0.0
 11
26.437315056762827
 21
35.25912014139169
 31
0.0
  0
ARC
  5
3E
330
17
100
AcDbEntity
  8
CUT
100
AcDbCircle
 10
26.66931397248095
 20
34.28640409695447
 30
0.0
 40
1.0
100
AcDbArc
 50
349.8514027408053
 51
103.4147848889201
  0
LINE
  5
3F
330
17
100
AcDbEntity
  8
CUT
100
AcDbLine
 10
26.029567253277946
 20
25.037133027699497
 30
0.0
 11
27.653668055408843
 21
34.110202395988495
 31
0.0
  0
LINE
  5
40
330
17
100
AcDbEntity
  8
CUT
100
AcDbLine
 10
19.992324003541853
 20
33.74999834886694
 30
0.0
 11
11.738796939061785
 21
33.74999834886694
 31
0.0
  0
ARC
  5
41
330
17
100
AcDbEntity
  8
CUT
100
AcDbCircle
 10
19.992324003541853
 20
34.74999834886694
 30
0.0
 40
1.0
100
AcDbArc
 50
270.0
 51
283.4147848889201
  0
LINE
  5
42
330
17
100
AcDbEntity
  8
CUT
100
AcDbLine
 10
28.137558090623997
 20
45.737788278993776
 30
0.0
 11
32.01281792107193
 21
47.75777537525323
 31
0.0
  0
ARC
  5
43
330
17
100
AcDbEntity
  8
CUT
100
AcDbCircle
 10
28.830897780420855
 20
44.4076454014978
 30
0.0
 40
1.499999999999999
100
AcDbArc
 50
117.530870464666
 51
297.5308704646661
  0
LINE
  5
44
330
17
100
AcDbEntity
  8
CUT
100
AcDbLine
 10
22.008889889496004
 20
44.79656442722444
 30
0.0
 11
57.354792024437984
 21
63.22068805818958
 31
0.0
  0
LINE
  5
45
330
17
100
AcDbEntity
  8
CUT
100
AcDbLine
 10
29.524237470220896
 20
43.077502524001375
 30
0.0
 11
33.39949730066496
 21
45.09748962026174
 31
0.0
  0
LINE
  5
46
330
17
100
AcDbEntity
  8
CUT
100
AcDbLine
 10
9.587993466978787
 20
38.0
 30
0.0
 11
9.58799346698288
 21
40.0
 31
0.0
  0
ARC
  5
47
330
17
100
AcDbEntity
  8
CUT
100
AcDbCircle
 10
10.08799346698288
 20
40.0
 30
0.0
 40
0.5
100
AcDbArc
 50
90.0
 51
179.9999999999479
  0
ARC
  5
48
330
17
100
AcDbEntity
  8
CUT
100
AcDbCircle
 10
8.78799346697997
 20
38.0
 30
0.0
 40
0.8
100
AcDbArc
 50
180.0
 51
0.0
  0
LINE
  5
49
330
17
100
AcDbEntity
  8
CUT
100
AcDbLine
 10
7.9879934669809245
 20
38.0
 30
0.0
 11
5.800001673923816
 21
38.0
 31
0.0
  0
LINE
  5
4A
330
17
100
AcDbEntity
  8
CUT
100
AcDbLine
 10
11.849575115236803
 20
30.14623220026806
 30
0.0
 11
10.832489152023982
 21
32.3273800871267
 31
0.0
  0
ARC
  5
4B
330
17
100
AcDbEntity
  8
CUT
100
AcDbCircle
 10
12.755882902274834
 20
30.568850462010232
 30
0.0
 40
1.0
100
AcDbArc
 50
204.9999999999898
 51
246.4531110954882
  0
ARC
  5
4C
330
17
100
AcDbEntity
  8
CUT
100
AcDbCircle
 10
11.738796939061785
 20
32.74999834886694
 30
0.0
 40
1.0
100
AcDbArc
 50
90.0
 51
204.9999999999898
  0
LINE
  5
4D
330
17
100
AcDbEntity
  8
CUT
100
AcDbLine
 10
12.356383476387919
 20
29.652117017263663
 30
0.0
 11
24.64571374446291
 21
24.29660128391697
 31
0.0
  0
LINE
  5
4E
330
17
100
AcDbEntity
  8
CUT
100
AcDbLine
 10
19.025730333301908
 20
5.5
 30
0.0
 11
19.025730333301908
 21
8.0
 31
0.0
  0
ARC
  5
4F
330
17
100
AcDbEntity
  8
CUT
100
AcDbCircle
 10
18.225730333302863
 20
8.0
 30
0.0
 40
0.8
100
AcDbArc
 50
0.0
 51
180.0
  0
ARC
  5
50
330
17
100
AcDbEntity
  8
CUT
100
AcDbCircle
 10
14.257400249658986
 20
14.803887375152044
 30
0.0
 40
1.0
100
AcDbArc
 50
312.4674712321789
 51
24.9999999999898
  0
LINE
  5
51
330
17
100
AcDbEntity
  8
CUT
100
AcDbLine
 10
17.42573033330291
 20
8.0
 30
0.0
 11
10.304090096483833
 21
8.0
 31
0.0
  0
ARC
  5
52
330
17
100
AcDbEntity
  8
CUT
100
AcDbCircle
 10
10.304090096483833
 20
8.799999999999272
 30
0.0
 40
0.8
100
AcDbArc
 50
150.7379344127248
 51
270.0
  0
ARC
  5
53
330
17
100
AcDbEntity
  8
CUT
100
AcDbCircle
 10
5.800001673923816
 20
37.19999999999982
 30
0.0
 40
0.8
100
AcDbArc
 50
90.0
 51
204.9999999999104
  0
LINE
  5
54
330
17
100
AcDbEntity
  8
CUT
100
AcDbLine
 10
16.34732985527785
 20
24.640430344937272
 30
0.0
 11
21.804162916617997
 21
22.262419934542777
 31
0.0
  0
ARC
  5
55
330
17
100
AcDbEntity
  8
CUT
100
AcDbCircle
 10
21.40466349073199
 20
21.345686489796208
 30
0.0
 40
1.0
100
AcDbArc
 50
312.4674712321789
 51
66.45311109548818
  0
LINE
  5
56
330
17
100
AcDbEntity
  8
CUT
100
AcDbLine
 10
17.451024657937978
 20
18.133884891058187
 30
0.0
 11
15.041522642353812
 21
23.30107863844944
 31
0.0
  0
ARC
  5
57
330
17
100
AcDbEntity
  8
CUT
100
AcDbCircle
 10
18.35733244497601
 20
18.556503152800474
 30
0.0
 40
1.0
100
AcDbArc
 50
204.9999999999898
 51
312.4674712321789
  0
ARC
  5
58
330
17
100
AcDbEntity
  8
CUT
100
AcDbCircle
 10
15.947830429391843
 20
23.723696900189793
 30
0.0
 40
1.0
100
AcDbArc
 50
66.45311109548818
 51
204.9999999999898
  0
LINE
  5
59
330
17
100
AcDbEntity
  8
CUT
100
AcDbLine
 10
19.03857025155594
 20
11.40184806407899
 30
0.0
 11
41.92813681255598
 21
11.40184806407899
 31
0.0
  0
LINE
  5
5A
330
17
100
AcDbEntity
  8
CUT
100
AcDbLine
 10
9.606175623040826
 20
9.191043971643921
 30
0.0
 11
14.93257177093301
 21
14.066226601586095
 31
0.0
  0
LINE
  5
5B
330
17
100
AcDbEntity
  8
CUT
100
AcDbLine
 10
19.032503966249806
 20
17.8188423792335
 30
0.0
 11
22.079835012005788
 21
20.608025716229804
 31
0.0
  0
LINE
  5
5C
330
17
100
AcDbEntity
  8
CUT
100
AcDbLine
 10
18.363398730281915
 20
13.139508837646645
 30
0.0
 11
25.746380732103944
 21
19.89705833510527
 31
0.0
  0
ARC
  5
5D
330
17
100
AcDbEntity
  8
CUT
100
AcDbCircle
 10
19.03857025155594
 20
12.40184806407899
 30
0.0
 40
1.0
100
AcDbArc
 50
132.4674712321789
 51
270.0
  0
LINE
  5
5E
330
17
100
AcDbEntity
  8
CUT
100
AcDbLine
 10
30.02097304839799
 20
30.309253478081928
 30
0.0
 11
30.550695982652996
 21
33.26856051257073
 31
0.0
  0
ARC
  5
5F
330
17
100
AcDbEntity
  8
CUT
100
AcDbCircle
 10
31.005327131325885
 20
30.133051777117203
 30
0.0
 40
1.0
100
AcDbArc
 50
169.8514027408144
 51
312.4674712321863
  0
ARC
  5
60
330
17
100
AcDbEntity
  8
CUT
100
AcDbCircle
 10
31.53505006557998
 20
33.092358811606005
 30
0.0
 40
1.0
100
AcDbArc
 50
55.98843262387179
 51
169.8514027408144
  0
LINE
  5
61
330
17
100
AcDbEntity
  8
CUT
100
AcDbLine
 10
31.514056804918937
 20
38.65039368181829
 30
0.0
 11
31.97421690343981
 21
41.22108663935967
 31
0.0
  0
ARC
  5
62
330
17
100
AcDbEntity
  8
CUT
100
AcDbCircle
 10
32.95857098636793
 20
41.04488493839415
 30
0.0
 40
1.0
100
AcDbArc
 50
117.530870464552
 51
169.8514027407871
  0
ARC
  5
63
330
17
100
AcDbEntity
  8
CUT
100
AcDbCircle
 10
32.49841088784683
 20
38.47419198085311
 30
0.0
 40
1.0
100
AcDbArc
 50
169.8514027407988
 51
235.9884326238718
  0
LINE
  5
64
330
17
100
AcDbEntity
  8
CUT
100
AcDbLine
 10
31.680498652600818
 20
29.395391003550003
 30
0.0
 11
33.76639704451395
 21
31.30458726415941
 31
0.0
  0
ARC
  5
65
330
17
100
AcDbEntity
  8
CUT
100
AcDbCircle
 10
33.09122552323993
 20
32.042248037726495
 30
0.0
 40
1.0
100
AcDbArc
 50
312.4674712321863
 51
55.98843262387179
  0
LINE
  5
66
330
17
100
AcDbEntity
  8
CUT
100
AcDbLine
 10
29.78328160744786
 20
23.591982347481007
 30
0.0
 11
36.6788222715918
 21
29.903382989957663
 31
0.0
  0
LINE
  5
67
330
17
100
AcDbEntity
  8
CUT
100
AcDbLine
 10
36.325306432490834
 20
34.6854118226247
 30
0.0
 11
31.93905062237195
 21
37.6452673199766
 31
0.0
  0
LINE
  5
68
330
17
100
AcDbEntity
  8
CUT
100
AcDbLine
 10
33.65058578871481
 20
32.87117269860289
 30
0.0
 11
32.09441033105395
 21
33.92128347248263
 31
0.0
  0
LINE
  5
69
330
17
100
AcDbEntity
  8
CUT
100
AcDbLine
 10
32.49634452650389
 20
41.93164685672457
 30
0.0
 11
37.8071715682579
 21
44.699926291958604
 31
0.0
  0
ARC
  5
6A
330
17
100
AcDbEntity
  8
CUT
100
AcDbCircle
 10
25.045213170349825
 20
25.21333472866354
 30
0.0
 40
1.0
100
AcDbArc
 50
246.4531110954882
 51
349.8514027408053
  0
LINE
  5
6B
330
17
100
AcDbEntity
  8
CUT
100
AcDbLine
 10
30.05895370283588
 20
21.93758812916724
 30
0.0
 11
45.84247296127796
 21
15.059354419738156
 31
0.0
  0
ARC
  5
6C
330
17
100
AcDbEntity
  8
CUT
100
AcDbCircle
 10
30.458453128721885
 20
22.854321573913694
 30
0.0
 40
1.0
100
AcDbArc
 50
132.4674712322123
 51
246.4531110954882
  0
LINE
  5
6D
330
17
100
AcDbEntity
  8
CUT
100
AcDbLine
 10
26.821051679263974
 20
20.076131006285323
 30
0.0
 11
42.32763623844198
 21
13.318581508825446
 31
0.0
  0
ARC
  5
6E
330
17
100
AcDbEntity
  8
CUT
100
AcDbCircle
 10
26.421552253377968
 20
19.159397561538754
 30
0.0
 40
1.0
100
AcDbArc
 50
66.45311109548818
 51
132.4674712321789
  0
LINE
  5
6F
330
17
100
AcDbEntity
  8
CUT
100
AcDbLine
 10
37.559838219239964
 20
34.776675709933784
 30
0.0
 11
42.16512795017479
 21
38.99183881059321
 31
0.0
  0
ARC
  5
70
330
17
100
AcDbEntity
  8
CUT
100
AcDbCircle
 10
32.70615761087379
 20
46.427632497757486
 30
0.0
 40
1.499999999999999
100
AcDbArc
 50
297.5308704646661
 51
117.530870464666
  0
LINE
  5
71
330
17
100
AcDbEntity
  8
POCKET
100
AcDbLine
 10
50.06369537124692
 20
26.068877870462074
 30
0.0
 11
39.92463817581984
 21
47.822027317601396
 31
0.0
  0
ARC
  5
72
330
17
100
AcDbEntity
  8
POCKET
100
AcDbCircle
 10
40.83101940932784
 20
48.24448803712767
 30
0.0
 40
1.0
100
AcDbArc
 50
114.9900407584049
 51
204.9900407584292
  0
ARC
  5
73
330
17
100
AcDbEntity
  8
CUT
100
AcDbCircle
 10
38.26939802812194
 20
43.81316437362807
 30
0.0
 40
1.0
100
AcDbArc
 50
54.54587408318329
 51
117.530870464552
  0
LINE
  5
74
330
17
100
AcDbEntity
  8
CUT
100
AcDbLine
 10
40.820978751844905
 20
43.22384632939861
 30
0.0
 11
38.84944897309697
 21
44.627744573016116
 31
0.0
  0
LINE
  5
75
330
17
100
AcDbEntity
  8
CUT
100
AcDbLine
 10
74.41730111467086
 20
31.57139424661989
 30
0.0
 11
60.0918605182419
 21
62.292400745009786
 31
0.0
  0
LINE
  5
76
330
17
100
AcDbEntity
  8
POCKET
100
AcDbLine
 10
66.59853260786281
 20
36.5077895035663
 30
0.0
 11
58.64349162246799
 21
53.5674299496867
 31
0.0
  0
LINE
  5
77
330
17
100
AcDbEntity
  8
CUT
100
AcDbLine
 10
62.18488505552682
 20
38.87428247478522
 30
0.0
 11
57.522010739339976
 21
48.87384871531526
 31
0.0
  0
LINE
  5
78
330
17
100
AcDbEntity
  8
POCKET
100
AcDbLine
 10
65.59214745762392
 20
41.03219100610818
 30
0.0
 11
61.3652106335378
 21
50.09688627791911
 31
0.0
  0
ARC
  5
79
330
17
100
AcDbEntity
  8
CUT
100
AcDbCircle
 10
61.278577268490835
 20
38.451664213045206
 30
0.0
 40
1.0
100
AcDbArc
 50
332.0759213434626
 51
25.00000000001825
  0
ARC
  5
7A
330
17
100
AcDbEntity
  8
CUT
100
AcDbCircle
 10
56.61570295230399
 20
48.45123045357468
 30
0.0
 40
1.0
100
AcDbArc
 50
25.00000000000949
 51
77.9240786565495
  0
LINE
  5
7B
330
17
100
AcDbEntity
  8
POCKET
100
AcDbLine
 10
59.6108706730588
 20
56.225282047241194
 30
0.0
 11
62.3297940341688
 21
57.49313683246396
 31
0.0
  0
ARC
  5
7C
330
17
100
AcDbEntity
  8
POCKET
100
AcDbCircle
 10
60.45610719653996
 20
54.412666473167405
 30
0.0
 40
2.0
100
AcDbArc
 50
115.0000000000932
 51
205.0000000000045
  0
CIRCLE
  5
7D
330
17
100
AcDbEntity
  8
CUT
100
AcDbCircle
 10
57.88081329452484
 20
60.43696211046313
 30
0.0
 40
1.5
  0
ARC
  5
7E
330
17
100
AcDbEntity
  8
CUT
100
AcDbCircle
 10
41.489956428900996
 20
39.72949958416018
 30
0.0
 40
1.0
100
AcDbArc
 50
312.4674712321863
 51
24.99004075844971
  0
ARC
  5
7F
330
17
100
AcDbEntity
  8
CUT
100
AcDbCircle
 10
58.279244944167885
 20
61.447164221528396
 30
0.0
 40
2.0
100
AcDbArc
 50
25.00000000001825
 51
117.530870464552
  0
LINE
  5
80
330
17
100
AcDbEntity
  8
CUT
100
AcDbLine
 10
51.03153639921197
 20
28.726561776532662
 30
0.0
 11
42.58232208189088
 21
46.85418628963703
 31
0.0
  0
LINE
  5
81
330
17
100
AcDbEntity
  8
CUT
100
AcDbLine
 10
48.923266642400904
 20
50.912964059419096
 30
0.0
 11
43.066242595872836
 21
48.183028242672435
 31
0.0
  0
LINE
  5
82
330
17
100
AcDbEntity
  8
POCKET
100
AcDbLine
 10
48.686047561953956
 20
53.008974199914064
 30
0.0
 11
40.408558689801794
 21
49.15086927063612
 31
0.0
  0
ARC
  5
83
330
17
100
AcDbEntity
  8
POCKET
100
AcDbCircle
 10
49.10850828148091
 20
52.10259296640584
 30
0.0
 40
1.0
100
AcDbArc
 50
77.9240786565495
 51
114.9900407584049
  0
ARC
  5
84
330
17
100
AcDbEntity
  8
CUT
100
AcDbCircle
 10
43.48870331539888
 20
47.276647009163526
 30
0.0
 40
1.0
100
AcDbArc
 50
114.9900407584049
 51
204.9900407584292
  0
ARC
  5
85
330
17
100
AcDbEntity
  8
CUT
100
AcDbCircle
 10
40.24092780686988
 20
42.409266130009996
 30
0.0
 40
1.0
100
AcDbArc
 50
24.99004075844537
 51
54.54587408318329
  0
LINE
  5
86
330
17
100
AcDbEntity
  8
CUT
100
AcDbLine
 10
56.8249105815089
 20
49.42910169657307
 30
0.0
 11
49.554934991132995
 21
50.984454068909145
 31
0.0
  0
LINE
  5
87
330
17
100
AcDbEntity
  8
POCKET
100
AcDbLine
 10
60.66811047570582
 20
50.65213925917692
 30
0.0
 11
49.31771591068491
 21
53.08046420940434
 31
0.0
  0
ARC
  5
88
330
17
100
AcDbEntity
  8
POCKET
100
AcDbCircle
 10
60.458902846501815
 20
49.67426801617876
 30
0.0
 40
1.0
100
AcDbArc
 50
25.00000000001825
 51
77.9240786565495
  0
ARC
  5
89
330
17
100
AcDbEntity
  8
CUT
100
AcDbCircle
 10
49.34572736192786
 20
50.00658282591087
 30
0.0
 40
1.0
100
AcDbArc
 50
77.9240786565495
 51
114.9900407584049
  0
LINE
  5
8A
330
17
100
AcDbEntity
  8
CUT
100
AcDbLine
 10
62.16214617218088
 20
37.98336303598785
 30
0.0
 11
58.678549917187866
 21
31.410675469281955
 31
0.0
  0
LINE
  5
8B
330
17
100
AcDbEntity
  8
POCKET
100
AcDbLine
 10
65.56940857427799
 20
40.14127156731047
 30
0.0
 11
60.13152424399186
 21
29.8813240559939
 31
0.0
  0
LINE
  5
8C
330
17
100
AcDbEntity
  8
CUT
100
AcDbLine
 10
42.396337662408996
 20
40.15196030368645
 30
0.0
 11
41.14730904037788
 21
42.83172684953661
 31
0.0
  0
LINE
  5
8D
330
17
100
AcDbEntity
  8
CUT
100
AcDbLine
 10
40.472263446313946
 20
33.3754714357334
 30
0.0
 11
43.029321876881795
 21
35.7159144854636
 31
0.0
  0
LINE
  5
8E
330
17
100
AcDbEntity
  8
CUT
100
AcDbLine
 10
24.475713442697952
 20
5.000000000000114
 30
0.0
 11
19.525730333301908
 21
5.000000000000114
 31
0.0
  0
ARC
  5
8F
330
17
100
AcDbEntity
  8
CUT
100
AcDbCircle
 10
24.475713442697952
 20
5.5
 30
0.0
 40
0.5
100
AcDbArc
 50
270.0
 51
0.0
  0
LINE
  5
90
330
17
100
AcDbEntity
  8
CUT
100
AcDbLine
 10
24.975713442697952
 20
5.5
 30
0.0
 11
24.975713442697952
 21
8.0
 31
0.0
  0
ARC
  5
91
330
17
100
AcDbEntity
  8
CUT
100
AcDbCircle
 10
19.525730333301908
 20
5.5
 30
0.0
 40
0.5
100
AcDbArc
 50
180.0
 51
270.0
  0
ARC
  5
92
330
17
100
AcDbEntity
  8
CUT
100
AcDbCircle
 10
25.775713442697906
 20
8.0
 30
0.0
 40
0.8
100
AcDbArc
 50
0.0
 51
180.0
  0
LINE
  5
93
330
17
100
AcDbEntity
  8
CUT
100
AcDbLine
 10
31.009771080676956
 20
8.0
 30
0.0
 11
26.57571344269695
 21
8.0
 31
0.0
  0
LINE
  5
94
330
17
100
AcDbEntity
  8
CUT
100
AcDbLine
 10
38.059754190072
 20
5.000000000000114
 30
0.0
 11
33.10977108067482
 21
5.000000000000114
 31
0.0
  0
ARC
  5
95
330
17
100
AcDbEntity
  8
CUT
100
AcDbCircle
 10
38.059754190072
 20
5.5
 30
0.0
 40
0.5
100
AcDbArc
 50
270.0
 51
0.0
  0
LINE
  5
96
330
17
100
AcDbEntity
  8
CUT
100
AcDbLine
 10
44.1947931922989
 20
5.5
 30
0.0
 11
44.1947931922989
 21
8.0
 31
0.0
  0
ARC
  5
97
330
17
100
AcDbEntity
  8
CUT
100
AcDbCircle
 10
44.6947931922989
 20
5.5
 30
0.0
 40
0.5
100
AcDbArc
 50
180.0
 51
270.0
  0
LINE
  5
98
330
17
100
AcDbEntity
  8
CUT
100
AcDbLine
 10
47.82705551831896
 20
5.000000000000114
 30
0.0
 11
44.6947931922989
 21
5.000000000000114
 31
0.0
  0
ARC
  5
99
330
17
100
AcDbEntity
  8
CUT
100
AcDbCircle
 10
47.82705551831896
 20
7.0
 30
0.0
 40
2.0
100
AcDbArc
 50
270.0
 51
313.7581281119095
  0
LINE
  5
9A
330
17
100
AcDbEntity
  8
CUT
100
AcDbLine
 10
38.559754190072
 20
5.5
 30
0.0
 11
38.559754190072
 21
8.0
 31
0.0
  0
LINE
  5
9B
330
17
100
AcDbEntity
  8
CUT
100
AcDbLine
 10
32.60977108067482
 20
5.5
 30
0.0
 11
32.60977108067482
 21
8.0
 31
0.0
  0
ARC
  5
9C
330
17
100
AcDbEntity
  8
CUT
100
AcDbCircle
 10
33.10977108067482
 20
5.5
 30
0.0
 40
0.5
100
AcDbArc
 50
180.0
 51
270.0
  0
ARC
  5
9D
330
17
100
AcDbEntity
  8
CUT
100
AcDbCircle
 10
31.809771080676
 20
8.0
 30
0.0
 40
0.8
100
AcDbArc
 50
0.0
 51
180.0
  0
ARC
  5
9E
330
17
100
AcDbEntity
  8
CUT
100
AcDbCircle
 10
39.35975419007082
 20
8.0
 30
0.0
 40
0.8
100
AcDbArc
 50
0.0
 51
180.0
  0
ARC
  5
9F
330
17
100
AcDbEntity
  8
CUT
100
AcDbCircle
 10
43.39479319229986
 20
8.0
 30
0.0
 40
0.8
100
AcDbArc
 50
0.0
 51
180.0
  0
LINE
  5
A0
330
17
100
AcDbEntity
  8
CUT
100
AcDbLine
 10
42.5947931922999
 20
8.0
 30
0.0
 11
40.15975419006986
 21
8.0
 31
0.0
  0
ARC
  5
A1
330
17
100
AcDbEntity
  8
CUT
100
AcDbCircle
 10
46.641471813050885
 20
16.892821309230726
 30
0.0
 40
2.0
100
AcDbArc
 50
246.4531110954882
 51
313.7581281119095
  0
ARC
  5
A2
330
17
100
AcDbEntity
  8
CUT
100
AcDbCircle
 10
41.92813681255598
 20
12.40184806407899
 30
0.0
 40
1.0
100
AcDbArc
 50
270.0
 51
66.45311109548818
  0
ARC
  5
A3
330
17
100
AcDbEntity
  8
CUT
100
AcDbCircle
 10
49.165101922440954
 20
11.57537278220309
 30
0.0
 40
1.499999999999999
100
AcDbArc
 50
133.7581281119027
 51
313.7581281121974
  0
LINE
  5
A4
330
17
100
AcDbEntity
  8
CUT
100
AcDbLine
 10
50.540935253302905
 20
14.969618369235832
 30
0.0
 11
48.127678634867834
 21
12.658771564925814
 31
0.0
  0
LINE
  5
A5
330
17
100
AcDbEntity
  8
CUT
100
AcDbLine
 10
73.98791659069184
 20
29.281626012842253
 30
0.0
 11
49.21028656841395
 21
5.555468289703299
 31
0.0
  0
LINE
  5
A6
330
17
100
AcDbEntity
  8
CUT
100
AcDbLine
 10
51.86039396011279
 20
19.121207947544804
 30
0.0
 11
48.024702863145876
 21
15.448289598933911
 31
0.0
  0
ARC
  5
A7
330
17
100
AcDbEntity
  8
CUT
100
AcDbCircle
 10
36.88466669796594
 20
35.5143364835011
 30
0.0
 40
1.0
100
AcDbArc
 50
235.9884326238718
 51
312.4674712321863
  0
ARC
  5
A8
330
17
100
AcDbEntity
  8
CUT
100
AcDbCircle
 10
37.35399379286582
 20
29.16572221639069
 30
0.0
 40
1.0
100
AcDbArc
 50
55.98843262387179
 51
132.4674712322123
  0
LINE
  5
A9
330
17
100
AcDbEntity
  8
CUT
100
AcDbLine
 10
51.72813870053892
 20
20.672398463569607
 30
0.0
 11
37.91335405833888
 21
29.994646877267314
 31
0.0
  0
ARC
  5
AA
330
17
100
AcDbEntity
  8
CUT
100
AcDbCircle
 10
41.14743496758797
 20
32.6378106621662
 30
0.0
 40
1.0
100
AcDbArc
 50
132.4674712322077
 51
235.9884326238718
  0
LINE
  5
AB
330
17
100
AcDbEntity
  8
CUT
100
AcDbLine
 10
45.90981133383298
 20
28.217765896413198
 30
0.0
 11
40.58807470211491
 21
31.80888600128992
 31
0.0
  0
ARC
  5
AC
330
17
100
AcDbEntity
  8
CUT
100
AcDbCircle
 10
43.70449339815582
 20
34.978253711896514
 30
0.0
 40
1.0
100
AcDbArc
 50
24.99004075844537
 51
132.4674712321863
  0
LINE
  5
AD
330
17
100
AcDbEntity
  8
CUT
100
AcDbLine
 10
47.37555283281495
 20
29.469151276815637
 30
0.0
 11
44.61087463166382
 21
35.40071443142301
 31
0.0
  0
ARC
  5
AE
330
17
100
AcDbEntity
  8
CUT
100
AcDbCircle
 10
51.5783585408758
 20
13.88621958651322
 30
0.0
 40
1.499999999999999
100
AcDbArc
 50
313.7581281119027
 51
133.7581281121974
  0
LINE
  5
AF
330
17
100
AcDbEntity
  8
CUT
100
AcDbLine
 10
52.615781828444824
 20
12.802820803788677
 30
0.0
 11
50.20252521000998
 21
10.491973999478432
 31
0.0
  0
ARC
  5
B0
330
17
100
AcDbEntity
  8
CUT
100
AcDbCircle
 10
46.46917159930695
 20
29.046690557289594
 30
0.0
 40
1.0
100
AcDbArc
 50
235.9884326238718
 51
24.99004075842922
  0
ARC
  5
B1
330
17
100
AcDbEntity
  8
CUT
100
AcDbCircle
 10
51.16877843506495
 20
19.843473802693097
 30
0.0
 40
1.0
100
AcDbArc
 50
313.7581281119095
 51
55.98843262387179
  0
ARC
  5
B2
330
17
100
AcDbEntity
  8
POCKET
100
AcDbCircle
 10
50.97007660475492
 20
26.491338589988118
 30
0.0
 40
1.0
100
AcDbArc
 50
204.9900407584292
 51
294.9900407584049
  0
ARC
  5
B3
330
17
100
AcDbEntity
  8
CUT
100
AcDbCircle
 10
51.93791763271997
 20
29.14902249605882
 30
0.0
 40
1.0
100
AcDbArc
 50
204.9900407584292
 51
294.9900407584049
  0
LINE
  5
B4
330
17
100
AcDbEntity
  8
CUT
100
AcDbLine
 10
58.217441733025
 20
30.97259541283063
 30
0.0
 11
52.360378352246926
 21
28.24264126254957
 31
0.0
  0
LINE
  5
B5
330
17
100
AcDbEntity
  8
POCKET
100
AcDbLine
 10
59.670416059828995
 20
29.44324399954246
 30
0.0
 11
51.392537324281875
 21
25.584957356479094
 31
0.0
  0
LINE
  5
B6
330
17
100
AcDbEntity
  8
CUT
100
AcDbLine
 10
61.34940569892888
 20
27.316626620642523
 30
0.0
 11
57.20407670066788
 21
23.34721027458147
 31
0.0
  0
ARC
  5
B7
330
17
100
AcDbEntity
  8
CUT
100
AcDbCircle
 10
56.51246117561982
 20
24.069476129729537
 30
0.0
 40
1.0
100
AcDbArc
 50
204.9900407584454
 51
313.7581281119095
  0
LINE
  5
B8
330
17
100
AcDbEntity
  8
CUT
100
AcDbLine
 10
55.60607994211182
 20
23.647015410202812
 30
0.0
 11
54.825978420194815
 21
25.320708009340592
 31
0.0
  0
ARC
  5
B9
330
17
100
AcDbEntity
  8
CUT
100
AcDbCircle
 10
55.732359653702815
 20
25.743168728867204
 30
0.0
 40
1.0
100
AcDbArc
 50
114.9900407584049
 51
204.9900407584497
  0
LINE
  5
BA
330
17
100
AcDbEntity
  8
CUT
100
AcDbLine
 10
60.235329454355906
 20
28.945273709300068
 30
0.0
 11
55.30989893417586
 21
26.649549962376796
 31
0.0
  0
ARC
  5
BB
330
17
100
AcDbEntity
  8
CUT
100
AcDbCircle
 10
72.60468554059685
 20
30.726157723138613
 30
0.0
 40
2.0
100
AcDbArc
 50
313.7581281119095
 51
25.00000000001825
  0
ARC
  5
BC
330
17
100
AcDbEntity
  8
POCKET
100
AcDbCircle
 10
68.41114818193887
 20
37.35302602704792
 30
0.0
 40
2.0
100
AcDbArc
 50
205.0000000000045
 51
295.0000000000932
  0
LINE
  5
BD
330
17
100
AcDbEntity
  8
POCKET
100
AcDbLine
 10
69.2563847054189
 20
35.54041045297413
 30
0.0
 11
71.9753080665289
 21
36.8082652381961
 31
0.0
  0
ARC
  5
BE
330
17
100
AcDbEntity
  8
CUT
100
AcDbCircle
 10
60.65779017388195
 20
28.038892475791044
 30
0.0
 40
1.0
100
AcDbArc
 50
313.7581281119095
 51
114.9900407584049
  0
ARC
  5
BF
330
17
100
AcDbEntity
  8
CUT
100
AcDbCircle
 10
68.2091935705248
 20
29.198088713207426
 30
0.0
 40
1.499999999999999
100
AcDbArc
 50
133.7581281119027
 51
313.7581281121974
  0
ARC
  5
C0
330
17
100
AcDbEntity
  8
CUT
100
AcDbCircle
 10
70.62245018895896
 20
31.50893551751767
 30
0.0
 40
1.499999999999999
100
AcDbArc
 50
313.7581281119027
 51
133.7581281121974
  0
LINE
  5
C1
330
17
100
AcDbEntity
  8
CUT
100
AcDbLine
 10
69.58502690138585
 20
32.592334300240395
 30
0.0
 11
67.17177028295191
 21
30.28148749593015
 31
0.0
  0
LINE
  5
C2
330
17
100
AcDbEntity
  8
CUT
100
AcDbLine
 10
71.6598734765289
 20
30.425536734793013
 30
0.0
 11
69.24661685809383
 21
28.114689930482882
 31
0.0
  0
ARC
  5
C3
330
17
100
AcDbEntity
  8
POCKET
100
AcDbCircle
 10
59.24795534030295
 20
30.349625233051484
 30
0.0
 40
1.0
100
AcDbArc
 50
294.9900407584049
 51
332.0759213434626
  0
ARC
  5
C4
330
17
100
AcDbEntity
  8
CUT
100
AcDbCircle
 10
57.79498101349782
 20
31.878976646339538
 30
0.0
 40
1.0
100
AcDbArc
 50
294.9900407584049
 51
332.0759213434626
  0
ARC
  5
C5
330
17
100
AcDbEntity
  8
POCKET
100
AcDbCircle
 10
64.68583967058885
 20
40.60957274436805
 30
0.0
 40
1.0
100
AcDbArc
 50
332.0759213434626
 51
25.00000000001825
  0
ENDSEC
  0
SECTION
  2
OBJECTS
  0
DICTIONARY
  5
A
330
0
100
AcDbDictionary
281
1
  3
ACAD_COLOR
350
B
  3
ACAD_GROUP
350
C
  3
ACAD_LAYOUT
350
D
  3
ACAD_MATERIAL
350
E
  3
ACAD_MLEADERSTYLE
350
F
  3
ACAD_MLINESTYLE
350
10
  3
ACAD_PLOTSETTINGS
350
11
  3
ACAD_PLOTSTYLENAME
350
12
  3
ACAD_SCALELIST
350
14
  3
ACAD_TABLESTYLE
350
15
  3
ACAD_VISUALSTYLE
350
16
  3
EZDXF_META
350
2D
  0
DICTIONARY
  5
B
330
A
100
AcDbDictionary
281
1
  0
DICTIONARY
  5
C
330
A
100
AcDbDictionary
281
1
  0
DICTIONARY
  5
D
330
A
100
AcDbDictionary
281
1
  3
Model
350
1A
  3
Layout1
350
1E
  0
DICTIONARY
  5
E
330
A
100
AcDbDictionary
281
1
  3
ByBlock
350
1F
  3
ByLayer
350
20
  3
Global
350
21
  0
DICTIONARY
  5
F
330
A
100
AcDbDictionary
281
1
  3
Standard
350
2C
  0
DICTIONARY
  5
10
330
A
100
AcDbDictionary
281
1
  3
Standard
350
22
  0
DICTIONARY
  5
11
330
A
100
AcDbDictionary
281
1
  0
ACDBDICTIONARYWDFLT
  5
12
330
A
100
AcDbDictionary
281
1
  3
Normal
350
13
100
AcDbDictionaryWithDefault
340
13
  0
ACDBPLACEHOLDER
  5
13
330
12
  0
DICTIONARY
  5
14
330
A
100
AcDbDictionary
281
1
  0
DICTIONARY
  5
15
330
A
100
AcDbDictionary
281
1
  0
DICTIONARY
  5
16
330
A
100
AcDbDictionary
281
1
  0
LAYOUT
  5
1A
330
D
100
AcDbPlotSettings
  1

  4
A3
  6

 40
7.5
 41
20.0
 42
7.5
 43
20.0
 44
420.0
 45
297.0
 46
0.0
 47
0.0
 48
0.0
 49
0.0
140
0.0
141
0.0
142
1.0
143
1.0
 70
1024
 72
1
 73
0
 74
5
  7

 75
16
 76
0
 77
2
 78
300
147
1.0
148
0.0
149
0.0
100
AcDbLayout
  1
Model
 70
1
 71
0
 10
0.0
 20
0.0
 11
420.0
 21
297.0
 12
0.0
 22
0.0
 32
0.0
 14
1e+20
 24
1e+20
 34
1e+20
 15
-1e+20
 25
-1e+20
 35
-1e+20
146
0.0
 13
0.0
 23
0.0
 33
0.0
 16
1.0
 26
0.0
 36
0.0
 17
0.0
 27
1.0
 37
0.0
 76
1
330
17
  0
LAYOUT
  5
1E
330
D
100
AcDbPlotSettings
  1

  4
A3
  6

 40
7.5
 41
20.0
 42
7.5
 43
20.0
 44
420.0
 45
297.0
 46
0.0
 47
0.0
 48
0.0
 49
0.0
140
0.0
141
0.0
142
1.0
143
1.0
 70
0
 72
1
 73
0
 74
5
  7

 75
16
 76
0
 77
2
 78
300
147
1.0
148
0.0
149
0.0
100
AcDbLayout
  1
Layout1
 70
1
 71
1
 10
0.0
 20
0.0
 11
420.0
 21
297.0
 12
0.0
 22
0.0
 32
0.0
 14
1e+20
 24
1e+20
 34
1e+20
 15
-1e+20
 25
-1e+20
 35
-1e+20
146
0.0
 13
0.0
 23
0.0
 33
0.0
 16
1.0
 26
0.0
 36
0.0
 17
0.0
 27
1.0
 37
0.0
 76
1
330
1B
  0
MATERIAL
  5
1F
102
{ACAD_REACTORS
330
E
102
}
330
E
100
AcDbMaterial
  1
ByBlock
  2

 70
0
 40
1.0
 71
1
 41
1.0
 91
-1023410177
 42
1.0
 72
1
  3

 73
1
 74
1
 75
1
 44
0.5
 73
0
 45
1.0
 46
1.0
 77
1
  4

 78
1
 79
1
170
1
 48
1.0
171
1
  6

172
1
173
1
174
1
140
1.0
141
1.0
175
1
  7

176
1
177
1
178
1
143
1.0
179
1
  8

270
1
271
1
272
1
145
1.0
146
1.0
273
1
  9

274
1
275
1
276
1
 42
1.0
 72
1
  3

 73
1
 74
1
 75
1
 94
63
  0
MATERIAL
  5
20
102
{ACAD_REACTORS
330
E
102
}
330
E
100
AcDbMaterial
  1
ByLayer
  2

 70
0
 40
1.0
 71
1
 41
1.0
 91
-1023410177
 42
1.0
 72
1
  3

 73
1
 74
1
 75
1
 44
0.5
 73
0
 45
1.0
 46
1.0
 77
1
  4

 78
1
 79
1
170
1
 48
1.0
171
1
  6

172
1
173
1
174
1
140
1.0
141
1.0
175
1
  7

176
1
177
1
178
1
143
1.0
179
1
  8

270
1
271
1
272
1
145
1.0
146
1.0
273
1
  9

274
1
275
1
276
1
 42
1.0
 72
1
  3

 73
1
 74
1
 75
1
 94
63
  0
MATERIAL
  5
21
102
{ACAD_REACTORS
330
E
102
}
330
E
100
AcDbMaterial
  1
Global
  2

 70
0
 40
1.0
 71
1
 41
1.0
 91
-1023410177
 42
1.0
 72
1
  3

 73
1
 74
1
 75
1
 44
0.5
 73
0
 45
1.0
 46
1.0
 77
1
  4

 78
1
 79
1
170
1
 48
1.0
171
1
  6

172
1
173
1
174
1
140
1.0
141
1.0
175
1
  7

176
1
177
1
178
1
143
1.0
179
1
  8

270
1
271
1
272
1
145
1.0
146
1.0
273
1
  9

274
1
275
1
276
1
 42
1.0
 72
1
  3

 73
1
 74
1
 75
1
 94
63
  0
MLINESTYLE
  5
22
102
{ACAD_REACTORS
330
10
102
}
330
10
100
AcDbMlineStyle
  2
Standard
 70
0
  3

 62
256
 51
90.0
 52
90.0
 71
2
 49
0.5
 62
256
  6
BYLAYER
 49
-0.5
 62
256
  6
BYLAYER
  0
MLEADERSTYLE
  5
2C
102
{ACAD_REACTORS
330
F
102
}
330
F
100
AcDbMLeaderStyle
179
2
170
2
171
1
172
0
 90
2
 40
0.0
 41
0.0
173
1
 91
-1056964608
 92
-2
290
1
 42
2.0
291
1
 43
8.0
  3
Standard
 44
4.0
300

342
29
174
1
175
1
176
0
178
1
 93
-1056964608
 45
4.0
292
0
297
0
 46
4.0
 94
-1056964608
 47
1.0
 49
1.0
140
1.0
294
1
141
0.0
177
0
142
1.0
295
0
296
0
143
3.75
271
0
272
9
273
9
  0
DICTIONARY
  5
2D
330
A
100
AcDbDictionary
280
1
281
1
  3
CREATED_BY_EZDXF
350
2E
  3
WRITTEN_BY_EZDXF
350
C8
  0
DICTIONARYVAR
  5
2E
330
2D
100
DictionaryVariables
280
0
  1
1.4.4 @ 2026-07-24T19:46:35.480204+00:00
  0
DICTIONARYVAR
  5
C8
330
2D
100
DictionaryVariables
280
0
  1
1.4.4 @ 2026-07-24T19:46:35.482765+00:00
  0
ENDSEC
  0
EOF
