  0
SECTION
  2
HEADER
  9
$ACADVER
  1
AC1027
  9
$ACADMAINTVER
 70
105
  9
$DWGCODEPAGE
  3
ANSI_1252
  9
$LASTSAVEDBY
  1
ezdxf
  9
$REQUIREDVERSIONS
160
0
  9
$INSBASE
 10
0.0
 20
0.0
 30
0.0
  9
$EXTMIN
 10
1e+20
 20
1e+20
 30
1e+20
  9
$EXTMAX
 10
-1e+20
 20
-1e+20
 30
-1e+20
  9
$LIMMIN
 10
0.0
 20
0.0
  9
$LIMMAX
 10
420.0
 20
297.0
  9
$ORTHOMODE
 70
0
  9
$REGENMODE
 70
1
  9
$FILLMODE
 70
1
  9
$QTEXTMODE
 70
0
  9
$MIRRTEXT
 70
1
  9
$LTSCALE
 40
1.0
  9
$ATTMODE
 70
1
  9
$TEXTSIZE
 40
2.5
  9
$TRACEWID
 40
1.0
  9
$TEXTSTYLE
  7
Standard
  9
$CLAYER
  8
0
  9
$CELTYPE
  6
ByLayer
  9
$CECOLOR
 62
256
  9
$CELTSCALE
 40
1.0
  9
$DISPSILH
 70
0
  9
$DIMSCALE
 40
1.0
  9
$DIMASZ
 40
2.5
  9
$DIMEXO
 40
0.625
  9
$DIMDLI
 40
3.75
  9
$DIMRND
 40
0.0
  9
$DIMDLE
 40
0.0
  9
$DIMEXE
 40
1.25
  9
$DIMTP
 40
0.0
  9
$DIMTM
 40
0.0
  9
$DIMTXT
 40
2.5
  9
$DIMCEN
 40
2.5
  9
$DIMTSZ
 40
0.0
  9
$DIMTOL
 70
0
  9
$DIMLIM
 70
0
  9
$DIMTIH
 70
0
  9
$DIMTOH
 70
0
  9
$DIMSE1
 70
0
  9
$DIMSE2
 70
0
  9
$DIMTAD
 70
1
  9
$DIMZIN
 70
8
  9
$DIMBLK
  1

  9
$DIMASO
 70
1
  9
$DIMSHO
 70
1
  9
$DIMPOST
  1

  9
$DIMAPOST
  1

  9
$DIMALT
 70
0
  9
$DIMALTD
 70
3
  9
$DIMALTF
 40
0.03937007874
  9
$DIMLFAC
 40
1.0
  9
$DIMTOFL
 70
1
  9
$DIMTVP
 40
0.0
  9
$DIMTIX
 70
0
  9
$DIMSOXD
 70
0
  9
$DIMSAH
 70
0
  9
$DIMBLK1
  1

  9
$DIMBLK2
  1

  9
$DIMSTYLE
  2
ISO-25
  9
$DIMCLRD
 70
0
  9
$DIMCLRE
 70
0
  9
$DIMCLRT
 70
0
  9
$DIMTFAC
 40
1.0
  9
$DIMGAP
 40
0.625
  9
$DIMJUST
 70
0
  9
$DIMSD1
 70
0
  9
$DIMSD2
 70
0
  9
$DIMTOLJ
 70
0
  9
$DIMTZIN
 70
8
  9
$DIMALTZ
 70
0
  9
$DIMALTTZ
 70
0
  9
$DIMUPT
 70
0
  9
$DIMDEC
 70
2
  9
$DIMTDEC
 70
2
  9
$DIMALTU
 70
2
  9
$DIMALTTD
 70
3
  9
$DIMTXSTY
  7
Standard
  9
$DIMAUNIT
 70
0
  9
$DIMADEC
 70
0
  9
$DIMALTRND
 40
0.0
  9
$DIMAZIN
 70
0
  9
$DIMDSEP
 70
44
  9
$DIMATFIT
 70
3
  9
$DIMFRAC
 70
0
  9
$DIMLDRBLK
  1

  9
$DIMLUNIT
 70
2
  9
$DIMLWD
 70
-2
  9
$DIMLWE
 70
-2
  9
$DIMTMOVE
 70
0
  9
$DIMFXL
 40
1.0
  9
$DIMFXLON
 70
0
  9
$DIMJOGANG
 40
0.785398163397
  9
$DIMTFILL
 70
0
  9
$DIMTFILLCLR
 70
0
  9
$DIMARCSYM
 70
0
  9
$DIMLTYPE
  6

  9
$DIMLTEX1
  6

  9
$DIMLTEX2
  6

  9
$DIMTXTDIRECTION
 70
0
  9
$LUNITS
 70
2
  9
$LUPREC
 70
4
  9
$SKETCHINC
 40
1.0
  9
$FILLETRAD
 40
10.0
  9
$AUNITS
 70
0
  9
$AUPREC
 70
2
  9
$MENU
  1
.
  9
$ELEVATION
 40
0.0
  9
$PELEVATION
 40
0.0
  9
$THICKNESS
 40
0.0
  9
$LIMCHECK
 70
0
  9
$CHAMFERA
 40
0.0
  9
$CHAMFERB
 40
0.0
  9
$CHAMFERC
 40
0.0
  9
$CHAMFERD
 40
0.0
  9
$SKPOLY
 70
0
  9
$TDCREATE
 40
2461246.532349537
  9
$TDUCREATE
 40
2458532.153996898
  9
$TDUPDATE
 40
2461246.532349537
  9
$TDUUPDATE
 40
2458532.1544311
  9
$TDINDWG
 40
0.0
  9
$TDUSRTIMER
 40
0.0
  9
$USRTIMER
 70
1
  9
$ANGBASE
 50
0.0
  9
$ANGDIR
 70
0
  9
$PDMODE
 70
0
  9
$PDSIZE
 40
0.0
  9
$PLINEWID
 40
0.0
  9
$SPLFRAME
 70
0
  9
$SPLINETYPE
 70
6
  9
$SPLINESEGS
 70
8
  9
$HANDSEED
  5
B1
  9
$SURFTAB1
 70
6
  9
$SURFTAB2
 70
6
  9
$SURFTYPE
 70
6
  9
$SURFU
 70
6
  9
$SURFV
 70
6
  9
$UCSBASE
  2

  9
$UCSNAME
  2

  9
$UCSORG
 10
0.0
 20
0.0
 30
0.0
  9
$UCSXDIR
 10
1.0
 20
0.0
 30
0.0
  9
$UCSYDIR
 10
0.0
 20
1.0
 30
0.0
  9
$UCSORTHOREF
  2

  9
$UCSORTHOVIEW
 70
0
  9
$UCSORGTOP
 10
0.0
 20
0.0
 30
0.0
  9
$UCSORGBOTTOM
 10
0.0
 20
0.0
 30
0.0
  9
$UCSORGLEFT
 10
0.0
 20
0.0
 30
0.0
  9
$UCSORGRIGHT
 10
0.0
 20
0.0
 30
0.0
  9
$UCSORGFRONT
 10
0.0
 20
0.0
 30
0.0
  9
$UCSORGBACK
 10
0.0
 20
0.0
 30
0.0
  9
$PUCSBASE
  2

  9
$PUCSNAME
  2

  9
$PUCSORG
 10
0.0
 20
0.0
 30
0.0
  9
$PUCSXDIR
 10
1.0
 20
0.0
 30
0.0
  9
$PUCSYDIR
 10
0.0
 20
1.0
 30
0.0
  9
$PUCSORTHOREF
  2

  9
$PUCSORTHOVIEW
 70
0
  9
$PUCSORGTOP
 10
0.0
 20
0.0
 30
0.0
  9
$PUCSORGBOTTOM
 10
0.0
 20
0.0
 30
0.0
  9
$PUCSORGLEFT
 10
0.0
 20
0.0
 30
0.0
  9
$PUCSORGRIGHT
 10
0.0
 20
0.0
 30
0.0
  9
$PUCSORGFRONT
 10
0.0
 20
0.0
 30
0.0
  9
$PUCSORGBACK
 10
0.0
 20
0.0
 30
0.0
  9
$USERI1
 70
0
  9
$USERI2
 70
0
  9
$USERI3
 70
0
  9
$USERI4
 70
0
  9
$USERI5
 70
0
  9
$USERR1
 40
0.0
  9
$USERR2
 40
0.0
  9
$USERR3
 40
0.0
  9
$USERR4
 40
0.0
  9
$USERR5
 40
0.0
  9
$WORLDVIEW
 70
1
  9
$SHADEDGE
 70
3
  9
$SHADEDIF
 70
70
  9
$TILEMODE
 70
1
  9
$MAXACTVP
 70
64
  9
$PINSBASE
 10
0.0
 20
0.0
 30
0.0
  9
$PLIMCHECK
 70
0
  9
$PEXTMIN
 10
1e+20
 20
1e+20
 30
1e+20
  9
$PEXTMAX
 10
-1e+20
 20
-1e+20
 30
-1e+20
  9
$PLIMMIN
 10
0.0
 20
0.0
  9
$PLIMMAX
 10
420.0
 20
297.0
  9
$UNITMODE
 70
0
  9
$VISRETAIN
 70
1
  9
$PLINEGEN
 70
0
  9
$PSLTSCALE
 70
1
  9
$TREEDEPTH
 70
3020
  9
$CMLSTYLE
  2
Standard
  9
$CMLJUST
 70
0
  9
$CMLSCALE
 40
20.0
  9
$PROXYGRAPHICS
 70
1
  9
$MEASUREMENT
 70
1
  9
$CELWEIGHT
370
-1
  9
$ENDCAPS
280
0
  9
$JOINSTYLE
280
0
  9
$LWDISPLAY
290
0
  9
$INSUNITS
 70
4
  9
$HYPERLINKBASE
  1

  9
$STYLESHEET
  1

  9
$XEDIT
290
1
  9
$CEPSNTYPE
380
0
  9
$PSTYLEMODE
290
1
  9
$FINGERPRINTGUID
  2
{37EB338D-4C24-4FA5-BB5B-86C05EC5F8A8}
  9
$VERSIONGUID
  2
{61E5A0E3-D34D-4DAF-8E3E-58AA9A2006F0}
  9
$EXTNAMES
290
1
  9
$PSVPSCALE
 40
0.0
  9
$OLESTARTUP
290
0
  9
$SORTENTS
280
127
  9
$INDEXCTL
280
0
  9
$HIDETEXT
280
1
  9
$XCLIPFRAME
280
1
  9
$HALOGAP
280
0
  9
$OBSCOLOR
 70
257
  9
$OBSLTYPE
280
0
  9
$INTERSECTIONDISPLAY
280
0
  9
$INTERSECTIONCOLOR
 70
257
  9
$DIMASSOC
280
2
  9
$PROJECTNAME
  1

  9
$CAMERADISPLAY
290
0
  9
$LENSLENGTH
 40
50.0
  9
$CAMERAHEIGHT
 40
0.0
  9
$STEPSPERSEC
 40
24.0
  9
$STEPSIZE
 40
100.0
  9
$3DDWFPREC
 40
2.0
  9
$PSOLWIDTH
 40
0.005
  9
$PSOLHEIGHT
 40
0.08
  9
$LOFTANG1
 40
1.570796326795
  9
$LOFTANG2
 40
1.570796326795
  9
$LOFTMAG1
 40
0.0
  9
$LOFTMAG2
 40
0.0
  9
$LOFTPARAM
 70
7
  9
$LOFTNORMALS
280
1
  9
$LATITUDE
 40
37.795
  9
$LONGITUDE
 40
-122.394
  9
$NORTHDIRECTION
 40
0.0
  9
$TIMEZONE
 70
-8000
  9
$LIGHTGLYPHDISPLAY
280
1
  9
$TILEMODELIGHTSYNCH
280
1
  9
$CMATERIAL
347
20
  9
$SOLIDHIST
280
0
  9
$SHOWHIST
280
1
  9
$DWFFRAME
280
2
  9
$DGNFRAME
280
2
  9
$REALWORLDSCALE
290
1
  9
$INTERFERECOLOR
 62
256
  9
$CSHADOW
280
0
  9
$SHADOWPLANELOCATION
 40
0.0
  0
ENDSEC
  0
SECTION
  2
CLASSES
  0
CLASS
  1
ACDBDICTIONARYWDFLT
  2
AcDbDictionaryWithDefault
  3
ObjectDBX Classes
 90
0
 91
0
280
0
281
0
  0
CLASS
  1
SUN
  2
AcDbSun
  3
SCENEOE
 90
1153
 91
0
280
0
281
0
  0
CLASS
  1
VISUALSTYLE
  2
AcDbVisualStyle
  3
ObjectDBX Classes
 90
4095
 91
0
280
0
281
0
  0
CLASS
  1
MATERIAL
  2
AcDbMaterial
  3
ObjectDBX Classes
 90
1153
 91
0
280
0
281
0
  0
CLASS
  1
SCALE
  2
AcDbScale
  3
ObjectDBX Classes
 90
1153
 91
0
280
0
281
0
  0
CLASS
  1
TABLESTYLE
  2
AcDbTableStyle
  3
ObjectDBX Classes
 90
4095
 91
0
280
0
281
0
  0
CLASS
  1
MLEADERSTYLE
  2
AcDbMLeaderStyle
  3
ACDB_MLEADERSTYLE_CLASS
 90
4095
 91
0
280
0
281
0
  0
CLASS
  1
DICTIONARYVAR
  2
AcDbDictionaryVar
  3
ObjectDBX Classes
 90
0
 91
0
280
0
281
0
  0
CLASS
  1
CELLSTYLEMAP
  2
AcDbCellStyleMap
  3
ObjectDBX Classes
 90
1152
 91
0
280
0
281
0
  0
CLASS
  1
MENTALRAYRENDERSETTINGS
  2
AcDbMentalRayRenderSettings
  3
SCENEOE
 90
1024
 91
0
280
0
281
0
  0
CLASS
  1
ACDBDETAILVIEWSTYLE
  2
AcDbDetailViewStyle
  3
ObjectDBX Classes
 90
1025
 91
0
280
0
281
0
  0
CLASS
  1
ACDBSECTIONVIEWSTYLE
  2
AcDbSectionViewStyle
  3
ObjectDBX Classes
 90
1025
 91
0
280
0
281
0
  0
CLASS
  1
RASTERVARIABLES
  2
AcDbRasterVariables
  3
ISM
 90
0
 91
0
280
0
281
0
  0
CLASS
  1
ACDBPLACEHOLDER
  2
AcDbPlaceHolder
  3
ObjectDBX Classes
 90
0
 91
0
280
0
281
0
  0
CLASS
  1
LAYOUT
  2
AcDbLayout
  3
ObjectDBX Classes
 90
0
 91
0
280
0
281
0
  0
ENDSEC
  0
SECTION
  2
TABLES
  0
TABLE
  2
VPORT
  5
8
330
0
100
AcDbSymbolTable
 70
1
  0
VPORT
  5
23
330
8
100
AcDbSymbolTableRecord
100
AcDbViewportTableRecord
  2
*Active
 70
0
 10
0.0
 20
0.0
 11
1.0
 21
1.0
 12
0.0
 22
0.0
 13
0.0
 23
0.0
 14
0.5
 24
0.5
 15
0.5
 25
0.5
 16
0.0
 26
0.0
 36
1.0
 17
0.0
 27
0.0
 37
0.0
 40
1000.0
 41
1.34
 42
50.0
 43
0.0
 44
0.0
 50
0.0
 51
0.0
 71
0
 72
1000
 73
1
 74
3
 75
0
 76
0
 77
0
 78
0
281
0
 65
0
146
0.0
  0
ENDTAB
  0
TABLE
  2
LTYPE
  5
2
330
0
100
AcDbSymbolTable
 70
3
  0
LTYPE
  5
24
330
2
100
AcDbSymbolTableRecord
100
AcDbLinetypeTableRecord
  2
ByBlock
 70
0
  3

 72
65
 73
0
 40
0.0
  0
LTYPE
  5
25
330
2
100
AcDbSymbolTableRecord
100
AcDbLinetypeTableRecord
  2
ByLayer
 70
0
  3

 72
65
 73
0
 40
0.0
  0
LTYPE
  5
26
330
2
100
AcDbSymbolTableRecord
100
AcDbLinetypeTableRecord
  2
Continuous
 70
0
  3

 72
65
 73
0
 40
0.0
  0
ENDTAB
  0
TABLE
  2
LAYER
  5
1
330
0
100
AcDbSymbolTable
 70
7
  0
LAYER
  5
27
330
1
100
AcDbSymbolTableRecord
100
AcDbLayerTableRecord
  2
0
 70
0
 62
7
  6
Continuous
370
-3
390
13
347
21
  0
LAYER
  5
28
330
1
100
AcDbSymbolTableRecord
100
AcDbLayerTableRecord
  2
Defpoints
 70
0
 62
7
  6
Continuous
290
0
370
-3
390
13
347
21
  0
LAYER
  5
2F
330
1
100
AcDbSymbolTableRecord
100
AcDbLayerTableRecord
  2
CUT
 70
0
 62
7
  6
Continuous
370
-3
390
13
347
21
  0
LAYER
  5
30
330
1
100
AcDbSymbolTableRecord
100
AcDbLayerTableRecord
  2
POCKET
 70
0
 62
7
  6
Continuous
370
-3
390
13
347
21
  0
LAYER
  5
31
330
1
100
AcDbSymbolTableRecord
100
AcDbLayerTableRecord
  2
CHAMFER
 70
0
 62
7
  6
Continuous
370
-3
390
13
347
21
  0
LAYER
  5
32
330
1
100
AcDbSymbolTableRecord
100
AcDbLayerTableRecord
  2
COUNTERSINK
 70
0
 62
7
  6
Continuous
370
-3
390
13
347
21
  0
LAYER
  5
33
330
1
100
AcDbSymbolTableRecord
100
AcDbLayerTableRecord
  2
ANNOTATION
 70
0
 62
7
  6
Continuous
370
-3
390
13
347
21
  0
ENDTAB
  0
TABLE
  2
STYLE
  5
5
330
0
100
AcDbSymbolTable
 70
1
  0
STYLE
  5
29
330
5
100
AcDbSymbolTableRecord
100
AcDbTextStyleTableRecord
  2
Standard
 70
0
 40
0.0
 41
1.0
 50
0.0
 71
0
 42
2.5
  3
txt
  4

  0
ENDTAB
  0
TABLE
  2
VIEW
  5
7
330
0
100
AcDbSymbolTable
 70
0
  0
ENDTAB
  0
TABLE
  2
UCS
  5
6
330
0
100
AcDbSymbolTable
 70
0
  0
ENDTAB
  0
TABLE
  2
APPID
  5
3
330
0
100
AcDbSymbolTable
 70
3
  0
APPID
  5
2A
330
3
100
AcDbSymbolTableRecord
100
AcDbRegAppTableRecord
  2
ACAD
 70
0
  0
APPID
  5
AE
330
3
100
AcDbSymbolTableRecord
100
AcDbRegAppTableRecord
  2
HATCHBACKGROUNDCOLOR
 70
0
  0
APPID
  5
AF
330
3
100
AcDbSymbolTableRecord
100
AcDbRegAppTableRecord
  2
EZDXF
 70
0
  0
ENDTAB
  0
TABLE
  2
DIMSTYLE
  5
4
330
0
100
AcDbSymbolTable
 70
1
100
AcDbDimStyleTable
  0
DIMSTYLE
105
2B
330
4
100
AcDbSymbolTableRecord
100
AcDbDimStyleTableRecord
  2
Standard
 70
0
 40
1.0
 41
2.5
 42
0.625
 43
3.75
 44
1.25
 45
0.0
 46
0.0
 47
0.0
 48
0.0
 49
2.5
140
2.5
141
2.5
142
0.0
143
0.03937007874
144
1.0
145
0.0
146
1.0
147
0.625
148
0.0
 69
0
 70
0
 71
0
 72
0
 73
0
 74
0
 75
0
 76
0
 77
1
 78
8
 79
3
170
0
171
3
172
1
173
0
174
0
175
0
176
0
177
0
178
0
179
2
271
2
272
2
273
2
274
3
275
0
276
0
277
2
278
44
279
0
280
0
281
0
282
0
283
0
284
8
285
0
286
0
288
0
289
3
290
0
371
-2
372
-2
  0
ENDTAB
  0
TABLE
  2
BLOCK_RECORD
  5
9
330
0
100
AcDbSymbolTable
 70
2
  0
BLOCK_RECORD
  5
17
330
9
100
AcDbSymbolTableRecord
100
AcDbBlockTableRecord
  2
*Model_Space
340
1A
 70
0
280
1
281
0
  0
BLOCK_RECORD
  5
1B
330
9
100
AcDbSymbolTableRecord
100
AcDbBlockTableRecord
  2
*Paper_Space
340
1E
 70
0
280
1
281
0
  0
ENDTAB
  0
ENDSEC
  0
SECTION
  2
BLOCKS
  0
BLOCK
  5
18
330
17
100
AcDbEntity
  8
0
100
AcDbBlockBegin
  2
*Model_Space
 70
0
 10
0.0
 20
0.0
 30
0.0
  3
*Model_Space
  1

  0
ENDBLK
  5
19
330
17
100
AcDbEntity
  8
0
100
AcDbBlockEnd
  0
BLOCK
  5
1C
330
1B
100
AcDbEntity
  8
0
100
AcDbBlockBegin
  2
*Paper_Space
 70
0
 10
0.0
 20
0.0
 30
0.0
  3
*Paper_Space
  1

  0
ENDBLK
  5
1D
330
1B
100
AcDbEntity
  8
0
100
AcDbBlockEnd
  0
ENDSEC
  0
SECTION
  2
ENTITIES
  0
LINE
  5
34
330
17
100
AcDbEntity
  8
CUT
100
AcDbLine
 10
20.93334280922477
 20
38.0
 30
0.0
 11
20.93334280922477
 21
40.618724674317036
 31
0.0
  0
ARC
  5
35
330
17
100
AcDbEntity
  8
CUT
100
AcDbCircle
 10
22.93334280922477
 20
40.618724674317036
 30
0.0
 40
2.0
100
AcDbArc
 50
125.780498440659
 51
180.0
  0
LINE
  5
36
330
17
100
AcDbEntity
  8
CUT
100
AcDbLine
 10
15.537976576374831
 20
38.0
 30
0.0
 11
15.537976576374831
 21
40.0
 31
0.0
  0
ARC
  5
37
330
17
100
AcDbEntity
  8
CUT
100
AcDbCircle
 10
16.33797657637365
 20
38.0
 30
0.0
 40
0.8
100
AcDbArc
 50
180.0
 51
0.0
  0
ARC
  5
38
330
17
100
AcDbEntity
  8
CUT
100
AcDbCircle
 10
20.133342809224814
 20
38.0
 30
0.0
 40
0.8
100
AcDbArc
 50
180.0
 51
0.0
  0
LINE
  5
39
330
17
100
AcDbEntity
  8
CUT
100
AcDbLine
 10
15.163708036695652
 20
15.226505636891943
 30
0.0
 11
5.074955444294801
 21
36.861905390607035
 31
0.0
  0
LINE
  5
3A
330
17
100
AcDbEntity
  8
CUT
100
AcDbLine
 10
19.33334280922577
 20
38.0
 30
0.0
 11
17.13797657637383
 21
38.0
 31
0.0
  0
LINE
  5
3B
330
17
100
AcDbEntity
  8
CUT
100
AcDbLine
 10
15.037976576374831
 20
40.5
 30
0.0
 11
10.087993466981743
 21
40.5
 31
0.0
  0
ARC
  5
3C
330
17
100
AcDbEntity
  8
CUT
100
AcDbCircle
 10
15.037976576374831
 20
40.0
 30
0.0
 40
0.5
100
AcDbArc
 50
0.0
 51
90.0
  0
LINE
  5
3D
330
17
100
AcDbEntity
  8
CUT
100
AcDbLine
 10
20.22432291925975
 20
33.777282304429036
 30
0.0
 11
26.43731505676169
 21
35.25912014139112
 31
0.0
  0
ARC
  5
3E
330
17
100
AcDbEntity
  8
CUT
100
AcDbCircle
 10
26.669313972480722
 20
34.28640409695413
 30
0.0
 40
1.0
100
AcDbArc
 50
349.8514027408012
 51
103.4147848889205
  0
LINE
  5
3F
330
17
100
AcDbEntity
  8
CUT
100
AcDbLine
 10
26.02956725327681
 20
25.037133027699156
 30
0.0
 11
27.653668055408843
 21
34.11020239598815
 31
0.0
  0
LINE
  5
40
330
17
100
AcDbEntity
  8
CUT
100
AcDbLine
 10
19.992324003541853
 20
33.74999834886694
 30
0.0
 11
11.738796939061785
 21
33.74999834886694
 31
0.0
  0
ARC
  5
41
330
17
100
AcDbEntity
  8
CUT
100
AcDbCircle
 10
19.992324003541853
 20
34.74999834886694
 30
0.0
 40
1.0
100
AcDbArc
 50
270.0
 51
283.4147848889206
  0
LINE
  5
42
330
17
100
AcDbEntity
  8
CUT
100
AcDbLine
 10
21.763979644781784
 20
42.241250418225036
 30
0.0
 11
49.302210365311794
 21
62.08820368808597
 31
0.0
  0
LINE
  5
43
330
17
100
AcDbEntity
  8
CUT
100
AcDbLine
 10
9.587993466978787
 20
38.0
 30
0.0
 11
9.587993466981743
 21
40.0
 31
0.0
  0
ARC
  5
44
330
17
100
AcDbEntity
  8
CUT
100
AcDbCircle
 10
10.087993466981743
 20
40.0
 30
0.0
 40
0.5
100
AcDbArc
 50
90.0
 51
179.9999999999479
  0
ARC
  5
45
330
17
100
AcDbEntity
  8
CUT
100
AcDbCircle
 10
8.787993466979742
 20
38.0
 30
0.0
 40
0.8
100
AcDbArc
 50
180.0
 51
0.0
  0
LINE
  5
46
330
17
100
AcDbEntity
  8
CUT
100
AcDbLine
 10
7.987993466979788
 20
38.0
 30
0.0
 11
5.800001673923816
 21
38.0
 31
0.0
  0
LINE
  5
47
330
17
100
AcDbEntity
  8
CUT
100
AcDbLine
 10
11.849575115236803
 20
30.14623220026806
 30
0.0
 11
10.832489152023754
 21
32.32738008712613
 31
0.0
  0
ARC
  5
48
330
17
100
AcDbEntity
  8
CUT
100
AcDbCircle
 10
12.755882902273697
 20
30.568850462010005
 30
0.0
 40
1.0
100
AcDbArc
 50
204.9999999999926
 51
246.4531110954871
  0
ARC
  5
49
330
17
100
AcDbEntity
  8
CUT
100
AcDbCircle
 10
11.738796939061785
 20
32.74999834886694
 30
0.0
 40
1.0
100
AcDbArc
 50
90.0
 51
204.9999999999926
  0
LINE
  5
4A
330
17
100
AcDbEntity
  8
CUT
100
AcDbLine
 10
12.356383476387691
 20
29.65211701726298
 30
0.0
 11
24.645713744462682
 21
24.29660128391697
 31
0.0
  0
LINE
  5
4B
330
17
100
AcDbEntity
  8
CUT
100
AcDbLine
 10
19.02573033330077
 20
5.5
 30
0.0
 11
19.02573033330077
 21
8.0
 31
0.0
  0
ARC
  5
4C
330
17
100
AcDbEntity
  8
CUT
100
AcDbCircle
 10
18.225730333301726
 20
8.0
 30
0.0
 40
0.8
100
AcDbArc
 50
0.0
 51
180.0
  0
ARC
  5
4D
330
17
100
AcDbEntity
  8
CUT
100
AcDbCircle
 10
14.257400249657849
 20
14.803887375152044
 30
0.0
 40
1.0
100
AcDbArc
 50
312.4674712321783
 51
24.99999999999965
  0
LINE
  5
4E
330
17
100
AcDbEntity
  8
CUT
100
AcDbLine
 10
17.42573033330268
 20
8.0
 30
0.0
 11
10.304090096483833
 21
8.0
 31
0.0
  0
ARC
  5
4F
330
17
100
AcDbEntity
  8
CUT
100
AcDbCircle
 10
10.304090096483833
 20
8.799999999999045
 30
0.0
 40
0.8
100
AcDbArc
 50
150.7379344127188
 51
270.0
  0
ARC
  5
50
330
17
100
AcDbEntity
  8
CUT
100
AcDbCircle
 10
5.800001673923816
 20
37.199999999999136
 30
0.0
 40
0.8
100
AcDbArc
 50
90.0
 51
204.9999999999132
  0
LINE
  5
51
330
17
100
AcDbEntity
  8
CUT
100
AcDbLine
 10
16.34732985527785
 20
24.64043034493716
 30
0.0
 11
21.80416291661777
 21
22.262419934543004
 31
0.0
  0
ARC
  5
52
330
17
100
AcDbEntity
  8
CUT
100
AcDbCircle
 10
21.404663490730854
 20
21.34568648979598
 30
0.0
 40
1.0
100
AcDbArc
 50
312.4674712321783
 51
66.45311109548716
  0
LINE
  5
53
330
17
100
AcDbEntity
  8
CUT
100
AcDbLine
 10
17.45102465793684
 20
18.13388489105796
 30
0.0
 11
15.041522642352675
 21
23.3010786384491
 31
0.0
  0
ARC
  5
54
330
17
100
AcDbEntity
  8
CUT
100
AcDbCircle
 10
18.357332444974645
 20
18.556503152800133
 30
0.0
 40
1.0
100
AcDbArc
 50
204.9999999999926
 51
312.4674712321783
  0
ARC
  5
55
330
17
100
AcDbEntity
  8
CUT
100
AcDbCircle
 10
15.947830429390706
 20
23.723696900188997
 30
0.0
 40
1.0
100
AcDbArc
 50
66.45311109548716
 51
204.9999999999926
  0
LINE
  5
56
330
17
100
AcDbEntity
  8
CUT
100
AcDbLine
 10
19.03857025155571
 20
11.401848064079104
 30
0.0
 11
41.92813681255484
 21
11.401848064079104
 31
0.0
  0
LINE
  5
57
330
17
100
AcDbEntity
  8
CUT
100
AcDbLine
 10
9.606175623040826
 20
9.191043971644149
 30
0.0
 11
14.932571770931645
 21
14.066226601586095
 31
0.0
  0
LINE
  5
58
330
17
100
AcDbEntity
  8
CUT
100
AcDbLine
 10
19.03250396624867
 20
17.818842379233047
 30
0.0
 11
22.079835012005788
 21
20.60802571623003
 31
0.0
  0
LINE
  5
59
330
17
100
AcDbEntity
  8
CUT
100
AcDbLine
 10
18.363398730281688
 20
13.139508837645963
 30
0.0
 11
25.746380732102807
 21
19.897058335105157
 31
0.0
  0
ARC
  5
5A
330
17
100
AcDbEntity
  8
CUT
100
AcDbCircle
 10
19.03857025155571
 20
12.401848064079104
 30
0.0
 40
1.0
100
AcDbArc
 50
132.4674712321783
 51
270.0
  0
LINE
  5
5B
330
17
100
AcDbEntity
  8
CUT
100
AcDbLine
 10
30.02097304839276
 20
30.309253478077153
 30
0.0
 11
31.355533460470724
 21
37.76480006670704
 31
0.0
  0
ARC
  5
5C
330
17
100
AcDbEntity
  8
CUT
100
AcDbCircle
 10
32.339887543398845
 20
37.58859836574106
 30
0.0
 40
1.0
100
AcDbArc
 50
121.4600579637483
 51
169.851402740788
  0
ARC
  5
5D
330
17
100
AcDbEntity
  8
CUT
100
AcDbCircle
 10
31.005327131319746
 20
30.133051777112087
 30
0.0
 40
1.0
100
AcDbArc
 50
169.851402740788
 51
312.467471232195
  0
LINE
  5
5E
330
17
100
AcDbEntity
  8
CUT
100
AcDbLine
 10
31.68049865259377
 20
29.395391003545
 30
0.0
 11
39.682990953927856
 21
36.71997039652706
 31
0.0
  0
LINE
  5
5F
330
17
100
AcDbEntity
  8
CUT
100
AcDbLine
 10
29.783281607446725
 20
23.591982347481007
 30
0.0
 11
34.367501867412784
 21
27.787860829417014
 31
0.0
  0
ARC
  5
60
330
17
100
AcDbEntity
  8
CUT
100
AcDbCircle
 10
35.04267338868681
 20
27.050200055850155
 30
0.0
 40
1.0
100
AcDbArc
 50
66.45311109548716
 51
132.4674712321949
  0
LINE
  5
61
330
17
100
AcDbEntity
  8
CUT
100
AcDbLine
 10
32.14666793010974
 20
41.92522167460811
 30
0.0
 11
35.87440234046085
 21
44.20600723848702
 31
0.0
  0
ARC
  5
62
330
17
100
AcDbEntity
  8
CUT
100
AcDbCircle
 10
31.363811862222747
 20
43.20472797665593
 30
0.0
 40
1.499999999999999
100
AcDbArc
 50
121.4600579637821
 51
301.4600579637821
  0
LINE
  5
63
330
17
100
AcDbEntity
  8
CUT
100
AcDbLine
 10
31.817983498142667
 20
38.44160256710711
 30
0.0
 11
36.151851629379735
 21
41.09324637575014
 31
0.0
  0
LINE
  5
64
330
17
100
AcDbEntity
  8
CUT
100
AcDbLine
 10
35.442172814572814
 20
27.96693350059695
 30
0.0
 11
51.88357415758469
 21
20.802004114696956
 31
0.0
  0
ARC
  5
65
330
17
100
AcDbEntity
  8
CUT
100
AcDbCircle
 10
25.04521317034869
 20
25.213334728663085
 30
0.0
 40
1.0
100
AcDbArc
 50
246.4531110954871
 51
349.8514027408012
  0
LINE
  5
66
330
17
100
AcDbEntity
  8
CUT
100
AcDbLine
 10
30.058953702834742
 20
21.937588129167125
 30
0.0
 11
47.30201538818369
 21
14.423306542410955
 31
0.0
  0
ARC
  5
67
330
17
100
AcDbEntity
  8
CUT
100
AcDbCircle
 10
30.458453128721658
 20
22.854321573913012
 30
0.0
 40
1.0
100
AcDbArc
 50
132.4674712322137
 51
246.4531110954871
  0
LINE
  5
68
330
17
100
AcDbEntity
  8
CUT
100
AcDbLine
 10
26.821051679263746
 20
20.076131006285095
 30
0.0
 11
42.327636238441755
 21
13.318581508824991
 31
0.0
  0
ARC
  5
69
330
17
100
AcDbEntity
  8
CUT
100
AcDbCircle
 10
26.42155225337683
 20
19.15939756153807
 30
0.0
 40
1.0
100
AcDbArc
 50
66.45311109548716
 51
132.4674712321783
  0
LINE
  5
6A
330
17
100
AcDbEntity
  8
CUT
100
AcDbLine
 10
74.03949684302165
 20
35.48996831932914
 30
0.0
 11
52.00366241599272
 21
61.75125316355002
 31
0.0
  0
LINE
  5
6B
330
17
100
AcDbEntity
  8
POCKET
100
AcDbLine
 10
65.34548861348367
 20
38.072464726619046
 30
0.0
 11
52.939687746532854
 21
52.85712247881702
 31
0.0
  0
LINE
  5
6C
330
17
100
AcDbEntity
  8
POCKET
100
AcDbLine
 10
53.18620141339784
 20
55.67478658442815
 30
0.0
 11
55.4843347427518
 21
57.60314941348702
 31
0.0
  0
ARC
  5
6D
330
17
100
AcDbEntity
  8
POCKET
100
AcDbCircle
 10
54.47177663277171
 20
54.14269769818998
 30
0.0
 40
2.0
100
AcDbArc
 50
130.0000000000717
 51
220.000000000021
  0
LINE
  5
6E
330
17
100
AcDbEntity
  8
CUT
100
AcDbLine
 10
59.36067183236173
 20
40.42396347159797
 30
0.0
 11
52.465266375368856
 21
34.64007346714607
 31
0.0
  0
LINE
  5
6F
330
17
100
AcDbEntity
  8
CUT
100
AcDbLine
 10
58.0753629424828
 20
41.95627579537609
 30
0.0
 11
51.17995748548583
 21
36.172385790922135
 31
0.0
  0
LINE
  5
70
330
17
100
AcDbEntity
  8
CUT
100
AcDbLine
 10
54.21943627284668
 20
46.553212766709066
 30
0.0
 11
47.3240308158488
 21
40.76932276225102
 31
0.0
  0
LINE
  5
71
330
17
100
AcDbEntity
  8
CUT
100
AcDbLine
 10
55.5047451627247
 20
45.02090044293095
 30
0.0
 11
48.609339705727734
 21
39.237010438477
 31
0.0
  0
ARC
  5
72
330
17
100
AcDbEntity
  8
CUT
100
AcDbCircle
 10
54.86209071778376
 20
45.7870566048191
 30
0.0
 40
1.000000000001718
100
AcDbArc
 50
309.9900407585207
 51
129.9900407585207
  0
ARC
  5
73
330
17
100
AcDbEntity
  8
CUT
100
AcDbCircle
 10
47.966685260788836
 20
40.00316660036401
 30
0.0
 40
1.000000000001718
100
AcDbArc
 50
129.9900407585207
 51
309.9900407585207
  0
ARC
  5
74
330
17
100
AcDbEntity
  8
CUT
100
AcDbCircle
 10
51.822611930426774
 20
35.40622962903399
 30
0.0
 40
1.000000000001718
100
AcDbArc
 50
129.9900407585207
 51
309.9900407585207
  0
CIRCLE
  5
75
330
17
100
AcDbEntity
  8
CUT
100
AcDbCircle
 10
49.812449192876784
 20
57.896147870582126
 30
0.0
 40
1.5
  0
LINE
  5
76
330
17
100
AcDbEntity
  8
CUT
100
AcDbLine
 10
37.4399118365227
 20
40.88289661932413
 30
0.0
 11
39.77397559454175
 21
38.100285615033044
 31
0.0
  0
LINE
  5
77
330
17
100
AcDbEntity
  8
CUT
100
AcDbLine
 10
42.990253990080646
 20
34.26592092574515
 30
0.0
 11
48.60705115423366
 21
27.569719271378062
 31
0.0
  0
ARC
  5
78
330
17
100
AcDbEntity
  8
CUT
100
AcDbCircle
 10
42.224097828192726
 20
33.62326648080602
 30
0.0
 40
1.0
100
AcDbArc
 50
39.9900407584874
 51
132.4674712321949
  0
ARC
  5
79
330
17
100
AcDbEntity
  8
CUT
100
AcDbCircle
 10
39.00781943265383
 20
37.457631170094146
 30
0.0
 40
1.0
100
AcDbArc
 50
312.467471232195
 51
39.99004075846984
  0
LINE
  5
7A
330
17
100
AcDbEntity
  8
CUT
100
AcDbLine
 10
38.404402742754655
 20
31.482784841791954
 30
0.0
 11
41.5489263069187
 21
34.36092725437311
 31
0.0
  0
ARC
  5
7B
330
17
100
AcDbEntity
  8
CUT
100
AcDbCircle
 10
35.091546272583855
 20
45.48551354053507
 30
0.0
 40
1.499999999999999
100
AcDbArc
 50
301.4600579637821
 51
121.4600579637821
  0
LINE
  5
7C
330
17
100
AcDbEntity
  8
CUT
100
AcDbLine
 10
30.5809557943428
 20
44.48423427870398
 30
0.0
 11
34.30869020469572
 21
46.76501984258198
 31
0.0
  0
ARC
  5
7D
330
17
100
AcDbEntity
  8
CUT
100
AcDbCircle
 10
36.673755674634776
 20
40.24024217438409
 30
0.0
 40
1.0
100
AcDbArc
 50
39.99004075846984
 51
121.4600579637483
  0
ARC
  5
7E
330
17
100
AcDbEntity
  8
CUT
100
AcDbCircle
 10
50.47157352975569
 20
60.46567794417706
 30
0.0
 40
2.0
100
AcDbArc
 50
40.00000000002098
 51
125.780498440659
  0
LINE
  5
7F
330
17
100
AcDbEntity
  8
CUT
100
AcDbLine
 10
48.05551182315571
 20
47.908976101846974
 30
0.0
 11
41.160106366157834
 21
42.12508609739007
 31
0.0
  0
LINE
  5
80
330
17
100
AcDbEntity
  8
CUT
100
AcDbLine
 10
49.340820713033736
 20
46.37666377807
 30
0.0
 11
42.44541525603677
 21
40.592773773616045
 31
0.0
  0
ARC
  5
81
330
17
100
AcDbEntity
  8
CUT
100
AcDbCircle
 10
48.69816626809279
 20
47.14281993995701
 30
0.0
 40
1.000000000001718
100
AcDbArc
 50
309.9900407585207
 51
129.9900407585207
  0
ARC
  5
82
330
17
100
AcDbEntity
  8
CUT
100
AcDbCircle
 10
41.80276081109787
 20
41.35892993550215
 30
0.0
 40
1.000000000001718
100
AcDbArc
 50
129.9900407585207
 51
309.9900407585207
  0
LINE
  5
83
330
17
100
AcDbEntity
  8
CUT
100
AcDbLine
 10
58.340113578139835
 20
35.65226501194411
 30
0.0
 11
51.44470812114173
 21
29.868375007486065
 31
0.0
  0
LINE
  5
84
330
17
100
AcDbEntity
  8
CUT
100
AcDbLine
 10
24.475713442697725
 20
5.0
 30
0.0
 11
19.52573033330168
 21
5.0
 31
0.0
  0
ARC
  5
85
330
17
100
AcDbEntity
  8
CUT
100
AcDbCircle
 10
24.475713442697725
 20
5.5
 30
0.0
 40
0.5
100
AcDbArc
 50
270.0
 51
0.0
  0
LINE
  5
86
330
17
100
AcDbEntity
  8
CUT
100
AcDbLine
 10
24.975713442697725
 20
5.5
 30
0.0
 11
24.975713442697725
 21
8.0
 31
0.0
  0
ARC
  5
87
330
17
100
AcDbEntity
  8
CUT
100
AcDbCircle
 10
19.52573033330168
 20
5.5
 30
0.0
 40
0.5
100
AcDbArc
 50
180.0
 51
270.0
  0
ARC
  5
88
330
17
100
AcDbEntity
  8
CUT
100
AcDbCircle
 10
25.77571344269677
 20
8.0
 30
0.0
 40
0.8
100
AcDbArc
 50
0.0
 51
180.0
  0
LINE
  5
89
330
17
100
AcDbEntity
  8
CUT
100
AcDbLine
 10
31.00977108067582
 20
8.0
 30
0.0
 11
26.575713442695815
 21
8.0
 31
0.0
  0
LINE
  5
8A
330
17
100
AcDbEntity
  8
CUT
100
AcDbLine
 10
38.05975419007086
 20
5.0
 30
0.0
 11
33.10977108067482
 21
5.0
 31
0.0
  0
ARC
  5
8B
330
17
100
AcDbEntity
  8
CUT
100
AcDbCircle
 10
38.05975419007086
 20
5.5
 30
0.0
 40
0.5
100
AcDbArc
 50
270.0
 51
0.0
  0
LINE
  5
8C
330
17
100
AcDbEntity
  8
CUT
100
AcDbLine
 10
44.194793192297766
 20
5.5
 30
0.0
 11
44.194793192297766
 21
8.0
 31
0.0
  0
ARC
  5
8D
330
17
100
AcDbEntity
  8
CUT
100
AcDbCircle
 10
44.694793192297766
 20
5.5
 30
0.0
 40
0.5
100
AcDbArc
 50
180.0
 51
270.0
  0
LINE
  5
8E
330
17
100
AcDbEntity
  8
CUT
100
AcDbLine
 10
49.86779863776769
 20
5.0
 30
0.0
 11
44.694793192297766
 21
5.0
 31
0.0
  0
ARC
  5
8F
330
17
100
AcDbEntity
  8
CUT
100
AcDbCircle
 10
49.86779863776769
 20
7.0
 30
0.0
 40
2.0
100
AcDbArc
 50
270.0
 51
320.2326316120516
  0
LINE
  5
90
330
17
100
AcDbEntity
  8
CUT
100
AcDbLine
 10
38.55975419007086
 20
5.5
 30
0.0
 11
38.55975419007086
 21
8.0
 31
0.0
  0
LINE
  5
91
330
17
100
AcDbEntity
  8
CUT
100
AcDbLine
 10
32.60977108067482
 20
5.5
 30
0.0
 11
32.60977108067482
 21
8.0
 31
0.0
  0
ARC
  5
92
330
17
100
AcDbEntity
  8
CUT
100
AcDbCircle
 10
33.10977108067482
 20
5.5
 30
0.0
 40
0.5
100
AcDbArc
 50
180.0
 51
270.0
  0
ARC
  5
93
330
17
100
AcDbEntity
  8
CUT
100
AcDbCircle
 10
31.809771080675773
 20
8.0
 30
0.0
 40
0.8
100
AcDbArc
 50
0.0
 51
180.0
  0
ARC
  5
94
330
17
100
AcDbEntity
  8
CUT
100
AcDbCircle
 10
39.35975419006968
 20
8.0
 30
0.0
 40
0.8
100
AcDbArc
 50
0.0
 51
180.0
  0
ARC
  5
95
330
17
100
AcDbEntity
  8
CUT
100
AcDbCircle
 10
43.39479319229872
 20
8.0
 30
0.0
 40
0.8
100
AcDbArc
 50
0.0
 51
180.0
  0
LINE
  5
96
330
17
100
AcDbEntity
  8
CUT
100
AcDbLine
 10
42.594793192299676
 20
8.0
 30
0.0
 11
40.15975419006986
 21
8.0
 31
0.0
  0
ARC
  5
97
330
17
100
AcDbEntity
  8
CUT
100
AcDbCircle
 10
47.7015148140697
 20
15.340039987155933
 30
0.0
 40
1.0
100
AcDbArc
 50
246.4531110954871
 51
320.2326316120516
  0
ARC
  5
98
330
17
100
AcDbEntity
  8
CUT
100
AcDbCircle
 10
41.92813681255484
 20
12.401848064079104
 30
0.0
 40
1.0
100
AcDbArc
 50
270.0
 51
66.45311109548716
  0
LINE
  5
99
330
17
100
AcDbEntity
  8
CUT
100
AcDbLine
 10
52.25272269175275
 20
19.245598634056932
 30
0.0
 11
48.470162774124674
 21
14.700367951262933
 31
0.0
  0
ARC
  5
9A
330
17
100
AcDbEntity
  8
CUT
100
AcDbCircle
 10
39.07957426402868
 20
30.745124068226005
 30
0.0
 40
1.0
100
AcDbArc
 50
132.4674712321949
 51
246.4531110954871
  0
LINE
  5
9B
330
17
100
AcDbEntity
  8
CUT
100
AcDbLine
 10
38.68007483814267
 20
29.828390623480118
 30
0.0
 11
47.44139556645973
 21
26.01033138169214
 31
0.0
  0
ARC
  5
9C
330
17
100
AcDbEntity
  8
CUT
100
AcDbCircle
 10
47.84089499234574
 20
26.927064826438027
 30
0.0
 40
1.0
100
AcDbArc
 50
246.4531110954871
 51
39.9900407584874
  0
LINE
  5
9D
330
17
100
AcDbEntity
  8
CUT
100
AcDbLine
 10
74.04470387689366
 20
32.92504902816904
 30
0.0
 11
51.40509455787583
 21
5.720655928213091
 31
0.0
  0
ARC
  5
9E
330
17
100
AcDbEntity
  8
CUT
100
AcDbCircle
 10
52.544069637245684
 20
13.332106383817063
 30
0.0
 40
1.499999999999999
100
AcDbArc
 50
140.2326316120165
 51
320.2326316123392
  0
ARC
  5
9F
330
17
100
AcDbEntity
  8
CUT
100
AcDbCircle
 10
54.68136127749585
 20
15.900336300300978
 30
0.0
 40
1.499999999999999
100
AcDbArc
 50
320.2326316120166
 51
140.2326316123392
  0
LINE
  5
A0
330
17
100
AcDbEntity
  8
CUT
100
AcDbLine
 10
53.52838933741168
 20
16.859844354140932
 30
0.0
 11
51.39109769716174
 21
14.291614437657017
 31
0.0
  0
LINE
  5
A1
330
17
100
AcDbEntity
  8
CUT
100
AcDbLine
 10
55.834333217574795
 20
14.940828246458977
 30
0.0
 11
53.69704157732576
 21
12.372598329975062
 31
0.0
  0
ARC
  5
A2
330
17
100
AcDbEntity
  8
CUT
100
AcDbCircle
 10
51.48407473169868
 20
19.88527066995107
 30
0.0
 40
1.0
100
AcDbArc
 50
320.2326316120516
 51
66.45311109548716
  0
LINE
  5
A3
330
17
100
AcDbEntity
  8
CUT
100
AcDbLine
 10
59.62542246801786
 20
34.119952688165995
 30
0.0
 11
52.730017011020664
 21
28.336062683712044
 31
0.0
  0
ARC
  5
A4
330
17
100
AcDbEntity
  8
CUT
100
AcDbCircle
 10
58.98276802307669
 20
34.88610885005414
 30
0.0
 40
1.000000000001718
100
AcDbArc
 50
309.9900407585207
 51
129.9900407585207
  0
ARC
  5
A5
330
17
100
AcDbEntity
  8
CUT
100
AcDbCircle
 10
52.087362566081765
 20
29.102218845599054
 30
0.0
 40
1.000000000001718
100
AcDbArc
 50
129.9900407585207
 51
309.9900407585207
  0
ARC
  5
A6
330
17
100
AcDbEntity
  8
CUT
100
AcDbCircle
 10
72.50740795678485
 20
34.20439309995595
 30
0.0
 40
2.0
100
AcDbArc
 50
320.2326316120516
 51
40.00000000002098
  0
ARC
  5
A7
330
17
100
AcDbEntity
  8
POCKET
100
AcDbCircle
 10
66.87757749972275
 20
39.35803994599314
 30
0.0
 40
2.0
100
AcDbArc
 50
220.0000000000034
 51
310.0000000000908
  0
LINE
  5
A8
330
17
100
AcDbEntity
  8
POCKET
100
AcDbLine
 10
68.16315271909775
 20
37.82595105975702
 30
0.0
 11
70.46128604845376
 21
39.754313888816114
 31
0.0
  0
ARC
  5
A9
330
17
100
AcDbEntity
  8
CUT
100
AcDbCircle
 10
58.718017387421696
 20
41.190119633489076
 30
0.0
 40
1.000000000001718
100
AcDbArc
 50
309.9900407585207
 51
129.9900407585207
  0
ARC
  5
AA
330
17
100
AcDbEntity
  8
CUT
100
AcDbCircle
 10
67.8731511092767
 20
31.751963031964124
 30
0.0
 40
1.499999999999999
100
AcDbArc
 50
140.2326316120165
 51
320.2326316123392
  0
ARC
  5
AB
330
17
100
AcDbEntity
  8
CUT
100
AcDbCircle
 10
70.01044274952778
 20
34.32019294844713
 30
0.0
 40
1.499999999999999
100
AcDbArc
 50
320.2326316120166
 51
140.2326316123392
  0
LINE
  5
AC
330
17
100
AcDbEntity
  8
CUT
100
AcDbLine
 10
68.8574708094427
 20
35.279701002287084
 30
0.0
 11
66.72017916919276
 21
32.71147108580294
 31
0.0
  0
LINE
  5
AD
330
17
100
AcDbEntity
  8
CUT
100
AcDbLine
 10
71.16341468960582
 20
33.36068489460513
 30
0.0
 11
69.0261230493577
 21
30.792454978120986
 31
0.0
  0
ENDSEC
  0
SECTION
  2
OBJECTS
  0
DICTIONARY
  5
A
330
0
100
AcDbDictionary
281
1
  3
ACAD_COLOR
350
B
  3
ACAD_GROUP
350
C
  3
ACAD_LAYOUT
350
D
  3
ACAD_MATERIAL
350
E
  3
ACAD_MLEADERSTYLE
350
F
  3
ACAD_MLINESTYLE
350
10
  3
ACAD_PLOTSETTINGS
350
11
  3
ACAD_PLOTSTYLENAME
350
12
  3
ACAD_SCALELIST
350
14
  3
ACAD_TABLESTYLE
350
15
  3
ACAD_VISUALSTYLE
350
16
  3
EZDXF_META
350
2D
  0
DICTIONARY
  5
B
330
A
100
AcDbDictionary
281
1
  0
DICTIONARY
  5
C
330
A
100
AcDbDictionary
281
1
  0
DICTIONARY
  5
D
330
A
100
AcDbDictionary
281
1
  3
Model
350
1A
  3
Layout1
350
1E
  0
DICTIONARY
  5
E
330
A
100
AcDbDictionary
281
1
  3
ByBlock
350
1F
  3
ByLayer
350
20
  3
Global
350
21
  0
DICTIONARY
  5
F
330
A
100
AcDbDictionary
281
1
  3
Standard
350
2C
  0
DICTIONARY
  5
10
330
A
100
AcDbDictionary
281
1
  3
Standard
350
22
  0
DICTIONARY
  5
11
330
A
100
AcDbDictionary
281
1
  0
ACDBDICTIONARYWDFLT
  5
12
330
A
100
AcDbDictionary
281
1
  3
Normal
350
13
100
AcDbDictionaryWithDefault
340
13
  0
ACDBPLACEHOLDER
  5
13
330
12
  0
DICTIONARY
  5
14
330
A
100
AcDbDictionary
281
1
  0
DICTIONARY
  5
15
330
A
100
AcDbDictionary
281
1
  0
DICTIONARY
  5
16
330
A
100
AcDbDictionary
281
1
  0
LAYOUT
  5
1A
330
D
100
AcDbPlotSettings
  1

  4
A3
  6

 40
7.5
 41
20.0
 42
7.5
 43
20.0
 44
420.0
 45
297.0
 46
0.0
 47
0.0
 48
0.0
 49
0.0
140
0.0
141
0.0
142
1.0
143
1.0
 70
1024
 72
1
 73
0
 74
5
  7

 75
16
 76
0
 77
2
 78
300
147
1.0
148
0.0
149
0.0
100
AcDbLayout
  1
Model
 70
1
 71
0
 10
0.0
 20
0.0
 11
420.0
 21
297.0
 12
0.0
 22
0.0
 32
0.0
 14
1e+20
 24
1e+20
 34
1e+20
 15
-1e+20
 25
-1e+20
 35
-1e+20
146
0.0
 13
0.0
 23
0.0
 33
0.0
 16
1.0
 26
0.0
 36
0.0
 17
0.0
 27
1.0
 37
0.0
 76
1
330
17
  0
LAYOUT
  5
1E
330
D
100
AcDbPlotSettings
  1

  4
A3
  6

 40
7.5
 41
20.0
 42
7.5
 43
20.0
 44
420.0
 45
297.0
 46
0.0
 47
0.0
 48
0.0
 49
0.0
140
0.0
141
0.0
142
1.0
143
1.0
 70
0
 72
1
 73
0
 74
5
  7

 75
16
 76
0
 77
2
 78
300
147
1.0
148
0.0
149
0.0
100
AcDbLayout
  1
Layout1
 70
1
 71
1
 10
0.0
 20
0.0
 11
420.0
 21
297.0
 12
0.0
 22
0.0
 32
0.0
 14
1e+20
 24
1e+20
 34
1e+20
 15
-1e+20
 25
-1e+20
 35
-1e+20
146
0.0
 13
0.0
 23
0.0
 33
0.0
 16
1.0
 26
0.0
 36
0.0
 17
0.0
 27
1.0
 37
0.0
 76
1
330
1B
  0
MATERIAL
  5
1F
102
{ACAD_REACTORS
330
E
102
}
330
E
100
AcDbMaterial
  1
ByBlock
  2

 70
0
 40
1.0
 71
1
 41
1.0
 91
-1023410177
 42
1.0
 72
1
  3

 73
1
 74
1
 75
1
 44
0.5
 73
0
 45
1.0
 46
1.0
 77
1
  4

 78
1
 79
1
170
1
 48
1.0
171
1
  6

172
1
173
1
174
1
140
1.0
141
1.0
175
1
  7

176
1
177
1
178
1
143
1.0
179
1
  8

270
1
271
1
272
1
145
1.0
146
1.0
273
1
  9

274
1
275
1
276
1
 42
1.0
 72
1
  3

 73
1
 74
1
 75
1
 94
63
  0
MATERIAL
  5
20
102
{ACAD_REACTORS
330
E
102
}
330
E
100
AcDbMaterial
  1
ByLayer
  2

 70
0
 40
1.0
 71
1
 41
1.0
 91
-1023410177
 42
1.0
 72
1
  3

 73
1
 74
1
 75
1
 44
0.5
 73
0
 45
1.0
 46
1.0
 77
1
  4

 78
1
 79
1
170
1
 48
1.0
171
1
  6

172
1
173
1
174
1
140
1.0
141
1.0
175
1
  7

176
1
177
1
178
1
143
1.0
179
1
  8

270
1
271
1
272
1
145
1.0
146
1.0
273
1
  9

274
1
275
1
276
1
 42
1.0
 72
1
  3

 73
1
 74
1
 75
1
 94
63
  0
MATERIAL
  5
21
102
{ACAD_REACTORS
330
E
102
}
330
E
100
AcDbMaterial
  1
Global
  2

 70
0
 40
1.0
 71
1
 41
1.0
 91
-1023410177
 42
1.0
 72
1
  3

 73
1
 74
1
 75
1
 44
0.5
 73
0
 45
1.0
 46
1.0
 77
1
  4

 78
1
 79
1
170
1
 48
1.0
171
1
  6

172
1
173
1
174
1
140
1.0
141
1.0
175
1
  7

176
1
177
1
178
1
143
1.0
179
1
  8

270
1
271
1
272
1
145
1.0
146
1.0
273
1
  9

274
1
275
1
276
1
 42
1.0
 72
1
  3

 73
1
 74
1
 75
1
 94
63
  0
MLINESTYLE
  5
22
102
{ACAD_REACTORS
330
10
102
}
330
10
100
AcDbMlineStyle
  2
Standard
 70
0
  3

 62
256
 51
90.0
 52
90.0
 71
2
 49
0.5
 62
256
  6
BYLAYER
 49
-0.5
 62
256
  6
BYLAYER
  0
MLEADERSTYLE
  5
2C
102
{ACAD_REACTORS
330
F
102
}
330
F
100
AcDbMLeaderStyle
179
2
170
2
171
1
172
0
 90
2
 40
0.0
 41
0.0
173
1
 91
-1056964608
 92
-2
290
1
 42
2.0
291
1
 43
8.0
  3
Standard
 44
4.0
300

342
29
174
1
175
1
176
0
178
1
 93
-1056964608
 45
4.0
292
0
297
0
 46
4.0
 94
-1056964608
 47
1.0
 49
1.0
140
1.0
294
1
141
0.0
177
0
142
1.0
295
0
296
0
143
3.75
271
0
272
9
273
9
  0
DICTIONARY
  5
2D
330
A
100
AcDbDictionary
280
1
281
1
  3
CREATED_BY_EZDXF
350
2E
  3
WRITTEN_BY_EZDXF
350
B0
  0
DICTIONARYVAR
  5
2E
330
2D
100
DictionaryVariables
280
0
  1
1.4.4 @ 2026-07-24T19:46:35.535154+00:00
  0
DICTIONARYVAR
  5
B0
330
2D
100
DictionaryVariables
280
0
  1
1.4.4 @ 2026-07-24T19:46:35.537375+00:00
  0
ENDSEC
  0
EOF
