  0
SECTION
  2
HEADER
  9
$ACADVER
  1
AC1027
  9
$ACADMAINTVER
 70
105
  9
$DWGCODEPAGE
  3
ANSI_1252
  9
$LASTSAVEDBY
  1
ezdxf
  9
$REQUIREDVERSIONS
160
0
  9
$INSBASE
 10
0.0
 20
0.0
 30
0.0
  9
$EXTMIN
 10
1e+20
 20
1e+20
 30
1e+20
  9
$EXTMAX
 10
-1e+20
 20
-1e+20
 30
-1e+20
  9
$LIMMIN
 10
0.0
 20
0.0
  9
$LIMMAX
 10
420.0
 20
297.0
  9
$ORTHOMODE
 70
0
  9
$REGENMODE
 70
1
  9
$FILLMODE
 70
1
  9
$QTEXTMODE
 70
0
  9
$MIRRTEXT
 70
1
  9
$LTSCALE
 40
1.0
  9
$ATTMODE
 70
1
  9
$TEXTSIZE
 40
2.5
  9
$TRACEWID
 40
1.0
  9
$TEXTSTYLE
  7
Standard
  9
$CLAYER
  8
0
  9
$CELTYPE
  6
ByLayer
  9
$CECOLOR
 62
256
  9
$CELTSCALE
 40
1.0
  9
$DISPSILH
 70
0
  9
$DIMSCALE
 40
1.0
  9
$DIMASZ
 40
2.5
  9
$DIMEXO
 40
0.625
  9
$DIMDLI
 40
3.75
  9
$DIMRND
 40
0.0
  9
$DIMDLE
 40
0.0
  9
$DIMEXE
 40
1.25
  9
$DIMTP
 40
0.0
  9
$DIMTM
 40
0.0
  9
$DIMTXT
 40
2.5
  9
$DIMCEN
 40
2.5
  9
$DIMTSZ
 40
0.0
  9
$DIMTOL
 70
0
  9
$DIMLIM
 70
0
  9
$DIMTIH
 70
0
  9
$DIMTOH
 70
0
  9
$DIMSE1
 70
0
  9
$DIMSE2
 70
0
  9
$DIMTAD
 70
1
  9
$DIMZIN
 70
8
  9
$DIMBLK
  1

  9
$DIMASO
 70
1
  9
$DIMSHO
 70
1
  9
$DIMPOST
  1

  9
$DIMAPOST
  1

  9
$DIMALT
 70
0
  9
$DIMALTD
 70
3
  9
$DIMALTF
 40
0.03937007874
  9
$DIMLFAC
 40
1.0
  9
$DIMTOFL
 70
1
  9
$DIMTVP
 40
0.0
  9
$DIMTIX
 70
0
  9
$DIMSOXD
 70
0
  9
$DIMSAH
 70
0
  9
$DIMBLK1
  1

  9
$DIMBLK2
  1

  9
$DIMSTYLE
  2
ISO-25
  9
$DIMCLRD
 70
0
  9
$DIMCLRE
 70
0
  9
$DIMCLRT
 70
0
  9
$DIMTFAC
 40
1.0
  9
$DIMGAP
 40
0.625
  9
$DIMJUST
 70
0
  9
$DIMSD1
 70
0
  9
$DIMSD2
 70
0
  9
$DIMTOLJ
 70
0
  9
$DIMTZIN
 70
8
  9
$DIMALTZ
 70
0
  9
$DIMALTTZ
 70
0
  9
$DIMUPT
 70
0
  9
$DIMDEC
 70
2
  9
$DIMTDEC
 70
2
  9
$DIMALTU
 70
2
  9
$DIMALTTD
 70
3
  9
$DIMTXSTY
  7
Standard
  9
$DIMAUNIT
 70
0
  9
$DIMADEC
 70
0
  9
$DIMALTRND
 40
0.0
  9
$DIMAZIN
 70
0
  9
$DIMDSEP
 70
44
  9
$DIMATFIT
 70
3
  9
$DIMFRAC
 70
0
  9
$DIMLDRBLK
  1

  9
$DIMLUNIT
 70
2
  9
$DIMLWD
 70
-2
  9
$DIMLWE
 70
-2
  9
$DIMTMOVE
 70
0
  9
$DIMFXL
 40
1.0
  9
$DIMFXLON
 70
0
  9
$DIMJOGANG
 40
0.785398163397
  9
$DIMTFILL
 70
0
  9
$DIMTFILLCLR
 70
0
  9
$DIMARCSYM
 70
0
  9
$DIMLTYPE
  6

  9
$DIMLTEX1
  6

  9
$DIMLTEX2
  6

  9
$DIMTXTDIRECTION
 70
0
  9
$LUNITS
 70
2
  9
$LUPREC
 70
4
  9
$SKETCHINC
 40
1.0
  9
$FILLETRAD
 40
10.0
  9
$AUNITS
 70
0
  9
$AUPREC
 70
2
  9
$MENU
  1
.
  9
$ELEVATION
 40
0.0
  9
$PELEVATION
 40
0.0
  9
$THICKNESS
 40
0.0
  9
$LIMCHECK
 70
0
  9
$CHAMFERA
 40
0.0
  9
$CHAMFERB
 40
0.0
  9
$CHAMFERC
 40
0.0
  9
$CHAMFERD
 40
0.0
  9
$SKPOLY
 70
0
  9
$TDCREATE
 40
2461246.532349537
  9
$TDUCREATE
 40
2458532.153996898
  9
$TDUPDATE
 40
2461246.532349537
  9
$TDUUPDATE
 40
2458532.1544311
  9
$TDINDWG
 40
0.0
  9
$TDUSRTIMER
 40
0.0
  9
$USRTIMER
 70
1
  9
$ANGBASE
 50
0.0
  9
$ANGDIR
 70
0
  9
$PDMODE
 70
0
  9
$PDSIZE
 40
0.0
  9
$PLINEWID
 40
0.0
  9
$SPLFRAME
 70
0
  9
$SPLINETYPE
 70
6
  9
$SPLINESEGS
 70
8
  9
$HANDSEED
  5
C1
  9
$SURFTAB1
 70
6
  9
$SURFTAB2
 70
6
  9
$SURFTYPE
 70
6
  9
$SURFU
 70
6
  9
$SURFV
 70
6
  9
$UCSBASE
  2

  9
$UCSNAME
  2

  9
$UCSORG
 10
0.0
 20
0.0
 30
0.0
  9
$UCSXDIR
 10
1.0
 20
0.0
 30
0.0
  9
$UCSYDIR
 10
0.0
 20
1.0
 30
0.0
  9
$UCSORTHOREF
  2

  9
$UCSORTHOVIEW
 70
0
  9
$UCSORGTOP
 10
0.0
 20
0.0
 30
0.0
  9
$UCSORGBOTTOM
 10
0.0
 20
0.0
 30
0.0
  9
$UCSORGLEFT
 10
0.0
 20
0.0
 30
0.0
  9
$UCSORGRIGHT
 10
0.0
 20
0.0
 30
0.0
  9
$UCSORGFRONT
 10
0.0
 20
0.0
 30
0.0
  9
$UCSORGBACK
 10
0.0
 20
0.0
 30
0.0
  9
$PUCSBASE
  2

  9
$PUCSNAME
  2

  9
$PUCSORG
 10
0.0
 20
0.0
 30
0.0
  9
$PUCSXDIR
 10
1.0
 20
0.0
 30
0.0
  9
$PUCSYDIR
 10
0.0
 20
1.0
 30
0.0
  9
$PUCSORTHOREF
  2

  9
$PUCSORTHOVIEW
 70
0
  9
$PUCSORGTOP
 10
0.0
 20
0.0
 30
0.0
  9
$PUCSORGBOTTOM
 10
0.0
 20
0.0
 30
0.0
  9
$PUCSORGLEFT
 10
0.0
 20
0.0
 30
0.0
  9
$PUCSORGRIGHT
 10
0.0
 20
0.0
 30
0.0
  9
$PUCSORGFRONT
 10
0.0
 20
0.0
 30
0.0
  9
$PUCSORGBACK
 10
0.0
 20
0.0
 30
0.0
  9
$USERI1
 70
0
  9
$USERI2
 70
0
  9
$USERI3
 70
0
  9
$USERI4
 70
0
  9
$USERI5
 70
0
  9
$USERR1
 40
0.0
  9
$USERR2
 40
0.0
  9
$USERR3
 40
0.0
  9
$USERR4
 40
0.0
  9
$USERR5
 40
0.0
  9
$WORLDVIEW
 70
1
  9
$SHADEDGE
 70
3
  9
$SHADEDIF
 70
70
  9
$TILEMODE
 70
1
  9
$MAXACTVP
 70
64
  9
$PINSBASE
 10
0.0
 20
0.0
 30
0.0
  9
$PLIMCHECK
 70
0
  9
$PEXTMIN
 10
1e+20
 20
1e+20
 30
1e+20
  9
$PEXTMAX
 10
-1e+20
 20
-1e+20
 30
-1e+20
  9
$PLIMMIN
 10
0.0
 20
0.0
  9
$PLIMMAX
 10
420.0
 20
297.0
  9
$UNITMODE
 70
0
  9
$VISRETAIN
 70
1
  9
$PLINEGEN
 70
0
  9
$PSLTSCALE
 70
1
  9
$TREEDEPTH
 70
3020
  9
$CMLSTYLE
  2
Standard
  9
$CMLJUST
 70
0
  9
$CMLSCALE
 40
20.0
  9
$PROXYGRAPHICS
 70
1
  9
$MEASUREMENT
 70
1
  9
$CELWEIGHT
370
-1
  9
$ENDCAPS
280
0
  9
$JOINSTYLE
280
0
  9
$LWDISPLAY
290
0
  9
$INSUNITS
 70
4
  9
$HYPERLINKBASE
  1

  9
$STYLESHEET
  1

  9
$XEDIT
290
1
  9
$CEPSNTYPE
380
0
  9
$PSTYLEMODE
290
1
  9
$FINGERPRINTGUID
  2
{C9E30B21-5DB5-43AA-8E95-23818F9C5315}
  9
$VERSIONGUID
  2
{D245A7A3-887B-4224-A6B6-55A902138975}
  9
$EXTNAMES
290
1
  9
$PSVPSCALE
 40
0.0
  9
$OLESTARTUP
290
0
  9
$SORTENTS
280
127
  9
$INDEXCTL
280
0
  9
$HIDETEXT
280
1
  9
$XCLIPFRAME
280
1
  9
$HALOGAP
280
0
  9
$OBSCOLOR
 70
257
  9
$OBSLTYPE
280
0
  9
$INTERSECTIONDISPLAY
280
0
  9
$INTERSECTIONCOLOR
 70
257
  9
$DIMASSOC
280
2
  9
$PROJECTNAME
  1

  9
$CAMERADISPLAY
290
0
  9
$LENSLENGTH
 40
50.0
  9
$CAMERAHEIGHT
 40
0.0
  9
$STEPSPERSEC
 40
24.0
  9
$STEPSIZE
 40
100.0
  9
$3DDWFPREC
 40
2.0
  9
$PSOLWIDTH
 40
0.005
  9
$PSOLHEIGHT
 40
0.08
  9
$LOFTANG1
 40
1.570796326795
  9
$LOFTANG2
 40
1.570796326795
  9
$LOFTMAG1
 40
0.0
  9
$LOFTMAG2
 40
0.0
  9
$LOFTPARAM
 70
7
  9
$LOFTNORMALS
280
1
  9
$LATITUDE
 40
37.795
  9
$LONGITUDE
 40
-122.394
  9
$NORTHDIRECTION
 40
0.0
  9
$TIMEZONE
 70
-8000
  9
$LIGHTGLYPHDISPLAY
280
1
  9
$TILEMODELIGHTSYNCH
280
1
  9
$CMATERIAL
347
20
  9
$SOLIDHIST
280
0
  9
$SHOWHIST
280
1
  9
$DWFFRAME
280
2
  9
$DGNFRAME
280
2
  9
$REALWORLDSCALE
290
1
  9
$INTERFERECOLOR
 62
256
  9
$CSHADOW
280
0
  9
$SHADOWPLANELOCATION
 40
0.0
  0
ENDSEC
  0
SECTION
  2
CLASSES
  0
CLASS
  1
ACDBDICTIONARYWDFLT
  2
AcDbDictionaryWithDefault
  3
ObjectDBX Classes
 90
0
 91
0
280
0
281
0
  0
CLASS
  1
SUN
  2
AcDbSun
  3
SCENEOE
 90
1153
 91
0
280
0
281
0
  0
CLASS
  1
VISUALSTYLE
  2
AcDbVisualStyle
  3
ObjectDBX Classes
 90
4095
 91
0
280
0
281
0
  0
CLASS
  1
MATERIAL
  2
AcDbMaterial
  3
ObjectDBX Classes
 90
1153
 91
0
280
0
281
0
  0
CLASS
  1
SCALE
  2
AcDbScale
  3
ObjectDBX Classes
 90
1153
 91
0
280
0
281
0
  0
CLASS
  1
TABLESTYLE
  2
AcDbTableStyle
  3
ObjectDBX Classes
 90
4095
 91
0
280
0
281
0
  0
CLASS
  1
MLEADERSTYLE
  2
AcDbMLeaderStyle
  3
ACDB_MLEADERSTYLE_CLASS
 90
4095
 91
0
280
0
281
0
  0
CLASS
  1
DICTIONARYVAR
  2
AcDbDictionaryVar
  3
ObjectDBX Classes
 90
0
 91
0
280
0
281
0
  0
CLASS
  1
CELLSTYLEMAP
  2
AcDbCellStyleMap
  3
ObjectDBX Classes
 90
1152
 91
0
280
0
281
0
  0
CLASS
  1
MENTALRAYRENDERSETTINGS
  2
AcDbMentalRayRenderSettings
  3
SCENEOE
 90
1024
 91
0
280
0
281
0
  0
CLASS
  1
ACDBDETAILVIEWSTYLE
  2
AcDbDetailViewStyle
  3
ObjectDBX Classes
 90
1025
 91
0
280
0
281
0
  0
CLASS
  1
ACDBSECTIONVIEWSTYLE
  2
AcDbSectionViewStyle
  3
ObjectDBX Classes
 90
1025
 91
0
280
0
281
0
  0
CLASS
  1
RASTERVARIABLES
  2
AcDbRasterVariables
  3
ISM
 90
0
 91
0
280
0
281
0
  0
CLASS
  1
ACDBPLACEHOLDER
  2
AcDbPlaceHolder
  3
ObjectDBX Classes
 90
0
 91
0
280
0
281
0
  0
CLASS
  1
LAYOUT
  2
AcDbLayout
  3
ObjectDBX Classes
 90
0
 91
0
280
0
281
0
  0
ENDSEC
  0
SECTION
  2
TABLES
  0
TABLE
  2
VPORT
  5
8
330
0
100
AcDbSymbolTable
 70
1
  0
VPORT
  5
23
330
8
100
AcDbSymbolTableRecord
100
AcDbViewportTableRecord
  2
*Active
 70
0
 10
0.0
 20
0.0
 11
1.0
 21
1.0
 12
0.0
 22
0.0
 13
0.0
 23
0.0
 14
0.5
 24
0.5
 15
0.5
 25
0.5
 16
0.0
 26
0.0
 36
1.0
 17
0.0
 27
0.0
 37
0.0
 40
1000.0
 41
1.34
 42
50.0
 43
0.0
 44
0.0
 50
0.0
 51
0.0
 71
0
 72
1000
 73
1
 74
3
 75
0
 76
0
 77
0
 78
0
281
0
 65
0
146
0.0
  0
ENDTAB
  0
TABLE
  2
LTYPE
  5
2
330
0
100
AcDbSymbolTable
 70
3
  0
LTYPE
  5
24
330
2
100
AcDbSymbolTableRecord
100
AcDbLinetypeTableRecord
  2
ByBlock
 70
0
  3

 72
65
 73
0
 40
0.0
  0
LTYPE
  5
25
330
2
100
AcDbSymbolTableRecord
100
AcDbLinetypeTableRecord
  2
ByLayer
 70
0
  3

 72
65
 73
0
 40
0.0
  0
LTYPE
  5
26
330
2
100
AcDbSymbolTableRecord
100
AcDbLinetypeTableRecord
  2
Continuous
 70
0
  3

 72
65
 73
0
 40
0.0
  0
ENDTAB
  0
TABLE
  2
LAYER
  5
1
330
0
100
AcDbSymbolTable
 70
7
  0
LAYER
  5
27
330
1
100
AcDbSymbolTableRecord
100
AcDbLayerTableRecord
  2
0
 70
0
 62
7
  6
Continuous
370
-3
390
13
347
21
  0
LAYER
  5
28
330
1
100
AcDbSymbolTableRecord
100
AcDbLayerTableRecord
  2
Defpoints
 70
0
 62
7
  6
Continuous
290
0
370
-3
390
13
347
21
  0
LAYER
  5
2F
330
1
100
AcDbSymbolTableRecord
100
AcDbLayerTableRecord
  2
CUT
 70
0
 62
7
  6
Continuous
370
-3
390
13
347
21
  0
LAYER
  5
30
330
1
100
AcDbSymbolTableRecord
100
AcDbLayerTableRecord
  2
POCKET
 70
0
 62
7
  6
Continuous
370
-3
390
13
347
21
  0
LAYER
  5
31
330
1
100
AcDbSymbolTableRecord
100
AcDbLayerTableRecord
  2
CHAMFER
 70
0
 62
7
  6
Continuous
370
-3
390
13
347
21
  0
LAYER
  5
32
330
1
100
AcDbSymbolTableRecord
100
AcDbLayerTableRecord
  2
COUNTERSINK
 70
0
 62
7
  6
Continuous
370
-3
390
13
347
21
  0
LAYER
  5
33
330
1
100
AcDbSymbolTableRecord
100
AcDbLayerTableRecord
  2
ANNOTATION
 70
0
 62
7
  6
Continuous
370
-3
390
13
347
21
  0
ENDTAB
  0
TABLE
  2
STYLE
  5
5
330
0
100
AcDbSymbolTable
 70
1
  0
STYLE
  5
29
330
5
100
AcDbSymbolTableRecord
100
AcDbTextStyleTableRecord
  2
Standard
 70
0
 40
0.0
 41
1.0
 50
0.0
 71
0
 42
2.5
  3
txt
  4

  0
ENDTAB
  0
TABLE
  2
VIEW
  5
7
330
0
100
AcDbSymbolTable
 70
0
  0
ENDTAB
  0
TABLE
  2
UCS
  5
6
330
0
100
AcDbSymbolTable
 70
0
  0
ENDTAB
  0
TABLE
  2
APPID
  5
3
330
0
100
AcDbSymbolTable
 70
3
  0
APPID
  5
2A
330
3
100
AcDbSymbolTableRecord
100
AcDbRegAppTableRecord
  2
ACAD
 70
0
  0
APPID
  5
BE
330
3
100
AcDbSymbolTableRecord
100
AcDbRegAppTableRecord
  2
HATCHBACKGROUNDCOLOR
 70
0
  0
APPID
  5
BF
330
3
100
AcDbSymbolTableRecord
100
AcDbRegAppTableRecord
  2
EZDXF
 70
0
  0
ENDTAB
  0
TABLE
  2
DIMSTYLE
  5
4
330
0
100
AcDbSymbolTable
 70
1
100
AcDbDimStyleTable
  0
DIMSTYLE
105
2B
330
4
100
AcDbSymbolTableRecord
100
AcDbDimStyleTableRecord
  2
Standard
 70
0
 40
1.0
 41
2.5
 42
0.625
 43
3.75
 44
1.25
 45
0.0
 46
0.0
 47
0.0
 48
0.0
 49
2.5
140
2.5
141
2.5
142
0.0
143
0.03937007874
144
1.0
145
0.0
146
1.0
147
0.625
148
0.0
 69
0
 70
0
 71
0
 72
0
 73
0
 74
0
 75
0
 76
0
 77
1
 78
8
 79
3
170
0
171
3
172
1
173
0
174
0
175
0
176
0
177
0
178
0
179
2
271
2
272
2
273
2
274
3
275
0
276
0
277
2
278
44
279
0
280
0
281
0
282
0
283
0
284
8
285
0
286
0
288
0
289
3
290
0
371
-2
372
-2
  0
ENDTAB
  0
TABLE
  2
BLOCK_RECORD
  5
9
330
0
100
AcDbSymbolTable
 70
2
  0
BLOCK_RECORD
  5
17
330
9
100
AcDbSymbolTableRecord
100
AcDbBlockTableRecord
  2
*Model_Space
340
1A
 70
0
280
1
281
0
  0
BLOCK_RECORD
  5
1B
330
9
100
AcDbSymbolTableRecord
100
AcDbBlockTableRecord
  2
*Paper_Space
340
1E
 70
0
280
1
281
0
  0
ENDTAB
  0
ENDSEC
  0
SECTION
  2
BLOCKS
  0
BLOCK
  5
18
330
17
100
AcDbEntity
  8
0
100
AcDbBlockBegin
  2
*Model_Space
 70
0
 10
0.0
 20
0.0
 30
0.0
  3
*Model_Space
  1

  0
ENDBLK
  5
19
330
17
100
AcDbEntity
  8
0
100
AcDbBlockEnd
  0
BLOCK
  5
1C
330
1B
100
AcDbEntity
  8
0
100
AcDbBlockBegin
  2
*Paper_Space
 70
0
 10
0.0
 20
0.0
 30
0.0
  3
*Paper_Space
  1

  0
ENDBLK
  5
1D
330
1B
100
AcDbEntity
  8
0
100
AcDbBlockEnd
  0
ENDSEC
  0
SECTION
  2
ENTITIES
  0
LINE
  5
34
330
17
100
AcDbEntity
  8
CUT
100
AcDbLine
 10
58.6714109702566
 20
38.000000000000114
 30
0.0
 11
58.6714109702566
 21
43.023040590563426
 31
0.0
  0
ARC
  5
35
330
17
100
AcDbEntity
  8
CUT
100
AcDbCircle
 10
56.6714109702566
 20
43.023040590563426
 30
0.0
 40
2.0
100
AcDbArc
 50
0.0
 51
62.46912953543822
  0
LINE
  5
36
330
17
100
AcDbEntity
  8
CUT
100
AcDbLine
 10
64.06677720310654
 20
38.000000000000114
 30
0.0
 11
64.06677720310654
 21
40.000000000000114
 31
0.0
  0
ARC
  5
37
330
17
100
AcDbEntity
  8
CUT
100
AcDbCircle
 10
63.266777203106585
 20
38.000000000000114
 30
0.0
 40
0.8
100
AcDbArc
 50
180.0
 51
0.0
  0
ARC
  5
38
330
17
100
AcDbEntity
  8
CUT
100
AcDbCircle
 10
59.47141097025656
 20
38.000000000000114
 30
0.0
 40
0.8
100
AcDbArc
 50
180.0
 51
0.0
  0
LINE
  5
39
330
17
100
AcDbEntity
  8
CUT
100
AcDbLine
 10
64.44104574278549
 20
15.226505636892398
 30
0.0
 11
74.52979833518657
 21
36.86190539060783
 31
0.0
  0
LINE
  5
3A
330
17
100
AcDbEntity
  8
CUT
100
AcDbLine
 10
60.2714109702556
 20
38.000000000000114
 30
0.0
 11
62.46677720310754
 21
38.000000000000114
 31
0.0
  0
LINE
  5
3B
330
17
100
AcDbEntity
  8
CUT
100
AcDbLine
 10
64.56677720310654
 20
40.5
 30
0.0
 11
69.51676031249849
 21
40.5
 31
0.0
  0
ARC
  5
3C
330
17
100
AcDbEntity
  8
CUT
100
AcDbCircle
 10
64.56677720310654
 20
40.000000000000114
 30
0.0
 40
0.5
100
AcDbArc
 50
90.0
 51
180.0
  0
LINE
  5
3D
330
17
100
AcDbEntity
  8
CUT
100
AcDbLine
 10
59.380430860221395
 20
33.777282304429775
 30
0.0
 11
53.16743872271945
 21
35.25912014139158
 31
0.0
  0
ARC
  5
3E
330
17
100
AcDbEntity
  8
CUT
100
AcDbCircle
 10
52.93543980700042
 20
34.28640409695441
 30
0.0
 40
1.0
100
AcDbArc
 50
76.58521511107966
 51
190.148597259192
  0
LINE
  5
3F
330
17
100
AcDbEntity
  8
CUT
100
AcDbLine
 10
53.57518652620456
 20
25.037133027699383
 30
0.0
 11
51.95108572407253
 21
34.11020239598838
 31
0.0
  0
LINE
  5
40
330
17
100
AcDbEntity
  8
CUT
100
AcDbLine
 10
59.61242977593952
 20
33.749998348866995
 30
0.0
 11
67.86595684041959
 21
33.749998348866995
 31
0.0
  0
ARC
  5
41
330
17
100
AcDbEntity
  8
CUT
100
AcDbCircle
 10
59.61242977593952
 20
34.749998348866995
 30
0.0
 40
1.0
100
AcDbArc
 50
256.5852151110796
 51
270.0
  0
LINE
  5
42
330
17
100
AcDbEntity
  8
CUT
100
AcDbLine
 10
51.4671956888576
 20
45.737788278993776
 30
0.0
 11
47.59193585841058
 21
47.75777537525329
 31
0.0
  0
ARC
  5
43
330
17
100
AcDbEntity
  8
CUT
100
AcDbCircle
 10
50.773855999060515
 20
44.407645401497916
 30
0.0
 40
1.499999999999999
100
AcDbArc
 50
242.4691295353333
 51
62.46912953533326
  0
LINE
  5
44
330
17
100
AcDbEntity
  8
CUT
100
AcDbLine
 10
57.595863889986504
 20
44.796564427224496
 30
0.0
 11
22.249961755043614
 21
63.22068805818958
 31
0.0
  0
LINE
  5
45
330
17
100
AcDbEntity
  8
CUT
100
AcDbLine
 10
50.080516309260474
 20
43.07750252400143
 30
0.0
 11
46.205256478817546
 21
45.0974896202618
 31
0.0
  0
LINE
  5
46
330
17
100
AcDbEntity
  8
CUT
100
AcDbLine
 10
70.01676031250258
 20
38.000000000000114
 30
0.0
 11
70.0167603124994
 21
40.000000000000114
 31
0.0
  0
ARC
  5
47
330
17
100
AcDbEntity
  8
CUT
100
AcDbCircle
 10
69.51676031249849
 20
40.000000000000114
 30
0.0
 40
0.5
100
AcDbArc
 50
5.21102e-11
 51
90.0
  0
ARC
  5
48
330
17
100
AcDbEntity
  8
CUT
100
AcDbCircle
 10
70.8167603125014
 20
38.000000000000114
 30
0.0
 40
0.8
100
AcDbArc
 50
180.0
 51
0.0
  0
LINE
  5
49
330
17
100
AcDbEntity
  8
CUT
100
AcDbLine
 10
71.61676031250158
 20
38.000000000000114
 30
0.0
 11
73.80475210555755
 21
38.000000000000114
 31
0.0
  0
LINE
  5
4A
330
17
100
AcDbEntity
  8
CUT
100
AcDbLine
 10
67.75517866424548
 20
30.146232200268116
 30
0.0
 11
68.77226462745762
 21
32.327380087126585
 31
0.0
  0
ARC
  5
4B
330
17
100
AcDbEntity
  8
CUT
100
AcDbCircle
 10
66.84887087720745
 20
30.56885046201029
 30
0.0
 40
1.0
100
AcDbArc
 50
293.5468889045131
 51
335.0000000000065
  0
ARC
  5
4C
330
17
100
AcDbEntity
  8
CUT
100
AcDbCircle
 10
67.86595684041959
 20
32.749998348866995
 30
0.0
 40
1.0
100
AcDbArc
 50
335.0000000000065
 51
90.0
  0
LINE
  5
4D
330
17
100
AcDbEntity
  8
CUT
100
AcDbLine
 10
67.24837030309345
 20
29.65211701726372
 30
0.0
 11
54.95904003501846
 21
24.296601283917028
 31
0.0
  0
LINE
  5
4E
330
17
100
AcDbEntity
  8
CUT
100
AcDbLine
 10
60.5790234461806
 20
5.5
 30
0.0
 11
60.5790234461806
 21
8.0
 31
0.0
  0
ARC
  5
4F
330
17
100
AcDbEntity
  8
CUT
100
AcDbCircle
 10
61.37902344617942
 20
8.0
 30
0.0
 40
0.8
100
AcDbArc
 50
0.0
 51
180.0
  0
ARC
  5
50
330
17
100
AcDbEntity
  8
CUT
100
AcDbCircle
 10
65.34735352982352
 20
14.803887375152101
 30
0.0
 40
1.0
100
AcDbArc
 50
155.0000000000065
 51
227.5325287678227
  0
LINE
  5
51
330
17
100
AcDbEntity
  8
CUT
100
AcDbLine
 10
62.17902344617846
 20
8.0
 30
0.0
 11
69.30066368299754
 21
8.0
 31
0.0
  0
ARC
  5
52
330
17
100
AcDbEntity
  8
CUT
100
AcDbCircle
 10
69.30066368299754
 20
8.79999999999933
 30
0.0
 40
0.8
100
AcDbArc
 50
270.0
 51
29.26206558727368
  0
ARC
  5
53
330
17
100
AcDbEntity
  8
CUT
100
AcDbCircle
 10
73.80475210555755
 20
37.199999999999875
 30
0.0
 40
0.8
100
AcDbArc
 50
335.000000000088
 51
90.0
  0
LINE
  5
54
330
17
100
AcDbEntity
  8
CUT
100
AcDbLine
 10
63.25742392420352
 20
24.640430344937215
 30
0.0
 11
57.8005908628636
 21
22.262419934542777
 31
0.0
  0
ARC
  5
55
330
17
100
AcDbEntity
  8
CUT
100
AcDbCircle
 10
58.200090288750516
 20
21.34568648979632
 30
0.0
 40
1.0
100
AcDbArc
 50
113.546888904513
 51
227.5325287678227
  0
LINE
  5
56
330
17
100
AcDbEntity
  8
CUT
100
AcDbLine
 10
62.15372912154453
 20
18.133884891058187
 30
0.0
 11
64.56323113712756
 21
23.301078638449383
 31
0.0
  0
ARC
  5
57
330
17
100
AcDbEntity
  8
CUT
100
AcDbCircle
 10
61.2474213345065
 20
18.556503152800417
 30
0.0
 40
1.0
100
AcDbArc
 50
227.5325287678227
 51
335.0000000000065
  0
ARC
  5
58
330
17
100
AcDbEntity
  8
CUT
100
AcDbCircle
 10
63.65692335009044
 20
23.72369690018968
 30
0.0
 40
1.0
100
AcDbArc
 50
335.0000000000065
 51
113.546888904513
  0
LINE
  5
59
330
17
100
AcDbEntity
  8
CUT
100
AcDbLine
 10
60.56618352792657
 20
11.401848064078877
 30
0.0
 11
37.67661696692653
 21
11.401848064078877
 31
0.0
  0
LINE
  5
5A
330
17
100
AcDbEntity
  8
CUT
100
AcDbLine
 10
69.99857815644054
 20
9.191043971643978
 30
0.0
 11
64.6721820085495
 21
14.066226601586095
 31
0.0
  0
LINE
  5
5B
330
17
100
AcDbEntity
  8
CUT
100
AcDbLine
 10
60.572249813232474
 20
17.818842379233615
 30
0.0
 11
57.52491876747649
 21
20.608025716229804
 31
0.0
  0
LINE
  5
5C
330
17
100
AcDbEntity
  8
CUT
100
AcDbLine
 10
61.241355049199456
 20
13.139508837646702
 30
0.0
 11
53.858373047378564
 21
19.897058335105214
 31
0.0
  0
ARC
  5
5D
330
17
100
AcDbEntity
  8
CUT
100
AcDbCircle
 10
60.56618352792657
 20
12.401848064078877
 30
0.0
 40
1.0
100
AcDbArc
 50
270.0
 51
47.53252876782273
  0
LINE
  5
5E
330
17
100
AcDbEntity
  8
CUT
100
AcDbLine
 10
49.58378073108361
 20
30.309253478081985
 30
0.0
 11
49.05405779682951
 21
33.26856051257079
 31
0.0
  0
ARC
  5
5F
330
17
100
AcDbEntity
  8
CUT
100
AcDbCircle
 10
48.599426648155486
 20
30.133051777117203
 30
0.0
 40
1.0
100
AcDbArc
 50
227.5325287678043
 51
10.14859725918563
  0
ARC
  5
60
330
17
100
AcDbEntity
  8
CUT
100
AcDbCircle
 10
48.06970371390162
 20
33.09235881160589
 30
0.0
 40
1.0
100
AcDbArc
 50
10.14859725918563
 51
124.0115673761381
  0
LINE
  5
61
330
17
100
AcDbEntity
  8
CUT
100
AcDbLine
 10
48.090696974562434
 20
38.6503936818184
 30
0.0
 11
47.63053687604247
 21
41.22108663935961
 31
0.0
  0
ARC
  5
62
330
17
100
AcDbEntity
  8
CUT
100
AcDbCircle
 10
46.646182793114576
 20
41.04488493839409
 30
0.0
 40
1.0
100
AcDbArc
 50
10.14859725921243
 51
62.46912953543822
  0
ARC
  5
63
330
17
100
AcDbEntity
  8
CUT
100
AcDbCircle
 10
47.10634289163454
 20
38.47419198085299
 30
0.0
 40
1.0
100
AcDbArc
 50
304.0115673761381
 51
10.14859725919846
  0
LINE
  5
64
330
17
100
AcDbEntity
  8
CUT
100
AcDbLine
 10
47.92425512688146
 20
29.395391003550117
 30
0.0
 11
45.838356734968556
 21
31.304587264159522
 31
0.0
  0
ARC
  5
65
330
17
100
AcDbEntity
  8
CUT
100
AcDbCircle
 10
46.51352825624258
 20
32.04224803772661
 30
0.0
 40
1.0
100
AcDbArc
 50
124.0115673761381
 51
227.5325287678043
  0
LINE
  5
66
330
17
100
AcDbEntity
  8
CUT
100
AcDbLine
 10
49.82147217203442
 20
23.59198234748112
 30
0.0
 11
42.92593150789048
 21
29.90338298995772
 31
0.0
  0
LINE
  5
67
330
17
100
AcDbEntity
  8
CUT
100
AcDbLine
 10
43.27944734699145
 20
34.685411822624815
 30
0.0
 11
47.665703157110556
 21
37.64526731997648
 31
0.0
  0
LINE
  5
68
330
17
100
AcDbEntity
  8
CUT
100
AcDbLine
 10
45.954167990766564
 20
32.87117269860278
 30
0.0
 11
47.51034344842856
 21
33.921283472482685
 31
0.0
  0
LINE
  5
69
330
17
100
AcDbEntity
  8
CUT
100
AcDbLine
 10
47.10840925297862
 20
41.93164685672451
 30
0.0
 11
41.79758221122347
 21
44.69992629195849
 31
0.0
  0
ARC
  5
6A
330
17
100
AcDbEntity
  8
CUT
100
AcDbCircle
 10
54.559540609132455
 20
25.213334728663597
 30
0.0
 40
1.0
100
AcDbArc
 50
190.148597259192
 51
293.5468889045131
  0
LINE
  5
6B
330
17
100
AcDbEntity
  8
CUT
100
AcDbLine
 10
49.5458000766464
 20
21.93758812916718
 30
0.0
 11
33.76228081820341
 21
15.059354419738213
 31
0.0
  0
ARC
  5
6C
330
17
100
AcDbEntity
  8
CUT
100
AcDbCircle
 10
49.146300650759486
 20
22.854321573913808
 30
0.0
 40
1.0
100
AcDbArc
 50
293.5468889045131
 51
47.53252876778592
  0
LINE
  5
6D
330
17
100
AcDbEntity
  8
CUT
100
AcDbLine
 10
52.7837021002174
 20
20.07613100628538
 30
0.0
 11
37.277117541039615
 21
13.318581508825503
 31
0.0
  0
ARC
  5
6E
330
17
100
AcDbEntity
  8
CUT
100
AcDbCircle
 10
53.18320152610454
 20
19.15939756153881
 30
0.0
 40
1.0
100
AcDbArc
 50
47.53252876782273
 51
113.546888904513
  0
LINE
  5
6F
330
17
100
AcDbEntity
  8
CUT
100
AcDbLine
 10
42.04491556024141
 20
34.77667570993373
 30
0.0
 11
36.33947788951741
 21
39.99879022342532
 31
0.0
  0
ARC
  5
70
330
17
100
AcDbEntity
  8
CUT
100
AcDbCircle
 10
46.89859616860849
 20
46.427632497757486
 30
0.0
 40
1.499999999999999
100
AcDbArc
 50
62.46912953533326
 51
242.4691295353333
  0
ARC
  5
71
330
17
100
AcDbEntity
  8
CUT
100
AcDbCircle
 10
41.33535575136057
 20
43.813164373628126
 30
0.0
 40
1.0
100
AcDbArc
 50
62.46912953543822
 51
125.4541259168293
  0
LINE
  5
72
330
17
100
AcDbEntity
  8
CUT
100
AcDbLine
 10
36.43459846581959
 20
41.551031196380904
 30
0.0
 11
40.75530480638554
 21
44.62774457301623
 31
0.0
  0
LINE
  5
73
330
17
100
AcDbEntity
  8
CUT
100
AcDbLine
 10
5.187452664811417
 20
31.571394246619775
 30
0.0
 11
19.512893261240606
 21
62.29240074500973
 31
0.0
  0
LINE
  5
74
330
17
100
AcDbEntity
  8
POCKET
100
AcDbLine
 10
13.006221171619472
 20
36.5077895035663
 30
0.0
 11
20.961262157013607
 21
53.567429949686584
 31
0.0
  0
LINE
  5
75
330
17
100
AcDbEntity
  8
POCKET
100
AcDbLine
 10
19.993883106422572
 20
56.225282047241194
 30
0.0
 11
17.27495974531257
 21
57.49313683246402
 31
0.0
  0
ARC
  5
76
330
17
100
AcDbEntity
  8
POCKET
100
AcDbCircle
 10
19.14864658294141
 20
54.41266647316729
 30
0.0
 40
2.0
100
AcDbArc
 50
335.0000000000006
 51
64.99999999990737
  0
CIRCLE
  5
77
330
17
100
AcDbEntity
  8
CUT
100
AcDbCircle
 10
21.72394048495653
 20
60.436962110463185
 30
0.0
 40
1.5
  0
LINE
  5
78
330
17
100
AcDbEntity
  8
CUT
100
AcDbLine
 10
39.132490333167425
 20
33.37547143573329
 30
0.0
 11
35.028706275028526
 21
37.13161277440969
 31
0.0
  0
ARC
  5
79
330
17
100
AcDbEntity
  8
CUT
100
AcDbCircle
 10
34.3535347537545
 20
36.393952000842376
 30
0.0
 40
1.0
100
AcDbArc
 50
47.53252876780434
 51
155.0099592415656
  0
ARC
  5
7A
330
17
100
AcDbEntity
  8
CUT
100
AcDbCircle
 10
21.325508835314395
 20
61.44716422152828
 30
0.0
 40
2.0
100
AcDbArc
 50
62.46912953543822
 51
154.9999999999802
  0
LINE
  5
7B
330
17
100
AcDbEntity
  8
CUT
100
AcDbLine
 10
17.636291770175603
 20
40.50493182299988
 30
0.0
 11
25.79372287175056
 21
36.70278534725941
 31
0.0
  0
LINE
  5
7C
330
17
100
AcDbEntity
  8
CUT
100
AcDbLine
 10
18.4812132092286
 20
42.3176942900177
 30
0.0
 11
26.638644310807422
 21
38.51554781427541
 31
0.0
  0
LINE
  5
7D
330
17
100
AcDbEntity
  8
CUT
100
AcDbLine
 10
21.015977526390543
 20
47.755981691072975
 30
0.0
 11
29.173408627970502
 21
43.9538352153271
 31
0.0
  0
LINE
  5
7E
330
17
100
AcDbEntity
  8
CUT
100
AcDbLine
 10
20.171056087337547
 20
45.94321922405521
 30
0.0
 11
28.328487188917507
 21
42.14107274831281
 31
0.0
  0
ARC
  5
7F
330
17
100
AcDbEntity
  8
CUT
100
AcDbCircle
 10
20.593516806866546
 20
46.84960045756321
 30
0.0
 40
1.000000000001718
100
AcDbArc
 50
65.00995924148106
 51
245.009959241481
  0
ARC
  5
80
330
17
100
AcDbEntity
  8
CUT
100
AcDbCircle
 10
28.750947908441503
 20
43.0474539818191
 30
0.0
 40
1.000000000001718
100
AcDbArc
 50
245.009959241481
 51
65.00995924148106
  0
ARC
  5
81
330
17
100
AcDbEntity
  8
CUT
100
AcDbCircle
 10
18.058752489703465
 20
41.41131305651163
 30
0.0
 40
1.000000000001718
100
AcDbArc
 50
65.00995924148106
 51
245.009959241481
  0
ARC
  5
82
330
17
100
AcDbEntity
  8
CUT
100
AcDbCircle
 10
26.21618359127956
 20
37.60916658076741
 30
0.0
 40
1.000000000001718
100
AcDbArc
 50
245.009959241481
 51
65.00995924148106
  0
LINE
  5
83
330
17
100
AcDbEntity
  8
CUT
100
AcDbLine
 10
29.010163660282615
 20
27.29693752076713
 30
0.0
 11
33.4471535202465
 21
36.8164127203687
 31
0.0
  0
LINE
  5
84
330
17
100
AcDbEntity
  8
CUT
100
AcDbLine
 10
28.687793079666562
 20
47.42906296212283
 30
0.0
 11
34.12608048072252
 21
44.894298644964124
 31
0.0
  0
LINE
  5
85
330
17
100
AcDbEntity
  8
CUT
100
AcDbLine
 10
29.532714518723424
 20
49.241825429140704
 30
0.0
 11
34.97100191977552
 21
46.70706111198001
 31
0.0
  0
ARC
  5
86
330
17
100
AcDbEntity
  8
CUT
100
AcDbCircle
 10
29.110253799198517
 20
48.33544419563441
 30
0.0
 40
1.000000000001718
100
AcDbArc
 50
65.00995924148106
 51
245.009959241481
  0
ARC
  5
87
330
17
100
AcDbEntity
  8
CUT
100
AcDbCircle
 10
34.54854120025061
 20
45.800679878472124
 30
0.0
 40
1.000000000001718
100
AcDbArc
 50
245.009959241481
 51
65.00995924148106
  0
ARC
  5
88
330
17
100
AcDbEntity
  8
CUT
100
AcDbCircle
 10
37.014649410791435
 20
40.7364509969928
 30
0.0
 40
1.0
100
AcDbArc
 50
125.4541259167316
 51
227.5325287678043
  0
LINE
  5
89
330
17
100
AcDbEntity
  8
CUT
100
AcDbLine
 10
55.12904033678342
 20
5.0
 30
0.0
 11
60.0790234461806
 21
5.0
 31
0.0
  0
ARC
  5
8A
330
17
100
AcDbEntity
  8
CUT
100
AcDbCircle
 10
55.12904033678342
 20
5.5
 30
0.0
 40
0.5
100
AcDbArc
 50
180.0
 51
270.0
  0
LINE
  5
8B
330
17
100
AcDbEntity
  8
CUT
100
AcDbLine
 10
54.62904033678342
 20
5.5
 30
0.0
 11
54.62904033678342
 21
8.0
 31
0.0
  0
ARC
  5
8C
330
17
100
AcDbEntity
  8
CUT
100
AcDbCircle
 10
60.0790234461806
 20
5.5
 30
0.0
 40
0.5
100
AcDbArc
 50
270.0
 51
0.0
  0
ARC
  5
8D
330
17
100
AcDbEntity
  8
CUT
100
AcDbCircle
 10
53.8290403367846
 20
8.0
 30
0.0
 40
0.8
100
AcDbArc
 50
0.0
 51
180.0
  0
LINE
  5
8E
330
17
100
AcDbEntity
  8
CUT
100
AcDbLine
 10
48.59498269880555
 20
8.0
 30
0.0
 11
53.029040336785556
 21
8.0
 31
0.0
  0
LINE
  5
8F
330
17
100
AcDbEntity
  8
CUT
100
AcDbLine
 10
41.54499958941051
 20
5.0
 30
0.0
 11
46.49498269880655
 21
5.0
 31
0.0
  0
ARC
  5
90
330
17
100
AcDbEntity
  8
CUT
100
AcDbCircle
 10
41.54499958941051
 20
5.5
 30
0.0
 40
0.5
100
AcDbArc
 50
180.0
 51
270.0
  0
LINE
  5
91
330
17
100
AcDbEntity
  8
CUT
100
AcDbLine
 10
35.409960587183605
 20
5.5
 30
0.0
 11
35.409960587183605
 21
8.0
 31
0.0
  0
ARC
  5
92
330
17
100
AcDbEntity
  8
CUT
100
AcDbCircle
 10
34.909960587183605
 20
5.5
 30
0.0
 40
0.5
100
AcDbArc
 50
270.0
 51
0.0
  0
LINE
  5
93
330
17
100
AcDbEntity
  8
CUT
100
AcDbLine
 10
31.777698261162413
 20
5.0
 30
0.0
 11
34.909960587183605
 21
5.0
 31
0.0
  0
ARC
  5
94
330
17
100
AcDbEntity
  8
CUT
100
AcDbCircle
 10
31.777698261162413
 20
7.000000000000114
 30
0.0
 40
2.0
100
AcDbArc
 50
226.2418718880904
 51
270.0
  0
LINE
  5
95
330
17
100
AcDbEntity
  8
CUT
100
AcDbLine
 10
41.04499958941051
 20
5.5
 30
0.0
 11
41.04499958941051
 21
8.0
 31
0.0
  0
LINE
  5
96
330
17
100
AcDbEntity
  8
CUT
100
AcDbLine
 10
46.99498269880655
 20
5.5
 30
0.0
 11
46.99498269880655
 21
8.0
 31
0.0
  0
ARC
  5
97
330
17
100
AcDbEntity
  8
CUT
100
AcDbCircle
 10
46.49498269880655
 20
5.5
 30
0.0
 40
0.5
100
AcDbArc
 50
270.0
 51
0.0
  0
ARC
  5
98
330
17
100
AcDbEntity
  8
CUT
100
AcDbCircle
 10
47.7949826988056
 20
8.0
 30
0.0
 40
0.8
100
AcDbArc
 50
0.0
 51
180.0
  0
ARC
  5
99
330
17
100
AcDbEntity
  8
CUT
100
AcDbCircle
 10
40.244999589410554
 20
8.0
 30
0.0
 40
0.8
100
AcDbArc
 50
0.0
 51
180.0
  0
ARC
  5
9A
330
17
100
AcDbEntity
  8
CUT
100
AcDbCircle
 10
36.20996058718242
 20
8.0
 30
0.0
 40
0.8
100
AcDbArc
 50
0.0
 51
180.0
  0
LINE
  5
9B
330
17
100
AcDbEntity
  8
CUT
100
AcDbLine
 10
37.00996058718147
 20
8.0
 30
0.0
 11
39.44499958941151
 21
8.0
 31
0.0
  0
ARC
  5
9C
330
17
100
AcDbEntity
  8
CUT
100
AcDbCircle
 10
32.963281966430486
 20
16.892821309230897
 30
0.0
 40
2.0
100
AcDbArc
 50
226.2418718880904
 51
293.5468889045131
  0
ARC
  5
9D
330
17
100
AcDbEntity
  8
CUT
100
AcDbCircle
 10
37.67661696692653
 20
12.401848064078877
 30
0.0
 40
1.0
100
AcDbArc
 50
113.546888904513
 51
270.0
  0
ARC
  5
9E
330
17
100
AcDbEntity
  8
CUT
100
AcDbCircle
 10
30.439651857040417
 20
11.575372782202976
 30
0.0
 40
1.499999999999999
100
AcDbArc
 50
226.2418718878047
 51
46.24187188810881
  0
LINE
  5
9F
330
17
100
AcDbEntity
  8
CUT
100
AcDbLine
 10
29.063818526179602
 20
14.969618369235889
 30
0.0
 11
31.477075144613536
 21
12.658771564925814
 31
0.0
  0
LINE
  5
A0
330
17
100
AcDbEntity
  8
CUT
100
AcDbLine
 10
5.616837188790441
 20
29.28162601284231
 30
0.0
 11
30.39446721106856
 21
5.555468289703185
 31
0.0
  0
LINE
  5
A1
330
17
100
AcDbEntity
  8
CUT
100
AcDbLine
 10
27.744359819369492
 20
19.121207947544804
 30
0.0
 11
31.580050916336404
 21
15.448289598934082
 31
0.0
  0
ARC
  5
A2
330
17
100
AcDbEntity
  8
CUT
100
AcDbCircle
 10
42.72008708151543
 20
35.51433648350098
 30
0.0
 40
1.0
100
AcDbArc
 50
227.5325287678043
 51
304.0115673761381
  0
ARC
  5
A3
330
17
100
AcDbEntity
  8
CUT
100
AcDbCircle
 10
42.25075998661646
 20
29.165722216390577
 30
0.0
 40
1.0
100
AcDbArc
 50
47.53252876778592
 51
124.0115673761381
  0
LINE
  5
A4
330
17
100
AcDbEntity
  8
CUT
100
AcDbLine
 10
27.876615078943587
 20
20.67239846356972
 30
0.0
 11
41.69139972114249
 21
29.994646877267428
 31
0.0
  0
ARC
  5
A5
330
17
100
AcDbEntity
  8
CUT
100
AcDbCircle
 10
38.4573188118934
 20
32.6378106621662
 30
0.0
 40
1.0
100
AcDbArc
 50
304.0115673761381
 51
47.53252876780434
  0
LINE
  5
A6
330
17
100
AcDbEntity
  8
CUT
100
AcDbLine
 10
30.475905159264585
 20
26.045552140364805
 30
0.0
 11
39.0166790773676
 21
31.808886001289977
 31
0.0
  0
ARC
  5
A7
330
17
100
AcDbEntity
  8
CUT
100
AcDbCircle
 10
28.026395238606483
 20
13.886219586513107
 30
0.0
 40
1.499999999999999
100
AcDbArc
 50
46.2418718878047
 51
226.2418718881088
  0
LINE
  5
A8
330
17
100
AcDbEntity
  8
CUT
100
AcDbLine
 10
26.988971951037456
 20
12.80282080378862
 30
0.0
 11
29.402228569471617
 21
10.491973999478489
 31
0.0
  0
ARC
  5
A9
330
17
100
AcDbEntity
  8
CUT
100
AcDbCircle
 10
29.916544893790615
 20
26.87447680124103
 30
0.0
 40
1.0
100
AcDbArc
 50
155.0099592415656
 51
304.0115673761381
  0
ARC
  5
AA
330
17
100
AcDbEntity
  8
CUT
100
AcDbCircle
 10
28.43597534441642
 20
19.84347380269321
 30
0.0
 40
1.0
100
AcDbArc
 50
124.0115673761381
 51
226.2418718880904
  0
ARC
  5
AB
330
17
100
AcDbEntity
  8
CUT
100
AcDbCircle
 10
27.78612097991754
 20
31.300001324259483
 30
0.0
 40
1.000000000001718
100
AcDbArc
 50
245.009959241481
 51
65.00995924148106
  0
ARC
  5
AC
330
17
100
AcDbEntity
  8
CUT
100
AcDbCircle
 10
7.000068238885433
 20
30.726157723138613
 30
0.0
 40
2.0
100
AcDbArc
 50
154.9999999999802
 51
226.2418718880904
  0
ARC
  5
AD
330
17
100
AcDbEntity
  8
POCKET
100
AcDbCircle
 10
11.19360559754341
 20
37.35302602704803
 30
0.0
 40
2.0
100
AcDbArc
 50
244.9999999999074
 51
335.0000000000006
  0
LINE
  5
AE
330
17
100
AcDbEntity
  8
POCKET
100
AcDbLine
 10
10.348369074062475
 20
35.540410452974186
 30
0.0
 11
7.629445712953611
 21
36.8082652381961
 31
0.0
  0
LINE
  5
AF
330
17
100
AcDbEntity
  8
CUT
100
AcDbLine
 10
17.12346446810443
 20
28.40047721850209
 30
0.0
 11
22.400677078814397
 21
23.347210274581414
 31
0.0
  0
ARC
  5
B0
330
17
100
AcDbEntity
  8
CUT
100
AcDbCircle
 10
17.815079993151585
 20
29.122743073650383
 30
0.0
 40
1.0
100
AcDbArc
 50
155.0099592415597
 51
226.2418718880904
  0
ARC
  5
B1
330
17
100
AcDbEntity
  8
CUT
100
AcDbCircle
 10
23.09229260386155
 20
24.06947612972948
 30
0.0
 40
1.0
100
AcDbArc
 50
226.2418718880904
 51
335.0099592415598
  0
ARC
  5
B2
330
17
100
AcDbEntity
  8
CUT
100
AcDbCircle
 10
11.395560208957477
 20
29.198088713207483
 30
0.0
 40
1.499999999999999
100
AcDbArc
 50
226.2418718878047
 51
46.24187188810881
  0
ARC
  5
B3
330
17
100
AcDbEntity
  8
CUT
100
AcDbCircle
 10
8.982303590522406
 20
31.508935517517614
 30
0.0
 40
1.499999999999999
100
AcDbArc
 50
46.2418718878047
 51
226.2418718881088
  0
LINE
  5
B4
330
17
100
AcDbEntity
  8
CUT
100
AcDbLine
 10
10.019726878095526
 20
32.592334300240395
 30
0.0
 11
12.43298349652946
 21
30.281487495930207
 31
0.0
  0
LINE
  5
B5
330
17
100
AcDbEntity
  8
CUT
100
AcDbLine
 10
7.944880302953607
 20
30.425536734793013
 30
0.0
 11
10.35813692138754
 21
28.114689930482882
 31
0.0
  0
LINE
  5
B6
330
17
100
AcDbEntity
  8
CUT
100
AcDbLine
 10
21.925372859333493
 20
32.9283844079103
 30
0.0
 11
27.36366026038945
 21
30.393620090751483
 31
0.0
  0
LINE
  5
B7
330
17
100
AcDbEntity
  8
CUT
100
AcDbLine
 10
22.77029429839058
 20
34.74114687492812
 30
0.0
 11
28.208581699441538
 21
32.20638255776748
 31
0.0
  0
ARC
  5
B8
330
17
100
AcDbEntity
  8
CUT
100
AcDbCircle
 10
22.347833578865448
 20
33.83476564142188
 30
0.0
 40
1.000000000001718
100
AcDbArc
 50
65.00995924148106
 51
245.009959241481
  0
LINE
  5
B9
330
17
100
AcDbEntity
  8
CUT
100
AcDbLine
 10
23.99867383736955
 20
23.647015410202812
 30
0.0
 11
25.623696798342507
 21
27.133470476358923
 31
0.0
  0
ARC
  5
BA
330
17
100
AcDbEntity
  8
CUT
100
AcDbCircle
 10
24.717315564834507
 20
27.55593119588508
 30
0.0
 40
1.0
100
AcDbArc
 50
335.0099592415656
 51
65.00995924159479
  0
LINE
  5
BB
330
17
100
AcDbEntity
  8
CUT
100
AcDbLine
 10
18.86945514334343
 20
31.38488439245208
 30
0.0
 11
25.13977628436055
 21
28.462312429393876
 31
0.0
  0
ARC
  5
BC
330
17
100
AcDbEntity
  8
CUT
100
AcDbCircle
 10
18.446994423817614
 20
30.478503158943113
 30
0.0
 40
1.0
100
AcDbArc
 50
65.00995924159479
 51
155.0099592415597
  0
LINE
  5
BD
330
17
100
AcDbEntity
  8
CUT
100
AcDbLine
 10
16.908698759643585
 20
29.54520379317688
 30
0.0
 11
17.540613190308477
 21
30.900963878469383
 31
0.0
  0
ENDSEC
  0
SECTION
  2
OBJECTS
  0
DICTIONARY
  5
A
330
0
100
AcDbDictionary
281
1
  3
ACAD_COLOR
350
B
  3
ACAD_GROUP
350
C
  3
ACAD_LAYOUT
350
D
  3
ACAD_MATERIAL
350
E
  3
ACAD_MLEADERSTYLE
350
F
  3
ACAD_MLINESTYLE
350
10
  3
ACAD_PLOTSETTINGS
350
11
  3
ACAD_PLOTSTYLENAME
350
12
  3
ACAD_SCALELIST
350
14
  3
ACAD_TABLESTYLE
350
15
  3
ACAD_VISUALSTYLE
350
16
  3
EZDXF_META
350
2D
  0
DICTIONARY
  5
B
330
A
100
AcDbDictionary
281
1
  0
DICTIONARY
  5
C
330
A
100
AcDbDictionary
281
1
  0
DICTIONARY
  5
D
330
A
100
AcDbDictionary
281
1
  3
Model
350
1A
  3
Layout1
350
1E
  0
DICTIONARY
  5
E
330
A
100
AcDbDictionary
281
1
  3
ByBlock
350
1F
  3
ByLayer
350
20
  3
Global
350
21
  0
DICTIONARY
  5
F
330
A
100
AcDbDictionary
281
1
  3
Standard
350
2C
  0
DICTIONARY
  5
10
330
A
100
AcDbDictionary
281
1
  3
Standard
350
22
  0
DICTIONARY
  5
11
330
A
100
AcDbDictionary
281
1
  0
ACDBDICTIONARYWDFLT
  5
12
330
A
100
AcDbDictionary
281
1
  3
Normal
350
13
100
AcDbDictionaryWithDefault
340
13
  0
ACDBPLACEHOLDER
  5
13
330
12
  0
DICTIONARY
  5
14
330
A
100
AcDbDictionary
281
1
  0
DICTIONARY
  5
15
330
A
100
AcDbDictionary
281
1
  0
DICTIONARY
  5
16
330
A
100
AcDbDictionary
281
1
  0
LAYOUT
  5
1A
330
D
100
AcDbPlotSettings
  1

  4
A3
  6

 40
7.5
 41
20.0
 42
7.5
 43
20.0
 44
420.0
 45
297.0
 46
0.0
 47
0.0
 48
0.0
 49
0.0
140
0.0
141
0.0
142
1.0
143
1.0
 70
1024
 72
1
 73
0
 74
5
  7

 75
16
 76
0
 77
2
 78
300
147
1.0
148
0.0
149
0.0
100
AcDbLayout
  1
Model
 70
1
 71
0
 10
0.0
 20
0.0
 11
420.0
 21
297.0
 12
0.0
 22
0.0
 32
0.0
 14
1e+20
 24
1e+20
 34
1e+20
 15
-1e+20
 25
-1e+20
 35
-1e+20
146
0.0
 13
0.0
 23
0.0
 33
0.0
 16
1.0
 26
0.0
 36
0.0
 17
0.0
 27
1.0
 37
0.0
 76
1
330
17
  0
LAYOUT
  5
1E
330
D
100
AcDbPlotSettings
  1

  4
A3
  6

 40
7.5
 41
20.0
 42
7.5
 43
20.0
 44
420.0
 45
297.0
 46
0.0
 47
0.0
 48
0.0
 49
0.0
140
0.0
141
0.0
142
1.0
143
1.0
 70
0
 72
1
 73
0
 74
5
  7

 75
16
 76
0
 77
2
 78
300
147
1.0
148
0.0
149
0.0
100
AcDbLayout
  1
Layout1
 70
1
 71
1
 10
0.0
 20
0.0
 11
420.0
 21
297.0
 12
0.0
 22
0.0
 32
0.0
 14
1e+20
 24
1e+20
 34
1e+20
 15
-1e+20
 25
-1e+20
 35
-1e+20
146
0.0
 13
0.0
 23
0.0
 33
0.0
 16
1.0
 26
0.0
 36
0.0
 17
0.0
 27
1.0
 37
0.0
 76
1
330
1B
  0
MATERIAL
  5
1F
102
{ACAD_REACTORS
330
E
102
}
330
E
100
AcDbMaterial
  1
ByBlock
  2

 70
0
 40
1.0
 71
1
 41
1.0
 91
-1023410177
 42
1.0
 72
1
  3

 73
1
 74
1
 75
1
 44
0.5
 73
0
 45
1.0
 46
1.0
 77
1
  4

 78
1
 79
1
170
1
 48
1.0
171
1
  6

172
1
173
1
174
1
140
1.0
141
1.0
175
1
  7

176
1
177
1
178
1
143
1.0
179
1
  8

270
1
271
1
272
1
145
1.0
146
1.0
273
1
  9

274
1
275
1
276
1
 42
1.0
 72
1
  3

 73
1
 74
1
 75
1
 94
63
  0
MATERIAL
  5
20
102
{ACAD_REACTORS
330
E
102
}
330
E
100
AcDbMaterial
  1
ByLayer
  2

 70
0
 40
1.0
 71
1
 41
1.0
 91
-1023410177
 42
1.0
 72
1
  3

 73
1
 74
1
 75
1
 44
0.5
 73
0
 45
1.0
 46
1.0
 77
1
  4

 78
1
 79
1
170
1
 48
1.0
171
1
  6

172
1
173
1
174
1
140
1.0
141
1.0
175
1
  7

176
1
177
1
178
1
143
1.0
179
1
  8

270
1
271
1
272
1
145
1.0
146
1.0
273
1
  9

274
1
275
1
276
1
 42
1.0
 72
1
  3

 73
1
 74
1
 75
1
 94
63
  0
MATERIAL
  5
21
102
{ACAD_REACTORS
330
E
102
}
330
E
100
AcDbMaterial
  1
Global
  2

 70
0
 40
1.0
 71
1
 41
1.0
 91
-1023410177
 42
1.0
 72
1
  3

 73
1
 74
1
 75
1
 44
0.5
 73
0
 45
1.0
 46
1.0
 77
1
  4

 78
1
 79
1
170
1
 48
1.0
171
1
  6

172
1
173
1
174
1
140
1.0
141
1.0
175
1
  7

176
1
177
1
178
1
143
1.0
179
1
  8

270
1
271
1
272
1
145
1.0
146
1.0
273
1
  9

274
1
275
1
276
1
 42
1.0
 72
1
  3

 73
1
 74
1
 75
1
 94
63
  0
MLINESTYLE
  5
22
102
{ACAD_REACTORS
330
10
102
}
330
10
100
AcDbMlineStyle
  2
Standard
 70
0
  3

 62
256
 51
90.0
 52
90.0
 71
2
 49
0.5
 62
256
  6
BYLAYER
 49
-0.5
 62
256
  6
BYLAYER
  0
MLEADERSTYLE
  5
2C
102
{ACAD_REACTORS
330
F
102
}
330
F
100
AcDbMLeaderStyle
179
2
170
2
171
1
172
0
 90
2
 40
0.0
 41
0.0
173
1
 91
-1056964608
 92
-2
290
1
 42
2.0
291
1
 43
8.0
  3
Standard
 44
4.0
300

342
29
174
1
175
1
176
0
178
1
 93
-1056964608
 45
4.0
292
0
297
0
 46
4.0
 94
-1056964608
 47
1.0
 49
1.0
140
1.0
294
1
141
0.0
177
0
142
1.0
295
0
296
0
143
3.75
271
0
272
9
273
9
  0
DICTIONARY
  5
2D
330
A
100
AcDbDictionary
280
1
281
1
  3
CREATED_BY_EZDXF
350
2E
  3
WRITTEN_BY_EZDXF
350
C0
  0
DICTIONARYVAR
  5
2E
330
2D
100
DictionaryVariables
280
0
  1
1.4.4 @ 2026-07-24T19:46:35.498207+00:00
  0
DICTIONARYVAR
  5
C0
330
2D
100
DictionaryVariables
280
0
  1
1.4.4 @ 2026-07-24T19:46:35.500657+00:00
  0
ENDSEC
  0
EOF
