  0
SECTION
  2
HEADER
  9
$ACADVER
  1
AC1027
  9
$ACADMAINTVER
 70
105
  9
$DWGCODEPAGE
  3
ANSI_1252
  9
$LASTSAVEDBY
  1
ezdxf
  9
$REQUIREDVERSIONS
160
0
  9
$INSBASE
 10
0.0
 20
0.0
 30
0.0
  9
$EXTMIN
 10
1e+20
 20
1e+20
 30
1e+20
  9
$EXTMAX
 10
-1e+20
 20
-1e+20
 30
-1e+20
  9
$LIMMIN
 10
0.0
 20
0.0
  9
$LIMMAX
 10
420.0
 20
297.0
  9
$ORTHOMODE
 70
0
  9
$REGENMODE
 70
1
  9
$FILLMODE
 70
1
  9
$QTEXTMODE
 70
0
  9
$MIRRTEXT
 70
1
  9
$LTSCALE
 40
1.0
  9
$ATTMODE
 70
1
  9
$TEXTSIZE
 40
2.5
  9
$TRACEWID
 40
1.0
  9
$TEXTSTYLE
  7
Standard
  9
$CLAYER
  8
0
  9
$CELTYPE
  6
ByLayer
  9
$CECOLOR
 62
256
  9
$CELTSCALE
 40
1.0
  9
$DISPSILH
 70
0
  9
$DIMSCALE
 40
1.0
  9
$DIMASZ
 40
2.5
  9
$DIMEXO
 40
0.625
  9
$DIMDLI
 40
3.75
  9
$DIMRND
 40
0.0
  9
$DIMDLE
 40
0.0
  9
$DIMEXE
 40
1.25
  9
$DIMTP
 40
0.0
  9
$DIMTM
 40
0.0
  9
$DIMTXT
 40
2.5
  9
$DIMCEN
 40
2.5
  9
$DIMTSZ
 40
0.0
  9
$DIMTOL
 70
0
  9
$DIMLIM
 70
0
  9
$DIMTIH
 70
0
  9
$DIMTOH
 70
0
  9
$DIMSE1
 70
0
  9
$DIMSE2
 70
0
  9
$DIMTAD
 70
1
  9
$DIMZIN
 70
8
  9
$DIMBLK
  1

  9
$DIMASO
 70
1
  9
$DIMSHO
 70
1
  9
$DIMPOST
  1

  9
$DIMAPOST
  1

  9
$DIMALT
 70
0
  9
$DIMALTD
 70
3
  9
$DIMALTF
 40
0.03937007874
  9
$DIMLFAC
 40
1.0
  9
$DIMTOFL
 70
1
  9
$DIMTVP
 40
0.0
  9
$DIMTIX
 70
0
  9
$DIMSOXD
 70
0
  9
$DIMSAH
 70
0
  9
$DIMBLK1
  1

  9
$DIMBLK2
  1

  9
$DIMSTYLE
  2
ISO-25
  9
$DIMCLRD
 70
0
  9
$DIMCLRE
 70
0
  9
$DIMCLRT
 70
0
  9
$DIMTFAC
 40
1.0
  9
$DIMGAP
 40
0.625
  9
$DIMJUST
 70
0
  9
$DIMSD1
 70
0
  9
$DIMSD2
 70
0
  9
$DIMTOLJ
 70
0
  9
$DIMTZIN
 70
8
  9
$DIMALTZ
 70
0
  9
$DIMALTTZ
 70
0
  9
$DIMUPT
 70
0
  9
$DIMDEC
 70
2
  9
$DIMTDEC
 70
2
  9
$DIMALTU
 70
2
  9
$DIMALTTD
 70
3
  9
$DIMTXSTY
  7
Standard
  9
$DIMAUNIT
 70
0
  9
$DIMADEC
 70
0
  9
$DIMALTRND
 40
0.0
  9
$DIMAZIN
 70
0
  9
$DIMDSEP
 70
44
  9
$DIMATFIT
 70
3
  9
$DIMFRAC
 70
0
  9
$DIMLDRBLK
  1

  9
$DIMLUNIT
 70
2
  9
$DIMLWD
 70
-2
  9
$DIMLWE
 70
-2
  9
$DIMTMOVE
 70
0
  9
$DIMFXL
 40
1.0
  9
$DIMFXLON
 70
0
  9
$DIMJOGANG
 40
0.785398163397
  9
$DIMTFILL
 70
0
  9
$DIMTFILLCLR
 70
0
  9
$DIMARCSYM
 70
0
  9
$DIMLTYPE
  6

  9
$DIMLTEX1
  6

  9
$DIMLTEX2
  6

  9
$DIMTXTDIRECTION
 70
0
  9
$LUNITS
 70
2
  9
$LUPREC
 70
4
  9
$SKETCHINC
 40
1.0
  9
$FILLETRAD
 40
10.0
  9
$AUNITS
 70
0
  9
$AUPREC
 70
2
  9
$MENU
  1
.
  9
$ELEVATION
 40
0.0
  9
$PELEVATION
 40
0.0
  9
$THICKNESS
 40
0.0
  9
$LIMCHECK
 70
0
  9
$CHAMFERA
 40
0.0
  9
$CHAMFERB
 40
0.0
  9
$CHAMFERC
 40
0.0
  9
$CHAMFERD
 40
0.0
  9
$SKPOLY
 70
0
  9
$TDCREATE
 40
2461246.532349537
  9
$TDUCREATE
 40
2458532.153996898
  9
$TDUPDATE
 40
2461246.532349537
  9
$TDUUPDATE
 40
2458532.1544311
  9
$TDINDWG
 40
0.0
  9
$TDUSRTIMER
 40
0.0
  9
$USRTIMER
 70
1
  9
$ANGBASE
 50
0.0
  9
$ANGDIR
 70
0
  9
$PDMODE
 70
0
  9
$PDSIZE
 40
0.0
  9
$PLINEWID
 40
0.0
  9
$SPLFRAME
 70
0
  9
$SPLINETYPE
 70
6
  9
$SPLINESEGS
 70
8
  9
$HANDSEED
  5
7C
  9
$SURFTAB1
 70
6
  9
$SURFTAB2
 70
6
  9
$SURFTYPE
 70
6
  9
$SURFU
 70
6
  9
$SURFV
 70
6
  9
$UCSBASE
  2

  9
$UCSNAME
  2

  9
$UCSORG
 10
0.0
 20
0.0
 30
0.0
  9
$UCSXDIR
 10
1.0
 20
0.0
 30
0.0
  9
$UCSYDIR
 10
0.0
 20
1.0
 30
0.0
  9
$UCSORTHOREF
  2

  9
$UCSORTHOVIEW
 70
0
  9
$UCSORGTOP
 10
0.0
 20
0.0
 30
0.0
  9
$UCSORGBOTTOM
 10
0.0
 20
0.0
 30
0.0
  9
$UCSORGLEFT
 10
0.0
 20
0.0
 30
0.0
  9
$UCSORGRIGHT
 10
0.0
 20
0.0
 30
0.0
  9
$UCSORGFRONT
 10
0.0
 20
0.0
 30
0.0
  9
$UCSORGBACK
 10
0.0
 20
0.0
 30
0.0
  9
$PUCSBASE
  2

  9
$PUCSNAME
  2

  9
$PUCSORG
 10
0.0
 20
0.0
 30
0.0
  9
$PUCSXDIR
 10
1.0
 20
0.0
 30
0.0
  9
$PUCSYDIR
 10
0.0
 20
1.0
 30
0.0
  9
$PUCSORTHOREF
  2

  9
$PUCSORTHOVIEW
 70
0
  9
$PUCSORGTOP
 10
0.0
 20
0.0
 30
0.0
  9
$PUCSORGBOTTOM
 10
0.0
 20
0.0
 30
0.0
  9
$PUCSORGLEFT
 10
0.0
 20
0.0
 30
0.0
  9
$PUCSORGRIGHT
 10
0.0
 20
0.0
 30
0.0
  9
$PUCSORGFRONT
 10
0.0
 20
0.0
 30
0.0
  9
$PUCSORGBACK
 10
0.0
 20
0.0
 30
0.0
  9
$USERI1
 70
0
  9
$USERI2
 70
0
  9
$USERI3
 70
0
  9
$USERI4
 70
0
  9
$USERI5
 70
0
  9
$USERR1
 40
0.0
  9
$USERR2
 40
0.0
  9
$USERR3
 40
0.0
  9
$USERR4
 40
0.0
  9
$USERR5
 40
0.0
  9
$WORLDVIEW
 70
1
  9
$SHADEDGE
 70
3
  9
$SHADEDIF
 70
70
  9
$TILEMODE
 70
1
  9
$MAXACTVP
 70
64
  9
$PINSBASE
 10
0.0
 20
0.0
 30
0.0
  9
$PLIMCHECK
 70
0
  9
$PEXTMIN
 10
1e+20
 20
1e+20
 30
1e+20
  9
$PEXTMAX
 10
-1e+20
 20
-1e+20
 30
-1e+20
  9
$PLIMMIN
 10
0.0
 20
0.0
  9
$PLIMMAX
 10
420.0
 20
297.0
  9
$UNITMODE
 70
0
  9
$VISRETAIN
 70
1
  9
$PLINEGEN
 70
0
  9
$PSLTSCALE
 70
1
  9
$TREEDEPTH
 70
3020
  9
$CMLSTYLE
  2
Standard
  9
$CMLJUST
 70
0
  9
$CMLSCALE
 40
20.0
  9
$PROXYGRAPHICS
 70
1
  9
$MEASUREMENT
 70
1
  9
$CELWEIGHT
370
-1
  9
$ENDCAPS
280
0
  9
$JOINSTYLE
280
0
  9
$LWDISPLAY
290
0
  9
$INSUNITS
 70
4
  9
$HYPERLINKBASE
  1

  9
$STYLESHEET
  1

  9
$XEDIT
290
1
  9
$CEPSNTYPE
380
0
  9
$PSTYLEMODE
290
1
  9
$FINGERPRINTGUID
  2
{814F3A36-DA3C-4E46-808F-F346063B915E}
  9
$VERSIONGUID
  2
{F803B34D-F2A5-411F-A86A-FCE1F76B174E}
  9
$EXTNAMES
290
1
  9
$PSVPSCALE
 40
0.0
  9
$OLESTARTUP
290
0
  9
$SORTENTS
280
127
  9
$INDEXCTL
280
0
  9
$HIDETEXT
280
1
  9
$XCLIPFRAME
280
1
  9
$HALOGAP
280
0
  9
$OBSCOLOR
 70
257
  9
$OBSLTYPE
280
0
  9
$INTERSECTIONDISPLAY
280
0
  9
$INTERSECTIONCOLOR
 70
257
  9
$DIMASSOC
280
2
  9
$PROJECTNAME
  1

  9
$CAMERADISPLAY
290
0
  9
$LENSLENGTH
 40
50.0
  9
$CAMERAHEIGHT
 40
0.0
  9
$STEPSPERSEC
 40
24.0
  9
$STEPSIZE
 40
100.0
  9
$3DDWFPREC
 40
2.0
  9
$PSOLWIDTH
 40
0.005
  9
$PSOLHEIGHT
 40
0.08
  9
$LOFTANG1
 40
1.570796326795
  9
$LOFTANG2
 40
1.570796326795
  9
$LOFTMAG1
 40
0.0
  9
$LOFTMAG2
 40
0.0
  9
$LOFTPARAM
 70
7
  9
$LOFTNORMALS
280
1
  9
$LATITUDE
 40
37.795
  9
$LONGITUDE
 40
-122.394
  9
$NORTHDIRECTION
 40
0.0
  9
$TIMEZONE
 70
-8000
  9
$LIGHTGLYPHDISPLAY
280
1
  9
$TILEMODELIGHTSYNCH
280
1
  9
$CMATERIAL
347
20
  9
$SOLIDHIST
280
0
  9
$SHOWHIST
280
1
  9
$DWFFRAME
280
2
  9
$DGNFRAME
280
2
  9
$REALWORLDSCALE
290
1
  9
$INTERFERECOLOR
 62
256
  9
$CSHADOW
280
0
  9
$SHADOWPLANELOCATION
 40
0.0
  0
ENDSEC
  0
SECTION
  2
CLASSES
  0
CLASS
  1
ACDBDICTIONARYWDFLT
  2
AcDbDictionaryWithDefault
  3
ObjectDBX Classes
 90
0
 91
0
280
0
281
0
  0
CLASS
  1
SUN
  2
AcDbSun
  3
SCENEOE
 90
1153
 91
0
280
0
281
0
  0
CLASS
  1
VISUALSTYLE
  2
AcDbVisualStyle
  3
ObjectDBX Classes
 90
4095
 91
0
280
0
281
0
  0
CLASS
  1
MATERIAL
  2
AcDbMaterial
  3
ObjectDBX Classes
 90
1153
 91
0
280
0
281
0
  0
CLASS
  1
SCALE
  2
AcDbScale
  3
ObjectDBX Classes
 90
1153
 91
0
280
0
281
0
  0
CLASS
  1
TABLESTYLE
  2
AcDbTableStyle
  3
ObjectDBX Classes
 90
4095
 91
0
280
0
281
0
  0
CLASS
  1
MLEADERSTYLE
  2
AcDbMLeaderStyle
  3
ACDB_MLEADERSTYLE_CLASS
 90
4095
 91
0
280
0
281
0
  0
CLASS
  1
DICTIONARYVAR
  2
AcDbDictionaryVar
  3
ObjectDBX Classes
 90
0
 91
0
280
0
281
0
  0
CLASS
  1
CELLSTYLEMAP
  2
AcDbCellStyleMap
  3
ObjectDBX Classes
 90
1152
 91
0
280
0
281
0
  0
CLASS
  1
MENTALRAYRENDERSETTINGS
  2
AcDbMentalRayRenderSettings
  3
SCENEOE
 90
1024
 91
0
280
0
281
0
  0
CLASS
  1
ACDBDETAILVIEWSTYLE
  2
AcDbDetailViewStyle
  3
ObjectDBX Classes
 90
1025
 91
0
280
0
281
0
  0
CLASS
  1
ACDBSECTIONVIEWSTYLE
  2
AcDbSectionViewStyle
  3
ObjectDBX Classes
 90
1025
 91
0
280
0
281
0
  0
CLASS
  1
RASTERVARIABLES
  2
AcDbRasterVariables
  3
ISM
 90
0
 91
0
280
0
281
0
  0
CLASS
  1
ACDBPLACEHOLDER
  2
AcDbPlaceHolder
  3
ObjectDBX Classes
 90
0
 91
0
280
0
281
0
  0
CLASS
  1
LAYOUT
  2
AcDbLayout
  3
ObjectDBX Classes
 90
0
 91
0
280
0
281
0
  0
ENDSEC
  0
SECTION
  2
TABLES
  0
TABLE
  2
VPORT
  5
8
330
0
100
AcDbSymbolTable
 70
1
  0
VPORT
  5
23
330
8
100
AcDbSymbolTableRecord
100
AcDbViewportTableRecord
  2
*Active
 70
0
 10
0.0
 20
0.0
 11
1.0
 21
1.0
 12
0.0
 22
0.0
 13
0.0
 23
0.0
 14
0.5
 24
0.5
 15
0.5
 25
0.5
 16
0.0
 26
0.0
 36
1.0
 17
0.0
 27
0.0
 37
0.0
 40
1000.0
 41
1.34
 42
50.0
 43
0.0
 44
0.0
 50
0.0
 51
0.0
 71
0
 72
1000
 73
1
 74
3
 75
0
 76
0
 77
0
 78
0
281
0
 65
0
146
0.0
  0
ENDTAB
  0
TABLE
  2
LTYPE
  5
2
330
0
100
AcDbSymbolTable
 70
3
  0
LTYPE
  5
24
330
2
100
AcDbSymbolTableRecord
100
AcDbLinetypeTableRecord
  2
ByBlock
 70
0
  3

 72
65
 73
0
 40
0.0
  0
LTYPE
  5
25
330
2
100
AcDbSymbolTableRecord
100
AcDbLinetypeTableRecord
  2
ByLayer
 70
0
  3

 72
65
 73
0
 40
0.0
  0
LTYPE
  5
26
330
2
100
AcDbSymbolTableRecord
100
AcDbLinetypeTableRecord
  2
Continuous
 70
0
  3

 72
65
 73
0
 40
0.0
  0
ENDTAB
  0
TABLE
  2
LAYER
  5
1
330
0
100
AcDbSymbolTable
 70
7
  0
LAYER
  5
27
330
1
100
AcDbSymbolTableRecord
100
AcDbLayerTableRecord
  2
0
 70
0
 62
7
  6
Continuous
370
-3
390
13
347
21
  0
LAYER
  5
28
330
1
100
AcDbSymbolTableRecord
100
AcDbLayerTableRecord
  2
Defpoints
 70
0
 62
7
  6
Continuous
290
0
370
-3
390
13
347
21
  0
LAYER
  5
2F
330
1
100
AcDbSymbolTableRecord
100
AcDbLayerTableRecord
  2
CUT
 70
0
 62
7
  6
Continuous
370
-3
390
13
347
21
  0
LAYER
  5
30
330
1
100
AcDbSymbolTableRecord
100
AcDbLayerTableRecord
  2
POCKET
 70
0
 62
7
  6
Continuous
370
-3
390
13
347
21
  0
LAYER
  5
31
330
1
100
AcDbSymbolTableRecord
100
AcDbLayerTableRecord
  2
CHAMFER
 70
0
 62
7
  6
Continuous
370
-3
390
13
347
21
  0
LAYER
  5
32
330
1
100
AcDbSymbolTableRecord
100
AcDbLayerTableRecord
  2
COUNTERSINK
 70
0
 62
7
  6
Continuous
370
-3
390
13
347
21
  0
LAYER
  5
33
330
1
100
AcDbSymbolTableRecord
100
AcDbLayerTableRecord
  2
ANNOTATION
 70
0
 62
7
  6
Continuous
370
-3
390
13
347
21
  0
ENDTAB
  0
TABLE
  2
STYLE
  5
5
330
0
100
AcDbSymbolTable
 70
1
  0
STYLE
  5
29
330
5
100
AcDbSymbolTableRecord
100
AcDbTextStyleTableRecord
  2
Standard
 70
0
 40
0.0
 41
1.0
 50
0.0
 71
0
 42
2.5
  3
txt
  4

  0
ENDTAB
  0
TABLE
  2
VIEW
  5
7
330
0
100
AcDbSymbolTable
 70
0
  0
ENDTAB
  0
TABLE
  2
UCS
  5
6
330
0
100
AcDbSymbolTable
 70
0
  0
ENDTAB
  0
TABLE
  2
APPID
  5
3
330
0
100
AcDbSymbolTable
 70
3
  0
APPID
  5
2A
330
3
100
AcDbSymbolTableRecord
100
AcDbRegAppTableRecord
  2
ACAD
 70
0
  0
APPID
  5
79
330
3
100
AcDbSymbolTableRecord
100
AcDbRegAppTableRecord
  2
HATCHBACKGROUNDCOLOR
 70
0
  0
APPID
  5
7A
330
3
100
AcDbSymbolTableRecord
100
AcDbRegAppTableRecord
  2
EZDXF
 70
0
  0
ENDTAB
  0
TABLE
  2
DIMSTYLE
  5
4
330
0
100
AcDbSymbolTable
 70
1
100
AcDbDimStyleTable
  0
DIMSTYLE
105
2B
330
4
100
AcDbSymbolTableRecord
100
AcDbDimStyleTableRecord
  2
Standard
 70
0
 40
1.0
 41
2.5
 42
0.625
 43
3.75
 44
1.25
 45
0.0
 46
0.0
 47
0.0
 48
0.0
 49
2.5
140
2.5
141
2.5
142
0.0
143
0.03937007874
144
1.0
145
0.0
146
1.0
147
0.625
148
0.0
 69
0
 70
0
 71
0
 72
0
 73
0
 74
0
 75
0
 76
0
 77
1
 78
8
 79
3
170
0
171
3
172
1
173
0
174
0
175
0
176
0
177
0
178
0
179
2
271
2
272
2
273
2
274
3
275
0
276
0
277
2
278
44
279
0
280
0
281
0
282
0
283
0
284
8
285
0
286
0
288
0
289
3
290
0
371
-2
372
-2
  0
ENDTAB
  0
TABLE
  2
BLOCK_RECORD
  5
9
330
0
100
AcDbSymbolTable
 70
2
  0
BLOCK_RECORD
  5
17
330
9
100
AcDbSymbolTableRecord
100
AcDbBlockTableRecord
  2
*Model_Space
340
1A
 70
0
280
1
281
0
  0
BLOCK_RECORD
  5
1B
330
9
100
AcDbSymbolTableRecord
100
AcDbBlockTableRecord
  2
*Paper_Space
340
1E
 70
0
280
1
281
0
  0
ENDTAB
  0
ENDSEC
  0
SECTION
  2
BLOCKS
  0
BLOCK
  5
18
330
17
100
AcDbEntity
  8
0
100
AcDbBlockBegin
  2
*Model_Space
 70
0
 10
0.0
 20
0.0
 30
0.0
  3
*Model_Space
  1

  0
ENDBLK
  5
19
330
17
100
AcDbEntity
  8
0
100
AcDbBlockEnd
  0
BLOCK
  5
1C
330
1B
100
AcDbEntity
  8
0
100
AcDbBlockBegin
  2
*Paper_Space
 70
0
 10
0.0
 20
0.0
 30
0.0
  3
*Paper_Space
  1

  0
ENDBLK
  5
1D
330
1B
100
AcDbEntity
  8
0
100
AcDbBlockEnd
  0
ENDSEC
  0
SECTION
  2
ENTITIES
  0
LINE
  5
34
330
17
100
AcDbEntity
  8
CUT
100
AcDbLine
 10
51.510770871499176
 20
126.2410469197498
 30
0.0
 11
5.0
 21
127.34656172278596
 31
0.0
  0
LWPOLYLINE
  5
35
330
17
100
AcDbEntity
  8
CUT
100
AcDbPolyline
 90
39
 70
0
 10
50.13420948592386
 20
17.479911604958943
 42
-0.2196847197508813
 10
51.65639772964005
 20
16.777194515772862
 10
60.79516156760576
 20
6.054075633776847
 42
0.2196847197508729
 10
63.07844393317919
 20
5.0
 10
66.55327040016982
 20
5.0
 42
0.4142135623730951
 10
69.55327040016982
 20
8.0
 10
69.55327040016982
 20
59.080747483001915
 42
-0.1989123673796368
 10
70.43195005660982
 20
61.202067826561915
 10
78.14336148043469
 20
68.9134792503869
 42
0.1989123673796368
 10
79.02204113687469
 20
71.03479959394599
 10
79.02204113687469
 20
76.11811514641386
 42
0.2144574455153521
 10
78.0131674932154
 20
78.36208837109598
 10
73.21141427806208
 20
82.62278866740394
 42
-0.2144574455155652
 10
72.20254063439927
 20
84.86676189208697
 10
72.20254063439927
 20
144.70116529314691
 42
-0.2144574455155453
 10
73.21141427806208
 20
146.94513851783086
 10
78.0131674932154
 20
151.20583881414086
 42
0.2144574455153474
 10
79.02204113687469
 20
153.4498120388239
 10
79.02204113687469
 20
158.53312759129085
 42
0.1989123673796242
 10
78.14336148043469
 20
160.65444793484994
 10
71.43195005660982
 20
167.36585935867492
 42
-0.1989123673796171
 10
70.55327040016982
 20
169.48717970223493
 10
70.55327040016982
 20
178.88012524817486
 42
-0.2144574455153393
 10
71.562144043829
 20
181.12409847285699
 10
74.36389725898619
 20
183.6101551732179
 42
0.2144574455153475
 10
75.37277090264536
 20
185.85412839789979
 10
75.37277090264536
 20
190.98403081124093
 42
0.2400149751937002
 10
74.13671209781126
 20
193.410656340654
 10
64.72218990221438
 20
200.25417765547286
 42
0.6128837473819786
 10
63.134209503826355
 20
199.44530247900298
 10
63.134209503826355
 20
196.2328182653389
 42
-0.9999999999999998
 10
63.134209503826355
 20
194.6328182653399
 10
60.0142094670764
 20
194.6328182653399
 42
-0.9999999999999998
 10
60.01420948480791
 20
196.2328182653398
 10
60.014209485808465
 20
197.3005318830958
 42
0.5814902120399227
 10
59.25886053271017
 20
197.73041199677482
 10
54.33321127156444
 20
194.80457443856994
 42
-0.134806905723887
 10
51.779721740559694
 20
194.1033755755209
 10
50.11420948583611
 20
194.10337557551884
  0
LWPOLYLINE
  5
36
330
17
100
AcDbEntity
  8
CUT
100
AcDbPolyline
 90
8
 70
1
 10
35.654748579198895
 20
127.28396359261797
 10
37.154748579198895
 20
127.28396359261797
 42
-0.4142135623730951
 10
38.15474857919901
 20
126.28396359261797
 10
38.15474857919901
 20
103.28396359261797
 42
-0.4142135623730951
 10
37.154748579198895
 20
102.28396359261797
 10
35.654748579198895
 20
102.28396359261797
 42
-0.4142135623730951
 10
34.65474857919901
 20
103.28396359261797
 10
34.65474857919901
 20
126.28396359261797
 42
-0.4142135623730951
  0
LWPOLYLINE
  5
37
330
17
100
AcDbEntity
  8
CUT
100
AcDbPolyline
 90
39
 70
0
 10
50.13420948592386
 20
17.479911604958943
 42
0.2196847197508813
 10
48.61202124220756
 20
16.777194515772862
 10
39.47325740424196
 20
6.054075633776847
 42
-0.2196847197508729
 10
37.18997503866831
 20
5.0
 10
33.71514857167779
 20
5.0
 42
-0.4142135623730951
 10
30.715148571677787
 20
8.0
 10
30.715148571677787
 20
59.080747483001915
 42
0.1989123673796368
 10
29.836468915237788
 20
61.202067826561915
 10
22.12505749141303
 20
68.9134792503869
 42
-0.1989123673796368
 10
21.246377834973032
 20
71.03479959394599
 10
21.246377834973032
 20
76.11811514641386
 42
-0.2144574455153521
 10
22.25525147863209
 20
78.36208837109598
 10
27.05700469378553
 20
82.62278866740394
 42
0.2144574455155652
 10
28.065878337448453
 20
84.86676189208697
 10
28.065878337448453
 20
144.70116529314691
 42
0.2144574455155453
 10
27.05700469378553
 20
146.94513851783086
 10
22.25525147863209
 20
151.20583881414086
 42
-0.2144574455153474
 10
21.246377834973032
 20
153.4498120388239
 10
21.246377834973032
 20
158.53312759129085
 42
-0.1989123673796242
 10
22.12505749141303
 20
160.65444793484994
 10
28.836468915237788
 20
167.36585935867492
 42
0.1989123673796171
 10
29.715148571677787
 20
169.48717970223493
 10
29.715148571677787
 20
178.88012524817486
 42
0.2144574455153393
 10
28.706274928018615
 20
181.12409847285699
 10
25.904521712861538
 20
183.6101551732179
 42
-0.2144574455153475
 10
24.895648069202252
 20
185.85412839789979
 10
24.895648069202252
 20
190.98403081124093
 42
-0.2400149751937002
 10
26.131706874036468
 20
193.410656340654
 10
35.54622906963334
 20
200.25417765547286
 42
-0.6128837473819786
 10
37.13420946802137
 20
199.44530247900298
 10
37.13420946802137
 20
196.2328182653389
 42
0.9999999999999998
 10
37.13420946802137
 20
194.6328182653399
 10
40.2542095047711
 20
194.6328182653399
 42
0.9999999999999998
 10
40.25420948703959
 20
196.2328182653398
 10
40.25420948603926
 20
197.3005318830958
 42
-0.5814902120399227
 10
41.00955843913755
 20
197.73041199677482
 10
45.935207700283286
 20
194.80457443856994
 42
0.134806905723887
 10
48.488697231287915
 20
194.1033755755209
 10
50.15420948601161
 20
194.10337557551884
  0
LWPOLYLINE
  5
38
330
17
100
AcDbEntity
  8
POCKET
100
AcDbPolyline
 90
5
 70
0
 10
54.134114926851
 20
128.7386043252418
 10
48.81308486409682
 20
128.7386043252418
 42
-0.2450663637303342
 10
47.33897845435706
 20
129.5072766776159
 42
-0.113398850918212
 10
46.97576753670273
 20
130.4071064407069
 42
-0.0371575522549479
 10
46.823109148887966
 20
132.23044317997778
 42
-0.049183095109329
  0
LWPOLYLINE
  5
39
330
17
100
AcDbEntity
  8
POCKET
100
AcDbPolyline
 90
5
 70
0
 10
54.134114926851
 20
130.37282316330698
 10
48.81308486409682
 20
130.37282316330698
 42
-0.2450663637312717
 10
48.67895230217175
 20
130.44276654814485
 42
-0.1133988509190671
 10
48.58967906218379
 20
130.66393478533996
 42
-0.037157552254976
 10
48.45725808876432
 20
132.24555784153085
  0
ARC
  5
3A
330
17
100
AcDbEntity
  8
POCKET
100
AcDbCircle
 10
51.319035364030356
 20
121.40804751792098
 30
0.0
 40
2.042773547583523
100
AcDbArc
 50
270.0
 51
0.0
  0
LINE
  5
3B
330
17
100
AcDbEntity
  8
POCKET
100
AcDbLine
 10
51.319035364030356
 20
127.1322608548328
 30
0.0
 11
48.87028948177715
 21
127.1322608548328
 31
0.0
  0
ARC
  5
3C
330
17
100
AcDbEntity
  8
POCKET
100
AcDbCircle
 10
48.87028948177715
 20
125.08948730724887
 30
0.0
 40
2.042773547583523
100
AcDbArc
 50
90.0
 51
180.0
  0
ARC
  5
3D
330
17
100
AcDbEntity
  8
POCKET
100
AcDbCircle
 10
48.87028948177715
 20
125.08948730724887
 30
0.0
 40
0.4085547095167046
100
AcDbArc
 50
90.0
 51
180.0
  0
ARC
  5
3E
330
17
100
AcDbEntity
  8
POCKET
100
AcDbCircle
 10
51.319035364030356
 20
125.08948730724887
 30
0.0
 40
2.042773547583523
100
AcDbArc
 50
0.0
 51
90.0
  0
LWPOLYLINE
  5
3F
330
17
100
AcDbEntity
  8
POCKET
100
AcDbPolyline
 90
5
 70
0
 10
48.87028948177715
 20
125.49804201676693
 10
49.21126077250585
 20
125.49804201676693
 10
49.211260772531205
 20
120.1823833893659
 42
0.4142135623714801
 10
50.02837019156243
 20
119.36527397033797
 10
51.319035364030356
 20
119.36527397033797
  0
LINE
  5
40
330
17
100
AcDbEntity
  8
POCKET
100
AcDbLine
 10
46.82751593419482
 20
125.08948730724887
 30
0.0
 11
46.82751593419482
 21
121.78274134363892
 31
0.0
  0
LINE
  5
41
330
17
100
AcDbEntity
  8
POCKET
100
AcDbLine
 10
48.461734772258865
 20
125.08948730724887
 30
0.0
 11
48.461734772258865
 21
121.78274134363892
 31
0.0
  0
LINE
  5
42
330
17
100
AcDbEntity
  8
POCKET
100
AcDbLine
 10
53.36180891161439
 20
125.08948730724887
 30
0.0
 11
53.36180891161439
 21
121.40804751792098
 31
0.0
  0
LINE
  5
43
330
17
100
AcDbEntity
  8
POCKET
100
AcDbLine
 10
46.85352048542609
 20
121.78274134363892
 30
0.0
 11
46.82751593419482
 21
121.78274134363892
 31
0.0
  0
ARC
  5
44
330
17
100
AcDbEntity
  8
POCKET
100
AcDbCircle
 10
47.64018361882438
 20
132.23800051075182
 30
0.0
 40
0.817109419033316
100
AcDbArc
 50
0.5299282095855113
 51
180.5299282095855
  0
ARC
  5
45
330
17
100
AcDbEntity
  8
POCKET
100
AcDbCircle
 10
54.134114926851
 20
129.55571374427495
 30
0.0
 40
0.8171094190326662
100
AcDbArc
 50
270.0
 51
90.0
  0
ARC
  5
46
330
17
100
AcDbEntity
  8
POCKET
100
AcDbCircle
 10
47.65762762884242
 20
121.78274134363892
 30
0.0
 40
0.8041071434188753
100
AcDbArc
 50
180.0
 51
0.0
  0
ARC
  5
47
330
17
100
AcDbEntity
  8
POCKET
100
AcDbCircle
 10
51.319035364030356
 20
121.40804751792098
 30
0.0
 40
0.4085547095167046
100
AcDbArc
 50
270.0
 51
0.0
  0
ARC
  5
48
330
17
100
AcDbEntity
  8
POCKET
100
AcDbCircle
 10
51.319035364030356
 20
125.08948730724887
 30
0.0
 40
0.4085547095167046
100
AcDbArc
 50
0.0
 51
90.0
  0
LWPOLYLINE
  5
49
330
17
100
AcDbEntity
  8
POCKET
100
AcDbPolyline
 90
4
 70
0
 10
51.319035364030356
 20
125.49804201676693
 10
50.84547961056808
 20
125.49804201676693
 10
50.84547961059161
 20
120.99949280840292
 10
51.319035364030356
 20
120.99949280840292
  0
LINE
  5
4A
330
17
100
AcDbEntity
  8
POCKET
100
AcDbLine
 10
51.72759007354864
 20
125.08948730724887
 30
0.0
 11
51.72759007354864
 21
121.40804751792098
 31
0.0
  0
CIRCLE
  5
4B
330
17
100
AcDbEntity
  8
CUT
100
AcDbCircle
 10
73.86067599054797
 20
73.60766188068078
 30
0.0
 40
1.5
  0
CIRCLE
  5
4C
330
17
100
AcDbEntity
  8
COUNTERSINK
100
AcDbCircle
 10
73.86067599054797
 20
73.60766188068078
 30
0.0
 40
3.0
  0
CIRCLE
  5
4D
330
17
100
AcDbEntity
  8
CUT
100
AcDbCircle
 10
70.21458321485545
 20
188.364581663634
 30
0.0
 40
1.5
  0
CIRCLE
  5
4E
330
17
100
AcDbEntity
  8
CUT
100
AcDbCircle
 10
73.86067599054797
 20
155.96026530455697
 30
0.0
 40
1.5
  0
CIRCLE
  5
4F
330
17
100
AcDbEntity
  8
CUT
100
AcDbCircle
 10
64.5449261092972
 20
10.79156332587695
 30
0.0
 40
1.5
  0
CIRCLE
  5
50
330
17
100
AcDbEntity
  8
COUNTERSINK
100
AcDbCircle
 10
64.5449261092972
 20
10.79156332587695
 30
0.0
 40
3.0
  0
CIRCLE
  5
51
330
17
100
AcDbEntity
  8
CUT
100
AcDbCircle
 10
50.13420948592386
 20
83.71440574205485
 30
0.0
 40
1.5
  0
CIRCLE
  5
52
330
17
100
AcDbEntity
  8
COUNTERSINK
100
AcDbCircle
 10
50.13420948592386
 20
83.71440574205485
 30
0.0
 40
3.0
  0
LWPOLYLINE
  5
53
330
17
100
AcDbEntity
  8
CUT
100
AcDbPolyline
 90
8
 70
1
 10
64.61367039264871
 20
127.28396359261797
 10
63.1136703926486
 20
127.28396359261797
 42
0.4142135623730951
 10
62.1136703926486
 20
126.28396359261797
 10
62.1136703926486
 20
103.28396359261797
 42
0.4142135623730951
 10
63.1136703926486
 20
102.28396359261797
 10
64.61367039264871
 20
102.28396359261797
 42
0.4142135623730951
 10
65.61367039264871
 20
103.28396359261797
 10
65.61367039264871
 20
126.28396359261797
 42
0.4142135623730951
  0
LWPOLYLINE
  5
54
330
17
100
AcDbEntity
  8
CUT
100
AcDbPolyline
 90
8
 70
1
 10
61.25791258840309
 20
64.1108498739618
 10
59.75791258840309
 20
64.1108498739618
 42
0.4142135623730951
 10
58.7579125884032
 20
63.1108498739618
 10
58.7579125884032
 20
40.1108498739618
 42
0.4142135623730951
 10
59.75791258840309
 20
39.1108498739618
 10
61.25791258840309
 20
39.1108498739618
 42
0.4142135623730951
 10
62.25791258840309
 20
40.1108498739618
 10
62.25791258840309
 20
63.1108498739618
 42
0.4142135623730951
  0
CIRCLE
  5
55
330
17
100
AcDbEntity
  8
CUT
100
AcDbCircle
 10
50.13420948592386
 20
173.78808777525683
 30
0.0
 40
1.5
  0
CIRCLE
  5
56
330
17
100
AcDbEntity
  8
COUNTERSINK
100
AcDbCircle
 10
50.13420948592386
 20
173.78808777525683
 30
0.0
 40
3.0
  0
LWPOLYLINE
  5
57
330
17
100
AcDbEntity
  8
CUT
100
AcDbPolyline
 90
8
 70
1
 10
60.01420950370721
 20
187.71245203249077
 42
-1.000000022967015
 10
60.0142094669601
 20
189.3124520324909
 10
63.13420950370994
 20
189.31245203249
 42
-0.9999999999999998
 10
63.13420950370994
 20
187.71245203249077
 10
63.13420950370994
 20
184.81246892309696
 42
-0.9999999999999998
 10
63.13420950370994
 20
183.21246892309682
 10
60.0142094669601
 20
183.21246892309682
 42
-1.000000022969288
 10
60.014209503710845
 20
184.81246892309696
  0
LINE
  5
58
330
17
100
AcDbEntity
  8
POCKET
100
AcDbLine
 10
47.03542589338315
 20
117.7746931753818
 30
0.0
 11
53.232993078464574
 21
117.7746931753818
 31
0.0
  0
LINE
  5
59
330
17
100
AcDbEntity
  8
POCKET
100
AcDbLine
 10
53.85308208288109
 20
116.4254583676709
 30
0.0
 11
48.813352065298204
 21
110.55262982834097
 31
0.0
  0
ARC
  5
5A
330
17
100
AcDbEntity
  8
POCKET
100
AcDbCircle
 10
53.232993078464574
 20
116.95758375634887
 30
0.0
 40
0.8171094190334095
100
AcDbArc
 50
319.3656689924027
 51
90.0
  0
LWPOLYLINE
  5
5B
330
17
100
AcDbEntity
  8
POCKET
100
AcDbPolyline
 90
5
 70
0
 10
47.03542589338315
 20
116.14047433731685
 10
51.455066906547586
 20
116.14047433731685
 10
46.41533688897027
 20
110.26764579798578
 42
0.6409682668034211
 10
47.03542589338315
 20
108.91841099027192
 10
53.232993078464574
 20
108.91841099027897
  0
LINE
  5
5C
330
17
100
AcDbEntity
  8
POCKET
100
AcDbLine
 10
48.81335206530014
 20
110.55262982834097
 30
0.0
 11
53.232993078464574
 21
110.55262982834483
 31
0.0
  0
LINE
  5
5D
330
17
100
AcDbEntity
  8
POCKET
100
AcDbLine
 10
53.361808911612684
 20
105.10223986299889
 30
0.0
 11
53.361808911612684
 21
101.54683937973186
 31
0.0
  0
ARC
  5
5E
330
17
100
AcDbEntity
  8
POCKET
100
AcDbCircle
 10
51.31903536402854
 20
105.10223986299889
 30
0.0
 40
2.042773547583523
100
AcDbArc
 50
0.0
 51
90.0
  0
LINE
  5
5F
330
17
100
AcDbEntity
  8
POCKET
100
AcDbLine
 10
51.31903536402854
 20
99.50406583214885
 30
0.0
 11
48.845834452388885
 21
99.50406583214885
 31
0.0
  0
ARC
  5
60
330
17
100
AcDbEntity
  8
POCKET
100
AcDbCircle
 10
51.31903536402854
 20
101.54683937973186
 30
0.0
 40
2.042773547583523
100
AcDbArc
 50
270.0
 51
0.0
  0
LINE
  5
61
330
17
100
AcDbEntity
  8
POCKET
100
AcDbLine
 10
51.31903536402854
 20
107.1450134105819
 30
0.0
 11
48.845834452388885
 21
107.1450134105819
 31
0.0
  0
ARC
  5
62
330
17
100
AcDbEntity
  8
POCKET
100
AcDbCircle
 10
48.845834452388885
 20
105.10223986299889
 30
0.0
 40
2.042773547583523
100
AcDbArc
 50
90.0
 51
180.0
  0
ARC
  5
63
330
17
100
AcDbEntity
  8
POCKET
100
AcDbCircle
 10
48.845834452388885
 20
101.54683937973186
 30
0.0
 40
2.042773547583523
100
AcDbArc
 50
180.0
 51
270.0
  0
LINE
  5
64
330
17
100
AcDbEntity
  8
POCKET
100
AcDbLine
 10
46.80306090480656
 20
105.10223986299889
 30
0.0
 11
46.80306090480656
 21
101.54683937973186
 31
0.0
  0
ARC
  5
65
330
17
100
AcDbEntity
  8
POCKET
100
AcDbCircle
 10
53.232993078464574
 20
109.73552040931281
 30
0.0
 40
0.8171094190326662
100
AcDbArc
 50
270.0
 51
90.0
  0
ARC
  5
66
330
17
100
AcDbEntity
  8
POCKET
100
AcDbCircle
 10
47.03542589338315
 20
116.95758375634887
 30
0.0
 40
0.8171094190326662
100
AcDbArc
 50
90.0
 51
270.0
  0
LINE
  5
67
330
17
100
AcDbEntity
  8
POCKET
100
AcDbLine
 10
51.72759007354682
 20
105.10223986299889
 30
0.0
 11
51.72759007354682
 21
101.54683937973186
 31
0.0
  0
ARC
  5
68
330
17
100
AcDbEntity
  8
POCKET
100
AcDbCircle
 10
51.31903536402854
 20
105.10223986299889
 30
0.0
 40
0.4085547095167046
100
AcDbArc
 50
0.0
 51
90.0
  0
LINE
  5
69
330
17
100
AcDbEntity
  8
POCKET
100
AcDbLine
 10
51.31903536402854
 20
101.1382846702138
 30
0.0
 11
48.845834452388885
 21
101.1382846702138
 31
0.0
  0
ARC
  5
6A
330
17
100
AcDbEntity
  8
POCKET
100
AcDbCircle
 10
51.31903536402854
 20
101.54683937973186
 30
0.0
 40
0.4085547095167046
100
AcDbArc
 50
270.0
 51
0.0
  0
LINE
  5
6B
330
17
100
AcDbEntity
  8
POCKET
100
AcDbLine
 10
51.31903536402854
 20
105.51079457251694
 30
0.0
 11
48.845834452388885
 21
105.51079457251694
 31
0.0
  0
ARC
  5
6C
330
17
100
AcDbEntity
  8
POCKET
100
AcDbCircle
 10
48.845834452388885
 20
105.10223986299889
 30
0.0
 40
0.4085547095167046
100
AcDbArc
 50
90.0
 51
180.0
  0
ARC
  5
6D
330
17
100
AcDbEntity
  8
POCKET
100
AcDbCircle
 10
48.845834452388885
 20
101.54683937973186
 30
0.0
 40
0.4085547095167046
100
AcDbArc
 50
180.0
 51
270.0
  0
LINE
  5
6E
330
17
100
AcDbEntity
  8
POCKET
100
AcDbLine
 10
48.43727974287049
 20
105.10223986299889
 30
0.0
 11
48.43727974287049
 21
101.54683937973186
 31
0.0
  0
LWPOLYLINE
  5
6F
330
17
100
AcDbEntity
  8
CUT
100
AcDbPolyline
 90
12
 70
1
 10
48.5994080940028
 20
167.27481824336178
 10
51.669010877844926
 20
167.27481824336178
 42
-0.1989123673799034
 10
52.3761176590333
 20
166.981925024548
 10
54.841316267108596
 20
164.51672641647087
 42
-0.198912367379765
 10
55.13420948592375
 20
163.8096196352849
 10
55.13420948592375
 20
150.27481824336178
 42
-0.4142135623730951
 10
54.13420948592386
 20
149.27481824336178
 10
46.13420948592386
 20
149.27481824336178
 42
-0.4142135623730951
 10
45.13420948592386
 20
150.27481824336178
 10
45.13420948592386
 20
163.80961963528398
 42
-0.1989123673795905
 10
45.4271027047389
 20
164.51672641646996
 10
47.89230131281795
 20
166.981925024548
 42
-0.1989123673798319
  0
CIRCLE
  5
70
330
17
100
AcDbEntity
  8
CUT
100
AcDbCircle
 10
50.13420948592386
 20
145.3914317249969
 30
0.0
 40
1.5
  0
CIRCLE
  5
71
330
17
100
AcDbEntity
  8
CUT
100
AcDbCircle
 10
26.407742981299748
 20
73.60766188068078
 30
0.0
 40
1.5
  0
CIRCLE
  5
72
330
17
100
AcDbEntity
  8
COUNTERSINK
100
AcDbCircle
 10
26.407742981299748
 20
73.60766188068078
 30
0.0
 40
3.0
  0
CIRCLE
  5
73
330
17
100
AcDbEntity
  8
CUT
100
AcDbCircle
 10
30.05383575699227
 20
188.364581663634
 30
0.0
 40
1.5
  0
CIRCLE
  5
74
330
17
100
AcDbEntity
  8
CUT
100
AcDbCircle
 10
26.407742981299748
 20
155.96026530455697
 30
0.0
 40
1.5
  0
CIRCLE
  5
75
330
17
100
AcDbEntity
  8
CUT
100
AcDbCircle
 10
35.7234928625503
 20
10.79156332587695
 30
0.0
 40
1.5
  0
CIRCLE
  5
76
330
17
100
AcDbEntity
  8
COUNTERSINK
100
AcDbCircle
 10
35.7234928625503
 20
10.79156332587695
 30
0.0
 40
3.0
  0
LWPOLYLINE
  5
77
330
17
100
AcDbEntity
  8
CUT
100
AcDbPolyline
 90
8
 70
1
 10
39.01050638344441
 20
64.1108498739618
 10
40.51050638344452
 20
64.1108498739618
 42
-0.4142135623730951
 10
41.51050638344452
 20
63.1108498739618
 10
41.51050638344452
 20
40.1108498739618
 42
-0.4142135623730951
 10
40.51050638344452
 20
39.1108498739618
 10
39.01050638344441
 20
39.1108498739618
 42
-0.4142135623730951
 10
38.01050638344441
 20
40.1108498739618
 10
38.01050638344441
 20
63.1108498739618
 42
-0.4142135623730951
  0
LWPOLYLINE
  5
78
330
17
100
AcDbEntity
  8
CUT
100
AcDbPolyline
 90
8
 70
1
 10
40.25420946813858
 20
187.71245203249282
 42
1.000000022967015
 10
40.25420950488581
 20
189.31245203249182
 10
37.134209468135964
 20
189.31245203249182
 42
0.9999999999999998
 10
37.134209468135964
 20
187.71245203249282
 10
37.134209468135964
 20
184.81246892309787
 42
0.9999999999999998
 10
37.134209468135964
 20
183.21246892309887
 10
40.25420950488581
 20
183.21246892309887
 42
1.000000022969288
 10
40.254209468134945
 20
184.81246892309787
  0
ENDSEC
  0
SECTION
  2
OBJECTS
  0
DICTIONARY
  5
A
330
0
100
AcDbDictionary
281
1
  3
ACAD_COLOR
350
B
  3
ACAD_GROUP
350
C
  3
ACAD_LAYOUT
350
D
  3
ACAD_MATERIAL
350
E
  3
ACAD_MLEADERSTYLE
350
F
  3
ACAD_MLINESTYLE
350
10
  3
ACAD_PLOTSETTINGS
350
11
  3
ACAD_PLOTSTYLENAME
350
12
  3
ACAD_SCALELIST
350
14
  3
ACAD_TABLESTYLE
350
15
  3
ACAD_VISUALSTYLE
350
16
  3
EZDXF_META
350
2D
  0
DICTIONARY
  5
B
330
A
100
AcDbDictionary
281
1
  0
DICTIONARY
  5
C
330
A
100
AcDbDictionary
281
1
  0
DICTIONARY
  5
D
330
A
100
AcDbDictionary
281
1
  3
Model
350
1A
  3
Layout1
350
1E
  0
DICTIONARY
  5
E
330
A
100
AcDbDictionary
281
1
  3
ByBlock
350
1F
  3
ByLayer
350
20
  3
Global
350
21
  0
DICTIONARY
  5
F
330
A
100
AcDbDictionary
281
1
  3
Standard
350
2C
  0
DICTIONARY
  5
10
330
A
100
AcDbDictionary
281
1
  3
Standard
350
22
  0
DICTIONARY
  5
11
330
A
100
AcDbDictionary
281
1
  0
ACDBDICTIONARYWDFLT
  5
12
330
A
100
AcDbDictionary
281
1
  3
Normal
350
13
100
AcDbDictionaryWithDefault
340
13
  0
ACDBPLACEHOLDER
  5
13
330
12
  0
DICTIONARY
  5
14
330
A
100
AcDbDictionary
281
1
  0
DICTIONARY
  5
15
330
A
100
AcDbDictionary
281
1
  0
DICTIONARY
  5
16
330
A
100
AcDbDictionary
281
1
  0
LAYOUT
  5
1A
330
D
100
AcDbPlotSettings
  1

  4
A3
  6

 40
7.5
 41
20.0
 42
7.5
 43
20.0
 44
420.0
 45
297.0
 46
0.0
 47
0.0
 48
0.0
 49
0.0
140
0.0
141
0.0
142
1.0
143
1.0
 70
1024
 72
1
 73
0
 74
5
  7

 75
16
 76
0
 77
2
 78
300
147
1.0
148
0.0
149
0.0
100
AcDbLayout
  1
Model
 70
1
 71
0
 10
0.0
 20
0.0
 11
420.0
 21
297.0
 12
0.0
 22
0.0
 32
0.0
 14
1e+20
 24
1e+20
 34
1e+20
 15
-1e+20
 25
-1e+20
 35
-1e+20
146
0.0
 13
0.0
 23
0.0
 33
0.0
 16
1.0
 26
0.0
 36
0.0
 17
0.0
 27
1.0
 37
0.0
 76
1
330
17
  0
LAYOUT
  5
1E
330
D
100
AcDbPlotSettings
  1

  4
A3
  6

 40
7.5
 41
20.0
 42
7.5
 43
20.0
 44
420.0
 45
297.0
 46
0.0
 47
0.0
 48
0.0
 49
0.0
140
0.0
141
0.0
142
1.0
143
1.0
 70
0
 72
1
 73
0
 74
5
  7

 75
16
 76
0
 77
2
 78
300
147
1.0
148
0.0
149
0.0
100
AcDbLayout
  1
Layout1
 70
1
 71
1
 10
0.0
 20
0.0
 11
420.0
 21
297.0
 12
0.0
 22
0.0
 32
0.0
 14
1e+20
 24
1e+20
 34
1e+20
 15
-1e+20
 25
-1e+20
 35
-1e+20
146
0.0
 13
0.0
 23
0.0
 33
0.0
 16
1.0
 26
0.0
 36
0.0
 17
0.0
 27
1.0
 37
0.0
 76
1
330
1B
  0
MATERIAL
  5
1F
102
{ACAD_REACTORS
330
E
102
}
330
E
100
AcDbMaterial
  1
ByBlock
  2

 70
0
 40
1.0
 71
1
 41
1.0
 91
-1023410177
 42
1.0
 72
1
  3

 73
1
 74
1
 75
1
 44
0.5
 73
0
 45
1.0
 46
1.0
 77
1
  4

 78
1
 79
1
170
1
 48
1.0
171
1
  6

172
1
173
1
174
1
140
1.0
141
1.0
175
1
  7

176
1
177
1
178
1
143
1.0
179
1
  8

270
1
271
1
272
1
145
1.0
146
1.0
273
1
  9

274
1
275
1
276
1
 42
1.0
 72
1
  3

 73
1
 74
1
 75
1
 94
63
  0
MATERIAL
  5
20
102
{ACAD_REACTORS
330
E
102
}
330
E
100
AcDbMaterial
  1
ByLayer
  2

 70
0
 40
1.0
 71
1
 41
1.0
 91
-1023410177
 42
1.0
 72
1
  3

 73
1
 74
1
 75
1
 44
0.5
 73
0
 45
1.0
 46
1.0
 77
1
  4

 78
1
 79
1
170
1
 48
1.0
171
1
  6

172
1
173
1
174
1
140
1.0
141
1.0
175
1
  7

176
1
177
1
178
1
143
1.0
179
1
  8

270
1
271
1
272
1
145
1.0
146
1.0
273
1
  9

274
1
275
1
276
1
 42
1.0
 72
1
  3

 73
1
 74
1
 75
1
 94
63
  0
MATERIAL
  5
21
102
{ACAD_REACTORS
330
E
102
}
330
E
100
AcDbMaterial
  1
Global
  2

 70
0
 40
1.0
 71
1
 41
1.0
 91
-1023410177
 42
1.0
 72
1
  3

 73
1
 74
1
 75
1
 44
0.5
 73
0
 45
1.0
 46
1.0
 77
1
  4

 78
1
 79
1
170
1
 48
1.0
171
1
  6

172
1
173
1
174
1
140
1.0
141
1.0
175
1
  7

176
1
177
1
178
1
143
1.0
179
1
  8

270
1
271
1
272
1
145
1.0
146
1.0
273
1
  9

274
1
275
1
276
1
 42
1.0
 72
1
  3

 73
1
 74
1
 75
1
 94
63
  0
MLINESTYLE
  5
22
102
{ACAD_REACTORS
330
10
102
}
330
10
100
AcDbMlineStyle
  2
Standard
 70
0
  3

 62
256
 51
90.0
 52
90.0
 71
2
 49
0.5
 62
256
  6
BYLAYER
 49
-0.5
 62
256
  6
BYLAYER
  0
MLEADERSTYLE
  5
2C
102
{ACAD_REACTORS
330
F
102
}
330
F
100
AcDbMLeaderStyle
179
2
170
2
171
1
172
0
 90
2
 40
0.0
 41
0.0
173
1
 91
-1056964608
 92
-2
290
1
 42
2.0
291
1
 43
8.0
  3
Standard
 44
4.0
300

342
29
174
1
175
1
176
0
178
1
 93
-1056964608
 45
4.0
292
0
297
0
 46
4.0
 94
-1056964608
 47
1.0
 49
1.0
140
1.0
294
1
141
0.0
177
0
142
1.0
295
0
296
0
143
3.75
271
0
272
9
273
9
  0
DICTIONARY
  5
2D
330
A
100
AcDbDictionary
280
1
281
1
  3
CREATED_BY_EZDXF
350
2E
  3
WRITTEN_BY_EZDXF
350
7B
  0
DICTIONARYVAR
  5
2E
330
2D
100
DictionaryVariables
280
0
  1
1.4.4 @ 2026-07-24T19:46:35.449366+00:00
  0
DICTIONARYVAR
  5
7B
330
2D
100
DictionaryVariables
280
0
  1
1.4.4 @ 2026-07-24T19:46:35.452182+00:00
  0
ENDSEC
  0
EOF
