  0
SECTION
  2
HEADER
  9
$ACADVER
  1
AC1027
  9
$ACADMAINTVER
 70
105
  9
$DWGCODEPAGE
  3
ANSI_1252
  9
$LASTSAVEDBY
  1
ezdxf
  9
$REQUIREDVERSIONS
160
0
  9
$INSBASE
 10
0.0
 20
0.0
 30
0.0
  9
$EXTMIN
 10
1e+20
 20
1e+20
 30
1e+20
  9
$EXTMAX
 10
-1e+20
 20
-1e+20
 30
-1e+20
  9
$LIMMIN
 10
0.0
 20
0.0
  9
$LIMMAX
 10
420.0
 20
297.0
  9
$ORTHOMODE
 70
0
  9
$REGENMODE
 70
1
  9
$FILLMODE
 70
1
  9
$QTEXTMODE
 70
0
  9
$MIRRTEXT
 70
1
  9
$LTSCALE
 40
1.0
  9
$ATTMODE
 70
1
  9
$TEXTSIZE
 40
2.5
  9
$TRACEWID
 40
1.0
  9
$TEXTSTYLE
  7
Standard
  9
$CLAYER
  8
0
  9
$CELTYPE
  6
ByLayer
  9
$CECOLOR
 62
256
  9
$CELTSCALE
 40
1.0
  9
$DISPSILH
 70
0
  9
$DIMSCALE
 40
1.0
  9
$DIMASZ
 40
2.5
  9
$DIMEXO
 40
0.625
  9
$DIMDLI
 40
3.75
  9
$DIMRND
 40
0.0
  9
$DIMDLE
 40
0.0
  9
$DIMEXE
 40
1.25
  9
$DIMTP
 40
0.0
  9
$DIMTM
 40
0.0
  9
$DIMTXT
 40
2.5
  9
$DIMCEN
 40
2.5
  9
$DIMTSZ
 40
0.0
  9
$DIMTOL
 70
0
  9
$DIMLIM
 70
0
  9
$DIMTIH
 70
0
  9
$DIMTOH
 70
0
  9
$DIMSE1
 70
0
  9
$DIMSE2
 70
0
  9
$DIMTAD
 70
1
  9
$DIMZIN
 70
8
  9
$DIMBLK
  1

  9
$DIMASO
 70
1
  9
$DIMSHO
 70
1
  9
$DIMPOST
  1

  9
$DIMAPOST
  1

  9
$DIMALT
 70
0
  9
$DIMALTD
 70
3
  9
$DIMALTF
 40
0.03937007874
  9
$DIMLFAC
 40
1.0
  9
$DIMTOFL
 70
1
  9
$DIMTVP
 40
0.0
  9
$DIMTIX
 70
0
  9
$DIMSOXD
 70
0
  9
$DIMSAH
 70
0
  9
$DIMBLK1
  1

  9
$DIMBLK2
  1

  9
$DIMSTYLE
  2
ISO-25
  9
$DIMCLRD
 70
0
  9
$DIMCLRE
 70
0
  9
$DIMCLRT
 70
0
  9
$DIMTFAC
 40
1.0
  9
$DIMGAP
 40
0.625
  9
$DIMJUST
 70
0
  9
$DIMSD1
 70
0
  9
$DIMSD2
 70
0
  9
$DIMTOLJ
 70
0
  9
$DIMTZIN
 70
8
  9
$DIMALTZ
 70
0
  9
$DIMALTTZ
 70
0
  9
$DIMUPT
 70
0
  9
$DIMDEC
 70
2
  9
$DIMTDEC
 70
2
  9
$DIMALTU
 70
2
  9
$DIMALTTD
 70
3
  9
$DIMTXSTY
  7
Standard
  9
$DIMAUNIT
 70
0
  9
$DIMADEC
 70
0
  9
$DIMALTRND
 40
0.0
  9
$DIMAZIN
 70
0
  9
$DIMDSEP
 70
44
  9
$DIMATFIT
 70
3
  9
$DIMFRAC
 70
0
  9
$DIMLDRBLK
  1

  9
$DIMLUNIT
 70
2
  9
$DIMLWD
 70
-2
  9
$DIMLWE
 70
-2
  9
$DIMTMOVE
 70
0
  9
$DIMFXL
 40
1.0
  9
$DIMFXLON
 70
0
  9
$DIMJOGANG
 40
0.785398163397
  9
$DIMTFILL
 70
0
  9
$DIMTFILLCLR
 70
0
  9
$DIMARCSYM
 70
0
  9
$DIMLTYPE
  6

  9
$DIMLTEX1
  6

  9
$DIMLTEX2
  6

  9
$DIMTXTDIRECTION
 70
0
  9
$LUNITS
 70
2
  9
$LUPREC
 70
4
  9
$SKETCHINC
 40
1.0
  9
$FILLETRAD
 40
10.0
  9
$AUNITS
 70
0
  9
$AUPREC
 70
2
  9
$MENU
  1
.
  9
$ELEVATION
 40
0.0
  9
$PELEVATION
 40
0.0
  9
$THICKNESS
 40
0.0
  9
$LIMCHECK
 70
0
  9
$CHAMFERA
 40
0.0
  9
$CHAMFERB
 40
0.0
  9
$CHAMFERC
 40
0.0
  9
$CHAMFERD
 40
0.0
  9
$SKPOLY
 70
0
  9
$TDCREATE
 40
2461246.532349537
  9
$TDUCREATE
 40
2458532.153996898
  9
$TDUPDATE
 40
2461246.532349537
  9
$TDUUPDATE
 40
2458532.1544311
  9
$TDINDWG
 40
0.0
  9
$TDUSRTIMER
 40
0.0
  9
$USRTIMER
 70
1
  9
$ANGBASE
 50
0.0
  9
$ANGDIR
 70
0
  9
$PDMODE
 70
0
  9
$PDSIZE
 40
0.0
  9
$PLINEWID
 40
0.0
  9
$SPLFRAME
 70
0
  9
$SPLINETYPE
 70
6
  9
$SPLINESEGS
 70
8
  9
$HANDSEED
  5
7C
  9
$SURFTAB1
 70
6
  9
$SURFTAB2
 70
6
  9
$SURFTYPE
 70
6
  9
$SURFU
 70
6
  9
$SURFV
 70
6
  9
$UCSBASE
  2

  9
$UCSNAME
  2

  9
$UCSORG
 10
0.0
 20
0.0
 30
0.0
  9
$UCSXDIR
 10
1.0
 20
0.0
 30
0.0
  9
$UCSYDIR
 10
0.0
 20
1.0
 30
0.0
  9
$UCSORTHOREF
  2

  9
$UCSORTHOVIEW
 70
0
  9
$UCSORGTOP
 10
0.0
 20
0.0
 30
0.0
  9
$UCSORGBOTTOM
 10
0.0
 20
0.0
 30
0.0
  9
$UCSORGLEFT
 10
0.0
 20
0.0
 30
0.0
  9
$UCSORGRIGHT
 10
0.0
 20
0.0
 30
0.0
  9
$UCSORGFRONT
 10
0.0
 20
0.0
 30
0.0
  9
$UCSORGBACK
 10
0.0
 20
0.0
 30
0.0
  9
$PUCSBASE
  2

  9
$PUCSNAME
  2

  9
$PUCSORG
 10
0.0
 20
0.0
 30
0.0
  9
$PUCSXDIR
 10
1.0
 20
0.0
 30
0.0
  9
$PUCSYDIR
 10
0.0
 20
1.0
 30
0.0
  9
$PUCSORTHOREF
  2

  9
$PUCSORTHOVIEW
 70
0
  9
$PUCSORGTOP
 10
0.0
 20
0.0
 30
0.0
  9
$PUCSORGBOTTOM
 10
0.0
 20
0.0
 30
0.0
  9
$PUCSORGLEFT
 10
0.0
 20
0.0
 30
0.0
  9
$PUCSORGRIGHT
 10
0.0
 20
0.0
 30
0.0
  9
$PUCSORGFRONT
 10
0.0
 20
0.0
 30
0.0
  9
$PUCSORGBACK
 10
0.0
 20
0.0
 30
0.0
  9
$USERI1
 70
0
  9
$USERI2
 70
0
  9
$USERI3
 70
0
  9
$USERI4
 70
0
  9
$USERI5
 70
0
  9
$USERR1
 40
0.0
  9
$USERR2
 40
0.0
  9
$USERR3
 40
0.0
  9
$USERR4
 40
0.0
  9
$USERR5
 40
0.0
  9
$WORLDVIEW
 70
1
  9
$SHADEDGE
 70
3
  9
$SHADEDIF
 70
70
  9
$TILEMODE
 70
1
  9
$MAXACTVP
 70
64
  9
$PINSBASE
 10
0.0
 20
0.0
 30
0.0
  9
$PLIMCHECK
 70
0
  9
$PEXTMIN
 10
1e+20
 20
1e+20
 30
1e+20
  9
$PEXTMAX
 10
-1e+20
 20
-1e+20
 30
-1e+20
  9
$PLIMMIN
 10
0.0
 20
0.0
  9
$PLIMMAX
 10
420.0
 20
297.0
  9
$UNITMODE
 70
0
  9
$VISRETAIN
 70
1
  9
$PLINEGEN
 70
0
  9
$PSLTSCALE
 70
1
  9
$TREEDEPTH
 70
3020
  9
$CMLSTYLE
  2
Standard
  9
$CMLJUST
 70
0
  9
$CMLSCALE
 40
20.0
  9
$PROXYGRAPHICS
 70
1
  9
$MEASUREMENT
 70
1
  9
$CELWEIGHT
370
-1
  9
$ENDCAPS
280
0
  9
$JOINSTYLE
280
0
  9
$LWDISPLAY
290
0
  9
$INSUNITS
 70
4
  9
$HYPERLINKBASE
  1

  9
$STYLESHEET
  1

  9
$XEDIT
290
1
  9
$CEPSNTYPE
380
0
  9
$PSTYLEMODE
290
1
  9
$FINGERPRINTGUID
  2
{A1DB5A82-4B55-4EED-A308-D1DE73F1DFAB}
  9
$VERSIONGUID
  2
{DF11A912-1194-4276-8DE5-C7DCBACB6A28}
  9
$EXTNAMES
290
1
  9
$PSVPSCALE
 40
0.0
  9
$OLESTARTUP
290
0
  9
$SORTENTS
280
127
  9
$INDEXCTL
280
0
  9
$HIDETEXT
280
1
  9
$XCLIPFRAME
280
1
  9
$HALOGAP
280
0
  9
$OBSCOLOR
 70
257
  9
$OBSLTYPE
280
0
  9
$INTERSECTIONDISPLAY
280
0
  9
$INTERSECTIONCOLOR
 70
257
  9
$DIMASSOC
280
2
  9
$PROJECTNAME
  1

  9
$CAMERADISPLAY
290
0
  9
$LENSLENGTH
 40
50.0
  9
$CAMERAHEIGHT
 40
0.0
  9
$STEPSPERSEC
 40
24.0
  9
$STEPSIZE
 40
100.0
  9
$3DDWFPREC
 40
2.0
  9
$PSOLWIDTH
 40
0.005
  9
$PSOLHEIGHT
 40
0.08
  9
$LOFTANG1
 40
1.570796326795
  9
$LOFTANG2
 40
1.570796326795
  9
$LOFTMAG1
 40
0.0
  9
$LOFTMAG2
 40
0.0
  9
$LOFTPARAM
 70
7
  9
$LOFTNORMALS
280
1
  9
$LATITUDE
 40
37.795
  9
$LONGITUDE
 40
-122.394
  9
$NORTHDIRECTION
 40
0.0
  9
$TIMEZONE
 70
-8000
  9
$LIGHTGLYPHDISPLAY
280
1
  9
$TILEMODELIGHTSYNCH
280
1
  9
$CMATERIAL
347
20
  9
$SOLIDHIST
280
0
  9
$SHOWHIST
280
1
  9
$DWFFRAME
280
2
  9
$DGNFRAME
280
2
  9
$REALWORLDSCALE
290
1
  9
$INTERFERECOLOR
 62
256
  9
$CSHADOW
280
0
  9
$SHADOWPLANELOCATION
 40
0.0
  0
ENDSEC
  0
SECTION
  2
CLASSES
  0
CLASS
  1
ACDBDICTIONARYWDFLT
  2
AcDbDictionaryWithDefault
  3
ObjectDBX Classes
 90
0
 91
0
280
0
281
0
  0
CLASS
  1
SUN
  2
AcDbSun
  3
SCENEOE
 90
1153
 91
0
280
0
281
0
  0
CLASS
  1
VISUALSTYLE
  2
AcDbVisualStyle
  3
ObjectDBX Classes
 90
4095
 91
0
280
0
281
0
  0
CLASS
  1
MATERIAL
  2
AcDbMaterial
  3
ObjectDBX Classes
 90
1153
 91
0
280
0
281
0
  0
CLASS
  1
SCALE
  2
AcDbScale
  3
ObjectDBX Classes
 90
1153
 91
0
280
0
281
0
  0
CLASS
  1
TABLESTYLE
  2
AcDbTableStyle
  3
ObjectDBX Classes
 90
4095
 91
0
280
0
281
0
  0
CLASS
  1
MLEADERSTYLE
  2
AcDbMLeaderStyle
  3
ACDB_MLEADERSTYLE_CLASS
 90
4095
 91
0
280
0
281
0
  0
CLASS
  1
DICTIONARYVAR
  2
AcDbDictionaryVar
  3
ObjectDBX Classes
 90
0
 91
0
280
0
281
0
  0
CLASS
  1
CELLSTYLEMAP
  2
AcDbCellStyleMap
  3
ObjectDBX Classes
 90
1152
 91
0
280
0
281
0
  0
CLASS
  1
MENTALRAYRENDERSETTINGS
  2
AcDbMentalRayRenderSettings
  3
SCENEOE
 90
1024
 91
0
280
0
281
0
  0
CLASS
  1
ACDBDETAILVIEWSTYLE
  2
AcDbDetailViewStyle
  3
ObjectDBX Classes
 90
1025
 91
0
280
0
281
0
  0
CLASS
  1
ACDBSECTIONVIEWSTYLE
  2
AcDbSectionViewStyle
  3
ObjectDBX Classes
 90
1025
 91
0
280
0
281
0
  0
CLASS
  1
RASTERVARIABLES
  2
AcDbRasterVariables
  3
ISM
 90
0
 91
0
280
0
281
0
  0
CLASS
  1
ACDBPLACEHOLDER
  2
AcDbPlaceHolder
  3
ObjectDBX Classes
 90
0
 91
0
280
0
281
0
  0
CLASS
  1
LAYOUT
  2
AcDbLayout
  3
ObjectDBX Classes
 90
0
 91
0
280
0
281
0
  0
ENDSEC
  0
SECTION
  2
TABLES
  0
TABLE
  2
VPORT
  5
8
330
0
100
AcDbSymbolTable
 70
1
  0
VPORT
  5
23
330
8
100
AcDbSymbolTableRecord
100
AcDbViewportTableRecord
  2
*Active
 70
0
 10
0.0
 20
0.0
 11
1.0
 21
1.0
 12
0.0
 22
0.0
 13
0.0
 23
0.0
 14
0.5
 24
0.5
 15
0.5
 25
0.5
 16
0.0
 26
0.0
 36
1.0
 17
0.0
 27
0.0
 37
0.0
 40
1000.0
 41
1.34
 42
50.0
 43
0.0
 44
0.0
 50
0.0
 51
0.0
 71
0
 72
1000
 73
1
 74
3
 75
0
 76
0
 77
0
 78
0
281
0
 65
0
146
0.0
  0
ENDTAB
  0
TABLE
  2
LTYPE
  5
2
330
0
100
AcDbSymbolTable
 70
3
  0
LTYPE
  5
24
330
2
100
AcDbSymbolTableRecord
100
AcDbLinetypeTableRecord
  2
ByBlock
 70
0
  3

 72
65
 73
0
 40
0.0
  0
LTYPE
  5
25
330
2
100
AcDbSymbolTableRecord
100
AcDbLinetypeTableRecord
  2
ByLayer
 70
0
  3

 72
65
 73
0
 40
0.0
  0
LTYPE
  5
26
330
2
100
AcDbSymbolTableRecord
100
AcDbLinetypeTableRecord
  2
Continuous
 70
0
  3

 72
65
 73
0
 40
0.0
  0
ENDTAB
  0
TABLE
  2
LAYER
  5
1
330
0
100
AcDbSymbolTable
 70
7
  0
LAYER
  5
27
330
1
100
AcDbSymbolTableRecord
100
AcDbLayerTableRecord
  2
0
 70
0
 62
7
  6
Continuous
370
-3
390
13
347
21
  0
LAYER
  5
28
330
1
100
AcDbSymbolTableRecord
100
AcDbLayerTableRecord
  2
Defpoints
 70
0
 62
7
  6
Continuous
290
0
370
-3
390
13
347
21
  0
LAYER
  5
2F
330
1
100
AcDbSymbolTableRecord
100
AcDbLayerTableRecord
  2
CUT
 70
0
 62
7
  6
Continuous
370
-3
390
13
347
21
  0
LAYER
  5
30
330
1
100
AcDbSymbolTableRecord
100
AcDbLayerTableRecord
  2
POCKET
 70
0
 62
7
  6
Continuous
370
-3
390
13
347
21
  0
LAYER
  5
31
330
1
100
AcDbSymbolTableRecord
100
AcDbLayerTableRecord
  2
CHAMFER
 70
0
 62
7
  6
Continuous
370
-3
390
13
347
21
  0
LAYER
  5
32
330
1
100
AcDbSymbolTableRecord
100
AcDbLayerTableRecord
  2
COUNTERSINK
 70
0
 62
7
  6
Continuous
370
-3
390
13
347
21
  0
LAYER
  5
33
330
1
100
AcDbSymbolTableRecord
100
AcDbLayerTableRecord
  2
ANNOTATION
 70
0
 62
7
  6
Continuous
370
-3
390
13
347
21
  0
ENDTAB
  0
TABLE
  2
STYLE
  5
5
330
0
100
AcDbSymbolTable
 70
1
  0
STYLE
  5
29
330
5
100
AcDbSymbolTableRecord
100
AcDbTextStyleTableRecord
  2
Standard
 70
0
 40
0.0
 41
1.0
 50
0.0
 71
0
 42
2.5
  3
txt
  4

  0
ENDTAB
  0
TABLE
  2
VIEW
  5
7
330
0
100
AcDbSymbolTable
 70
0
  0
ENDTAB
  0
TABLE
  2
UCS
  5
6
330
0
100
AcDbSymbolTable
 70
0
  0
ENDTAB
  0
TABLE
  2
APPID
  5
3
330
0
100
AcDbSymbolTable
 70
3
  0
APPID
  5
2A
330
3
100
AcDbSymbolTableRecord
100
AcDbRegAppTableRecord
  2
ACAD
 70
0
  0
APPID
  5
79
330
3
100
AcDbSymbolTableRecord
100
AcDbRegAppTableRecord
  2
HATCHBACKGROUNDCOLOR
 70
0
  0
APPID
  5
7A
330
3
100
AcDbSymbolTableRecord
100
AcDbRegAppTableRecord
  2
EZDXF
 70
0
  0
ENDTAB
  0
TABLE
  2
DIMSTYLE
  5
4
330
0
100
AcDbSymbolTable
 70
1
100
AcDbDimStyleTable
  0
DIMSTYLE
105
2B
330
4
100
AcDbSymbolTableRecord
100
AcDbDimStyleTableRecord
  2
Standard
 70
0
 40
1.0
 41
2.5
 42
0.625
 43
3.75
 44
1.25
 45
0.0
 46
0.0
 47
0.0
 48
0.0
 49
2.5
140
2.5
141
2.5
142
0.0
143
0.03937007874
144
1.0
145
0.0
146
1.0
147
0.625
148
0.0
 69
0
 70
0
 71
0
 72
0
 73
0
 74
0
 75
0
 76
0
 77
1
 78
8
 79
3
170
0
171
3
172
1
173
0
174
0
175
0
176
0
177
0
178
0
179
2
271
2
272
2
273
2
274
3
275
0
276
0
277
2
278
44
279
0
280
0
281
0
282
0
283
0
284
8
285
0
286
0
288
0
289
3
290
0
371
-2
372
-2
  0
ENDTAB
  0
TABLE
  2
BLOCK_RECORD
  5
9
330
0
100
AcDbSymbolTable
 70
2
  0
BLOCK_RECORD
  5
17
330
9
100
AcDbSymbolTableRecord
100
AcDbBlockTableRecord
  2
*Model_Space
340
1A
 70
0
280
1
281
0
  0
BLOCK_RECORD
  5
1B
330
9
100
AcDbSymbolTableRecord
100
AcDbBlockTableRecord
  2
*Paper_Space
340
1E
 70
0
280
1
281
0
  0
ENDTAB
  0
ENDSEC
  0
SECTION
  2
BLOCKS
  0
BLOCK
  5
18
330
17
100
AcDbEntity
  8
0
100
AcDbBlockBegin
  2
*Model_Space
 70
0
 10
0.0
 20
0.0
 30
0.0
  3
*Model_Space
  1

  0
ENDBLK
  5
19
330
17
100
AcDbEntity
  8
0
100
AcDbBlockEnd
  0
BLOCK
  5
1C
330
1B
100
AcDbEntity
  8
0
100
AcDbBlockBegin
  2
*Paper_Space
 70
0
 10
0.0
 20
0.0
 30
0.0
  3
*Paper_Space
  1

  0
ENDBLK
  5
1D
330
1B
100
AcDbEntity
  8
0
100
AcDbBlockEnd
  0
ENDSEC
  0
SECTION
  2
ENTITIES
  0
LINE
  5
34
330
17
100
AcDbEntity
  8
CUT
100
AcDbLine
 10
51.51077087149895
 20
130.57828418733718
 30
0.0
 11
5.0
 21
127.34656172278628
 31
0.0
  0
LINE
  5
35
330
17
100
AcDbEntity
  8
POCKET
100
AcDbLine
 10
45.75929202506359
 20
135.18494585151777
 30
0.0
 11
54.50912694678391
 21
135.18494585151777
 31
0.0
  0
LINE
  5
36
330
17
100
AcDbEntity
  8
POCKET
100
AcDbLine
 10
55.384579566077264
 20
133.28007229620948
 30
0.0
 11
48.26939962739834
 21
124.98870913577247
 31
0.0
  0
ARC
  5
37
330
17
100
AcDbEntity
  8
POCKET
100
AcDbCircle
 10
54.50912694678391
 20
134.03133632764977
 30
0.0
 40
1.153609523868798
100
AcDbArc
 50
319.3656689924003
 51
90.0
  0
LWPOLYLINE
  5
38
330
17
100
AcDbEntity
  8
POCKET
100
AcDbPolyline
 90
5
 70
0
 10
45.75929202506359
 20
132.87772680378217
 10
51.9990193444454
 20
132.87772680378217
 10
44.88383940577387
 20
124.58636364334478
 42
0.6409682668034211
 10
45.75929202506359
 20
122.68149008803147
 10
54.50912694678391
 20
122.68149008804198
  0
LINE
  5
39
330
17
100
AcDbEntity
  8
POCKET
100
AcDbLine
 10
48.26939962740198
 20
124.98870913577247
 30
0.0
 11
54.50912694678391
 21
124.98870913577747
 31
0.0
  0
ARC
  5
3A
330
17
100
AcDbEntity
  8
POCKET
100
AcDbCircle
 10
51.80696760774924
 20
117.29375222258949
 30
0.0
 40
2.884023809671997
100
AcDbArc
 50
0.0
 51
90.0
  0
LINE
  5
3B
330
17
100
AcDbEntity
  8
POCKET
100
AcDbLine
 10
51.80696760774924
 20
120.17777603226179
 30
0.0
 11
48.31525883576512
 21
120.17777603226179
 31
0.0
  0
ARC
  5
3C
330
17
100
AcDbEntity
  8
POCKET
100
AcDbCircle
 10
48.31525883576512
 20
117.29375222258949
 30
0.0
 40
2.884023809671997
100
AcDbArc
 50
90.0
 51
180.0
  0
ARC
  5
3D
330
17
100
AcDbEntity
  8
POCKET
100
AcDbCircle
 10
51.806967607752995
 20
140.31457974816448
 30
0.0
 40
2.884023809671997
100
AcDbArc
 50
270.0
 51
0.0
  0
LWPOLYLINE
  5
3E
330
17
100
AcDbEntity
  8
POCKET
100
AcDbPolyline
 90
5
 70
0
 10
48.34978487860917
 20
146.08890629065098
 10
48.83117417505753
 20
146.08890629065098
 10
48.831174175093906
 20
138.58416546235517
 42
0.4142135623714801
 10
49.9847836989602
 20
137.4305559384927
 10
51.806967607752995
 20
137.4305559384927
  0
ARC
  5
3F
330
17
100
AcDbEntity
  8
POCKET
100
AcDbCircle
 10
54.50912694678391
 20
123.83509961190998
 30
0.0
 40
1.153609523867749
100
AcDbArc
 50
270.0
 51
90.0
  0
ARC
  5
40
330
17
100
AcDbEntity
  8
POCKET
100
AcDbCircle
 10
45.75929202506359
 20
134.03133632764977
 30
0.0
 40
1.153609523867749
100
AcDbArc
 50
90.0
 51
270.0
  0
LWPOLYLINE
  5
41
330
17
100
AcDbEntity
  8
CUT
100
AcDbPolyline
 90
39
 70
0
 10
50.134209485923634
 20
17.479911604958886
 42
-0.2196847197508813
 10
51.65639772964005
 20
16.777194515773658
 10
60.795161567605646
 20
6.0540756337777
 42
0.2196847197508729
 10
63.07844393317919
 20
5.0
 10
66.55327040016982
 20
5.0
 42
0.4142135623730951
 10
69.55327040016971
 20
7.999999999999886
 10
69.55327040016971
 20
59.0807474830026
 42
-0.1989123673796368
 10
70.43195005660971
 20
61.202067826562086
 10
78.14336148043458
 20
68.91347925038707
 42
0.1989123673796368
 10
79.02204113687458
 20
71.03479959394656
 10
79.02204113687458
 20
76.11811514641425
 42
0.2144574455153521
 10
78.0131674932154
 20
78.36208837109638
 10
73.21141427806197
 20
82.62278866740411
 42
-0.2144574455155652
 10
72.20254063439916
 20
84.86676189208757
 10
72.20254063439916
 20
144.70116529314757
 42
-0.2144574455155453
 10
73.21141427806197
 20
146.94513851783077
 10
78.0131674932154
 20
151.2058388141415
 42
0.2144574455153474
 10
79.02204113687458
 20
153.4498120388239
 10
79.02204113687458
 20
158.53312759129128
 42
0.1989123673796242
 10
78.14336148043458
 20
160.6544479348506
 10
71.43195005660982
 20
167.36585935867558
 42
-0.1989123673796171
 10
70.55327040016982
 20
169.48717970223487
 10
70.55327040016982
 20
178.8801252481753
 42
-0.2144574455153393
 10
71.562144043829
 20
181.12409847285738
 10
74.36389725898607
 20
183.6101551732181
 42
0.2144574455153475
 10
75.37277090264513
 20
185.85412839790047
 10
75.37277090264513
 20
190.98403081124158
 42
0.2400149751937002
 10
74.13671209781114
 20
193.410656340654
 10
64.72218990221427
 20
200.25417765547377
 42
0.6128837473819786
 10
63.13420950382624
 20
199.44530247900298
 10
63.13420950382624
 20
196.23281826533957
 42
-0.9999999999999998
 10
63.13420950382624
 20
194.6328182653403
 10
60.0142094670764
 20
194.6328182653403
 42
-0.9999999999999998
 10
60.01420948480779
 20
196.23281826533977
 10
60.01420948580824
 20
197.30053188309648
 42
0.5814902120399227
 10
59.25886053271006
 20
197.73041199677567
 10
54.33321127156432
 20
194.80457443857037
 42
-0.134806905723887
 10
51.77972174055958
 20
194.10337557552108
 10
50.114209485836
 20
194.1033755755193
  0
LWPOLYLINE
  5
42
330
17
100
AcDbEntity
  8
CUT
100
AcDbPolyline
 90
8
 70
1
 10
35.654748579198895
 20
127.28396359261879
 10
37.154748579198895
 20
127.28396359261879
 42
-0.4142135623730951
 10
38.154748579198895
 20
126.28396359261879
 10
38.154748579198895
 20
103.28396359261879
 42
-0.4142135623730951
 10
37.154748579198895
 20
102.28396359261879
 10
35.654748579198895
 20
102.28396359261879
 42
-0.4142135623730951
 10
34.654748579198895
 20
103.28396359261879
 10
34.654748579198895
 20
126.28396359261879
 42
-0.4142135623730951
  0
LWPOLYLINE
  5
43
330
17
100
AcDbEntity
  8
CUT
100
AcDbPolyline
 90
39
 70
0
 10
50.134209485923634
 20
17.479911604958886
 42
0.2196847197508813
 10
48.612021242207334
 20
16.777194515773658
 10
39.47325740424185
 20
6.0540756337777
 42
-0.2196847197508729
 10
37.18997503866831
 20
5.0
 10
33.71514857167767
 20
5.0
 42
-0.4142135623730951
 10
30.71514857167756
 20
7.999999999999886
 10
30.71514857167756
 20
59.0807474830026
 42
0.1989123673796368
 10
29.836468915237674
 20
61.202067826562086
 10
22.125057491412804
 20
68.91347925038707
 42
-0.1989123673796368
 10
21.246377834972805
 20
71.03479959394656
 10
21.246377834972805
 20
76.11811514641425
 42
-0.2144574455153521
 10
22.25525147863209
 20
78.36208837109638
 10
27.05700469378553
 20
82.62278866740411
 42
0.2144574455155652
 10
28.06587833744834
 20
84.86676189208757
 10
28.06587833744834
 20
144.70116529314757
 42
0.2144574455155453
 10
27.05700469378553
 20
146.94513851783077
 10
22.25525147863209
 20
151.2058388141415
 42
-0.2144574455153474
 10
21.246377834972805
 20
153.4498120388239
 10
21.246377834972805
 20
158.53312759129128
 42
-0.1989123673796242
 10
22.125057491412804
 20
160.6544479348506
 10
28.836468915237674
 20
167.36585935867558
 42
0.1989123673796171
 10
29.715148571677673
 20
169.48717970223487
 10
29.715148571677673
 20
178.8801252481753
 42
0.2144574455153393
 10
28.7062749280185
 20
181.12409847285738
 10
25.90452171286131
 20
183.6101551732181
 42
-0.2144574455153475
 10
24.895648069202252
 20
185.85412839790047
 10
24.895648069202252
 20
190.98403081124158
 42
-0.2400149751937002
 10
26.131706874036354
 20
193.410656340654
 10
35.546229069633114
 20
200.25417765547377
 42
-0.6128837473819786
 10
37.134209468021254
 20
199.44530247900298
 10
37.134209468021254
 20
196.23281826533957
 42
0.9999999999999998
 10
37.134209468021254
 20
194.6328182653403
 10
40.2542095047711
 20
194.6328182653403
 42
0.9999999999999998
 10
40.25420948703959
 20
196.23281826533977
 10
40.25420948603903
 20
197.30053188309648
 42
-0.5814902120399227
 10
41.009558439137436
 20
197.73041199677567
 10
45.93520770028317
 20
194.80457443857037
 42
0.134806905723887
 10
48.488697231287915
 20
194.10337557552108
 10
50.154209486011496
 20
194.1033755755193
  0
LWPOLYLINE
  5
44
330
17
100
AcDbEntity
  8
CUT
100
AcDbPolyline
 90
8
 70
1
 10
64.6136703926486
 20
127.28396359261879
 10
63.1136703926486
 20
127.28396359261879
 42
0.4142135623730951
 10
62.1136703926486
 20
126.28396359261879
 10
62.1136703926486
 20
103.28396359261879
 42
0.4142135623730951
 10
63.1136703926486
 20
102.28396359261879
 10
64.6136703926486
 20
102.28396359261879
 42
0.4142135623730951
 10
65.6136703926486
 20
103.28396359261879
 10
65.6136703926486
 20
126.28396359261879
 42
0.4142135623730951
  0
LINE
  5
45
330
17
100
AcDbEntity
  8
POCKET
100
AcDbLine
 10
45.465761068938264
 20
145.51210152871468
 30
0.0
 11
45.465761068938264
 21
140.84357911570868
 31
0.0
  0
LINE
  5
46
330
17
100
AcDbEntity
  8
POCKET
100
AcDbLine
 10
47.77298011667426
 20
145.51210152871468
 30
0.0
 11
47.77298011667426
 21
140.84357911570868
 31
0.0
  0
LINE
  5
47
330
17
100
AcDbEntity
  8
POCKET
100
AcDbLine
 10
54.6909914174239
 20
145.51210152871468
 30
0.0
 11
54.6909914174239
 21
140.31457974816448
 31
0.0
  0
LINE
  5
48
330
17
100
AcDbEntity
  8
POCKET
100
AcDbLine
 10
45.50247475411288
 20
140.84357911570868
 30
0.0
 11
45.465761068938264
 21
140.84357911570868
 31
0.0
  0
ARC
  5
49
330
17
100
AcDbEntity
  8
POCKET
100
AcDbCircle
 10
46.63772743539357
 20
140.84357911570868
 30
0.0
 40
1.135252681282604
100
AcDbArc
 50
180.0
 51
0.0
  0
ARC
  5
4A
330
17
100
AcDbEntity
  8
POCKET
100
AcDbCircle
 10
51.806967607752995
 20
140.31457974816448
 30
0.0
 40
0.5768047619343993
100
AcDbArc
 50
270.0
 51
0.0
  0
LWPOLYLINE
  5
4B
330
17
100
AcDbEntity
  8
POCKET
100
AcDbPolyline
 90
4
 70
0
 10
51.806967607752995
 20
146.08890629065098
 10
51.13839322279
 20
146.08890629065098
 10
51.13839322282274
 20
139.73777498622817
 10
51.806967607752995
 20
139.73777498622817
  0
LINE
  5
4C
330
17
100
AcDbEntity
  8
POCKET
100
AcDbLine
 10
52.383772369687904
 20
145.51210152871468
 30
0.0
 11
52.383772369687904
 21
140.31457974816448
 31
0.0
  0
LINE
  5
4D
330
17
100
AcDbEntity
  8
POCKET
100
AcDbLine
 10
54.690991417420264
 20
117.29375222258949
 30
0.0
 11
54.690991417420264
 21
112.27417496264817
 31
0.0
  0
LINE
  5
4E
330
17
100
AcDbEntity
  8
POCKET
100
AcDbLine
 10
45.43123502609433
 20
117.29375222258949
 30
0.0
 11
45.43123502609433
 21
112.27417496264817
 31
0.0
  0
LINE
  5
4F
330
17
100
AcDbEntity
  8
POCKET
100
AcDbLine
 10
52.38377236968415
 20
117.29375222258949
 30
0.0
 11
52.38377236968415
 21
112.27417496264817
 31
0.0
  0
ARC
  5
50
330
17
100
AcDbEntity
  8
POCKET
100
AcDbCircle
 10
51.80696760774924
 20
117.29375222258949
 30
0.0
 40
0.5768047619343993
100
AcDbArc
 50
0.0
 51
90.0
  0
LINE
  5
51
330
17
100
AcDbEntity
  8
POCKET
100
AcDbLine
 10
51.80696760774924
 20
117.87055698452619
 30
0.0
 11
48.31525883576512
 21
117.87055698452619
 31
0.0
  0
ARC
  5
52
330
17
100
AcDbEntity
  8
POCKET
100
AcDbCircle
 10
48.31525883576512
 20
117.29375222258949
 30
0.0
 40
0.5768047619343993
100
AcDbArc
 50
90.0
 51
180.0
  0
LINE
  5
53
330
17
100
AcDbEntity
  8
POCKET
100
AcDbLine
 10
47.73845407383021
 20
117.29375222258949
 30
0.0
 11
47.73845407383021
 21
112.27417496264817
 31
0.0
  0
LINE
  5
54
330
17
100
AcDbEntity
  8
POCKET
100
AcDbLine
 10
51.80696760774924
 20
109.39015115297639
 30
0.0
 11
48.31525883576512
 21
109.39015115297639
 31
0.0
  0
ARC
  5
55
330
17
100
AcDbEntity
  8
POCKET
100
AcDbCircle
 10
51.80696760774924
 20
112.27417496264817
 30
0.0
 40
2.884023809671997
100
AcDbArc
 50
270.0
 51
0.0
  0
ARC
  5
56
330
17
100
AcDbEntity
  8
POCKET
100
AcDbCircle
 10
48.31525883576512
 20
112.27417496264817
 30
0.0
 40
2.884023809671997
100
AcDbArc
 50
180.0
 51
270.0
  0
LINE
  5
57
330
17
100
AcDbEntity
  8
POCKET
100
AcDbLine
 10
51.80696760774924
 20
111.69737020071187
 30
0.0
 11
48.31525883576512
 21
111.69737020071187
 31
0.0
  0
ARC
  5
58
330
17
100
AcDbEntity
  8
POCKET
100
AcDbCircle
 10
51.80696760774924
 20
112.27417496264817
 30
0.0
 40
0.5768047619343993
100
AcDbArc
 50
270.0
 51
0.0
  0
ARC
  5
59
330
17
100
AcDbEntity
  8
POCKET
100
AcDbCircle
 10
48.31525883576512
 20
112.27417496264817
 30
0.0
 40
0.5768047619343993
100
AcDbArc
 50
180.0
 51
270.0
  0
ARC
  5
5A
330
17
100
AcDbEntity
  8
POCKET
100
AcDbCircle
 10
48.34978487860917
 20
145.51210152871468
 30
0.0
 40
2.884023809671997
100
AcDbArc
 50
90.0
 51
180.0
  0
ARC
  5
5B
330
17
100
AcDbEntity
  8
POCKET
100
AcDbCircle
 10
48.34978487860917
 20
145.51210152871468
 30
0.0
 40
0.5768047619343993
100
AcDbArc
 50
90.0
 51
180.0
  0
ARC
  5
5C
330
17
100
AcDbEntity
  8
POCKET
100
AcDbCircle
 10
51.806967607752995
 20
145.51210152871468
 30
0.0
 40
2.884023809671997
100
AcDbArc
 50
0.0
 51
90.0
  0
ARC
  5
5D
330
17
100
AcDbEntity
  8
POCKET
100
AcDbCircle
 10
51.806967607752995
 20
145.51210152871468
 30
0.0
 40
0.5768047619343993
100
AcDbArc
 50
0.0
 51
90.0
  0
LWPOLYLINE
  5
5E
330
17
100
AcDbEntity
  8
POCKET
100
AcDbPolyline
 90
5
 70
0
 10
55.78134670371128
 20
150.66398944924248
 10
48.26902238801904
 20
150.66398944924248
 42
-0.2450663637303342
 10
46.1878528972984
 20
151.74921466605898
 42
-0.113398850918212
 10
45.675065302372786
 20
153.01961023412218
 42
-0.0371575522549479
 10
45.45953949153318
 20
155.59382927828727
 42
-0.049183095109329
  0
LWPOLYLINE
  5
5F
330
17
100
AcDbEntity
  8
POCKET
100
AcDbPolyline
 90
5
 70
0
 10
55.78134670371128
 20
152.97120849697808
 10
48.26902238801904
 20
152.97120849697808
 42
-0.2450663637312717
 10
48.07965166569829
 20
153.0699558042554
 42
-0.1133988509190671
 10
47.95361412717739
 20
153.38220503166917
 42
-0.037157552254976
 10
47.76665985576881
 20
155.61516842468768
  0
LINE
  5
60
330
17
100
AcDbEntity
  8
POCKET
100
AcDbLine
 10
51.806967607752995
 20
148.39612533838658
 30
0.0
 11
48.34978487860917
 21
148.39612533838658
 31
0.0
  0
ARC
  5
61
330
17
100
AcDbEntity
  8
POCKET
100
AcDbCircle
 10
55.78134670371128
 20
151.81759897311048
 30
0.0
 40
1.153609523867749
100
AcDbArc
 50
270.0
 51
90.0
  0
CIRCLE
  5
62
330
17
100
AcDbEntity
  8
CUT
100
AcDbCircle
 10
73.86067599054786
 20
73.6076618806814
 30
0.0
 40
1.5
  0
CIRCLE
  5
63
330
17
100
AcDbEntity
  8
COUNTERSINK
100
AcDbCircle
 10
73.86067599054786
 20
73.6076618806814
 30
0.0
 40
3.0
  0
CIRCLE
  5
64
330
17
100
AcDbEntity
  8
CUT
100
AcDbCircle
 10
70.21458321485534
 20
188.36458166363397
 30
0.0
 40
1.5
  0
CIRCLE
  5
65
330
17
100
AcDbEntity
  8
CUT
100
AcDbCircle
 10
73.86067599054786
 20
155.96026530455717
 30
0.0
 40
1.5
  0
CIRCLE
  5
66
330
17
100
AcDbEntity
  8
CUT
100
AcDbCircle
 10
64.5449261092972
 20
10.791563325877064
 30
0.0
 40
1.5
  0
CIRCLE
  5
67
330
17
100
AcDbEntity
  8
COUNTERSINK
100
AcDbCircle
 10
64.5449261092972
 20
10.791563325877064
 30
0.0
 40
3.0
  0
CIRCLE
  5
68
330
17
100
AcDbEntity
  8
CUT
100
AcDbCircle
 10
50.134209485923634
 20
83.71440574205496
 30
0.0
 40
1.5
  0
CIRCLE
  5
69
330
17
100
AcDbEntity
  8
COUNTERSINK
100
AcDbCircle
 10
50.134209485923634
 20
83.71440574205496
 30
0.0
 40
3.0
  0
LWPOLYLINE
  5
6A
330
17
100
AcDbEntity
  8
CUT
100
AcDbPolyline
 90
8
 70
1
 10
61.25791258840309
 20
64.1108498739627
 10
59.75791258840309
 20
64.1108498739627
 42
0.4142135623730951
 10
58.75791258840309
 20
63.11084987396271
 10
58.75791258840309
 20
40.11084987396259
 42
0.4142135623730951
 10
59.75791258840309
 20
39.11084987396271
 10
61.25791258840309
 20
39.11084987396271
 42
0.4142135623730951
 10
62.25791258840309
 20
40.11084987396259
 10
62.25791258840309
 20
63.11084987396271
 42
0.4142135623730951
  0
LWPOLYLINE
  5
6B
330
17
100
AcDbEntity
  8
POCKET
100
AcDbPolyline
 90
8
 70
1
 10
48.97960429312923
 20
104.11489261217818
 10
51.14262215038332
 20
104.11489261217818
 42
-0.4142135623730951
 10
52.584634055218885
 20
102.67288070734219
 10
52.584634055218885
 20
95.08724925138898
 42
-0.4142135623730951
 10
51.14262215038332
 20
93.64523734655259
 10
48.97960429312923
 20
93.64523734655259
 42
-0.4142135623730951
 10
47.53759238829389
 20
95.08724925138898
 10
47.53759238829389
 20
102.67288070734219
 42
-0.4142135623730951
  0
LWPOLYLINE
  5
6C
330
17
100
AcDbEntity
  8
POCKET
100
AcDbPolyline
 90
8
 70
1
 10
48.97960429312923
 20
163.8323034079528
 10
51.14262215038525
 20
163.8323034079528
 42
-0.4142135623730951
 10
52.584634055218885
 20
162.39029150311688
 10
52.584634055218885
 20
160.94851580125737
 42
-0.4142135623730951
 10
51.14262215038525
 20
159.50650389642098
 10
48.97960429312923
 20
159.50650389642098
 42
-0.4142135623730951
 10
47.53759238829571
 20
160.94851580125737
 10
47.53759238829571
 20
162.39029150311688
 42
-0.4142135623730951
  0
ARC
  5
6D
330
17
100
AcDbEntity
  8
POCKET
100
AcDbCircle
 10
46.61309967364912
 20
155.60449885148478
 30
0.0
 40
1.153609523868666
100
AcDbArc
 50
0.5299282095855065
 51
180.5299282095855
  0
CIRCLE
  5
6E
330
17
100
AcDbEntity
  8
CUT
100
AcDbCircle
 10
50.134209485923634
 20
173.78808777525728
 30
0.0
 40
1.5
  0
CIRCLE
  5
6F
330
17
100
AcDbEntity
  8
COUNTERSINK
100
AcDbCircle
 10
50.134209485923634
 20
173.78808777525728
 30
0.0
 40
3.0
  0
LWPOLYLINE
  5
70
330
17
100
AcDbEntity
  8
CUT
100
AcDbPolyline
 90
8
 70
1
 10
60.01420950370721
 20
187.71245203249168
 42
-1.000000022967015
 10
60.01420946695998
 20
189.31245203249108
 10
63.13420950370971
 20
189.31245203249068
 42
-0.9999999999999998
 10
63.13420950370971
 20
187.71245203249137
 10
63.13420950370971
 20
184.81246892309687
 42
-0.9999999999999998
 10
63.13420950370971
 20
183.21246892309767
 10
60.01420946695998
 20
183.212468923098
 42
-1.000000022969288
 10
60.014209503710845
 20
184.81246892309719
  0
CIRCLE
  5
71
330
17
100
AcDbEntity
  8
CUT
100
AcDbCircle
 10
26.40774298129952
 20
73.6076618806814
 30
0.0
 40
1.5
  0
CIRCLE
  5
72
330
17
100
AcDbEntity
  8
COUNTERSINK
100
AcDbCircle
 10
26.40774298129952
 20
73.6076618806814
 30
0.0
 40
3.0
  0
CIRCLE
  5
73
330
17
100
AcDbEntity
  8
CUT
100
AcDbCircle
 10
30.053835756992157
 20
188.36458166363397
 30
0.0
 40
1.5
  0
CIRCLE
  5
74
330
17
100
AcDbEntity
  8
CUT
100
AcDbCircle
 10
26.40774298129952
 20
155.96026530455717
 30
0.0
 40
1.5
  0
CIRCLE
  5
75
330
17
100
AcDbEntity
  8
CUT
100
AcDbCircle
 10
35.7234928625503
 20
10.791563325877064
 30
0.0
 40
1.5
  0
CIRCLE
  5
76
330
17
100
AcDbEntity
  8
COUNTERSINK
100
AcDbCircle
 10
35.7234928625503
 20
10.791563325877064
 30
0.0
 40
3.0
  0
LWPOLYLINE
  5
77
330
17
100
AcDbEntity
  8
CUT
100
AcDbPolyline
 90
8
 70
1
 10
39.010506383444294
 20
64.1108498739627
 10
40.510506383444294
 20
64.1108498739627
 42
-0.4142135623730951
 10
41.510506383444294
 20
63.11084987396271
 10
41.510506383444294
 20
40.11084987396259
 42
-0.4142135623730951
 10
40.510506383444294
 20
39.11084987396271
 10
39.010506383444294
 20
39.11084987396271
 42
-0.4142135623730951
 10
38.010506383444294
 20
40.11084987396259
 10
38.010506383444294
 20
63.11084987396271
 42
-0.4142135623730951
  0
LWPOLYLINE
  5
78
330
17
100
AcDbEntity
  8
CUT
100
AcDbPolyline
 90
8
 70
1
 10
40.25420946813847
 20
187.7124520324928
 42
1.000000022967015
 10
40.254209504885694
 20
189.312452032492
 10
37.13420946813574
 20
189.312452032492
 42
0.9999999999999998
 10
37.13420946813574
 20
187.7124520324928
 10
37.13420946813574
 20
184.8124689230981
 42
0.9999999999999998
 10
37.13420946813574
 20
183.21246892309887
 10
40.254209504885694
 20
183.21246892309887
 42
1.000000022969288
 10
40.25420946813483
 20
184.8124689230981
  0
ENDSEC
  0
SECTION
  2
OBJECTS
  0
DICTIONARY
  5
A
330
0
100
AcDbDictionary
281
1
  3
ACAD_COLOR
350
B
  3
ACAD_GROUP
350
C
  3
ACAD_LAYOUT
350
D
  3
ACAD_MATERIAL
350
E
  3
ACAD_MLEADERSTYLE
350
F
  3
ACAD_MLINESTYLE
350
10
  3
ACAD_PLOTSETTINGS
350
11
  3
ACAD_PLOTSTYLENAME
350
12
  3
ACAD_SCALELIST
350
14
  3
ACAD_TABLESTYLE
350
15
  3
ACAD_VISUALSTYLE
350
16
  3
EZDXF_META
350
2D
  0
DICTIONARY
  5
B
330
A
100
AcDbDictionary
281
1
  0
DICTIONARY
  5
C
330
A
100
AcDbDictionary
281
1
  0
DICTIONARY
  5
D
330
A
100
AcDbDictionary
281
1
  3
Model
350
1A
  3
Layout1
350
1E
  0
DICTIONARY
  5
E
330
A
100
AcDbDictionary
281
1
  3
ByBlock
350
1F
  3
ByLayer
350
20
  3
Global
350
21
  0
DICTIONARY
  5
F
330
A
100
AcDbDictionary
281
1
  3
Standard
350
2C
  0
DICTIONARY
  5
10
330
A
100
AcDbDictionary
281
1
  3
Standard
350
22
  0
DICTIONARY
  5
11
330
A
100
AcDbDictionary
281
1
  0
ACDBDICTIONARYWDFLT
  5
12
330
A
100
AcDbDictionary
281
1
  3
Normal
350
13
100
AcDbDictionaryWithDefault
340
13
  0
ACDBPLACEHOLDER
  5
13
330
12
  0
DICTIONARY
  5
14
330
A
100
AcDbDictionary
281
1
  0
DICTIONARY
  5
15
330
A
100
AcDbDictionary
281
1
  0
DICTIONARY
  5
16
330
A
100
AcDbDictionary
281
1
  0
LAYOUT
  5
1A
330
D
100
AcDbPlotSettings
  1

  4
A3
  6

 40
7.5
 41
20.0
 42
7.5
 43
20.0
 44
420.0
 45
297.0
 46
0.0
 47
0.0
 48
0.0
 49
0.0
140
0.0
141
0.0
142
1.0
143
1.0
 70
1024
 72
1
 73
0
 74
5
  7

 75
16
 76
0
 77
2
 78
300
147
1.0
148
0.0
149
0.0
100
AcDbLayout
  1
Model
 70
1
 71
0
 10
0.0
 20
0.0
 11
420.0
 21
297.0
 12
0.0
 22
0.0
 32
0.0
 14
1e+20
 24
1e+20
 34
1e+20
 15
-1e+20
 25
-1e+20
 35
-1e+20
146
0.0
 13
0.0
 23
0.0
 33
0.0
 16
1.0
 26
0.0
 36
0.0
 17
0.0
 27
1.0
 37
0.0
 76
1
330
17
  0
LAYOUT
  5
1E
330
D
100
AcDbPlotSettings
  1

  4
A3
  6

 40
7.5
 41
20.0
 42
7.5
 43
20.0
 44
420.0
 45
297.0
 46
0.0
 47
0.0
 48
0.0
 49
0.0
140
0.0
141
0.0
142
1.0
143
1.0
 70
0
 72
1
 73
0
 74
5
  7

 75
16
 76
0
 77
2
 78
300
147
1.0
148
0.0
149
0.0
100
AcDbLayout
  1
Layout1
 70
1
 71
1
 10
0.0
 20
0.0
 11
420.0
 21
297.0
 12
0.0
 22
0.0
 32
0.0
 14
1e+20
 24
1e+20
 34
1e+20
 15
-1e+20
 25
-1e+20
 35
-1e+20
146
0.0
 13
0.0
 23
0.0
 33
0.0
 16
1.0
 26
0.0
 36
0.0
 17
0.0
 27
1.0
 37
0.0
 76
1
330
1B
  0
MATERIAL
  5
1F
102
{ACAD_REACTORS
330
E
102
}
330
E
100
AcDbMaterial
  1
ByBlock
  2

 70
0
 40
1.0
 71
1
 41
1.0
 91
-1023410177
 42
1.0
 72
1
  3

 73
1
 74
1
 75
1
 44
0.5
 73
0
 45
1.0
 46
1.0
 77
1
  4

 78
1
 79
1
170
1
 48
1.0
171
1
  6

172
1
173
1
174
1
140
1.0
141
1.0
175
1
  7

176
1
177
1
178
1
143
1.0
179
1
  8

270
1
271
1
272
1
145
1.0
146
1.0
273
1
  9

274
1
275
1
276
1
 42
1.0
 72
1
  3

 73
1
 74
1
 75
1
 94
63
  0
MATERIAL
  5
20
102
{ACAD_REACTORS
330
E
102
}
330
E
100
AcDbMaterial
  1
ByLayer
  2

 70
0
 40
1.0
 71
1
 41
1.0
 91
-1023410177
 42
1.0
 72
1
  3

 73
1
 74
1
 75
1
 44
0.5
 73
0
 45
1.0
 46
1.0
 77
1
  4

 78
1
 79
1
170
1
 48
1.0
171
1
  6

172
1
173
1
174
1
140
1.0
141
1.0
175
1
  7

176
1
177
1
178
1
143
1.0
179
1
  8

270
1
271
1
272
1
145
1.0
146
1.0
273
1
  9

274
1
275
1
276
1
 42
1.0
 72
1
  3

 73
1
 74
1
 75
1
 94
63
  0
MATERIAL
  5
21
102
{ACAD_REACTORS
330
E
102
}
330
E
100
AcDbMaterial
  1
Global
  2

 70
0
 40
1.0
 71
1
 41
1.0
 91
-1023410177
 42
1.0
 72
1
  3

 73
1
 74
1
 75
1
 44
0.5
 73
0
 45
1.0
 46
1.0
 77
1
  4

 78
1
 79
1
170
1
 48
1.0
171
1
  6

172
1
173
1
174
1
140
1.0
141
1.0
175
1
  7

176
1
177
1
178
1
143
1.0
179
1
  8

270
1
271
1
272
1
145
1.0
146
1.0
273
1
  9

274
1
275
1
276
1
 42
1.0
 72
1
  3

 73
1
 74
1
 75
1
 94
63
  0
MLINESTYLE
  5
22
102
{ACAD_REACTORS
330
10
102
}
330
10
100
AcDbMlineStyle
  2
Standard
 70
0
  3

 62
256
 51
90.0
 52
90.0
 71
2
 49
0.5
 62
256
  6
BYLAYER
 49
-0.5
 62
256
  6
BYLAYER
  0
MLEADERSTYLE
  5
2C
102
{ACAD_REACTORS
330
F
102
}
330
F
100
AcDbMLeaderStyle
179
2
170
2
171
1
172
0
 90
2
 40
0.0
 41
0.0
173
1
 91
-1056964608
 92
-2
290
1
 42
2.0
291
1
 43
8.0
  3
Standard
 44
4.0
300

342
29
174
1
175
1
176
0
178
1
 93
-1056964608
 45
4.0
292
0
297
0
 46
4.0
 94
-1056964608
 47
1.0
 49
1.0
140
1.0
294
1
141
0.0
177
0
142
1.0
295
0
296
0
143
3.75
271
0
272
9
273
9
  0
DICTIONARY
  5
2D
330
A
100
AcDbDictionary
280
1
281
1
  3
CREATED_BY_EZDXF
350
2E
  3
WRITTEN_BY_EZDXF
350
7B
  0
DICTIONARYVAR
  5
2E
330
2D
100
DictionaryVariables
280
0
  1
1.4.4 @ 2026-07-24T19:46:35.441193+00:00
  0
DICTIONARYVAR
  5
7B
330
2D
100
DictionaryVariables
280
0
  1
1.4.4 @ 2026-07-24T19:46:35.444111+00:00
  0
ENDSEC
  0
EOF
