ISO-10303-21;
HEADER;
FILE_DESCRIPTION(('FreeCAD Model'),'2;1');
FILE_NAME('Open CASCADE Shape Model','2026-07-24T12:46:42',('FreeCAD'),(
    'FreeCAD'),'Open CASCADE STEP processor 7.8','FreeCAD','Unknown');
FILE_SCHEMA(('AUTOMOTIVE_DESIGN { 1 0 10303 214 1 1 1 1 }'));
ENDSEC;
DATA;
#1 = APPLICATION_PROTOCOL_DEFINITION('international standard',
  'automotive_design',2000,#2);
#2 = APPLICATION_CONTEXT(
  'core data for automotive mechanical design processes');
#3 = SHAPE_DEFINITION_REPRESENTATION(#4,#10);
#4 = PRODUCT_DEFINITION_SHAPE('','',#5);
#5 = PRODUCT_DEFINITION('design','',#6,#9);
#6 = PRODUCT_DEFINITION_FORMATION('','',#7);
#7 = PRODUCT('Open CASCADE STEP translator 7.8 8',
  'Open CASCADE STEP translator 7.8 8','',(#8));
#8 = PRODUCT_CONTEXT('',#2,'mechanical');
#9 = PRODUCT_DEFINITION_CONTEXT('part definition',#2,'design');
#10 = ADVANCED_BREP_SHAPE_REPRESENTATION('',(#11,#15),#200);
#11 = AXIS2_PLACEMENT_3D('',#12,#13,#14);
#12 = CARTESIAN_POINT('',(0.,0.,0.));
#13 = DIRECTION('',(0.,0.,1.));
#14 = DIRECTION('',(1.,0.,-0.));
#15 = MANIFOLD_SOLID_BREP('',#16);
#16 = CLOSED_SHELL('',(#17,#34,#59,#93,#129,#164,#191));
#17 = ADVANCED_FACE('',(#18),#29,.T.);
#18 = FACE_BOUND('',#19,.T.);
#19 = EDGE_LOOP('',(#20));
#20 = ORIENTED_EDGE('',*,*,#21,.F.);
#21 = EDGE_CURVE('',#22,#22,#24,.T.);
#22 = VERTEX_POINT('',#23);
#23 = CARTESIAN_POINT('',(9.470931752558,40.773643481009,2.2));
#24 = CIRCLE('',#25,2.2);
#25 = AXIS2_PLACEMENT_3D('',#26,#27,#28);
#26 = CARTESIAN_POINT('',(9.470931752558,38.868387592684,1.1));
#27 = DIRECTION('',(0.,-0.5,0.866025403784));
#28 = DIRECTION('',(1.,0.,0.));
#29 = PLANE('',#30);
#30 = AXIS2_PLACEMENT_3D('',#31,#32,#33);
#31 = CARTESIAN_POINT('',(9.470931752558,36.963131704358,
    3.552713678801E-15));
#32 = DIRECTION('',(0.,0.5,-0.866025403784));
#33 = DIRECTION('',(-1.,0.,0.));
#34 = ADVANCED_FACE('',(#35),#54,.T.);
#35 = FACE_BOUND('',#36,.T.);
#36 = EDGE_LOOP('',(#37,#46,#52,#53));
#37 = ORIENTED_EDGE('',*,*,#38,.F.);
#38 = EDGE_CURVE('',#39,#39,#41,.T.);
#39 = VERTEX_POINT('',#40);
#40 = CARTESIAN_POINT('',(9.470931752558,20.773643481009,36.841016151378
    ));
#41 = CIRCLE('',#42,2.2);
#42 = AXIS2_PLACEMENT_3D('',#43,#44,#45);
#43 = CARTESIAN_POINT('',(9.470931752558,18.868387592684,35.741016151378
    ));
#44 = DIRECTION('',(0.,-0.5,0.866025403784));
#45 = DIRECTION('',(1.,0.,0.));
#46 = ORIENTED_EDGE('',*,*,#47,.T.);
#47 = EDGE_CURVE('',#39,#22,#48,.T.);
#48 = LINE('',#49,#50);
#49 = CARTESIAN_POINT('',(9.470931752558,30.773643481009,19.520508075689
    ));
#50 = VECTOR('',#51,1.);
#51 = DIRECTION('',(0.,0.5,-0.866025403784));
#52 = ORIENTED_EDGE('',*,*,#21,.T.);
#53 = ORIENTED_EDGE('',*,*,#47,.F.);
#54 = CYLINDRICAL_SURFACE('',#55,2.2);
#55 = AXIS2_PLACEMENT_3D('',#56,#57,#58);
#56 = CARTESIAN_POINT('',(9.470931752558,28.868387592684,18.420508075689
    ));
#57 = DIRECTION('',(0.,-0.5,0.866025403784));
#58 = DIRECTION('',(0.,-0.866025403784,-0.5));
#59 = ADVANCED_FACE('',(#60),#88,.T.);
#60 = FACE_BOUND('',#61,.T.);
#61 = EDGE_LOOP('',(#62,#73,#80,#86,#87));
#62 = ORIENTED_EDGE('',*,*,#63,.F.);
#63 = EDGE_CURVE('',#64,#66,#68,.T.);
#64 = VERTEX_POINT('',#65);
#65 = CARTESIAN_POINT('',(1.507383308137,16.668559942141,39.551229410012
    ));
#66 = VERTEX_POINT('',#67);
#67 = CARTESIAN_POINT('',(9.470931752558,23.565195199278,43.533003632223
    ));
#68 = CIRCLE('',#69,7.963548444421);
#69 = AXIS2_PLACEMENT_3D('',#70,#71,#72);
#70 = CARTESIAN_POINT('',(9.470931752558,16.668559942141,39.551229410012
    ));
#71 = DIRECTION('',(0.,-0.5,0.866025403784));
#72 = DIRECTION('',(1.,0.,0.));
#73 = ORIENTED_EDGE('',*,*,#74,.F.);
#74 = EDGE_CURVE('',#66,#64,#75,.T.);
#75 = CIRCLE('',#76,7.963548444421);
#76 = AXIS2_PLACEMENT_3D('',#77,#78,#79);
#77 = CARTESIAN_POINT('',(9.470931752558,16.668559942141,39.551229410012
    ));
#78 = DIRECTION('',(0.,-0.5,0.866025403784));
#79 = DIRECTION('',(1.,0.,0.));
#80 = ORIENTED_EDGE('',*,*,#81,.T.);
#81 = EDGE_CURVE('',#66,#39,#82,.T.);
#82 = LINE('',#83,#84);
#83 = CARTESIAN_POINT('',(9.470931752558,22.169419340144,40.1870098918)
  );
#84 = VECTOR('',#85,1.);
#85 = DIRECTION('',(9.734401828365E-17,-0.384994165837,-0.922919006344)
  );
#86 = ORIENTED_EDGE('',*,*,#38,.T.);
#87 = ORIENTED_EDGE('',*,*,#81,.F.);
#88 = CONICAL_SURFACE('',#89,5.081774222211,0.91880027672);
#89 = AXIS2_PLACEMENT_3D('',#90,#91,#92);
#90 = CARTESIAN_POINT('',(9.470931752558,17.768473767412,37.646122780695
    ));
#91 = DIRECTION('',(0.,-0.5,0.866025403784));
#92 = DIRECTION('',(0.,-0.866025403784,-0.5));
#93 = ADVANCED_FACE('',(#94),#124,.T.);
#94 = FACE_BOUND('',#95,.T.);
#95 = EDGE_LOOP('',(#96,#107,#114,#115,#116,#117));
#96 = ORIENTED_EDGE('',*,*,#97,.F.);
#97 = EDGE_CURVE('',#98,#100,#102,.T.);
#98 = VERTEX_POINT('',#99);
#99 = CARTESIAN_POINT('',(0.720931752558,15.873685711045,40.927991963898
    ));
#100 = VERTEX_POINT('',#101);
#101 = CARTESIAN_POINT('',(9.470931752558,23.451407994159,
    45.302991963898));
#102 = CIRCLE('',#103,8.75);
#103 = AXIS2_PLACEMENT_3D('',#104,#105,#106);
#104 = CARTESIAN_POINT('',(9.470931752558,15.873685711045,
    40.927991963898));
#105 = DIRECTION('',(0.,-0.5,0.866025403784));
#106 = DIRECTION('',(1.,0.,0.));
#107 = ORIENTED_EDGE('',*,*,#108,.T.);
#108 = EDGE_CURVE('',#98,#64,#109,.T.);
#109 = CIRCLE('',#110,2.);
#110 = AXIS2_PLACEMENT_3D('',#111,#112,#113);
#111 = CARTESIAN_POINT('',(2.720931752558,15.873685711045,
    40.927991963898));
#112 = DIRECTION('',(0.,-0.866025403784,-0.5));
#113 = DIRECTION('',(-1.,-0.,0.));
#114 = ORIENTED_EDGE('',*,*,#63,.T.);
#115 = ORIENTED_EDGE('',*,*,#74,.T.);
#116 = ORIENTED_EDGE('',*,*,#108,.F.);
#117 = ORIENTED_EDGE('',*,*,#118,.F.);
#118 = EDGE_CURVE('',#100,#98,#119,.T.);
#119 = CIRCLE('',#120,8.75);
#120 = AXIS2_PLACEMENT_3D('',#121,#122,#123);
#121 = CARTESIAN_POINT('',(9.470931752558,15.873685711045,
    40.927991963898));
#122 = DIRECTION('',(0.,-0.5,0.866025403784));
#123 = DIRECTION('',(1.,0.,0.));
#124 = TOROIDAL_SURFACE('',#125,6.75,2.);
#125 = AXIS2_PLACEMENT_3D('',#126,#127,#128);
#126 = CARTESIAN_POINT('',(9.470931752558,15.873685711045,
    40.927991963898));
#127 = DIRECTION('',(0.,-0.5,0.866025403784));
#128 = DIRECTION('',(1.,0.,0.));
#129 = ADVANCED_FACE('',(#130),#159,.T.);
#130 = FACE_BOUND('',#131,.T.);
#131 = EDGE_LOOP('',(#132,#143,#150,#156,#157,#158));
#132 = ORIENTED_EDGE('',*,*,#133,.F.);
#133 = EDGE_CURVE('',#134,#136,#138,.T.);
#134 = VERTEX_POINT('',#135);
#135 = CARTESIAN_POINT('',(0.720931752558,8.368387592684,53.927549630851
    ));
#136 = VERTEX_POINT('',#137);
#137 = CARTESIAN_POINT('',(9.470931752558,15.946109875798,
    58.302549630851));
#138 = CIRCLE('',#139,8.75);
#139 = AXIS2_PLACEMENT_3D('',#140,#141,#142);
#140 = CARTESIAN_POINT('',(9.470931752558,8.368387592684,53.927549630851
    ));
#141 = DIRECTION('',(0.,-0.5,0.866025403784));
#142 = DIRECTION('',(1.,0.,0.));
#143 = ORIENTED_EDGE('',*,*,#144,.F.);
#144 = EDGE_CURVE('',#136,#134,#145,.T.);
#145 = CIRCLE('',#146,8.75);
#146 = AXIS2_PLACEMENT_3D('',#147,#148,#149);
#147 = CARTESIAN_POINT('',(9.470931752558,8.368387592684,53.927549630851
    ));
#148 = DIRECTION('',(0.,-0.5,0.866025403784));
#149 = DIRECTION('',(1.,0.,0.));
#150 = ORIENTED_EDGE('',*,*,#151,.T.);
#151 = EDGE_CURVE('',#136,#100,#152,.T.);
#152 = LINE('',#153,#154);
#153 = CARTESIAN_POINT('',(9.470931752558,19.698758934978,
    51.802770797374));
#154 = VECTOR('',#155,1.);
#155 = DIRECTION('',(0.,0.5,-0.866025403784));
#156 = ORIENTED_EDGE('',*,*,#118,.T.);
#157 = ORIENTED_EDGE('',*,*,#97,.T.);
#158 = ORIENTED_EDGE('',*,*,#151,.F.);
#159 = CYLINDRICAL_SURFACE('',#160,8.75);
#160 = AXIS2_PLACEMENT_3D('',#161,#162,#163);
#161 = CARTESIAN_POINT('',(9.470931752558,12.121036651864,
    47.427770797374));
#162 = DIRECTION('',(0.,-0.5,0.866025403784));
#163 = DIRECTION('',(0.,-0.866025403784,-0.5));
#164 = ADVANCED_FACE('',(#165),#186,.T.);
#165 = FACE_BOUND('',#166,.T.);
#166 = EDGE_LOOP('',(#167,#176,#183,#184,#185));
#167 = ORIENTED_EDGE('',*,*,#168,.F.);
#168 = EDGE_CURVE('',#169,#169,#171,.T.);
#169 = VERTEX_POINT('',#170);
#170 = CARTESIAN_POINT('',(2.720931752558,7.368387592684,55.65960043842)
  );
#171 = CIRCLE('',#172,6.75);
#172 = AXIS2_PLACEMENT_3D('',#173,#174,#175);
#173 = CARTESIAN_POINT('',(9.470931752558,7.368387592684,55.65960043842)
  );
#174 = DIRECTION('',(0.,-0.5,0.866025403784));
#175 = DIRECTION('',(1.,0.,0.));
#176 = ORIENTED_EDGE('',*,*,#177,.T.);
#177 = EDGE_CURVE('',#169,#134,#178,.T.);
#178 = CIRCLE('',#179,2.);
#179 = AXIS2_PLACEMENT_3D('',#180,#181,#182);
#180 = CARTESIAN_POINT('',(2.720931752558,8.368387592684,53.927549630851
    ));
#181 = DIRECTION('',(0.,-0.866025403784,-0.5));
#182 = DIRECTION('',(-1.,-0.,0.));
#183 = ORIENTED_EDGE('',*,*,#133,.T.);
#184 = ORIENTED_EDGE('',*,*,#144,.T.);
#185 = ORIENTED_EDGE('',*,*,#177,.F.);
#186 = TOROIDAL_SURFACE('',#187,6.75,2.);
#187 = AXIS2_PLACEMENT_3D('',#188,#189,#190);
#188 = CARTESIAN_POINT('',(9.470931752558,8.368387592684,53.927549630851
    ));
#189 = DIRECTION('',(0.,-0.5,0.866025403784));
#190 = DIRECTION('',(1.,0.,0.));
#191 = ADVANCED_FACE('',(#192),#195,.T.);
#192 = FACE_BOUND('',#193,.T.);
#193 = EDGE_LOOP('',(#194));
#194 = ORIENTED_EDGE('',*,*,#168,.T.);
#195 = PLANE('',#196);
#196 = AXIS2_PLACEMENT_3D('',#197,#198,#199);
#197 = CARTESIAN_POINT('',(9.470931752558,7.368387592684,55.65960043842)
  );
#198 = DIRECTION('',(0.,-0.5,0.866025403784));
#199 = DIRECTION('',(1.,0.,0.));
#200 = ( GEOMETRIC_REPRESENTATION_CONTEXT(3) 
GLOBAL_UNCERTAINTY_ASSIGNED_CONTEXT((#204)) GLOBAL_UNIT_ASSIGNED_CONTEXT
((#201,#202,#203)) REPRESENTATION_CONTEXT('Context #1',
  '3D Context with UNIT and UNCERTAINTY') );
#201 = ( LENGTH_UNIT() NAMED_UNIT(*) SI_UNIT(.MILLI.,.METRE.) );
#202 = ( NAMED_UNIT(*) PLANE_ANGLE_UNIT() SI_UNIT($,.RADIAN.) );
#203 = ( NAMED_UNIT(*) SI_UNIT($,.STERADIAN.) SOLID_ANGLE_UNIT() );
#204 = UNCERTAINTY_MEASURE_WITH_UNIT(LENGTH_MEASURE(1.E-07),#201,
  'distance_accuracy_value','confusion accuracy');
#205 = PRODUCT_RELATED_PRODUCT_CATEGORY('part',$,(#7));
ENDSEC;
END-ISO-10303-21;
