ISO-10303-21;
HEADER;
FILE_DESCRIPTION(('FreeCAD Model'),'2;1');
FILE_NAME('Open CASCADE Shape Model','2026-07-24T12:46:42',('FreeCAD'),(
    'FreeCAD'),'Open CASCADE STEP processor 7.8','FreeCAD','Unknown');
FILE_SCHEMA(('AUTOMOTIVE_DESIGN { 1 0 10303 214 1 1 1 1 }'));
ENDSEC;
DATA;
#1 = APPLICATION_PROTOCOL_DEFINITION('international standard',
  'automotive_design',2000,#2);
#2 = APPLICATION_CONTEXT(
  'core data for automotive mechanical design processes');
#3 = SHAPE_DEFINITION_REPRESENTATION(#4,#10);
#4 = PRODUCT_DEFINITION_SHAPE('','',#5);
#5 = PRODUCT_DEFINITION('design','',#6,#9);
#6 = PRODUCT_DEFINITION_FORMATION('','',#7);
#7 = PRODUCT('Open CASCADE STEP translator 7.8 5',
  'Open CASCADE STEP translator 7.8 5','',(#8));
#8 = PRODUCT_CONTEXT('',#2,'mechanical');
#9 = PRODUCT_DEFINITION_CONTEXT('part definition',#2,'design');
#10 = ADVANCED_BREP_SHAPE_REPRESENTATION('',(#11,#15),#857);
#11 = AXIS2_PLACEMENT_3D('',#12,#13,#14);
#12 = CARTESIAN_POINT('',(0.,0.,0.));
#13 = DIRECTION('',(0.,0.,1.));
#14 = DIRECTION('',(1.,0.,-0.));
#15 = MANIFOLD_SOLID_BREP('',#16);
#16 = CLOSED_SHELL('',(#17,#57,#90,#121,#154,#187,#220,#251,#284,#315,
    #348,#381,#414,#445,#478,#509,#542,#575,#608,#639,#672,#703,#736,
    #769,#793,#825));
#17 = ADVANCED_FACE('',(#18),#52,.T.);
#18 = FACE_BOUND('',#19,.T.);
#19 = EDGE_LOOP('',(#20,#30,#38,#46));
#20 = ORIENTED_EDGE('',*,*,#21,.F.);
#21 = EDGE_CURVE('',#22,#24,#26,.T.);
#22 = VERTEX_POINT('',#23);
#23 = CARTESIAN_POINT('',(19.406550363329,5.5492853795,0.));
#24 = VERTEX_POINT('',#25);
#25 = CARTESIAN_POINT('',(14.955121192784,5.95363974128,0.));
#26 = LINE('',#27,#28);
#27 = CARTESIAN_POINT('',(19.406550363329,5.5492853795,0.));
#28 = VECTOR('',#29,1.);
#29 = DIRECTION('',(-0.995899679483,9.046451462331E-02,0.));
#30 = ORIENTED_EDGE('',*,*,#31,.T.);
#31 = EDGE_CURVE('',#22,#32,#34,.T.);
#32 = VERTEX_POINT('',#33);
#33 = CARTESIAN_POINT('',(19.406550363329,5.5492853795,6.));
#34 = LINE('',#35,#36);
#35 = CARTESIAN_POINT('',(19.406550363329,5.5492853795,0.));
#36 = VECTOR('',#37,1.);
#37 = DIRECTION('',(0.,0.,1.));
#38 = ORIENTED_EDGE('',*,*,#39,.F.);
#39 = EDGE_CURVE('',#40,#32,#42,.T.);
#40 = VERTEX_POINT('',#41);
#41 = CARTESIAN_POINT('',(14.955121192784,5.95363974128,6.));
#42 = LINE('',#43,#44);
#43 = CARTESIAN_POINT('',(19.406550363329,5.5492853795,6.));
#44 = VECTOR('',#45,1.);
#45 = DIRECTION('',(0.995899679483,-9.046451462331E-02,0.));
#46 = ORIENTED_EDGE('',*,*,#47,.F.);
#47 = EDGE_CURVE('',#24,#40,#48,.T.);
#48 = LINE('',#49,#50);
#49 = CARTESIAN_POINT('',(14.955121192784,5.95363974128,0.));
#50 = VECTOR('',#51,1.);
#51 = DIRECTION('',(0.,0.,1.));
#52 = PLANE('',#53);
#53 = AXIS2_PLACEMENT_3D('',#54,#55,#56);
#54 = CARTESIAN_POINT('',(14.955121192784,5.95363974128,0.));
#55 = DIRECTION('',(-9.046451462331E-02,-0.995899679483,0.));
#56 = DIRECTION('',(0.995899679483,-9.046451462331E-02,0.));
#57 = ADVANCED_FACE('',(#58),#85,.F.);
#58 = FACE_BOUND('',#59,.F.);
#59 = EDGE_LOOP('',(#60,#70,#77,#78));
#60 = ORIENTED_EDGE('',*,*,#61,.T.);
#61 = EDGE_CURVE('',#62,#64,#66,.T.);
#62 = VERTEX_POINT('',#63);
#63 = CARTESIAN_POINT('',(13.408485334414,3.950623359062,0.));
#64 = VERTEX_POINT('',#65);
#65 = CARTESIAN_POINT('',(13.408485334414,3.950623359062,6.));
#66 = LINE('',#67,#68);
#67 = CARTESIAN_POINT('',(13.408485334414,3.950623359062,0.));
#68 = VECTOR('',#69,1.);
#69 = DIRECTION('',(0.,0.,1.));
#70 = ORIENTED_EDGE('',*,*,#71,.T.);
#71 = EDGE_CURVE('',#64,#40,#72,.T.);
#72 = CIRCLE('',#73,1.5);
#73 = AXIS2_PLACEMENT_3D('',#74,#75,#76);
#74 = CARTESIAN_POINT('',(14.819424420849,4.459790222055,6.));
#75 = DIRECTION('',(0.,0.,-1.));
#76 = DIRECTION('',(9.046451462321E-02,0.995899679483,0.));
#77 = ORIENTED_EDGE('',*,*,#47,.F.);
#78 = ORIENTED_EDGE('',*,*,#79,.T.);
#79 = EDGE_CURVE('',#24,#62,#80,.T.);
#80 = CIRCLE('',#81,1.5);
#81 = AXIS2_PLACEMENT_3D('',#82,#83,#84);
#82 = CARTESIAN_POINT('',(14.819424420849,4.459790222055,0.));
#83 = DIRECTION('',(0.,0.,1.));
#84 = DIRECTION('',(9.046451462321E-02,0.995899679483,-0.));
#85 = CYLINDRICAL_SURFACE('',#86,1.5);
#86 = AXIS2_PLACEMENT_3D('',#87,#88,#89);
#87 = CARTESIAN_POINT('',(14.819424420849,4.459790222055,0.));
#88 = DIRECTION('',(0.,0.,1.));
#89 = DIRECTION('',(9.046451462321E-02,0.995899679483,-0.));
#90 = ADVANCED_FACE('',(#91),#116,.T.);
#91 = FACE_BOUND('',#92,.T.);
#92 = EDGE_LOOP('',(#93,#101,#102,#110));
#93 = ORIENTED_EDGE('',*,*,#94,.T.);
#94 = EDGE_CURVE('',#95,#62,#97,.T.);
#95 = VERTEX_POINT('',#96);
#96 = CARTESIAN_POINT('',(14.216644429244,1.711154655479,0.));
#97 = LINE('',#98,#99);
#98 = CARTESIAN_POINT('',(14.216644429005,1.711154655393,0.));
#99 = VECTOR('',#100,1.);
#100 = DIRECTION('',(-0.339444575328,0.940626057623,0.));
#101 = ORIENTED_EDGE('',*,*,#61,.T.);
#102 = ORIENTED_EDGE('',*,*,#103,.F.);
#103 = EDGE_CURVE('',#104,#64,#106,.T.);
#104 = VERTEX_POINT('',#105);
#105 = CARTESIAN_POINT('',(14.216644429244,1.711154655479,6.));
#106 = LINE('',#107,#108);
#107 = CARTESIAN_POINT('',(14.216644429005,1.711154655393,6.));
#108 = VECTOR('',#109,1.);
#109 = DIRECTION('',(-0.339444575328,0.940626057623,0.));
#110 = ORIENTED_EDGE('',*,*,#111,.F.);
#111 = EDGE_CURVE('',#95,#104,#112,.T.);
#112 = LINE('',#113,#114);
#113 = CARTESIAN_POINT('',(14.216644429244,1.711154655479,0.));
#114 = VECTOR('',#115,1.);
#115 = DIRECTION('',(0.,0.,1.));
#116 = PLANE('',#117);
#117 = AXIS2_PLACEMENT_3D('',#118,#119,#120);
#118 = CARTESIAN_POINT('',(14.216644429005,1.711154655393,0.));
#119 = DIRECTION('',(0.940626057623,0.339444575328,0.));
#120 = DIRECTION('',(-0.339444575328,0.940626057623,0.));
#121 = ADVANCED_FACE('',(#122),#149,.T.);
#122 = FACE_BOUND('',#123,.T.);
#123 = EDGE_LOOP('',(#124,#133,#134,#143));
#124 = ORIENTED_EDGE('',*,*,#125,.T.);
#125 = EDGE_CURVE('',#126,#95,#128,.T.);
#126 = VERTEX_POINT('',#127);
#127 = CARTESIAN_POINT('',(14.002962320825,1.112316333504,0.));
#128 = CIRCLE('',#129,0.500000000253);
#129 = AXIS2_PLACEMENT_3D('',#130,#131,#132);
#130 = CARTESIAN_POINT('',(13.746331400194,1.541432367729,0.));
#131 = DIRECTION('',(0.,0.,1.));
#132 = DIRECTION('',(0.513261841003,-0.858232068016,0.));
#133 = ORIENTED_EDGE('',*,*,#111,.T.);
#134 = ORIENTED_EDGE('',*,*,#135,.F.);
#135 = EDGE_CURVE('',#136,#104,#138,.T.);
#136 = VERTEX_POINT('',#137);
#137 = CARTESIAN_POINT('',(14.002962320825,1.112316333504,6.));
#138 = CIRCLE('',#139,0.500000000253);
#139 = AXIS2_PLACEMENT_3D('',#140,#141,#142);
#140 = CARTESIAN_POINT('',(13.746331400194,1.541432367729,6.));
#141 = DIRECTION('',(0.,0.,1.));
#142 = DIRECTION('',(0.513261841003,-0.858232068016,0.));
#143 = ORIENTED_EDGE('',*,*,#144,.F.);
#144 = EDGE_CURVE('',#126,#136,#145,.T.);
#145 = LINE('',#146,#147);
#146 = CARTESIAN_POINT('',(14.002962320825,1.112316333504,0.));
#147 = VECTOR('',#148,1.);
#148 = DIRECTION('',(0.,0.,1.));
#149 = CYLINDRICAL_SURFACE('',#150,0.500000000253);
#150 = AXIS2_PLACEMENT_3D('',#151,#152,#153);
#151 = CARTESIAN_POINT('',(13.746331400194,1.541432367729,0.));
#152 = DIRECTION('',(0.,0.,1.));
#153 = DIRECTION('',(0.513261841003,-0.858232068016,0.));
#154 = ADVANCED_FACE('',(#155),#182,.T.);
#155 = FACE_BOUND('',#156,.T.);
#156 = EDGE_LOOP('',(#157,#166,#167,#176));
#157 = ORIENTED_EDGE('',*,*,#158,.T.);
#158 = EDGE_CURVE('',#159,#126,#161,.T.);
#159 = VERTEX_POINT('',#160);
#160 = CARTESIAN_POINT('',(5.948820299946,1.112316333721,0.));
#161 = CIRCLE('',#162,7.846036250515);
#162 = AXIS2_PLACEMENT_3D('',#163,#164,#165);
#163 = CARTESIAN_POINT('',(9.975891310321,7.846036250515,0.));
#164 = DIRECTION('',(0.,0.,1.));
#165 = DIRECTION('',(-0.513261841002,-0.858232068016,0.));
#166 = ORIENTED_EDGE('',*,*,#144,.T.);
#167 = ORIENTED_EDGE('',*,*,#168,.F.);
#168 = EDGE_CURVE('',#169,#136,#171,.T.);
#169 = VERTEX_POINT('',#170);
#170 = CARTESIAN_POINT('',(5.948820299946,1.112316333721,6.));
#171 = CIRCLE('',#172,7.846036250515);
#172 = AXIS2_PLACEMENT_3D('',#173,#174,#175);
#173 = CARTESIAN_POINT('',(9.975891310321,7.846036250515,6.));
#174 = DIRECTION('',(0.,0.,1.));
#175 = DIRECTION('',(-0.513261841002,-0.858232068016,0.));
#176 = ORIENTED_EDGE('',*,*,#177,.F.);
#177 = EDGE_CURVE('',#159,#169,#178,.T.);
#178 = LINE('',#179,#180);
#179 = CARTESIAN_POINT('',(5.948820299946,1.112316333721,0.));
#180 = VECTOR('',#181,1.);
#181 = DIRECTION('',(0.,0.,1.));
#182 = CYLINDRICAL_SURFACE('',#183,7.846036250515);
#183 = AXIS2_PLACEMENT_3D('',#184,#185,#186);
#184 = CARTESIAN_POINT('',(9.975891310321,7.846036250515,0.));
#185 = DIRECTION('',(0.,0.,1.));
#186 = DIRECTION('',(-0.513261841002,-0.858232068016,0.));
#187 = ADVANCED_FACE('',(#188),#215,.T.);
#188 = FACE_BOUND('',#189,.T.);
#189 = EDGE_LOOP('',(#190,#199,#200,#209));
#190 = ORIENTED_EDGE('',*,*,#191,.T.);
#191 = EDGE_CURVE('',#192,#159,#194,.T.);
#192 = VERTEX_POINT('',#193);
#193 = CARTESIAN_POINT('',(5.735138191635,1.711154655393,0.));
#194 = CIRCLE('',#195,0.5);
#195 = AXIS2_PLACEMENT_3D('',#196,#197,#198);
#196 = CARTESIAN_POINT('',(6.205451220447,1.541432367729,0.));
#197 = DIRECTION('',(0.,0.,1.));
#198 = DIRECTION('',(-0.940626057623,0.339444575329,0.));
#199 = ORIENTED_EDGE('',*,*,#177,.T.);
#200 = ORIENTED_EDGE('',*,*,#201,.F.);
#201 = EDGE_CURVE('',#202,#169,#204,.T.);
#202 = VERTEX_POINT('',#203);
#203 = CARTESIAN_POINT('',(5.735138191635,1.711154655393,6.));
#204 = CIRCLE('',#205,0.5);
#205 = AXIS2_PLACEMENT_3D('',#206,#207,#208);
#206 = CARTESIAN_POINT('',(6.205451220447,1.541432367729,6.));
#207 = DIRECTION('',(0.,0.,1.));
#208 = DIRECTION('',(-0.940626057623,0.339444575329,0.));
#209 = ORIENTED_EDGE('',*,*,#210,.F.);
#210 = EDGE_CURVE('',#192,#202,#211,.T.);
#211 = LINE('',#212,#213);
#212 = CARTESIAN_POINT('',(5.735138191635,1.711154655393,0.));
#213 = VECTOR('',#214,1.);
#214 = DIRECTION('',(0.,0.,1.));
#215 = CYLINDRICAL_SURFACE('',#216,0.5);
#216 = AXIS2_PLACEMENT_3D('',#217,#218,#219);
#217 = CARTESIAN_POINT('',(6.205451220447,1.541432367729,0.));
#218 = DIRECTION('',(0.,0.,1.));
#219 = DIRECTION('',(-0.940626057623,0.339444575329,0.));
#220 = ADVANCED_FACE('',(#221),#246,.T.);
#221 = FACE_BOUND('',#222,.T.);
#222 = EDGE_LOOP('',(#223,#231,#232,#240));
#223 = ORIENTED_EDGE('',*,*,#224,.F.);
#224 = EDGE_CURVE('',#192,#225,#227,.T.);
#225 = VERTEX_POINT('',#226);
#226 = CARTESIAN_POINT('',(6.543297286227,3.950623359062,0.));
#227 = LINE('',#228,#229);
#228 = CARTESIAN_POINT('',(5.735138191635,1.711154655393,0.));
#229 = VECTOR('',#230,1.);
#230 = DIRECTION('',(0.339444575329,0.940626057623,0.));
#231 = ORIENTED_EDGE('',*,*,#210,.T.);
#232 = ORIENTED_EDGE('',*,*,#233,.F.);
#233 = EDGE_CURVE('',#234,#202,#236,.T.);
#234 = VERTEX_POINT('',#235);
#235 = CARTESIAN_POINT('',(6.543297286227,3.950623359062,6.));
#236 = LINE('',#237,#238);
#237 = CARTESIAN_POINT('',(5.735138191635,1.711154655393,6.));
#238 = VECTOR('',#239,1.);
#239 = DIRECTION('',(-0.339444575329,-0.940626057623,0.));
#240 = ORIENTED_EDGE('',*,*,#241,.F.);
#241 = EDGE_CURVE('',#225,#234,#242,.T.);
#242 = LINE('',#243,#244);
#243 = CARTESIAN_POINT('',(6.543297286227,3.950623359062,0.));
#244 = VECTOR('',#245,1.);
#245 = DIRECTION('',(0.,0.,1.));
#246 = PLANE('',#247);
#247 = AXIS2_PLACEMENT_3D('',#248,#249,#250);
#248 = CARTESIAN_POINT('',(6.543297286227,3.950623359062,0.));
#249 = DIRECTION('',(-0.940626057623,0.339444575329,0.));
#250 = DIRECTION('',(-0.339444575329,-0.940626057623,0.));
#251 = ADVANCED_FACE('',(#252),#279,.F.);
#252 = FACE_BOUND('',#253,.F.);
#253 = EDGE_LOOP('',(#254,#264,#271,#272));
#254 = ORIENTED_EDGE('',*,*,#255,.T.);
#255 = EDGE_CURVE('',#256,#258,#260,.T.);
#256 = VERTEX_POINT('',#257);
#257 = CARTESIAN_POINT('',(4.996661427858,5.95363974128,0.));
#258 = VERTEX_POINT('',#259);
#259 = CARTESIAN_POINT('',(4.996661427858,5.95363974128,6.));
#260 = LINE('',#261,#262);
#261 = CARTESIAN_POINT('',(4.996661427858,5.95363974128,0.));
#262 = VECTOR('',#263,1.);
#263 = DIRECTION('',(0.,0.,1.));
#264 = ORIENTED_EDGE('',*,*,#265,.T.);
#265 = EDGE_CURVE('',#258,#234,#266,.T.);
#266 = CIRCLE('',#267,1.5);
#267 = AXIS2_PLACEMENT_3D('',#268,#269,#270);
#268 = CARTESIAN_POINT('',(5.132358199792,4.459790222055,6.));
#269 = DIRECTION('',(0.,0.,-1.));
#270 = DIRECTION('',(0.940626057623,-0.339444575329,0.));
#271 = ORIENTED_EDGE('',*,*,#241,.F.);
#272 = ORIENTED_EDGE('',*,*,#273,.T.);
#273 = EDGE_CURVE('',#225,#256,#274,.T.);
#274 = CIRCLE('',#275,1.5);
#275 = AXIS2_PLACEMENT_3D('',#276,#277,#278);
#276 = CARTESIAN_POINT('',(5.132358199792,4.459790222055,0.));
#277 = DIRECTION('',(0.,0.,1.));
#278 = DIRECTION('',(0.940626057623,-0.339444575329,0.));
#279 = CYLINDRICAL_SURFACE('',#280,1.5);
#280 = AXIS2_PLACEMENT_3D('',#281,#282,#283);
#281 = CARTESIAN_POINT('',(5.132358199792,4.459790222055,0.));
#282 = DIRECTION('',(0.,0.,1.));
#283 = DIRECTION('',(0.940626057623,-0.339444575329,0.));
#284 = ADVANCED_FACE('',(#285),#310,.T.);
#285 = FACE_BOUND('',#286,.T.);
#286 = EDGE_LOOP('',(#287,#295,#296,#304));
#287 = ORIENTED_EDGE('',*,*,#288,.T.);
#288 = EDGE_CURVE('',#289,#256,#291,.T.);
#289 = VERTEX_POINT('',#290);
#290 = CARTESIAN_POINT('',(0.545232257301,5.549285379614,0.));
#291 = LINE('',#292,#293);
#292 = CARTESIAN_POINT('',(0.545232257311,5.5492853795,0.));
#293 = VECTOR('',#294,1.);
#294 = DIRECTION('',(0.995899679483,9.046451462329E-02,0.));
#295 = ORIENTED_EDGE('',*,*,#255,.T.);
#296 = ORIENTED_EDGE('',*,*,#297,.F.);
#297 = EDGE_CURVE('',#298,#258,#300,.T.);
#298 = VERTEX_POINT('',#299);
#299 = CARTESIAN_POINT('',(0.545232257301,5.549285379614,6.));
#300 = LINE('',#301,#302);
#301 = CARTESIAN_POINT('',(0.545232257311,5.5492853795,6.));
#302 = VECTOR('',#303,1.);
#303 = DIRECTION('',(0.995899679483,9.046451462329E-02,0.));
#304 = ORIENTED_EDGE('',*,*,#305,.F.);
#305 = EDGE_CURVE('',#289,#298,#306,.T.);
#306 = LINE('',#307,#308);
#307 = CARTESIAN_POINT('',(0.545232257301,5.549285379614,0.));
#308 = VECTOR('',#309,1.);
#309 = DIRECTION('',(0.,0.,1.));
#310 = PLANE('',#311);
#311 = AXIS2_PLACEMENT_3D('',#312,#313,#314);
#312 = CARTESIAN_POINT('',(0.545232257311,5.5492853795,0.));
#313 = DIRECTION('',(9.046451462329E-02,-0.995899679483,0.));
#314 = DIRECTION('',(0.995899679483,9.046451462329E-02,0.));
#315 = ADVANCED_FACE('',(#316),#343,.T.);
#316 = FACE_BOUND('',#317,.T.);
#317 = EDGE_LOOP('',(#318,#327,#328,#337));
#318 = ORIENTED_EDGE('',*,*,#319,.T.);
#319 = EDGE_CURVE('',#320,#289,#322,.T.);
#320 = VERTEX_POINT('',#321);
#321 = CARTESIAN_POINT('',(5.477910277347E-02,6.274783791109,0.));
#322 = CIRCLE('',#323,0.499999999886);
#323 = AXIS2_PLACEMENT_3D('',#324,#325,#326);
#324 = CARTESIAN_POINT('',(0.5,6.047235219242,0.));
#325 = DIRECTION('',(0.,0.,1.));
#326 = DIRECTION('',(-0.890441794656,0.455097143838,0.));
#327 = ORIENTED_EDGE('',*,*,#305,.T.);
#328 = ORIENTED_EDGE('',*,*,#329,.F.);
#329 = EDGE_CURVE('',#330,#298,#332,.T.);
#330 = VERTEX_POINT('',#331);
#331 = CARTESIAN_POINT('',(5.477910277347E-02,6.274783791109,6.));
#332 = CIRCLE('',#333,0.499999999886);
#333 = AXIS2_PLACEMENT_3D('',#334,#335,#336);
#334 = CARTESIAN_POINT('',(0.5,6.047235219242,6.));
#335 = DIRECTION('',(0.,0.,1.));
#336 = DIRECTION('',(-0.890441794656,0.455097143838,0.));
#337 = ORIENTED_EDGE('',*,*,#338,.F.);
#338 = EDGE_CURVE('',#320,#330,#339,.T.);
#339 = LINE('',#340,#341);
#340 = CARTESIAN_POINT('',(5.477910277347E-02,6.274783791109,0.));
#341 = VECTOR('',#342,1.);
#342 = DIRECTION('',(0.,0.,1.));
#343 = CYLINDRICAL_SURFACE('',#344,0.499999999886);
#344 = AXIS2_PLACEMENT_3D('',#345,#346,#347);
#345 = CARTESIAN_POINT('',(0.5,6.047235219242,0.));
#346 = DIRECTION('',(0.,0.,1.));
#347 = DIRECTION('',(-0.890441794656,0.455097143838,0.));
#348 = ADVANCED_FACE('',(#349),#376,.F.);
#349 = FACE_BOUND('',#350,.F.);
#350 = EDGE_LOOP('',(#351,#361,#368,#369));
#351 = ORIENTED_EDGE('',*,*,#352,.T.);
#352 = EDGE_CURVE('',#353,#355,#357,.T.);
#353 = VERTEX_POINT('',#354);
#354 = CARTESIAN_POINT('',(5.477910267272E-02,10.124697522905,0.));
#355 = VERTEX_POINT('',#356);
#356 = CARTESIAN_POINT('',(5.477910267272E-02,10.124697522905,6.));
#357 = LINE('',#358,#359);
#358 = CARTESIAN_POINT('',(5.477910267272E-02,10.124697522905,0.));
#359 = VECTOR('',#360,1.);
#360 = DIRECTION('',(0.,0.,1.));
#361 = ORIENTED_EDGE('',*,*,#362,.T.);
#362 = EDGE_CURVE('',#355,#330,#363,.T.);
#363 = CIRCLE('',#364,4.229771361967);
#364 = AXIS2_PLACEMENT_3D('',#365,#366,#367);
#365 = CARTESIAN_POINT('',(-3.711586099759,8.199740657034,6.));
#366 = DIRECTION('',(0.,0.,-1.));
#367 = DIRECTION('',(0.890441794655,-0.455097143839,0.));
#368 = ORIENTED_EDGE('',*,*,#338,.F.);
#369 = ORIENTED_EDGE('',*,*,#370,.T.);
#370 = EDGE_CURVE('',#320,#353,#371,.T.);
#371 = CIRCLE('',#372,4.229771361967);
#372 = AXIS2_PLACEMENT_3D('',#373,#374,#375);
#373 = CARTESIAN_POINT('',(-3.711586099759,8.199740657034,0.));
#374 = DIRECTION('',(0.,0.,1.));
#375 = DIRECTION('',(0.890441794655,-0.455097143839,0.));
#376 = CYLINDRICAL_SURFACE('',#377,4.229771361967);
#377 = AXIS2_PLACEMENT_3D('',#378,#379,#380);
#378 = CARTESIAN_POINT('',(-3.711586099759,8.199740657034,0.));
#379 = DIRECTION('',(0.,0.,1.));
#380 = DIRECTION('',(0.890441794655,-0.455097143839,0.));
#381 = ADVANCED_FACE('',(#382),#409,.T.);
#382 = FACE_BOUND('',#383,.T.);
#383 = EDGE_LOOP('',(#384,#393,#394,#403));
#384 = ORIENTED_EDGE('',*,*,#385,.T.);
#385 = EDGE_CURVE('',#386,#353,#388,.T.);
#386 = VERTEX_POINT('',#387);
#387 = CARTESIAN_POINT('',(0.545232257311,10.850195934567,0.));
#388 = CIRCLE('',#389,0.5);
#389 = AXIS2_PLACEMENT_3D('',#390,#391,#392);
#390 = CARTESIAN_POINT('',(0.5,10.352246094826,0.));
#391 = DIRECTION('',(0.,0.,1.));
#392 = DIRECTION('',(9.046451462197E-02,0.995899679483,-0.));
#393 = ORIENTED_EDGE('',*,*,#352,.T.);
#394 = ORIENTED_EDGE('',*,*,#395,.F.);
#395 = EDGE_CURVE('',#396,#355,#398,.T.);
#396 = VERTEX_POINT('',#397);
#397 = CARTESIAN_POINT('',(0.545232257311,10.850195934567,6.));
#398 = CIRCLE('',#399,0.5);
#399 = AXIS2_PLACEMENT_3D('',#400,#401,#402);
#400 = CARTESIAN_POINT('',(0.5,10.352246094826,6.));
#401 = DIRECTION('',(0.,0.,1.));
#402 = DIRECTION('',(9.046451462197E-02,0.995899679483,-0.));
#403 = ORIENTED_EDGE('',*,*,#404,.F.);
#404 = EDGE_CURVE('',#386,#396,#405,.T.);
#405 = LINE('',#406,#407);
#406 = CARTESIAN_POINT('',(0.545232257311,10.850195934567,0.));
#407 = VECTOR('',#408,1.);
#408 = DIRECTION('',(0.,0.,1.));
#409 = CYLINDRICAL_SURFACE('',#410,0.5);
#410 = AXIS2_PLACEMENT_3D('',#411,#412,#413);
#411 = CARTESIAN_POINT('',(0.5,10.352246094826,0.));
#412 = DIRECTION('',(0.,0.,1.));
#413 = DIRECTION('',(9.046451462197E-02,0.995899679483,-0.));
#414 = ADVANCED_FACE('',(#415),#440,.T.);
#415 = FACE_BOUND('',#416,.T.);
#416 = EDGE_LOOP('',(#417,#425,#426,#434));
#417 = ORIENTED_EDGE('',*,*,#418,.F.);
#418 = EDGE_CURVE('',#386,#419,#421,.T.);
#419 = VERTEX_POINT('',#420);
#420 = CARTESIAN_POINT('',(4.996661427858,10.445841572788,0.));
#421 = LINE('',#422,#423);
#422 = CARTESIAN_POINT('',(0.545232257311,10.850195934567,0.));
#423 = VECTOR('',#424,1.);
#424 = DIRECTION('',(0.995899679483,-9.046451462332E-02,0.));
#425 = ORIENTED_EDGE('',*,*,#404,.T.);
#426 = ORIENTED_EDGE('',*,*,#427,.F.);
#427 = EDGE_CURVE('',#428,#396,#430,.T.);
#428 = VERTEX_POINT('',#429);
#429 = CARTESIAN_POINT('',(4.996661427858,10.445841572788,6.));
#430 = LINE('',#431,#432);
#431 = CARTESIAN_POINT('',(0.545232257311,10.850195934567,6.));
#432 = VECTOR('',#433,1.);
#433 = DIRECTION('',(-0.995899679483,9.046451462332E-02,0.));
#434 = ORIENTED_EDGE('',*,*,#435,.F.);
#435 = EDGE_CURVE('',#419,#428,#436,.T.);
#436 = LINE('',#437,#438);
#437 = CARTESIAN_POINT('',(4.996661427858,10.445841572788,0.));
#438 = VECTOR('',#439,1.);
#439 = DIRECTION('',(0.,0.,1.));
#440 = PLANE('',#441);
#441 = AXIS2_PLACEMENT_3D('',#442,#443,#444);
#442 = CARTESIAN_POINT('',(4.996661427858,10.445841572788,0.));
#443 = DIRECTION('',(9.046451462332E-02,0.995899679483,0.));
#444 = DIRECTION('',(-0.995899679483,9.046451462332E-02,0.));
#445 = ADVANCED_FACE('',(#446),#473,.F.);
#446 = FACE_BOUND('',#447,.F.);
#447 = EDGE_LOOP('',(#448,#458,#465,#466));
#448 = ORIENTED_EDGE('',*,*,#449,.T.);
#449 = EDGE_CURVE('',#450,#452,#454,.T.);
#450 = VERTEX_POINT('',#451);
#451 = CARTESIAN_POINT('',(6.543297286227,12.448857955005,0.));
#452 = VERTEX_POINT('',#453);
#453 = CARTESIAN_POINT('',(6.543297286227,12.448857955005,6.));
#454 = LINE('',#455,#456);
#455 = CARTESIAN_POINT('',(6.543297286227,12.448857955005,0.));
#456 = VECTOR('',#457,1.);
#457 = DIRECTION('',(0.,0.,1.));
#458 = ORIENTED_EDGE('',*,*,#459,.T.);
#459 = EDGE_CURVE('',#452,#428,#460,.T.);
#460 = CIRCLE('',#461,1.5);
#461 = AXIS2_PLACEMENT_3D('',#462,#463,#464);
#462 = CARTESIAN_POINT('',(5.132358199792,11.939691092012,6.));
#463 = DIRECTION('',(0.,0.,-1.));
#464 = DIRECTION('',(-9.046451462321E-02,-0.995899679483,-0.));
#465 = ORIENTED_EDGE('',*,*,#435,.F.);
#466 = ORIENTED_EDGE('',*,*,#467,.T.);
#467 = EDGE_CURVE('',#419,#450,#468,.T.);
#468 = CIRCLE('',#469,1.5);
#469 = AXIS2_PLACEMENT_3D('',#470,#471,#472);
#470 = CARTESIAN_POINT('',(5.132358199792,11.939691092012,0.));
#471 = DIRECTION('',(0.,0.,1.));
#472 = DIRECTION('',(-9.046451462321E-02,-0.995899679483,0.));
#473 = CYLINDRICAL_SURFACE('',#474,1.5);
#474 = AXIS2_PLACEMENT_3D('',#475,#476,#477);
#475 = CARTESIAN_POINT('',(5.132358199792,11.939691092012,0.));
#476 = DIRECTION('',(0.,0.,1.));
#477 = DIRECTION('',(-9.046451462321E-02,-0.995899679483,0.));
#478 = ADVANCED_FACE('',(#479),#504,.T.);
#479 = FACE_BOUND('',#480,.T.);
#480 = EDGE_LOOP('',(#481,#489,#490,#498));
#481 = ORIENTED_EDGE('',*,*,#482,.T.);
#482 = EDGE_CURVE('',#483,#450,#485,.T.);
#483 = VERTEX_POINT('',#484);
#484 = CARTESIAN_POINT('',(5.735138191398,14.688326658588,0.));
#485 = LINE('',#486,#487);
#486 = CARTESIAN_POINT('',(5.735138191636,14.688326658674,0.));
#487 = VECTOR('',#488,1.);
#488 = DIRECTION('',(0.339444575328,-0.940626057623,0.));
#489 = ORIENTED_EDGE('',*,*,#449,.T.);
#490 = ORIENTED_EDGE('',*,*,#491,.F.);
#491 = EDGE_CURVE('',#492,#452,#494,.T.);
#492 = VERTEX_POINT('',#493);
#493 = CARTESIAN_POINT('',(5.735138191398,14.688326658588,6.));
#494 = LINE('',#495,#496);
#495 = CARTESIAN_POINT('',(5.735138191636,14.688326658674,6.));
#496 = VECTOR('',#497,1.);
#497 = DIRECTION('',(0.339444575328,-0.940626057623,0.));
#498 = ORIENTED_EDGE('',*,*,#499,.F.);
#499 = EDGE_CURVE('',#483,#492,#500,.T.);
#500 = LINE('',#501,#502);
#501 = CARTESIAN_POINT('',(5.735138191398,14.688326658588,0.));
#502 = VECTOR('',#503,1.);
#503 = DIRECTION('',(0.,0.,1.));
#504 = PLANE('',#505);
#505 = AXIS2_PLACEMENT_3D('',#506,#507,#508);
#506 = CARTESIAN_POINT('',(5.735138191636,14.688326658674,0.));
#507 = DIRECTION('',(-0.940626057623,-0.339444575328,0.));
#508 = DIRECTION('',(0.339444575328,-0.940626057623,0.));
#509 = ADVANCED_FACE('',(#510),#537,.T.);
#510 = FACE_BOUND('',#511,.T.);
#511 = EDGE_LOOP('',(#512,#521,#522,#531));
#512 = ORIENTED_EDGE('',*,*,#513,.T.);
#513 = EDGE_CURVE('',#514,#483,#516,.T.);
#514 = VERTEX_POINT('',#515);
#515 = CARTESIAN_POINT('',(5.948820299816,15.287164980563,0.));
#516 = CIRCLE('',#517,0.500000000252);
#517 = AXIS2_PLACEMENT_3D('',#518,#519,#520);
#518 = CARTESIAN_POINT('',(6.205451220447,14.858048946339,0.));
#519 = DIRECTION('',(0.,0.,1.));
#520 = DIRECTION('',(-0.513261841003,0.858232068016,0.));
#521 = ORIENTED_EDGE('',*,*,#499,.T.);
#522 = ORIENTED_EDGE('',*,*,#523,.F.);
#523 = EDGE_CURVE('',#524,#492,#526,.T.);
#524 = VERTEX_POINT('',#525);
#525 = CARTESIAN_POINT('',(5.948820299816,15.287164980563,6.));
#526 = CIRCLE('',#527,0.500000000252);
#527 = AXIS2_PLACEMENT_3D('',#528,#529,#530);
#528 = CARTESIAN_POINT('',(6.205451220447,14.858048946339,6.));
#529 = DIRECTION('',(0.,0.,1.));
#530 = DIRECTION('',(-0.513261841003,0.858232068016,0.));
#531 = ORIENTED_EDGE('',*,*,#532,.F.);
#532 = EDGE_CURVE('',#514,#524,#533,.T.);
#533 = LINE('',#534,#535);
#534 = CARTESIAN_POINT('',(5.948820299816,15.287164980563,0.));
#535 = VECTOR('',#536,1.);
#536 = DIRECTION('',(0.,0.,1.));
#537 = CYLINDRICAL_SURFACE('',#538,0.500000000252);
#538 = AXIS2_PLACEMENT_3D('',#539,#540,#541);
#539 = CARTESIAN_POINT('',(6.205451220447,14.858048946339,0.));
#540 = DIRECTION('',(0.,0.,1.));
#541 = DIRECTION('',(-0.513261841003,0.858232068016,0.));
#542 = ADVANCED_FACE('',(#543),#570,.T.);
#543 = FACE_BOUND('',#544,.T.);
#544 = EDGE_LOOP('',(#545,#554,#555,#564));
#545 = ORIENTED_EDGE('',*,*,#546,.T.);
#546 = EDGE_CURVE('',#547,#514,#549,.T.);
#547 = VERTEX_POINT('',#548);
#548 = CARTESIAN_POINT('',(14.002962320696,15.287164980347,0.));
#549 = CIRCLE('',#550,7.846036250515);
#550 = AXIS2_PLACEMENT_3D('',#551,#552,#553);
#551 = CARTESIAN_POINT('',(9.975891310321,8.553445063552,0.));
#552 = DIRECTION('',(0.,0.,1.));
#553 = DIRECTION('',(0.513261841002,0.858232068016,-0.));
#554 = ORIENTED_EDGE('',*,*,#532,.T.);
#555 = ORIENTED_EDGE('',*,*,#556,.F.);
#556 = EDGE_CURVE('',#557,#524,#559,.T.);
#557 = VERTEX_POINT('',#558);
#558 = CARTESIAN_POINT('',(14.002962320696,15.287164980347,6.));
#559 = CIRCLE('',#560,7.846036250515);
#560 = AXIS2_PLACEMENT_3D('',#561,#562,#563);
#561 = CARTESIAN_POINT('',(9.975891310321,8.553445063552,6.));
#562 = DIRECTION('',(0.,0.,1.));
#563 = DIRECTION('',(0.513261841002,0.858232068016,-0.));
#564 = ORIENTED_EDGE('',*,*,#565,.F.);
#565 = EDGE_CURVE('',#547,#557,#566,.T.);
#566 = LINE('',#567,#568);
#567 = CARTESIAN_POINT('',(14.002962320696,15.287164980347,0.));
#568 = VECTOR('',#569,1.);
#569 = DIRECTION('',(0.,0.,1.));
#570 = CYLINDRICAL_SURFACE('',#571,7.846036250515);
#571 = AXIS2_PLACEMENT_3D('',#572,#573,#574);
#572 = CARTESIAN_POINT('',(9.975891310321,8.553445063552,0.));
#573 = DIRECTION('',(0.,0.,1.));
#574 = DIRECTION('',(0.513261841002,0.858232068016,-0.));
#575 = ADVANCED_FACE('',(#576),#603,.T.);
#576 = FACE_BOUND('',#577,.T.);
#577 = EDGE_LOOP('',(#578,#587,#588,#597));
#578 = ORIENTED_EDGE('',*,*,#579,.T.);
#579 = EDGE_CURVE('',#580,#547,#582,.T.);
#580 = VERTEX_POINT('',#581);
#581 = CARTESIAN_POINT('',(14.216644429006,14.688326658674,0.));
#582 = CIRCLE('',#583,0.5);
#583 = AXIS2_PLACEMENT_3D('',#584,#585,#586);
#584 = CARTESIAN_POINT('',(13.746331400194,14.858048946339,0.));
#585 = DIRECTION('',(0.,0.,1.));
#586 = DIRECTION('',(0.940626057623,-0.339444575329,0.));
#587 = ORIENTED_EDGE('',*,*,#565,.T.);
#588 = ORIENTED_EDGE('',*,*,#589,.F.);
#589 = EDGE_CURVE('',#590,#557,#592,.T.);
#590 = VERTEX_POINT('',#591);
#591 = CARTESIAN_POINT('',(14.216644429006,14.688326658674,6.));
#592 = CIRCLE('',#593,0.5);
#593 = AXIS2_PLACEMENT_3D('',#594,#595,#596);
#594 = CARTESIAN_POINT('',(13.746331400194,14.858048946339,6.));
#595 = DIRECTION('',(0.,0.,1.));
#596 = DIRECTION('',(0.940626057623,-0.339444575329,0.));
#597 = ORIENTED_EDGE('',*,*,#598,.F.);
#598 = EDGE_CURVE('',#580,#590,#599,.T.);
#599 = LINE('',#600,#601);
#600 = CARTESIAN_POINT('',(14.216644429006,14.688326658674,0.));
#601 = VECTOR('',#602,1.);
#602 = DIRECTION('',(0.,0.,1.));
#603 = CYLINDRICAL_SURFACE('',#604,0.5);
#604 = AXIS2_PLACEMENT_3D('',#605,#606,#607);
#605 = CARTESIAN_POINT('',(13.746331400194,14.858048946339,0.));
#606 = DIRECTION('',(0.,0.,1.));
#607 = DIRECTION('',(0.940626057623,-0.339444575329,0.));
#608 = ADVANCED_FACE('',(#609),#634,.T.);
#609 = FACE_BOUND('',#610,.T.);
#610 = EDGE_LOOP('',(#611,#619,#620,#628));
#611 = ORIENTED_EDGE('',*,*,#612,.F.);
#612 = EDGE_CURVE('',#580,#613,#615,.T.);
#613 = VERTEX_POINT('',#614);
#614 = CARTESIAN_POINT('',(13.408485334414,12.448857955005,0.));
#615 = LINE('',#616,#617);
#616 = CARTESIAN_POINT('',(14.216644429006,14.688326658674,0.));
#617 = VECTOR('',#618,1.);
#618 = DIRECTION('',(-0.339444575329,-0.940626057623,0.));
#619 = ORIENTED_EDGE('',*,*,#598,.T.);
#620 = ORIENTED_EDGE('',*,*,#621,.F.);
#621 = EDGE_CURVE('',#622,#590,#624,.T.);
#622 = VERTEX_POINT('',#623);
#623 = CARTESIAN_POINT('',(13.408485334414,12.448857955005,6.));
#624 = LINE('',#625,#626);
#625 = CARTESIAN_POINT('',(14.216644429006,14.688326658674,6.));
#626 = VECTOR('',#627,1.);
#627 = DIRECTION('',(0.339444575329,0.940626057623,0.));
#628 = ORIENTED_EDGE('',*,*,#629,.F.);
#629 = EDGE_CURVE('',#613,#622,#630,.T.);
#630 = LINE('',#631,#632);
#631 = CARTESIAN_POINT('',(13.408485334414,12.448857955005,0.));
#632 = VECTOR('',#633,1.);
#633 = DIRECTION('',(0.,0.,1.));
#634 = PLANE('',#635);
#635 = AXIS2_PLACEMENT_3D('',#636,#637,#638);
#636 = CARTESIAN_POINT('',(13.408485334414,12.448857955005,0.));
#637 = DIRECTION('',(0.940626057623,-0.339444575329,0.));
#638 = DIRECTION('',(0.339444575329,0.940626057623,0.));
#639 = ADVANCED_FACE('',(#640),#667,.F.);
#640 = FACE_BOUND('',#641,.F.);
#641 = EDGE_LOOP('',(#642,#652,#659,#660));
#642 = ORIENTED_EDGE('',*,*,#643,.T.);
#643 = EDGE_CURVE('',#644,#646,#648,.T.);
#644 = VERTEX_POINT('',#645);
#645 = CARTESIAN_POINT('',(14.955121192784,10.445841572788,0.));
#646 = VERTEX_POINT('',#647);
#647 = CARTESIAN_POINT('',(14.955121192784,10.445841572788,6.));
#648 = LINE('',#649,#650);
#649 = CARTESIAN_POINT('',(14.955121192784,10.445841572788,0.));
#650 = VECTOR('',#651,1.);
#651 = DIRECTION('',(0.,0.,1.));
#652 = ORIENTED_EDGE('',*,*,#653,.T.);
#653 = EDGE_CURVE('',#646,#622,#654,.T.);
#654 = CIRCLE('',#655,1.5);
#655 = AXIS2_PLACEMENT_3D('',#656,#657,#658);
#656 = CARTESIAN_POINT('',(14.819424420849,11.939691092012,6.));
#657 = DIRECTION('',(0.,0.,-1.));
#658 = DIRECTION('',(-0.940626057623,0.339444575329,0.));
#659 = ORIENTED_EDGE('',*,*,#629,.F.);
#660 = ORIENTED_EDGE('',*,*,#661,.T.);
#661 = EDGE_CURVE('',#613,#644,#662,.T.);
#662 = CIRCLE('',#663,1.5);
#663 = AXIS2_PLACEMENT_3D('',#664,#665,#666);
#664 = CARTESIAN_POINT('',(14.819424420849,11.939691092012,0.));
#665 = DIRECTION('',(0.,0.,1.));
#666 = DIRECTION('',(-0.940626057623,0.339444575329,0.));
#667 = CYLINDRICAL_SURFACE('',#668,1.5);
#668 = AXIS2_PLACEMENT_3D('',#669,#670,#671);
#669 = CARTESIAN_POINT('',(14.819424420849,11.939691092012,0.));
#670 = DIRECTION('',(0.,0.,1.));
#671 = DIRECTION('',(-0.940626057623,0.339444575329,0.));
#672 = ADVANCED_FACE('',(#673),#698,.T.);
#673 = FACE_BOUND('',#674,.T.);
#674 = EDGE_LOOP('',(#675,#683,#684,#692));
#675 = ORIENTED_EDGE('',*,*,#676,.T.);
#676 = EDGE_CURVE('',#677,#644,#679,.T.);
#677 = VERTEX_POINT('',#678);
#678 = CARTESIAN_POINT('',(19.40655036334,10.850195934454,0.));
#679 = LINE('',#680,#681);
#680 = CARTESIAN_POINT('',(19.406550363329,10.850195934567,0.));
#681 = VECTOR('',#682,1.);
#682 = DIRECTION('',(-0.995899679483,-9.046451462329E-02,0.));
#683 = ORIENTED_EDGE('',*,*,#643,.T.);
#684 = ORIENTED_EDGE('',*,*,#685,.F.);
#685 = EDGE_CURVE('',#686,#646,#688,.T.);
#686 = VERTEX_POINT('',#687);
#687 = CARTESIAN_POINT('',(19.40655036334,10.850195934454,6.));
#688 = LINE('',#689,#690);
#689 = CARTESIAN_POINT('',(19.406550363329,10.850195934567,6.));
#690 = VECTOR('',#691,1.);
#691 = DIRECTION('',(-0.995899679483,-9.046451462329E-02,0.));
#692 = ORIENTED_EDGE('',*,*,#693,.F.);
#693 = EDGE_CURVE('',#677,#686,#694,.T.);
#694 = LINE('',#695,#696);
#695 = CARTESIAN_POINT('',(19.40655036334,10.850195934454,0.));
#696 = VECTOR('',#697,1.);
#697 = DIRECTION('',(0.,0.,1.));
#698 = PLANE('',#699);
#699 = AXIS2_PLACEMENT_3D('',#700,#701,#702);
#700 = CARTESIAN_POINT('',(19.406550363329,10.850195934567,0.));
#701 = DIRECTION('',(-9.046451462329E-02,0.995899679483,0.));
#702 = DIRECTION('',(-0.995899679483,-9.046451462329E-02,0.));
#703 = ADVANCED_FACE('',(#704),#731,.T.);
#704 = FACE_BOUND('',#705,.T.);
#705 = EDGE_LOOP('',(#706,#715,#716,#725));
#706 = ORIENTED_EDGE('',*,*,#707,.T.);
#707 = EDGE_CURVE('',#708,#677,#710,.T.);
#708 = VERTEX_POINT('',#709);
#709 = CARTESIAN_POINT('',(19.897003517867,10.124697522957,0.));
#710 = CIRCLE('',#711,0.499999999886);
#711 = AXIS2_PLACEMENT_3D('',#712,#713,#714);
#712 = CARTESIAN_POINT('',(19.451782620641,10.352246094826,0.));
#713 = DIRECTION('',(0.,0.,1.));
#714 = DIRECTION('',(0.890441794655,-0.455097143841,0.));
#715 = ORIENTED_EDGE('',*,*,#693,.T.);
#716 = ORIENTED_EDGE('',*,*,#717,.F.);
#717 = EDGE_CURVE('',#718,#686,#720,.T.);
#718 = VERTEX_POINT('',#719);
#719 = CARTESIAN_POINT('',(19.897003517867,10.124697522957,6.));
#720 = CIRCLE('',#721,0.499999999886);
#721 = AXIS2_PLACEMENT_3D('',#722,#723,#724);
#722 = CARTESIAN_POINT('',(19.451782620641,10.352246094826,6.));
#723 = DIRECTION('',(0.,0.,1.));
#724 = DIRECTION('',(0.890441794655,-0.455097143841,0.));
#725 = ORIENTED_EDGE('',*,*,#726,.F.);
#726 = EDGE_CURVE('',#708,#718,#727,.T.);
#727 = LINE('',#728,#729);
#728 = CARTESIAN_POINT('',(19.897003517867,10.124697522957,0.));
#729 = VECTOR('',#730,1.);
#730 = DIRECTION('',(0.,0.,1.));
#731 = CYLINDRICAL_SURFACE('',#732,0.499999999886);
#732 = AXIS2_PLACEMENT_3D('',#733,#734,#735);
#733 = CARTESIAN_POINT('',(19.451782620641,10.352246094826,0.));
#734 = DIRECTION('',(0.,0.,1.));
#735 = DIRECTION('',(0.890441794655,-0.455097143841,0.));
#736 = ADVANCED_FACE('',(#737),#764,.F.);
#737 = FACE_BOUND('',#738,.F.);
#738 = EDGE_LOOP('',(#739,#749,#756,#757));
#739 = ORIENTED_EDGE('',*,*,#740,.T.);
#740 = EDGE_CURVE('',#741,#743,#745,.T.);
#741 = VERTEX_POINT('',#742);
#742 = CARTESIAN_POINT('',(19.897003517969,6.274783791161,0.));
#743 = VERTEX_POINT('',#744);
#744 = CARTESIAN_POINT('',(19.897003517969,6.274783791161,6.));
#745 = LINE('',#746,#747);
#746 = CARTESIAN_POINT('',(19.897003517969,6.274783791161,0.));
#747 = VECTOR('',#748,1.);
#748 = DIRECTION('',(0.,0.,1.));
#749 = ORIENTED_EDGE('',*,*,#750,.T.);
#750 = EDGE_CURVE('',#743,#718,#751,.T.);
#751 = CIRCLE('',#752,4.229771361967);
#752 = AXIS2_PLACEMENT_3D('',#753,#754,#755);
#753 = CARTESIAN_POINT('',(23.6633687204,8.199740657034,6.));
#754 = DIRECTION('',(0.,0.,-1.));
#755 = DIRECTION('',(-0.890441794656,0.455097143839,0.));
#756 = ORIENTED_EDGE('',*,*,#726,.F.);
#757 = ORIENTED_EDGE('',*,*,#758,.T.);
#758 = EDGE_CURVE('',#708,#741,#759,.T.);
#759 = CIRCLE('',#760,4.229771361967);
#760 = AXIS2_PLACEMENT_3D('',#761,#762,#763);
#761 = CARTESIAN_POINT('',(23.6633687204,8.199740657034,0.));
#762 = DIRECTION('',(0.,0.,1.));
#763 = DIRECTION('',(-0.890441794656,0.455097143839,0.));
#764 = CYLINDRICAL_SURFACE('',#765,4.229771361967);
#765 = AXIS2_PLACEMENT_3D('',#766,#767,#768);
#766 = CARTESIAN_POINT('',(23.6633687204,8.199740657034,0.));
#767 = DIRECTION('',(0.,0.,1.));
#768 = DIRECTION('',(-0.890441794656,0.455097143839,0.));
#769 = ADVANCED_FACE('',(#770),#788,.T.);
#770 = FACE_BOUND('',#771,.T.);
#771 = EDGE_LOOP('',(#772,#779,#780,#787));
#772 = ORIENTED_EDGE('',*,*,#773,.T.);
#773 = EDGE_CURVE('',#22,#741,#774,.T.);
#774 = CIRCLE('',#775,0.5);
#775 = AXIS2_PLACEMENT_3D('',#776,#777,#778);
#776 = CARTESIAN_POINT('',(19.451782620641,6.047235219242,0.));
#777 = DIRECTION('',(0.,0.,1.));
#778 = DIRECTION('',(-9.046451462381E-02,-0.995899679483,0.));
#779 = ORIENTED_EDGE('',*,*,#740,.T.);
#780 = ORIENTED_EDGE('',*,*,#781,.F.);
#781 = EDGE_CURVE('',#32,#743,#782,.T.);
#782 = CIRCLE('',#783,0.5);
#783 = AXIS2_PLACEMENT_3D('',#784,#785,#786);
#784 = CARTESIAN_POINT('',(19.451782620641,6.047235219242,6.));
#785 = DIRECTION('',(0.,0.,1.));
#786 = DIRECTION('',(-9.046451462381E-02,-0.995899679483,0.));
#787 = ORIENTED_EDGE('',*,*,#31,.F.);
#788 = CYLINDRICAL_SURFACE('',#789,0.5);
#789 = AXIS2_PLACEMENT_3D('',#790,#791,#792);
#790 = CARTESIAN_POINT('',(19.451782620641,6.047235219242,0.));
#791 = DIRECTION('',(0.,0.,1.));
#792 = DIRECTION('',(-9.046451462381E-02,-0.995899679483,0.));
#793 = ADVANCED_FACE('',(#794),#820,.T.);
#794 = FACE_BOUND('',#795,.T.);
#795 = EDGE_LOOP('',(#796,#797,#798,#799,#800,#801,#802,#803,#804,#805,
    #806,#807,#808,#809,#810,#811,#812,#813,#814,#815,#816,#817,#818,
    #819));
#796 = ORIENTED_EDGE('',*,*,#781,.T.);
#797 = ORIENTED_EDGE('',*,*,#750,.T.);
#798 = ORIENTED_EDGE('',*,*,#717,.T.);
#799 = ORIENTED_EDGE('',*,*,#685,.T.);
#800 = ORIENTED_EDGE('',*,*,#653,.T.);
#801 = ORIENTED_EDGE('',*,*,#621,.T.);
#802 = ORIENTED_EDGE('',*,*,#589,.T.);
#803 = ORIENTED_EDGE('',*,*,#556,.T.);
#804 = ORIENTED_EDGE('',*,*,#523,.T.);
#805 = ORIENTED_EDGE('',*,*,#491,.T.);
#806 = ORIENTED_EDGE('',*,*,#459,.T.);
#807 = ORIENTED_EDGE('',*,*,#427,.T.);
#808 = ORIENTED_EDGE('',*,*,#395,.T.);
#809 = ORIENTED_EDGE('',*,*,#362,.T.);
#810 = ORIENTED_EDGE('',*,*,#329,.T.);
#811 = ORIENTED_EDGE('',*,*,#297,.T.);
#812 = ORIENTED_EDGE('',*,*,#265,.T.);
#813 = ORIENTED_EDGE('',*,*,#233,.T.);
#814 = ORIENTED_EDGE('',*,*,#201,.T.);
#815 = ORIENTED_EDGE('',*,*,#168,.T.);
#816 = ORIENTED_EDGE('',*,*,#135,.T.);
#817 = ORIENTED_EDGE('',*,*,#103,.T.);
#818 = ORIENTED_EDGE('',*,*,#71,.T.);
#819 = ORIENTED_EDGE('',*,*,#39,.T.);
#820 = PLANE('',#821);
#821 = AXIS2_PLACEMENT_3D('',#822,#823,#824);
#822 = CARTESIAN_POINT('',(9.975891310321,8.199740657034,6.));
#823 = DIRECTION('',(0.,0.,1.));
#824 = DIRECTION('',(1.,0.,-0.));
#825 = ADVANCED_FACE('',(#826),#852,.F.);
#826 = FACE_BOUND('',#827,.T.);
#827 = EDGE_LOOP('',(#828,#829,#830,#831,#832,#833,#834,#835,#836,#837,
    #838,#839,#840,#841,#842,#843,#844,#845,#846,#847,#848,#849,#850,
    #851));
#828 = ORIENTED_EDGE('',*,*,#773,.F.);
#829 = ORIENTED_EDGE('',*,*,#21,.T.);
#830 = ORIENTED_EDGE('',*,*,#79,.T.);
#831 = ORIENTED_EDGE('',*,*,#94,.F.);
#832 = ORIENTED_EDGE('',*,*,#125,.F.);
#833 = ORIENTED_EDGE('',*,*,#158,.F.);
#834 = ORIENTED_EDGE('',*,*,#191,.F.);
#835 = ORIENTED_EDGE('',*,*,#224,.T.);
#836 = ORIENTED_EDGE('',*,*,#273,.T.);
#837 = ORIENTED_EDGE('',*,*,#288,.F.);
#838 = ORIENTED_EDGE('',*,*,#319,.F.);
#839 = ORIENTED_EDGE('',*,*,#370,.T.);
#840 = ORIENTED_EDGE('',*,*,#385,.F.);
#841 = ORIENTED_EDGE('',*,*,#418,.T.);
#842 = ORIENTED_EDGE('',*,*,#467,.T.);
#843 = ORIENTED_EDGE('',*,*,#482,.F.);
#844 = ORIENTED_EDGE('',*,*,#513,.F.);
#845 = ORIENTED_EDGE('',*,*,#546,.F.);
#846 = ORIENTED_EDGE('',*,*,#579,.F.);
#847 = ORIENTED_EDGE('',*,*,#612,.T.);
#848 = ORIENTED_EDGE('',*,*,#661,.T.);
#849 = ORIENTED_EDGE('',*,*,#676,.F.);
#850 = ORIENTED_EDGE('',*,*,#707,.F.);
#851 = ORIENTED_EDGE('',*,*,#758,.T.);
#852 = PLANE('',#853);
#853 = AXIS2_PLACEMENT_3D('',#854,#855,#856);
#854 = CARTESIAN_POINT('',(9.975891310321,8.199740657034,0.));
#855 = DIRECTION('',(0.,0.,1.));
#856 = DIRECTION('',(1.,0.,-0.));
#857 = ( GEOMETRIC_REPRESENTATION_CONTEXT(3) 
GLOBAL_UNCERTAINTY_ASSIGNED_CONTEXT((#861)) GLOBAL_UNIT_ASSIGNED_CONTEXT
((#858,#859,#860)) REPRESENTATION_CONTEXT('Context #1',
  '3D Context with UNIT and UNCERTAINTY') );
#858 = ( LENGTH_UNIT() NAMED_UNIT(*) SI_UNIT(.MILLI.,.METRE.) );
#859 = ( NAMED_UNIT(*) PLANE_ANGLE_UNIT() SI_UNIT($,.RADIAN.) );
#860 = ( NAMED_UNIT(*) SI_UNIT($,.STERADIAN.) SOLID_ANGLE_UNIT() );
#861 = UNCERTAINTY_MEASURE_WITH_UNIT(LENGTH_MEASURE(1.E-07),#858,
  'distance_accuracy_value','confusion accuracy');
#862 = PRODUCT_RELATED_PRODUCT_CATEGORY('part',$,(#7));
ENDSEC;
END-ISO-10303-21;
