solid OpenSCAD_Model
  facet normal 0 0 1
    outer loop
      vertex -15.8644 -9 2
      vertex 15.8644 -9 2
      vertex -15.8644 9 2
    endloop
  endfacet
  facet normal 0 0 1
    outer loop
      vertex 15.8644 -9 2
      vertex -15.8644 -9 2
      vertex -15.65 -9.8 2
    endloop
  endfacet
  facet normal -0 0 1
    outer loop
      vertex -16.45 8.41436 2
      vertex -15.8644 -9 2
      vertex -15.8644 9 2
    endloop
  endfacet
  facet normal 0 0 1
    outer loop
      vertex -16.45 8.41436 2
      vertex -16.45 -8.41436 2
      vertex -15.8644 -9 2
    endloop
  endfacet
  facet normal -0 0 1
    outer loop
      vertex -17.25 8.2 2
      vertex -16.45 -8.41436 2
      vertex -16.45 8.41436 2
    endloop
  endfacet
  facet normal 0 0 1
    outer loop
      vertex -17.25 8.2 2
      vertex -17.25 -8.2 2
      vertex -16.45 -8.41436 2
    endloop
  endfacet
  facet normal 0 0 1
    outer loop
      vertex -18.05 8.41436 2
      vertex -17.25 -8.2 2
      vertex -17.25 8.2 2
    endloop
  endfacet
  facet normal 0 0 1
    outer loop
      vertex -18.05 8.41436 2
      vertex -18.05 -8.41436 2
      vertex -17.25 -8.2 2
    endloop
  endfacet
  facet normal 0 0 1
    outer loop
      vertex -18.6356 9 2
      vertex -18.05 -8.41436 2
      vertex -18.05 8.41436 2
    endloop
  endfacet
  facet normal 0 0 1
    outer loop
      vertex -18.6356 9 2
      vertex -18.6356 -9 2
      vertex -18.05 -8.41436 2
    endloop
  endfacet
  facet normal 0 0 1
    outer loop
      vertex -22.25 11.8 2
      vertex -18.6356 9 2
      vertex -18.85 9.8 2
    endloop
  endfacet
  facet normal 0 0 1
    outer loop
      vertex -18.6356 9 2
      vertex -22.25 11.8 2
      vertex -18.6356 -9 2
    endloop
  endfacet
  facet normal -0 0 1
    outer loop
      vertex 18.6356 -9 2
      vertex 22.25 -11.8 2
      vertex 18.6356 9 2
    endloop
  endfacet
  facet normal 0 0 1
    outer loop
      vertex 22.25 -11.8 2
      vertex 18.6356 -9 2
      vertex 18.85 -9.8 2
    endloop
  endfacet
  facet normal -0 0 1
    outer loop
      vertex 18.05 8.41436 2
      vertex 18.6356 -9 2
      vertex 18.6356 9 2
    endloop
  endfacet
  facet normal 0 0 1
    outer loop
      vertex 18.05 8.41436 2
      vertex 18.05 -8.41436 2
      vertex 18.6356 -9 2
    endloop
  endfacet
  facet normal -0 0 1
    outer loop
      vertex 17.25 8.2 2
      vertex 18.05 -8.41436 2
      vertex 18.05 8.41436 2
    endloop
  endfacet
  facet normal 0 0 1
    outer loop
      vertex 17.25 8.2 2
      vertex 17.25 -8.2 2
      vertex 18.05 -8.41436 2
    endloop
  endfacet
  facet normal 0 0 1
    outer loop
      vertex 16.45 8.41436 2
      vertex 17.25 -8.2 2
      vertex 17.25 8.2 2
    endloop
  endfacet
  facet normal 0 0 1
    outer loop
      vertex 16.45 8.41436 2
      vertex 16.45 -8.41436 2
      vertex 17.25 -8.2 2
    endloop
  endfacet
  facet normal 0 0 1
    outer loop
      vertex 15.8644 9 2
      vertex 16.45 -8.41436 2
      vertex 16.45 8.41436 2
    endloop
  endfacet
  facet normal 0 0 1
    outer loop
      vertex 15.8644 9 2
      vertex 15.8644 -9 2
      vertex 16.45 -8.41436 2
    endloop
  endfacet
  facet normal -0 0 1
    outer loop
      vertex -15.65 9.8 2
      vertex 15.8644 9 2
      vertex 15.65 9.8 2
    endloop
  endfacet
  facet normal 0 0 1
    outer loop
      vertex -15.8644 9 2
      vertex 15.8644 9 2
      vertex -15.65 9.8 2
    endloop
  endfacet
  facet normal 0 0 1
    outer loop
      vertex 18.6356 10.6 2
      vertex 22.25 11.8 2
      vertex 22.1478 12.5764 2
    endloop
  endfacet
  facet normal 0 0 1
    outer loop
      vertex 18.6356 9 2
      vertex 22.25 11.8 2
      vertex 18.85 9.8 2
    endloop
  endfacet
  facet normal 0 0 1
    outer loop
      vertex 18.6356 10.6 2
      vertex 22.1478 12.5764 2
      vertex 21.8481 13.3 2
    endloop
  endfacet
  facet normal 0 0 1
    outer loop
      vertex 22.25 11.8 2
      vertex 18.6356 9 2
      vertex 22.25 -11.8 2
    endloop
  endfacet
  facet normal 0 0 1
    outer loop
      vertex 18.6356 10.6 2
      vertex 21.8481 13.3 2
      vertex 21.3713 13.9213 2
    endloop
  endfacet
  facet normal -0 0 1
    outer loop
      vertex 18.6356 -10.6 2
      vertex 22.25 -11.8 2
      vertex 18.85 -9.8 2
    endloop
  endfacet
  facet normal 0 0 1
    outer loop
      vertex 18.05 11.1856 2
      vertex 21.3713 13.9213 2
      vertex 20.75 14.3981 2
    endloop
  endfacet
  facet normal 0 0 1
    outer loop
      vertex 22.25 -11.8 2
      vertex 18.6356 -10.6 2
      vertex 22.1478 -12.5764 2
    endloop
  endfacet
  facet normal 0 0 1
    outer loop
      vertex 18.05 11.1856 2
      vertex 20.75 14.3981 2
      vertex 20.0265 14.6978 2
    endloop
  endfacet
  facet normal 0 0 1
    outer loop
      vertex 22.1478 -12.5764 2
      vertex 18.6356 -10.6 2
      vertex 21.8481 -13.3 2
    endloop
  endfacet
  facet normal 0 0 1
    outer loop
      vertex 18.05 11.1856 2
      vertex 20.0265 14.6978 2
      vertex 19.25 14.8 2
    endloop
  endfacet
  facet normal 0 0 1
    outer loop
      vertex 21.8481 -13.3 2
      vertex 18.6356 -10.6 2
      vertex 21.3713 -13.9213 2
    endloop
  endfacet
  facet normal -0 0 1
    outer loop
      vertex 18.05 -11.1856 2
      vertex 21.3713 -13.9213 2
      vertex 18.6356 -10.6 2
    endloop
  endfacet
  facet normal 0 0 1
    outer loop
      vertex 22.25 11.8 2
      vertex 18.6356 10.6 2
      vertex 18.85 9.8 2
    endloop
  endfacet
  facet normal 0 0 1
    outer loop
      vertex 21.3713 13.9213 2
      vertex 18.05 11.1856 2
      vertex 18.6356 10.6 2
    endloop
  endfacet
  facet normal 0 0 1
    outer loop
      vertex 19.25 14.8 2
      vertex 17.25 11.4 2
      vertex 18.05 11.1856 2
    endloop
  endfacet
  facet normal 0 0 1
    outer loop
      vertex 19.25 14.8 2
      vertex 16.45 11.1856 2
      vertex 17.25 11.4 2
    endloop
  endfacet
  facet normal 0 0 1
    outer loop
      vertex 19.25 14.8 2
      vertex 15.8644 10.6 2
      vertex 16.45 11.1856 2
    endloop
  endfacet
  facet normal 0 0 1
    outer loop
      vertex 15.8644 9 2
      vertex -15.8644 9 2
      vertex 15.8644 -9 2
    endloop
  endfacet
  facet normal 0 0 1
    outer loop
      vertex 15.8644 10.6 2
      vertex -15.65 9.8 2
      vertex 15.65 9.8 2
    endloop
  endfacet
  facet normal 0 0 1
    outer loop
      vertex -15.8644 10.6 2
      vertex 15.8644 10.6 2
      vertex 19.25 14.8 2
    endloop
  endfacet
  facet normal 0 0 1
    outer loop
      vertex 15.8644 10.6 2
      vertex -15.8644 10.6 2
      vertex -15.65 9.8 2
    endloop
  endfacet
  facet normal 0 0 1
    outer loop
      vertex 19.25 14.8 2
      vertex -16.45 11.1856 2
      vertex -15.8644 10.6 2
    endloop
  endfacet
  facet normal -0 0 1
    outer loop
      vertex -19.25 14.8 2
      vertex -16.45 11.1856 2
      vertex 19.25 14.8 2
    endloop
  endfacet
  facet normal -0 0 1
    outer loop
      vertex -21.3713 13.9213 2
      vertex -18.05 11.1856 2
      vertex -20.75 14.3981 2
    endloop
  endfacet
  facet normal -0 0 1
    outer loop
      vertex -20.75 14.3981 2
      vertex -18.05 11.1856 2
      vertex -20.0265 14.6978 2
    endloop
  endfacet
  facet normal -0 0 1
    outer loop
      vertex -20.0265 14.6978 2
      vertex -18.05 11.1856 2
      vertex -19.25 14.8 2
    endloop
  endfacet
  facet normal 0 0 1
    outer loop
      vertex -17.25 11.4 2
      vertex -19.25 14.8 2
      vertex -18.05 11.1856 2
    endloop
  endfacet
  facet normal 0 0 1
    outer loop
      vertex -16.45 11.1856 2
      vertex -19.25 14.8 2
      vertex -17.25 11.4 2
    endloop
  endfacet
  facet normal 0 0 1
    outer loop
      vertex 21.3713 -13.9213 2
      vertex 18.05 -11.1856 2
      vertex 20.75 -14.3981 2
    endloop
  endfacet
  facet normal 0 0 1
    outer loop
      vertex 20.75 -14.3981 2
      vertex 18.05 -11.1856 2
      vertex 20.0265 -14.6978 2
    endloop
  endfacet
  facet normal 0 0 1
    outer loop
      vertex 20.0265 -14.6978 2
      vertex 18.05 -11.1856 2
      vertex 19.25 -14.8 2
    endloop
  endfacet
  facet normal -0 0 1
    outer loop
      vertex 17.25 -11.4 2
      vertex 19.25 -14.8 2
      vertex 18.05 -11.1856 2
    endloop
  endfacet
  facet normal 0 0 1
    outer loop
      vertex 16.45 -11.1856 2
      vertex 19.25 -14.8 2
      vertex 17.25 -11.4 2
    endloop
  endfacet
  facet normal 0 0 1
    outer loop
      vertex 15.8644 -10.6 2
      vertex 19.25 -14.8 2
      vertex 16.45 -11.1856 2
    endloop
  endfacet
  facet normal 0 0 1
    outer loop
      vertex 15.8644 -9 2
      vertex -15.65 -9.8 2
      vertex 15.65 -9.8 2
    endloop
  endfacet
  facet normal 0 0 1
    outer loop
      vertex 15.65 -9.8 2
      vertex -15.65 -9.8 2
      vertex 15.8644 -10.6 2
    endloop
  endfacet
  facet normal 0 0 1
    outer loop
      vertex -15.8644 -10.6 2
      vertex 15.8644 -10.6 2
      vertex -15.65 -9.8 2
    endloop
  endfacet
  facet normal 0 0 1
    outer loop
      vertex 15.8644 -10.6 2
      vertex -15.8644 -10.6 2
      vertex 19.25 -14.8 2
    endloop
  endfacet
  facet normal -0 0 1
    outer loop
      vertex -16.45 -11.1856 2
      vertex 19.25 -14.8 2
      vertex -15.8644 -10.6 2
    endloop
  endfacet
  facet normal 0 0 1
    outer loop
      vertex -19.25 -14.8 2
      vertex -16.45 -11.1856 2
      vertex -17.25 -11.4 2
    endloop
  endfacet
  facet normal 0 0 1
    outer loop
      vertex -16.45 -11.1856 2
      vertex -19.25 -14.8 2
      vertex 19.25 -14.8 2
    endloop
  endfacet
  facet normal 0 0 1
    outer loop
      vertex -18.05 -11.1856 2
      vertex -19.25 -14.8 2
      vertex -17.25 -11.4 2
    endloop
  endfacet
  facet normal 0 0 1
    outer loop
      vertex -21.3713 -13.9213 2
      vertex -18.05 -11.1856 2
      vertex -18.6356 -10.6 2
    endloop
  endfacet
  facet normal 0 0 1
    outer loop
      vertex -22.25 -11.8 2
      vertex -18.6356 -10.6 2
      vertex -18.85 -9.8 2
    endloop
  endfacet
  facet normal 0 0 1
    outer loop
      vertex -22.25 -11.8 2
      vertex -18.6356 -9 2
      vertex -22.25 11.8 2
    endloop
  endfacet
  facet normal 0 0 1
    outer loop
      vertex -18.05 11.1856 2
      vertex -21.3713 13.9213 2
      vertex -18.6356 10.6 2
    endloop
  endfacet
  facet normal 0 0 1
    outer loop
      vertex -18.6356 -9 2
      vertex -22.25 -11.8 2
      vertex -18.85 -9.8 2
    endloop
  endfacet
  facet normal -0 0 1
    outer loop
      vertex -21.8481 13.3 2
      vertex -18.6356 10.6 2
      vertex -21.3713 13.9213 2
    endloop
  endfacet
  facet normal 0 0 1
    outer loop
      vertex -18.6356 -10.6 2
      vertex -22.25 -11.8 2
      vertex -22.1478 -12.5764 2
    endloop
  endfacet
  facet normal -0 0 1
    outer loop
      vertex -22.1478 12.5764 2
      vertex -18.6356 10.6 2
      vertex -21.8481 13.3 2
    endloop
  endfacet
  facet normal 0 0 1
    outer loop
      vertex -18.05 -11.1856 2
      vertex -20.0265 -14.6978 2
      vertex -19.25 -14.8 2
    endloop
  endfacet
  facet normal -0 0 1
    outer loop
      vertex -22.25 11.8 2
      vertex -18.6356 10.6 2
      vertex -22.1478 12.5764 2
    endloop
  endfacet
  facet normal 0 0 1
    outer loop
      vertex -18.05 -11.1856 2
      vertex -20.75 -14.3981 2
      vertex -20.0265 -14.6978 2
    endloop
  endfacet
  facet normal 0 0 1
    outer loop
      vertex -18.6356 10.6 2
      vertex -22.25 11.8 2
      vertex -18.85 9.8 2
    endloop
  endfacet
  facet normal 0 0 1
    outer loop
      vertex -18.05 -11.1856 2
      vertex -21.3713 -13.9213 2
      vertex -20.75 -14.3981 2
    endloop
  endfacet
  facet normal 0 0 1
    outer loop
      vertex -18.6356 -10.6 2
      vertex -21.8481 -13.3 2
      vertex -21.3713 -13.9213 2
    endloop
  endfacet
  facet normal 0 0 1
    outer loop
      vertex -18.6356 -10.6 2
      vertex -22.1478 -12.5764 2
      vertex -21.8481 -13.3 2
    endloop
  endfacet
  facet normal 0.608809 -0.793316 0
    outer loop
      vertex 20.75 -14.3981 0
      vertex 21.3713 -13.9213 2
      vertex 20.75 -14.3981 2
    endloop
  endfacet
  facet normal 0.608809 -0.793316 0
    outer loop
      vertex 21.3713 -13.9213 2
      vertex 20.75 -14.3981 0
      vertex 21.3713 -13.9213 0
    endloop
  endfacet
  facet normal 0.130491 0.99145 -0
    outer loop
      vertex 20.0265 14.6978 0
      vertex 19.25 14.8 2
      vertex 20.0265 14.6978 2
    endloop
  endfacet
  facet normal 0.130491 0.99145 0
    outer loop
      vertex 19.25 14.8 2
      vertex 20.0265 14.6978 0
      vertex 19.25 14.8 0
    endloop
  endfacet
  facet normal 0 -1 0
    outer loop
      vertex -19.25 -14.8 0
      vertex 19.25 -14.8 2
      vertex -19.25 -14.8 2
    endloop
  endfacet
  facet normal 0 -1 -0
    outer loop
      vertex 19.25 -14.8 2
      vertex -19.25 -14.8 0
      vertex 19.25 -14.8 0
    endloop
  endfacet
  facet normal 0.382701 -0.923872 0
    outer loop
      vertex 20.0265 -14.6978 0
      vertex 20.75 -14.3981 2
      vertex 20.0265 -14.6978 2
    endloop
  endfacet
  facet normal 0.382701 -0.923872 0
    outer loop
      vertex 20.75 -14.3981 2
      vertex 20.0265 -14.6978 0
      vertex 20.75 -14.3981 0
    endloop
  endfacet
  facet normal -0.130491 -0.99145 0
    outer loop
      vertex -20.0265 -14.6978 0
      vertex -19.25 -14.8 2
      vertex -20.0265 -14.6978 2
    endloop
  endfacet
  facet normal -0.130491 -0.99145 -0
    outer loop
      vertex -19.25 -14.8 2
      vertex -20.0265 -14.6978 0
      vertex -19.25 -14.8 0
    endloop
  endfacet
  facet normal -0.991447 0.130507 0
    outer loop
      vertex -22.25 11.8 0
      vertex -22.1478 12.5764 2
      vertex -22.1478 12.5764 0
    endloop
  endfacet
  facet normal -0.991447 0.130507 0
    outer loop
      vertex -22.1478 12.5764 2
      vertex -22.25 11.8 0
      vertex -22.25 11.8 2
    endloop
  endfacet
  facet normal -0.923891 0.382656 0
    outer loop
      vertex -22.1478 12.5764 0
      vertex -21.8481 13.3 2
      vertex -21.8481 13.3 0
    endloop
  endfacet
  facet normal -0.923891 0.382656 0
    outer loop
      vertex -21.8481 13.3 2
      vertex -22.1478 12.5764 0
      vertex -22.1478 12.5764 2
    endloop
  endfacet
  facet normal -0.793316 -0.608809 0
    outer loop
      vertex -21.3713 -13.9213 0
      vertex -21.8481 -13.3 2
      vertex -21.8481 -13.3 0
    endloop
  endfacet
  facet normal -0.793316 -0.608809 0
    outer loop
      vertex -21.8481 -13.3 2
      vertex -21.3713 -13.9213 0
      vertex -21.3713 -13.9213 2
    endloop
  endfacet
  facet normal 0.130491 -0.99145 0
    outer loop
      vertex 19.25 -14.8 0
      vertex 20.0265 -14.6978 2
      vertex 19.25 -14.8 2
    endloop
  endfacet
  facet normal 0.130491 -0.99145 0
    outer loop
      vertex 20.0265 -14.6978 2
      vertex 19.25 -14.8 0
      vertex 20.0265 -14.6978 0
    endloop
  endfacet
  facet normal -0.130491 0.99145 0
    outer loop
      vertex -19.25 14.8 0
      vertex -20.0265 14.6978 2
      vertex -19.25 14.8 2
    endloop
  endfacet
  facet normal -0.130491 0.99145 0
    outer loop
      vertex -20.0265 14.6978 2
      vertex -19.25 14.8 0
      vertex -20.0265 14.6978 0
    endloop
  endfacet
  facet normal 0.991447 -0.130507 0
    outer loop
      vertex 22.1478 -12.5764 2
      vertex 22.25 -11.8 0
      vertex 22.25 -11.8 2
    endloop
  endfacet
  facet normal 0.991447 -0.130507 0
    outer loop
      vertex 22.25 -11.8 0
      vertex 22.1478 -12.5764 2
      vertex 22.1478 -12.5764 0
    endloop
  endfacet
  facet normal 0 0 -1
    outer loop
      vertex -17.25 -8.2 0
      vertex -14.75 -7.3 0
      vertex -16.45 -8.41436 0
    endloop
  endfacet
  facet normal 0 0 -1
    outer loop
      vertex -14.75 7.3 0
      vertex -15.8644 9 0
      vertex -15.65 9.8 0
    endloop
  endfacet
  facet normal -0 0 -1
    outer loop
      vertex -14.75 -7.3 0
      vertex -17.25 -8.2 0
      vertex -14.75 7.3 0
    endloop
  endfacet
  facet normal 0 0 -1
    outer loop
      vertex -14.75 7.3 0
      vertex -16.45 8.41436 0
      vertex -15.8644 9 0
    endloop
  endfacet
  facet normal 0 0 -1
    outer loop
      vertex -17.25 8.2 0
      vertex -14.75 7.3 0
      vertex -17.25 -8.2 0
    endloop
  endfacet
  facet normal 0 0 -1
    outer loop
      vertex -14.75 7.3 0
      vertex -17.25 8.2 0
      vertex -16.45 8.41436 0
    endloop
  endfacet
  facet normal 0 0 -1
    outer loop
      vertex -18.05 -8.41436 0
      vertex -17.25 8.2 0
      vertex -17.25 -8.2 0
    endloop
  endfacet
  facet normal 0 0 -1
    outer loop
      vertex -18.05 -8.41436 0
      vertex -18.05 8.41436 0
      vertex -17.25 8.2 0
    endloop
  endfacet
  facet normal 0 0 -1
    outer loop
      vertex -18.6356 -9 0
      vertex -18.05 8.41436 0
      vertex -18.05 -8.41436 0
    endloop
  endfacet
  facet normal 0 0 -1
    outer loop
      vertex -18.6356 -9 0
      vertex -18.6356 9 0
      vertex -18.05 8.41436 0
    endloop
  endfacet
  facet normal 0 0 -1
    outer loop
      vertex -22.25 -11.8 0
      vertex -18.6356 -9 0
      vertex -18.85 -9.8 0
    endloop
  endfacet
  facet normal -0 0 -1
    outer loop
      vertex -18.6356 -9 0
      vertex -22.25 -11.8 0
      vertex -18.6356 9 0
    endloop
  endfacet
  facet normal 0 0 -1
    outer loop
      vertex 22.25 -11.8 0
      vertex 18.25 -4 0
      vertex 22.25 11.8 0
    endloop
  endfacet
  facet normal 0 0 -1
    outer loop
      vertex 18.25 4 0
      vertex 22.25 11.8 0
      vertex 18.25 -4 0
    endloop
  endfacet
  facet normal 0 -0 -1
    outer loop
      vertex 18.6356 9 0
      vertex 22.25 11.8 0
      vertex 18.25 4 0
    endloop
  endfacet
  facet normal 0 0 -1
    outer loop
      vertex 18.05 -8.41436 0
      vertex 18.25 -4 0
      vertex 18.6356 -9 0
    endloop
  endfacet
  facet normal 0 0 -1
    outer loop
      vertex 17.25 -8.2 0
      vertex 18.25 -4 0
      vertex 18.05 -8.41436 0
    endloop
  endfacet
  facet normal 0 0 -1
    outer loop
      vertex 14.75 -7.3 0
      vertex 17.25 -8.2 0
      vertex 16.45 -8.41436 0
    endloop
  endfacet
  facet normal 0 0 -1
    outer loop
      vertex 14.75 -7.3 0
      vertex 16.45 -8.41436 0
      vertex 15.8644 -9 0
    endloop
  endfacet
  facet normal 0 0 -1
    outer loop
      vertex 14.75 -7.3 0
      vertex 15.8644 -9 0
      vertex 15.65 -9.8 0
    endloop
  endfacet
  facet normal 0 0 -1
    outer loop
      vertex 17.25 -8.2 0
      vertex 14.75 -7.3 0
      vertex 18.25 -4 0
    endloop
  endfacet
  facet normal -0 0 -1
    outer loop
      vertex 18.25 -4 0
      vertex 14.75 -7.3 0
      vertex 14.75 -4 0
    endloop
  endfacet
  facet normal 0 0 -1
    outer loop
      vertex 18.6356 -10.6 0
      vertex 22.25 -11.8 0
      vertex 22.1478 -12.5764 0
    endloop
  endfacet
  facet normal 0 0 -1
    outer loop
      vertex 18.6356 -9 0
      vertex 22.25 -11.8 0
      vertex 18.85 -9.8 0
    endloop
  endfacet
  facet normal 0 0 -1
    outer loop
      vertex 18.6356 -10.6 0
      vertex 22.1478 -12.5764 0
      vertex 21.8481 -13.3 0
    endloop
  endfacet
  facet normal 0 0 -1
    outer loop
      vertex 18.25 -4 0
      vertex 22.25 -11.8 0
      vertex 18.6356 -9 0
    endloop
  endfacet
  facet normal 0 0 -1
    outer loop
      vertex 18.6356 -10.6 0
      vertex 21.8481 -13.3 0
      vertex 21.3713 -13.9213 0
    endloop
  endfacet
  facet normal 0 0 -1
    outer loop
      vertex 18.6356 10.6 0
      vertex 22.25 11.8 0
      vertex 18.85 9.8 0
    endloop
  endfacet
  facet normal 0 0 -1
    outer loop
      vertex 18.05 -11.1856 0
      vertex 21.3713 -13.9213 0
      vertex 20.75 -14.3981 0
    endloop
  endfacet
  facet normal -0 0 -1
    outer loop
      vertex 22.25 11.8 0
      vertex 18.6356 10.6 0
      vertex 22.1478 12.5764 0
    endloop
  endfacet
  facet normal 0 0 -1
    outer loop
      vertex 18.05 -11.1856 0
      vertex 20.75 -14.3981 0
      vertex 20.0265 -14.6978 0
    endloop
  endfacet
  facet normal -0 0 -1
    outer loop
      vertex 22.1478 12.5764 0
      vertex 18.6356 10.6 0
      vertex 21.8481 13.3 0
    endloop
  endfacet
  facet normal 0 0 -1
    outer loop
      vertex 18.05 -11.1856 0
      vertex 20.0265 -14.6978 0
      vertex 19.25 -14.8 0
    endloop
  endfacet
  facet normal -0 0 -1
    outer loop
      vertex 21.8481 13.3 0
      vertex 18.6356 10.6 0
      vertex 21.3713 13.9213 0
    endloop
  endfacet
  facet normal 0 0 -1
    outer loop
      vertex 18.05 11.1856 0
      vertex 21.3713 13.9213 0
      vertex 18.6356 10.6 0
    endloop
  endfacet
  facet normal 0 0 -1
    outer loop
      vertex 22.25 -11.8 0
      vertex 18.6356 -10.6 0
      vertex 18.85 -9.8 0
    endloop
  endfacet
  facet normal 0 0 -1
    outer loop
      vertex 21.3713 -13.9213 0
      vertex 18.05 -11.1856 0
      vertex 18.6356 -10.6 0
    endloop
  endfacet
  facet normal 0 0 -1
    outer loop
      vertex 19.25 -14.8 0
      vertex 17.25 -11.4 0
      vertex 18.05 -11.1856 0
    endloop
  endfacet
  facet normal 0 0 -1
    outer loop
      vertex 19.25 -14.8 0
      vertex 16.45 -11.1856 0
      vertex 17.25 -11.4 0
    endloop
  endfacet
  facet normal 0 0 -1
    outer loop
      vertex 19.25 -14.8 0
      vertex 15.8644 -10.6 0
      vertex 16.45 -11.1856 0
    endloop
  endfacet
  facet normal 0 0 -1
    outer loop
      vertex -15.65 -9.8 0
      vertex 15.65 -9.8 0
      vertex 15.8644 -10.6 0
    endloop
  endfacet
  facet normal 0 0 -1
    outer loop
      vertex 15.65 -9.8 0
      vertex -14.75 -7.3 0
      vertex 14.75 -7.3 0
    endloop
  endfacet
  facet normal 0 0 -1
    outer loop
      vertex -15.8644 -10.6 0
      vertex 15.8644 -10.6 0
      vertex 19.25 -14.8 0
    endloop
  endfacet
  facet normal 0 0 -1
    outer loop
      vertex -15.8644 -9 0
      vertex -14.75 -7.3 0
      vertex -15.65 -9.8 0
    endloop
  endfacet
  facet normal 0 0 -1
    outer loop
      vertex 15.65 -9.8 0
      vertex -15.65 -9.8 0
      vertex -14.75 -7.3 0
    endloop
  endfacet
  facet normal 0 0 -1
    outer loop
      vertex 15.8644 -10.6 0
      vertex -15.8644 -10.6 0
      vertex -15.65 -9.8 0
    endloop
  endfacet
  facet normal 0 0 -1
    outer loop
      vertex 19.25 -14.8 0
      vertex -16.45 -11.1856 0
      vertex -15.8644 -10.6 0
    endloop
  endfacet
  facet normal 0 0 -1
    outer loop
      vertex -19.25 -14.8 0
      vertex -16.45 -11.1856 0
      vertex 19.25 -14.8 0
    endloop
  endfacet
  facet normal 0 0 -1
    outer loop
      vertex -21.3713 -13.9213 0
      vertex -18.05 -11.1856 0
      vertex -20.75 -14.3981 0
    endloop
  endfacet
  facet normal 0 0 -1
    outer loop
      vertex -20.75 -14.3981 0
      vertex -18.05 -11.1856 0
      vertex -20.0265 -14.6978 0
    endloop
  endfacet
  facet normal 0 0 -1
    outer loop
      vertex -20.0265 -14.6978 0
      vertex -18.05 -11.1856 0
      vertex -19.25 -14.8 0
    endloop
  endfacet
  facet normal -0 0 -1
    outer loop
      vertex -17.25 -11.4 0
      vertex -19.25 -14.8 0
      vertex -18.05 -11.1856 0
    endloop
  endfacet
  facet normal 0 0 -1
    outer loop
      vertex -16.45 -11.1856 0
      vertex -19.25 -14.8 0
      vertex -17.25 -11.4 0
    endloop
  endfacet
  facet normal -0 0 -1
    outer loop
      vertex 21.3713 13.9213 0
      vertex 18.05 11.1856 0
      vertex 20.75 14.3981 0
    endloop
  endfacet
  facet normal -0 0 -1
    outer loop
      vertex 20.75 14.3981 0
      vertex 18.05 11.1856 0
      vertex 20.0265 14.6978 0
    endloop
  endfacet
  facet normal -0 0 -1
    outer loop
      vertex 20.0265 14.6978 0
      vertex 18.05 11.1856 0
      vertex 19.25 14.8 0
    endloop
  endfacet
  facet normal 0 0 -1
    outer loop
      vertex 17.25 11.4 0
      vertex 19.25 14.8 0
      vertex 18.05 11.1856 0
    endloop
  endfacet
  facet normal 0 0 -1
    outer loop
      vertex 16.45 11.1856 0
      vertex 19.25 14.8 0
      vertex 17.25 11.4 0
    endloop
  endfacet
  facet normal 0 0 -1
    outer loop
      vertex 15.8644 10.6 0
      vertex 19.25 14.8 0
      vertex 16.45 11.1856 0
    endloop
  endfacet
  facet normal -0 0 -1
    outer loop
      vertex 15.8644 9 0
      vertex 14.75 7.3 0
      vertex 15.65 9.8 0
    endloop
  endfacet
  facet normal 0 0 -1
    outer loop
      vertex -14.75 7.3 0
      vertex 15.65 9.8 0
      vertex 14.75 7.3 0
    endloop
  endfacet
  facet normal 0 0 -1
    outer loop
      vertex -15.65 9.8 0
      vertex 15.65 9.8 0
      vertex -14.75 7.3 0
    endloop
  endfacet
  facet normal 0 0 -1
    outer loop
      vertex 15.65 9.8 0
      vertex -15.65 9.8 0
      vertex 15.8644 10.6 0
    endloop
  endfacet
  facet normal 0 0 -1
    outer loop
      vertex -16.45 -8.41436 0
      vertex -14.75 -7.3 0
      vertex -15.8644 -9 0
    endloop
  endfacet
  facet normal 0 0 -1
    outer loop
      vertex -15.8644 10.6 0
      vertex 15.8644 10.6 0
      vertex -15.65 9.8 0
    endloop
  endfacet
  facet normal 0 0 -1
    outer loop
      vertex 15.8644 10.6 0
      vertex -15.8644 10.6 0
      vertex 19.25 14.8 0
    endloop
  endfacet
  facet normal 0 0 -1
    outer loop
      vertex -16.45 11.1856 0
      vertex 19.25 14.8 0
      vertex -15.8644 10.6 0
    endloop
  endfacet
  facet normal 0 0 -1
    outer loop
      vertex -19.25 14.8 0
      vertex -16.45 11.1856 0
      vertex -17.25 11.4 0
    endloop
  endfacet
  facet normal 0 0 -1
    outer loop
      vertex -16.45 11.1856 0
      vertex -19.25 14.8 0
      vertex 19.25 14.8 0
    endloop
  endfacet
  facet normal 0 0 -1
    outer loop
      vertex -18.05 11.1856 0
      vertex -19.25 14.8 0
      vertex -17.25 11.4 0
    endloop
  endfacet
  facet normal 0 0 -1
    outer loop
      vertex -21.3713 13.9213 0
      vertex -18.05 11.1856 0
      vertex -18.6356 10.6 0
    endloop
  endfacet
  facet normal 0 0 -1
    outer loop
      vertex -22.25 11.8 0
      vertex -18.6356 10.6 0
      vertex -18.85 9.8 0
    endloop
  endfacet
  facet normal 0 0 -1
    outer loop
      vertex -22.25 11.8 0
      vertex -18.6356 9 0
      vertex -22.25 -11.8 0
    endloop
  endfacet
  facet normal -0 0 -1
    outer loop
      vertex -18.05 -11.1856 0
      vertex -21.3713 -13.9213 0
      vertex -18.6356 -10.6 0
    endloop
  endfacet
  facet normal 0 0 -1
    outer loop
      vertex -18.6356 9 0
      vertex -22.25 11.8 0
      vertex -18.85 9.8 0
    endloop
  endfacet
  facet normal 0 0 -1
    outer loop
      vertex -21.8481 -13.3 0
      vertex -18.6356 -10.6 0
      vertex -21.3713 -13.9213 0
    endloop
  endfacet
  facet normal 0 0 -1
    outer loop
      vertex -18.6356 10.6 0
      vertex -22.25 11.8 0
      vertex -22.1478 12.5764 0
    endloop
  endfacet
  facet normal 0 0 -1
    outer loop
      vertex -22.1478 -12.5764 0
      vertex -18.6356 -10.6 0
      vertex -21.8481 -13.3 0
    endloop
  endfacet
  facet normal 0 0 -1
    outer loop
      vertex -18.05 11.1856 0
      vertex -20.0265 14.6978 0
      vertex -19.25 14.8 0
    endloop
  endfacet
  facet normal 0 0 -1
    outer loop
      vertex -22.25 -11.8 0
      vertex -18.6356 -10.6 0
      vertex -22.1478 -12.5764 0
    endloop
  endfacet
  facet normal 0 0 -1
    outer loop
      vertex -18.05 11.1856 0
      vertex -20.75 14.3981 0
      vertex -20.0265 14.6978 0
    endloop
  endfacet
  facet normal -0 0 -1
    outer loop
      vertex -18.6356 -10.6 0
      vertex -22.25 -11.8 0
      vertex -18.85 -9.8 0
    endloop
  endfacet
  facet normal 0 0 -1
    outer loop
      vertex -18.05 11.1856 0
      vertex -21.3713 13.9213 0
      vertex -20.75 14.3981 0
    endloop
  endfacet
  facet normal 0 0 -1
    outer loop
      vertex -18.6356 10.6 0
      vertex -21.8481 13.3 0
      vertex -21.3713 13.9213 0
    endloop
  endfacet
  facet normal 0 0 -1
    outer loop
      vertex -18.6356 10.6 0
      vertex -22.1478 12.5764 0
      vertex -21.8481 13.3 0
    endloop
  endfacet
  facet normal 0 0 -1
    outer loop
      vertex 22.25 11.8 0
      vertex 18.6356 9 0
      vertex 18.85 9.8 0
    endloop
  endfacet
  facet normal 0 0 -1
    outer loop
      vertex 18.25 4 0
      vertex 18.05 8.41436 0
      vertex 18.6356 9 0
    endloop
  endfacet
  facet normal 0 0 -1
    outer loop
      vertex 18.25 4 0
      vertex 17.25 8.2 0
      vertex 18.05 8.41436 0
    endloop
  endfacet
  facet normal 0 0 -1
    outer loop
      vertex 14.75 7.3 0
      vertex 18.25 4 0
      vertex 14.75 4 0
    endloop
  endfacet
  facet normal 0 0 -1
    outer loop
      vertex 18.25 4 0
      vertex 14.75 7.3 0
      vertex 17.25 8.2 0
    endloop
  endfacet
  facet normal -0 0 -1
    outer loop
      vertex 16.45 8.41436 0
      vertex 14.75 7.3 0
      vertex 15.8644 9 0
    endloop
  endfacet
  facet normal -0 0 -1
    outer loop
      vertex 17.25 8.2 0
      vertex 14.75 7.3 0
      vertex 16.45 8.41436 0
    endloop
  endfacet
  facet normal 0 0 -1
    outer loop
      vertex 14.75 -4 0
      vertex 18.25 4 0
      vertex 18.25 -4 0
    endloop
  endfacet
  facet normal -0 0 -1
    outer loop
      vertex 18.25 4 0
      vertex 14.75 -4 0
      vertex 14.75 4 0
    endloop
  endfacet
  facet normal -0.923891 -0.382656 0
    outer loop
      vertex -21.8481 -13.3 0
      vertex -22.1478 -12.5764 2
      vertex -22.1478 -12.5764 0
    endloop
  endfacet
  facet normal -0.923891 -0.382656 0
    outer loop
      vertex -22.1478 -12.5764 2
      vertex -21.8481 -13.3 0
      vertex -21.8481 -13.3 2
    endloop
  endfacet
  facet normal -0.793316 0.608809 0
    outer loop
      vertex -21.8481 13.3 0
      vertex -21.3713 13.9213 2
      vertex -21.3713 13.9213 0
    endloop
  endfacet
  facet normal -0.793316 0.608809 0
    outer loop
      vertex -21.3713 13.9213 2
      vertex -21.8481 13.3 0
      vertex -21.8481 13.3 2
    endloop
  endfacet
  facet normal 0.923891 -0.382656 0
    outer loop
      vertex 21.8481 -13.3 2
      vertex 22.1478 -12.5764 0
      vertex 22.1478 -12.5764 2
    endloop
  endfacet
  facet normal 0.923891 -0.382656 0
    outer loop
      vertex 22.1478 -12.5764 0
      vertex 21.8481 -13.3 2
      vertex 21.8481 -13.3 0
    endloop
  endfacet
  facet normal -0.991447 -0.130507 0
    outer loop
      vertex -22.1478 -12.5764 0
      vertex -22.25 -11.8 2
      vertex -22.25 -11.8 0
    endloop
  endfacet
  facet normal -0.991447 -0.130507 0
    outer loop
      vertex -22.25 -11.8 2
      vertex -22.1478 -12.5764 0
      vertex -22.1478 -12.5764 2
    endloop
  endfacet
  facet normal -0.382701 -0.923872 0
    outer loop
      vertex -20.75 -14.3981 0
      vertex -20.0265 -14.6978 2
      vertex -20.75 -14.3981 2
    endloop
  endfacet
  facet normal -0.382701 -0.923872 -0
    outer loop
      vertex -20.0265 -14.6978 2
      vertex -20.75 -14.3981 0
      vertex -20.0265 -14.6978 0
    endloop
  endfacet
  facet normal -0.608809 0.793316 0
    outer loop
      vertex -20.75 14.3981 0
      vertex -21.3713 13.9213 2
      vertex -20.75 14.3981 2
    endloop
  endfacet
  facet normal -0.608809 0.793316 0
    outer loop
      vertex -21.3713 13.9213 2
      vertex -20.75 14.3981 0
      vertex -21.3713 13.9213 0
    endloop
  endfacet
  facet normal -1 0 0
    outer loop
      vertex -22.25 -11.8 0
      vertex -22.25 11.8 2
      vertex -22.25 11.8 0
    endloop
  endfacet
  facet normal -1 -0 0
    outer loop
      vertex -22.25 11.8 2
      vertex -22.25 -11.8 0
      vertex -22.25 -11.8 2
    endloop
  endfacet
  facet normal 0.991447 0.130507 0
    outer loop
      vertex 22.25 11.8 2
      vertex 22.1478 12.5764 0
      vertex 22.1478 12.5764 2
    endloop
  endfacet
  facet normal 0.991447 0.130507 0
    outer loop
      vertex 22.1478 12.5764 0
      vertex 22.25 11.8 2
      vertex 22.25 11.8 0
    endloop
  endfacet
  facet normal 0 1 -0
    outer loop
      vertex 19.25 14.8 0
      vertex -19.25 14.8 2
      vertex 19.25 14.8 2
    endloop
  endfacet
  facet normal 0 1 0
    outer loop
      vertex -19.25 14.8 2
      vertex 19.25 14.8 0
      vertex -19.25 14.8 0
    endloop
  endfacet
  facet normal 0.793316 0.608809 0
    outer loop
      vertex 21.8481 13.3 2
      vertex 21.3713 13.9213 0
      vertex 21.3713 13.9213 2
    endloop
  endfacet
  facet normal 0.793316 0.608809 0
    outer loop
      vertex 21.3713 13.9213 0
      vertex 21.8481 13.3 2
      vertex 21.8481 13.3 0
    endloop
  endfacet
  facet normal 0.923891 0.382656 0
    outer loop
      vertex 22.1478 12.5764 2
      vertex 21.8481 13.3 0
      vertex 21.8481 13.3 2
    endloop
  endfacet
  facet normal 0.923891 0.382656 0
    outer loop
      vertex 21.8481 13.3 0
      vertex 22.1478 12.5764 2
      vertex 22.1478 12.5764 0
    endloop
  endfacet
  facet normal -0.382701 0.923872 0
    outer loop
      vertex -20.0265 14.6978 0
      vertex -20.75 14.3981 2
      vertex -20.0265 14.6978 2
    endloop
  endfacet
  facet normal -0.382701 0.923872 0
    outer loop
      vertex -20.75 14.3981 2
      vertex -20.0265 14.6978 0
      vertex -20.75 14.3981 0
    endloop
  endfacet
  facet normal 1 -0 0
    outer loop
      vertex 22.25 -11.8 2
      vertex 22.25 11.8 0
      vertex 22.25 11.8 2
    endloop
  endfacet
  facet normal 1 0 0
    outer loop
      vertex 22.25 11.8 0
      vertex 22.25 -11.8 2
      vertex 22.25 -11.8 0
    endloop
  endfacet
  facet normal 0.608809 0.793316 -0
    outer loop
      vertex 21.3713 13.9213 0
      vertex 20.75 14.3981 2
      vertex 21.3713 13.9213 2
    endloop
  endfacet
  facet normal 0.608809 0.793316 0
    outer loop
      vertex 20.75 14.3981 2
      vertex 21.3713 13.9213 0
      vertex 20.75 14.3981 0
    endloop
  endfacet
  facet normal 0.382701 0.923872 -0
    outer loop
      vertex 20.75 14.3981 0
      vertex 20.0265 14.6978 2
      vertex 20.75 14.3981 2
    endloop
  endfacet
  facet normal 0.382701 0.923872 0
    outer loop
      vertex 20.0265 14.6978 2
      vertex 20.75 14.3981 0
      vertex 20.0265 14.6978 0
    endloop
  endfacet
  facet normal -0.608809 -0.793316 0
    outer loop
      vertex -21.3713 -13.9213 0
      vertex -20.75 -14.3981 2
      vertex -21.3713 -13.9213 2
    endloop
  endfacet
  facet normal -0.608809 -0.793316 -0
    outer loop
      vertex -20.75 -14.3981 2
      vertex -21.3713 -13.9213 0
      vertex -20.75 -14.3981 0
    endloop
  endfacet
  facet normal 0.793316 -0.608809 0
    outer loop
      vertex 21.3713 -13.9213 2
      vertex 21.8481 -13.3 0
      vertex 21.8481 -13.3 2
    endloop
  endfacet
  facet normal 0.793316 -0.608809 0
    outer loop
      vertex 21.8481 -13.3 0
      vertex 21.3713 -13.9213 2
      vertex 21.3713 -13.9213 0
    endloop
  endfacet
  facet normal -0.707131 -0.707083 0
    outer loop
      vertex -16.45 -8.41436 0
      vertex -15.8644 -9 2
      vertex -16.45 -8.41436 2
    endloop
  endfacet
  facet normal -0.707131 -0.707083 -0
    outer loop
      vertex -15.8644 -9 2
      vertex -16.45 -8.41436 0
      vertex -15.8644 -9 0
    endloop
  endfacet
  facet normal -0.965914 -0.258865 0
    outer loop
      vertex -15.65 -9.8 0
      vertex -15.8644 -9 2
      vertex -15.8644 -9 0
    endloop
  endfacet
  facet normal -0.965914 -0.258865 0
    outer loop
      vertex -15.8644 -9 2
      vertex -15.65 -9.8 0
      vertex -15.65 -9.8 2
    endloop
  endfacet
  facet normal 0.707107 0.707107 0
    outer loop
      vertex -18.05 -11.1856 2
      vertex -18.6356 -10.6 0
      vertex -18.6356 -10.6 2
    endloop
  endfacet
  facet normal 0.707107 0.707107 0
    outer loop
      vertex -18.6356 -10.6 0
      vertex -18.05 -11.1856 2
      vertex -18.05 -11.1856 0
    endloop
  endfacet
  facet normal 0.965914 0.258865 0
    outer loop
      vertex -18.6356 -10.6 2
      vertex -18.85 -9.8 0
      vertex -18.85 -9.8 2
    endloop
  endfacet
  facet normal 0.965914 0.258865 0
    outer loop
      vertex -18.85 -9.8 0
      vertex -18.6356 -10.6 2
      vertex -18.6356 -10.6 0
    endloop
  endfacet
  facet normal -0.258865 0.965914 0
    outer loop
      vertex -16.45 -11.1856 0
      vertex -17.25 -11.4 2
      vertex -16.45 -11.1856 2
    endloop
  endfacet
  facet normal -0.258865 0.965914 0
    outer loop
      vertex -17.25 -11.4 2
      vertex -16.45 -11.1856 0
      vertex -17.25 -11.4 0
    endloop
  endfacet
  facet normal -0.707107 0.707107 0
    outer loop
      vertex -15.8644 -10.6 0
      vertex -16.45 -11.1856 2
      vertex -15.8644 -10.6 2
    endloop
  endfacet
  facet normal -0.707107 0.707107 0
    outer loop
      vertex -16.45 -11.1856 2
      vertex -15.8644 -10.6 0
      vertex -16.45 -11.1856 0
    endloop
  endfacet
  facet normal -0.965914 0.258865 0
    outer loop
      vertex -15.8644 -10.6 0
      vertex -15.65 -9.8 2
      vertex -15.65 -9.8 0
    endloop
  endfacet
  facet normal -0.965914 0.258865 0
    outer loop
      vertex -15.65 -9.8 2
      vertex -15.8644 -10.6 0
      vertex -15.8644 -10.6 2
    endloop
  endfacet
  facet normal 0.707131 -0.707083 0
    outer loop
      vertex -18.6356 -9 2
      vertex -18.05 -8.41436 0
      vertex -18.05 -8.41436 2
    endloop
  endfacet
  facet normal 0.707131 -0.707083 0
    outer loop
      vertex -18.05 -8.41436 0
      vertex -18.6356 -9 2
      vertex -18.6356 -9 0
    endloop
  endfacet
  facet normal 0.258865 0.965914 -0
    outer loop
      vertex -17.25 -11.4 0
      vertex -18.05 -11.1856 2
      vertex -17.25 -11.4 2
    endloop
  endfacet
  facet normal 0.258865 0.965914 0
    outer loop
      vertex -18.05 -11.1856 2
      vertex -17.25 -11.4 0
      vertex -18.05 -11.1856 0
    endloop
  endfacet
  facet normal 0.25882 -0.965926 0
    outer loop
      vertex -18.05 -8.41436 0
      vertex -17.25 -8.2 2
      vertex -18.05 -8.41436 2
    endloop
  endfacet
  facet normal 0.25882 -0.965926 0
    outer loop
      vertex -17.25 -8.2 2
      vertex -18.05 -8.41436 0
      vertex -17.25 -8.2 0
    endloop
  endfacet
  facet normal 0.965914 -0.258865 0
    outer loop
      vertex -18.85 -9.8 2
      vertex -18.6356 -9 0
      vertex -18.6356 -9 2
    endloop
  endfacet
  facet normal 0.965914 -0.258865 0
    outer loop
      vertex -18.6356 -9 0
      vertex -18.85 -9.8 2
      vertex -18.85 -9.8 0
    endloop
  endfacet
  facet normal -0.25882 -0.965926 0
    outer loop
      vertex -17.25 -8.2 0
      vertex -16.45 -8.41436 2
      vertex -17.25 -8.2 2
    endloop
  endfacet
  facet normal -0.25882 -0.965926 -0
    outer loop
      vertex -16.45 -8.41436 2
      vertex -17.25 -8.2 0
      vertex -16.45 -8.41436 0
    endloop
  endfacet
  facet normal -0.707107 -0.707107 0
    outer loop
      vertex -16.45 11.1856 0
      vertex -15.8644 10.6 2
      vertex -16.45 11.1856 2
    endloop
  endfacet
  facet normal -0.707107 -0.707107 -0
    outer loop
      vertex -15.8644 10.6 2
      vertex -16.45 11.1856 0
      vertex -15.8644 10.6 0
    endloop
  endfacet
  facet normal -0.965914 -0.258865 0
    outer loop
      vertex -15.65 9.8 0
      vertex -15.8644 10.6 2
      vertex -15.8644 10.6 0
    endloop
  endfacet
  facet normal -0.965914 -0.258865 0
    outer loop
      vertex -15.8644 10.6 2
      vertex -15.65 9.8 0
      vertex -15.65 9.8 2
    endloop
  endfacet
  facet normal -0.258865 -0.965914 0
    outer loop
      vertex -17.25 11.4 0
      vertex -16.45 11.1856 2
      vertex -17.25 11.4 2
    endloop
  endfacet
  facet normal -0.258865 -0.965914 -0
    outer loop
      vertex -16.45 11.1856 2
      vertex -17.25 11.4 0
      vertex -16.45 11.1856 0
    endloop
  endfacet
  facet normal 0.25882 0.965926 -0
    outer loop
      vertex -17.25 8.2 0
      vertex -18.05 8.41436 2
      vertex -17.25 8.2 2
    endloop
  endfacet
  facet normal 0.25882 0.965926 0
    outer loop
      vertex -18.05 8.41436 2
      vertex -17.25 8.2 0
      vertex -18.05 8.41436 0
    endloop
  endfacet
  facet normal 0.707107 -0.707107 0
    outer loop
      vertex -18.6356 10.6 2
      vertex -18.05 11.1856 0
      vertex -18.05 11.1856 2
    endloop
  endfacet
  facet normal 0.707107 -0.707107 0
    outer loop
      vertex -18.05 11.1856 0
      vertex -18.6356 10.6 2
      vertex -18.6356 10.6 0
    endloop
  endfacet
  facet normal -0.25882 0.965926 0
    outer loop
      vertex -16.45 8.41436 0
      vertex -17.25 8.2 2
      vertex -16.45 8.41436 2
    endloop
  endfacet
  facet normal -0.25882 0.965926 0
    outer loop
      vertex -17.25 8.2 2
      vertex -16.45 8.41436 0
      vertex -17.25 8.2 0
    endloop
  endfacet
  facet normal 0.965914 0.258865 0
    outer loop
      vertex -18.6356 9 2
      vertex -18.85 9.8 0
      vertex -18.85 9.8 2
    endloop
  endfacet
  facet normal 0.965914 0.258865 0
    outer loop
      vertex -18.85 9.8 0
      vertex -18.6356 9 2
      vertex -18.6356 9 0
    endloop
  endfacet
  facet normal 0.258865 -0.965914 0
    outer loop
      vertex -18.05 11.1856 0
      vertex -17.25 11.4 2
      vertex -18.05 11.1856 2
    endloop
  endfacet
  facet normal 0.258865 -0.965914 0
    outer loop
      vertex -17.25 11.4 2
      vertex -18.05 11.1856 0
      vertex -17.25 11.4 0
    endloop
  endfacet
  facet normal 0.965914 -0.258865 0
    outer loop
      vertex -18.85 9.8 2
      vertex -18.6356 10.6 0
      vertex -18.6356 10.6 2
    endloop
  endfacet
  facet normal 0.965914 -0.258865 0
    outer loop
      vertex -18.6356 10.6 0
      vertex -18.85 9.8 2
      vertex -18.85 9.8 0
    endloop
  endfacet
  facet normal -0.707131 0.707083 0
    outer loop
      vertex -15.8644 9 0
      vertex -16.45 8.41436 2
      vertex -15.8644 9 2
    endloop
  endfacet
  facet normal -0.707131 0.707083 0
    outer loop
      vertex -16.45 8.41436 2
      vertex -15.8644 9 0
      vertex -16.45 8.41436 0
    endloop
  endfacet
  facet normal -0.965914 0.258865 0
    outer loop
      vertex -15.8644 9 0
      vertex -15.65 9.8 2
      vertex -15.65 9.8 0
    endloop
  endfacet
  facet normal -0.965914 0.258865 0
    outer loop
      vertex -15.65 9.8 2
      vertex -15.8644 9 0
      vertex -15.8644 9 2
    endloop
  endfacet
  facet normal 0.707131 0.707083 0
    outer loop
      vertex -18.05 8.41436 2
      vertex -18.6356 9 0
      vertex -18.6356 9 2
    endloop
  endfacet
  facet normal 0.707131 0.707083 0
    outer loop
      vertex -18.6356 9 0
      vertex -18.05 8.41436 2
      vertex -18.05 8.41436 0
    endloop
  endfacet
  facet normal -0.707131 -0.707083 0
    outer loop
      vertex 18.6356 -9 0
      vertex 18.05 -8.41436 2
      vertex 18.05 -8.41436 0
    endloop
  endfacet
  facet normal -0.707131 -0.707083 0
    outer loop
      vertex 18.05 -8.41436 2
      vertex 18.6356 -9 0
      vertex 18.6356 -9 2
    endloop
  endfacet
  facet normal -0.965914 -0.258865 0
    outer loop
      vertex 18.85 -9.8 0
      vertex 18.6356 -9 2
      vertex 18.6356 -9 0
    endloop
  endfacet
  facet normal -0.965914 -0.258865 0
    outer loop
      vertex 18.6356 -9 2
      vertex 18.85 -9.8 0
      vertex 18.85 -9.8 2
    endloop
  endfacet
  facet normal -0.25882 -0.965926 0
    outer loop
      vertex 17.25 -8.2 0
      vertex 18.05 -8.41436 2
      vertex 17.25 -8.2 2
    endloop
  endfacet
  facet normal -0.25882 -0.965926 -0
    outer loop
      vertex 18.05 -8.41436 2
      vertex 17.25 -8.2 0
      vertex 18.05 -8.41436 0
    endloop
  endfacet
  facet normal 0.25882 -0.965926 0
    outer loop
      vertex 16.45 -8.41436 0
      vertex 17.25 -8.2 2
      vertex 16.45 -8.41436 2
    endloop
  endfacet
  facet normal 0.25882 -0.965926 0
    outer loop
      vertex 17.25 -8.2 2
      vertex 16.45 -8.41436 0
      vertex 17.25 -8.2 0
    endloop
  endfacet
  facet normal 0.707131 -0.707083 0
    outer loop
      vertex 15.8644 -9 0
      vertex 16.45 -8.41436 2
      vertex 15.8644 -9 2
    endloop
  endfacet
  facet normal 0.707131 -0.707083 0
    outer loop
      vertex 16.45 -8.41436 2
      vertex 15.8644 -9 0
      vertex 16.45 -8.41436 0
    endloop
  endfacet
  facet normal 0.965914 0.258865 0
    outer loop
      vertex 15.8644 -10.6 2
      vertex 15.65 -9.8 0
      vertex 15.65 -9.8 2
    endloop
  endfacet
  facet normal 0.965914 0.258865 0
    outer loop
      vertex 15.65 -9.8 0
      vertex 15.8644 -10.6 2
      vertex 15.8644 -10.6 0
    endloop
  endfacet
  facet normal 0.707107 0.707107 -0
    outer loop
      vertex 16.45 -11.1856 0
      vertex 15.8644 -10.6 2
      vertex 16.45 -11.1856 2
    endloop
  endfacet
  facet normal 0.707107 0.707107 0
    outer loop
      vertex 15.8644 -10.6 2
      vertex 16.45 -11.1856 0
      vertex 15.8644 -10.6 0
    endloop
  endfacet
  facet normal -0.258865 0.965914 0
    outer loop
      vertex 18.05 -11.1856 0
      vertex 17.25 -11.4 2
      vertex 18.05 -11.1856 2
    endloop
  endfacet
  facet normal -0.258865 0.965914 0
    outer loop
      vertex 17.25 -11.4 2
      vertex 18.05 -11.1856 0
      vertex 17.25 -11.4 0
    endloop
  endfacet
  facet normal -0.965914 0.258865 0
    outer loop
      vertex 18.6356 -10.6 0
      vertex 18.85 -9.8 2
      vertex 18.85 -9.8 0
    endloop
  endfacet
  facet normal -0.965914 0.258865 0
    outer loop
      vertex 18.85 -9.8 2
      vertex 18.6356 -10.6 0
      vertex 18.6356 -10.6 2
    endloop
  endfacet
  facet normal -0.707107 0.707107 0
    outer loop
      vertex 18.05 -11.1856 0
      vertex 18.6356 -10.6 2
      vertex 18.6356 -10.6 0
    endloop
  endfacet
  facet normal -0.707107 0.707107 0
    outer loop
      vertex 18.6356 -10.6 2
      vertex 18.05 -11.1856 0
      vertex 18.05 -11.1856 2
    endloop
  endfacet
  facet normal 0.258865 0.965914 -0
    outer loop
      vertex 17.25 -11.4 0
      vertex 16.45 -11.1856 2
      vertex 17.25 -11.4 2
    endloop
  endfacet
  facet normal 0.258865 0.965914 0
    outer loop
      vertex 16.45 -11.1856 2
      vertex 17.25 -11.4 0
      vertex 16.45 -11.1856 0
    endloop
  endfacet
  facet normal 0.965914 -0.258865 0
    outer loop
      vertex 15.65 -9.8 2
      vertex 15.8644 -9 0
      vertex 15.8644 -9 2
    endloop
  endfacet
  facet normal 0.965914 -0.258865 0
    outer loop
      vertex 15.8644 -9 0
      vertex 15.65 -9.8 2
      vertex 15.65 -9.8 0
    endloop
  endfacet
  facet normal 0.25882 0.965926 -0
    outer loop
      vertex 17.25 8.2 0
      vertex 16.45 8.41436 2
      vertex 17.25 8.2 2
    endloop
  endfacet
  facet normal 0.25882 0.965926 0
    outer loop
      vertex 16.45 8.41436 2
      vertex 17.25 8.2 0
      vertex 16.45 8.41436 0
    endloop
  endfacet
  facet normal -0.707107 -0.707107 0
    outer loop
      vertex 18.6356 10.6 0
      vertex 18.05 11.1856 2
      vertex 18.05 11.1856 0
    endloop
  endfacet
  facet normal -0.707107 -0.707107 0
    outer loop
      vertex 18.05 11.1856 2
      vertex 18.6356 10.6 0
      vertex 18.6356 10.6 2
    endloop
  endfacet
  facet normal -0.965914 -0.258865 0
    outer loop
      vertex 18.85 9.8 0
      vertex 18.6356 10.6 2
      vertex 18.6356 10.6 0
    endloop
  endfacet
  facet normal -0.965914 -0.258865 0
    outer loop
      vertex 18.6356 10.6 2
      vertex 18.85 9.8 0
      vertex 18.85 9.8 2
    endloop
  endfacet
  facet normal -0.258865 -0.965914 0
    outer loop
      vertex 17.25 11.4 0
      vertex 18.05 11.1856 2
      vertex 17.25 11.4 2
    endloop
  endfacet
  facet normal -0.258865 -0.965914 -0
    outer loop
      vertex 18.05 11.1856 2
      vertex 17.25 11.4 0
      vertex 18.05 11.1856 0
    endloop
  endfacet
  facet normal -0.965914 0.258865 0
    outer loop
      vertex 18.6356 9 0
      vertex 18.85 9.8 2
      vertex 18.85 9.8 0
    endloop
  endfacet
  facet normal -0.965914 0.258865 0
    outer loop
      vertex 18.85 9.8 2
      vertex 18.6356 9 0
      vertex 18.6356 9 2
    endloop
  endfacet
  facet normal 0.258865 -0.965914 0
    outer loop
      vertex 16.45 11.1856 0
      vertex 17.25 11.4 2
      vertex 16.45 11.1856 2
    endloop
  endfacet
  facet normal 0.258865 -0.965914 0
    outer loop
      vertex 17.25 11.4 2
      vertex 16.45 11.1856 0
      vertex 17.25 11.4 0
    endloop
  endfacet
  facet normal -0.25882 0.965926 0
    outer loop
      vertex 18.05 8.41436 0
      vertex 17.25 8.2 2
      vertex 18.05 8.41436 2
    endloop
  endfacet
  facet normal -0.25882 0.965926 0
    outer loop
      vertex 17.25 8.2 2
      vertex 18.05 8.41436 0
      vertex 17.25 8.2 0
    endloop
  endfacet
  facet normal 0.965914 -0.258865 0
    outer loop
      vertex 15.65 9.8 2
      vertex 15.8644 10.6 0
      vertex 15.8644 10.6 2
    endloop
  endfacet
  facet normal 0.965914 -0.258865 0
    outer loop
      vertex 15.8644 10.6 0
      vertex 15.65 9.8 2
      vertex 15.65 9.8 0
    endloop
  endfacet
  facet normal 0.707107 -0.707107 0
    outer loop
      vertex 15.8644 10.6 0
      vertex 16.45 11.1856 2
      vertex 15.8644 10.6 2
    endloop
  endfacet
  facet normal 0.707107 -0.707107 0
    outer loop
      vertex 16.45 11.1856 2
      vertex 15.8644 10.6 0
      vertex 16.45 11.1856 0
    endloop
  endfacet
  facet normal -0.707131 0.707083 0
    outer loop
      vertex 18.05 8.41436 0
      vertex 18.6356 9 2
      vertex 18.6356 9 0
    endloop
  endfacet
  facet normal -0.707131 0.707083 0
    outer loop
      vertex 18.6356 9 2
      vertex 18.05 8.41436 0
      vertex 18.05 8.41436 2
    endloop
  endfacet
  facet normal 0.707131 0.707083 -0
    outer loop
      vertex 16.45 8.41436 0
      vertex 15.8644 9 2
      vertex 16.45 8.41436 2
    endloop
  endfacet
  facet normal 0.707131 0.707083 0
    outer loop
      vertex 15.8644 9 2
      vertex 16.45 8.41436 0
      vertex 15.8644 9 0
    endloop
  endfacet
  facet normal 0.965914 0.258865 0
    outer loop
      vertex 15.8644 9 2
      vertex 15.65 9.8 0
      vertex 15.65 9.8 2
    endloop
  endfacet
  facet normal 0.965914 0.258865 0
    outer loop
      vertex 15.65 9.8 0
      vertex 15.8644 9 2
      vertex 15.8644 9 0
    endloop
  endfacet
  facet normal -1 0 0
    outer loop
      vertex 14.75 4 0
      vertex 14.75 7.3 0.5
      vertex 14.75 7.3 0
    endloop
  endfacet
  facet normal -1 0 0
    outer loop
      vertex 14.75 -4 0
      vertex 14.75 7.3 0.5
      vertex 14.75 4 0
    endloop
  endfacet
  facet normal -1 0 0
    outer loop
      vertex 14.75 -7.3 0.5
      vertex 14.75 -4 0
      vertex 14.75 -7.3 0
    endloop
  endfacet
  facet normal -1 0 0
    outer loop
      vertex 14.75 -4 0
      vertex 14.75 -7.3 0.5
      vertex 14.75 7.3 0.5
    endloop
  endfacet
  facet normal 0 0 -1
    outer loop
      vertex 14.75 -7.3 0.5
      vertex 5 0 0.5
      vertex 14.75 7.3 0.5
    endloop
  endfacet
  facet normal 0 0 -1
    outer loop
      vertex 14.75 -7.3 0.5
      vertex 4.82963 -1.2941 0.5
      vertex 5 0 0.5
    endloop
  endfacet
  facet normal 0 0 -1
    outer loop
      vertex 14.75 -7.3 0.5
      vertex 4.33013 -2.5 0.5
      vertex 4.82963 -1.2941 0.5
    endloop
  endfacet
  facet normal 0 0 -1
    outer loop
      vertex 14.75 -7.3 0.5
      vertex 3.53553 -3.53553 0.5
      vertex 4.33013 -2.5 0.5
    endloop
  endfacet
  facet normal 0 0 -1
    outer loop
      vertex 14.75 -7.3 0.5
      vertex 2.5 -4.33013 0.5
      vertex 3.53553 -3.53553 0.5
    endloop
  endfacet
  facet normal 0 0 -1
    outer loop
      vertex 14.75 -7.3 0.5
      vertex 1.2941 -4.82963 0.5
      vertex 2.5 -4.33013 0.5
    endloop
  endfacet
  facet normal 0 0 -1
    outer loop
      vertex 14.75 -7.3 0.5
      vertex 0 -5 0.5
      vertex 1.2941 -4.82963 0.5
    endloop
  endfacet
  facet normal 0 0 -1
    outer loop
      vertex -14.75 -7.3 0.5
      vertex 0 -5 0.5
      vertex 14.75 -7.3 0.5
    endloop
  endfacet
  facet normal -0 0 -1
    outer loop
      vertex -4.82963 -1.2941 0.5
      vertex -14.75 -7.3 0.5
      vertex -5 0 0.5
    endloop
  endfacet
  facet normal -0 0 -1
    outer loop
      vertex -4.33013 -2.5 0.5
      vertex -14.75 -7.3 0.5
      vertex -4.82963 -1.2941 0.5
    endloop
  endfacet
  facet normal -0 0 -1
    outer loop
      vertex -3.53553 -3.53553 0.5
      vertex -14.75 -7.3 0.5
      vertex -4.33013 -2.5 0.5
    endloop
  endfacet
  facet normal -0 0 -1
    outer loop
      vertex -2.5 -4.33013 0.5
      vertex -14.75 -7.3 0.5
      vertex -3.53553 -3.53553 0.5
    endloop
  endfacet
  facet normal -0 0 -1
    outer loop
      vertex -1.2941 -4.82963 0.5
      vertex -14.75 -7.3 0.5
      vertex -2.5 -4.33013 0.5
    endloop
  endfacet
  facet normal -0 0 -1
    outer loop
      vertex 0 -5 0.5
      vertex -14.75 -7.3 0.5
      vertex -1.2941 -4.82963 0.5
    endloop
  endfacet
  facet normal 0 0 -1
    outer loop
      vertex 4.82963 1.2941 0.5
      vertex 14.75 7.3 0.5
      vertex 5 0 0.5
    endloop
  endfacet
  facet normal 0 0 -1
    outer loop
      vertex 4.33013 2.5 0.5
      vertex 14.75 7.3 0.5
      vertex 4.82963 1.2941 0.5
    endloop
  endfacet
  facet normal 0 0 -1
    outer loop
      vertex 3.53553 3.53553 0.5
      vertex 14.75 7.3 0.5
      vertex 4.33013 2.5 0.5
    endloop
  endfacet
  facet normal 0 0 -1
    outer loop
      vertex 2.5 4.33013 0.5
      vertex 14.75 7.3 0.5
      vertex 3.53553 3.53553 0.5
    endloop
  endfacet
  facet normal 0 0 -1
    outer loop
      vertex 1.2941 4.82963 0.5
      vertex 14.75 7.3 0.5
      vertex 2.5 4.33013 0.5
    endloop
  endfacet
  facet normal 0 0 -1
    outer loop
      vertex 0 5 0.5
      vertex 14.75 7.3 0.5
      vertex 1.2941 4.82963 0.5
    endloop
  endfacet
  facet normal 0 0 -1
    outer loop
      vertex -14.75 7.3 0.5
      vertex 0 5 0.5
      vertex -1.2941 4.82963 0.5
    endloop
  endfacet
  facet normal 0 0 -1
    outer loop
      vertex -14.75 7.3 0.5
      vertex -5 0 0.5
      vertex -14.75 -7.3 0.5
    endloop
  endfacet
  facet normal 0 0 -1
    outer loop
      vertex -5 0 0.5
      vertex -14.75 7.3 0.5
      vertex -4.82963 1.2941 0.5
    endloop
  endfacet
  facet normal 0 0 -1
    outer loop
      vertex -4.82963 1.2941 0.5
      vertex -14.75 7.3 0.5
      vertex -4.33013 2.5 0.5
    endloop
  endfacet
  facet normal 0 0 -1
    outer loop
      vertex 0 5 0.5
      vertex -14.75 7.3 0.5
      vertex 14.75 7.3 0.5
    endloop
  endfacet
  facet normal 0 0 -1
    outer loop
      vertex -2.5 4.33013 0.5
      vertex -14.75 7.3 0.5
      vertex -1.2941 4.82963 0.5
    endloop
  endfacet
  facet normal 0 0 -1
    outer loop
      vertex -3.53553 3.53553 0.5
      vertex -14.75 7.3 0.5
      vertex -2.5 4.33013 0.5
    endloop
  endfacet
  facet normal 0 0 -1
    outer loop
      vertex -4.33013 2.5 0.5
      vertex -14.75 7.3 0.5
      vertex -3.53553 3.53553 0.5
    endloop
  endfacet
  facet normal 1 -0 0
    outer loop
      vertex -14.75 -7.3 0.5
      vertex -14.75 7.3 0
      vertex -14.75 7.3 0.5
    endloop
  endfacet
  facet normal 1 0 0
    outer loop
      vertex -14.75 7.3 0
      vertex -14.75 -7.3 0.5
      vertex -14.75 -7.3 0
    endloop
  endfacet
  facet normal 0 -1 0
    outer loop
      vertex -14.75 7.3 0
      vertex 14.75 7.3 0.5
      vertex -14.75 7.3 0.5
    endloop
  endfacet
  facet normal 0 -1 -0
    outer loop
      vertex 14.75 7.3 0.5
      vertex -14.75 7.3 0
      vertex 14.75 7.3 0
    endloop
  endfacet
  facet normal 0 1 -0
    outer loop
      vertex 14.75 -7.3 0
      vertex -14.75 -7.3 0.5
      vertex 14.75 -7.3 0.5
    endloop
  endfacet
  facet normal 0 1 0
    outer loop
      vertex -14.75 -7.3 0.5
      vertex 14.75 -7.3 0
      vertex -14.75 -7.3 0
    endloop
  endfacet
  facet normal -0.92388 -0.382683 0
    outer loop
      vertex 4.82963 1.2941 0.5
      vertex 4.33013 2.5 1.5
      vertex 4.33013 2.5 0.5
    endloop
  endfacet
  facet normal -0.92388 -0.382683 0
    outer loop
      vertex 4.33013 2.5 1.5
      vertex 4.82963 1.2941 0.5
      vertex 4.82963 1.2941 1.5
    endloop
  endfacet
  facet normal -0.991445 -0.130525 0
    outer loop
      vertex 5 0 0.5
      vertex 4.82963 1.2941 1.5
      vertex 4.82963 1.2941 0.5
    endloop
  endfacet
  facet normal -0.991445 -0.130525 0
    outer loop
      vertex 4.82963 1.2941 1.5
      vertex 5 0 0.5
      vertex 5 0 1.5
    endloop
  endfacet
  facet normal -0.79335 -0.608766 0
    outer loop
      vertex 4.33013 2.5 0.5
      vertex 3.53553 3.53553 1.5
      vertex 3.53553 3.53553 0.5
    endloop
  endfacet
  facet normal -0.79335 -0.608766 0
    outer loop
      vertex 3.53553 3.53553 1.5
      vertex 4.33013 2.5 0.5
      vertex 4.33013 2.5 1.5
    endloop
  endfacet
  facet normal 0.79335 -0.608766 0
    outer loop
      vertex -4.33013 2.5 1.5
      vertex -3.53553 3.53553 0.5
      vertex -3.53553 3.53553 1.5
    endloop
  endfacet
  facet normal 0.79335 -0.608766 0
    outer loop
      vertex -3.53553 3.53553 0.5
      vertex -4.33013 2.5 1.5
      vertex -4.33013 2.5 0.5
    endloop
  endfacet
  facet normal 0.608766 -0.79335 0
    outer loop
      vertex -3.53553 3.53553 0.5
      vertex -2.5 4.33013 1.5
      vertex -3.53553 3.53553 1.5
    endloop
  endfacet
  facet normal 0.608766 -0.79335 0
    outer loop
      vertex -2.5 4.33013 1.5
      vertex -3.53553 3.53553 0.5
      vertex -2.5 4.33013 0.5
    endloop
  endfacet
  facet normal -0.382683 0.92388 0
    outer loop
      vertex 2.5 -4.33013 0.5
      vertex 1.2941 -4.82963 1.5
      vertex 2.5 -4.33013 1.5
    endloop
  endfacet
  facet normal -0.382683 0.92388 0
    outer loop
      vertex 1.2941 -4.82963 1.5
      vertex 2.5 -4.33013 0.5
      vertex 1.2941 -4.82963 0.5
    endloop
  endfacet
  facet normal 0.92388 -0.382683 0
    outer loop
      vertex -4.82963 1.2941 1.5
      vertex -4.33013 2.5 0.5
      vertex -4.33013 2.5 1.5
    endloop
  endfacet
  facet normal 0.92388 -0.382683 0
    outer loop
      vertex -4.33013 2.5 0.5
      vertex -4.82963 1.2941 1.5
      vertex -4.82963 1.2941 0.5
    endloop
  endfacet
  facet normal -0.608766 -0.79335 0
    outer loop
      vertex 2.5 4.33013 0.5
      vertex 3.53553 3.53553 1.5
      vertex 2.5 4.33013 1.5
    endloop
  endfacet
  facet normal -0.608766 -0.79335 -0
    outer loop
      vertex 3.53553 3.53553 1.5
      vertex 2.5 4.33013 0.5
      vertex 3.53553 3.53553 0.5
    endloop
  endfacet
  facet normal -0.130525 -0.991445 0
    outer loop
      vertex 0 5 0.5
      vertex 1.2941 4.82963 1.5
      vertex 0 5 1.5
    endloop
  endfacet
  facet normal -0.130525 -0.991445 -0
    outer loop
      vertex 1.2941 4.82963 1.5
      vertex 0 5 0.5
      vertex 1.2941 4.82963 0.5
    endloop
  endfacet
  facet normal 0.382683 0.92388 -0
    outer loop
      vertex -1.2941 -4.82963 0.5
      vertex -2.5 -4.33013 1.5
      vertex -1.2941 -4.82963 1.5
    endloop
  endfacet
  facet normal 0.382683 0.92388 0
    outer loop
      vertex -2.5 -4.33013 1.5
      vertex -1.2941 -4.82963 0.5
      vertex -2.5 -4.33013 0.5
    endloop
  endfacet
  facet normal -0.130525 0.991445 0
    outer loop
      vertex 1.2941 -4.82963 0.5
      vertex 0 -5 1.5
      vertex 1.2941 -4.82963 1.5
    endloop
  endfacet
  facet normal -0.130525 0.991445 0
    outer loop
      vertex 0 -5 1.5
      vertex 1.2941 -4.82963 0.5
      vertex 0 -5 0.5
    endloop
  endfacet
  facet normal 0 0 -1
    outer loop
      vertex 4.82963 -1.2941 1.5
      vertex 4.82963 1.2941 1.5
      vertex 5 0 1.5
    endloop
  endfacet
  facet normal 0 0 -1
    outer loop
      vertex 4.33013 -2.5 1.5
      vertex 4.82963 1.2941 1.5
      vertex 4.82963 -1.2941 1.5
    endloop
  endfacet
  facet normal 0 0 -1
    outer loop
      vertex 4.33013 -2.5 1.5
      vertex 4.33013 2.5 1.5
      vertex 4.82963 1.2941 1.5
    endloop
  endfacet
  facet normal 0 0 -1
    outer loop
      vertex 3.53553 -3.53553 1.5
      vertex 4.33013 2.5 1.5
      vertex 4.33013 -2.5 1.5
    endloop
  endfacet
  facet normal 0 0 -1
    outer loop
      vertex 3.53553 -3.53553 1.5
      vertex 3.53553 3.53553 1.5
      vertex 4.33013 2.5 1.5
    endloop
  endfacet
  facet normal 0 0 -1
    outer loop
      vertex 2.5 -4.33013 1.5
      vertex 3.53553 3.53553 1.5
      vertex 3.53553 -3.53553 1.5
    endloop
  endfacet
  facet normal 0 0 -1
    outer loop
      vertex 2.5 -4.33013 1.5
      vertex 2.5 4.33013 1.5
      vertex 3.53553 3.53553 1.5
    endloop
  endfacet
  facet normal 0 0 -1
    outer loop
      vertex 1.2941 -4.82963 1.5
      vertex 2.5 4.33013 1.5
      vertex 2.5 -4.33013 1.5
    endloop
  endfacet
  facet normal 0 0 -1
    outer loop
      vertex 1.2941 -4.82963 1.5
      vertex 1.2941 4.82963 1.5
      vertex 2.5 4.33013 1.5
    endloop
  endfacet
  facet normal 0 0 -1
    outer loop
      vertex 0 -5 1.5
      vertex 1.2941 4.82963 1.5
      vertex 1.2941 -4.82963 1.5
    endloop
  endfacet
  facet normal 0 0 -1
    outer loop
      vertex 0 -5 1.5
      vertex 0 5 1.5
      vertex 1.2941 4.82963 1.5
    endloop
  endfacet
  facet normal 0 0 -1
    outer loop
      vertex -1.2941 -4.82963 1.5
      vertex 0 5 1.5
      vertex 0 -5 1.5
    endloop
  endfacet
  facet normal 0 0 -1
    outer loop
      vertex -1.2941 -4.82963 1.5
      vertex -1.2941 4.82963 1.5
      vertex 0 5 1.5
    endloop
  endfacet
  facet normal 0 0 -1
    outer loop
      vertex -2.5 -4.33013 1.5
      vertex -1.2941 4.82963 1.5
      vertex -1.2941 -4.82963 1.5
    endloop
  endfacet
  facet normal 0 0 -1
    outer loop
      vertex -2.5 -4.33013 1.5
      vertex -2.5 4.33013 1.5
      vertex -1.2941 4.82963 1.5
    endloop
  endfacet
  facet normal 0 0 -1
    outer loop
      vertex -3.53553 -3.53553 1.5
      vertex -2.5 4.33013 1.5
      vertex -2.5 -4.33013 1.5
    endloop
  endfacet
  facet normal 0 0 -1
    outer loop
      vertex -3.53553 -3.53553 1.5
      vertex -3.53553 3.53553 1.5
      vertex -2.5 4.33013 1.5
    endloop
  endfacet
  facet normal 0 0 -1
    outer loop
      vertex -4.33013 -2.5 1.5
      vertex -3.53553 3.53553 1.5
      vertex -3.53553 -3.53553 1.5
    endloop
  endfacet
  facet normal 0 0 -1
    outer loop
      vertex -4.33013 -2.5 1.5
      vertex -4.33013 2.5 1.5
      vertex -3.53553 3.53553 1.5
    endloop
  endfacet
  facet normal 0 0 -1
    outer loop
      vertex -4.82963 -1.2941 1.5
      vertex -4.33013 2.5 1.5
      vertex -4.33013 -2.5 1.5
    endloop
  endfacet
  facet normal 0 0 -1
    outer loop
      vertex -4.82963 -1.2941 1.5
      vertex -4.82963 1.2941 1.5
      vertex -4.33013 2.5 1.5
    endloop
  endfacet
  facet normal 0 -0 -1
    outer loop
      vertex -4.82963 1.2941 1.5
      vertex -4.82963 -1.2941 1.5
      vertex -5 0 1.5
    endloop
  endfacet
  facet normal -0.79335 0.608766 0
    outer loop
      vertex 3.53553 -3.53553 0.5
      vertex 4.33013 -2.5 1.5
      vertex 4.33013 -2.5 0.5
    endloop
  endfacet
  facet normal -0.79335 0.608766 0
    outer loop
      vertex 4.33013 -2.5 1.5
      vertex 3.53553 -3.53553 0.5
      vertex 3.53553 -3.53553 1.5
    endloop
  endfacet
  facet normal -0.608766 0.79335 0
    outer loop
      vertex 3.53553 -3.53553 0.5
      vertex 2.5 -4.33013 1.5
      vertex 3.53553 -3.53553 1.5
    endloop
  endfacet
  facet normal -0.608766 0.79335 0
    outer loop
      vertex 2.5 -4.33013 1.5
      vertex 3.53553 -3.53553 0.5
      vertex 2.5 -4.33013 0.5
    endloop
  endfacet
  facet normal 0.79335 0.608766 0
    outer loop
      vertex -3.53553 -3.53553 1.5
      vertex -4.33013 -2.5 0.5
      vertex -4.33013 -2.5 1.5
    endloop
  endfacet
  facet normal 0.79335 0.608766 0
    outer loop
      vertex -4.33013 -2.5 0.5
      vertex -3.53553 -3.53553 1.5
      vertex -3.53553 -3.53553 0.5
    endloop
  endfacet
  facet normal -0.991445 0.130525 0
    outer loop
      vertex 4.82963 -1.2941 0.5
      vertex 5 0 1.5
      vertex 5 0 0.5
    endloop
  endfacet
  facet normal -0.991445 0.130525 0
    outer loop
      vertex 5 0 1.5
      vertex 4.82963 -1.2941 0.5
      vertex 4.82963 -1.2941 1.5
    endloop
  endfacet
  facet normal 0.991445 -0.130525 0
    outer loop
      vertex -5 0 1.5
      vertex -4.82963 1.2941 0.5
      vertex -4.82963 1.2941 1.5
    endloop
  endfacet
  facet normal 0.991445 -0.130525 0
    outer loop
      vertex -4.82963 1.2941 0.5
      vertex -5 0 1.5
      vertex -5 0 0.5
    endloop
  endfacet
  facet normal 0.130525 -0.991445 0
    outer loop
      vertex -1.2941 4.82963 0.5
      vertex 0 5 1.5
      vertex -1.2941 4.82963 1.5
    endloop
  endfacet
  facet normal 0.130525 -0.991445 0
    outer loop
      vertex 0 5 1.5
      vertex -1.2941 4.82963 0.5
      vertex 0 5 0.5
    endloop
  endfacet
  facet normal -0.92388 0.382683 0
    outer loop
      vertex 4.33013 -2.5 0.5
      vertex 4.82963 -1.2941 1.5
      vertex 4.82963 -1.2941 0.5
    endloop
  endfacet
  facet normal -0.92388 0.382683 0
    outer loop
      vertex 4.82963 -1.2941 1.5
      vertex 4.33013 -2.5 0.5
      vertex 4.33013 -2.5 1.5
    endloop
  endfacet
  facet normal 0.382683 -0.92388 0
    outer loop
      vertex -2.5 4.33013 0.5
      vertex -1.2941 4.82963 1.5
      vertex -2.5 4.33013 1.5
    endloop
  endfacet
  facet normal 0.382683 -0.92388 0
    outer loop
      vertex -1.2941 4.82963 1.5
      vertex -2.5 4.33013 0.5
      vertex -1.2941 4.82963 0.5
    endloop
  endfacet
  facet normal -0.382683 -0.92388 0
    outer loop
      vertex 1.2941 4.82963 0.5
      vertex 2.5 4.33013 1.5
      vertex 1.2941 4.82963 1.5
    endloop
  endfacet
  facet normal -0.382683 -0.92388 -0
    outer loop
      vertex 2.5 4.33013 1.5
      vertex 1.2941 4.82963 0.5
      vertex 2.5 4.33013 0.5
    endloop
  endfacet
  facet normal 0.130525 0.991445 -0
    outer loop
      vertex 0 -5 0.5
      vertex -1.2941 -4.82963 1.5
      vertex 0 -5 1.5
    endloop
  endfacet
  facet normal 0.130525 0.991445 0
    outer loop
      vertex -1.2941 -4.82963 1.5
      vertex 0 -5 0.5
      vertex -1.2941 -4.82963 0.5
    endloop
  endfacet
  facet normal 0.92388 0.382683 0
    outer loop
      vertex -4.33013 -2.5 1.5
      vertex -4.82963 -1.2941 0.5
      vertex -4.82963 -1.2941 1.5
    endloop
  endfacet
  facet normal 0.92388 0.382683 0
    outer loop
      vertex -4.82963 -1.2941 0.5
      vertex -4.33013 -2.5 1.5
      vertex -4.33013 -2.5 0.5
    endloop
  endfacet
  facet normal 0.991445 0.130525 0
    outer loop
      vertex -4.82963 -1.2941 1.5
      vertex -5 0 0.5
      vertex -5 0 1.5
    endloop
  endfacet
  facet normal 0.991445 0.130525 0
    outer loop
      vertex -5 0 0.5
      vertex -4.82963 -1.2941 1.5
      vertex -4.82963 -1.2941 0.5
    endloop
  endfacet
  facet normal 0.608766 0.79335 -0
    outer loop
      vertex -2.5 -4.33013 0.5
      vertex -3.53553 -3.53553 1.5
      vertex -2.5 -4.33013 1.5
    endloop
  endfacet
  facet normal 0.608766 0.79335 0
    outer loop
      vertex -3.53553 -3.53553 1.5
      vertex -2.5 -4.33013 0.5
      vertex -3.53553 -3.53553 0.5
    endloop
  endfacet
endsolid OpenSCAD_Model
