  0
SECTION
  2
BLOCKS
  0
ENDSEC
  0
SECTION
  2
ENTITIES
  0
LINE
  8
0
 10
29.7634
 20
34.573
 11
31
 21
37
  0
LINE
  8
0
 10
31
 20
37
 11
31
 21
44
  0
LINE
  8
0
 10
31
 20
44
 11
30.9877
 21
44.2716
  0
LINE
  8
0
 10
30.9877
 20
44.2716
 11
30.0136
 21
54.9865
  0
LINE
  8
0
 10
30.0136
 20
54.9865
 11
30.9673
 21
64.5237
  0
LINE
  8
0
 10
30.9673
 20
64.5237
 11
32.8484
 21
72.9886
  0
LINE
  8
0
 10
32.8484
 20
72.9886
 11
34.6833
 21
76.6584
  0
LINE
  8
0
 10
34.6833
 20
76.6584
 11
35
 21
78
  0
LINE
  8
0
 10
35
 20
78
 11
35
 21
86
  0
LINE
  8
0
 10
35
 20
86
 11
34.9592
 21
86.4932
  0
LINE
  8
0
 10
34.9592
 20
86.4932
 11
33.9592
 21
92.4932
  0
LINE
  8
0
 10
33.9592
 20
92.4932
 11
32.8741
 21
94.3426
  0
LINE
  8
0
 10
32.8741
 20
94.3426
 11
27.8741
 21
98.3426
  0
LINE
  8
0
 10
27.8741
 20
98.3426
 11
26.2301
 21
98.9912
  0
LINE
  8
0
 10
26.2301
 20
98.9912
 11
0.230087
 21
100.991
  0
LINE
  8
0
 10
0.230087
 20
100.991
 11
-0.230087
 21
100.991
  0
LINE
  8
0
 10
-0.230087
 20
100.991
 11
-26.2301
 21
98.9912
  0
LINE
  8
0
 10
-26.2301
 20
98.9912
 11
-27.8741
 21
98.3426
  0
LINE
  8
0
 10
-27.8741
 20
98.3426
 11
-32.8741
 21
94.3426
  0
LINE
  8
0
 10
-32.8741
 20
94.3426
 11
-33.9592
 21
92.4932
  0
LINE
  8
0
 10
-33.9592
 20
92.4932
 11
-34.9592
 21
86.4932
  0
LINE
  8
0
 10
-34.9592
 20
86.4932
 11
-35
 21
86
  0
LINE
  8
0
 10
-35
 20
86
 11
-35
 21
78
  0
LINE
  8
0
 10
-35
 20
78
 11
-34.6833
 21
76.6584
  0
LINE
  8
0
 10
-34.6833
 20
76.6584
 11
-32.8484
 21
72.9886
  0
LINE
  8
0
 10
-32.8484
 20
72.9886
 11
-30.9673
 21
64.5237
  0
LINE
  8
0
 10
-30.9673
 20
64.5237
 11
-30.0136
 21
54.9865
  0
LINE
  8
0
 10
-30.0136
 20
54.9865
 11
-30.9877
 21
44.2716
  0
LINE
  8
0
 10
-30.9877
 20
44.2716
 11
-31
 21
44
  0
LINE
  8
0
 10
-31
 20
44
 11
-31
 21
37
  0
LINE
  8
0
 10
-31
 20
37
 11
-30.427
 21
35.2366
  0
LINE
  8
0
 10
-30.427
 20
35.2366
 11
-28
 21
34
  0
LINE
  8
0
 10
-28
 20
34
 11
28
 21
34
  0
LINE
  8
0
 10
28
 20
34
 11
29.7634
 21
34.573
  0
LINE
  8
0
 10
-10.5358
 20
89.7066
 11
-10.9899
 21
90.01
  0
LINE
  8
0
 10
-10.9899
 20
90.01
 11
-11.2934
 21
90.4642
  0
LINE
  8
0
 10
-11.2934
 20
90.4642
 11
-11.4
 21
91
  0
LINE
  8
0
 10
-11.4
 20
91
 11
-11.2934
 21
91.5358
  0
LINE
  8
0
 10
-11.2934
 20
91.5358
 11
-10.9899
 21
91.9899
  0
LINE
  8
0
 10
-10.9899
 20
91.9899
 11
-10.5358
 21
92.2934
  0
LINE
  8
0
 10
-10.5358
 20
92.2934
 11
-10
 21
92.4
  0
LINE
  8
0
 10
-10
 20
92.4
 11
-9.46423
 21
92.2934
  0
LINE
  8
0
 10
-9.46423
 20
92.2934
 11
-9.01004
 21
91.9899
  0
LINE
  8
0
 10
-9.01004
 20
91.9899
 11
-8.70656
 21
91.5358
  0
LINE
  8
0
 10
-8.70656
 20
91.5358
 11
-8.59999
 21
91
  0
LINE
  8
0
 10
-8.59999
 20
91
 11
-8.70656
 21
90.4642
  0
LINE
  8
0
 10
-8.70656
 20
90.4642
 11
-9.01004
 21
90.01
  0
LINE
  8
0
 10
-9.01004
 20
90.01
 11
-9.46423
 21
89.7066
  0
LINE
  8
0
 10
-9.46423
 20
89.7066
 11
-10
 21
89.6
  0
LINE
  8
0
 10
-10
 20
89.6
 11
-10.5358
 21
89.7066
  0
LINE
  8
0
 10
9.46423
 20
89.7066
 11
9.01004
 21
90.01
  0
LINE
  8
0
 10
9.01004
 20
90.01
 11
8.70656
 21
90.4642
  0
LINE
  8
0
 10
8.70656
 20
90.4642
 11
8.59999
 21
91
  0
LINE
  8
0
 10
8.59999
 20
91
 11
8.70656
 21
91.5358
  0
LINE
  8
0
 10
8.70656
 20
91.5358
 11
9.01004
 21
91.9899
  0
LINE
  8
0
 10
9.01004
 20
91.9899
 11
9.46423
 21
92.2934
  0
LINE
  8
0
 10
9.46423
 20
92.2934
 11
10
 21
92.4
  0
LINE
  8
0
 10
10
 20
92.4
 11
10.5358
 21
92.2934
  0
LINE
  8
0
 10
10.5358
 20
92.2934
 11
10.9899
 21
91.9899
  0
LINE
  8
0
 10
10.9899
 20
91.9899
 11
11.2934
 21
91.5358
  0
LINE
  8
0
 10
11.2934
 20
91.5358
 11
11.4
 21
91
  0
LINE
  8
0
 10
11.4
 20
91
 11
11.2934
 21
90.4642
  0
LINE
  8
0
 10
11.2934
 20
90.4642
 11
10.9899
 21
90.01
  0
LINE
  8
0
 10
10.9899
 20
90.01
 11
10.5358
 21
89.7066
  0
LINE
  8
0
 10
10.5358
 20
89.7066
 11
10
 21
89.6
  0
LINE
  8
0
 10
10
 20
89.6
 11
9.46423
 21
89.7066
  0
LINE
  8
0
 10
-0.905853
 20
82.6192
 11
-1.75
 21
82.9689
  0
LINE
  8
0
 10
-1.75
 20
82.9689
 11
-2.47487
 21
83.5251
  0
LINE
  8
0
 10
-2.47487
 20
83.5251
 11
-3.03108
 21
84.25
  0
LINE
  8
0
 10
-3.03108
 20
84.25
 11
-3.38074
 21
85.0941
  0
LINE
  8
0
 10
-3.38074
 20
85.0941
 11
-3.5
 21
86
  0
LINE
  8
0
 10
-3.5
 20
86
 11
-3.38074
 21
86.9059
  0
LINE
  8
0
 10
-3.38074
 20
86.9059
 11
-3.03108
 21
87.75
  0
LINE
  8
0
 10
-3.03108
 20
87.75
 11
-2.47487
 21
88.4749
  0
LINE
  8
0
 10
-2.47487
 20
88.4749
 11
-1.75
 21
89.0311
  0
LINE
  8
0
 10
-1.75
 20
89.0311
 11
-0.905853
 21
89.3807
  0
LINE
  8
0
 10
-0.905853
 20
89.3807
 11
0
 21
89.5
  0
LINE
  8
0
 10
0
 20
89.5
 11
0.905853
 21
89.3807
  0
LINE
  8
0
 10
0.905853
 20
89.3807
 11
1.75
 21
89.0311
  0
LINE
  8
0
 10
1.75
 20
89.0311
 11
2.47487
 21
88.4749
  0
LINE
  8
0
 10
2.47487
 20
88.4749
 11
3.03108
 21
87.75
  0
LINE
  8
0
 10
3.03108
 20
87.75
 11
3.38074
 21
86.9059
  0
LINE
  8
0
 10
3.38074
 20
86.9059
 11
3.5
 21
86
  0
LINE
  8
0
 10
3.5
 20
86
 11
3.38074
 21
85.0941
  0
LINE
  8
0
 10
3.38074
 20
85.0941
 11
3.03108
 21
84.25
  0
LINE
  8
0
 10
3.03108
 20
84.25
 11
2.47487
 21
83.5251
  0
LINE
  8
0
 10
2.47487
 20
83.5251
 11
1.75
 21
82.9689
  0
LINE
  8
0
 10
1.75
 20
82.9689
 11
0.905853
 21
82.6192
  0
LINE
  8
0
 10
0.905853
 20
82.6192
 11
0
 21
82.5
  0
LINE
  8
0
 10
0
 20
82.5
 11
-0.905853
 21
82.6192
  0
LINE
  8
0
 10
19.6659
 20
72.0345
 11
19.28
 21
72.1944
  0
LINE
  8
0
 10
19.28
 20
72.1944
 11
18.9486
 21
72.4486
  0
LINE
  8
0
 10
18.9486
 20
72.4486
 11
18.6944
 21
72.78
  0
LINE
  8
0
 10
18.6944
 20
72.78
 11
18.5345
 21
73.1659
  0
LINE
  8
0
 10
18.5345
 20
73.1659
 11
18.48
 21
73.58
  0
LINE
  8
0
 10
18.48
 20
73.58
 11
18.5345
 21
73.9941
  0
LINE
  8
0
 10
18.5345
 20
73.9941
 11
18.6944
 21
74.38
  0
LINE
  8
0
 10
18.6944
 20
74.38
 11
18.9486
 21
74.7114
  0
LINE
  8
0
 10
18.9486
 20
74.7114
 11
19.28
 21
74.9656
  0
LINE
  8
0
 10
19.28
 20
74.9656
 11
19.6659
 21
75.1255
  0
LINE
  8
0
 10
19.6659
 20
75.1255
 11
20.08
 21
75.18
  0
LINE
  8
0
 10
20.08
 20
75.18
 11
20.4941
 21
75.1255
  0
LINE
  8
0
 10
20.4941
 20
75.1255
 11
20.88
 21
74.9656
  0
LINE
  8
0
 10
20.88
 20
74.9656
 11
21.2114
 21
74.7114
  0
LINE
  8
0
 10
21.2114
 20
74.7114
 11
21.4656
 21
74.38
  0
LINE
  8
0
 10
21.4656
 20
74.38
 11
21.6255
 21
73.9941
  0
LINE
  8
0
 10
21.6255
 20
73.9941
 11
21.68
 21
73.58
  0
LINE
  8
0
 10
21.68
 20
73.58
 11
21.6255
 21
73.1659
  0
LINE
  8
0
 10
21.6255
 20
73.1659
 11
21.4656
 21
72.78
  0
LINE
  8
0
 10
21.4656
 20
72.78
 11
21.2114
 21
72.4486
  0
LINE
  8
0
 10
21.2114
 20
72.4486
 11
20.88
 21
72.1944
  0
LINE
  8
0
 10
20.88
 20
72.1944
 11
20.4941
 21
72.0345
  0
LINE
  8
0
 10
20.4941
 20
72.0345
 11
20.08
 21
71.98
  0
LINE
  8
0
 10
20.08
 20
71.98
 11
19.6659
 21
72.0345
  0
LINE
  8
0
 10
-20.4941
 20
72.0345
 11
-20.88
 21
72.1944
  0
LINE
  8
0
 10
-20.88
 20
72.1944
 11
-21.2114
 21
72.4486
  0
LINE
  8
0
 10
-21.2114
 20
72.4486
 11
-21.4656
 21
72.78
  0
LINE
  8
0
 10
-21.4656
 20
72.78
 11
-21.6255
 21
73.1659
  0
LINE
  8
0
 10
-21.6255
 20
73.1659
 11
-21.68
 21
73.58
  0
LINE
  8
0
 10
-21.68
 20
73.58
 11
-21.6255
 21
73.9941
  0
LINE
  8
0
 10
-21.6255
 20
73.9941
 11
-21.4656
 21
74.38
  0
LINE
  8
0
 10
-21.4656
 20
74.38
 11
-21.2114
 21
74.7114
  0
LINE
  8
0
 10
-21.2114
 20
74.7114
 11
-20.88
 21
74.9656
  0
LINE
  8
0
 10
-20.88
 20
74.9656
 11
-20.4941
 21
75.1255
  0
LINE
  8
0
 10
-20.4941
 20
75.1255
 11
-20.08
 21
75.18
  0
LINE
  8
0
 10
-20.08
 20
75.18
 11
-19.6659
 21
75.1255
  0
LINE
  8
0
 10
-19.6659
 20
75.1255
 11
-19.28
 21
74.9656
  0
LINE
  8
0
 10
-19.28
 20
74.9656
 11
-18.9486
 21
74.7114
  0
LINE
  8
0
 10
-18.9486
 20
74.7114
 11
-18.6944
 21
74.38
  0
LINE
  8
0
 10
-18.6944
 20
74.38
 11
-18.5345
 21
73.9941
  0
LINE
  8
0
 10
-18.5345
 20
73.9941
 11
-18.48
 21
73.58
  0
LINE
  8
0
 10
-18.48
 20
73.58
 11
-18.5345
 21
73.1659
  0
LINE
  8
0
 10
-18.5345
 20
73.1659
 11
-18.6944
 21
72.78
  0
LINE
  8
0
 10
-18.6944
 20
72.78
 11
-18.9486
 21
72.4486
  0
LINE
  8
0
 10
-18.9486
 20
72.4486
 11
-19.28
 21
72.1944
  0
LINE
  8
0
 10
-19.28
 20
72.1944
 11
-19.6659
 21
72.0345
  0
LINE
  8
0
 10
-19.6659
 20
72.0345
 11
-20.08
 21
71.98
  0
LINE
  8
0
 10
-20.08
 20
71.98
 11
-20.4941
 21
72.0345
  0
LINE
  8
0
 10
-1.16467
 20
63.6533
 11
-2.25
 21
64.1029
  0
LINE
  8
0
 10
-2.25
 20
64.1029
 11
-3.18198
 21
64.818
  0
LINE
  8
0
 10
-3.18198
 20
64.818
 11
-3.89711
 21
65.75
  0
LINE
  8
0
 10
-3.89711
 20
65.75
 11
-4.34666
 21
66.8353
  0
LINE
  8
0
 10
-4.34666
 20
66.8353
 11
-4.5
 21
68
  0
LINE
  8
0
 10
-4.5
 20
68
 11
-4.34666
 21
69.1647
  0
LINE
  8
0
 10
-4.34666
 20
69.1647
 11
-3.89711
 21
70.25
  0
LINE
  8
0
 10
-3.89711
 20
70.25
 11
-3.18198
 21
71.182
  0
LINE
  8
0
 10
-3.18198
 20
71.182
 11
-2.25
 21
71.8971
  0
LINE
  8
0
 10
-2.25
 20
71.8971
 11
-1.16467
 21
72.3467
  0
LINE
  8
0
 10
-1.16467
 20
72.3467
 11
0
 21
72.5
  0
LINE
  8
0
 10
0
 20
72.5
 11
1.16467
 21
72.3467
  0
LINE
  8
0
 10
1.16467
 20
72.3467
 11
2.25
 21
71.8971
  0
LINE
  8
0
 10
2.25
 20
71.8971
 11
3.18198
 21
71.182
  0
LINE
  8
0
 10
3.18198
 20
71.182
 11
3.89711
 21
70.25
  0
LINE
  8
0
 10
3.89711
 20
70.25
 11
4.34666
 21
69.1647
  0
LINE
  8
0
 10
4.34666
 20
69.1647
 11
4.5
 21
68
  0
LINE
  8
0
 10
4.5
 20
68
 11
4.34666
 21
66.8353
  0
LINE
  8
0
 10
4.34666
 20
66.8353
 11
3.89711
 21
65.75
  0
LINE
  8
0
 10
3.89711
 20
65.75
 11
3.18198
 21
64.818
  0
LINE
  8
0
 10
3.18198
 20
64.818
 11
2.25
 21
64.1029
  0
LINE
  8
0
 10
2.25
 20
64.1029
 11
1.16467
 21
63.6533
  0
LINE
  8
0
 10
1.16467
 20
63.6533
 11
0
 21
63.5
  0
LINE
  8
0
 10
0
 20
63.5
 11
-1.16467
 21
63.6533
  0
LINE
  8
0
 10
-19.4141
 20
65.4545
 11
-19.8
 21
65.6143
  0
LINE
  8
0
 10
-19.8
 20
65.6143
 11
-20.1314
 21
65.8686
  0
LINE
  8
0
 10
-20.1314
 20
65.8686
 11
-20.3856
 21
66.2
  0
LINE
  8
0
 10
-20.3856
 20
66.2
 11
-20.5455
 21
66.5859
  0
LINE
  8
0
 10
-20.5455
 20
66.5859
 11
-20.6
 21
67
  0
LINE
  8
0
 10
-20.6
 20
67
 11
-20.5455
 21
67.4141
  0
LINE
  8
0
 10
-20.5455
 20
67.4141
 11
-20.3856
 21
67.8
  0
LINE
  8
0
 10
-20.3856
 20
67.8
 11
-20.1314
 21
68.1314
  0
LINE
  8
0
 10
-20.1314
 20
68.1314
 11
-19.8
 21
68.3856
  0
LINE
  8
0
 10
-19.8
 20
68.3856
 11
-19.4141
 21
68.5455
  0
LINE
  8
0
 10
-19.4141
 20
68.5455
 11
-19
 21
68.6
  0
LINE
  8
0
 10
-19
 20
68.6
 11
-18.5859
 21
68.5455
  0
LINE
  8
0
 10
-18.5859
 20
68.5455
 11
-18.2
 21
68.3856
  0
LINE
  8
0
 10
-18.2
 20
68.3856
 11
-17.8686
 21
68.1314
  0
LINE
  8
0
 10
-17.8686
 20
68.1314
 11
-17.6143
 21
67.8
  0
LINE
  8
0
 10
-17.6143
 20
67.8
 11
-17.4545
 21
67.4141
  0
LINE
  8
0
 10
-17.4545
 20
67.4141
 11
-17.4
 21
67
  0
LINE
  8
0
 10
-17.4
 20
67
 11
-17.4545
 21
66.5859
  0
LINE
  8
0
 10
-17.4545
 20
66.5859
 11
-17.6143
 21
66.2
  0
LINE
  8
0
 10
-17.6143
 20
66.2
 11
-17.8686
 21
65.8686
  0
LINE
  8
0
 10
-17.8686
 20
65.8686
 11
-18.2
 21
65.6143
  0
LINE
  8
0
 10
-18.2
 20
65.6143
 11
-18.5859
 21
65.4545
  0
LINE
  8
0
 10
-18.5859
 20
65.4545
 11
-19
 21
65.4
  0
LINE
  8
0
 10
-19
 20
65.4
 11
-19.4141
 21
65.4545
  0
LINE
  8
0
 10
18.5859
 20
65.4545
 11
18.2
 21
65.6143
  0
LINE
  8
0
 10
18.2
 20
65.6143
 11
17.8686
 21
65.8686
  0
LINE
  8
0
 10
17.8686
 20
65.8686
 11
17.6143
 21
66.2
  0
LINE
  8
0
 10
17.6143
 20
66.2
 11
17.4545
 21
66.5859
  0
LINE
  8
0
 10
17.4545
 20
66.5859
 11
17.4
 21
67
  0
LINE
  8
0
 10
17.4
 20
67
 11
17.4545
 21
67.4141
  0
LINE
  8
0
 10
17.4545
 20
67.4141
 11
17.6143
 21
67.8
  0
LINE
  8
0
 10
17.6143
 20
67.8
 11
17.8686
 21
68.1314
  0
LINE
  8
0
 10
17.8686
 20
68.1314
 11
18.2
 21
68.3856
  0
LINE
  8
0
 10
18.2
 20
68.3856
 11
18.5859
 21
68.5455
  0
LINE
  8
0
 10
18.5859
 20
68.5455
 11
19
 21
68.6
  0
LINE
  8
0
 10
19
 20
68.6
 11
19.4141
 21
68.5455
  0
LINE
  8
0
 10
19.4141
 20
68.5455
 11
19.8
 21
68.3856
  0
LINE
  8
0
 10
19.8
 20
68.3856
 11
20.1314
 21
68.1314
  0
LINE
  8
0
 10
20.1314
 20
68.1314
 11
20.3856
 21
67.8
  0
LINE
  8
0
 10
20.3856
 20
67.8
 11
20.5455
 21
67.4141
  0
LINE
  8
0
 10
20.5455
 20
67.4141
 11
20.6
 21
67
  0
LINE
  8
0
 10
20.6
 20
67
 11
20.5455
 21
66.5859
  0
LINE
  8
0
 10
20.5455
 20
66.5859
 11
20.3856
 21
66.2
  0
LINE
  8
0
 10
20.3856
 20
66.2
 11
20.1314
 21
65.8686
  0
LINE
  8
0
 10
20.1314
 20
65.8686
 11
19.8
 21
65.6143
  0
LINE
  8
0
 10
19.8
 20
65.6143
 11
19.4141
 21
65.4545
  0
LINE
  8
0
 10
19.4141
 20
65.4545
 11
19
 21
65.4
  0
LINE
  8
0
 10
19
 20
65.4
 11
18.5859
 21
65.4545
  0
LINE
  8
0
 10
-10.5358
 20
59.7066
 11
-10.9899
 21
60.01
  0
LINE
  8
0
 10
-10.9899
 20
60.01
 11
-11.2934
 21
60.4642
  0
LINE
  8
0
 10
-11.2934
 20
60.4642
 11
-11.4
 21
61
  0
LINE
  8
0
 10
-11.4
 20
61
 11
-11.2934
 21
61.5358
  0
LINE
  8
0
 10
-11.2934
 20
61.5358
 11
-10.9899
 21
61.9899
  0
LINE
  8
0
 10
-10.9899
 20
61.9899
 11
-10.5358
 21
62.2934
  0
LINE
  8
0
 10
-10.5358
 20
62.2934
 11
-10
 21
62.4
  0
LINE
  8
0
 10
-10
 20
62.4
 11
-9.46423
 21
62.2934
  0
LINE
  8
0
 10
-9.46423
 20
62.2934
 11
-9.01004
 21
61.9899
  0
LINE
  8
0
 10
-9.01004
 20
61.9899
 11
-8.70656
 21
61.5358
  0
LINE
  8
0
 10
-8.70656
 20
61.5358
 11
-8.59999
 21
61
  0
LINE
  8
0
 10
-8.59999
 20
61
 11
-8.70656
 21
60.4642
  0
LINE
  8
0
 10
-8.70656
 20
60.4642
 11
-9.01004
 21
60.01
  0
LINE
  8
0
 10
-9.01004
 20
60.01
 11
-9.46423
 21
59.7066
  0
LINE
  8
0
 10
-9.46423
 20
59.7066
 11
-10
 21
59.6
  0
LINE
  8
0
 10
-10
 20
59.6
 11
-10.5358
 21
59.7066
  0
LINE
  8
0
 10
9.46423
 20
59.7066
 11
9.01004
 21
60.01
  0
LINE
  8
0
 10
9.01004
 20
60.01
 11
8.70656
 21
60.4642
  0
LINE
  8
0
 10
8.70656
 20
60.4642
 11
8.59999
 21
61
  0
LINE
  8
0
 10
8.59999
 20
61
 11
8.70656
 21
61.5358
  0
LINE
  8
0
 10
8.70656
 20
61.5358
 11
9.01004
 21
61.9899
  0
LINE
  8
0
 10
9.01004
 20
61.9899
 11
9.46423
 21
62.2934
  0
LINE
  8
0
 10
9.46423
 20
62.2934
 11
10
 21
62.4
  0
LINE
  8
0
 10
10
 20
62.4
 11
10.5358
 21
62.2934
  0
LINE
  8
0
 10
10.5358
 20
62.2934
 11
10.9899
 21
61.9899
  0
LINE
  8
0
 10
10.9899
 20
61.9899
 11
11.2934
 21
61.5358
  0
LINE
  8
0
 10
11.2934
 20
61.5358
 11
11.4
 21
61
  0
LINE
  8
0
 10
11.4
 20
61
 11
11.2934
 21
60.4642
  0
LINE
  8
0
 10
11.2934
 20
60.4642
 11
10.9899
 21
60.01
  0
LINE
  8
0
 10
10.9899
 20
60.01
 11
10.5358
 21
59.7066
  0
LINE
  8
0
 10
10.5358
 20
59.7066
 11
10
 21
59.6
  0
LINE
  8
0
 10
10
 20
59.6
 11
9.46423
 21
59.7066
  0
LINE
  8
0
 10
-17.5
 20
51
 11
-17.5
 21
59
  0
LINE
  8
0
 10
-17.5
 20
59
 11
-14.5
 21
59
  0
LINE
  8
0
 10
-14.5
 20
59
 11
-14.5
 21
51
  0
LINE
  8
0
 10
-14.5
 20
51
 11
-17.5
 21
51
  0
LINE
  8
0
 10
14.5
 20
51
 11
14.5
 21
59
  0
LINE
  8
0
 10
14.5
 20
59
 11
17.5
 21
59
  0
LINE
  8
0
 10
17.5
 20
59
 11
17.5
 21
51
  0
LINE
  8
0
 10
17.5
 20
51
 11
14.5
 21
51
  0
LINE
  8
0
 10
23.3159
 20
39.6345
 11
22.93
 21
39.7944
  0
LINE
  8
0
 10
22.93
 20
39.7944
 11
22.5986
 21
40.0486
  0
LINE
  8
0
 10
22.5986
 20
40.0486
 11
22.3443
 21
40.38
  0
LINE
  8
0
 10
22.3443
 20
40.38
 11
22.1845
 21
40.7659
  0
LINE
  8
0
 10
22.1845
 20
40.7659
 11
22.13
 21
41.18
  0
LINE
  8
0
 10
22.13
 20
41.18
 11
22.1845
 21
41.5941
  0
LINE
  8
0
 10
22.1845
 20
41.5941
 11
22.3443
 21
41.98
  0
LINE
  8
0
 10
22.3443
 20
41.98
 11
22.5986
 21
42.3114
  0
LINE
  8
0
 10
22.5986
 20
42.3114
 11
22.93
 21
42.5656
  0
LINE
  8
0
 10
22.93
 20
42.5656
 11
23.3159
 21
42.7255
  0
LINE
  8
0
 10
23.3159
 20
42.7255
 11
23.73
 21
42.78
  0
LINE
  8
0
 10
23.73
 20
42.78
 11
24.1441
 21
42.7255
  0
LINE
  8
0
 10
24.1441
 20
42.7255
 11
24.53
 21
42.5656
  0
LINE
  8
0
 10
24.53
 20
42.5656
 11
24.8614
 21
42.3114
  0
LINE
  8
0
 10
24.8614
 20
42.3114
 11
25.1156
 21
41.98
  0
LINE
  8
0
 10
25.1156
 20
41.98
 11
25.2755
 21
41.5941
  0
LINE
  8
0
 10
25.2755
 20
41.5941
 11
25.33
 21
41.18
  0
LINE
  8
0
 10
25.33
 20
41.18
 11
25.2755
 21
40.7659
  0
LINE
  8
0
 10
25.2755
 20
40.7659
 11
25.1156
 21
40.38
  0
LINE
  8
0
 10
25.1156
 20
40.38
 11
24.8614
 21
40.0486
  0
LINE
  8
0
 10
24.8614
 20
40.0486
 11
24.53
 21
39.7944
  0
LINE
  8
0
 10
24.53
 20
39.7944
 11
24.1441
 21
39.6345
  0
LINE
  8
0
 10
24.1441
 20
39.6345
 11
23.73
 21
39.58
  0
LINE
  8
0
 10
23.73
 20
39.58
 11
23.3159
 21
39.6345
  0
LINE
  8
0
 10
-24.1441
 20
39.6345
 11
-24.53
 21
39.7944
  0
LINE
  8
0
 10
-24.53
 20
39.7944
 11
-24.8614
 21
40.0486
  0
LINE
  8
0
 10
-24.8614
 20
40.0486
 11
-25.1156
 21
40.38
  0
LINE
  8
0
 10
-25.1156
 20
40.38
 11
-25.2755
 21
40.7659
  0
LINE
  8
0
 10
-25.2755
 20
40.7659
 11
-25.33
 21
41.18
  0
LINE
  8
0
 10
-25.33
 20
41.18
 11
-25.2755
 21
41.5941
  0
LINE
  8
0
 10
-25.2755
 20
41.5941
 11
-25.1156
 21
41.98
  0
LINE
  8
0
 10
-25.1156
 20
41.98
 11
-24.8614
 21
42.3114
  0
LINE
  8
0
 10
-24.8614
 20
42.3114
 11
-24.53
 21
42.5656
  0
LINE
  8
0
 10
-24.53
 20
42.5656
 11
-24.1441
 21
42.7255
  0
LINE
  8
0
 10
-24.1441
 20
42.7255
 11
-23.73
 21
42.78
  0
LINE
  8
0
 10
-23.73
 20
42.78
 11
-23.3159
 21
42.7255
  0
LINE
  8
0
 10
-23.3159
 20
42.7255
 11
-22.93
 21
42.5656
  0
LINE
  8
0
 10
-22.93
 20
42.5656
 11
-22.5986
 21
42.3114
  0
LINE
  8
0
 10
-22.5986
 20
42.3114
 11
-22.3443
 21
41.98
  0
LINE
  8
0
 10
-22.3443
 20
41.98
 11
-22.1845
 21
41.5941
  0
LINE
  8
0
 10
-22.1845
 20
41.5941
 11
-22.13
 21
41.18
  0
LINE
  8
0
 10
-22.13
 20
41.18
 11
-22.1845
 21
40.7659
  0
LINE
  8
0
 10
-22.1845
 20
40.7659
 11
-22.3443
 21
40.38
  0
LINE
  8
0
 10
-22.3443
 20
40.38
 11
-22.5986
 21
40.0486
  0
LINE
  8
0
 10
-22.5986
 20
40.0486
 11
-22.93
 21
39.7944
  0
LINE
  8
0
 10
-22.93
 20
39.7944
 11
-23.3159
 21
39.6345
  0
LINE
  8
0
 10
-23.3159
 20
39.6345
 11
-23.73
 21
39.58
  0
LINE
  8
0
 10
-23.73
 20
39.58
 11
-24.1441
 21
39.6345
  0
ENDSEC
  0
SECTION
  2
OBJECTS
  0
DICTIONARY
  0
ENDSEC
  0
EOF
