0
SECTION
2
HEADER
0
ENDSEC
0
SECTION
2
TABLES
0
ENDSEC
0
SECTION
2
BLOCKS
0
ENDSEC
0
SECTION
2
ENTITIES
0
POLYLINE
8
0
66
1
70
1
0
VERTEX
8
0
10
-28
20
37
30
0
0
VERTEX
8
0
10
28
20
37
30
0
0
VERTEX
8
0
10
28
20
44
30
0
0
VERTEX
8
0
10
27
20
55
30
0
0
VERTEX
8
0
10
28
20
65
30
0
0
VERTEX
8
0
10
30
20
74
30
0
0
VERTEX
8
0
10
32
20
78
30
0
0
VERTEX
8
0
10
32
20
86
30
0
0
VERTEX
8
0
10
31
20
92
30
0
0
VERTEX
8
0
10
26
20
96
30
0
0
VERTEX
8
0
10
0
20
98
30
0
0
VERTEX
8
0
10
-26
20
96
30
0
0
VERTEX
8
0
10
-31
20
92
30
0
0
VERTEX
8
0
10
-32
20
86
30
0
0
VERTEX
8
0
10
-32
20
78
30
0
0
VERTEX
8
0
10
-30
20
74
30
0
0
VERTEX
8
0
10
-28
20
65
30
0
0
VERTEX
8
0
10
-27
20
55
30
0
0
VERTEX
8
0
10
-28
20
44
30
0
0
SEQEND
0
CIRCLE
8
0
10
20.08
20
73.58
40
1.6
0
CIRCLE
8
0
10
-20.08
20
73.58
40
1.6
0
CIRCLE
8
0
10
23.73
20
41.18
40
1.6
0
CIRCLE
8
0
10
-23.73
20
41.18
40
1.6
0
CIRCLE
8
0
10
10
20
91
40
1.4
0
CIRCLE
8
0
10
-10
20
91
40
1.4
0
CIRCLE
8
0
10
10
20
61
40
1.4
0
CIRCLE
8
0
10
-10
20
61
40
1.4
0
CIRCLE
8
0
10
19
20
105
40
1.6
0
CIRCLE
8
0
10
-19
20
105
40
1.6
0
CIRCLE
8
0
10
19
20
67
40
1.6
0
CIRCLE
8
0
10
-19
20
67
40
1.6
0
CIRCLE
8
0
10
0
20
86
40
3.5
0
CIRCLE
8
0
10
0
20
68
40
4.5
0
ENDSEC
0
EOF
