solid OpenSCAD_Model
  facet normal 0 0 -1
    outer loop
      vertex -21.3144 13.1 0
      vertex -11.5 17.9 0
      vertex -21.3144 -13.1 0
    endloop
  endfacet
  facet normal 0 0 -1
    outer loop
      vertex -11.5 17.9 0
      vertex -21.3144 13.1 0
      vertex -21.1 13.9 0
    endloop
  endfacet
  facet normal 0 0 -1
    outer loop
      vertex -21.9 -12.5144 0
      vertex -21.3144 13.1 0
      vertex -21.3144 -13.1 0
    endloop
  endfacet
  facet normal 0 0 -1
    outer loop
      vertex -21.9 -12.5144 0
      vertex -21.9 12.5144 0
      vertex -21.3144 13.1 0
    endloop
  endfacet
  facet normal 0 0 -1
    outer loop
      vertex -22.7 -12.3 0
      vertex -21.9 12.5144 0
      vertex -21.9 -12.5144 0
    endloop
  endfacet
  facet normal 0 0 -1
    outer loop
      vertex -22.7 -12.3 0
      vertex -22.7 12.3 0
      vertex -21.9 12.5144 0
    endloop
  endfacet
  facet normal 0 0 -1
    outer loop
      vertex -23.5 -12.5144 0
      vertex -22.7 12.3 0
      vertex -22.7 -12.3 0
    endloop
  endfacet
  facet normal 0 0 -1
    outer loop
      vertex -23.5 -12.5144 0
      vertex -23.5 12.5144 0
      vertex -22.7 12.3 0
    endloop
  endfacet
  facet normal 0 0 -1
    outer loop
      vertex -24.0856 -13.1 0
      vertex -23.5 12.5144 0
      vertex -23.5 -12.5144 0
    endloop
  endfacet
  facet normal 0 0 -1
    outer loop
      vertex -24.0856 -13.1 0
      vertex -24.0856 13.1 0
      vertex -23.5 12.5144 0
    endloop
  endfacet
  facet normal 0 0 -1
    outer loop
      vertex -28.7 -16.9 0
      vertex -24.0856 -13.1 0
      vertex -24.3 -13.9 0
    endloop
  endfacet
  facet normal -0 0 -1
    outer loop
      vertex -24.0856 -13.1 0
      vertex -28.7 -16.9 0
      vertex -24.0856 13.1 0
    endloop
  endfacet
  facet normal 0 0 -1
    outer loop
      vertex 28.7 16.9 0
      vertex 24.0856 13.1 0
      vertex 24.3 13.9 0
    endloop
  endfacet
  facet normal 0 0 -1
    outer loop
      vertex 24.7 3 0
      vertex 23.5 12.5144 0
      vertex 24.0856 13.1 0
    endloop
  endfacet
  facet normal 0 0 -1
    outer loop
      vertex 24.7 3 0
      vertex 22.7 12.3 0
      vertex 23.5 12.5144 0
    endloop
  endfacet
  facet normal 0 0 -1
    outer loop
      vertex 20.7 3 0
      vertex 22.7 12.3 0
      vertex 24.7 3 0
    endloop
  endfacet
  facet normal -0 0 -1
    outer loop
      vertex 22.7 12.3 0
      vertex 20.7 3 0
      vertex 21.9 12.5144 0
    endloop
  endfacet
  facet normal 0 0 -1
    outer loop
      vertex 11.5 17.9 0
      vertex 21.3144 13.1 0
      vertex 20.7 3 0
    endloop
  endfacet
  facet normal -0 0 -1
    outer loop
      vertex 21.9 12.5144 0
      vertex 20.7 3 0
      vertex 21.3144 13.1 0
    endloop
  endfacet
  facet normal 0 0 -1
    outer loop
      vertex 24.0856 -14.7 0
      vertex 28.7 -16.9 0
      vertex 28.4716 -18.048 0
    endloop
  endfacet
  facet normal 0 0 -1
    outer loop
      vertex 28.7 -16.9 0
      vertex 24.7 -3 0
      vertex 28.7 16.9 0
    endloop
  endfacet
  facet normal 0 0 -1
    outer loop
      vertex 24.0856 -14.7 0
      vertex 28.4716 -18.048 0
      vertex 27.8213 -19.0213 0
    endloop
  endfacet
  facet normal 0 0 -1
    outer loop
      vertex 24.7 3 0
      vertex 28.7 16.9 0
      vertex 24.7 -3 0
    endloop
  endfacet
  facet normal 0 0 -1
    outer loop
      vertex 24.0856 -14.7 0
      vertex 27.8213 -19.0213 0
      vertex 26.8481 -19.6716 0
    endloop
  endfacet
  facet normal 0 0 -1
    outer loop
      vertex 24.0856 13.1 0
      vertex 28.7 16.9 0
      vertex 24.7 3 0
    endloop
  endfacet
  facet normal 0 0 -1
    outer loop
      vertex 23.5 -15.2856 0
      vertex 26.8481 -19.6716 0
      vertex 25.7 -19.9 0
    endloop
  endfacet
  facet normal 0 0 -1
    outer loop
      vertex 24.0856 14.7 0
      vertex 28.7 16.9 0
      vertex 24.3 13.9 0
    endloop
  endfacet
  facet normal -0 0 -1
    outer loop
      vertex 28.7 16.9 0
      vertex 24.0856 14.7 0
      vertex 28.4716 18.048 0
    endloop
  endfacet
  facet normal 0 0 -1
    outer loop
      vertex 28.7 -16.9 0
      vertex 24.3 -13.9 0
      vertex 24.0856 -13.1 0
    endloop
  endfacet
  facet normal 0 0 -1
    outer loop
      vertex 28.7 -16.9 0
      vertex 24.0856 -14.7 0
      vertex 24.3 -13.9 0
    endloop
  endfacet
  facet normal 0 0 -1
    outer loop
      vertex 26.8481 -19.6716 0
      vertex 23.5 -15.2856 0
      vertex 24.0856 -14.7 0
    endloop
  endfacet
  facet normal 0 0 -1
    outer loop
      vertex 25.7 -19.9 0
      vertex 22.7 -15.5 0
      vertex 23.5 -15.2856 0
    endloop
  endfacet
  facet normal 0 0 -1
    outer loop
      vertex 25.7 -19.9 0
      vertex 21.9 -15.2856 0
      vertex 22.7 -15.5 0
    endloop
  endfacet
  facet normal 0 0 -1
    outer loop
      vertex 11.5 -17.9 0
      vertex 21.9 -15.2856 0
      vertex 25.7 -19.9 0
    endloop
  endfacet
  facet normal -0 0 -1
    outer loop
      vertex 20.7 -3 0
      vertex 11.5 -17.9 0
      vertex 20.7 3 0
    endloop
  endfacet
  facet normal -0 0 -1
    outer loop
      vertex 21.3144 -13.1 0
      vertex 11.5 -17.9 0
      vertex 20.7 -3 0
    endloop
  endfacet
  facet normal -0 0 -1
    outer loop
      vertex 21.3144 -14.7 0
      vertex 11.5 -17.9 0
      vertex 21.1 -13.9 0
    endloop
  endfacet
  facet normal -0 0 -1
    outer loop
      vertex 21.9 -15.2856 0
      vertex 11.5 -17.9 0
      vertex 21.3144 -14.7 0
    endloop
  endfacet
  facet normal 0 0 -1
    outer loop
      vertex 25.7 -19.9 0
      vertex 8.5 -17.9 0
      vertex 11.5 -17.9 0
    endloop
  endfacet
  facet normal 0 0 -1
    outer loop
      vertex 8.5 -17.9 0
      vertex -8.5 -17.9 0
      vertex 8.5 17.9 0
    endloop
  endfacet
  facet normal 0 0 -1
    outer loop
      vertex 25.7 -19.9 0
      vertex -8.5 -17.9 0
      vertex 8.5 -17.9 0
    endloop
  endfacet
  facet normal 0 0 -1
    outer loop
      vertex -25.7 -19.9 0
      vertex -8.5 -17.9 0
      vertex 25.7 -19.9 0
    endloop
  endfacet
  facet normal 0 0 -1
    outer loop
      vertex -21.3144 -13.1 0
      vertex -11.5 -17.9 0
      vertex -21.1 -13.9 0
    endloop
  endfacet
  facet normal 0 0 -1
    outer loop
      vertex -11.5 -17.9 0
      vertex -21.3144 -14.7 0
      vertex -21.1 -13.9 0
    endloop
  endfacet
  facet normal 0 0 -1
    outer loop
      vertex -11.5 -17.9 0
      vertex -21.9 -15.2856 0
      vertex -21.3144 -14.7 0
    endloop
  endfacet
  facet normal 0 0 -1
    outer loop
      vertex -25.7 -19.9 0
      vertex -21.9 -15.2856 0
      vertex -11.5 -17.9 0
    endloop
  endfacet
  facet normal -0 0 -1
    outer loop
      vertex -24.0856 -14.7 0
      vertex -28.7 -16.9 0
      vertex -24.3 -13.9 0
    endloop
  endfacet
  facet normal 0 0 -1
    outer loop
      vertex -28.7 -16.9 0
      vertex -24.0856 -14.7 0
      vertex -25.7 -19.9 0
    endloop
  endfacet
  facet normal -0 0 -1
    outer loop
      vertex -23.5 -15.2856 0
      vertex -25.7 -19.9 0
      vertex -24.0856 -14.7 0
    endloop
  endfacet
  facet normal -0 0 -1
    outer loop
      vertex -22.7 -15.5 0
      vertex -25.7 -19.9 0
      vertex -23.5 -15.2856 0
    endloop
  endfacet
  facet normal 0 0 -1
    outer loop
      vertex -21.9 -15.2856 0
      vertex -25.7 -19.9 0
      vertex -22.7 -15.5 0
    endloop
  endfacet
  facet normal -0 0 -1
    outer loop
      vertex -8.5 -17.9 0
      vertex -25.7 -19.9 0
      vertex -11.5 -17.9 0
    endloop
  endfacet
  facet normal -0 0 -1
    outer loop
      vertex 28.4716 18.048 0
      vertex 24.0856 14.7 0
      vertex 27.8213 19.0213 0
    endloop
  endfacet
  facet normal -0 0 -1
    outer loop
      vertex 27.8213 19.0213 0
      vertex 24.0856 14.7 0
      vertex 26.8481 19.6716 0
    endloop
  endfacet
  facet normal 0 0 -1
    outer loop
      vertex 23.5 15.2856 0
      vertex 26.8481 19.6716 0
      vertex 24.0856 14.7 0
    endloop
  endfacet
  facet normal -0 0 -1
    outer loop
      vertex 26.8481 19.6716 0
      vertex 23.5 15.2856 0
      vertex 25.7 19.9 0
    endloop
  endfacet
  facet normal 0 0 -1
    outer loop
      vertex 22.7 15.5 0
      vertex 25.7 19.9 0
      vertex 23.5 15.2856 0
    endloop
  endfacet
  facet normal 0 0 -1
    outer loop
      vertex 21.9 15.2856 0
      vertex 25.7 19.9 0
      vertex 22.7 15.5 0
    endloop
  endfacet
  facet normal 0 0 -1
    outer loop
      vertex 11.5 17.9 0
      vertex 21.9 15.2856 0
      vertex 21.3144 14.7 0
    endloop
  endfacet
  facet normal 0 0 -1
    outer loop
      vertex 11.5 17.9 0
      vertex 20.7 3 0
      vertex 11.5 -17.9 0
    endloop
  endfacet
  facet normal 0 0 -1
    outer loop
      vertex 21.3144 13.1 0
      vertex 11.5 17.9 0
      vertex 21.1 13.9 0
    endloop
  endfacet
  facet normal 0 0 -1
    outer loop
      vertex 21.1 13.9 0
      vertex 11.5 17.9 0
      vertex 21.3144 14.7 0
    endloop
  endfacet
  facet normal 0 0 -1
    outer loop
      vertex 21.9 15.2856 0
      vertex 11.5 17.9 0
      vertex 25.7 19.9 0
    endloop
  endfacet
  facet normal 0 0 -1
    outer loop
      vertex 8.5 17.9 0
      vertex 25.7 19.9 0
      vertex 11.5 17.9 0
    endloop
  endfacet
  facet normal 0 0 -1
    outer loop
      vertex -8.5 17.9 0
      vertex 8.5 17.9 0
      vertex -8.5 -17.9 0
    endloop
  endfacet
  facet normal 0 0 -1
    outer loop
      vertex -8.5 17.9 0
      vertex 25.7 19.9 0
      vertex 8.5 17.9 0
    endloop
  endfacet
  facet normal 0 0 -1
    outer loop
      vertex -25.7 19.9 0
      vertex -8.5 17.9 0
      vertex -11.5 17.9 0
    endloop
  endfacet
  facet normal 0 0 -1
    outer loop
      vertex -11.5 -17.9 0
      vertex -21.3144 -13.1 0
      vertex -11.5 17.9 0
    endloop
  endfacet
  facet normal 0 0 -1
    outer loop
      vertex -21.3144 14.7 0
      vertex -11.5 17.9 0
      vertex -21.1 13.9 0
    endloop
  endfacet
  facet normal 0 0 -1
    outer loop
      vertex -21.9 15.2856 0
      vertex -11.5 17.9 0
      vertex -21.3144 14.7 0
    endloop
  endfacet
  facet normal 0 0 -1
    outer loop
      vertex -25.7 19.9 0
      vertex -21.9 15.2856 0
      vertex -22.7 15.5 0
    endloop
  endfacet
  facet normal 0 0 -1
    outer loop
      vertex -8.5 17.9 0
      vertex -25.7 19.9 0
      vertex 25.7 19.9 0
    endloop
  endfacet
  facet normal 0 0 -1
    outer loop
      vertex -21.9 15.2856 0
      vertex -25.7 19.9 0
      vertex -11.5 17.9 0
    endloop
  endfacet
  facet normal 0 0 -1
    outer loop
      vertex -23.5 15.2856 0
      vertex -25.7 19.9 0
      vertex -22.7 15.5 0
    endloop
  endfacet
  facet normal 0 0 -1
    outer loop
      vertex -26.8481 19.6716 0
      vertex -23.5 15.2856 0
      vertex -24.0856 14.7 0
    endloop
  endfacet
  facet normal 0 0 -1
    outer loop
      vertex -28.7 16.9 0
      vertex -24.0856 14.7 0
      vertex -24.3 13.9 0
    endloop
  endfacet
  facet normal 0 0 -1
    outer loop
      vertex -28.7 16.9 0
      vertex -24.0856 13.1 0
      vertex -28.7 -16.9 0
    endloop
  endfacet
  facet normal 0 0 -1
    outer loop
      vertex -28.7 -16.9 0
      vertex -25.7 -19.9 0
      vertex -26.8481 -19.6716 0
    endloop
  endfacet
  facet normal 0 0 -1
    outer loop
      vertex -24.0856 13.1 0
      vertex -28.7 16.9 0
      vertex -24.3 13.9 0
    endloop
  endfacet
  facet normal 0 0 -1
    outer loop
      vertex -28.7 -16.9 0
      vertex -26.8481 -19.6716 0
      vertex -27.8213 -19.0213 0
    endloop
  endfacet
  facet normal 0 -0 -1
    outer loop
      vertex -28.4716 18.048 0
      vertex -24.0856 14.7 0
      vertex -28.7 16.9 0
    endloop
  endfacet
  facet normal 0 0 -1
    outer loop
      vertex -28.7 -16.9 0
      vertex -27.8213 -19.0213 0
      vertex -28.4716 -18.048 0
    endloop
  endfacet
  facet normal 0 0 -1
    outer loop
      vertex -23.5 15.2856 0
      vertex -26.8481 19.6716 0
      vertex -25.7 19.9 0
    endloop
  endfacet
  facet normal 0 0 -1
    outer loop
      vertex -24.0856 14.7 0
      vertex -27.8213 19.0213 0
      vertex -26.8481 19.6716 0
    endloop
  endfacet
  facet normal 0 0 -1
    outer loop
      vertex -24.0856 14.7 0
      vertex -28.4716 18.048 0
      vertex -27.8213 19.0213 0
    endloop
  endfacet
  facet normal 0 0 -1
    outer loop
      vertex 28.7 -16.9 0
      vertex 24.0856 -13.1 0
      vertex 24.7 -3 0
    endloop
  endfacet
  facet normal 0 0 -1
    outer loop
      vertex 23.5 -12.5144 0
      vertex 24.7 -3 0
      vertex 24.0856 -13.1 0
    endloop
  endfacet
  facet normal 0 0 -1
    outer loop
      vertex 22.7 -12.3 0
      vertex 24.7 -3 0
      vertex 23.5 -12.5144 0
    endloop
  endfacet
  facet normal 0 0 -1
    outer loop
      vertex 20.7 -3 0
      vertex 22.7 -12.3 0
      vertex 21.9 -12.5144 0
    endloop
  endfacet
  facet normal 0 0 -1
    outer loop
      vertex 20.7 -3 0
      vertex 21.9 -12.5144 0
      vertex 21.3144 -13.1 0
    endloop
  endfacet
  facet normal 0 0 -1
    outer loop
      vertex 22.7 -12.3 0
      vertex 20.7 -3 0
      vertex 24.7 -3 0
    endloop
  endfacet
  facet normal 0 0 -1
    outer loop
      vertex 11.5 -17.9 0
      vertex 21.3144 -13.1 0
      vertex 21.1 -13.9 0
    endloop
  endfacet
  facet normal 1 0 0
    outer loop
      vertex -11.5 -13.15 13
      vertex -11.5 -17.9 13
      vertex -11.5 -13.15 1.9
    endloop
  endfacet
  facet normal 1 0 0
    outer loop
      vertex -11.5 13.15 1.9
      vertex -11.5 17.9 13
      vertex -11.5 13.15 13
    endloop
  endfacet
  facet normal 1 0 0
    outer loop
      vertex -11.5 17.9 13
      vertex -11.5 13.15 1.9
      vertex -11.5 17.9 0
    endloop
  endfacet
  facet normal 1 -0 0
    outer loop
      vertex -11.5 -13.15 1.9
      vertex -11.5 17.9 0
      vertex -11.5 13.15 1.9
    endloop
  endfacet
  facet normal 1 0 0
    outer loop
      vertex -11.5 -13.15 1.9
      vertex -11.5 -17.9 0
      vertex -11.5 17.9 0
    endloop
  endfacet
  facet normal 1 0 0
    outer loop
      vertex -11.5 -17.9 0
      vertex -11.5 -13.15 1.9
      vertex -11.5 -17.9 13
    endloop
  endfacet
  facet normal 0 -1 0
    outer loop
      vertex -11.5 17.9 0
      vertex -8.5 17.9 13
      vertex -11.5 17.9 13
    endloop
  endfacet
  facet normal 0 -1 -0
    outer loop
      vertex -8.5 17.9 13
      vertex -11.5 17.9 0
      vertex -8.5 17.9 0
    endloop
  endfacet
  facet normal -1 0 0
    outer loop
      vertex -8.5 17.9 0
      vertex -8.5 13.15 1.9
      vertex -8.5 17.9 13
    endloop
  endfacet
  facet normal -1 0 0
    outer loop
      vertex -8.5 17.9 0
      vertex -8.5 -13.15 1.9
      vertex -8.5 13.15 1.9
    endloop
  endfacet
  facet normal -1 0 0
    outer loop
      vertex -8.5 -17.9 0
      vertex -8.5 -13.15 1.9
      vertex -8.5 17.9 0
    endloop
  endfacet
  facet normal -1 0 0
    outer loop
      vertex -8.5 -17.9 13
      vertex -8.5 -13.15 1.9
      vertex -8.5 -17.9 0
    endloop
  endfacet
  facet normal -1 0 0
    outer loop
      vertex -8.5 -13.15 1.9
      vertex -8.5 -17.9 13
      vertex -8.5 -13.15 13
    endloop
  endfacet
  facet normal -1 -0 0
    outer loop
      vertex -8.5 17.9 13
      vertex -8.5 13.15 1.9
      vertex -8.5 13.15 13
    endloop
  endfacet
  facet normal 0 1 -0
    outer loop
      vertex -8.5 -17.9 0
      vertex -11.5 -17.9 13
      vertex -8.5 -17.9 13
    endloop
  endfacet
  facet normal 0 1 0
    outer loop
      vertex -11.5 -17.9 13
      vertex -8.5 -17.9 0
      vertex -11.5 -17.9 0
    endloop
  endfacet
  facet normal 1 0 0
    outer loop
      vertex 8.5 -13.15 13
      vertex 8.5 -17.9 13
      vertex 8.5 -13.15 1.9
    endloop
  endfacet
  facet normal 1 0 0
    outer loop
      vertex 8.5 13.15 1.9
      vertex 8.5 17.9 13
      vertex 8.5 13.15 13
    endloop
  endfacet
  facet normal 1 0 0
    outer loop
      vertex 8.5 17.9 13
      vertex 8.5 13.15 1.9
      vertex 8.5 17.9 0
    endloop
  endfacet
  facet normal 1 -0 0
    outer loop
      vertex 8.5 -13.15 1.9
      vertex 8.5 17.9 0
      vertex 8.5 13.15 1.9
    endloop
  endfacet
  facet normal 1 0 0
    outer loop
      vertex 8.5 -13.15 1.9
      vertex 8.5 -17.9 0
      vertex 8.5 17.9 0
    endloop
  endfacet
  facet normal 1 0 0
    outer loop
      vertex 8.5 -17.9 0
      vertex 8.5 -13.15 1.9
      vertex 8.5 -17.9 13
    endloop
  endfacet
  facet normal 0 -1 0
    outer loop
      vertex 8.5 17.9 0
      vertex 11.5 17.9 13
      vertex 8.5 17.9 13
    endloop
  endfacet
  facet normal 0 -1 -0
    outer loop
      vertex 11.5 17.9 13
      vertex 8.5 17.9 0
      vertex 11.5 17.9 0
    endloop
  endfacet
  facet normal -1 0 0
    outer loop
      vertex 11.5 17.9 0
      vertex 11.5 13.15 1.9
      vertex 11.5 17.9 13
    endloop
  endfacet
  facet normal -1 0 0
    outer loop
      vertex 11.5 17.9 0
      vertex 11.5 -13.15 1.9
      vertex 11.5 13.15 1.9
    endloop
  endfacet
  facet normal -1 0 0
    outer loop
      vertex 11.5 -17.9 0
      vertex 11.5 -13.15 1.9
      vertex 11.5 17.9 0
    endloop
  endfacet
  facet normal -1 0 0
    outer loop
      vertex 11.5 -17.9 13
      vertex 11.5 -13.15 1.9
      vertex 11.5 -17.9 0
    endloop
  endfacet
  facet normal -1 0 0
    outer loop
      vertex 11.5 -13.15 1.9
      vertex 11.5 -17.9 13
      vertex 11.5 -13.15 13
    endloop
  endfacet
  facet normal -1 -0 0
    outer loop
      vertex 11.5 17.9 13
      vertex 11.5 13.15 1.9
      vertex 11.5 13.15 13
    endloop
  endfacet
  facet normal 0 1 -0
    outer loop
      vertex 11.5 -17.9 0
      vertex 8.5 -17.9 13
      vertex 11.5 -17.9 13
    endloop
  endfacet
  facet normal 0 1 0
    outer loop
      vertex 8.5 -17.9 13
      vertex 11.5 -17.9 0
      vertex 8.5 -17.9 0
    endloop
  endfacet
  facet normal -0.707107 -0.707107 0
    outer loop
      vertex -21.9 -12.5144 0
      vertex -21.3144 -13.1 1.9
      vertex -21.9 -12.5144 1.9
    endloop
  endfacet
  facet normal -0.707107 -0.707107 -0
    outer loop
      vertex -21.3144 -13.1 1.9
      vertex -21.9 -12.5144 0
      vertex -21.3144 -13.1 0
    endloop
  endfacet
  facet normal -0.965914 -0.258865 0
    outer loop
      vertex -21.3144 -13.1 0
      vertex -21.301 -13.15 1.9
      vertex -21.3144 -13.1 1.9
    endloop
  endfacet
  facet normal -0.965914 -0.258865 3.52756e-16
    outer loop
      vertex -21.1 -13.9 0
      vertex -21.301 -13.15 1.9
      vertex -21.3144 -13.1 0
    endloop
  endfacet
  facet normal -0.965914 -0.258865 -0
    outer loop
      vertex -21.1 -13.9 2.3
      vertex -21.301 -13.15 1.9
      vertex -21.1 -13.9 0
    endloop
  endfacet
  facet normal -0.965914 -0.258865 0
    outer loop
      vertex -21.301 -13.15 1.9
      vertex -21.1 -13.9 2.3
      vertex -21.301 -13.15 2.3
    endloop
  endfacet
  facet normal -0.258865 -0.965914 0
    outer loop
      vertex -22.7 -12.3 2.3
      vertex -21.95 -12.501 1.9
      vertex -21.95 -12.501 2.3
    endloop
  endfacet
  facet normal -0.258865 -0.965914 0
    outer loop
      vertex -22.7 -12.3 0
      vertex -21.95 -12.501 1.9
      vertex -22.7 -12.3 2.3
    endloop
  endfacet
  facet normal -0.258865 -0.965914 3.04252e-16
    outer loop
      vertex -21.9 -12.5144 0
      vertex -21.95 -12.501 1.9
      vertex -22.7 -12.3 0
    endloop
  endfacet
  facet normal -0.258865 -0.965914 0
    outer loop
      vertex -21.95 -12.501 1.9
      vertex -21.9 -12.5144 0
      vertex -21.9 -12.5144 1.9
    endloop
  endfacet
  facet normal 0 0 -1
    outer loop
      vertex -21.95 -13.15 2.3
      vertex -21.1 -13.9 2.3
      vertex -21.3144 -14.7 2.3
    endloop
  endfacet
  facet normal 0 0 -1
    outer loop
      vertex -21.95 -13.15 2.3
      vertex -21.3144 -14.7 2.3
      vertex -21.9 -15.2856 2.3
    endloop
  endfacet
  facet normal 0 0 -1
    outer loop
      vertex -21.1 -13.9 2.3
      vertex -21.95 -13.15 2.3
      vertex -21.301 -13.15 2.3
    endloop
  endfacet
  facet normal 0 0 -1
    outer loop
      vertex -22.7 -15.5 2.3
      vertex -21.95 -13.15 2.3
      vertex -21.9 -15.2856 2.3
    endloop
  endfacet
  facet normal 0 0 -1
    outer loop
      vertex -23.5 -15.2856 2.3
      vertex -21.95 -13.15 2.3
      vertex -22.7 -15.5 2.3
    endloop
  endfacet
  facet normal 0 0 -1
    outer loop
      vertex -24.0856 -14.7 2.3
      vertex -21.95 -13.15 2.3
      vertex -23.5 -15.2856 2.3
    endloop
  endfacet
  facet normal 0 -0 -1
    outer loop
      vertex -22.7 -12.3 2.3
      vertex -21.95 -13.15 2.3
      vertex -23.5 -12.5144 2.3
    endloop
  endfacet
  facet normal 0 0 -1
    outer loop
      vertex -21.95 -13.15 2.3
      vertex -22.7 -12.3 2.3
      vertex -21.95 -12.501 2.3
    endloop
  endfacet
  facet normal 0 0 -1
    outer loop
      vertex -24.3 -13.9 2.3
      vertex -21.95 -13.15 2.3
      vertex -24.0856 -14.7 2.3
    endloop
  endfacet
  facet normal 0 0 -1
    outer loop
      vertex -21.95 -13.15 2.3
      vertex -24.0856 -13.1 2.3
      vertex -23.5 -12.5144 2.3
    endloop
  endfacet
  facet normal -0 0 -1
    outer loop
      vertex -21.95 -13.15 2.3
      vertex -24.3 -13.9 2.3
      vertex -24.0856 -13.1 2.3
    endloop
  endfacet
  facet normal -0.965914 0.258865 0
    outer loop
      vertex -21.3144 -14.7 0
      vertex -21.1 -13.9 2.3
      vertex -21.1 -13.9 0
    endloop
  endfacet
  facet normal -0.965914 0.258865 0
    outer loop
      vertex -21.1 -13.9 2.3
      vertex -21.3144 -14.7 0
      vertex -21.3144 -14.7 2.3
    endloop
  endfacet
  facet normal 0.707107 -0.707107 0
    outer loop
      vertex -24.0856 -13.1 2.3
      vertex -23.5 -12.5144 0
      vertex -23.5 -12.5144 2.3
    endloop
  endfacet
  facet normal 0.707107 -0.707107 0
    outer loop
      vertex -23.5 -12.5144 0
      vertex -24.0856 -13.1 2.3
      vertex -24.0856 -13.1 0
    endloop
  endfacet
  facet normal 0.258865 0.965914 -0
    outer loop
      vertex -22.7 -15.5 0
      vertex -23.5 -15.2856 2.3
      vertex -22.7 -15.5 2.3
    endloop
  endfacet
  facet normal 0.258865 0.965914 0
    outer loop
      vertex -23.5 -15.2856 2.3
      vertex -22.7 -15.5 0
      vertex -23.5 -15.2856 0
    endloop
  endfacet
  facet normal 0.965914 -0.258865 0
    outer loop
      vertex -24.3 -13.9 2.3
      vertex -24.0856 -13.1 0
      vertex -24.0856 -13.1 2.3
    endloop
  endfacet
  facet normal 0.965914 -0.258865 0
    outer loop
      vertex -24.0856 -13.1 0
      vertex -24.3 -13.9 2.3
      vertex -24.3 -13.9 0
    endloop
  endfacet
  facet normal -0.707107 0.707107 0
    outer loop
      vertex -21.3144 -14.7 0
      vertex -21.9 -15.2856 2.3
      vertex -21.3144 -14.7 2.3
    endloop
  endfacet
  facet normal -0.707107 0.707107 0
    outer loop
      vertex -21.9 -15.2856 2.3
      vertex -21.3144 -14.7 0
      vertex -21.9 -15.2856 0
    endloop
  endfacet
  facet normal 0.258865 -0.965914 0
    outer loop
      vertex -23.5 -12.5144 0
      vertex -22.7 -12.3 2.3
      vertex -23.5 -12.5144 2.3
    endloop
  endfacet
  facet normal 0.258865 -0.965914 0
    outer loop
      vertex -22.7 -12.3 2.3
      vertex -23.5 -12.5144 0
      vertex -22.7 -12.3 0
    endloop
  endfacet
  facet normal -0.258865 0.965914 0
    outer loop
      vertex -21.9 -15.2856 0
      vertex -22.7 -15.5 2.3
      vertex -21.9 -15.2856 2.3
    endloop
  endfacet
  facet normal -0.258865 0.965914 0
    outer loop
      vertex -22.7 -15.5 2.3
      vertex -21.9 -15.2856 0
      vertex -22.7 -15.5 0
    endloop
  endfacet
  facet normal 0.707107 0.707107 0
    outer loop
      vertex -23.5 -15.2856 2.3
      vertex -24.0856 -14.7 0
      vertex -24.0856 -14.7 2.3
    endloop
  endfacet
  facet normal 0.707107 0.707107 0
    outer loop
      vertex -24.0856 -14.7 0
      vertex -23.5 -15.2856 2.3
      vertex -23.5 -15.2856 0
    endloop
  endfacet
  facet normal 0.965914 0.258865 0
    outer loop
      vertex -24.0856 -14.7 2.3
      vertex -24.3 -13.9 0
      vertex -24.3 -13.9 2.3
    endloop
  endfacet
  facet normal 0.965914 0.258865 0
    outer loop
      vertex -24.3 -13.9 0
      vertex -24.0856 -14.7 2.3
      vertex -24.0856 -14.7 0
    endloop
  endfacet
  facet normal -0.707107 -0.707107 0
    outer loop
      vertex -21.9 15.2856 0
      vertex -21.3144 14.7 2.3
      vertex -21.9 15.2856 2.3
    endloop
  endfacet
  facet normal -0.707107 -0.707107 -0
    outer loop
      vertex -21.3144 14.7 2.3
      vertex -21.9 15.2856 0
      vertex -21.3144 14.7 0
    endloop
  endfacet
  facet normal -0.965914 -0.258865 0
    outer loop
      vertex -21.1 13.9 0
      vertex -21.3144 14.7 2.3
      vertex -21.3144 14.7 0
    endloop
  endfacet
  facet normal -0.965914 -0.258865 0
    outer loop
      vertex -21.3144 14.7 2.3
      vertex -21.1 13.9 0
      vertex -21.1 13.9 2.3
    endloop
  endfacet
  facet normal -0.258865 -0.965914 0
    outer loop
      vertex -22.7 15.5 0
      vertex -21.9 15.2856 2.3
      vertex -22.7 15.5 2.3
    endloop
  endfacet
  facet normal -0.258865 -0.965914 -0
    outer loop
      vertex -21.9 15.2856 2.3
      vertex -22.7 15.5 0
      vertex -21.9 15.2856 0
    endloop
  endfacet
  facet normal -0.965914 0.258865 0
    outer loop
      vertex -21.1 13.9 0
      vertex -21.301 13.15 1.9
      vertex -21.1 13.9 2.3
    endloop
  endfacet
  facet normal -0.965914 0.258865 3.61575e-16
    outer loop
      vertex -21.3144 13.1 0
      vertex -21.301 13.15 1.9
      vertex -21.1 13.9 0
    endloop
  endfacet
  facet normal -0.965914 0.258865 0
    outer loop
      vertex -21.301 13.15 1.9
      vertex -21.3144 13.1 0
      vertex -21.3144 13.1 1.9
    endloop
  endfacet
  facet normal -0.965914 0.258865 0
    outer loop
      vertex -21.1 13.9 2.3
      vertex -21.301 13.15 1.9
      vertex -21.301 13.15 2.3
    endloop
  endfacet
  facet normal 0.965914 -0.258865 0
    outer loop
      vertex -24.3 13.9 2.3
      vertex -24.0856 14.7 0
      vertex -24.0856 14.7 2.3
    endloop
  endfacet
  facet normal 0.965914 -0.258865 0
    outer loop
      vertex -24.0856 14.7 0
      vertex -24.3 13.9 2.3
      vertex -24.3 13.9 0
    endloop
  endfacet
  facet normal -0.258865 0.965914 0
    outer loop
      vertex -21.9 12.5144 1.9
      vertex -21.9 12.5144 0
      vertex -21.95 12.501 1.9
    endloop
  endfacet
  facet normal -0.258865 0.965914 0
    outer loop
      vertex -21.95 12.501 1.9
      vertex -22.7 12.3 2.3
      vertex -21.95 12.501 2.3
    endloop
  endfacet
  facet normal -0.258865 0.965914 2.99843e-16
    outer loop
      vertex -22.7 12.3 0
      vertex -21.95 12.501 1.9
      vertex -21.9 12.5144 0
    endloop
  endfacet
  facet normal -0.258865 0.965914 0
    outer loop
      vertex -21.95 12.501 1.9
      vertex -22.7 12.3 0
      vertex -22.7 12.3 2.3
    endloop
  endfacet
  facet normal 0.258865 -0.965914 0
    outer loop
      vertex -23.5 15.2856 0
      vertex -22.7 15.5 2.3
      vertex -23.5 15.2856 2.3
    endloop
  endfacet
  facet normal 0.258865 -0.965914 0
    outer loop
      vertex -22.7 15.5 2.3
      vertex -23.5 15.2856 0
      vertex -22.7 15.5 0
    endloop
  endfacet
  facet normal 0.707107 -0.707107 0
    outer loop
      vertex -24.0856 14.7 2.3
      vertex -23.5 15.2856 0
      vertex -23.5 15.2856 2.3
    endloop
  endfacet
  facet normal 0.707107 -0.707107 0
    outer loop
      vertex -23.5 15.2856 0
      vertex -24.0856 14.7 2.3
      vertex -24.0856 14.7 0
    endloop
  endfacet
  facet normal -0.707107 0.707107 0
    outer loop
      vertex -21.3144 13.1 0
      vertex -21.9 12.5144 1.9
      vertex -21.3144 13.1 1.9
    endloop
  endfacet
  facet normal -0.707107 0.707107 0
    outer loop
      vertex -21.9 12.5144 1.9
      vertex -21.3144 13.1 0
      vertex -21.9 12.5144 0
    endloop
  endfacet
  facet normal 0.707107 0.707107 0
    outer loop
      vertex -23.5 12.5144 2.3
      vertex -24.0856 13.1 0
      vertex -24.0856 13.1 2.3
    endloop
  endfacet
  facet normal 0.707107 0.707107 0
    outer loop
      vertex -24.0856 13.1 0
      vertex -23.5 12.5144 2.3
      vertex -23.5 12.5144 0
    endloop
  endfacet
  facet normal -0 0 -1
    outer loop
      vertex -21.95 12.501 2.3
      vertex -22.7 12.3 2.3
      vertex -21.95 13.15 2.3
    endloop
  endfacet
  facet normal 0 0 -1
    outer loop
      vertex -21.95 13.15 2.3
      vertex -21.1 13.9 2.3
      vertex -21.301 13.15 2.3
    endloop
  endfacet
  facet normal -0 0 -1
    outer loop
      vertex -21.1 13.9 2.3
      vertex -21.95 13.15 2.3
      vertex -21.3144 14.7 2.3
    endloop
  endfacet
  facet normal -0 0 -1
    outer loop
      vertex -21.3144 14.7 2.3
      vertex -21.95 13.15 2.3
      vertex -21.9 15.2856 2.3
    endloop
  endfacet
  facet normal 0 0 -1
    outer loop
      vertex -23.5 12.5144 2.3
      vertex -21.95 13.15 2.3
      vertex -22.7 12.3 2.3
    endloop
  endfacet
  facet normal 0 0 -1
    outer loop
      vertex -21.95 13.15 2.3
      vertex -22.7 15.5 2.3
      vertex -21.9 15.2856 2.3
    endloop
  endfacet
  facet normal 0 0 -1
    outer loop
      vertex -24.0856 13.1 2.3
      vertex -21.95 13.15 2.3
      vertex -23.5 12.5144 2.3
    endloop
  endfacet
  facet normal 0 0 -1
    outer loop
      vertex -21.95 13.15 2.3
      vertex -23.5 15.2856 2.3
      vertex -22.7 15.5 2.3
    endloop
  endfacet
  facet normal 0 0 -1
    outer loop
      vertex -24.3 13.9 2.3
      vertex -21.95 13.15 2.3
      vertex -24.0856 13.1 2.3
    endloop
  endfacet
  facet normal 0 0 -1
    outer loop
      vertex -21.95 13.15 2.3
      vertex -24.0856 14.7 2.3
      vertex -23.5 15.2856 2.3
    endloop
  endfacet
  facet normal 0 0 -1
    outer loop
      vertex -21.95 13.15 2.3
      vertex -24.3 13.9 2.3
      vertex -24.0856 14.7 2.3
    endloop
  endfacet
  facet normal 0.258865 0.965914 -0
    outer loop
      vertex -22.7 12.3 0
      vertex -23.5 12.5144 2.3
      vertex -22.7 12.3 2.3
    endloop
  endfacet
  facet normal 0.258865 0.965914 0
    outer loop
      vertex -23.5 12.5144 2.3
      vertex -22.7 12.3 0
      vertex -23.5 12.5144 0
    endloop
  endfacet
  facet normal 0.965914 0.258865 0
    outer loop
      vertex -24.0856 13.1 2.3
      vertex -24.3 13.9 0
      vertex -24.3 13.9 2.3
    endloop
  endfacet
  facet normal 0.965914 0.258865 0
    outer loop
      vertex -24.3 13.9 0
      vertex -24.0856 13.1 2.3
      vertex -24.0856 13.1 0
    endloop
  endfacet
  facet normal 0.707107 -0.707107 0
    outer loop
      vertex 21.3144 -13.1 0
      vertex 21.9 -12.5144 1.9
      vertex 21.3144 -13.1 1.9
    endloop
  endfacet
  facet normal 0.707107 -0.707107 0
    outer loop
      vertex 21.9 -12.5144 1.9
      vertex 21.3144 -13.1 0
      vertex 21.9 -12.5144 0
    endloop
  endfacet
  facet normal -0.707107 -0.707107 0
    outer loop
      vertex 24.0856 -13.1 0
      vertex 23.5 -12.5144 2.3
      vertex 23.5 -12.5144 0
    endloop
  endfacet
  facet normal -0.707107 -0.707107 0
    outer loop
      vertex 23.5 -12.5144 2.3
      vertex 24.0856 -13.1 0
      vertex 24.0856 -13.1 2.3
    endloop
  endfacet
  facet normal -0.965914 -0.258865 0
    outer loop
      vertex 24.3 -13.9 0
      vertex 24.0856 -13.1 2.3
      vertex 24.0856 -13.1 0
    endloop
  endfacet
  facet normal -0.965914 -0.258865 0
    outer loop
      vertex 24.0856 -13.1 2.3
      vertex 24.3 -13.9 0
      vertex 24.3 -13.9 2.3
    endloop
  endfacet
  facet normal 0 0 -1
    outer loop
      vertex 21.95 -13.15 2.3
      vertex 24.3 -13.9 2.3
      vertex 24.0856 -14.7 2.3
    endloop
  endfacet
  facet normal 0 0 -1
    outer loop
      vertex 21.95 -13.15 2.3
      vertex 24.0856 -14.7 2.3
      vertex 23.5 -15.2856 2.3
    endloop
  endfacet
  facet normal 0 0 -1
    outer loop
      vertex 24.3 -13.9 2.3
      vertex 21.95 -13.15 2.3
      vertex 24.0856 -13.1 2.3
    endloop
  endfacet
  facet normal 0 0 -1
    outer loop
      vertex 21.95 -13.15 2.3
      vertex 23.5 -15.2856 2.3
      vertex 22.7 -15.5 2.3
    endloop
  endfacet
  facet normal -0 0 -1
    outer loop
      vertex 24.0856 -13.1 2.3
      vertex 21.95 -13.15 2.3
      vertex 23.5 -12.5144 2.3
    endloop
  endfacet
  facet normal -0 0 -1
    outer loop
      vertex 23.5 -12.5144 2.3
      vertex 21.95 -13.15 2.3
      vertex 22.7 -12.3 2.3
    endloop
  endfacet
  facet normal 0 0 -1
    outer loop
      vertex 21.9 -15.2856 2.3
      vertex 21.95 -13.15 2.3
      vertex 22.7 -15.5 2.3
    endloop
  endfacet
  facet normal 0 0 -1
    outer loop
      vertex 21.3144 -14.7 2.3
      vertex 21.95 -13.15 2.3
      vertex 21.9 -15.2856 2.3
    endloop
  endfacet
  facet normal 0 0 -1
    outer loop
      vertex 21.1 -13.9 2.3
      vertex 21.95 -13.15 2.3
      vertex 21.3144 -14.7 2.3
    endloop
  endfacet
  facet normal -0 0 -1
    outer loop
      vertex 21.95 -13.15 2.3
      vertex 21.1 -13.9 2.3
      vertex 21.301 -13.15 2.3
    endloop
  endfacet
  facet normal 0 0 -1
    outer loop
      vertex 22.7 -12.3 2.3
      vertex 21.95 -13.15 2.3
      vertex 21.95 -12.501 2.3
    endloop
  endfacet
  facet normal 0.258865 0.965914 -0
    outer loop
      vertex 22.7 -15.5 0
      vertex 21.9 -15.2856 2.3
      vertex 22.7 -15.5 2.3
    endloop
  endfacet
  facet normal 0.258865 0.965914 0
    outer loop
      vertex 21.9 -15.2856 2.3
      vertex 22.7 -15.5 0
      vertex 21.9 -15.2856 0
    endloop
  endfacet
  facet normal -0.258865 -0.965914 0
    outer loop
      vertex 22.7 -12.3 0
      vertex 23.5 -12.5144 2.3
      vertex 22.7 -12.3 2.3
    endloop
  endfacet
  facet normal -0.258865 -0.965914 -0
    outer loop
      vertex 23.5 -12.5144 2.3
      vertex 22.7 -12.3 0
      vertex 23.5 -12.5144 0
    endloop
  endfacet
  facet normal 0.965914 -0.258865 0
    outer loop
      vertex 21.301 -13.15 2.3
      vertex 21.1 -13.9 2.3
      vertex 21.301 -13.15 1.9
    endloop
  endfacet
  facet normal 0.965914 -0.258865 0
    outer loop
      vertex 21.301 -13.15 1.9
      vertex 21.3144 -13.1 0
      vertex 21.3144 -13.1 1.9
    endloop
  endfacet
  facet normal 0.965914 -0.258865 0
    outer loop
      vertex 21.1 -13.9 0
      vertex 21.301 -13.15 1.9
      vertex 21.1 -13.9 2.3
    endloop
  endfacet
  facet normal 0.965914 -0.258865 3.60473e-16
    outer loop
      vertex 21.301 -13.15 1.9
      vertex 21.1 -13.9 0
      vertex 21.3144 -13.1 0
    endloop
  endfacet
  facet normal -0.707107 0.707107 0
    outer loop
      vertex 23.5 -15.2856 0
      vertex 24.0856 -14.7 2.3
      vertex 24.0856 -14.7 0
    endloop
  endfacet
  facet normal -0.707107 0.707107 0
    outer loop
      vertex 24.0856 -14.7 2.3
      vertex 23.5 -15.2856 0
      vertex 23.5 -15.2856 2.3
    endloop
  endfacet
  facet normal -0.965914 0.258865 0
    outer loop
      vertex 24.0856 -14.7 0
      vertex 24.3 -13.9 2.3
      vertex 24.3 -13.9 0
    endloop
  endfacet
  facet normal -0.965914 0.258865 0
    outer loop
      vertex 24.3 -13.9 2.3
      vertex 24.0856 -14.7 0
      vertex 24.0856 -14.7 2.3
    endloop
  endfacet
  facet normal 0.258865 -0.965914 0
    outer loop
      vertex 21.9 -12.5144 1.9
      vertex 21.9 -12.5144 0
      vertex 21.95 -12.501 1.9
    endloop
  endfacet
  facet normal 0.258865 -0.965914 0
    outer loop
      vertex 21.95 -12.501 1.9
      vertex 22.7 -12.3 2.3
      vertex 21.95 -12.501 2.3
    endloop
  endfacet
  facet normal 0.258865 -0.965914 2.99843e-16
    outer loop
      vertex 22.7 -12.3 0
      vertex 21.95 -12.501 1.9
      vertex 21.9 -12.5144 0
    endloop
  endfacet
  facet normal 0.258865 -0.965914 0
    outer loop
      vertex 21.95 -12.501 1.9
      vertex 22.7 -12.3 0
      vertex 22.7 -12.3 2.3
    endloop
  endfacet
  facet normal -0.258865 0.965914 0
    outer loop
      vertex 23.5 -15.2856 0
      vertex 22.7 -15.5 2.3
      vertex 23.5 -15.2856 2.3
    endloop
  endfacet
  facet normal -0.258865 0.965914 0
    outer loop
      vertex 22.7 -15.5 2.3
      vertex 23.5 -15.2856 0
      vertex 22.7 -15.5 0
    endloop
  endfacet
  facet normal 0.707107 0.707107 -0
    outer loop
      vertex 21.9 -15.2856 0
      vertex 21.3144 -14.7 2.3
      vertex 21.9 -15.2856 2.3
    endloop
  endfacet
  facet normal 0.707107 0.707107 0
    outer loop
      vertex 21.3144 -14.7 2.3
      vertex 21.9 -15.2856 0
      vertex 21.3144 -14.7 0
    endloop
  endfacet
  facet normal 0.965914 0.258865 0
    outer loop
      vertex 21.3144 -14.7 2.3
      vertex 21.1 -13.9 0
      vertex 21.1 -13.9 2.3
    endloop
  endfacet
  facet normal 0.965914 0.258865 0
    outer loop
      vertex 21.1 -13.9 0
      vertex 21.3144 -14.7 2.3
      vertex 21.3144 -14.7 0
    endloop
  endfacet
  facet normal -0.707107 -0.707107 0
    outer loop
      vertex 24.0856 14.7 0
      vertex 23.5 15.2856 2.3
      vertex 23.5 15.2856 0
    endloop
  endfacet
  facet normal -0.707107 -0.707107 0
    outer loop
      vertex 23.5 15.2856 2.3
      vertex 24.0856 14.7 0
      vertex 24.0856 14.7 2.3
    endloop
  endfacet
  facet normal -0.965914 -0.258865 0
    outer loop
      vertex 24.3 13.9 0
      vertex 24.0856 14.7 2.3
      vertex 24.0856 14.7 0
    endloop
  endfacet
  facet normal -0.965914 -0.258865 0
    outer loop
      vertex 24.0856 14.7 2.3
      vertex 24.3 13.9 0
      vertex 24.3 13.9 2.3
    endloop
  endfacet
  facet normal -0.258865 -0.965914 0
    outer loop
      vertex 22.7 15.5 0
      vertex 23.5 15.2856 2.3
      vertex 22.7 15.5 2.3
    endloop
  endfacet
  facet normal -0.258865 -0.965914 -0
    outer loop
      vertex 23.5 15.2856 2.3
      vertex 22.7 15.5 0
      vertex 23.5 15.2856 0
    endloop
  endfacet
  facet normal 0.258865 -0.965914 0
    outer loop
      vertex 21.9 15.2856 0
      vertex 22.7 15.5 2.3
      vertex 21.9 15.2856 2.3
    endloop
  endfacet
  facet normal 0.258865 -0.965914 0
    outer loop
      vertex 22.7 15.5 2.3
      vertex 21.9 15.2856 0
      vertex 22.7 15.5 0
    endloop
  endfacet
  facet normal -0.258865 0.965914 0
    outer loop
      vertex 23.5 12.5144 0
      vertex 22.7 12.3 2.3
      vertex 23.5 12.5144 2.3
    endloop
  endfacet
  facet normal -0.258865 0.965914 0
    outer loop
      vertex 22.7 12.3 2.3
      vertex 23.5 12.5144 0
      vertex 22.7 12.3 0
    endloop
  endfacet
  facet normal 0.965914 -0.258865 0
    outer loop
      vertex 21.1 13.9 2.3
      vertex 21.3144 14.7 0
      vertex 21.3144 14.7 2.3
    endloop
  endfacet
  facet normal 0.965914 -0.258865 0
    outer loop
      vertex 21.3144 14.7 0
      vertex 21.1 13.9 2.3
      vertex 21.1 13.9 0
    endloop
  endfacet
  facet normal 0 0 -1
    outer loop
      vertex 21.95 13.15 2.3
      vertex 24.3 13.9 2.3
      vertex 24.0856 13.1 2.3
    endloop
  endfacet
  facet normal 0 0 -1
    outer loop
      vertex 21.95 13.15 2.3
      vertex 24.0856 13.1 2.3
      vertex 23.5 12.5144 2.3
    endloop
  endfacet
  facet normal -0 0 -1
    outer loop
      vertex 24.3 13.9 2.3
      vertex 21.95 13.15 2.3
      vertex 24.0856 14.7 2.3
    endloop
  endfacet
  facet normal 0 0 -1
    outer loop
      vertex 21.95 13.15 2.3
      vertex 23.5 12.5144 2.3
      vertex 22.7 12.3 2.3
    endloop
  endfacet
  facet normal -0 0 -1
    outer loop
      vertex 24.0856 14.7 2.3
      vertex 21.95 13.15 2.3
      vertex 23.5 15.2856 2.3
    endloop
  endfacet
  facet normal 0 0 -1
    outer loop
      vertex 21.95 13.15 2.3
      vertex 22.7 12.3 2.3
      vertex 21.95 12.501 2.3
    endloop
  endfacet
  facet normal -0 0 -1
    outer loop
      vertex 23.5 15.2856 2.3
      vertex 21.95 13.15 2.3
      vertex 22.7 15.5 2.3
    endloop
  endfacet
  facet normal 0 0 -1
    outer loop
      vertex 21.95 13.15 2.3
      vertex 21.9 15.2856 2.3
      vertex 22.7 15.5 2.3
    endloop
  endfacet
  facet normal 0 0 -1
    outer loop
      vertex 21.95 13.15 2.3
      vertex 21.3144 14.7 2.3
      vertex 21.9 15.2856 2.3
    endloop
  endfacet
  facet normal 0 0 -1
    outer loop
      vertex 21.1 13.9 2.3
      vertex 21.95 13.15 2.3
      vertex 21.301 13.15 2.3
    endloop
  endfacet
  facet normal 0 0 -1
    outer loop
      vertex 21.95 13.15 2.3
      vertex 21.1 13.9 2.3
      vertex 21.3144 14.7 2.3
    endloop
  endfacet
  facet normal -0.965914 0.258865 0
    outer loop
      vertex 24.0856 13.1 0
      vertex 24.3 13.9 2.3
      vertex 24.3 13.9 0
    endloop
  endfacet
  facet normal -0.965914 0.258865 0
    outer loop
      vertex 24.3 13.9 2.3
      vertex 24.0856 13.1 0
      vertex 24.0856 13.1 2.3
    endloop
  endfacet
  facet normal 0.258865 0.965914 0
    outer loop
      vertex 22.7 12.3 2.3
      vertex 21.95 12.501 1.9
      vertex 21.95 12.501 2.3
    endloop
  endfacet
  facet normal 0.258865 0.965914 -0
    outer loop
      vertex 22.7 12.3 0
      vertex 21.95 12.501 1.9
      vertex 22.7 12.3 2.3
    endloop
  endfacet
  facet normal 0.258865 0.965914 3.04252e-16
    outer loop
      vertex 21.9 12.5144 0
      vertex 21.95 12.501 1.9
      vertex 22.7 12.3 0
    endloop
  endfacet
  facet normal 0.258865 0.965914 0
    outer loop
      vertex 21.95 12.501 1.9
      vertex 21.9 12.5144 0
      vertex 21.9 12.5144 1.9
    endloop
  endfacet
  facet normal 0.707107 -0.707107 0
    outer loop
      vertex 21.3144 14.7 0
      vertex 21.9 15.2856 2.3
      vertex 21.3144 14.7 2.3
    endloop
  endfacet
  facet normal 0.707107 -0.707107 0
    outer loop
      vertex 21.9 15.2856 2.3
      vertex 21.3144 14.7 0
      vertex 21.9 15.2856 0
    endloop
  endfacet
  facet normal -0.707107 0.707107 0
    outer loop
      vertex 23.5 12.5144 0
      vertex 24.0856 13.1 2.3
      vertex 24.0856 13.1 0
    endloop
  endfacet
  facet normal -0.707107 0.707107 0
    outer loop
      vertex 24.0856 13.1 2.3
      vertex 23.5 12.5144 0
      vertex 23.5 12.5144 2.3
    endloop
  endfacet
  facet normal 0.707107 0.707107 -0
    outer loop
      vertex 21.9 12.5144 0
      vertex 21.3144 13.1 1.9
      vertex 21.9 12.5144 1.9
    endloop
  endfacet
  facet normal 0.707107 0.707107 0
    outer loop
      vertex 21.3144 13.1 1.9
      vertex 21.9 12.5144 0
      vertex 21.3144 13.1 0
    endloop
  endfacet
  facet normal 0.965914 0.258865 -0
    outer loop
      vertex 21.301 13.15 1.9
      vertex 21.1 13.9 2.3
      vertex 21.301 13.15 2.3
    endloop
  endfacet
  facet normal 0.965914 0.258865 0
    outer loop
      vertex 21.1 13.9 2.3
      vertex 21.301 13.15 1.9
      vertex 21.1 13.9 0
    endloop
  endfacet
  facet normal 0.965914 0.258865 -0
    outer loop
      vertex 21.3144 13.1 0
      vertex 21.301 13.15 1.9
      vertex 21.3144 13.1 1.9
    endloop
  endfacet
  facet normal 0.965914 0.258865 3.60473e-16
    outer loop
      vertex 21.301 13.15 1.9
      vertex 21.3144 13.1 0
      vertex 21.1 13.9 0
    endloop
  endfacet
  facet normal -0.831485 0.555548 0
    outer loop
      vertex -28.4716 18.048 0
      vertex -27.8213 19.0213 13
      vertex -27.8213 19.0213 0
    endloop
  endfacet
  facet normal -0.831485 0.555548 0
    outer loop
      vertex -27.8213 19.0213 13
      vertex -28.4716 18.048 0
      vertex -28.4716 18.048 13
    endloop
  endfacet
  facet normal 0.831485 -0.555548 0
    outer loop
      vertex 27.8213 -19.0213 13
      vertex 28.4716 -18.048 0
      vertex 28.4716 -18.048 13
    endloop
  endfacet
  facet normal 0.831485 -0.555548 0
    outer loop
      vertex 28.4716 -18.048 0
      vertex 27.8213 -19.0213 13
      vertex 27.8213 -19.0213 0
    endloop
  endfacet
  facet normal 0.980777 0.19513 0
    outer loop
      vertex 28.7 16.9 13
      vertex 28.4716 18.048 0
      vertex 28.4716 18.048 13
    endloop
  endfacet
  facet normal 0.980777 0.19513 0
    outer loop
      vertex 28.4716 18.048 0
      vertex 28.7 16.9 13
      vertex 28.7 16.9 0
    endloop
  endfacet
  facet normal 0.555587 -0.831458 0
    outer loop
      vertex 26.8481 -19.6716 0
      vertex 27.8213 -19.0213 13
      vertex 26.8481 -19.6716 13
    endloop
  endfacet
  facet normal 0.555587 -0.831458 0
    outer loop
      vertex 27.8213 -19.0213 13
      vertex 26.8481 -19.6716 0
      vertex 27.8213 -19.0213 0
    endloop
  endfacet
  facet normal -0.195114 0.980781 0
    outer loop
      vertex -25.7 19.9 0
      vertex -26.8481 19.6716 13
      vertex -25.7 19.9 13
    endloop
  endfacet
  facet normal -0.195114 0.980781 0
    outer loop
      vertex -26.8481 19.6716 13
      vertex -25.7 19.9 0
      vertex -26.8481 19.6716 0
    endloop
  endfacet
  facet normal -0.980777 0.19513 0
    outer loop
      vertex -28.7 16.9 0
      vertex -28.4716 18.048 13
      vertex -28.4716 18.048 0
    endloop
  endfacet
  facet normal -0.980777 0.19513 0
    outer loop
      vertex -28.4716 18.048 13
      vertex -28.7 16.9 0
      vertex -28.7 16.9 13
    endloop
  endfacet
  facet normal -0.195114 -0.980781 0
    outer loop
      vertex -26.8481 -19.6716 0
      vertex -25.7 -19.9 13
      vertex -26.8481 -19.6716 13
    endloop
  endfacet
  facet normal -0.195114 -0.980781 -0
    outer loop
      vertex -25.7 -19.9 13
      vertex -26.8481 -19.6716 0
      vertex -25.7 -19.9 0
    endloop
  endfacet
  facet normal -1 0 0
    outer loop
      vertex -28.7 -16.9 0
      vertex -28.7 16.9 13
      vertex -28.7 16.9 0
    endloop
  endfacet
  facet normal -1 -0 0
    outer loop
      vertex -28.7 16.9 13
      vertex -28.7 -16.9 0
      vertex -28.7 -16.9 13
    endloop
  endfacet
  facet normal 0.195114 0.980781 -0
    outer loop
      vertex 26.8481 19.6716 0
      vertex 25.7 19.9 13
      vertex 26.8481 19.6716 13
    endloop
  endfacet
  facet normal 0.195114 0.980781 0
    outer loop
      vertex 25.7 19.9 13
      vertex 26.8481 19.6716 0
      vertex 25.7 19.9 0
    endloop
  endfacet
  facet normal -0.555587 0.831458 0
    outer loop
      vertex -26.8481 19.6716 0
      vertex -27.8213 19.0213 13
      vertex -26.8481 19.6716 13
    endloop
  endfacet
  facet normal -0.555587 0.831458 0
    outer loop
      vertex -27.8213 19.0213 13
      vertex -26.8481 19.6716 0
      vertex -27.8213 19.0213 0
    endloop
  endfacet
  facet normal 0.555587 0.831458 -0
    outer loop
      vertex 27.8213 19.0213 0
      vertex 26.8481 19.6716 13
      vertex 27.8213 19.0213 13
    endloop
  endfacet
  facet normal 0.555587 0.831458 0
    outer loop
      vertex 26.8481 19.6716 13
      vertex 27.8213 19.0213 0
      vertex 26.8481 19.6716 0
    endloop
  endfacet
  facet normal 0 -1 0
    outer loop
      vertex -25.7 -19.9 0
      vertex 25.7 -19.9 13
      vertex -25.7 -19.9 13
    endloop
  endfacet
  facet normal 0 -1 -0
    outer loop
      vertex 25.7 -19.9 13
      vertex -25.7 -19.9 0
      vertex 25.7 -19.9 0
    endloop
  endfacet
  facet normal -0.555587 -0.831458 0
    outer loop
      vertex -27.8213 -19.0213 0
      vertex -26.8481 -19.6716 13
      vertex -27.8213 -19.0213 13
    endloop
  endfacet
  facet normal -0.555587 -0.831458 -0
    outer loop
      vertex -26.8481 -19.6716 13
      vertex -27.8213 -19.0213 0
      vertex -26.8481 -19.6716 0
    endloop
  endfacet
  facet normal 0.195114 -0.980781 0
    outer loop
      vertex 25.7 -19.9 0
      vertex 26.8481 -19.6716 13
      vertex 25.7 -19.9 13
    endloop
  endfacet
  facet normal 0.195114 -0.980781 0
    outer loop
      vertex 26.8481 -19.6716 13
      vertex 25.7 -19.9 0
      vertex 26.8481 -19.6716 0
    endloop
  endfacet
  facet normal 1 -0 0
    outer loop
      vertex 28.7 -16.9 13
      vertex 28.7 16.9 0
      vertex 28.7 16.9 13
    endloop
  endfacet
  facet normal 1 0 0
    outer loop
      vertex 28.7 16.9 0
      vertex 28.7 -16.9 13
      vertex 28.7 -16.9 0
    endloop
  endfacet
  facet normal 0 0 1
    outer loop
      vertex -11.5 -13.15 13
      vertex -21.95 -13.15 13
      vertex -11.5 -17.9 13
    endloop
  endfacet
  facet normal 0 0 1
    outer loop
      vertex 8.5 -13.15 13
      vertex -8.5 -13.15 13
      vertex 8.5 -17.9 13
    endloop
  endfacet
  facet normal 0 0 1
    outer loop
      vertex 25.7 19.9 13
      vertex 28.7 16.9 13
      vertex 28.4716 18.048 13
    endloop
  endfacet
  facet normal 0 0 1
    outer loop
      vertex 28.7 16.9 13
      vertex 21.95 13.15 13
      vertex 28.7 -16.9 13
    endloop
  endfacet
  facet normal 0 0 1
    outer loop
      vertex 25.7 19.9 13
      vertex 28.4716 18.048 13
      vertex 27.8213 19.0213 13
    endloop
  endfacet
  facet normal -0 0 1
    outer loop
      vertex 21.95 -13.15 13
      vertex 28.7 -16.9 13
      vertex 21.95 13.15 13
    endloop
  endfacet
  facet normal 0 0 1
    outer loop
      vertex 25.7 19.9 13
      vertex 27.8213 19.0213 13
      vertex 26.8481 19.6716 13
    endloop
  endfacet
  facet normal 0 -0 1
    outer loop
      vertex 25.7 -19.9 13
      vertex 28.7 -16.9 13
      vertex 21.95 -13.15 13
    endloop
  endfacet
  facet normal 0 0 1
    outer loop
      vertex 28.7 16.9 13
      vertex 25.7 19.9 13
      vertex 21.95 13.15 13
    endloop
  endfacet
  facet normal 0 0 1
    outer loop
      vertex 28.7 -16.9 13
      vertex 25.7 -19.9 13
      vertex 28.4716 -18.048 13
    endloop
  endfacet
  facet normal 0 0 1
    outer loop
      vertex 28.4716 -18.048 13
      vertex 25.7 -19.9 13
      vertex 27.8213 -19.0213 13
    endloop
  endfacet
  facet normal 0 0 1
    outer loop
      vertex 25.7 19.9 13
      vertex 11.5 17.9 13
      vertex 21.95 13.15 13
    endloop
  endfacet
  facet normal 0 0 1
    outer loop
      vertex 25.7 19.9 13
      vertex 8.5 17.9 13
      vertex 11.5 17.9 13
    endloop
  endfacet
  facet normal 0 0 1
    outer loop
      vertex 8.5 17.9 13
      vertex -8.5 17.9 13
      vertex 8.5 13.15 13
    endloop
  endfacet
  facet normal 0 0 1
    outer loop
      vertex 25.7 19.9 13
      vertex -8.5 17.9 13
      vertex 8.5 17.9 13
    endloop
  endfacet
  facet normal -0 0 1
    outer loop
      vertex -25.7 19.9 13
      vertex -8.5 17.9 13
      vertex 25.7 19.9 13
    endloop
  endfacet
  facet normal 0 0 1
    outer loop
      vertex -11.5 17.9 13
      vertex -21.95 13.15 13
      vertex -11.5 13.15 13
    endloop
  endfacet
  facet normal -0 0 1
    outer loop
      vertex -28.7 16.9 13
      vertex -21.95 13.15 13
      vertex -25.7 19.9 13
    endloop
  endfacet
  facet normal 0 0 1
    outer loop
      vertex -11.5 17.9 13
      vertex -25.7 19.9 13
      vertex -21.95 13.15 13
    endloop
  endfacet
  facet normal 0 0 1
    outer loop
      vertex -8.5 17.9 13
      vertex -25.7 19.9 13
      vertex -11.5 17.9 13
    endloop
  endfacet
  facet normal 0 0 1
    outer loop
      vertex 27.8213 -19.0213 13
      vertex 25.7 -19.9 13
      vertex 26.8481 -19.6716 13
    endloop
  endfacet
  facet normal 0 0 1
    outer loop
      vertex 11.5 -17.9 13
      vertex 21.95 -13.15 13
      vertex 11.5 -13.15 13
    endloop
  endfacet
  facet normal 0 0 1
    outer loop
      vertex 21.95 -13.15 13
      vertex 11.5 -17.9 13
      vertex 25.7 -19.9 13
    endloop
  endfacet
  facet normal -0 0 1
    outer loop
      vertex 8.5 -17.9 13
      vertex 25.7 -19.9 13
      vertex 11.5 -17.9 13
    endloop
  endfacet
  facet normal 0 0 1
    outer loop
      vertex -8.5 -17.9 13
      vertex 8.5 -17.9 13
      vertex -8.5 -13.15 13
    endloop
  endfacet
  facet normal -0 0 1
    outer loop
      vertex -8.5 -17.9 13
      vertex 25.7 -19.9 13
      vertex 8.5 -17.9 13
    endloop
  endfacet
  facet normal 0 0 1
    outer loop
      vertex -25.7 -19.9 13
      vertex -8.5 -17.9 13
      vertex -11.5 -17.9 13
    endloop
  endfacet
  facet normal 0 0 1
    outer loop
      vertex -8.5 -17.9 13
      vertex -25.7 -19.9 13
      vertex 25.7 -19.9 13
    endloop
  endfacet
  facet normal 0 0 1
    outer loop
      vertex -21.95 -13.15 13
      vertex -25.7 -19.9 13
      vertex -11.5 -17.9 13
    endloop
  endfacet
  facet normal 0 0 1
    outer loop
      vertex -21.95 13.15 13
      vertex -28.7 16.9 13
      vertex -21.95 -13.15 13
    endloop
  endfacet
  facet normal 0 0 1
    outer loop
      vertex -28.7 16.9 13
      vertex -25.7 19.9 13
      vertex -26.8481 19.6716 13
    endloop
  endfacet
  facet normal 0 0 1
    outer loop
      vertex -28.7 -16.9 13
      vertex -21.95 -13.15 13
      vertex -28.7 16.9 13
    endloop
  endfacet
  facet normal 0 0 1
    outer loop
      vertex -28.7 16.9 13
      vertex -26.8481 19.6716 13
      vertex -27.8213 19.0213 13
    endloop
  endfacet
  facet normal 0 0 1
    outer loop
      vertex -21.95 -13.15 13
      vertex -28.7 -16.9 13
      vertex -25.7 -19.9 13
    endloop
  endfacet
  facet normal 0 0 1
    outer loop
      vertex -28.7 16.9 13
      vertex -27.8213 19.0213 13
      vertex -28.4716 18.048 13
    endloop
  endfacet
  facet normal 0 0 1
    outer loop
      vertex -25.7 -19.9 13
      vertex -28.7 -16.9 13
      vertex -26.8481 -19.6716 13
    endloop
  endfacet
  facet normal 0 0 1
    outer loop
      vertex -26.8481 -19.6716 13
      vertex -28.7 -16.9 13
      vertex -27.8213 -19.0213 13
    endloop
  endfacet
  facet normal 0 0 1
    outer loop
      vertex -27.8213 -19.0213 13
      vertex -28.7 -16.9 13
      vertex -28.4716 -18.048 13
    endloop
  endfacet
  facet normal 0 0 1
    outer loop
      vertex 21.95 13.15 13
      vertex 11.5 17.9 13
      vertex 11.5 13.15 13
    endloop
  endfacet
  facet normal 0 0 1
    outer loop
      vertex 8.5 13.15 13
      vertex -8.5 17.9 13
      vertex -8.5 13.15 13
    endloop
  endfacet
  facet normal 0.831485 0.555548 0
    outer loop
      vertex 28.4716 18.048 13
      vertex 27.8213 19.0213 0
      vertex 27.8213 19.0213 13
    endloop
  endfacet
  facet normal 0.831485 0.555548 0
    outer loop
      vertex 27.8213 19.0213 0
      vertex 28.4716 18.048 13
      vertex 28.4716 18.048 0
    endloop
  endfacet
  facet normal 0 1 -0
    outer loop
      vertex 25.7 19.9 0
      vertex -25.7 19.9 13
      vertex 25.7 19.9 13
    endloop
  endfacet
  facet normal 0 1 0
    outer loop
      vertex -25.7 19.9 13
      vertex 25.7 19.9 0
      vertex -25.7 19.9 0
    endloop
  endfacet
  facet normal 0.980777 -0.19513 0
    outer loop
      vertex 28.4716 -18.048 13
      vertex 28.7 -16.9 0
      vertex 28.7 -16.9 13
    endloop
  endfacet
  facet normal 0.980777 -0.19513 0
    outer loop
      vertex 28.7 -16.9 0
      vertex 28.4716 -18.048 13
      vertex 28.4716 -18.048 0
    endloop
  endfacet
  facet normal -0.980777 -0.19513 0
    outer loop
      vertex -28.4716 -18.048 0
      vertex -28.7 -16.9 13
      vertex -28.7 -16.9 0
    endloop
  endfacet
  facet normal -0.980777 -0.19513 0
    outer loop
      vertex -28.7 -16.9 13
      vertex -28.4716 -18.048 0
      vertex -28.4716 -18.048 13
    endloop
  endfacet
  facet normal -0.831485 -0.555548 0
    outer loop
      vertex -27.8213 -19.0213 0
      vertex -28.4716 -18.048 13
      vertex -28.4716 -18.048 0
    endloop
  endfacet
  facet normal -0.831485 -0.555548 0
    outer loop
      vertex -28.4716 -18.048 13
      vertex -27.8213 -19.0213 0
      vertex -27.8213 -19.0213 13
    endloop
  endfacet
  facet normal 0 0 1
    outer loop
      vertex 20.7 3 1.9
      vertex 21.95 12.501 1.9
      vertex 21.9 12.5144 1.9
    endloop
  endfacet
  facet normal 0 0 1
    outer loop
      vertex 20.7 3 1.9
      vertex 21.9 12.5144 1.9
      vertex 21.3144 13.1 1.9
    endloop
  endfacet
  facet normal -0 0 1
    outer loop
      vertex 11.5 13.15 1.9
      vertex 21.3144 13.1 1.9
      vertex 21.301 13.15 1.9
    endloop
  endfacet
  facet normal 0 0 1
    outer loop
      vertex 21.95 12.501 1.9
      vertex 20.7 3 1.9
      vertex 21.95 3 1.9
    endloop
  endfacet
  facet normal 0 0 1
    outer loop
      vertex 20.7 3 1.9
      vertex 11.5 13.15 1.9
      vertex 20.7 -3 1.9
    endloop
  endfacet
  facet normal 0 0 1
    outer loop
      vertex 21.3144 13.1 1.9
      vertex 11.5 13.15 1.9
      vertex 20.7 3 1.9
    endloop
  endfacet
  facet normal -0 0 1
    outer loop
      vertex 20.7 -3 1.9
      vertex 21.95 -12.501 1.9
      vertex 21.95 -3 1.9
    endloop
  endfacet
  facet normal 0 0 1
    outer loop
      vertex 21.95 -12.501 1.9
      vertex 20.7 -3 1.9
      vertex 21.9 -12.5144 1.9
    endloop
  endfacet
  facet normal 0 0 1
    outer loop
      vertex 21.9 -12.5144 1.9
      vertex 20.7 -3 1.9
      vertex 21.3144 -13.1 1.9
    endloop
  endfacet
  facet normal 0 0 1
    outer loop
      vertex 11.5 -13.15 1.9
      vertex 21.3144 -13.1 1.9
      vertex 20.7 -3 1.9
    endloop
  endfacet
  facet normal 0 0 1
    outer loop
      vertex 11.5 -13.15 1.9
      vertex 20.7 -3 1.9
      vertex 11.5 13.15 1.9
    endloop
  endfacet
  facet normal 0 0 1
    outer loop
      vertex 21.3144 -13.1 1.9
      vertex 11.5 -13.15 1.9
      vertex 21.301 -13.15 1.9
    endloop
  endfacet
  facet normal 0 0 1
    outer loop
      vertex -21.3144 13.1 1.9
      vertex -11.5 13.15 1.9
      vertex -21.301 13.15 1.9
    endloop
  endfacet
  facet normal 0 0 1
    outer loop
      vertex -21.9 12.5144 1.9
      vertex -11.5 13.15 1.9
      vertex -21.3144 13.1 1.9
    endloop
  endfacet
  facet normal 0 0 1
    outer loop
      vertex -11.5 13.15 1.9
      vertex -21.9 12.5144 1.9
      vertex -11.5 -13.15 1.9
    endloop
  endfacet
  facet normal 0 0 1
    outer loop
      vertex -11.5 -13.15 1.9
      vertex -21.3144 -13.1 1.9
      vertex -21.301 -13.15 1.9
    endloop
  endfacet
  facet normal -0 0 1
    outer loop
      vertex -21.9 -12.5144 1.9
      vertex -11.5 -13.15 1.9
      vertex -21.9 12.5144 1.9
    endloop
  endfacet
  facet normal 0 0 1
    outer loop
      vertex -11.5 -13.15 1.9
      vertex -21.9 -12.5144 1.9
      vertex -21.3144 -13.1 1.9
    endloop
  endfacet
  facet normal -0 0 1
    outer loop
      vertex -21.95 12.501 1.9
      vertex -21.9 -12.5144 1.9
      vertex -21.9 12.5144 1.9
    endloop
  endfacet
  facet normal 0 0 1
    outer loop
      vertex -21.9 -12.5144 1.9
      vertex -21.95 12.501 1.9
      vertex -21.95 -12.501 1.9
    endloop
  endfacet
  facet normal -0 0 1
    outer loop
      vertex -8.5 13.15 1.9
      vertex 8.5 -13.15 1.9
      vertex 8.5 13.15 1.9
    endloop
  endfacet
  facet normal 0 0 1
    outer loop
      vertex 8.5 -13.15 1.9
      vertex -8.5 13.15 1.9
      vertex -8.5 -13.15 1.9
    endloop
  endfacet
  facet normal 1 0 0
    outer loop
      vertex -21.95 13.15 13
      vertex -21.95 12.501 2.3
      vertex -21.95 13.15 2.3
    endloop
  endfacet
  facet normal 1 0 0
    outer loop
      vertex -21.95 12.501 2.3
      vertex -21.95 -12.501 2.3
      vertex -21.95 12.501 1.9
    endloop
  endfacet
  facet normal 1 0 0
    outer loop
      vertex -21.95 13.15 13
      vertex -21.95 -12.501 2.3
      vertex -21.95 12.501 2.3
    endloop
  endfacet
  facet normal 1 -0 0
    outer loop
      vertex -21.95 -13.15 13
      vertex -21.95 -12.501 2.3
      vertex -21.95 13.15 13
    endloop
  endfacet
  facet normal 1 0 0
    outer loop
      vertex -21.95 -12.501 2.3
      vertex -21.95 -13.15 13
      vertex -21.95 -13.15 2.3
    endloop
  endfacet
  facet normal 1 0 0
    outer loop
      vertex -21.95 12.501 1.9
      vertex -21.95 -12.501 2.3
      vertex -21.95 -12.501 1.9
    endloop
  endfacet
  facet normal 0 -1 0
    outer loop
      vertex -21.301 13.15 2.3
      vertex -21.95 13.15 13
      vertex -21.95 13.15 2.3
    endloop
  endfacet
  facet normal 0 -1 0
    outer loop
      vertex -21.95 13.15 13
      vertex -21.301 13.15 2.3
      vertex -11.5 13.15 13
    endloop
  endfacet
  facet normal 0 -1 0
    outer loop
      vertex -11.5 13.15 1.9
      vertex -21.301 13.15 2.3
      vertex -21.301 13.15 1.9
    endloop
  endfacet
  facet normal 0 -1 0
    outer loop
      vertex -21.301 13.15 2.3
      vertex -11.5 13.15 1.9
      vertex -11.5 13.15 13
    endloop
  endfacet
  facet normal 0 -1 0
    outer loop
      vertex 11.5 13.15 13
      vertex 21.301 13.15 2.3
      vertex 21.95 13.15 13
    endloop
  endfacet
  facet normal 0 -1 0
    outer loop
      vertex 11.5 13.15 1.9
      vertex 21.301 13.15 2.3
      vertex 11.5 13.15 13
    endloop
  endfacet
  facet normal 0 -1 -0
    outer loop
      vertex 21.301 13.15 2.3
      vertex 11.5 13.15 1.9
      vertex 21.301 13.15 1.9
    endloop
  endfacet
  facet normal 0 -1 -0
    outer loop
      vertex 21.95 13.15 13
      vertex 21.301 13.15 2.3
      vertex 21.95 13.15 2.3
    endloop
  endfacet
  facet normal 0 -1 0
    outer loop
      vertex -8.5 13.15 1.9
      vertex 8.5 13.15 13
      vertex -8.5 13.15 13
    endloop
  endfacet
  facet normal 0 -1 -0
    outer loop
      vertex 8.5 13.15 13
      vertex -8.5 13.15 1.9
      vertex 8.5 13.15 1.9
    endloop
  endfacet
  facet normal -1 0 0
    outer loop
      vertex 21.95 -12.501 2.3
      vertex 21.95 -3 1.9
      vertex 21.95 -12.501 1.9
    endloop
  endfacet
  facet normal -1 0 0
    outer loop
      vertex 21.95 12.501 1.9
      vertex 21.95 3 1.9
      vertex 21.95 12.501 2.3
    endloop
  endfacet
  facet normal -1 0 0
    outer loop
      vertex 21.95 12.501 2.3
      vertex 21.95 13.15 13
      vertex 21.95 13.15 2.3
    endloop
  endfacet
  facet normal -1 0 0
    outer loop
      vertex 21.95 3 7.3
      vertex 21.95 12.501 2.3
      vertex 21.95 3 1.9
    endloop
  endfacet
  facet normal -1 0 0
    outer loop
      vertex 21.95 12.501 2.3
      vertex 21.95 3 7.3
      vertex 21.95 13.15 13
    endloop
  endfacet
  facet normal -1 0 0
    outer loop
      vertex 21.95 -3 7.3
      vertex 21.95 13.15 13
      vertex 21.95 3 7.3
    endloop
  endfacet
  facet normal -1 0 0
    outer loop
      vertex 21.95 -3 1.9
      vertex 21.95 -12.501 2.3
      vertex 21.95 -3 7.3
    endloop
  endfacet
  facet normal -1 0 0
    outer loop
      vertex 21.95 -13.15 13
      vertex 21.95 -12.501 2.3
      vertex 21.95 -13.15 2.3
    endloop
  endfacet
  facet normal -1 0 0
    outer loop
      vertex 21.95 -3 7.3
      vertex 21.95 -13.15 13
      vertex 21.95 13.15 13
    endloop
  endfacet
  facet normal -1 0 0
    outer loop
      vertex 21.95 -12.501 2.3
      vertex 21.95 -13.15 13
      vertex 21.95 -3 7.3
    endloop
  endfacet
  facet normal 0 1 0
    outer loop
      vertex -11.5 -13.15 13
      vertex -21.301 -13.15 2.3
      vertex -21.95 -13.15 13
    endloop
  endfacet
  facet normal 0 1 -0
    outer loop
      vertex -11.5 -13.15 1.9
      vertex -21.301 -13.15 2.3
      vertex -11.5 -13.15 13
    endloop
  endfacet
  facet normal 0 1 0
    outer loop
      vertex -21.301 -13.15 2.3
      vertex -11.5 -13.15 1.9
      vertex -21.301 -13.15 1.9
    endloop
  endfacet
  facet normal 0 1 0
    outer loop
      vertex -21.95 -13.15 13
      vertex -21.301 -13.15 2.3
      vertex -21.95 -13.15 2.3
    endloop
  endfacet
  facet normal 0 1 0
    outer loop
      vertex 21.301 -13.15 2.3
      vertex 21.95 -13.15 13
      vertex 21.95 -13.15 2.3
    endloop
  endfacet
  facet normal 0 1 0
    outer loop
      vertex 21.95 -13.15 13
      vertex 21.301 -13.15 2.3
      vertex 11.5 -13.15 13
    endloop
  endfacet
  facet normal 0 1 0
    outer loop
      vertex 11.5 -13.15 1.9
      vertex 21.301 -13.15 2.3
      vertex 21.301 -13.15 1.9
    endloop
  endfacet
  facet normal 0 1 0
    outer loop
      vertex 21.301 -13.15 2.3
      vertex 11.5 -13.15 1.9
      vertex 11.5 -13.15 13
    endloop
  endfacet
  facet normal 0 1 -0
    outer loop
      vertex 8.5 -13.15 1.9
      vertex -8.5 -13.15 13
      vertex 8.5 -13.15 13
    endloop
  endfacet
  facet normal 0 1 0
    outer loop
      vertex -8.5 -13.15 13
      vertex 8.5 -13.15 1.9
      vertex -8.5 -13.15 1.9
    endloop
  endfacet
  facet normal -1 0 0
    outer loop
      vertex 24.7 -3 0
      vertex 24.7 3 7.3
      vertex 24.7 3 0
    endloop
  endfacet
  facet normal -1 -0 0
    outer loop
      vertex 24.7 3 7.3
      vertex 24.7 -3 0
      vertex 24.7 -3 7.3
    endloop
  endfacet
  facet normal 0 0 -1
    outer loop
      vertex 21.95 -3 7.3
      vertex 24.7 3 7.3
      vertex 24.7 -3 7.3
    endloop
  endfacet
  facet normal -0 0 -1
    outer loop
      vertex 24.7 3 7.3
      vertex 21.95 -3 7.3
      vertex 21.95 3 7.3
    endloop
  endfacet
  facet normal 1 -0 0
    outer loop
      vertex 20.7 -3 1.9
      vertex 20.7 3 0
      vertex 20.7 3 1.9
    endloop
  endfacet
  facet normal 1 0 0
    outer loop
      vertex 20.7 3 0
      vertex 20.7 -3 1.9
      vertex 20.7 -3 0
    endloop
  endfacet
  facet normal 0 -1 0
    outer loop
      vertex 20.7 3 1.9
      vertex 20.7 3 0
      vertex 21.95 3 1.9
    endloop
  endfacet
  facet normal 0 -1 0
    outer loop
      vertex 21.95 3 1.9
      vertex 24.7 3 7.3
      vertex 21.95 3 7.3
    endloop
  endfacet
  facet normal 0 -1 0
    outer loop
      vertex 21.95 3 1.9
      vertex 24.7 3 0
      vertex 24.7 3 7.3
    endloop
  endfacet
  facet normal 0 -1 0
    outer loop
      vertex 24.7 3 0
      vertex 21.95 3 1.9
      vertex 20.7 3 0
    endloop
  endfacet
  facet normal 0 1 0
    outer loop
      vertex 24.7 -3 7.3
      vertex 21.95 -3 1.9
      vertex 21.95 -3 7.3
    endloop
  endfacet
  facet normal 0 1 -0
    outer loop
      vertex 24.7 -3 0
      vertex 21.95 -3 1.9
      vertex 24.7 -3 7.3
    endloop
  endfacet
  facet normal 0 1 0
    outer loop
      vertex 20.7 -3 0
      vertex 21.95 -3 1.9
      vertex 24.7 -3 0
    endloop
  endfacet
  facet normal 0 1 0
    outer loop
      vertex 21.95 -3 1.9
      vertex 20.7 -3 0
      vertex 20.7 -3 1.9
    endloop
  endfacet
endsolid OpenSCAD_Model
