solid OpenSCAD_Model
  facet normal -0.707131 -0.707083 0
    outer loop
      vertex -10.6144 -6.7 0
      vertex -11.2 -6.11436 2.3
      vertex -11.2 -6.11436 0
    endloop
  endfacet
  facet normal -0.707131 -0.707083 0
    outer loop
      vertex -11.2 -6.11436 2.3
      vertex -10.6144 -6.7 0
      vertex -10.6144 -6.7 2.3
    endloop
  endfacet
  facet normal -0.965914 -0.258865 0
    outer loop
      vertex -10.4 -7.5 0
      vertex -10.6144 -6.7 2.3
      vertex -10.6144 -6.7 0
    endloop
  endfacet
  facet normal -0.965914 -0.258865 0
    outer loop
      vertex -10.6144 -6.7 2.3
      vertex -10.4 -7.5 0
      vertex -10.4 -7.5 2.3
    endloop
  endfacet
  facet normal -0.25882 -0.965926 0
    outer loop
      vertex -12 -5.9 0
      vertex -11.2 -6.11436 2.3
      vertex -12 -5.9 2.3
    endloop
  endfacet
  facet normal -0.25882 -0.965926 -0
    outer loop
      vertex -11.2 -6.11436 2.3
      vertex -12 -5.9 0
      vertex -11.2 -6.11436 0
    endloop
  endfacet
  facet normal 0.25882 0.965926 -0
    outer loop
      vertex -12 -9.1 0
      vertex -12.8 -8.88564 2.3
      vertex -12 -9.1 2.3
    endloop
  endfacet
  facet normal 0.25882 0.965926 0
    outer loop
      vertex -12.8 -8.88564 2.3
      vertex -12 -9.1 0
      vertex -12.8 -8.88564 0
    endloop
  endfacet
  facet normal 0.707131 -0.707083 0
    outer loop
      vertex -13.3856 -6.7 2.3
      vertex -12.8 -6.11436 0
      vertex -12.8 -6.11436 2.3
    endloop
  endfacet
  facet normal 0.707131 -0.707083 0
    outer loop
      vertex -12.8 -6.11436 0
      vertex -13.3856 -6.7 2.3
      vertex -13.3856 -6.7 0
    endloop
  endfacet
  facet normal -0.25882 0.965926 0
    outer loop
      vertex -11.2 -8.88564 0
      vertex -12 -9.1 2.3
      vertex -11.2 -8.88564 2.3
    endloop
  endfacet
  facet normal -0.25882 0.965926 0
    outer loop
      vertex -12 -9.1 2.3
      vertex -11.2 -8.88564 0
      vertex -12 -9.1 0
    endloop
  endfacet
  facet normal 0.965914 0.258865 0
    outer loop
      vertex -13.3856 -8.3 2.3
      vertex -13.6 -7.5 0
      vertex -13.6 -7.5 2.3
    endloop
  endfacet
  facet normal 0.965914 0.258865 0
    outer loop
      vertex -13.6 -7.5 0
      vertex -13.3856 -8.3 2.3
      vertex -13.3856 -8.3 0
    endloop
  endfacet
  facet normal 0.25882 -0.965926 0
    outer loop
      vertex -12.8 -6.11436 0
      vertex -12 -5.9 2.3
      vertex -12.8 -6.11436 2.3
    endloop
  endfacet
  facet normal 0.25882 -0.965926 0
    outer loop
      vertex -12 -5.9 2.3
      vertex -12.8 -6.11436 0
      vertex -12 -5.9 0
    endloop
  endfacet
  facet normal 0.965914 -0.258865 0
    outer loop
      vertex -13.6 -7.5 2.3
      vertex -13.3856 -6.7 0
      vertex -13.3856 -6.7 2.3
    endloop
  endfacet
  facet normal 0.965914 -0.258865 0
    outer loop
      vertex -13.3856 -6.7 0
      vertex -13.6 -7.5 2.3
      vertex -13.6 -7.5 0
    endloop
  endfacet
  facet normal -0.707131 0.707083 0
    outer loop
      vertex -11.2 -8.88564 0
      vertex -10.6144 -8.3 2.3
      vertex -10.6144 -8.3 0
    endloop
  endfacet
  facet normal -0.707131 0.707083 0
    outer loop
      vertex -10.6144 -8.3 2.3
      vertex -11.2 -8.88564 0
      vertex -11.2 -8.88564 2.3
    endloop
  endfacet
  facet normal -0.965914 0.258865 0
    outer loop
      vertex -10.6144 -8.3 0
      vertex -10.4 -7.5 2.3
      vertex -10.4 -7.5 0
    endloop
  endfacet
  facet normal -0.965914 0.258865 0
    outer loop
      vertex -10.4 -7.5 2.3
      vertex -10.6144 -8.3 0
      vertex -10.6144 -8.3 2.3
    endloop
  endfacet
  facet normal 0 0 -1
    outer loop
      vertex -10.6144 -8.3 2.3
      vertex -10.6144 -6.7 2.3
      vertex -10.4 -7.5 2.3
    endloop
  endfacet
  facet normal 0 0 -1
    outer loop
      vertex -11.2 -8.88564 2.3
      vertex -10.6144 -6.7 2.3
      vertex -10.6144 -8.3 2.3
    endloop
  endfacet
  facet normal 0 0 -1
    outer loop
      vertex -11.2 -8.88564 2.3
      vertex -11.2 -6.11436 2.3
      vertex -10.6144 -6.7 2.3
    endloop
  endfacet
  facet normal 0 0 -1
    outer loop
      vertex -12 -9.1 2.3
      vertex -11.2 -6.11436 2.3
      vertex -11.2 -8.88564 2.3
    endloop
  endfacet
  facet normal 0 0 -1
    outer loop
      vertex -12 -9.1 2.3
      vertex -12 -5.9 2.3
      vertex -11.2 -6.11436 2.3
    endloop
  endfacet
  facet normal 0 0 -1
    outer loop
      vertex -12.8 -8.88564 2.3
      vertex -12 -5.9 2.3
      vertex -12 -9.1 2.3
    endloop
  endfacet
  facet normal 0 0 -1
    outer loop
      vertex -12.8 -8.88564 2.3
      vertex -12.8 -6.11436 2.3
      vertex -12 -5.9 2.3
    endloop
  endfacet
  facet normal 0 0 -1
    outer loop
      vertex -13.3856 -8.3 2.3
      vertex -12.8 -6.11436 2.3
      vertex -12.8 -8.88564 2.3
    endloop
  endfacet
  facet normal 0 0 -1
    outer loop
      vertex -13.3856 -8.3 2.3
      vertex -13.3856 -6.7 2.3
      vertex -12.8 -6.11436 2.3
    endloop
  endfacet
  facet normal 0 -0 -1
    outer loop
      vertex -13.3856 -6.7 2.3
      vertex -13.3856 -8.3 2.3
      vertex -13.6 -7.5 2.3
    endloop
  endfacet
  facet normal 0.707131 0.707083 0
    outer loop
      vertex -12.8 -8.88564 2.3
      vertex -13.3856 -8.3 0
      vertex -13.3856 -8.3 2.3
    endloop
  endfacet
  facet normal 0.707131 0.707083 0
    outer loop
      vertex -13.3856 -8.3 0
      vertex -12.8 -8.88564 2.3
      vertex -12.8 -8.88564 0
    endloop
  endfacet
  facet normal -0.707131 -0.707083 0
    outer loop
      vertex -10.6144 8.3 0
      vertex -11.2 8.88564 2.3
      vertex -11.2 8.88564 0
    endloop
  endfacet
  facet normal -0.707131 -0.707083 0
    outer loop
      vertex -11.2 8.88564 2.3
      vertex -10.6144 8.3 0
      vertex -10.6144 8.3 2.3
    endloop
  endfacet
  facet normal -0.965914 -0.258865 0
    outer loop
      vertex -10.4 7.5 0
      vertex -10.6144 8.3 2.3
      vertex -10.6144 8.3 0
    endloop
  endfacet
  facet normal -0.965914 -0.258865 0
    outer loop
      vertex -10.6144 8.3 2.3
      vertex -10.4 7.5 0
      vertex -10.4 7.5 2.3
    endloop
  endfacet
  facet normal 0 0 -1
    outer loop
      vertex -10.6144 6.7 2.3
      vertex -10.6144 8.3 2.3
      vertex -10.4 7.5 2.3
    endloop
  endfacet
  facet normal 0 0 -1
    outer loop
      vertex -11.2 6.11436 2.3
      vertex -10.6144 8.3 2.3
      vertex -10.6144 6.7 2.3
    endloop
  endfacet
  facet normal 0 0 -1
    outer loop
      vertex -11.2 6.11436 2.3
      vertex -11.2 8.88564 2.3
      vertex -10.6144 8.3 2.3
    endloop
  endfacet
  facet normal 0 0 -1
    outer loop
      vertex -12 5.9 2.3
      vertex -11.2 8.88564 2.3
      vertex -11.2 6.11436 2.3
    endloop
  endfacet
  facet normal 0 0 -1
    outer loop
      vertex -12 5.9 2.3
      vertex -12 9.1 2.3
      vertex -11.2 8.88564 2.3
    endloop
  endfacet
  facet normal 0 0 -1
    outer loop
      vertex -12.8 6.11436 2.3
      vertex -12 9.1 2.3
      vertex -12 5.9 2.3
    endloop
  endfacet
  facet normal 0 0 -1
    outer loop
      vertex -12.8 6.11436 2.3
      vertex -12.8 8.88564 2.3
      vertex -12 9.1 2.3
    endloop
  endfacet
  facet normal 0 0 -1
    outer loop
      vertex -13.3856 6.7 2.3
      vertex -12.8 8.88564 2.3
      vertex -12.8 6.11436 2.3
    endloop
  endfacet
  facet normal 0 0 -1
    outer loop
      vertex -13.3856 6.7 2.3
      vertex -13.3856 8.3 2.3
      vertex -12.8 8.88564 2.3
    endloop
  endfacet
  facet normal 0 -0 -1
    outer loop
      vertex -13.3856 8.3 2.3
      vertex -13.3856 6.7 2.3
      vertex -13.6 7.5 2.3
    endloop
  endfacet
  facet normal 0.707131 0.707083 0
    outer loop
      vertex -12.8 6.11436 2.3
      vertex -13.3856 6.7 0
      vertex -13.3856 6.7 2.3
    endloop
  endfacet
  facet normal 0.707131 0.707083 0
    outer loop
      vertex -13.3856 6.7 0
      vertex -12.8 6.11436 2.3
      vertex -12.8 6.11436 0
    endloop
  endfacet
  facet normal 0.965914 0.258865 0
    outer loop
      vertex -13.3856 6.7 2.3
      vertex -13.6 7.5 0
      vertex -13.6 7.5 2.3
    endloop
  endfacet
  facet normal 0.965914 0.258865 0
    outer loop
      vertex -13.6 7.5 0
      vertex -13.3856 6.7 2.3
      vertex -13.3856 6.7 0
    endloop
  endfacet
  facet normal -0.25882 0.965926 0
    outer loop
      vertex -11.2 6.11436 0
      vertex -12 5.9 2.3
      vertex -11.2 6.11436 2.3
    endloop
  endfacet
  facet normal -0.25882 0.965926 0
    outer loop
      vertex -12 5.9 2.3
      vertex -11.2 6.11436 0
      vertex -12 5.9 0
    endloop
  endfacet
  facet normal -0.707131 0.707083 0
    outer loop
      vertex -11.2 6.11436 0
      vertex -10.6144 6.7 2.3
      vertex -10.6144 6.7 0
    endloop
  endfacet
  facet normal -0.707131 0.707083 0
    outer loop
      vertex -10.6144 6.7 2.3
      vertex -11.2 6.11436 0
      vertex -11.2 6.11436 2.3
    endloop
  endfacet
  facet normal -0.965914 0.258865 0
    outer loop
      vertex -10.6144 6.7 0
      vertex -10.4 7.5 2.3
      vertex -10.4 7.5 0
    endloop
  endfacet
  facet normal -0.965914 0.258865 0
    outer loop
      vertex -10.4 7.5 2.3
      vertex -10.6144 6.7 0
      vertex -10.6144 6.7 2.3
    endloop
  endfacet
  facet normal 0.707131 -0.707083 0
    outer loop
      vertex -13.3856 8.3 2.3
      vertex -12.8 8.88564 0
      vertex -12.8 8.88564 2.3
    endloop
  endfacet
  facet normal 0.707131 -0.707083 0
    outer loop
      vertex -12.8 8.88564 0
      vertex -13.3856 8.3 2.3
      vertex -13.3856 8.3 0
    endloop
  endfacet
  facet normal 0.25882 0.965926 -0
    outer loop
      vertex -12 5.9 0
      vertex -12.8 6.11436 2.3
      vertex -12 5.9 2.3
    endloop
  endfacet
  facet normal 0.25882 0.965926 0
    outer loop
      vertex -12.8 6.11436 2.3
      vertex -12 5.9 0
      vertex -12.8 6.11436 0
    endloop
  endfacet
  facet normal 0.25882 -0.965926 0
    outer loop
      vertex -12.8 8.88564 0
      vertex -12 9.1 2.3
      vertex -12.8 8.88564 2.3
    endloop
  endfacet
  facet normal 0.25882 -0.965926 0
    outer loop
      vertex -12 9.1 2.3
      vertex -12.8 8.88564 0
      vertex -12 9.1 0
    endloop
  endfacet
  facet normal 0.965914 -0.258865 0
    outer loop
      vertex -13.6 7.5 2.3
      vertex -13.3856 8.3 0
      vertex -13.3856 8.3 2.3
    endloop
  endfacet
  facet normal 0.965914 -0.258865 0
    outer loop
      vertex -13.3856 8.3 0
      vertex -13.6 7.5 2.3
      vertex -13.6 7.5 0
    endloop
  endfacet
  facet normal -0.25882 -0.965926 0
    outer loop
      vertex -12 9.1 0
      vertex -11.2 8.88564 2.3
      vertex -12 9.1 2.3
    endloop
  endfacet
  facet normal -0.25882 -0.965926 -0
    outer loop
      vertex -11.2 8.88564 2.3
      vertex -12 9.1 0
      vertex -11.2 8.88564 0
    endloop
  endfacet
  facet normal 0.25882 0.965926 -0
    outer loop
      vertex 12 -9.1 0
      vertex 11.2 -8.88564 2.3
      vertex 12 -9.1 2.3
    endloop
  endfacet
  facet normal 0.25882 0.965926 0
    outer loop
      vertex 11.2 -8.88564 2.3
      vertex 12 -9.1 0
      vertex 11.2 -8.88564 0
    endloop
  endfacet
  facet normal -0.707131 -0.707083 0
    outer loop
      vertex 13.3856 -6.7 0
      vertex 12.8 -6.11436 2.3
      vertex 12.8 -6.11436 0
    endloop
  endfacet
  facet normal -0.707131 -0.707083 0
    outer loop
      vertex 12.8 -6.11436 2.3
      vertex 13.3856 -6.7 0
      vertex 13.3856 -6.7 2.3
    endloop
  endfacet
  facet normal -0.965914 -0.258865 0
    outer loop
      vertex 13.6 -7.5 0
      vertex 13.3856 -6.7 2.3
      vertex 13.3856 -6.7 0
    endloop
  endfacet
  facet normal -0.965914 -0.258865 0
    outer loop
      vertex 13.3856 -6.7 2.3
      vertex 13.6 -7.5 0
      vertex 13.6 -7.5 2.3
    endloop
  endfacet
  facet normal -0.25882 -0.965926 0
    outer loop
      vertex 12 -5.9 1.9
      vertex 12.8 -6.11436 2.3
      vertex 12 -5.9 2.3
    endloop
  endfacet
  facet normal -0.25882 -0.965926 0
    outer loop
      vertex 12.8 -6.11436 0
      vertex 12 -5.9 1.9
      vertex 12 -5.9 0
    endloop
  endfacet
  facet normal -0.25882 -0.965926 0
    outer loop
      vertex 12 -5.9 1.9
      vertex 12.8 -6.11436 0
      vertex 12.8 -6.11436 2.3
    endloop
  endfacet
  facet normal -0.965914 0.258865 0
    outer loop
      vertex 13.3856 -8.3 0
      vertex 13.6 -7.5 2.3
      vertex 13.6 -7.5 0
    endloop
  endfacet
  facet normal -0.965914 0.258865 0
    outer loop
      vertex 13.6 -7.5 2.3
      vertex 13.3856 -8.3 0
      vertex 13.3856 -8.3 2.3
    endloop
  endfacet
  facet normal 0.25882 -0.965926 0
    outer loop
      vertex 11.2 -6.11436 0
      vertex 12 -5.9 1.9
      vertex 11.2 -6.11436 1.9
    endloop
  endfacet
  facet normal 0.25882 -0.965926 0
    outer loop
      vertex 12 -5.9 1.9
      vertex 11.2 -6.11436 0
      vertex 12 -5.9 0
    endloop
  endfacet
  facet normal -0.25882 0.965926 0
    outer loop
      vertex 12.8 -8.88564 0
      vertex 12 -9.1 2.3
      vertex 12.8 -8.88564 2.3
    endloop
  endfacet
  facet normal -0.25882 0.965926 0
    outer loop
      vertex 12 -9.1 2.3
      vertex 12.8 -8.88564 0
      vertex 12 -9.1 0
    endloop
  endfacet
  facet normal 0.965914 -0.258865 0
    outer loop
      vertex 10.601 -6.75 2.3
      vertex 10.4 -7.5 2.3
      vertex 10.601 -6.75 1.9
    endloop
  endfacet
  facet normal 0.965914 -0.258865 0
    outer loop
      vertex 10.601 -6.75 1.9
      vertex 10.6144 -6.7 0
      vertex 10.6144 -6.7 1.9
    endloop
  endfacet
  facet normal 0.965914 -0.258865 0
    outer loop
      vertex 10.4 -7.5 0
      vertex 10.601 -6.75 1.9
      vertex 10.4 -7.5 2.3
    endloop
  endfacet
  facet normal 0.965914 -0.258865 -4.8504e-16
    outer loop
      vertex 10.601 -6.75 1.9
      vertex 10.4 -7.5 0
      vertex 10.6144 -6.7 0
    endloop
  endfacet
  facet normal 0.707131 -0.707083 0
    outer loop
      vertex 10.6144 -6.7 1.9
      vertex 11.2 -6.11436 0
      vertex 11.2 -6.11436 1.9
    endloop
  endfacet
  facet normal 0.707131 -0.707083 0
    outer loop
      vertex 11.2 -6.11436 0
      vertex 10.6144 -6.7 1.9
      vertex 10.6144 -6.7 0
    endloop
  endfacet
  facet normal -0.707131 0.707083 0
    outer loop
      vertex 12.8 -8.88564 0
      vertex 13.3856 -8.3 2.3
      vertex 13.3856 -8.3 0
    endloop
  endfacet
  facet normal -0.707131 0.707083 0
    outer loop
      vertex 13.3856 -8.3 2.3
      vertex 12.8 -8.88564 0
      vertex 12.8 -8.88564 2.3
    endloop
  endfacet
  facet normal 0.707131 0.707083 0
    outer loop
      vertex 11.2 -8.88564 2.3
      vertex 10.6144 -8.3 0
      vertex 10.6144 -8.3 2.3
    endloop
  endfacet
  facet normal 0.707131 0.707083 0
    outer loop
      vertex 10.6144 -8.3 0
      vertex 11.2 -8.88564 2.3
      vertex 11.2 -8.88564 0
    endloop
  endfacet
  facet normal 0 0 -1
    outer loop
      vertex 11.2 -8.88564 2.3
      vertex 12 -6.75 2.3
      vertex 12 -9.1 2.3
    endloop
  endfacet
  facet normal 0 0 -1
    outer loop
      vertex 10.6144 -8.3 2.3
      vertex 12 -6.75 2.3
      vertex 11.2 -8.88564 2.3
    endloop
  endfacet
  facet normal 0 0 -1
    outer loop
      vertex 10.4 -7.5 2.3
      vertex 12 -6.75 2.3
      vertex 10.6144 -8.3 2.3
    endloop
  endfacet
  facet normal -0 0 -1
    outer loop
      vertex 12 -6.75 2.3
      vertex 10.4 -7.5 2.3
      vertex 10.601 -6.75 2.3
    endloop
  endfacet
  facet normal 0 0 -1
    outer loop
      vertex 12 -6.75 2.3
      vertex 13.6 -7.5 2.3
      vertex 13.3856 -8.3 2.3
    endloop
  endfacet
  facet normal 0 0 -1
    outer loop
      vertex 12 -6.75 2.3
      vertex 13.3856 -8.3 2.3
      vertex 12.8 -8.88564 2.3
    endloop
  endfacet
  facet normal 0 0 -1
    outer loop
      vertex 13.6 -7.5 2.3
      vertex 12 -6.75 2.3
      vertex 13.3856 -6.7 2.3
    endloop
  endfacet
  facet normal 0 0 -1
    outer loop
      vertex 12 -6.75 2.3
      vertex 12.8 -8.88564 2.3
      vertex 12 -9.1 2.3
    endloop
  endfacet
  facet normal -0 0 -1
    outer loop
      vertex 13.3856 -6.7 2.3
      vertex 12 -6.75 2.3
      vertex 12.8 -6.11436 2.3
    endloop
  endfacet
  facet normal -0 0 -1
    outer loop
      vertex 12.8 -6.11436 2.3
      vertex 12 -6.75 2.3
      vertex 12 -5.9 2.3
    endloop
  endfacet
  facet normal 0.965914 0.258865 0
    outer loop
      vertex 10.6144 -8.3 2.3
      vertex 10.4 -7.5 0
      vertex 10.4 -7.5 2.3
    endloop
  endfacet
  facet normal 0.965914 0.258865 0
    outer loop
      vertex 10.4 -7.5 0
      vertex 10.6144 -8.3 2.3
      vertex 10.6144 -8.3 0
    endloop
  endfacet
  facet normal -0.707131 -0.707083 0
    outer loop
      vertex 13.3856 8.3 0
      vertex 12.8 8.88564 2.3
      vertex 12.8 8.88564 0
    endloop
  endfacet
  facet normal -0.707131 -0.707083 0
    outer loop
      vertex 12.8 8.88564 2.3
      vertex 13.3856 8.3 0
      vertex 13.3856 8.3 2.3
    endloop
  endfacet
  facet normal -0.965914 -0.258865 0
    outer loop
      vertex 13.6 7.5 0
      vertex 13.3856 8.3 2.3
      vertex 13.3856 8.3 0
    endloop
  endfacet
  facet normal -0.965914 -0.258865 0
    outer loop
      vertex 13.3856 8.3 2.3
      vertex 13.6 7.5 0
      vertex 13.6 7.5 2.3
    endloop
  endfacet
  facet normal -0.25882 -0.965926 0
    outer loop
      vertex 12 9.1 0
      vertex 12.8 8.88564 2.3
      vertex 12 9.1 2.3
    endloop
  endfacet
  facet normal -0.25882 -0.965926 -0
    outer loop
      vertex 12.8 8.88564 2.3
      vertex 12 9.1 0
      vertex 12.8 8.88564 0
    endloop
  endfacet
  facet normal 0.25882 -0.965926 0
    outer loop
      vertex 11.2 8.88564 0
      vertex 12 9.1 2.3
      vertex 11.2 8.88564 2.3
    endloop
  endfacet
  facet normal 0.25882 -0.965926 0
    outer loop
      vertex 12 9.1 2.3
      vertex 11.2 8.88564 0
      vertex 12 9.1 0
    endloop
  endfacet
  facet normal 0.707131 -0.707083 0
    outer loop
      vertex 10.6144 8.3 2.3
      vertex 11.2 8.88564 0
      vertex 11.2 8.88564 2.3
    endloop
  endfacet
  facet normal 0.707131 -0.707083 0
    outer loop
      vertex 11.2 8.88564 0
      vertex 10.6144 8.3 2.3
      vertex 10.6144 8.3 0
    endloop
  endfacet
  facet normal 0.965914 0.258865 -0
    outer loop
      vertex 10.601 6.75 1.9
      vertex 10.4 7.5 2.3
      vertex 10.601 6.75 2.3
    endloop
  endfacet
  facet normal 0.965914 0.258865 0
    outer loop
      vertex 10.4 7.5 2.3
      vertex 10.601 6.75 1.9
      vertex 10.4 7.5 0
    endloop
  endfacet
  facet normal 0.965914 0.258865 -0
    outer loop
      vertex 10.6144 6.7 0
      vertex 10.601 6.75 1.9
      vertex 10.6144 6.7 1.9
    endloop
  endfacet
  facet normal 0.965914 0.258865 -4.8504e-16
    outer loop
      vertex 10.601 6.75 1.9
      vertex 10.6144 6.7 0
      vertex 10.4 7.5 0
    endloop
  endfacet
  facet normal 0.707131 0.707083 0
    outer loop
      vertex 11.2 6.11436 1.9
      vertex 10.6144 6.7 0
      vertex 10.6144 6.7 1.9
    endloop
  endfacet
  facet normal 0.707131 0.707083 0
    outer loop
      vertex 10.6144 6.7 0
      vertex 11.2 6.11436 1.9
      vertex 11.2 6.11436 0
    endloop
  endfacet
  facet normal -0.25882 0.965926 0
    outer loop
      vertex 12.8 6.11436 2.3
      vertex 12 5.9 1.9
      vertex 12 5.9 2.3
    endloop
  endfacet
  facet normal -0.25882 0.965926 0
    outer loop
      vertex 12.8 6.11436 0
      vertex 12 5.9 1.9
      vertex 12.8 6.11436 2.3
    endloop
  endfacet
  facet normal -0.25882 0.965926 0
    outer loop
      vertex 12 5.9 1.9
      vertex 12.8 6.11436 0
      vertex 12 5.9 0
    endloop
  endfacet
  facet normal -0.965914 0.258865 0
    outer loop
      vertex 13.3856 6.7 0
      vertex 13.6 7.5 2.3
      vertex 13.6 7.5 0
    endloop
  endfacet
  facet normal -0.965914 0.258865 0
    outer loop
      vertex 13.6 7.5 2.3
      vertex 13.3856 6.7 0
      vertex 13.3856 6.7 2.3
    endloop
  endfacet
  facet normal -0.707131 0.707083 0
    outer loop
      vertex 12.8 6.11436 0
      vertex 13.3856 6.7 2.3
      vertex 13.3856 6.7 0
    endloop
  endfacet
  facet normal -0.707131 0.707083 0
    outer loop
      vertex 13.3856 6.7 2.3
      vertex 12.8 6.11436 0
      vertex 12.8 6.11436 2.3
    endloop
  endfacet
  facet normal 0 0 -1
    outer loop
      vertex 12 6.75 2.3
      vertex 13.6 7.5 2.3
      vertex 13.3856 6.7 2.3
    endloop
  endfacet
  facet normal 0 0 -1
    outer loop
      vertex 12 6.75 2.3
      vertex 13.3856 6.7 2.3
      vertex 12.8 6.11436 2.3
    endloop
  endfacet
  facet normal -0 0 -1
    outer loop
      vertex 13.6 7.5 2.3
      vertex 12 6.75 2.3
      vertex 13.3856 8.3 2.3
    endloop
  endfacet
  facet normal 0 0 -1
    outer loop
      vertex 12 6.75 2.3
      vertex 12.8 6.11436 2.3
      vertex 12 5.9 2.3
    endloop
  endfacet
  facet normal -0 0 -1
    outer loop
      vertex 13.3856 8.3 2.3
      vertex 12 6.75 2.3
      vertex 12.8 8.88564 2.3
    endloop
  endfacet
  facet normal 0 0 -1
    outer loop
      vertex 12 6.75 2.3
      vertex 12 9.1 2.3
      vertex 12.8 8.88564 2.3
    endloop
  endfacet
  facet normal 0 0 -1
    outer loop
      vertex 12 6.75 2.3
      vertex 11.2 8.88564 2.3
      vertex 12 9.1 2.3
    endloop
  endfacet
  facet normal 0 0 -1
    outer loop
      vertex 12 6.75 2.3
      vertex 10.6144 8.3 2.3
      vertex 11.2 8.88564 2.3
    endloop
  endfacet
  facet normal 0 0 -1
    outer loop
      vertex 10.4 7.5 2.3
      vertex 12 6.75 2.3
      vertex 10.601 6.75 2.3
    endloop
  endfacet
  facet normal 0 0 -1
    outer loop
      vertex 12 6.75 2.3
      vertex 10.4 7.5 2.3
      vertex 10.6144 8.3 2.3
    endloop
  endfacet
  facet normal 0.25882 0.965926 -0
    outer loop
      vertex 12 5.9 0
      vertex 11.2 6.11436 1.9
      vertex 12 5.9 1.9
    endloop
  endfacet
  facet normal 0.25882 0.965926 0
    outer loop
      vertex 11.2 6.11436 1.9
      vertex 12 5.9 0
      vertex 11.2 6.11436 0
    endloop
  endfacet
  facet normal 0.965914 -0.258865 0
    outer loop
      vertex 10.4 7.5 2.3
      vertex 10.6144 8.3 0
      vertex 10.6144 8.3 2.3
    endloop
  endfacet
  facet normal 0.965914 -0.258865 0
    outer loop
      vertex 10.6144 8.3 0
      vertex 10.4 7.5 2.3
      vertex 10.4 7.5 0
    endloop
  endfacet
  facet normal -0.831458 0.555587 0
    outer loop
      vertex -17.7716 11.6481 0
      vertex -17.1213 12.6213 6
      vertex -17.1213 12.6213 0
    endloop
  endfacet
  facet normal -0.831458 0.555587 0
    outer loop
      vertex -17.1213 12.6213 6
      vertex -17.7716 11.6481 0
      vertex -17.7716 11.6481 6
    endloop
  endfacet
  facet normal 0.831458 -0.555587 0
    outer loop
      vertex 17.1213 -12.6213 6
      vertex 17.7716 -11.6481 0
      vertex 17.7716 -11.6481 6
    endloop
  endfacet
  facet normal 0.831458 -0.555587 0
    outer loop
      vertex 17.7716 -11.6481 0
      vertex 17.1213 -12.6213 6
      vertex 17.1213 -12.6213 0
    endloop
  endfacet
  facet normal 1 -0 0
    outer loop
      vertex 18 -10.5 6
      vertex 18 10.5 0
      vertex 18 10.5 6
    endloop
  endfacet
  facet normal 1 0 0
    outer loop
      vertex 18 10.5 0
      vertex 18 -10.5 6
      vertex 18 -10.5 0
    endloop
  endfacet
  facet normal 0.555587 -0.831458 0
    outer loop
      vertex 16.1481 -13.2716 0
      vertex 17.1213 -12.6213 6
      vertex 16.1481 -13.2716 6
    endloop
  endfacet
  facet normal 0.555587 -0.831458 0
    outer loop
      vertex 17.1213 -12.6213 6
      vertex 16.1481 -13.2716 0
      vertex 17.1213 -12.6213 0
    endloop
  endfacet
  facet normal -0.555587 -0.831458 0
    outer loop
      vertex -17.1213 -12.6213 0
      vertex -16.1481 -13.2716 6
      vertex -17.1213 -12.6213 6
    endloop
  endfacet
  facet normal -0.555587 -0.831458 -0
    outer loop
      vertex -16.1481 -13.2716 6
      vertex -17.1213 -12.6213 0
      vertex -16.1481 -13.2716 0
    endloop
  endfacet
  facet normal -0.980781 0.195114 0
    outer loop
      vertex -18 10.5 0
      vertex -17.7716 11.6481 6
      vertex -17.7716 11.6481 0
    endloop
  endfacet
  facet normal -0.980781 0.195114 0
    outer loop
      vertex -17.7716 11.6481 6
      vertex -18 10.5 0
      vertex -18 10.5 6
    endloop
  endfacet
  facet normal -0.831458 -0.555587 0
    outer loop
      vertex -17.1213 -12.6213 0
      vertex -17.7716 -11.6481 6
      vertex -17.7716 -11.6481 0
    endloop
  endfacet
  facet normal -0.831458 -0.555587 0
    outer loop
      vertex -17.7716 -11.6481 6
      vertex -17.1213 -12.6213 0
      vertex -17.1213 -12.6213 6
    endloop
  endfacet
  facet normal 0 0 -1
    outer loop
      vertex 18 -10.5 0
      vertex 13.3856 -8.3 0
      vertex 13.6 -7.5 0
    endloop
  endfacet
  facet normal 0 0 -1
    outer loop
      vertex 16.1481 -13.2716 0
      vertex 12.8 -8.88564 0
      vertex 13.3856 -8.3 0
    endloop
  endfacet
  facet normal 0 0 -1
    outer loop
      vertex 15 -13.5 0
      vertex 12 -9.1 0
      vertex 12.8 -8.88564 0
    endloop
  endfacet
  facet normal 0 0 -1
    outer loop
      vertex 15 -13.5 0
      vertex 11.2 -8.88564 0
      vertex 12 -9.1 0
    endloop
  endfacet
  facet normal 0 0 -1
    outer loop
      vertex -11.2 -8.88564 0
      vertex 11.2 -8.88564 0
      vertex 15 -13.5 0
    endloop
  endfacet
  facet normal 0 0 -1
    outer loop
      vertex 10.6144 -8.3 0
      vertex -10.4 -7.5 0
      vertex 10.4 -7.5 0
    endloop
  endfacet
  facet normal 0 0 -1
    outer loop
      vertex 11.2 -8.88564 0
      vertex -11.2 -8.88564 0
      vertex 10.6144 -8.3 0
    endloop
  endfacet
  facet normal 0 0 -1
    outer loop
      vertex 10.6144 -8.3 0
      vertex -10.6144 -8.3 0
      vertex -10.4 -7.5 0
    endloop
  endfacet
  facet normal -0 0 -1
    outer loop
      vertex 10.6144 -8.3 0
      vertex -11.2 -8.88564 0
      vertex -10.6144 -8.3 0
    endloop
  endfacet
  facet normal 0 0 -1
    outer loop
      vertex -15 -13.5 0
      vertex -11.2 -8.88564 0
      vertex 15 -13.5 0
    endloop
  endfacet
  facet normal -0 0 -1
    outer loop
      vertex -12.8 -8.88564 0
      vertex -16.1481 -13.2716 0
      vertex -13.3856 -8.3 0
    endloop
  endfacet
  facet normal 0 0 -1
    outer loop
      vertex -16.1481 -13.2716 0
      vertex -12.8 -8.88564 0
      vertex -15 -13.5 0
    endloop
  endfacet
  facet normal -0 0 -1
    outer loop
      vertex -12 -9.1 0
      vertex -15 -13.5 0
      vertex -12.8 -8.88564 0
    endloop
  endfacet
  facet normal 0 0 -1
    outer loop
      vertex -11.2 -8.88564 0
      vertex -15 -13.5 0
      vertex -12 -9.1 0
    endloop
  endfacet
  facet normal 0 0 -1
    outer loop
      vertex 17.1213 -12.6213 0
      vertex 13.3856 -8.3 0
      vertex 17.7716 -11.6481 0
    endloop
  endfacet
  facet normal 0 0 -1
    outer loop
      vertex 18 -10.5 0
      vertex 15.5 -1.5 0
      vertex 18 10.5 0
    endloop
  endfacet
  facet normal 0 0 -1
    outer loop
      vertex 16.1481 -13.2716 0
      vertex 13.3856 -8.3 0
      vertex 17.1213 -12.6213 0
    endloop
  endfacet
  facet normal 0 0 -1
    outer loop
      vertex 15.5 1.5 0
      vertex 18 10.5 0
      vertex 15.5 -1.5 0
    endloop
  endfacet
  facet normal 0 0 -1
    outer loop
      vertex 12.8 -8.88564 0
      vertex 16.1481 -13.2716 0
      vertex 15 -13.5 0
    endloop
  endfacet
  facet normal 0 0 -1
    outer loop
      vertex 13.3856 6.7 0
      vertex 18 10.5 0
      vertex 15.5 1.5 0
    endloop
  endfacet
  facet normal 0 0 -1
    outer loop
      vertex 13.3856 8.3 0
      vertex 18 10.5 0
      vertex 13.6 7.5 0
    endloop
  endfacet
  facet normal 0 0 -1
    outer loop
      vertex 17.7716 -11.6481 0
      vertex 13.3856 -8.3 0
      vertex 18 -10.5 0
    endloop
  endfacet
  facet normal 0 0 -1
    outer loop
      vertex 13.3856 -6.7 0
      vertex 18 -10.5 0
      vertex 13.6 -7.5 0
    endloop
  endfacet
  facet normal 0 0 -1
    outer loop
      vertex 18 -10.5 0
      vertex 13.3856 -6.7 0
      vertex 15.5 -1.5 0
    endloop
  endfacet
  facet normal 0 0 -1
    outer loop
      vertex 12.8 -6.11436 0
      vertex 15.5 -1.5 0
      vertex 13.3856 -6.7 0
    endloop
  endfacet
  facet normal 0 0 -1
    outer loop
      vertex 12 -5.9 0
      vertex 15.5 -1.5 0
      vertex 12.8 -6.11436 0
    endloop
  endfacet
  facet normal 0 0 -1
    outer loop
      vertex 11.2 -6.11436 0
      vertex 15.5 -1.5 0
      vertex 12 -5.9 0
    endloop
  endfacet
  facet normal 0 0 -1
    outer loop
      vertex -11.2 -6.11436 0
      vertex 11.2 -6.11436 0
      vertex 10.6144 -6.7 0
    endloop
  endfacet
  facet normal 0 0 -1
    outer loop
      vertex -10.4 -7.5 0
      vertex 10.6144 -6.7 0
      vertex 10.4 -7.5 0
    endloop
  endfacet
  facet normal 0 0 -1
    outer loop
      vertex -10.6144 -6.7 0
      vertex 10.6144 -6.7 0
      vertex -10.4 -7.5 0
    endloop
  endfacet
  facet normal 0 0 -1
    outer loop
      vertex -11.2 -6.11436 0
      vertex 10.6144 -6.7 0
      vertex -10.6144 -6.7 0
    endloop
  endfacet
  facet normal 0 0 -1
    outer loop
      vertex 11.2 -6.11436 0
      vertex -11.2 -6.11436 0
      vertex 15.5 -1.5 0
    endloop
  endfacet
  facet normal 0 0 -1
    outer loop
      vertex -15.5 -1.5 0
      vertex -11.2 -6.11436 0
      vertex -12 -5.9 0
    endloop
  endfacet
  facet normal 0 0 -1
    outer loop
      vertex -11.2 -6.11436 0
      vertex -15.5 -1.5 0
      vertex 15.5 -1.5 0
    endloop
  endfacet
  facet normal 0 0 -1
    outer loop
      vertex -12.8 -6.11436 0
      vertex -15.5 -1.5 0
      vertex -12 -5.9 0
    endloop
  endfacet
  facet normal 0 0 -1
    outer loop
      vertex -13.3856 -6.7 0
      vertex -15.5 -1.5 0
      vertex -12.8 -6.11436 0
    endloop
  endfacet
  facet normal 0 0 -1
    outer loop
      vertex -18 -10.5 0
      vertex -13.3856 -6.7 0
      vertex -13.6 -7.5 0
    endloop
  endfacet
  facet normal -0 0 -1
    outer loop
      vertex -13.3856 -8.3 0
      vertex -18 -10.5 0
      vertex -13.6 -7.5 0
    endloop
  endfacet
  facet normal -0 0 -1
    outer loop
      vertex -13.3856 -6.7 0
      vertex -18 -10.5 0
      vertex -15.5 -1.5 0
    endloop
  endfacet
  facet normal 0 0 -1
    outer loop
      vertex -17.1213 -12.6213 0
      vertex -13.3856 -8.3 0
      vertex -16.1481 -13.2716 0
    endloop
  endfacet
  facet normal -0 0 -1
    outer loop
      vertex 18 10.5 0
      vertex 13.3856 8.3 0
      vertex 17.7716 11.6481 0
    endloop
  endfacet
  facet normal -0 0 -1
    outer loop
      vertex 17.7716 11.6481 0
      vertex 13.3856 8.3 0
      vertex 17.1213 12.6213 0
    endloop
  endfacet
  facet normal -0 0 -1
    outer loop
      vertex 17.1213 12.6213 0
      vertex 13.3856 8.3 0
      vertex 16.1481 13.2716 0
    endloop
  endfacet
  facet normal 0 0 -1
    outer loop
      vertex 18 10.5 0
      vertex 13.3856 6.7 0
      vertex 13.6 7.5 0
    endloop
  endfacet
  facet normal 0 0 -1
    outer loop
      vertex 15.5 1.5 0
      vertex 12.8 6.11436 0
      vertex 13.3856 6.7 0
    endloop
  endfacet
  facet normal 0 0 -1
    outer loop
      vertex 15.5 1.5 0
      vertex 12 5.9 0
      vertex 12.8 6.11436 0
    endloop
  endfacet
  facet normal 0 0 -1
    outer loop
      vertex 15.5 1.5 0
      vertex 11.2 6.11436 0
      vertex 12 5.9 0
    endloop
  endfacet
  facet normal 0 0 -1
    outer loop
      vertex -11.2 6.11436 0
      vertex 11.2 6.11436 0
      vertex 15.5 1.5 0
    endloop
  endfacet
  facet normal 0 0 -1
    outer loop
      vertex 10.6144 6.7 0
      vertex -10.4 7.5 0
      vertex 10.4 7.5 0
    endloop
  endfacet
  facet normal 0 0 -1
    outer loop
      vertex 11.2 6.11436 0
      vertex -11.2 6.11436 0
      vertex 10.6144 6.7 0
    endloop
  endfacet
  facet normal 0 0 -1
    outer loop
      vertex 10.6144 6.7 0
      vertex -10.6144 6.7 0
      vertex -10.4 7.5 0
    endloop
  endfacet
  facet normal -0 0 -1
    outer loop
      vertex 10.6144 6.7 0
      vertex -11.2 6.11436 0
      vertex -10.6144 6.7 0
    endloop
  endfacet
  facet normal 0 0 -1
    outer loop
      vertex -15.5 1.5 0
      vertex -11.2 6.11436 0
      vertex 15.5 1.5 0
    endloop
  endfacet
  facet normal 0 0 -1
    outer loop
      vertex -11.2 6.11436 0
      vertex -15.5 1.5 0
      vertex -12 5.9 0
    endloop
  endfacet
  facet normal 0 0 -1
    outer loop
      vertex -15.5 1.5 0
      vertex -12.8 6.11436 0
      vertex -12 5.9 0
    endloop
  endfacet
  facet normal 0 0 -1
    outer loop
      vertex -15.5 1.5 0
      vertex -13.3856 6.7 0
      vertex -12.8 6.11436 0
    endloop
  endfacet
  facet normal 0 0 -1
    outer loop
      vertex -18 10.5 0
      vertex -13.3856 6.7 0
      vertex -15.5 1.5 0
    endloop
  endfacet
  facet normal 0 0 -1
    outer loop
      vertex -13.3856 6.7 0
      vertex -18 10.5 0
      vertex -13.6 7.5 0
    endloop
  endfacet
  facet normal -0 0 -1
    outer loop
      vertex -15.5 -1.5 0
      vertex -18 -10.5 0
      vertex -15.5 1.5 0
    endloop
  endfacet
  facet normal 0 0 -1
    outer loop
      vertex -18 10.5 0
      vertex -15.5 1.5 0
      vertex -18 -10.5 0
    endloop
  endfacet
  facet normal 0 0 -1
    outer loop
      vertex -17.7716 -11.6481 0
      vertex -13.3856 -8.3 0
      vertex -17.1213 -12.6213 0
    endloop
  endfacet
  facet normal 0 0 -1
    outer loop
      vertex -13.6 7.5 0
      vertex -18 10.5 0
      vertex -15 13.5 0
    endloop
  endfacet
  facet normal 0 0 -1
    outer loop
      vertex -13.3856 -8.3 0
      vertex -17.7716 -11.6481 0
      vertex -18 -10.5 0
    endloop
  endfacet
  facet normal 0 0 -1
    outer loop
      vertex -15 13.5 0
      vertex -18 10.5 0
      vertex -16.1481 13.2716 0
    endloop
  endfacet
  facet normal 0 0 -1
    outer loop
      vertex -16.1481 13.2716 0
      vertex -18 10.5 0
      vertex -17.1213 12.6213 0
    endloop
  endfacet
  facet normal 0 0 -1
    outer loop
      vertex -17.1213 12.6213 0
      vertex -18 10.5 0
      vertex -17.7716 11.6481 0
    endloop
  endfacet
  facet normal 0 0 -1
    outer loop
      vertex 12.8 8.88564 0
      vertex 16.1481 13.2716 0
      vertex 13.3856 8.3 0
    endloop
  endfacet
  facet normal -0 0 -1
    outer loop
      vertex 16.1481 13.2716 0
      vertex 12.8 8.88564 0
      vertex 15 13.5 0
    endloop
  endfacet
  facet normal 0 0 -1
    outer loop
      vertex 12 9.1 0
      vertex 15 13.5 0
      vertex 12.8 8.88564 0
    endloop
  endfacet
  facet normal 0 0 -1
    outer loop
      vertex 11.2 8.88564 0
      vertex 15 13.5 0
      vertex 12 9.1 0
    endloop
  endfacet
  facet normal 0 0 -1
    outer loop
      vertex -11.2 8.88564 0
      vertex 11.2 8.88564 0
      vertex 10.6144 8.3 0
    endloop
  endfacet
  facet normal 0 0 -1
    outer loop
      vertex -10.4 7.5 0
      vertex 10.6144 8.3 0
      vertex 10.4 7.5 0
    endloop
  endfacet
  facet normal 0 0 -1
    outer loop
      vertex -10.6144 8.3 0
      vertex 10.6144 8.3 0
      vertex -10.4 7.5 0
    endloop
  endfacet
  facet normal 0 0 -1
    outer loop
      vertex -11.2 8.88564 0
      vertex 10.6144 8.3 0
      vertex -10.6144 8.3 0
    endloop
  endfacet
  facet normal 0 0 -1
    outer loop
      vertex 11.2 8.88564 0
      vertex -11.2 8.88564 0
      vertex 15 13.5 0
    endloop
  endfacet
  facet normal 0 0 -1
    outer loop
      vertex -15 13.5 0
      vertex -11.2 8.88564 0
      vertex -12 9.1 0
    endloop
  endfacet
  facet normal 0 0 -1
    outer loop
      vertex -11.2 8.88564 0
      vertex -15 13.5 0
      vertex 15 13.5 0
    endloop
  endfacet
  facet normal 0 0 -1
    outer loop
      vertex -12.8 8.88564 0
      vertex -15 13.5 0
      vertex -12 9.1 0
    endloop
  endfacet
  facet normal 0 0 -1
    outer loop
      vertex -13.3856 8.3 0
      vertex -15 13.5 0
      vertex -12.8 8.88564 0
    endloop
  endfacet
  facet normal 0 0 -1
    outer loop
      vertex -15 13.5 0
      vertex -13.3856 8.3 0
      vertex -13.6 7.5 0
    endloop
  endfacet
  facet normal 0 1 -0
    outer loop
      vertex 15 13.5 0
      vertex -15 13.5 6
      vertex 15 13.5 6
    endloop
  endfacet
  facet normal 0 1 0
    outer loop
      vertex -15 13.5 6
      vertex 15 13.5 0
      vertex -15 13.5 0
    endloop
  endfacet
  facet normal -0.195114 -0.980781 0
    outer loop
      vertex -16.1481 -13.2716 0
      vertex -15 -13.5 6
      vertex -16.1481 -13.2716 6
    endloop
  endfacet
  facet normal -0.195114 -0.980781 -0
    outer loop
      vertex -15 -13.5 6
      vertex -16.1481 -13.2716 0
      vertex -15 -13.5 0
    endloop
  endfacet
  facet normal 0.831458 0.555587 0
    outer loop
      vertex 17.7716 11.6481 6
      vertex 17.1213 12.6213 0
      vertex 17.1213 12.6213 6
    endloop
  endfacet
  facet normal 0.831458 0.555587 0
    outer loop
      vertex 17.1213 12.6213 0
      vertex 17.7716 11.6481 6
      vertex 17.7716 11.6481 0
    endloop
  endfacet
  facet normal 0.980781 0.195114 0
    outer loop
      vertex 18 10.5 6
      vertex 17.7716 11.6481 0
      vertex 17.7716 11.6481 6
    endloop
  endfacet
  facet normal 0.980781 0.195114 0
    outer loop
      vertex 17.7716 11.6481 0
      vertex 18 10.5 6
      vertex 18 10.5 0
    endloop
  endfacet
  facet normal 0 -1 0
    outer loop
      vertex -15 -13.5 0
      vertex 15 -13.5 6
      vertex -15 -13.5 6
    endloop
  endfacet
  facet normal 0 -1 -0
    outer loop
      vertex 15 -13.5 6
      vertex -15 -13.5 0
      vertex 15 -13.5 0
    endloop
  endfacet
  facet normal 0.195114 -0.980781 0
    outer loop
      vertex 15 -13.5 0
      vertex 16.1481 -13.2716 6
      vertex 15 -13.5 6
    endloop
  endfacet
  facet normal 0.195114 -0.980781 0
    outer loop
      vertex 16.1481 -13.2716 6
      vertex 15 -13.5 0
      vertex 16.1481 -13.2716 0
    endloop
  endfacet
  facet normal -1 0 0
    outer loop
      vertex -18 10.5 0
      vertex -18 2.5 2.3
      vertex -18 10.5 6
    endloop
  endfacet
  facet normal -1 0 0
    outer loop
      vertex -18 10.5 0
      vertex -18 -2.5 2.3
      vertex -18 2.5 2.3
    endloop
  endfacet
  facet normal -1 0 0
    outer loop
      vertex -18 -10.5 6
      vertex -18 -2.5 2.3
      vertex -18 -10.5 0
    endloop
  endfacet
  facet normal -1 0 0
    outer loop
      vertex -18 -10.5 0
      vertex -18 -2.5 2.3
      vertex -18 10.5 0
    endloop
  endfacet
  facet normal -1 0 0
    outer loop
      vertex -18 2.5 5.3
      vertex -18 10.5 6
      vertex -18 2.5 2.3
    endloop
  endfacet
  facet normal -1 0 0
    outer loop
      vertex -18 -2.5 5.3
      vertex -18 10.5 6
      vertex -18 2.5 5.3
    endloop
  endfacet
  facet normal -1 0 0
    outer loop
      vertex -18 -2.5 5.3
      vertex -18 -10.5 6
      vertex -18 10.5 6
    endloop
  endfacet
  facet normal -1 0 0
    outer loop
      vertex -18 -2.5 2.3
      vertex -18 -10.5 6
      vertex -18 -2.5 5.3
    endloop
  endfacet
  facet normal 0.195114 0.980781 -0
    outer loop
      vertex 16.1481 13.2716 0
      vertex 15 13.5 6
      vertex 16.1481 13.2716 6
    endloop
  endfacet
  facet normal 0.195114 0.980781 0
    outer loop
      vertex 15 13.5 6
      vertex 16.1481 13.2716 0
      vertex 15 13.5 0
    endloop
  endfacet
  facet normal -0.195114 0.980781 0
    outer loop
      vertex -15 13.5 0
      vertex -16.1481 13.2716 6
      vertex -15 13.5 6
    endloop
  endfacet
  facet normal -0.195114 0.980781 0
    outer loop
      vertex -16.1481 13.2716 6
      vertex -15 13.5 0
      vertex -16.1481 13.2716 0
    endloop
  endfacet
  facet normal -0.555587 0.831458 0
    outer loop
      vertex -16.1481 13.2716 0
      vertex -17.1213 12.6213 6
      vertex -16.1481 13.2716 6
    endloop
  endfacet
  facet normal -0.555587 0.831458 0
    outer loop
      vertex -17.1213 12.6213 6
      vertex -16.1481 13.2716 0
      vertex -17.1213 12.6213 0
    endloop
  endfacet
  facet normal 0.555587 0.831458 -0
    outer loop
      vertex 17.1213 12.6213 0
      vertex 16.1481 13.2716 6
      vertex 17.1213 12.6213 6
    endloop
  endfacet
  facet normal 0.555587 0.831458 0
    outer loop
      vertex 16.1481 13.2716 6
      vertex 17.1213 12.6213 0
      vertex 16.1481 13.2716 0
    endloop
  endfacet
  facet normal -0.980781 -0.195114 0
    outer loop
      vertex -17.7716 -11.6481 0
      vertex -18 -10.5 6
      vertex -18 -10.5 0
    endloop
  endfacet
  facet normal -0.980781 -0.195114 0
    outer loop
      vertex -18 -10.5 6
      vertex -17.7716 -11.6481 0
      vertex -17.7716 -11.6481 6
    endloop
  endfacet
  facet normal 0.980781 -0.195114 0
    outer loop
      vertex 17.7716 -11.6481 6
      vertex 18 -10.5 0
      vertex 18 -10.5 6
    endloop
  endfacet
  facet normal 0.980781 -0.195114 0
    outer loop
      vertex 18 -10.5 0
      vertex 17.7716 -11.6481 6
      vertex 17.7716 -11.6481 0
    endloop
  endfacet
  facet normal -0 0 1
    outer loop
      vertex -15.5 -1.5 6
      vertex -10 -6.75 6
      vertex -10 -1.5 6
    endloop
  endfacet
  facet normal 0 0 1
    outer loop
      vertex -10 -6.75 6
      vertex -15.5 -1.5 6
      vertex -18 -10.5 6
    endloop
  endfacet
  facet normal 0 0 1
    outer loop
      vertex -15.5 1.5 6
      vertex -18 10.5 6
      vertex -15.5 -1.5 6
    endloop
  endfacet
  facet normal 0 0 1
    outer loop
      vertex -18 -10.5 6
      vertex -15.5 -1.5 6
      vertex -18 10.5 6
    endloop
  endfacet
  facet normal 0 0 1
    outer loop
      vertex -18 10.5 6
      vertex -16.1481 13.2716 6
      vertex -17.1213 12.6213 6
    endloop
  endfacet
  facet normal 0 0 1
    outer loop
      vertex -10 -6.75 6
      vertex -18 -10.5 6
      vertex -15 -13.5 6
    endloop
  endfacet
  facet normal 0 0 1
    outer loop
      vertex -18 10.5 6
      vertex -17.1213 12.6213 6
      vertex -17.7716 11.6481 6
    endloop
  endfacet
  facet normal 0 0 1
    outer loop
      vertex -15 -13.5 6
      vertex -18 -10.5 6
      vertex -16.1481 -13.2716 6
    endloop
  endfacet
  facet normal 0 0 1
    outer loop
      vertex -16.1481 -13.2716 6
      vertex -18 -10.5 6
      vertex -17.1213 -12.6213 6
    endloop
  endfacet
  facet normal 0 0 1
    outer loop
      vertex -17.1213 -12.6213 6
      vertex -18 -10.5 6
      vertex -17.7716 -11.6481 6
    endloop
  endfacet
  facet normal 0 0 1
    outer loop
      vertex 15 13.5 6
      vertex -10 6.75 6
      vertex 12 6.75 6
    endloop
  endfacet
  facet normal -0 0 1
    outer loop
      vertex -15 13.5 6
      vertex -10 6.75 6
      vertex 15 13.5 6
    endloop
  endfacet
  facet normal 0 0 1
    outer loop
      vertex -18 10.5 6
      vertex -15 13.5 6
      vertex -16.1481 13.2716 6
    endloop
  endfacet
  facet normal 0 0 1
    outer loop
      vertex -10 6.75 6
      vertex -15.5 1.5 6
      vertex -10 1.5 6
    endloop
  endfacet
  facet normal 0 0 1
    outer loop
      vertex -10 6.75 6
      vertex -18 10.5 6
      vertex -15.5 1.5 6
    endloop
  endfacet
  facet normal 0 0 1
    outer loop
      vertex -15 13.5 6
      vertex -18 10.5 6
      vertex -10 6.75 6
    endloop
  endfacet
  facet normal 0 0 1
    outer loop
      vertex 15 13.5 6
      vertex 18 10.5 6
      vertex 17.7716 11.6481 6
    endloop
  endfacet
  facet normal 0 0 1
    outer loop
      vertex 18 10.5 6
      vertex 15.5 1.5 6
      vertex 18 -10.5 6
    endloop
  endfacet
  facet normal 0 0 1
    outer loop
      vertex 15 13.5 6
      vertex 17.7716 11.6481 6
      vertex 17.1213 12.6213 6
    endloop
  endfacet
  facet normal -0 0 1
    outer loop
      vertex 15.5 -1.5 6
      vertex 18 -10.5 6
      vertex 15.5 1.5 6
    endloop
  endfacet
  facet normal 0 0 1
    outer loop
      vertex 15 13.5 6
      vertex 17.1213 12.6213 6
      vertex 16.1481 13.2716 6
    endloop
  endfacet
  facet normal -0 0 1
    outer loop
      vertex 12 -6.75 6
      vertex 18 -10.5 6
      vertex 15.5 -1.5 6
    endloop
  endfacet
  facet normal 0 -0 1
    outer loop
      vertex 15 -13.5 6
      vertex 18 -10.5 6
      vertex 12 -6.75 6
    endloop
  endfacet
  facet normal 0 0 1
    outer loop
      vertex 18 10.5 6
      vertex 15 13.5 6
      vertex 12 6.75 6
    endloop
  endfacet
  facet normal 0 0 1
    outer loop
      vertex 18 10.5 6
      vertex 12 6.75 6
      vertex 15.5 1.5 6
    endloop
  endfacet
  facet normal 0 0 1
    outer loop
      vertex 15.5 1.5 6
      vertex 12 6.75 6
      vertex 12 1.5 6
    endloop
  endfacet
  facet normal 0 0 1
    outer loop
      vertex 18 -10.5 6
      vertex 15 -13.5 6
      vertex 17.7716 -11.6481 6
    endloop
  endfacet
  facet normal 0 0 1
    outer loop
      vertex 17.7716 -11.6481 6
      vertex 15 -13.5 6
      vertex 17.1213 -12.6213 6
    endloop
  endfacet
  facet normal 0 0 1
    outer loop
      vertex 12 -6.75 6
      vertex 15.5 -1.5 6
      vertex 12 -1.5 6
    endloop
  endfacet
  facet normal 0 0 1
    outer loop
      vertex 17.1213 -12.6213 6
      vertex 15 -13.5 6
      vertex 16.1481 -13.2716 6
    endloop
  endfacet
  facet normal -0 0 1
    outer loop
      vertex -10 -6.75 6
      vertex 15 -13.5 6
      vertex 12 -6.75 6
    endloop
  endfacet
  facet normal 0 0 1
    outer loop
      vertex 15 -13.5 6
      vertex -10 -6.75 6
      vertex -15 -13.5 6
    endloop
  endfacet
  facet normal 0 0 1
    outer loop
      vertex 11.2 6.11436 1.9
      vertex 12 1.5 1.9
      vertex 12 5.9 1.9
    endloop
  endfacet
  facet normal 0 0 1
    outer loop
      vertex 10.6144 6.7 1.9
      vertex 12 1.5 1.9
      vertex 11.2 6.11436 1.9
    endloop
  endfacet
  facet normal 0 0 1
    outer loop
      vertex -10 1.5 1.9
      vertex 10.6144 6.7 1.9
      vertex 10.601 6.75 1.9
    endloop
  endfacet
  facet normal 0 0 1
    outer loop
      vertex -10 1.5 1.9
      vertex 10.601 6.75 1.9
      vertex -10 6.75 1.9
    endloop
  endfacet
  facet normal 0 0 1
    outer loop
      vertex 10.6144 6.7 1.9
      vertex -10 1.5 1.9
      vertex 12 1.5 1.9
    endloop
  endfacet
  facet normal 0 0 1
    outer loop
      vertex 12 -1.5 1.9
      vertex 11.2 -6.11436 1.9
      vertex 12 -5.9 1.9
    endloop
  endfacet
  facet normal 0 0 1
    outer loop
      vertex 12 -1.5 1.9
      vertex 10.6144 -6.7 1.9
      vertex 11.2 -6.11436 1.9
    endloop
  endfacet
  facet normal -0 0 1
    outer loop
      vertex -10 -1.5 1.9
      vertex 10.6144 -6.7 1.9
      vertex 12 -1.5 1.9
    endloop
  endfacet
  facet normal 0 0 1
    outer loop
      vertex 10.6144 -6.7 1.9
      vertex -10 -1.5 1.9
      vertex 10.601 -6.75 1.9
    endloop
  endfacet
  facet normal 0 0 1
    outer loop
      vertex 10.601 -6.75 1.9
      vertex -10 -1.5 1.9
      vertex -10 -6.75 1.9
    endloop
  endfacet
  facet normal 1 -0 0
    outer loop
      vertex -10 1.5 6
      vertex -10 6.75 1.9
      vertex -10 6.75 6
    endloop
  endfacet
  facet normal 1 0 0
    outer loop
      vertex -10 6.75 1.9
      vertex -10 1.5 6
      vertex -10 1.5 1.9
    endloop
  endfacet
  facet normal 1 -0 0
    outer loop
      vertex -10 -6.75 6
      vertex -10 -1.5 1.9
      vertex -10 -1.5 6
    endloop
  endfacet
  facet normal 1 0 0
    outer loop
      vertex -10 -1.5 1.9
      vertex -10 -6.75 6
      vertex -10 -6.75 1.9
    endloop
  endfacet
  facet normal 0 -1 0
    outer loop
      vertex -10 6.75 6
      vertex 10.601 6.75 2.3
      vertex 12 6.75 6
    endloop
  endfacet
  facet normal 0 -1 0
    outer loop
      vertex -10 6.75 1.9
      vertex 10.601 6.75 2.3
      vertex -10 6.75 6
    endloop
  endfacet
  facet normal 0 -1 -0
    outer loop
      vertex 10.601 6.75 2.3
      vertex -10 6.75 1.9
      vertex 10.601 6.75 1.9
    endloop
  endfacet
  facet normal 0 -1 -0
    outer loop
      vertex 12 6.75 6
      vertex 10.601 6.75 2.3
      vertex 12 6.75 2.3
    endloop
  endfacet
  facet normal -1 0 0
    outer loop
      vertex 12 -5.9 2.3
      vertex 12 -1.5 1.9
      vertex 12 -5.9 1.9
    endloop
  endfacet
  facet normal -1 0 0
    outer loop
      vertex 12 -1.5 1.9
      vertex 12 -5.9 2.3
      vertex 12 -1.5 6
    endloop
  endfacet
  facet normal -1 0 0
    outer loop
      vertex 12 -6.75 6
      vertex 12 -5.9 2.3
      vertex 12 -6.75 2.3
    endloop
  endfacet
  facet normal -1 0 0
    outer loop
      vertex 12 -5.9 2.3
      vertex 12 -6.75 6
      vertex 12 -1.5 6
    endloop
  endfacet
  facet normal -1 0 0
    outer loop
      vertex 12 5.9 1.9
      vertex 12 1.5 1.9
      vertex 12 5.9 2.3
    endloop
  endfacet
  facet normal -1 0 0
    outer loop
      vertex 12 5.9 2.3
      vertex 12 6.75 6
      vertex 12 6.75 2.3
    endloop
  endfacet
  facet normal -1 0 0
    outer loop
      vertex 12 1.5 6
      vertex 12 5.9 2.3
      vertex 12 1.5 1.9
    endloop
  endfacet
  facet normal -1 0 0
    outer loop
      vertex 12 5.9 2.3
      vertex 12 1.5 6
      vertex 12 6.75 6
    endloop
  endfacet
  facet normal 0 1 0
    outer loop
      vertex 10.601 -6.75 2.3
      vertex 12 -6.75 6
      vertex 12 -6.75 2.3
    endloop
  endfacet
  facet normal 0 1 0
    outer loop
      vertex 12 -6.75 6
      vertex 10.601 -6.75 2.3
      vertex -10 -6.75 6
    endloop
  endfacet
  facet normal 0 1 0
    outer loop
      vertex -10 -6.75 1.9
      vertex 10.601 -6.75 2.3
      vertex 10.601 -6.75 1.9
    endloop
  endfacet
  facet normal 0 1 0
    outer loop
      vertex 10.601 -6.75 2.3
      vertex -10 -6.75 1.9
      vertex -10 -6.75 6
    endloop
  endfacet
  facet normal -1 0 0
    outer loop
      vertex -14 1.5 2.3
      vertex -14 2.5 5.3
      vertex -14 2.5 2.3
    endloop
  endfacet
  facet normal -1 -0 0
    outer loop
      vertex -14 2.5 5.3
      vertex -14 1.5 2.3
      vertex -14 1.5 5.3
    endloop
  endfacet
  facet normal -1 0 0
    outer loop
      vertex -14 -2.5 2.3
      vertex -14 -1.5 5.3
      vertex -14 -1.5 2.3
    endloop
  endfacet
  facet normal -1 -0 0
    outer loop
      vertex -14 -1.5 5.3
      vertex -14 -2.5 2.3
      vertex -14 -2.5 5.3
    endloop
  endfacet
  facet normal 0 0 -1
    outer loop
      vertex -14 -2.5 5.3
      vertex -15.5 -1.5 5.3
      vertex -14 -1.5 5.3
    endloop
  endfacet
  facet normal -0 0 -1
    outer loop
      vertex -15.5 -1.5 5.3
      vertex -18 -2.5 5.3
      vertex -15.5 1.5 5.3
    endloop
  endfacet
  facet normal 0 0 -1
    outer loop
      vertex -18 -2.5 5.3
      vertex -15.5 -1.5 5.3
      vertex -14 -2.5 5.3
    endloop
  endfacet
  facet normal 0 0 -1
    outer loop
      vertex -15.5 1.5 5.3
      vertex -14 2.5 5.3
      vertex -14 1.5 5.3
    endloop
  endfacet
  facet normal 0 0 -1
    outer loop
      vertex -15.5 1.5 5.3
      vertex -18 2.5 5.3
      vertex -14 2.5 5.3
    endloop
  endfacet
  facet normal 0 0 -1
    outer loop
      vertex -18 2.5 5.3
      vertex -15.5 1.5 5.3
      vertex -18 -2.5 5.3
    endloop
  endfacet
  facet normal 0 0 1
    outer loop
      vertex -14 2.5 2.3
      vertex -15.5 1.5 2.3
      vertex -14 1.5 2.3
    endloop
  endfacet
  facet normal 0 0 1
    outer loop
      vertex -15.5 1.5 2.3
      vertex -18 2.5 2.3
      vertex -15.5 -1.5 2.3
    endloop
  endfacet
  facet normal -0 0 1
    outer loop
      vertex -18 2.5 2.3
      vertex -15.5 1.5 2.3
      vertex -14 2.5 2.3
    endloop
  endfacet
  facet normal -0 0 1
    outer loop
      vertex -15.5 -1.5 2.3
      vertex -14 -2.5 2.3
      vertex -14 -1.5 2.3
    endloop
  endfacet
  facet normal 0 0 1
    outer loop
      vertex -15.5 -1.5 2.3
      vertex -18 -2.5 2.3
      vertex -14 -2.5 2.3
    endloop
  endfacet
  facet normal 0 0 1
    outer loop
      vertex -18 -2.5 2.3
      vertex -15.5 -1.5 2.3
      vertex -18 2.5 2.3
    endloop
  endfacet
  facet normal 0 -1 0
    outer loop
      vertex -18 2.5 2.3
      vertex -14 2.5 5.3
      vertex -18 2.5 5.3
    endloop
  endfacet
  facet normal 0 -1 -0
    outer loop
      vertex -14 2.5 5.3
      vertex -18 2.5 2.3
      vertex -14 2.5 2.3
    endloop
  endfacet
  facet normal 0 1 -0
    outer loop
      vertex -14 -2.5 2.3
      vertex -18 -2.5 5.3
      vertex -14 -2.5 5.3
    endloop
  endfacet
  facet normal 0 1 0
    outer loop
      vertex -18 -2.5 5.3
      vertex -14 -2.5 2.3
      vertex -18 -2.5 2.3
    endloop
  endfacet
  facet normal 1 -0 0
    outer loop
      vertex -15.5 -1.5 2.3
      vertex -15.5 1.5 0
      vertex -15.5 1.5 2.3
    endloop
  endfacet
  facet normal 1 0 0
    outer loop
      vertex -15.5 1.5 0
      vertex -15.5 -1.5 2.3
      vertex -15.5 -1.5 0
    endloop
  endfacet
  facet normal 1 -0 0
    outer loop
      vertex -15.5 -1.5 6
      vertex -15.5 1.5 5.3
      vertex -15.5 1.5 6
    endloop
  endfacet
  facet normal 1 0 0
    outer loop
      vertex -15.5 1.5 5.3
      vertex -15.5 -1.5 6
      vertex -15.5 -1.5 5.3
    endloop
  endfacet
  facet normal 0 -1 0
    outer loop
      vertex -15.5 1.5 0
      vertex -14 1.5 2.3
      vertex -15.5 1.5 2.3
    endloop
  endfacet
  facet normal 0 -1 0
    outer loop
      vertex 15.5 1.5 0
      vertex -10 1.5 1.9
      vertex -15.5 1.5 0
    endloop
  endfacet
  facet normal 0 -1 -0
    outer loop
      vertex -14 1.5 2.3
      vertex -15.5 1.5 0
      vertex -10 1.5 1.9
    endloop
  endfacet
  facet normal 0 -1 0
    outer loop
      vertex -14 1.5 5.3
      vertex -15.5 1.5 6
      vertex -15.5 1.5 5.3
    endloop
  endfacet
  facet normal 0 -1 0
    outer loop
      vertex -15.5 1.5 6
      vertex -14 1.5 5.3
      vertex -10 1.5 6
    endloop
  endfacet
  facet normal 0 -1 0
    outer loop
      vertex -10 1.5 1.9
      vertex -14 1.5 5.3
      vertex -14 1.5 2.3
    endloop
  endfacet
  facet normal 0 -1 0
    outer loop
      vertex -14 1.5 5.3
      vertex -10 1.5 1.9
      vertex -10 1.5 6
    endloop
  endfacet
  facet normal 0 -1 0
    outer loop
      vertex 12 1.5 1.9
      vertex 15.5 1.5 6
      vertex 12 1.5 6
    endloop
  endfacet
  facet normal 0 -1 0
    outer loop
      vertex 12 1.5 1.9
      vertex 15.5 1.5 0
      vertex 15.5 1.5 6
    endloop
  endfacet
  facet normal 0 -1 0
    outer loop
      vertex -10 1.5 1.9
      vertex 15.5 1.5 0
      vertex 12 1.5 1.9
    endloop
  endfacet
  facet normal -1 0 0
    outer loop
      vertex 15.5 -1.5 0
      vertex 15.5 1.5 6
      vertex 15.5 1.5 0
    endloop
  endfacet
  facet normal -1 -0 0
    outer loop
      vertex 15.5 1.5 6
      vertex 15.5 -1.5 0
      vertex 15.5 -1.5 6
    endloop
  endfacet
  facet normal 0 1 0
    outer loop
      vertex 15.5 -1.5 6
      vertex 12 -1.5 1.9
      vertex 12 -1.5 6
    endloop
  endfacet
  facet normal 0 1 0
    outer loop
      vertex 12 -1.5 1.9
      vertex 15.5 -1.5 0
      vertex -10 -1.5 1.9
    endloop
  endfacet
  facet normal 0 1 -0
    outer loop
      vertex 15.5 -1.5 0
      vertex 12 -1.5 1.9
      vertex 15.5 -1.5 6
    endloop
  endfacet
  facet normal 0 1 0
    outer loop
      vertex -10 -1.5 6
      vertex -14 -1.5 5.3
      vertex -15.5 -1.5 6
    endloop
  endfacet
  facet normal 0 1 -0
    outer loop
      vertex -10 -1.5 1.9
      vertex -14 -1.5 5.3
      vertex -10 -1.5 6
    endloop
  endfacet
  facet normal 0 1 0
    outer loop
      vertex -14 -1.5 5.3
      vertex -10 -1.5 1.9
      vertex -14 -1.5 2.3
    endloop
  endfacet
  facet normal 0 1 0
    outer loop
      vertex -15.5 -1.5 0
      vertex -14 -1.5 2.3
      vertex -10 -1.5 1.9
    endloop
  endfacet
  facet normal 0 1 0
    outer loop
      vertex -15.5 -1.5 0
      vertex -10 -1.5 1.9
      vertex 15.5 -1.5 0
    endloop
  endfacet
  facet normal 0 1 0
    outer loop
      vertex -14 -1.5 2.3
      vertex -15.5 -1.5 0
      vertex -15.5 -1.5 2.3
    endloop
  endfacet
  facet normal 0 1 0
    outer loop
      vertex -15.5 -1.5 6
      vertex -14 -1.5 5.3
      vertex -15.5 -1.5 5.3
    endloop
  endfacet
endsolid OpenSCAD_Model
